<?xml version="1.0" encoding="UTF-8" standalone="no"?>
<!-- Created with Inkscape (http://www.inkscape.org/) -->

<svg
   xmlns:dc="http://purl.org/dc/elements/1.1/"
   xmlns:cc="http://creativecommons.org/ns#"
   xmlns:rdf="http://www.w3.org/1999/02/22-rdf-syntax-ns#"
   xmlns:svg="http://www.w3.org/2000/svg"
   xmlns="http://www.w3.org/2000/svg"
   xmlns:inkscape="http://www.inkscape.org/namespaces/inkscape"
   version="1.0"
   width="1740"
   height="450"
   id="svg2"><defs
   id="defs120" />
<style
   id="style4" />
<metadata
   id="metadata6">
  <rdf:RDF>
    <cc:Work
       rdf:about="">
      <dc:format>image/svg+xml</dc:format>
      <dc:type
         rdf:resource="http://purl.org/dc/dcmitype/StillImage" />
      <dc:title />
    </cc:Work>
  </rdf:RDF>
</metadata>
<path
   d="m 1078,355 -17,6 c 0,0 8,-5 0,-13 l 17,6 z"
   inkscape:connector-curvature="0"
   id="path8"
   style="fill:#000000;fill-rule:nonzero" />
<path
   d="m 1129,37 6,17 c 0,0 -5,-8 -13,0 l 6,-17 z"
   inkscape:connector-curvature="0"
   id="path10"
   style="fill:#000000;fill-rule:nonzero" />
<path
   d="m 1621,355 -17,6 c 0,0 8,-5 0,-13 l 17,6 z"
   inkscape:connector-curvature="0"
   id="path12"
   style="fill:#000000;fill-rule:nonzero" />
<path
   d="m 55,37 6,17 c 0,0 -5,-8 -13,0 l 6,-17 z"
   inkscape:connector-curvature="0"
   id="path14"
   style="fill:#000000;fill-rule:nonzero" />
<path
   d="m 471,355 -17,6 c 0,0 8,-5 0,-13 l 17,6 z"
   inkscape:connector-curvature="0"
   id="path16"
   style="fill:#000000;fill-rule:nonzero" />
<path
   d="m 587,37 6,17 c 0,0 -5,-8 -13,0 l 6,-17 z"
   inkscape:connector-curvature="0"
   id="path18"
   style="fill:#000000;fill-rule:nonzero" />
<path
   d="M 56,77 372,355"
   inkscape:connector-curvature="0"
   id="path20"
   style="fill:none;stroke:#000000;stroke-width:1.75;stroke-linecap:butt;stroke-linejoin:miter" />
<path
   d="M 587,147 971,357"
   inkscape:connector-curvature="0"
   id="path22"
   style="fill:none;stroke:#000000;stroke-width:1.75;stroke-linecap:butt;stroke-linejoin:miter" />
<path
   d="M 587,147 765,353"
   inkscape:connector-curvature="0"
   id="path24"
   style="fill:none;stroke:#000000;stroke-width:1.75;stroke-linecap:butt;stroke-linejoin:miter" />
<path
   d="m 1130,80 71,62"
   inkscape:connector-curvature="0"
   id="path26"
   style="fill:none;stroke:#000000;stroke-width:1.75;stroke-linecap:butt;stroke-linejoin:miter" />
*
 <path
   d="m 1130,80 37,69"
   inkscape:connector-curvature="0"
   id="path28"
   style="fill:none;stroke:#000000;stroke-width:1.75;stroke-linecap:butt;stroke-linejoin:miter" />
<path
   d="m 1167,149 185,207"
   inkscape:connector-curvature="0"
   id="path30"
   style="fill:none;stroke:#000000;stroke-width:1.75;stroke-linecap:butt;stroke-linejoin:miter" />
<path
   d="m 1201,142 377,213"
   inkscape:connector-curvature="0"
   id="path32"
   style="fill:none;stroke:#000000;stroke-width:1.75;stroke-linecap:butt;stroke-linejoin:miter" />
<path
   d="M 1064,356 588,355 586,43"
   inkscape:connector-curvature="0"
   id="path34"
   style="fill:none;stroke:#000000;stroke-width:1.75;stroke-linecap:butt;stroke-linejoin:miter" />
<path
   d="m 1607,356 -476,0 -2,-312"
   inkscape:connector-curvature="0"
   id="path36"
   style="fill:none;stroke:#000000;stroke-width:1.75;stroke-linecap:butt;stroke-linejoin:miter" />
<path
   d="m 716,221 -129,0"
   inkscape:connector-curvature="0"
   id="path38"
   style="fill:none;stroke:#000000;stroke-width:1.75;stroke-linecap:butt;stroke-linejoin:miter;stroke-dasharray:6, 6" />
<path
   d="m 716,221 0,136"
   inkscape:connector-curvature="0"
   id="path40"
   style="fill:none;stroke:#000000;stroke-width:1.75;stroke-linecap:butt;stroke-linejoin:miter;stroke-dasharray:6, 6" />
<path
   d="m 1295,199 -169,0"
   inkscape:connector-curvature="0"
   id="path42"
   style="fill:none;stroke:#000000;stroke-width:1.75;stroke-linecap:butt;stroke-linejoin:miter;stroke-dasharray:6, 6" />
<path
   d="m 1295,199 0,156"
   inkscape:connector-curvature="0"
   id="path44"
   style="fill:none;stroke:#000000;stroke-width:1.75;stroke-linecap:butt;stroke-linejoin:miter;stroke-dasharray:6, 6" />
<path
   d="m 167,177 0,177"
   inkscape:connector-curvature="0"
   id="path46"
   style="fill:none;stroke:#000000;stroke-width:1.75;stroke-linecap:butt;stroke-linejoin:miter;stroke-dasharray:6, 6" />
<path
   d="M 167,177 55,176"
   inkscape:connector-curvature="0"
   id="path48"
   style="fill:none;stroke:#000000;stroke-width:1.75;stroke-linecap:butt;stroke-linejoin:miter;stroke-dasharray:6, 6" />
<path
   d="M 1295,295 61,295"
   inkscape:connector-curvature="0"
   id="path50"
   style="fill:none;stroke:#000000;stroke-width:1.75;stroke-linecap:butt;stroke-linejoin:miter;stroke-dasharray:6, 6" />
<path
   d="M 1295,245 62,245"
   inkscape:connector-curvature="0"
   id="path52"
   style="fill:none;stroke:#000000;stroke-width:1.75;stroke-linecap:butt;stroke-linejoin:miter;stroke-dasharray:6, 6" />
<path
   d="M 463,356 57,355 55,43"
   inkscape:connector-curvature="0"
   id="path54"
   style="fill:none;stroke:#000000;stroke-width:1.75;stroke-linecap:butt;stroke-linejoin:miter" />
<path
   d="M 56,77 199,355"
   inkscape:connector-curvature="0"
   id="path56"
   style="fill:none;stroke:#000000;stroke-width:1.75;stroke-linecap:butt;stroke-linejoin:miter" />
<path
   d="M 1158,210 C 1282,481 1536,55 1536,55"
   inkscape:connector-curvature="0"
   id="path58"
   style="fill:none;stroke:#4040ff;stroke-width:1.75;stroke-linecap:butt;stroke-linejoin:miter" />
<path
   d="m 1190,149 c 192,240 302,33 302,33"
   inkscape:connector-curvature="0"
   id="path60"
   style="fill:none;stroke:#ff0000;stroke-width:1.75;stroke-linecap:butt;stroke-linejoin:miter" />
<rect
   width="124"
   height="22"
   x="589"
   y="222"
   id="rect62"
   style="fill:#ffffff;fill-opacity:0.8" />
<rect
   width="162"
   height="44"
   x="1132"
   y="200"
   id="rect64"
   style="fill:#ffffff;fill-opacity:0.8" />
<rect
   width="107"
   height="66"
   x="60"
   y="177"
   id="rect66"
   style="fill:#ffffff;fill-opacity:0.8" />
<text
   x="1138"
   y="232"
   id="text68"
   style="font-size:25px;fill:#808080;font-family:Bitstream Vera Sans">(Old profit)</text>
<text
   x="1520"
   y="181"
   id="text70"
   style="font-size:25px;fill:#000000;font-family:Bitstream Vera Sans">ATC</text>
<text
   x="14"
   y="184"
   id="text72"
   style="font-size:25px;fill:#000000;font-family:Bitstream Vera Sans">Pa</text>
<text
   x="81"
   y="222"
   id="text74"
   style="font-size:25px;fill:#000000;font-family:Bitstream Vera Sans">Profit</text>
<text
   x="546"
   y="230"
   id="text76"
   style="font-size:25px;fill:#000000;font-family:Bitstream Vera Sans">Pb</text>
<text
   x="619"
   y="243"
   id="text78"
   style="font-size:25px;fill:#000000;font-family:Bitstream Vera Sans">Profit</text>
<text
   x="24"
   y="27"
   id="text80"
   style="font-size:25px;fill:#000000;font-family:Bitstream Vera Sans">Price</text>
<text
   x="1111"
   y="27"
   id="text82"
   style="font-size:25px;fill:#000000;font-family:Bitstream Vera Sans">Price</text>
<text
   x="562"
   y="33"
   id="text84"
   style="font-size:25px;fill:#000000;font-family:Bitstream Vera Sans">Price</text>
<text
   x="199"
   y="340"
   id="text86"
   style="font-size:25px;fill:#000000;font-family:Bitstream Vera Sans">MRa</text>
<text
   x="363"
   y="340"
   id="text88"
   style="font-size:25px;fill:#000000;font-family:Bitstream Vera Sans">Da</text>
<text
   x="765"
   y="340"
   id="text90"
   style="font-size:25px;fill:#000000;font-family:Bitstream Vera Sans">MRb</text>
<text
   x="969"
   y="340"
   id="text92"
   style="font-size:25px;fill:#000000;font-family:Bitstream Vera Sans">Db</text>
<text
   x="1359"
   y="340"
   id="text94"
   style="font-size:25px;fill:#000000;font-family:Bitstream Vera Sans">MRt</text>
<text
   x="1580"
   y="340"
   id="text96"
   style="font-size:25px;fill:#000000;font-family:Bitstream Vera Sans">Dt</text>
<text
   x="1291"
   y="380"
   id="text98"
   style="font-size:25px;fill:#000000;font-family:Bitstream Vera Sans">Q</text>
<text
   x="202"
   y="380"
   id="text100"
   style="font-size:25px;fill:#000000;font-family:Bitstream Vera Sans">Q</text>
<text
   x="707"
   y="380"
   id="text102"
   style="font-size:25px;fill:#000000;font-family:Bitstream Vera Sans">Q</text>
<text
   x="1014"
   y="385"
   id="text104"
   style="font-size:25px;fill:#000000;font-family:Bitstream Vera Sans">Quantity</text>
<text
   x="1564"
   y="385"
   id="text106"
   style="font-size:25px;fill:#000000;font-family:Bitstream Vera Sans">Quantity</text>
<text
   x="437"
   y="385"
   id="text108"
   style="font-size:25px;fill:#000000;font-family:Bitstream Vera Sans">Quantity</text>
<text
   x="1557"
   y="62"
   id="text110"
   style="font-size:25px;fill:#000000;font-family:Bitstream Vera Sans">MC</text>
<text
   x="153"
   y="424"
   id="text112"
   style="font-size:25px;font-weight:bold;fill:#000000;font-family:Bitstream Vera Sans">Inelastic submarket</text>
<text
   x="740"
   y="424"
   id="text114"
   style="font-size:25px;font-weight:bold;fill:#000000;font-family:Bitstream Vera Sans">Elastic submarket</text>
<text
   x="1337"
   y="424"
   id="text116"
   style="font-size:25px;font-weight:bold;fill:#000000;font-family:Bitstream Vera Sans">Industry</text>
</svg>
