<!-- Created with Inkscape (http://www.inkscape.org/) -->
<svg xmlns:dc="http://purl.org/dc/elements/1.1/" xmlns:cc="http://creativecommons.org/ns#" xmlns:rdf="http://www.w3.org/1999/02/22-rdf-syntax-ns#" xmlns:svg="http://www.w3.org/2000/svg" xmlns="http://www.w3.org/2000/svg" xmlns:inkscape="http://www.inkscape.org/namespaces/inkscape" version="1.1" width="365.66818" height="255.97897" id="svg13031" style="display:inline">
  <desc id="desc13033">Produced by GNUPLOT 4.2 patchlevel 4  </desc>
  <metadata id="metadata79"></metadata>
  <defs id="defs13035">
    <marker refX="0" refY="0" orient="auto" id="Arrow1Mstart" style="overflow:visible">
      <path d="M 0,0 5,-5 -12.5,0 5,5 0,0 z" transform="matrix(0.4,0,0,0.4,4,0)" id="path5830" style="fill-rule:evenodd;stroke:#000000;stroke-width:1pt;marker-start:none"></path>
    </marker>
  </defs>
  <g transform="translate(-145.13666,-55.849628)" id="g13051" style="fill:none;stroke-width:1;stroke-linecap:butt;stroke-linejoin:miter"></g>
  <g transform="translate(-145.13666,-55.849628)" id="g13053" style="fill:none;stroke-width:1;stroke-linecap:butt;stroke-linejoin:miter"></g>
  <g transform="translate(-145.13666,-55.849628)" id="g13107" style="fill:none;stroke-width:1;stroke-linecap:butt;stroke-linejoin:miter">
    <path d="" id="path13109" style="stroke:#000000"></path>
  </g>
  <g transform="translate(-145.13666,-55.849628)" id="g13123" style="fill:none;stroke-width:1;stroke-linecap:butt;stroke-linejoin:miter">
    <path d="" id="path13125" style="stroke:#000000"></path>
  </g>
  <g transform="translate(-145.13666,-55.849628)" id="g13127" style="fill:none;stroke-width:1;stroke-linecap:butt;stroke-linejoin:miter">
    <path d="" id="path13129" style="stroke:#ff0000"></path>
  </g>
  <g transform="translate(-145.13666,-55.849628)" id="g13151" style="fill:none;stroke-width:1;stroke-linecap:butt;stroke-linejoin:miter">
    <path d="" id="path13153" style="stroke:#ff0000"></path>
  </g>
  <g transform="translate(-145.13666,-55.849628)" id="g13159" style="fill:none;stroke-width:1;stroke-linecap:butt;stroke-linejoin:miter">
    <path d="" id="path13161" style="stroke:#000000"></path>
  </g>
  <g transform="translate(-145.13666,-55.849628)" id="g13167" style="fill:none;stroke-width:1;stroke-linecap:butt;stroke-linejoin:miter">
    <path d="" id="path13169" style="stroke:#000000"></path>
  </g>
  <g transform="translate(-145.13666,-55.849628)" id="g13183" style="fill:none;stroke-width:1;stroke-linecap:butt;stroke-linejoin:miter">
    <path d="" id="path13185" style="stroke:#000000"></path>
  </g>
  <g transform="translate(-145.13666,-55.849628)" id="g13203" style="fill:none;stroke-width:1;stroke-linecap:butt;stroke-linejoin:miter">
    <path d="" id="path13205" style="stroke:#ff0000"></path>
  </g>
  <g transform="translate(-145.13666,-55.849628)" id="g13263" style="fill:none;stroke-width:1;stroke-linecap:butt;stroke-linejoin:miter">
    <path d="" id="path13265" style="stroke:#000000"></path>
  </g>
  <g transform="translate(-145.13666,-55.849628)" id="g13351" style="fill:none;stroke-width:1;stroke-linecap:butt;stroke-linejoin:miter"></g>
  <g transform="translate(-145.13666,-55.849628)" id="g13353" style="fill:none;stroke-width:1;stroke-linecap:butt;stroke-linejoin:miter"></g>
  <g transform="translate(-145.13666,-55.849628)" id="g13355" style="fill:none;stroke-width:1;stroke-linecap:butt;stroke-linejoin:miter"></g>
  <g transform="translate(305.37859,-8.0474344)" id="g13781" style="fill:none;stroke-width:1;stroke-linecap:butt;stroke-linejoin:miter"></g>
  <g transform="translate(305.37859,-8.0474344)" id="g13951" style="fill:none;stroke-width:1;stroke-linecap:butt;stroke-linejoin:miter">
    <path d="M 464.1,329.4 285.7,425.7 M 135.9,311 285.7,425.7" id="path13953"></path>
  </g>
  <g transform="translate(-145.13666,-55.849628)" id="layer4" style="display:inline">
    <path d="m 299.87452,221.32075 -7.4,19.4 -3,5.6 -2.6,3.7 -1.9,2.1 -2,1.7 -1.6,0.8 -1.5,0.5 -1.7,0.2 -1.13437,-0.3885 L 229.7,241.1 l 0,0 -33.3,-25.5 0,0 -12.8,-32.3 0,0 10.3,-32.6 0,0 31.3,-26.6 0,0 46.1,-15.2 0,0 51.7,-0.8 47.3,13.7 33.3,25.5 12.8,32.3 -10.36274,32.81037 -6.06274,2.71038 -6.5,2.5 -6.9,2.4 -7.6,2.3 -8.4,1.9 -9.4,1.7 -11.3,1.1 -14.7,0.2 -35.3,-5.9 z m 21.81767,-108.96606 1.3,-4.2 m -50.06094,5.02343 -1.6,-4.2 M 320.3,116.7 l 1.4,-4.4 m -47,5.2 -1.8,-4.4 m 45.9,8.4 1.5,-4.8 m -43.7,5.5 -1.9,-4.7 m 42.5,9.3 1.6,-5.3 m 47.45313,3.73906 4,-3.4 M 278.6,127.4 l -2,-5.2 m -47.16094,5.23906 -4.2,-3.3 M 362,128.8 l 4.3,-3.6 m -51,7.3 1.9,-5.7 m -36.3,6.3 -2.3,-5.7 m -44.6,3.5 -4.6,-3.5 m 128,5.3 4.6,-3.9 m -123.1,5.8 -4.9,-3.7 m 79.3,8.2 2,-6.6 m 37.1,4.5 5,-4.3 m -73.9,6.9 -2.6,-6.5 m -36.7,5.6 -5.3,-4.1 m 107.9,7.1 5.6,-4.7 m -102.3,6.2 -5.9,-4.5 m 66.6,8.2 2.5,-7.8 m -26.8,8.2 -3,-7.7 m 57.1,7.4 6.2,-5.3 m -90,6.7 -6.7,-5.2 m 57.5,13.8 3.2,-10.1 m 22.3,6.4 7.5,-6.3 m -50.1,10.3 -4,-10 m 111.12969,2.02344 5.9,-2 M 264.7,154.4 l -7.9,-6 m 134.6,2.9 6.3,-2 m -197.74476,3.1221 -6,-1.7 M 384.6,153.6 l 6.8,-2.3 m -185,3 -6.5,-1.9 m 123.5,9.2 9.7,-8.3 m 44.1,2.7 7.4,-2.4 m -171.3,2.7 -6.9,-2 m 68.7,8 -10.4,-7.9 m 104.4,4.3 8.1,-2.7 m -156.3,2.5 -7.6,-2.2 m 86.7,25.2 7.6,-24.5 m -7.6,24.5 -9.5,-24.2 m -61.2,3.6 -8.4,-2.4 m 138.9,3.2 9.3,-3 m -130.4,5 -9.4,-2.8 m 70.7,20.6 23.4,-19.9 m 25.4,3.8 11,-3.7 M 300,181.5 275.1,162.3 M 250,167 238.7,163.7 m 95.8,6.4 14.3,-4.7 M 264.7,171.2 250,167 m 50,14.5 34.5,-11.4 M 300,181.5 264.7,171.2 m 145.06094,8.5 6.6,-0.1 m -13.66094,0.2 7.1,-0.1 m -14.8,0.2 7.7,-0.1 m -15.9,0.3 8.2,-0.2 m -17.4,0.3 9.2,-0.1 m -19.6,0.3 10.4,-0.2 m -22.7,0.4 12.3,-0.2 m -28.4,0.4 16.1,-0.2 m -54.9,0.9 38.8,-0.7 M 405.97452,212.52075 300,181.5 m -38.8,0.6 38.8,-0.6 m -34.5,11.4 34.5,-11.4 m -23.4,19.9 23.4,-19.9 m -23,73.3 23,-73.3 m -54.9,0.8 16.1,-0.2 m -28.4,0.4 12.3,-0.2 m -22.7,0.4 10.4,-0.2 m -19.6,0.4 9.2,-0.2 m -17.4,0.3 8.2,-0.1 m -15.9,0.2 7.7,-0.1 m -14.8,0.2 7.1,-0.1 m -13.62266,0.2 6.6,-0.1 m 60.92266,14.4 14.3,-4.7 m -25.3,8.3 11,-3.6 m -20.3,6.6 9.3,-3 m 26.7,8.4 9.7,-8.2 m -53.8,5.5 8.1,-2.7 m 69.00185,8.4442 -10.72733,34.07655 M 215.4,209.4 l 7.4,-2.5 m -14.2,4.7 6.8,-2.2 m 44,6.5 7.5,-6.3 m -64.6,4.1 6.3,-2.1 m -12.1375,3.97656 5.9,-1.9 M 253.2,221.3 l 6.2,-5.4 m -11.8,10.1 5.6,-4.7 m -10.6,8.9 5,-4.2 m -9.6,8 4.6,-3.8 m -8.9,7.4 4.3,-3.6 m -8.27266,7.07266 L 233.7,237.6 m 66.28547,-51.48924 99.98905,29.00999 m -100.00218,-24.84301 93.50218,27.34301 m -93.51638,-22.83831 86.61638,25.23831 m -86.63054,-20.74279 79.03054,23.04279 m -79.04492,-18.48093 70.64492,20.38093 m -70.65874,-15.99522 61.25874,17.69522 m -61.18905,-39.80999 -21.81095,69.20999 m 21.72733,-42.67655 49.97267,14.37655 m -49.9864,-10.01855 35.2864,10.21855 m -35.20218,-36.94301 -20.09782,64.84301 m 20.05508,-51.28093 -15.15508,48.48093 m 15.18362,-57.53831 -18.68362,59.93831 m 18.66946,-55.44279 -17.16946,54.64279 m 17.14126,-45.69522 -13.24126,41.99522 m 13.2136,-33.21855 -7.4136,23.71855" id="path14232" style="fill:#ffffff;stroke:#ff0000;stroke-width:1;stroke-linecap:butt;stroke-linejoin:miter"></path>
    <path d="M 405.84904,252.3415 299.87452,221.32075" id="path15720" style="stroke:#000000;stroke-width:1.5;stroke-linecap:butt;stroke-linejoin:miter;stroke-miterlimit:4;stroke-dasharray:none;marker-start:url(#Arrow1Mstart);marker-end:none;display:inline"></path>
    <path d="m 300,147.5 -0.12548,73.82075" id="path15684" style="fill:none;stroke:#000000;stroke-width:1.5;stroke-linecap:butt;stroke-linejoin:miter;stroke-miterlimit:4;stroke-opacity:1;stroke-dasharray:none;marker-start:url(#Arrow1Mstart);marker-end:none;display:inline"></path>
    <path d="m 405.97452,212.52075 -6,2.6 -6.5,2.5 -6.9,2.4 -7.6,2.3 -8.4,1.9 -9.4,1.7 -11.3,1.1 -14.7,0.2 -35.3,-5.9" id="path15665" style="fill:none;stroke:#000000;stroke-width:1.5;stroke-linecap:butt;stroke-linejoin:miter;stroke-miterlimit:4;stroke-opacity:1;stroke-dasharray:none"></path>
    <g transform="translate(217.56137,38.780994)" id="g19564">
      <g transform="matrix(0.6857143,0,0,-0.6857143,-120,450)" id="content" xml:space="preserve" style="font-style:normal;font-variant:normal;font-weight:normal;font-stretch:normal;letter-spacing:normal;word-spacing:normal;text-anchor:start;fill:none;stroke:#000000;stroke-linecap:butt;stroke-linejoin:miter;stroke-miterlimit:10.43299961;stroke-opacity:1;stroke-dasharray:none;stroke-dashoffset:0">
        <path d="m 474.28,425.93 4.29,0 c 0.99,0 1.49,0 1.49,0.99 0,0.55 -0.5,0.55 -1.35,0.55 l -4.13,0 c 0.55,2.89 0.5,2.79 1.04,5.68 0.2,1.05 0.9,4.58 1.2,5.18 0.45,0.94 1.3,1.69 2.34,1.69 0.2,0 1.5,0 2.45,-0.9 -2.2,-0.19 -2.7,-1.94 -2.7,-2.68 0,-1.15 0.9,-1.75 1.85,-1.75 1.29,0 2.74,1.1 2.74,2.99 0,2.29 -2.29,3.44 -4.34,3.44 -1.69,0 -4.83,-0.9 -6.32,-5.83 -0.3,-1.05 -0.45,-1.54 -1.65,-7.82 l -3.43,0 c -0.95,0 -1.5,0 -1.5,-0.95 0,-0.59 0.45,-0.59 1.4,-0.59 l 3.29,0 -3.74,-19.68 c -0.9,-4.83 -1.75,-9.37 -4.33,-9.37 -0.2,0 -1.45,0 -2.4,0.9 2.29,0.15 2.74,1.94 2.74,2.69 0,1.15 -0.89,1.74 -1.84,1.74 -1.29,0 -2.74,-1.09 -2.74,-2.98 0,-2.25 2.19,-3.44 4.24,-3.44 2.73,0 4.73,2.94 5.62,4.83 1.6,3.14 2.74,9.17 2.79,9.51 l 2.99,15.8 z" id="path19567" style="fill:#000000;stroke-width:0"></path>
        <path d="m 501.49,394.04 0,0.03 0,0.03 -0.01,0.01 0,0.02 0,0.01 -0.01,0.02 0,0.02 -0.01,0.01 -0.01,0.02 -0.01,0.02 -0.01,0.03 -0.01,0.02 -0.02,0.02 -0.02,0.03 -0.02,0.03 -0.02,0.03 -0.03,0.03 -0.03,0.04 -0.01,0.02 -0.02,0.02 -0.02,0.02 -0.02,0.02 -0.02,0.02 -0.02,0.03 -0.02,0.02 -0.02,0.02 -0.02,0.03 -0.03,0.02 -0.02,0.03 -0.03,0.03 -0.02,0.03 -0.03,0.03 -0.03,0.03 -0.03,0.03 -0.03,0.03 -0.03,0.03 -0.04,0.04 -0.03,0.03 -0.04,0.04 -0.03,0.03 -0.04,0.04 -0.04,0.04 c -6.23,6.28 -7.82,15.69 -7.82,23.31 0,8.67 1.89,17.34 8.02,23.57 0.65,0.59 0.65,0.69 0.65,0.84 0,0.35 -0.2,0.5 -0.5,0.5 -0.5,0 -4.98,-3.39 -7.92,-9.72 -2.54,-5.47 -3.14,-11 -3.14,-15.19 0,-3.88 0.55,-9.91 3.29,-15.54 2.99,-6.12 7.27,-9.36 7.77,-9.36 0.3,0 0.5,0.15 0.5,0.49 z" id="path19569" style="fill:#000000;stroke-width:0"></path>
        <path d="m 529.21,424.98 0.01,0.03 0.01,0.03 0.01,0.03 0.01,0.03 0.01,0.06 0.02,0.05 0.01,0.06 0.01,0.04 0.02,0.05 0.01,0.04 0.01,0.04 0.01,0.04 0,0.04 0.01,0.04 0.01,0.03 0,0.03 0.01,0.03 0.01,0.03 0,0.03 0,0.03 0.01,0.03 0,0.02 0,0.06 0.01,0.05 0,0.05 0,0.05 0,0.03 0,0.03 0,0.03 0,0.03 c 0,0.9 -0.7,1.35 -1.44,1.35 -0.5,0 -1.3,-0.3 -1.75,-1.05 -0.1,-0.24 -0.5,-1.79 -0.7,-2.69 -0.34,-1.29 -0.7,-2.64 -0.99,-3.98 l -2.25,-8.97 c -0.19,-0.74 -2.33,-4.23 -5.62,-4.23 -2.54,0 -3.09,2.19 -3.09,4.03 0,2.3 0.84,5.38 2.54,9.77 0.8,2.04 0.99,2.59 0.99,3.58 0,2.25 -1.59,4.09 -4.08,4.09 -4.73,0 -6.57,-7.23 -6.57,-7.67 0,-0.5 0.49,-0.5 0.59,-0.5 0.5,0 0.55,0.1 0.8,0.9 1.34,4.68 3.34,6.17 5.03,6.17 0.4,0 1.25,0 1.25,-1.59 0,-1.25 -0.5,-2.54 -0.85,-3.49 -1.99,-5.28 -2.89,-8.12 -2.89,-10.46 0,-4.43 3.14,-5.93 6.08,-5.93 1.94,0 3.63,0.85 5.03,2.25 -0.65,-2.6 -1.25,-5.04 -3.24,-7.68 -1.29,-1.69 -3.19,-3.14 -5.48,-3.14 -0.7,0 -2.94,0.16 -3.79,2.1 0.8,0 1.45,0 2.15,0.59 0.49,0.45 0.99,1.1 0.99,2.05 0,1.54 -1.34,1.74 -1.84,1.74 -1.15,0 -2.79,-0.8 -2.79,-3.24 0,-2.49 2.19,-4.33 5.28,-4.33 5.13,0 10.26,4.53 11.66,10.16 l 4.78,19.03 z" id="path19571" style="fill:#000000;stroke-width:0"></path>
        <path d="m 545.4,418.45 -0.01,0.37 0,0.39 -0.01,0.39 -0.01,0.41 -0.04,0.84 -0.06,0.88 -0.09,0.92 -0.1,0.94 -0.14,0.98 -0.16,1 -0.2,1.02 -0.23,1.04 -0.27,1.05 -0.3,1.06 -0.35,1.06 -0.39,1.07 -0.22,0.53 -0.22,0.54 -0.24,0.53 -0.25,0.53 c -2.99,6.12 -7.27,9.36 -7.77,9.36 -0.3,0 -0.5,-0.2 -0.5,-0.5 0,-0.15 0,-0.25 0.94,-1.15 4.89,-4.92 7.73,-12.85 7.73,-23.26 0,-8.52 -1.85,-17.28 -8.02,-23.56 -0.65,-0.6 -0.65,-0.69 -0.65,-0.85 0,-0.29 0.2,-0.49 0.5,-0.49 0.5,0 4.98,3.38 7.92,9.71 2.54,5.48 3.14,11.01 3.14,15.19 z" id="path19573" style="fill:#000000;stroke-width:0"></path>
      </g>
    </g>
    <g transform="translate(116.27057,-17.001828)" id="g20015">
      <g transform="matrix(0.6857143,0,0,-0.6857143,-120,450)" id="g20017" xml:space="preserve" style="font-style:normal;font-variant:normal;font-weight:normal;font-stretch:normal;letter-spacing:normal;word-spacing:normal;text-anchor:start;fill:none;stroke:#000000;stroke-linecap:butt;stroke-linejoin:miter;stroke-miterlimit:10.43299961;stroke-opacity:1;stroke-dasharray:none;stroke-dashoffset:0">
        <path d="m 480.21,424.98 0.01,0.03 0.01,0.03 0.01,0.03 0.01,0.03 0.01,0.06 0.02,0.05 0.01,0.06 0.01,0.04 0.02,0.05 0.01,0.04 0.01,0.04 0.01,0.04 0,0.04 0.01,0.04 0.01,0.03 0,0.03 0.01,0.03 0.01,0.03 0,0.03 0,0.03 0.01,0.03 0,0.02 0,0.06 0.01,0.05 0,0.05 0,0.05 0,0.03 0,0.03 0,0.03 0,0.03 c 0,0.9 -0.7,1.35 -1.45,1.35 -0.5,0 -1.29,-0.3 -1.74,-1.05 -0.1,-0.24 -0.5,-1.79 -0.7,-2.69 -0.34,-1.29 -0.7,-2.64 -0.99,-3.98 l -2.24,-8.97 c -0.2,-0.74 -2.34,-4.23 -5.63,-4.23 -2.54,0 -3.09,2.19 -3.09,4.03 0,2.3 0.84,5.38 2.54,9.77 0.8,2.04 1,2.59 1,3.58 0,2.25 -1.6,4.09 -4.09,4.09 -4.73,0 -6.57,-7.23 -6.57,-7.67 0,-0.5 0.49,-0.5 0.59,-0.5 0.5,0 0.55,0.1 0.8,0.9 1.34,4.68 3.34,6.17 5.03,6.17 0.4,0 1.25,0 1.25,-1.59 0,-1.25 -0.5,-2.54 -0.85,-3.49 -1.99,-5.28 -2.89,-8.12 -2.89,-10.46 0,-4.43 3.14,-5.93 6.08,-5.93 1.94,0 3.63,0.85 5.03,2.25 -0.65,-2.6 -1.25,-5.04 -3.24,-7.68 -1.29,-1.69 -3.19,-3.14 -5.48,-3.14 -0.7,0 -2.94,0.16 -3.79,2.1 0.8,0 1.45,0 2.15,0.59 0.49,0.45 0.99,1.1 0.99,2.05 0,1.54 -1.34,1.74 -1.84,1.74 -1.15,0 -2.79,-0.8 -2.79,-3.24 0,-2.49 2.19,-4.33 5.28,-4.33 5.13,0 10.26,4.53 11.66,10.16 l 4.78,19.03 z" id="path20019" style="fill:#000000;stroke-width:0"></path>
      </g>
    </g>
  </g>
</svg>
