<!-- Created with Inkscape (http://www.inkscape.org/) -->
<svg xmlns:dc="http://purl.org/dc/elements/1.1/" xmlns:cc="http://creativecommons.org/ns#" xmlns:rdf="http://www.w3.org/1999/02/22-rdf-syntax-ns#" xmlns:svg="http://www.w3.org/2000/svg" xmlns="http://www.w3.org/2000/svg" xmlns:inkscape="http://www.inkscape.org/namespaces/inkscape" version="1.1" width="365.66818" height="255.97897" id="svg2">
  <desc id="desc4">Produced by GNUPLOT 4.2 patchlevel 4  </desc>
  <metadata id="metadata25"></metadata>
  <defs id="defs6">
    <marker refX="0" refY="0" orient="auto" id="Arrow1Mstart" style="overflow:visible">
      <path d="M 0,0 5,-5 -12.5,0 5,5 0,0 z" transform="matrix(0.4,0,0,0.4,4,0)" id="path5830" style="fill-rule:evenodd;stroke:#000000;stroke-width:1pt;marker-start:none"></path>
    </marker>
    <marker refX="0" refY="0" orient="auto" id="Arrow1Mend" style="overflow:visible">
      <path d="M 0,0 5,-5 -12.5,0 5,5 0,0 z" transform="matrix(-0.4,0,0,-0.4,-4,0)" id="path5833" style="fill-rule:evenodd;stroke:#000000;stroke-width:1pt;marker-start:none"></path>
    </marker>
  </defs>
  <g transform="translate(-157.20247,-74.496803)" id="layer2" style="display:inline">
    <path d="m 394.3,217.2 11.8,-4.9 0,0 m -23.6,8.8 11.8,-3.9 m -23.6,6.8 11.8,-2.9 m -23.6,4.9 11.8,-2 m -23.6,3 11.8,-1 m -23.6,1 11.8,0 m -23.6,-1 11.8,1 m -23.6,-2.9 11.8,1.9 m -41.4,28.1 2.6,-1.8 m 0,0 2.5,-2.7 m 2.6,-3.8 2.6,-4.7 m 0,0 2.5,-5.7 2.6,-6.6 m -10.3,20.8 2.6,-3.8 m 7.7,-17 2.5,-7.7 m 0.0166,0.0276 L 311.7,224.1 M 300.04834,221.14046 277,294.4 l 0,0 -47.3,-13.7 -33.3,-25.5 -12.8,-32.08394 0,-39.69106 -0.0156,-0.10938 10.29629,-32.61286 31.31542,-26.61057 46.10196,-15.21953 51.7,-0.84102 L 370.3,121.8 l 33.3625,25.4375 12.78892,32.31108 -0.009,39.75453 L 406.1,251.8221 300.04834,221.14046 z M 406.1,251.41219 l 0,-39.5 M 320.5,124.6 323,108.1 m -48.5,17.2 -3.2,-16.4 m 91.2,27.8 -42,-12.1 m -2.6,15.5 2.6,-15.5 m -46,0.7 46,-0.7 m -42.8,16.1 -3.2,-15.4 m -41,13.5 41,-13.5 m 80.2,25.4 -36.8,-10.6 m -2.6,14.5 2.6,-14.5 m -40.2,0.6 40.2,-0.6 m -37,15 -3.2,-14.4 m -35.9,11.8 35.9,-11.8 m 69.1,23 -31.5,-9.1 m -2.5,13.5 2.5,-13.5 m -34.4,0.5 34.4,-0.5 m -31.2,14 -3.2,-13.5 m -30.8,10.2 30.8,-10.2 m 58.1,20.6 -26.2,-7.6 m -2.6,12.6 2.6,-12.6 m -28.7,0.5 28.7,-0.5 m 49.7,-31.4 7.78438,-14.86484 M 287.3,181 284.1,168.6 m -25.7,8.4 25.7,-8.4 m 108,-9.2 -29.6,-22.7 m -7.8,14 7.8,-14 m 18.1,33.9 -25.9,-19.9 m -7.9,13 7.9,-13 M 233.5,138.8 225.21562,124.12734 M 241.8,152.5 233.5,138.8 m -27.8,23.6 27.8,-23.6 m 16.6,26.5 -8.3,-12.8 m -24.3,20.7 24.3,-20.7 m 127.3,28.2 -22.3,-17 m -7.8,12 7.8,-12 m -15.6,23.1 -21,-6.1 m -2.6,11.6 2.6,-11.6 m -22.9,0.3 22.9,-0.3 m -19.7,11.8 -3.2,-11.5 m -20.5,6.8 20.5,-6.8 m -28.9,-4 -8.3,-11.7 M 229.3,183 250.1,165.3 M 357.5,189.9 339,175.7 m -7.8,11.1 7.8,-11.1 m -72.2,12.1 -8.4,-10.8 m -17.3,14.8 17.3,-14.8 m 65,19.8 -15.8,-4.5 m -2.5,10.6 2.5,-10.6 m -17.1,0.2 17.1,-0.2 m -13.9,10.7 -3.2,-10.5 m -15.4,5.1 15.4,-5.1 m 55.5,5.6 -14.8,-11.3 m -7.8,10 7.8,-10 m -56.1,10.8 -8.3,-9.8 m -13.9,11.8 13.9,-11.8 m 67.7,17.5 -11.1,-8.5 m -7.8,9.1 7.8,-9.1 m -40,9.6 -8.3,-8.8 m -10.4,8.9 10.4,-8.9 m 40.5,8.3 -10.5,-3 m -2.6,9.6 2.6,-9.6 m -11.4,0.1 11.4,-0.1 m -8.2,9.7 -3.2,-9.6 m -10.3,3.4 10.3,-3.4 m -2,11.8 -0.7,-0.6 m 32,-2.6 -7.4,-5.7 m -7.8,8.1 7.8,-8.1 m -23.9,8.4 -8.3,-7.9 m -6.9,5.9 6.9,-5.9 m 94.2,-4.1 -8.5,-21.6 m -11.6,9.2 11.6,-9.2 m 11.5,-10.1 -11.5,10.1 m -4.4,27.2 -7.2,-18 m -11.5,8.2 11.5,-8.2 m 33,5.8 -9.9,-25.1 m 11.5,-11.2 -11.5,11.2 m -28.9,41.9 -5.7,-14.4 m -11.5,7.2 11.5,-7.2 m -93.1,1.5 -11.8,-7.8 m -5.8,18.1 5.8,-18.1 m -11.8,-8.8 11.8,8.8 m 162.4,-3.7 -11.4,-28.7 m 11.51563,-12.11562 -11.54688,12.15078 M 338.8,216.1 334.5,205.3 m -11.5,6.3 11.5,-6.3 m -69.8,1.2 -11.8,-6.9 m -4.6,14.5 4.6,-14.5 m -30.5,5.2 6.9,-21.8 m -11.8,-9.8 11.8,9.8 m 78.5,31 -5.3,-1.5 m -2.5,8.6 2.5,-8.6 m -5.6,0.1 5.6,-0.1 m -2.5,8.6 -3.1,-8.5 m -5.2,1.7 5.2,-1.7 m -20.4,-0.3 -11.8,-5.8 m -3.5,10.8 3.5,-10.8 m -55.2,-7.9 8,-25.4 m -11.8,-10.8 11.8,10.8 m 94,43.6 -3.7,-2.8 m -7.8,7.1 7.8,-7.1 m 18,4.8 -2.8,-7.2 m -11.5,5.2 11.5,-5.2 m -23,9.5 -8.3,-6.8 m -3.4,2.9 3.4,-2.9 m -3.4,2.9 -11.8,-4.9 m -2.3,7.3 2.3,-7.3 m -80,-20.8 9.2,-29.1 M 193.9221,150.74972 205.7,162.4 m 107.2,58 -1.4,-3.6 m -11.5,4.3 11.5,-4.3 m -11.5,4.3 -11.7,-3.9 m -1.2,3.7 1.2,-3.7 m 23.6,6.9 0,-0.1 m 1,-3.6 -12.9,0.7 m -12.9,-0.2 12.9,0.2 m -11.5,3.3 11.5,-3.3 m -7.8,6.2 7.8,-6.2 m 11.7,3 1.2,-3.7 m 12.9,-1.6 -12.9,1.6 m -24.4,4 -1.4,-3.5 m -12.9,-1.3 12.9,1.3 m 36.4,5.1 2.3,-7.2 m 13,-2.7 -13,2.7 m -48.8,8 -2.8,-7.2 m -13,-2.3 13,2.3 m 61.1,7.4 3.5,-10.9 m 12.9,-3.6 -12.9,3.6 m -73.3,12 -4.3,-10.8 m -12.9,-3.2 12.9,3.2 m 31,10 -3.7,-2.9 m -11.5,2.4 11.5,-2.4 m 58.6,2.6 4.6,-14.5 m 13,-4.6 -13,4.6 m -97.7,16 -5.7,-14.4 m -13,-4.2 13,4.2 m 49.2,14.7 -5.3,-1.5 m -7.8,5 7.8,-5 m 66.7,-1.3 5.8,-18.1 m 12.9,-5.6 -12.9,5.6 m -80.3,24.4 -7.4,-5.5 m -11.5,1.3 11.5,-1.3 m -34.5,1.1 -7.2,-18 m -12.9,-5.1 12.9,5.1 m 135.4,14.1 6.9,-21.7 m 12.9,-6.6 -12.9,6.6 m -146.7,24 -8.5,-21.5 m -12.9,-6.2 12.9,6.2 m 54.2,31.7 -11.1,-8.4 m -11.5,0.4 11.5,-0.4 m 29.4,7.3 -10.5,-3.1 m -7.8,4.2 7.8,-4.2 m -22.3,10.2 -0.3,-0.3 m 120.7,-21.1 8,-25.4 m 13,-7.6 -13,7.6 m -171.1,28 -9.9,-25.1 m -13,-7.1 13,7.1 m 38.7,45.8 -0.2,-0.2 m 146.3,-27 9.2,-29.1 M 416.34858,179.61714 403.5,188.1 M 268.8,239.7 254,228.5 m -11.5,-0.6 11.5,0.6 m 38.4,12.6 -15.8,-4.6 m -7.8,3.2 7.8,-3.2 M 207.9,220.2 196.5,191.5 M 183.7875,183.3625 196.5,191.5 m 209.6,20.8 10.28286,-32.61431 M 261,242 242.5,227.9 m -11.6,-1.6 11.6,1.6 M 196.4,215.6 183.76016,183.47187 M 289.8,245.8 l -21,-6.1 m -7.8,2.3 7.8,-2.3 m -15.6,3.5 -22.3,-16.9 m -11.5,-2.6 11.5,2.6 M 287.2,249.6 261,242 m -7.8,1.2 7.8,-1.2 m -15.7,1.5 -25.9,-19.8 m -11.5,-3.5 11.5,3.5 m 65.3,28.6 -31.5,-9.1 m -7.9,0.3 7.9,-0.3 m -15.7,-0.4 -29.6,-22.6 m -11.5,-4.6 11.5,4.6 m -11.5,-4.6 -0.0625,39.65 M 229.7,241.1 196.4,215.6 m 33.3,25.5 -33.3,-25.5 m 85.7,38.5 -36.8,-10.6 m -7.8,-0.7 7.8,0.7 m 31.7,11.3 1.8,-0.1 3.3,-0.6 m -3.3,0.6 -41.3,-11.9 m -7.8,-1.7 7.8,1.7 m -7.8,-1.7 0,39.57187 M 277,254.8 229.7,241.1 m 47.3,13.74419 0,39.55893 M 394.3,217.2 l 0.14902,31.22879 M 382.5,221.1 l 0.18635,23.92527 M 370.7,224 l 0.26733,17.63438 M 358.9,226 l 0.31509,12.23387 M 347.1,227 l 0.0441,7.74113 M 335.3,227 l -0.12696,4.27731 M 323.5,226 l -0.0564,1.88341 M 278.8,254.7 l -0.0381,34.18545 M 284.7,252.3 l -0.006,18.01669 M 294.9,235.4 l -0.0202,3.03682 M 289.8,245.8 l -0.0459,8.68021 M 282.1,254.1 282.0636,278.55109 M 287.2,249.6 l 0.0192,12.81436 M 292.4,241.1 l -0.009,5.12707" id="path20901" style="fill:#ffffff;fill-opacity:1;fill-rule:nonzero;stroke:#ff0000;stroke-width:1;stroke-linecap:butt;stroke-linejoin:miter"></path>
  </g>
  <g transform="translate(-157.20247,-74.496803)" id="layer1" style="display:inline">
    <path d="m 300,175.8 0.15029,46.14033" id="path4190" style="stroke:#000000;stroke-width:1.5;stroke-linecap:butt;stroke-linejoin:miter;stroke-miterlimit:4;stroke-dasharray:none;marker-start:url(#Arrow1Mstart);marker-end:none"></path>
    <path d="m 299.74155,221.30544 116.67557,34.078" id="path5049" style="fill:none;stroke:#000000;stroke-width:1.5;stroke-linecap:butt;stroke-linejoin:miter;stroke-miterlimit:4;stroke-opacity:1;stroke-dasharray:none;marker-end:url(#Arrow1Mend)"></path>
    <path d="M 300.16359,221.14195 311.7,224.1 l 11.8,1.9 11.8,1 11.8,0 11.8,-1 11.8,-2 11.8,-2.9 11.8,-3.9 11.8,-4.9" id="path10276" style="fill:none;stroke:#000000;stroke-width:1.5;stroke-linecap:butt;stroke-linejoin:miter;stroke-miterlimit:4;stroke-opacity:1;stroke-dasharray:none"></path>
    <g transform="translate(205.92708,103.54525)" id="g11364">
      <g transform="matrix(0.6857143,0,0,-0.6857143,-120,450)" id="g11366" xml:space="preserve" style="font-style:normal;font-variant:normal;font-weight:normal;font-stretch:normal;letter-spacing:normal;word-spacing:normal;text-anchor:start;fill:none;stroke:#000000;stroke-linecap:butt;stroke-linejoin:miter;stroke-miterlimit:10.43299961;stroke-opacity:1;stroke-dasharray:none;stroke-dashoffset:0">
        <path d="m 472.64,421.04 0.03,0.13 0.03,0.15 0.05,0.17 0.04,0.18 0.06,0.19 0.06,0.21 0.06,0.21 0.07,0.23 0.08,0.23 0.09,0.24 0.1,0.25 0.1,0.24 0.11,0.25 0.12,0.25 0.13,0.25 0.14,0.25 0.15,0.24 0.15,0.24 0.17,0.23 0.18,0.22 0.18,0.22 0.2,0.2 0.21,0.19 0.22,0.18 0.23,0.16 0.25,0.14 0.12,0.07 0.13,0.06 0.13,0.05 0.14,0.05 0.14,0.05 0.14,0.04 0.14,0.03 0.15,0.03 0.15,0.02 0.16,0.02 0.16,0.01 0.16,0 c 0.25,0 1.45,0 2.49,-0.65 -1.4,-0.25 -2.39,-1.49 -2.39,-2.68 0,-0.8 0.54,-1.75 1.89,-1.75 1.1,0 2.69,0.9 2.69,2.89 0,2.59 -2.94,3.29 -4.63,3.29 -2.89,0 -4.64,-2.64 -5.23,-3.79 -1.25,3.29 -3.94,3.79 -5.38,3.79 -5.18,0 -8.02,-6.43 -8.02,-7.67 0,-0.5 0.5,-0.5 0.6,-0.5 0.39,0 0.54,0.1 0.64,0.54 1.7,5.29 4.98,6.53 6.68,6.53 0.95,0 2.69,-0.45 2.69,-3.33 0,-1.55 -0.85,-4.89 -2.69,-11.86 -0.8,-3.09 -2.54,-5.18 -4.73,-5.18 -0.3,0 -1.45,0 -2.49,0.65 1.24,0.25 2.34,1.29 2.34,2.69 0,1.34 -1.1,1.74 -1.85,1.74 -1.49,0 -2.73,-1.3 -2.73,-2.89 0,-2.29 2.48,-3.29 4.68,-3.29 3.28,0 5.08,3.49 5.23,3.79 0.6,-1.85 2.39,-3.79 5.38,-3.79 5.13,0 7.97,6.43 7.97,7.67 0,0.5 -0.45,0.5 -0.6,0.5 -0.45,0 -0.55,-0.2 -0.65,-0.55 -1.64,-5.33 -5.03,-6.52 -6.62,-6.52 -1.95,0 -2.74,1.59 -2.74,3.29 0,1.09 0.29,2.19 0.85,4.38 l 1.69,6.82 z" id="path11368" style="fill:#000000;stroke-width:0"></path>
      </g>
    </g>
    <g transform="translate(-11.57368,10.06612)" id="g12508">
      <path d="m 437.43654,182.97845 2.94171,0 c 0.67886,0 1.02172,0 1.02172,-0.67886 0,-0.37714 -0.34286,-0.37714 -0.92572,-0.37714 l -2.832,0 c 0.37715,-1.98172 0.34286,-1.91314 0.71315,-3.89486 0.13714,-0.72 0.61714,-3.14057 0.82285,-3.552 0.30857,-0.64457 0.89143,-1.15886 1.60457,-1.15886 0.13715,0 1.02858,0 1.68,0.61715 -1.50857,0.13028 -1.85142,1.33028 -1.85142,1.83771 0,0.78857 0.61714,1.2 1.26857,1.2 0.88457,0 1.87885,-0.75428 1.87885,-2.05028 0,-1.57029 -1.57028,-2.35886 -2.976,-2.35886 -1.15885,0 -3.312,0.61714 -4.33371,3.99771 -0.20571,0.72 -0.30857,1.056 -1.13143,5.36229 l -2.352,0 c -0.65143,0 -1.02857,0 -1.02857,0.65143 0,0.40457 0.30857,0.40457 0.96,0.40457 l 2.256,0 -2.56457,13.49486 c -0.61714,3.312 -1.2,6.42514 -2.96914,6.42514 -0.13715,0 -0.99429,0 -1.64572,-0.61714 1.57029,-0.10286 1.87886,-1.33029 1.87886,-1.84458 0,-0.78857 -0.61029,-1.19314 -1.26172,-1.19314 -0.88457,0 -1.87885,0.74743 -1.87885,2.04343 0,1.54286 1.50171,2.35886 2.90743,2.35886 1.872,0 3.24342,-2.016 3.85371,-3.312 1.09714,-2.15315 1.87886,-6.288 1.91314,-6.52115 l 2.05029,-10.83428 z" id="path12102" style="font-style:normal;font-variant:normal;font-weight:normal;font-stretch:normal;letter-spacing:normal;word-spacing:normal;text-anchor:start;fill:#000000;fill-opacity:1;stroke:#000000;stroke-width:0;stroke-linecap:butt;stroke-linejoin:miter;stroke-miterlimit:10.43299961;stroke-opacity:1;stroke-dasharray:none;stroke-dashoffset:0"></path>
      <path d="m 456.09482,204.84588 0,-0.0206 0,-0.0206 -0.007,-0.007 0,-0.0137 0,-0.007 -0.007,-0.0137 0,-0.0137 -0.007,-0.007 -0.007,-0.0137 -0.007,-0.0137 -0.007,-0.0206 -0.007,-0.0137 -0.0137,-0.0137 -0.0137,-0.0206 -0.0137,-0.0206 -0.0137,-0.0206 -0.0206,-0.0206 -0.0206,-0.0274 -0.007,-0.0137 -0.0137,-0.0137 -0.0137,-0.0137 -0.0137,-0.0137 -0.0137,-0.0137 -0.0137,-0.0206 -0.0137,-0.0137 -0.0137,-0.0137 -0.0137,-0.0206 -0.0206,-0.0137 -0.0137,-0.0206 -0.0206,-0.0206 -0.0137,-0.0206 -0.0206,-0.0206 -0.0206,-0.0206 -0.0206,-0.0206 -0.0206,-0.0206 -0.0206,-0.0206 -0.0274,-0.0274 -0.0206,-0.0206 -0.0274,-0.0274 -0.0206,-0.0206 -0.0274,-0.0274 -0.0274,-0.0274 c -4.272,-4.30628 -5.36229,-10.75886 -5.36229,-15.984 0,-5.94514 1.296,-11.89028 5.49943,-16.16228 0.44571,-0.40458 0.44571,-0.47315 0.44571,-0.576 0,-0.24 -0.13714,-0.34286 -0.34285,-0.34286 -0.34286,0 -3.41486,2.32457 -5.43086,6.66514 -1.74171,3.75086 -2.15314,7.54286 -2.15314,10.416 0,2.66057 0.37714,6.79543 2.256,10.656 2.05028,4.19657 4.98514,6.41829 5.328,6.41829 0.20571,0 0.34285,-0.10286 0.34285,-0.336 z" id="path12104" style="font-style:normal;font-variant:normal;font-weight:normal;font-stretch:normal;letter-spacing:normal;word-spacing:normal;text-anchor:start;fill:#000000;fill-opacity:1;stroke:#000000;stroke-width:0;stroke-linecap:butt;stroke-linejoin:miter;stroke-miterlimit:10.43299961;stroke-opacity:1;stroke-dasharray:none;stroke-dashoffset:0"></path>
      <path d="m 469.91197,186.33159 0.0206,-0.0891 0.0206,-0.10286 0.0343,-0.11657 0.0274,-0.12343 0.0412,-0.13028 0.0411,-0.144 0.0411,-0.144 0.048,-0.15772 0.0549,-0.15771 0.0617,-0.16457 0.0686,-0.17143 0.0686,-0.16457 0.0754,-0.17143 0.0823,-0.17143 0.0891,-0.17143 0.096,-0.17143 0.10286,-0.16457 0.10286,-0.16457 0.11657,-0.15772 0.12343,-0.15085 0.12343,-0.15086 0.13714,-0.13714 0.144,-0.13029 0.15086,-0.12343 0.15771,-0.10971 0.17143,-0.096 0.0823,-0.048 0.0891,-0.0411 0.0891,-0.0343 0.096,-0.0343 0.096,-0.0343 0.096,-0.0274 0.096,-0.0206 0.10286,-0.0206 0.10286,-0.0137 0.10971,-0.0137 0.10971,-0.007 0.10972,0 c 0.17143,0 0.99428,0 1.70743,0.44572 -0.96,0.17142 -1.63886,1.02171 -1.63886,1.83771 0,0.54857 0.37714,1.2 1.296,1.2 0.75429,0 1.84457,-0.61714 1.84457,-1.98171 0,-1.776 -2.016,-2.256 -3.17486,-2.256 -1.98171,0 -3.18171,1.81028 -3.58628,2.59885 -0.85029,-2.256 -2.70172,-2.59885 -3.68914,-2.59885 -3.552,0 -5.49943,4.40914 -5.49943,5.25942 0,0.34286 0.34285,0.34286 0.41143,0.34286 0.26742,0 0.37028,-0.0686 0.43885,-0.37028 1.16572,-3.62743 3.42172,-4.47772 4.58057,-4.47772 0.64458,0 1.84458,0.30857 1.84458,2.28343 0,1.06286 -0.58286,3.35314 -1.84458,8.13257 -0.54857,2.11886 -1.74171,3.552 -3.24342,3.552 -0.20572,0 -0.99429,0 -1.70743,-0.44571 0.85028,-0.17143 1.60457,-0.88457 1.60457,-1.84457 0,-0.91886 -0.75429,-1.19315 -1.26857,-1.19315 -1.02172,0 -1.872,0.89143 -1.872,1.98172 0,1.57028 1.70057,2.256 3.20914,2.256 2.24914,0 3.48343,-2.39315 3.57943,-2.59886 0.41828,1.26857 1.64571,2.59886 3.696,2.59886 3.51771,0 5.46514,-4.40915 5.46514,-5.25943 0,-0.34286 -0.30857,-0.34286 -0.41143,-0.34286 -0.30857,0 -0.37714,0.13714 -0.44571,0.37714 -1.12457,3.65486 -3.44914,4.47086 -4.53943,4.47086 -1.33029,0 -1.87886,-1.09028 -1.87886,-2.256 0,-0.74743 0.20572,-1.50171 0.58286,-3.00343 l 1.15886,-4.67657 z" id="path12106" style="font-style:normal;font-variant:normal;font-weight:normal;font-stretch:normal;letter-spacing:normal;word-spacing:normal;text-anchor:start;fill:#000000;fill-opacity:1;stroke:#000000;stroke-width:0;stroke-linecap:butt;stroke-linejoin:miter;stroke-miterlimit:10.43299961;stroke-opacity:1;stroke-dasharray:none;stroke-dashoffset:0"></path>
      <path d="m 487.57597,188.10759 -0.007,-0.25371 0,-0.26743 -0.007,-0.26743 -0.007,-0.28114 -0.0274,-0.576 -0.0411,-0.60343 -0.0617,-0.63086 -0.0686,-0.64457 -0.096,-0.672 -0.10972,-0.68571 -0.13714,-0.69943 -0.15771,-0.71315 -0.18515,-0.72 -0.20571,-0.72685 -0.24,-0.72686 -0.26743,-0.73371 -0.15086,-0.36343 -0.15085,-0.37029 -0.16457,-0.36343 -0.17143,-0.36343 c -2.05029,-4.19657 -4.98515,-6.41828 -5.328,-6.41828 -0.20572,0 -0.34286,0.13714 -0.34286,0.34286 0,0.10285 0,0.17142 0.64457,0.78857 3.35314,3.37371 5.30057,8.81143 5.30057,15.94971 0,5.84229 -1.26857,11.84914 -5.49943,16.15543 -0.44571,0.41143 -0.44571,0.47314 -0.44571,0.58286 0,0.19885 0.13714,0.336 0.34286,0.336 0.34285,0 3.41485,-2.31772 5.43085,-6.65829 1.74172,-3.75771 2.15315,-7.54971 2.15315,-10.416 z" id="path12108" style="font-style:normal;font-variant:normal;font-weight:normal;font-stretch:normal;letter-spacing:normal;word-spacing:normal;text-anchor:start;fill:#000000;fill-opacity:1;stroke:#000000;stroke-width:0;stroke-linecap:butt;stroke-linejoin:miter;stroke-miterlimit:10.43299961;stroke-opacity:1;stroke-dasharray:none;stroke-dashoffset:0"></path>
    </g>
  </g>
</svg>
