<!-- Created with Inkscape (http://www.inkscape.org/) -->
<svg xmlns:dc="http://purl.org/dc/elements/1.1/" xmlns:cc="http://creativecommons.org/ns#" xmlns:rdf="http://www.w3.org/1999/02/22-rdf-syntax-ns#" xmlns:svg="http://www.w3.org/2000/svg" xmlns="http://www.w3.org/2000/svg" xmlns:inkscape="http://www.inkscape.org/namespaces/inkscape" version="1.1" width="1000" height="900" id="svg2">
  <metadata id="metadata7"></metadata>
  <defs id="defs5"></defs>
  <path d="m 138.62052,851.20344 0,-815.307376" id="path1885" style="fill:none;stroke:#000000;stroke-width:3.79212737px;stroke-linecap:butt;stroke-linejoin:miter;stroke-opacity:1"></path>
  <path d="m 634.67817,243.87055 c -108.5347,2.33853 -184.99513,75.67588 -268.53001,133.31698 l 0,379.21272 455.05527,0 0,-455.05527 c -72.8729,-42.80744 -133.51997,-58.6165 -186.52526,-57.47443 z" id="path1897" style="fill:#6c9dce;fill-opacity:1;fill-rule:evenodd;stroke:none"></path>
  <path d="m 602.8006,522.4734 c -101.08207,-0.0992 -218.00799,12.03112 -369.3769,44.32049 l 0,189.60636 720.50418,0 0,-189.60636 C 836.55749,542.95578 732.76324,522.60089 602.8006,522.4734 z" id="path1895" style="fill:#ff6037;fill-opacity:0.66403162;fill-rule:evenodd;stroke:none"></path>
  <path d="m 233.4237,566.79389 c 345.98611,-73.80428 511.84572,-42.37885 720.50418,0" id="path1887" style="fill:none;stroke:#ff0000;stroke-width:9.85953045;stroke-linecap:butt;stroke-linejoin:miter;stroke-miterlimit:4;stroke-opacity:1;stroke-dasharray:none"></path>
  <path d="m 991.84916,756.40025 -985.9530963,0" id="path1883" style="fill:none;stroke:#000000;stroke-width:3.79212737px;stroke-linecap:butt;stroke-linejoin:miter;stroke-opacity:1"></path>
  <path d="M 821.20343,301.34498 C 599.11458,170.88419 490.47916,291.39613 366.14816,377.18753" id="path1889" style="fill:none;stroke:#333399;stroke-width:9.85953045;stroke-linecap:butt;stroke-linejoin:miter;stroke-miterlimit:4;stroke-opacity:1;stroke-dasharray:none"></path>
  <path d="m 821.20343,73.817334 0,777.386106" id="path1893" style="fill:none;stroke:#000000;stroke-width:3.79212737;stroke-linecap:butt;stroke-linejoin:miter;stroke-miterlimit:4;stroke-opacity:1;stroke-dasharray:15.16850917, 15.16850917;stroke-dashoffset:0"></path>
  <path d="m 366.14816,73.817334 0,777.386106" id="path1891" style="fill:none;stroke:#000000;stroke-width:3.79212737;stroke-linecap:butt;stroke-linejoin:miter;stroke-miterlimit:4;stroke-opacity:1;stroke-dasharray:15.16850917, 15.16850917;stroke-dashoffset:0"></path>
  <path d="m 980.47278,748.816 11.37638,7.58425 -11.37638,7.58426" id="path2786" style="fill:none;stroke:#000000;stroke-width:3.79212737px;stroke-linecap:butt;stroke-linejoin:miter;stroke-opacity:1"></path>
  <path d="m 146.20477,47.272454 -7.58425,-11.37639 -7.58425,11.37639" id="path2788" style="fill:none;stroke:#000000;stroke-width:3.79212737px;stroke-linecap:butt;stroke-linejoin:miter;stroke-opacity:1"></path>
</svg>
