<!-- Created with Inkscape (http://www.inkscape.org/) -->
<svg xmlns:dc="http://purl.org/dc/elements/1.1/" xmlns:cc="http://creativecommons.org/ns#" xmlns:rdf="http://www.w3.org/1999/02/22-rdf-syntax-ns#" xmlns:svg="http://www.w3.org/2000/svg" xmlns="http://www.w3.org/2000/svg" xmlns:xlink="http://www.w3.org/1999/xlink" xmlns:inkscape="http://www.inkscape.org/namespaces/inkscape" version="1.1" width="245.68074" height="218.48129" id="svg2" style="display:inline">
  <defs id="defs4">
    <linearGradient id="linearGradient5701">
      <stop id="stop5703" style="stop-color:#000000;stop-opacity:1" offset="0"></stop>
      <stop id="stop5705" style="stop-color:#000000;stop-opacity:0" offset="1"></stop>
    </linearGradient>
    <linearGradient id="linearGradient5693">
      <stop id="stop5695" style="stop-color:#000000;stop-opacity:1" offset="0"></stop>
      <stop id="stop5697" style="stop-color:#000000;stop-opacity:0" offset="1"></stop>
    </linearGradient>
    <linearGradient id="linearGradient5685">
      <stop id="stop5687" style="stop-color:#000000;stop-opacity:1" offset="0"></stop>
      <stop id="stop5689" style="stop-color:#000000;stop-opacity:0" offset="1"></stop>
    </linearGradient>
    <linearGradient id="linearGradient5677">
      <stop id="stop5679" style="stop-color:#ff0000;stop-opacity:1" offset="0"></stop>
      <stop id="stop5681" style="stop-color:#ff0000;stop-opacity:0" offset="1"></stop>
    </linearGradient>
    <linearGradient id="linearGradient5669">
      <stop id="stop5671" style="stop-color:#ff0000;stop-opacity:1" offset="0"></stop>
      <stop id="stop5673" style="stop-color:#ff0000;stop-opacity:0" offset="1"></stop>
    </linearGradient>
    <linearGradient id="linearGradient5661">
      <stop id="stop5663" style="stop-color:#ff0000;stop-opacity:1" offset="0"></stop>
      <stop id="stop5665" style="stop-color:#ff0000;stop-opacity:0" offset="1"></stop>
    </linearGradient>
    <linearGradient id="linearGradient5653">
      <stop id="stop5655" style="stop-color:#ff0000;stop-opacity:1" offset="0"></stop>
      <stop id="stop5657" style="stop-color:#ff0000;stop-opacity:0" offset="1"></stop>
    </linearGradient>
    <linearGradient id="linearGradient5645">
      <stop id="stop5647" style="stop-color:#000000;stop-opacity:1" offset="0"></stop>
      <stop id="stop5649" style="stop-color:#000000;stop-opacity:0" offset="1"></stop>
    </linearGradient>
    <linearGradient id="linearGradient5637">
      <stop id="stop5639" style="stop-color:#000000;stop-opacity:1" offset="0"></stop>
      <stop id="stop5641" style="stop-color:#000000;stop-opacity:0" offset="1"></stop>
    </linearGradient>
    <linearGradient id="linearGradient5629">
      <stop id="stop5631" style="stop-color:#000000;stop-opacity:1" offset="0"></stop>
      <stop id="stop5633" style="stop-color:#000000;stop-opacity:0" offset="1"></stop>
    </linearGradient>
    <linearGradient id="linearGradient5621">
      <stop id="stop5623" style="stop-color:#000000;stop-opacity:1" offset="0"></stop>
      <stop id="stop5625" style="stop-color:#000000;stop-opacity:0" offset="1"></stop>
    </linearGradient>
    <linearGradient id="linearGradient5613">
      <stop id="stop5615" style="stop-color:#000000;stop-opacity:1" offset="0"></stop>
      <stop id="stop5617" style="stop-color:#000000;stop-opacity:0" offset="1"></stop>
    </linearGradient>
    <linearGradient id="linearGradient5605">
      <stop id="stop5607" style="stop-color:#ff0000;stop-opacity:1" offset="0"></stop>
      <stop id="stop5609" style="stop-color:#ff0000;stop-opacity:0" offset="1"></stop>
    </linearGradient>
    <linearGradient id="linearGradient5597">
      <stop id="stop5599" style="stop-color:#000000;stop-opacity:1" offset="0"></stop>
      <stop id="stop5601" style="stop-color:#000000;stop-opacity:0" offset="1"></stop>
    </linearGradient>
    <linearGradient id="linearGradient5589">
      <stop id="stop5591" style="stop-color:#000000;stop-opacity:1" offset="0"></stop>
      <stop id="stop5593" style="stop-color:#000000;stop-opacity:0" offset="1"></stop>
    </linearGradient>
    <linearGradient id="linearGradient5581">
      <stop id="stop5583" style="stop-color:#000000;stop-opacity:1" offset="0"></stop>
      <stop id="stop5585" style="stop-color:#000000;stop-opacity:0" offset="1"></stop>
    </linearGradient>
    <linearGradient id="linearGradient5573">
      <stop id="stop5575" style="stop-color:#000000;stop-opacity:1" offset="0"></stop>
      <stop id="stop5577" style="stop-color:#000000;stop-opacity:0" offset="1"></stop>
    </linearGradient>
    <linearGradient id="linearGradient5565">
      <stop id="stop5567" style="stop-color:#000000;stop-opacity:1" offset="0"></stop>
      <stop id="stop5569" style="stop-color:#000000;stop-opacity:0" offset="1"></stop>
    </linearGradient>
    <linearGradient id="linearGradient5557">
      <stop id="stop5559" style="stop-color:#000000;stop-opacity:1" offset="0"></stop>
      <stop id="stop5561" style="stop-color:#000000;stop-opacity:0" offset="1"></stop>
    </linearGradient>
    <linearGradient id="linearGradient5549">
      <stop id="stop5551" style="stop-color:#000000;stop-opacity:1" offset="0"></stop>
      <stop id="stop5553" style="stop-color:#000000;stop-opacity:0" offset="1"></stop>
    </linearGradient>
    <linearGradient id="linearGradient5541">
      <stop id="stop5543" style="stop-color:#000000;stop-opacity:1" offset="0"></stop>
      <stop id="stop5545" style="stop-color:#000000;stop-opacity:0" offset="1"></stop>
    </linearGradient>
    <linearGradient id="linearGradient5533">
      <stop id="stop5535" style="stop-color:#ff0000;stop-opacity:1" offset="0"></stop>
      <stop id="stop5537" style="stop-color:#ff0000;stop-opacity:0" offset="1"></stop>
    </linearGradient>
    <linearGradient id="linearGradient5525">
      <stop id="stop5527" style="stop-color:#000000;stop-opacity:1" offset="0"></stop>
      <stop id="stop5529" style="stop-color:#000000;stop-opacity:0" offset="1"></stop>
    </linearGradient>
    <linearGradient id="linearGradient5517">
      <stop id="stop5519" style="stop-color:#000000;stop-opacity:1" offset="0"></stop>
      <stop id="stop5521" style="stop-color:#000000;stop-opacity:0" offset="1"></stop>
    </linearGradient>
    <linearGradient id="linearGradient5509">
      <stop id="stop5511" style="stop-color:#000000;stop-opacity:1" offset="0"></stop>
      <stop id="stop5513" style="stop-color:#000000;stop-opacity:0" offset="1"></stop>
    </linearGradient>
    <linearGradient id="linearGradient5501">
      <stop id="stop5503" style="stop-color:#000000;stop-opacity:1" offset="0"></stop>
      <stop id="stop5505" style="stop-color:#000000;stop-opacity:0" offset="1"></stop>
    </linearGradient>
    <linearGradient id="linearGradient5493">
      <stop id="stop5495" style="stop-color:#ff0000;stop-opacity:1" offset="0"></stop>
      <stop id="stop5497" style="stop-color:#ff0000;stop-opacity:0" offset="1"></stop>
    </linearGradient>
    <linearGradient id="linearGradient5485">
      <stop id="stop5487" style="stop-color:#ff0000;stop-opacity:1" offset="0"></stop>
      <stop id="stop5489" style="stop-color:#ff0000;stop-opacity:0" offset="1"></stop>
    </linearGradient>
    <linearGradient id="linearGradient5477">
      <stop id="stop5479" style="stop-color:#000000;stop-opacity:1" offset="0"></stop>
      <stop id="stop5481" style="stop-color:#000000;stop-opacity:0" offset="1"></stop>
    </linearGradient>
    <linearGradient id="linearGradient5469">
      <stop id="stop5471" style="stop-color:#000000;stop-opacity:1" offset="0"></stop>
      <stop id="stop5473" style="stop-color:#000000;stop-opacity:0" offset="1"></stop>
    </linearGradient>
    <linearGradient id="linearGradient5461">
      <stop id="stop5463" style="stop-color:#000000;stop-opacity:1" offset="0"></stop>
      <stop id="stop5465" style="stop-color:#000000;stop-opacity:0" offset="1"></stop>
    </linearGradient>
    <linearGradient id="linearGradient5453">
      <stop id="stop5455" style="stop-color:#000000;stop-opacity:1" offset="0"></stop>
      <stop id="stop5457" style="stop-color:#000000;stop-opacity:0" offset="1"></stop>
    </linearGradient>
    <linearGradient id="linearGradient5443">
      <stop id="stop5445" style="stop-color:#ff0000;stop-opacity:1" offset="0"></stop>
      <stop id="stop5451" style="stop-color:#ff0000;stop-opacity:0.49803922" offset="0.3080101"></stop>
      <stop id="stop5447" style="stop-color:#ff0000;stop-opacity:0" offset="1"></stop>
    </linearGradient>
    <linearGradient x1="272.72861" y1="326.34943" x2="313.63345" y2="329.70819" id="linearGradient5449" xlink:href="#linearGradient5443" gradientUnits="userSpaceOnUse"></linearGradient>
    <linearGradient x1="299.54575" y1="290.26935" x2="317.42776" y2="259.51935" id="linearGradient5459" xlink:href="#linearGradient5453" gradientUnits="userSpaceOnUse"></linearGradient>
    <linearGradient x1="320.79703" y1="236.94699" x2="281.88715" y2="242.44699" id="linearGradient5467" xlink:href="#linearGradient5461" gradientUnits="userSpaceOnUse"></linearGradient>
    <linearGradient x1="266.76151" y1="216.56627" x2="294.2247" y2="194.06627" id="linearGradient5475" xlink:href="#linearGradient5469" gradientUnits="userSpaceOnUse"></linearGradient>
    <linearGradient x1="294.73801" y1="161.00662" x2="285.18915" y2="177.50662" id="linearGradient5483" xlink:href="#linearGradient5477" gradientUnits="userSpaceOnUse"></linearGradient>
    <linearGradient x1="286.58383" y1="130.65544" x2="311.00369" y2="151.03044" id="linearGradient5491" xlink:href="#linearGradient5485" gradientUnits="userSpaceOnUse" gradientTransform="matrix(-1,0,0,1,594.08753,0)"></linearGradient>
    <linearGradient x1="354.07178" y1="121.63357" x2="364.29514" y2="135.63356" id="linearGradient5499" xlink:href="#linearGradient5493" gradientUnits="userSpaceOnUse"></linearGradient>
    <linearGradient x1="354.60858" y1="156.70808" x2="324.26279" y2="142.33308" id="linearGradient5507" xlink:href="#linearGradient5501" gradientUnits="userSpaceOnUse"></linearGradient>
    <linearGradient x1="324.60541" y1="201.62276" x2="355.08386" y2="191.74776" id="linearGradient5515" xlink:href="#linearGradient5509" gradientUnits="userSpaceOnUse"></linearGradient>
    <linearGradient x1="389.81036" y1="147.81563" x2="368.35797" y2="173.06563" id="linearGradient5523" xlink:href="#linearGradient5517" gradientUnits="userSpaceOnUse"></linearGradient>
    <linearGradient x1="418.25201" y1="119.16144" x2="411.18286" y2="145.41144" id="linearGradient5531" xlink:href="#linearGradient5525" gradientUnits="userSpaceOnUse"></linearGradient>
    <linearGradient x1="460.19366" y1="159.73593" x2="492.08453" y2="159.11093" id="linearGradient5539" xlink:href="#linearGradient5533" gradientUnits="userSpaceOnUse"></linearGradient>
    <linearGradient x1="523.29578" y1="135.00218" x2="503.59845" y2="171.87718" id="linearGradient5547" xlink:href="#linearGradient5541" gradientUnits="userSpaceOnUse"></linearGradient>
    <linearGradient x1="453.87067" y1="178.73282" x2="437.77805" y2="155.98282" id="linearGradient5555" xlink:href="#linearGradient5549" gradientUnits="userSpaceOnUse"></linearGradient>
    <linearGradient x1="420.51407" y1="159.66081" x2="438.92142" y2="223.66081" id="linearGradient5563" xlink:href="#linearGradient5557" gradientUnits="userSpaceOnUse"></linearGradient>
    <linearGradient x1="401.73105" y1="214.41368" x2="373.79895" y2="219.53868" id="linearGradient5571" xlink:href="#linearGradient5565" gradientUnits="userSpaceOnUse"></linearGradient>
    <linearGradient x1="352.08386" y1="234.92035" x2="369.59592" y2="278.67035" id="linearGradient5579" xlink:href="#linearGradient5573" gradientUnits="userSpaceOnUse"></linearGradient>
    <linearGradient x1="352.66443" y1="241.67639" x2="327.95694" y2="281.17639" id="linearGradient5587" xlink:href="#linearGradient5581" gradientUnits="userSpaceOnUse"></linearGradient>
    <linearGradient x1="405.66824" y1="251.48636" x2="354.64032" y2="280.73636" id="linearGradient5595" xlink:href="#linearGradient5589" gradientUnits="userSpaceOnUse"></linearGradient>
    <linearGradient x1="393.03754" y1="244.6161" x2="450.67334" y2="252.9911" id="linearGradient5603" xlink:href="#linearGradient5597" gradientUnits="userSpaceOnUse"></linearGradient>
    <linearGradient x1="512.81104" y1="254.15195" x2="503.76141" y2="294.02695" id="linearGradient5611" xlink:href="#linearGradient5605" gradientUnits="userSpaceOnUse"></linearGradient>
    <linearGradient x1="486.58896" y1="305.23666" x2="459.42715" y2="280.73666" id="linearGradient5619" xlink:href="#linearGradient5613" gradientUnits="userSpaceOnUse"></linearGradient>
    <linearGradient x1="383.4595" y1="311.42416" x2="424.29453" y2="275.42416" id="linearGradient5627" xlink:href="#linearGradient5621" gradientUnits="userSpaceOnUse"></linearGradient>
    <linearGradient x1="414.01025" y1="332.40417" x2="399.88208" y2="289.02917" id="linearGradient5635" xlink:href="#linearGradient5629" gradientUnits="userSpaceOnUse"></linearGradient>
    <linearGradient x1="414.22855" y1="289.77252" x2="446.62766" y2="321.52252" id="linearGradient5643" xlink:href="#linearGradient5637" gradientUnits="userSpaceOnUse"></linearGradient>
    <linearGradient x1="451.87067" y1="297.27347" x2="436.11243" y2="324.77347" id="linearGradient5651" xlink:href="#linearGradient5645" gradientUnits="userSpaceOnUse"></linearGradient>
    <linearGradient x1="470.30533" y1="343.0278" x2="495.67081" y2="330.5278" id="linearGradient5659" xlink:href="#linearGradient5653" gradientUnits="userSpaceOnUse" gradientTransform="matrix(-1,0,0,1,932.01725,0)"></linearGradient>
    <linearGradient x1="510.83643" y1="343.56436" x2="509.5719" y2="313.43936" id="linearGradient5667" xlink:href="#linearGradient5661" gradientUnits="userSpaceOnUse"></linearGradient>
    <linearGradient x1="345.32178" y1="340.01868" x2="379.59274" y2="329.39368" id="linearGradient5675" xlink:href="#linearGradient5669" gradientUnits="userSpaceOnUse"></linearGradient>
    <linearGradient x1="270.76724" y1="260.22366" x2="282.7431" y2="277.97366" id="linearGradient5683" xlink:href="#linearGradient5677" gradientUnits="userSpaceOnUse" gradientTransform="matrix(1,0,0,-1,0,534.07231)"></linearGradient>
    <linearGradient x1="359.20123" y1="313.14725" x2="308.8797" y2="317.39725" id="linearGradient5691" xlink:href="#linearGradient5685" gradientUnits="userSpaceOnUse"></linearGradient>
    <linearGradient x1="467.72772" y1="224.38438" x2="510.15747" y2="207.50938" id="linearGradient5699" xlink:href="#linearGradient5693" gradientUnits="userSpaceOnUse"></linearGradient>
    <linearGradient x1="496.56357" y1="208.46919" x2="456.60291" y2="204.09419" id="linearGradient5707" xlink:href="#linearGradient5701" gradientUnits="userSpaceOnUse"></linearGradient>
    <marker refX="0" refY="0" orient="auto" id="Arrow2Mends" style="overflow:visible">
      <path d="M 8.7185878,4.0337352 -2.2072895,0.01601326 8.7185884,-4.0017078 c -1.7454984,2.3720609 -1.7354408,5.6174519 -6e-7,8.035443 z" transform="scale(-0.6,-0.6)" id="path6344" style="font-size:12px;fill:#ff0000;fill-rule:evenodd;stroke:#ff0000;stroke-width:0.625;stroke-linejoin:round"></path>
    </marker>
    <marker refX="0" refY="0" orient="auto" id="Arrow2MendsW" style="overflow:visible">
      <path d="M 8.7185878,4.0337352 -2.2072895,0.01601326 8.7185884,-4.0017078 c -1.7454984,2.3720609 -1.7354408,5.6174519 -6e-7,8.035443 z" transform="scale(-0.6,-0.6)" id="path6347" style="font-size:12px;fill:#ff0000;fill-rule:evenodd;stroke:#ff0000;stroke-width:0.625;stroke-linejoin:round"></path>
    </marker>
    <marker refX="0" refY="0" orient="auto" id="Arrow2Mendl" style="overflow:visible">
      <path d="M 8.7185878,4.0337352 -2.2072895,0.01601326 8.7185884,-4.0017078 c -1.7454984,2.3720609 -1.7354408,5.6174519 -6e-7,8.035443 z" transform="scale(-0.6,-0.6)" id="path6350" style="font-size:12px;fill:#ff0000;fill-rule:evenodd;stroke:#ff0000;stroke-width:0.625;stroke-linejoin:round"></path>
    </marker>
    <marker refX="0" refY="0" orient="auto" id="Arrow2MendM" style="overflow:visible">
      <path d="M 8.7185878,4.0337352 -2.2072895,0.01601326 8.7185884,-4.0017078 c -1.7454984,2.3720609 -1.7354408,5.6174519 -6e-7,8.035443 z" transform="scale(-0.6,-0.6)" id="path6353" style="font-size:12px;fill:#ff0000;fill-rule:evenodd;stroke:#ff0000;stroke-width:0.625;stroke-linejoin:round"></path>
    </marker>
    <marker refX="0" refY="0" orient="auto" id="Arrow2Mend0" style="overflow:visible">
      <path d="M 8.7185878,4.0337352 -2.2072895,0.01601326 8.7185884,-4.0017078 c -1.7454984,2.3720609 -1.7354408,5.6174519 -6e-7,8.035443 z" transform="scale(-0.6,-0.6)" id="path6356" style="font-size:12px;fill:#ff0000;fill-rule:evenodd;stroke:#ff0000;stroke-width:0.625;stroke-linejoin:round"></path>
    </marker>
    <marker refX="0" refY="0" orient="auto" id="Arrow2MendL" style="overflow:visible">
      <path d="M 8.7185878,4.0337352 -2.2072895,0.01601326 8.7185884,-4.0017078 c -1.7454984,2.3720609 -1.7354408,5.6174519 -6e-7,8.035443 z" transform="scale(-0.6,-0.6)" id="path6359" style="font-size:12px;fill:#ff0000;fill-rule:evenodd;stroke:#ff0000;stroke-width:0.625;stroke-linejoin:round"></path>
    </marker>
    <marker refX="0" refY="0" orient="auto" id="Arrow2MendA" style="overflow:visible">
      <path d="M 8.7185878,4.0337352 -2.2072895,0.01601326 8.7185884,-4.0017078 c -1.7454984,2.3720609 -1.7354408,5.6174519 -6e-7,8.035443 z" transform="scale(-0.6,-0.6)" id="path6362" style="font-size:12px;fill:#ff0000;fill-rule:evenodd;stroke:#ff0000;stroke-width:0.625;stroke-linejoin:round"></path>
    </marker>
    <marker refX="0" refY="0" orient="auto" id="Arrow2MendG" style="overflow:visible">
      <path d="M 8.7185878,4.0337352 -2.2072895,0.01601326 8.7185884,-4.0017078 c -1.7454984,2.3720609 -1.7354408,5.6174519 -6e-7,8.035443 z" transform="scale(-0.6,-0.6)" id="path6365" style="font-size:12px;fill:#ff0000;fill-rule:evenodd;stroke:#ff0000;stroke-width:0.625;stroke-linejoin:round"></path>
    </marker>
    <marker refX="0" refY="0" orient="auto" id="Arrow2MendV" style="overflow:visible">
      <path d="M 8.7185878,4.0337352 -2.2072895,0.01601326 8.7185884,-4.0017078 c -1.7454984,2.3720609 -1.7354408,5.6174519 -6e-7,8.035443 z" transform="scale(-0.6,-0.6)" id="path6368" style="font-size:12px;fill:#ff0000;fill-rule:evenodd;stroke:#ff0000;stroke-width:0.625;stroke-linejoin:round"></path>
    </marker>
    <marker refX="0" refY="0" orient="auto" id="Arrow2MendI" style="overflow:visible">
      <path d="M 8.7185878,4.0337352 -2.2072895,0.01601326 8.7185884,-4.0017078 c -1.7454984,2.3720609 -1.7354408,5.6174519 -6e-7,8.035443 z" transform="scale(-0.6,-0.6)" id="path6371" style="font-size:12px;fill:#ff0000;fill-rule:evenodd;stroke:#ff0000;stroke-width:0.625;stroke-linejoin:round"></path>
    </marker>
    <marker refX="0" refY="0" orient="auto" id="Arrow2Mend2" style="overflow:visible">
      <path d="M 8.7185878,4.0337352 -2.2072895,0.01601326 8.7185884,-4.0017078 c -1.7454984,2.3720609 -1.7354408,5.6174519 -6e-7,8.035443 z" transform="scale(-0.6,-0.6)" id="path6374" style="font-size:12px;fill:#ff0000;fill-rule:evenodd;stroke:#ff0000;stroke-width:0.625;stroke-linejoin:round"></path>
    </marker>
  </defs>
  <metadata id="metadata7"></metadata>
  <g transform="translate(-271.62837,-325.4055)" id="layer3" style="opacity:0.5;display:inline"></g>
  <g transform="translate(-271.62837,-325.4055)" id="layer2" style="display:inline"></g>
  <g transform="translate(-271.62837,-325.4055)" id="layer4" style="display:inline">
    <g transform="matrix(0.59049,0,0,0.59049,161.53889,294.903)" id="g8442">
      <path d="M 274.76149,211.91526 295.9747,192.21729" id="path3879" style="opacity:0.5;fill:none;stroke:url(#linearGradient5475);stroke-width:8;stroke-linecap:butt;stroke-linejoin:bevel;stroke-miterlimit:4;stroke-opacity:1;stroke-dasharray:none;marker-end:none;display:inline"></path>
      <path d="m 292.81416,164.43809 -7.95114,13.63706" id="path3881" style="opacity:0.5;fill:none;stroke:url(#linearGradient5483);stroke-width:8;stroke-linecap:butt;stroke-linejoin:bevel;stroke-miterlimit:4;stroke-opacity:1;stroke-dasharray:none;marker-end:none;display:inline"></path>
      <path d="m 342.94679,126.0523 8.12586,-10.94405 14.0975,21.55065" id="path3883" style="opacity:0.5;fill:none;stroke:url(#linearGradient5499);stroke-width:8;stroke-linecap:butt;stroke-linejoin:bevel;stroke-miterlimit:4;stroke-opacity:1;stroke-dasharray:none;marker-end:none;display:inline"></path>
      <path d="m 416.18285,126.55737 -5.55584,20.70813" id="path3885" style="opacity:0.5;fill:none;stroke:url(#linearGradient5531);stroke-width:8;stroke-linecap:butt;stroke-linejoin:bevel;stroke-miterlimit:4;stroke-opacity:1;stroke-dasharray:none;marker-end:none;display:inline"></path>
      <path d="m 383.85797,154.33657 -17.1726,20.70813" id="path3887" style="opacity:0.5;fill:none;stroke:url(#linearGradient5523);stroke-width:8;stroke-linecap:butt;stroke-linejoin:bevel;stroke-miterlimit:4;stroke-opacity:1;stroke-dasharray:none;marker-end:none;display:inline"></path>
      <path d="M 347.01278,152.95649 321.73359,141.70966" id="path3889" style="opacity:0.5;fill:none;stroke:url(#linearGradient5507);stroke-width:8;stroke-linecap:butt;stroke-linejoin:bevel;stroke-miterlimit:4;stroke-opacity:1;stroke-dasharray:none;marker-end:none;display:inline"></path>
      <path d="m 331.23042,199.53328 25.35343,-7.82107" id="path3891" style="opacity:0.5;fill:none;stroke:url(#linearGradient5515);stroke-width:8;stroke-linecap:butt;stroke-linejoin:bevel;stroke-miterlimit:4;stroke-opacity:1;stroke-dasharray:none;marker-end:none;display:inline"></path>
      <path d="m 356.20885,241.73507 14.01206,38.87057" id="path3893" style="opacity:0.5;fill:none;stroke:url(#linearGradient5579);stroke-width:8;stroke-linecap:butt;stroke-linejoin:bevel;stroke-miterlimit:4;stroke-opacity:1;stroke-dasharray:none;marker-end:none;display:inline"></path>
      <path d="m 344.58194,254.22682 -17.29252,28.39912" id="path3895" style="opacity:0.5;fill:none;stroke:url(#linearGradient5587);stroke-width:8;stroke-linecap:butt;stroke-linejoin:bevel;stroke-miterlimit:4;stroke-opacity:1;stroke-dasharray:none;marker-end:none;display:inline"></path>
      <path d="m 269.19042,280.60564 -11.42316,-9.36739 27.60083,-17.77158" id="path3897" style="opacity:0.5;fill:none;stroke:url(#linearGradient5683);stroke-width:8;stroke-linecap:butt;stroke-linejoin:bevel;stroke-miterlimit:4;stroke-opacity:1;stroke-dasharray:none;marker-end:none;display:inline"></path>
      <path d="m 272.74119,326.0625 -14.9312,11.05699 15.6601,20.98313 45.18253,-31.13098" id="path3899" style="opacity:0.5;fill:none;stroke:url(#linearGradient5449);stroke-width:8;stroke-linecap:butt;stroke-linejoin:bevel;stroke-miterlimit:4;stroke-opacity:1;stroke-dasharray:none;marker-end:none;display:inline"></path>
      <path d="m 339.37969,315.05815 -33.30347,3.42821" id="path3901" style="opacity:0.5;fill:none;stroke:url(#linearGradient5691);stroke-width:8;stroke-linecap:butt;stroke-linejoin:bevel;stroke-miterlimit:4;stroke-opacity:1;stroke-dasharray:none;marker-end:none;display:inline"></path>
      <path d="m 303.04576,283.6361 14.88199,-26.23351" id="path3903" style="opacity:0.5;fill:none;stroke:url(#linearGradient5459);stroke-width:8;stroke-linecap:butt;stroke-linejoin:bevel;stroke-miterlimit:4;stroke-opacity:1;stroke-dasharray:none;marker-end:none;display:inline"></path>
      <path d="m 312.13714,238.17923 -33.84011,3.53553" id="path3905" style="opacity:0.5;fill:none;stroke:url(#linearGradient5467);stroke-width:8;stroke-linecap:butt;stroke-linejoin:bevel;stroke-miterlimit:4;stroke-opacity:1;stroke-dasharray:none;marker-end:none;display:inline"></path>
      <path d="m 393.92396,215.83595 -22.6929,3.65546" id="path3907" style="opacity:0.5;fill:none;stroke:url(#linearGradient5571);stroke-width:8;stroke-linecap:butt;stroke-linejoin:bevel;stroke-miterlimit:4;stroke-opacity:1;stroke-dasharray:none;marker-end:none;display:inline"></path>
      <path d="m 424.26407,172.51932 15.65736,53.033" id="path3909" style="opacity:0.5;fill:none;stroke:url(#linearGradient5563);stroke-width:8;stroke-linecap:butt;stroke-linejoin:bevel;stroke-miterlimit:4;stroke-opacity:1;stroke-dasharray:none;marker-end:none;display:inline"></path>
      <path d="m 454.56865,153.83149 17.78643,-38.78757 21.10444,48.38402" id="path3911" style="opacity:0.5;fill:none;stroke:url(#linearGradient5539);stroke-width:8;stroke-linecap:butt;stroke-linejoin:bevel;stroke-miterlimit:4;stroke-opacity:1;stroke-dasharray:none;marker-end:none;display:inline"></path>
      <path d="m 519.72348,142.21474 -17.67766,32.32488" id="path3913" style="opacity:0.5;fill:none;stroke:url(#linearGradient5547);stroke-width:8;stroke-linecap:butt;stroke-linejoin:bevel;stroke-miterlimit:4;stroke-opacity:1;stroke-dasharray:none;marker-end:none;display:inline"></path>
      <path d="m 482.85292,206.35943 -28.78935,-3.03046" id="path3915" style="opacity:0.5;fill:none;stroke:url(#linearGradient5707);stroke-width:8;stroke-linecap:butt;stroke-linejoin:bevel;stroke-miterlimit:4;stroke-opacity:1;stroke-dasharray:none;marker-end:none;display:inline"></path>
      <path d="M 450.90304,174.14939 434.87067,152.31626" id="path3917" style="opacity:0.5;fill:none;stroke:url(#linearGradient5555);stroke-width:8;stroke-linecap:butt;stroke-linejoin:bevel;stroke-miterlimit:4;stroke-opacity:1;stroke-dasharray:none;marker-end:none;display:inline"></path>
      <path d="m 479.10272,219.40934 34.05477,-13.04991" id="path3919" style="opacity:0.5;fill:none;stroke:url(#linearGradient5699);stroke-width:8;stroke-linecap:butt;stroke-linejoin:bevel;stroke-miterlimit:4;stroke-opacity:1;stroke-dasharray:none;marker-end:none;display:inline"></path>
      <path d="m 509.62196,249.79598 21.51443,15.55134 -27.57535,30.41061" id="path3921" style="opacity:0.5;fill:none;stroke:url(#linearGradient5611);stroke-width:8;stroke-linecap:butt;stroke-linejoin:bevel;stroke-miterlimit:4;stroke-opacity:1;stroke-dasharray:none;marker-end:none;display:inline"></path>
      <path d="m 466.33693,342.22494 -8.87041,15.95726 -27.49509,-26.05878" id="path3923" style="opacity:0.5;fill:none;stroke:url(#linearGradient5659);stroke-width:8;stroke-linecap:butt;stroke-linejoin:bevel;stroke-miterlimit:4;stroke-opacity:1;stroke-dasharray:none;marker-end:none;display:inline"></path>
      <path d="M 411.38209,324.40704 399.01026,285.15132" id="path3925" style="opacity:0.5;fill:none;stroke:url(#linearGradient5635);stroke-width:8;stroke-linecap:butt;stroke-linejoin:bevel;stroke-miterlimit:4;stroke-opacity:1;stroke-dasharray:none;marker-end:none;display:inline"></path>
      <path d="m 342.94679,327.07265 16.1178,31.14711 23.27815,-31.65218" id="path3927" style="opacity:0.5;fill:none;stroke:url(#linearGradient5675);stroke-width:8;stroke-linecap:butt;stroke-linejoin:bevel;stroke-miterlimit:4;stroke-opacity:1;stroke-dasharray:none;marker-end:none;display:inline"></path>
      <path d="m 393.95949,301.81884 33.33504,-28.78935" id="path3929" style="opacity:0.5;fill:none;stroke:url(#linearGradient5627);stroke-width:8;stroke-linecap:butt;stroke-linejoin:bevel;stroke-miterlimit:4;stroke-opacity:1;stroke-dasharray:none;marker-end:none;display:inline"></path>
      <path d="m 399.51533,255.8569 -46.97209,25.75889" id="path3931" style="opacity:0.5;fill:none;stroke:url(#linearGradient5595);stroke-width:8;stroke-linecap:butt;stroke-linejoin:bevel;stroke-miterlimit:4;stroke-opacity:1;stroke-dasharray:none;marker-end:none;display:inline"></path>
      <path d="m 412.53754,247.65068 40.0108,5.68084" id="path3933" style="opacity:0.5;fill:none;stroke:url(#linearGradient5603);stroke-width:8;stroke-linecap:butt;stroke-linejoin:bevel;stroke-miterlimit:4;stroke-opacity:1;stroke-dasharray:none;marker-end:none;display:inline"></path>
      <path d="m 447.11243,304.72937 -12.24176,21.83821" id="path3935" style="opacity:0.5;fill:none;stroke:url(#linearGradient5651);stroke-width:8;stroke-linecap:butt;stroke-linejoin:bevel;stroke-miterlimit:4;stroke-opacity:1;stroke-dasharray:none;marker-end:none;display:inline"></path>
      <path d="m 420.72854,296.263 27.27411,26.76904" id="path3937" style="opacity:0.5;fill:none;stroke:url(#linearGradient5643);stroke-width:8;stroke-linecap:butt;stroke-linejoin:bevel;stroke-miterlimit:4;stroke-opacity:1;stroke-dasharray:none;marker-end:none;display:inline"></path>
      <path d="m 476.92715,296.89815 -20.3382,-19.32297" id="path3939" style="opacity:0.5;fill:none;stroke:url(#linearGradient5619);stroke-width:8;stroke-linecap:butt;stroke-linejoin:bevel;stroke-miterlimit:4;stroke-opacity:1;stroke-dasharray:none;marker-end:none;display:inline"></path>
      <path d="m 505.58643,345.52063 8.13194,12.71313 17.35354,-35.73836 -14.37888,-13.10041" id="path3941" style="opacity:0.5;fill:none;stroke:url(#linearGradient5667);stroke-width:8;stroke-linecap:butt;stroke-linejoin:bevel;stroke-miterlimit:4;stroke-opacity:1;stroke-dasharray:none;marker-end:none;display:inline"></path>
      <path d="m 312.1287,128.45141 -9.2092,-13.36514 -20.96067,38.63834" id="path3881-5" style="opacity:0.5;fill:none;stroke:url(#linearGradient5491);stroke-width:8;stroke-linecap:butt;stroke-linejoin:bevel;stroke-miterlimit:4;stroke-opacity:1;stroke-dasharray:none;marker-end:none;display:inline"></path>
      <path d="m 303.3125,225.5625 c -2.37104,0 -4.3125,1.91021 -4.3125,4.28125 0,2.37104 1.94146,4.28125 4.3125,4.28125 2.37104,0 4.28125,-1.91021 4.28125,-4.28125 0,-2.37104 -1.91021,-4.28125 -4.28125,-4.28125 z" transform="translate(28.225624,-30.421872)" id="path3775" style="color:#000000;fill:#000000;fill-opacity:1;stroke:none;stroke-width:2;marker:none;visibility:visible;display:inline;overflow:visible;enable-background:accumulate"></path>
      <path d="m 303.3125,225.5625 c -2.37104,0 -4.3125,1.91021 -4.3125,4.28125 0,2.37104 1.94146,4.28125 4.3125,4.28125 2.37104,0 4.28125,-1.91021 4.28125,-4.28125 0,-2.37104 -1.91021,-4.28125 -4.28125,-4.28125 z" transform="translate(90.439291,-13.935554)" id="path3777" style="color:#000000;fill:#000000;fill-opacity:1;stroke:none;stroke-width:2;marker:none;visibility:visible;display:inline;overflow:visible;enable-background:accumulate"></path>
      <path d="m 303.3125,225.5625 c -2.37104,0 -4.3125,1.91021 -4.3125,4.28125 0,2.37104 1.94146,4.28125 4.3125,4.28125 2.37104,0 4.28125,-1.91021 4.28125,-4.28125 0,-2.37104 -1.91021,-4.28125 -4.28125,-4.28125 z" transform="translate(81.52649,-76.570269)" id="path3779" style="color:#000000;fill:#000000;fill-opacity:1;stroke:none;stroke-width:2;marker:none;visibility:visible;display:inline;overflow:visible;enable-background:accumulate"></path>
      <path d="m 303.3125,225.5625 c -2.37104,0 -4.3125,1.91021 -4.3125,4.28125 0,2.37104 1.94146,4.28125 4.3125,4.28125 2.37104,0 4.28125,-1.91021 4.28125,-4.28125 0,-2.37104 -1.91021,-4.28125 -4.28125,-4.28125 z" transform="translate(150.86725,-75.881364)" id="path3781" style="color:#000000;fill:#000000;fill-opacity:1;stroke:none;stroke-width:2;marker:none;visibility:visible;display:inline;overflow:visible;enable-background:accumulate"></path>
      <path d="m 303.3125,225.5625 c -2.37104,0 -4.3125,1.91021 -4.3125,4.28125 0,2.37104 1.94146,4.28125 4.3125,4.28125 2.37104,0 4.28125,-1.91021 4.28125,-4.28125 0,-2.37104 -1.91021,-4.28125 -4.28125,-4.28125 z" transform="translate(178.61843,-23.409451)" id="path3783" style="color:#000000;fill:#000000;fill-opacity:1;stroke:none;stroke-width:2;marker:none;visibility:visible;display:inline;overflow:visible;enable-background:accumulate"></path>
      <path d="m 303.3125,225.5625 c -2.37104,0 -4.3125,1.91021 -4.3125,4.28125 0,2.37104 1.94146,4.28125 4.3125,4.28125 2.37104,0 4.28125,-1.91021 4.28125,-4.28125 0,-2.37104 -1.91021,-4.28125 -4.28125,-4.28125 z" transform="translate(143.76816,74.899222)" id="path3785" style="color:#000000;fill:#000000;fill-opacity:1;stroke:none;stroke-width:2;marker:none;visibility:visible;display:inline;overflow:visible;enable-background:accumulate"></path>
      <path d="m 303.3125,225.5625 c -2.37104,0 -4.3125,1.91021 -4.3125,4.28125 0,2.37104 1.94146,4.28125 4.3125,4.28125 2.37104,0 4.28125,-1.91021 4.28125,-4.28125 0,-2.37104 -1.91021,-4.28125 -4.28125,-4.28125 z" transform="translate(8.7955064,8.4690017)" id="path3787" style="color:#000000;fill:#000000;fill-opacity:1;stroke:none;stroke-width:2;marker:none;visibility:visible;display:inline;overflow:visible;enable-background:accumulate"></path>
      <path d="m 303.3125,225.5625 c -2.37104,0 -4.3125,1.91021 -4.3125,4.28125 0,2.37104 1.94146,4.28125 4.3125,4.28125 2.37104,0 4.28125,-1.91021 4.28125,-4.28125 0,-2.37104 -1.91021,-4.28125 -4.28125,-4.28125 z" transform="translate(39.574521,96.885359)" id="path3789" style="color:#000000;fill:#000000;fill-opacity:1;stroke:none;stroke-width:2;marker:none;visibility:visible;display:inline;overflow:visible;enable-background:accumulate"></path>
      <path d="m 303.3125,225.5625 c -2.37104,0 -4.3125,1.91021 -4.3125,4.28125 0,2.37104 1.94146,4.28125 4.3125,4.28125 2.37104,0 4.28125,-1.91021 4.28125,-4.28125 0,-2.37104 -1.91021,-4.28125 -4.28125,-4.28125 z" transform="translate(96.290998,26.054756)" id="path3791" style="color:#000000;fill:#000000;fill-opacity:1;stroke:none;stroke-width:2;marker:none;visibility:visible;display:inline;overflow:visible;enable-background:accumulate"></path>
      <path d="m 303.3125,225.5625 c -2.37104,0 -4.3125,1.91021 -4.3125,4.28125 0,2.37104 1.94146,4.28125 4.3125,4.28125 2.37104,0 4.28125,-1.91021 4.28125,-4.28125 0,-2.37104 -1.91021,-4.28125 -4.28125,-4.28125 z" transform="translate(-10.606601,-65.154839)" id="path3835" style="color:#000000;fill:#000000;fill-opacity:1;stroke:none;stroke-width:2;marker:none;visibility:visible;display:inline;overflow:visible;enable-background:accumulate"></path>
      <path d="m 303.3125,225.5625 c -2.37104,0 -4.3125,1.91021 -4.3125,4.28125 0,2.37104 1.94146,4.28125 4.3125,4.28125 2.37104,0 4.28125,-1.91021 4.28125,-4.28125 0,-2.37104 -1.91021,-4.28125 -4.28125,-4.28125 z" transform="translate(-0.68364738,54.548238)" id="path3837" style="color:#000000;fill:#000000;fill-opacity:1;stroke:none;stroke-width:2;marker:none;visibility:visible;display:inline;overflow:visible;enable-background:accumulate"></path>
      <path d="m 303.3125,225.5625 c -2.37104,0 -4.3125,1.91021 -4.3125,4.28125 0,2.37104 1.94146,4.28125 4.3125,4.28125 2.37104,0 4.28125,-1.91021 4.28125,-4.28125 0,-2.37104 -1.91021,-4.28125 -4.28125,-4.28125 z" transform="translate(108.20362,94.212044)" id="path3839" style="color:#000000;fill:#000000;fill-opacity:1;stroke:none;stroke-width:2;marker:none;visibility:visible;display:inline;overflow:visible;enable-background:accumulate"></path>
      <path d="m 303.3125,225.5625 c -2.37104,0 -4.3125,1.91021 -4.3125,4.28125 0,2.37104 1.94146,4.28125 4.3125,4.28125 2.37104,0 4.28125,-1.91021 4.28125,-4.28125 0,-2.37104 -1.91021,-4.28125 -4.28125,-4.28125 z" transform="translate(109.18577,17.619023)" id="path3841" style="color:#000000;fill:#000000;fill-opacity:1;stroke:none;stroke-width:2;marker:none;visibility:visible;display:inline;overflow:visible;enable-background:accumulate"></path>
      <path d="m 303.3125,225.5625 c -2.37104,0 -4.3125,1.91021 -4.3125,4.28125 0,2.37104 1.94146,4.28125 4.3125,4.28125 2.37104,0 4.28125,-1.91021 4.28125,-4.28125 0,-2.37104 -1.91021,-4.28125 -4.28125,-4.28125 z" transform="translate(120.98109,-57.073618)" id="path3843" style="color:#000000;fill:#000000;fill-opacity:1;stroke:none;stroke-width:2;marker:none;visibility:visible;display:inline;overflow:visible;enable-background:accumulate"></path>
      <path d="m 303.3125,225.5625 c -2.37104,0 -4.3125,1.91021 -4.3125,4.28125 0,2.37104 1.94146,4.28125 4.3125,4.28125 2.37104,0 4.28125,-1.91021 4.28125,-4.28125 0,-2.37104 -1.91021,-4.28125 -4.28125,-4.28125 z" transform="translate(174.39925,67.621574)" id="path3845" style="color:#000000;fill:#000000;fill-opacity:1;stroke:none;stroke-width:2;marker:none;visibility:visible;display:inline;overflow:visible;enable-background:accumulate"></path>
      <path d="m 303.3125,225.5625 c -2.37104,0 -4.3125,1.91021 -4.3125,4.28125 0,2.37104 1.94146,4.28125 4.3125,4.28125 2.37104,0 4.28125,-1.91021 4.28125,-4.28125 0,-2.37104 -1.91021,-4.28125 -4.28125,-4.28125 z" transform="translate(205.32883,19.578051)" id="path3847" style="color:#000000;fill:#000000;fill-opacity:1;stroke:none;stroke-width:2;marker:none;visibility:visible;display:inline;overflow:visible;enable-background:accumulate"></path>
      <path d="m 303.3125,225.5625 c -2.37104,0 -4.3125,1.91021 -4.3125,4.28125 0,2.37104 1.94146,4.28125 4.3125,4.28125 2.37104,0 4.28125,-1.91021 4.28125,-4.28125 0,-2.37104 -1.91021,-4.28125 -4.28125,-4.28125 z" transform="translate(216.94558,-88.893424)" id="path3849" style="color:#000000;fill:#000000;fill-opacity:1;stroke:none;stroke-width:2;marker:none;visibility:visible;display:inline;overflow:visible;enable-background:accumulate"></path>
      <path d="m 303.3125,225.5625 c -2.37104,0 -4.3125,1.91021 -4.3125,4.28125 0,2.37104 1.94146,4.28125 4.3125,4.28125 2.37104,0 4.28125,-1.91021 4.28125,-4.28125 0,-2.37104 -1.91021,-4.28125 -4.28125,-4.28125 z" transform="translate(112.98915,-104.04571)" id="path3851" style="color:#000000;fill:#000000;fill-opacity:1;stroke:none;stroke-width:2;marker:none;visibility:visible;display:inline;overflow:visible;enable-background:accumulate"></path>
      <path d="m 303.3125,225.5625 c -2.37104,0 -4.3125,1.91021 -4.3125,4.28125 0,2.37104 1.94146,4.28125 4.3125,4.28125 2.37104,0 4.28125,-1.91021 4.28125,-4.28125 0,-2.37104 -1.91021,-4.28125 -4.28125,-4.28125 z" transform="translate(39.454597,-103.8085)" id="path3853" style="color:#000000;fill:#000000;fill-opacity:1;stroke:none;stroke-width:2;marker:none;visibility:visible;display:inline;overflow:visible;enable-background:accumulate"></path>
      <path d="m 303.3125,225.5625 c -2.37104,0 -4.3125,1.91021 -4.3125,4.28125 0,2.37104 1.94146,4.28125 4.3125,4.28125 2.37104,0 4.28125,-1.91021 4.28125,-4.28125 0,-2.37104 -1.91021,-4.28125 -4.28125,-4.28125 z" transform="translate(43.85235,-76.74096)" id="path3855" style="color:#000000;fill:#000000;fill-opacity:1;stroke:none;stroke-width:2;marker:none;visibility:visible;display:inline;overflow:visible;enable-background:accumulate"></path>
      <path d="m 303.3125,225.5625 c -2.37104,0 -4.3125,1.91021 -4.3125,4.28125 0,2.37104 1.94146,4.28125 4.3125,4.28125 2.37104,0 4.28125,-1.91021 4.28125,-4.28125 0,-2.37104 -1.91021,-4.28125 -4.28125,-4.28125 z" transform="translate(-28.819985,-17.856245)" id="path3857" style="color:#000000;fill:#000000;fill-opacity:1;stroke:none;stroke-width:2;marker:none;visibility:visible;display:inline;overflow:visible;enable-background:accumulate"></path>
      <path d="m 303.3125,225.5625 c -2.37104,0 -4.3125,1.91021 -4.3125,4.28125 0,2.37104 1.94146,4.28125 4.3125,4.28125 2.37104,0 4.28125,-1.91021 4.28125,-4.28125 0,-2.37104 -1.91021,-4.28125 -4.28125,-4.28125 z" transform="translate(-30.513786,95.964488)" id="path3859" style="color:#000000;fill:#000000;fill-opacity:1;stroke:none;stroke-width:2;marker:none;visibility:visible;display:inline;overflow:visible;enable-background:accumulate"></path>
      <path d="m 303.3125,225.5625 c -2.37104,0 -4.3125,1.91021 -4.3125,4.28125 0,2.37104 1.94146,4.28125 4.3125,4.28125 2.37104,0 4.28125,-1.91021 4.28125,-4.28125 0,-2.37104 -1.91021,-4.28125 -4.28125,-4.28125 z" transform="translate(90.350006,72.256541)" id="path3861" style="color:#000000;fill:#000000;fill-opacity:1;stroke:none;stroke-width:2;marker:none;visibility:visible;display:inline;overflow:visible;enable-background:accumulate"></path>
      <path d="m 303.3125,225.5625 c -2.37104,0 -4.3125,1.91021 -4.3125,4.28125 0,2.37104 1.94146,4.28125 4.3125,4.28125 2.37104,0 4.28125,-1.91021 4.28125,-4.28125 0,-2.37104 -1.91021,-4.28125 -4.28125,-4.28125 z" transform="translate(40.911179,24.748734)" id="path3863" style="color:#000000;fill:#000000;fill-opacity:1;stroke:none;stroke-width:2;marker:none;visibility:visible;display:inline;overflow:visible;enable-background:accumulate"></path>
      <path d="m 303.3125,225.5625 c -2.37104,0 -4.3125,1.91021 -4.3125,4.28125 0,2.37104 1.94146,4.28125 4.3125,4.28125 2.37104,0 4.28125,-1.91021 4.28125,-4.28125 0,-2.37104 -1.91021,-4.28125 -4.28125,-4.28125 z" transform="translate(117.0604,66.014427)" id="path3865" style="color:#000000;fill:#000000;fill-opacity:1;stroke:none;stroke-width:2;marker:none;visibility:visible;display:inline;overflow:visible;enable-background:accumulate"></path>
      <path d="m 303.3125,225.5625 c -2.37104,0 -4.3125,1.91021 -4.3125,4.28125 0,2.37104 1.94146,4.28125 4.3125,4.28125 2.37104,0 4.28125,-1.91021 4.28125,-4.28125 0,-2.37104 -1.91021,-4.28125 -4.28125,-4.28125 z" transform="translate(175.97313,-10.519948)" id="path3867" style="color:#000000;fill:#000000;fill-opacity:1;stroke:none;stroke-width:2;marker:none;visibility:visible;display:inline;overflow:visible;enable-background:accumulate"></path>
      <path d="m 303.3125,225.5625 c -2.37104,0 -4.3125,1.91021 -4.3125,4.28125 0,2.37104 1.94146,4.28125 4.3125,4.28125 2.37104,0 4.28125,-1.91021 4.28125,-4.28125 0,-2.37104 -1.91021,-4.28125 -4.28125,-4.28125 z" transform="translate(147.59956,-55.85426)" id="path3869" style="color:#000000;fill:#000000;fill-opacity:1;stroke:none;stroke-width:2;marker:none;visibility:visible;display:inline;overflow:visible;enable-background:accumulate"></path>
      <path d="m 303.3125,225.5625 c -2.37104,0 -4.3125,1.91021 -4.3125,4.28125 0,2.37104 1.94146,4.28125 4.3125,4.28125 2.37104,0 4.28125,-1.91021 4.28125,-4.28125 0,-2.37104 -1.91021,-4.28125 -4.28125,-4.28125 z" transform="translate(52.614591,11.468817)" id="path3871" style="color:#000000;fill:#000000;fill-opacity:1;stroke:none;stroke-width:2;marker:none;visibility:visible;display:inline;overflow:visible;enable-background:accumulate"></path>
      <path d="m 303.3125,225.5625 c -2.37104,0 -4.3125,1.91021 -4.3125,4.28125 0,2.37104 1.94146,4.28125 4.3125,4.28125 2.37104,0 4.28125,-1.91021 4.28125,-4.28125 0,-2.37104 -1.91021,-4.28125 -4.28125,-4.28125 z" transform="translate(-33.248503,51.250881)" id="path3873" style="color:#000000;fill:#000000;fill-opacity:1;stroke:none;stroke-width:2;marker:none;visibility:visible;display:inline;overflow:visible;enable-background:accumulate"></path>
      <path d="m 303.3125,225.5625 c -2.37104,0 -4.3125,1.91021 -4.3125,4.28125 0,2.37104 1.94146,4.28125 4.3125,4.28125 2.37104,0 4.28125,-1.91021 4.28125,-4.28125 0,-2.37104 -1.91021,-4.28125 -4.28125,-4.28125 z" transform="translate(35.891055,85.237963)" id="path3875" style="color:#000000;fill:#000000;fill-opacity:1;stroke:none;stroke-width:2;marker:none;visibility:visible;display:inline;overflow:visible;enable-background:accumulate"></path>
      <path d="m 303.3125,225.5625 c -2.37104,0 -4.3125,1.91021 -4.3125,4.28125 0,2.37104 1.94146,4.28125 4.3125,4.28125 2.37104,0 4.28125,-1.91021 4.28125,-4.28125 0,-2.37104 -1.91021,-4.28125 -4.28125,-4.28125 z" transform="translate(202.03314,115.33333)" id="path3877" style="color:#000000;fill:#000000;fill-opacity:1;stroke:none;stroke-width:2;marker:none;visibility:visible;display:inline;overflow:visible;enable-background:accumulate"></path>
      <path d="m 303.3125,225.5625 c -2.37104,0 -4.3125,1.91021 -4.3125,4.28125 0,2.37104 1.94146,4.28125 4.3125,4.28125 2.37104,0 4.28125,-1.91021 4.28125,-4.28125 0,-2.37104 -1.91021,-4.28125 -4.28125,-4.28125 z" transform="translate(162.75449,112.69065)" id="path3773" style="color:#000000;fill:#000000;fill-opacity:1;stroke:none;stroke-width:2;marker:none;visibility:visible;display:inline;overflow:visible;enable-background:accumulate"></path>
      <path d="m 303.3125,225.5625 c -2.37104,0 -4.3125,1.91021 -4.3125,4.28125 0,2.37104 1.94146,4.28125 4.3125,4.28125 2.37104,0 4.28125,-1.91021 4.28125,-4.28125 0,-2.37104 -1.91021,-4.28125 -4.28125,-4.28125 z" transform="translate(8.8465756,-101.39234)" id="path3835-5" style="color:#000000;fill:#000000;fill-opacity:1;stroke:none;stroke-width:2;marker:none;visibility:visible;display:inline;overflow:visible;enable-background:accumulate"></path>
      <path d="m 186.4375,51.65625 0,1.53125 0,366.9375 0,1.53125 1.53125,0 413,0 1.53125,0 0,-1.53125 0,-366.9375 0,-1.53125 -1.53125,0 -413,0 -1.53125,0 z m 71.15625,63.28125 1,0 271.75,0 1,0 0,1 0,241.4375 0,1 -1,0 -271.75,0 -1,0 0,-1 0,-241.4375 0,-1 z" id="rect3001-7" style="font-size:medium;font-style:normal;font-variant:normal;font-weight:normal;font-stretch:normal;text-indent:0;text-align:start;text-decoration:none;line-height:normal;letter-spacing:normal;word-spacing:normal;text-transform:none;direction:ltr;block-progression:tb;writing-mode:lr-tb;text-anchor:start;baseline-shift:baseline;color:#000000;fill:#dbdbdb;fill-opacity:1;stroke:none;stroke-width:2;marker:none;visibility:visible;display:inline;overflow:visible;enable-background:accumulate;font-family:Sans;-inkscape-font-specification:Sans"></path>
      <path d="m 303.35831,114.93429 0,-19.803573" id="path4938" style="fill:none;stroke:#ff0000;stroke-width:2;stroke-linecap:butt;stroke-linejoin:miter;stroke-miterlimit:4;stroke-opacity:1;stroke-dasharray:none;marker-end:url(#Arrow2MendV);display:inline"></path>
      <path d="m 351.07265,114.92464 0,-13.83909" id="path4940" style="fill:none;stroke:#ff0000;stroke-width:2;stroke-linecap:butt;stroke-linejoin:miter;stroke-miterlimit:4;stroke-opacity:1;stroke-dasharray:none;marker-end:url(#Arrow2Mend0);display:inline"></path>
      <path d="m 472.35491,114.94031 0,-21.428576" id="path4942" style="fill:none;stroke:#ff0000;stroke-width:2;stroke-linecap:butt;stroke-linejoin:miter;stroke-miterlimit:4;stroke-opacity:1;stroke-dasharray:none;marker-end:url(#Arrow2MendA);display:inline"></path>
      <path d="m 531.33928,265.37557 23.57143,0" id="path4944" style="fill:none;stroke:#ff0000;stroke-width:2;stroke-linecap:butt;stroke-linejoin:miter;stroke-miterlimit:4;stroke-opacity:1;stroke-dasharray:none;marker-end:url(#Arrow2Mends);display:inline"></path>
      <path d="m 531.33573,322.56148 12.5,0" id="path4946" style="fill:none;stroke:#ff0000;stroke-width:2;stroke-linecap:butt;stroke-linejoin:miter;stroke-miterlimit:4;stroke-opacity:1;stroke-dasharray:none;marker-end:url(#Arrow2Mendl);display:inline"></path>
      <path d="m 513.71652,358.37781 0,29.64286" id="path4948" style="fill:none;stroke:#ff0000;stroke-width:2;stroke-linecap:butt;stroke-linejoin:miter;stroke-miterlimit:4;stroke-opacity:1;stroke-dasharray:none;marker-end:url(#Arrow2MendI);display:inline"></path>
      <path d="m 457.07095,358.38022 0,23.92857" id="path4950" style="fill:none;stroke:#ff0000;stroke-width:2;stroke-linecap:butt;stroke-linejoin:miter;stroke-miterlimit:4;stroke-opacity:1;stroke-dasharray:none;marker-end:url(#Arrow2MendG);display:inline"></path>
      <path d="m 359.07924,358.3778 0,41.25274" id="path4952" style="fill:none;stroke:#ff0000;stroke-width:2;stroke-linecap:butt;stroke-linejoin:miter;stroke-miterlimit:4;stroke-opacity:1;stroke-dasharray:none;marker-end:url(#Arrow2MendL);display:inline"></path>
      <path d="m 273.56027,358.37836 0,20.17857" id="path4954" style="fill:none;stroke:#ff0000;stroke-width:2;stroke-linecap:butt;stroke-linejoin:miter;stroke-miterlimit:4;stroke-opacity:1;stroke-dasharray:none;marker-end:url(#Arrow2MendM);display:inline"></path>
      <path d="m 257.59557,337.16151 -31.42858,0" id="path4956" style="fill:none;stroke:#ff0000;stroke-width:2;stroke-linecap:butt;stroke-linejoin:miter;stroke-miterlimit:4;stroke-opacity:1;stroke-dasharray:none;marker-end:url(#Arrow2MendsW);display:inline"></path>
      <path d="m 257.59377,271.13278 -24.82142,0" id="path4958" style="fill:none;stroke:#ff0000;stroke-width:2;stroke-linecap:butt;stroke-linejoin:miter;stroke-miterlimit:4;stroke-opacity:1;stroke-dasharray:none;marker-end:url(#Arrow2Mend2);display:inline"></path>
    </g>
  </g>
</svg>
