<!-- Created with Inkscape (http://www.inkscape.org/) -->
<svg xmlns:dc="http://purl.org/dc/elements/1.1/" xmlns:cc="http://creativecommons.org/ns#" xmlns:rdf="http://www.w3.org/1999/02/22-rdf-syntax-ns#" xmlns:svg="http://www.w3.org/2000/svg" xmlns="http://www.w3.org/2000/svg" xmlns:inkscape="http://www.inkscape.org/namespaces/inkscape" version="1.1" width="600" height="480" viewBox="0 0 600 480" id="svg2">
  <desc id="desc4">Produced by GNUPLOT 4.5 patchlevel 0 </desc>
  <metadata id="metadata198"></metadata>
  <defs id="defs6"></defs>
  <g id="g22" style="color:#ffffff;fill:none;stroke:currentColor;stroke-width:1;stroke-linecap:butt;stroke-linejoin:miter"></g>
  <g id="g24" style="color:#000000;fill:none;stroke:currentColor;stroke-width:1;stroke-linecap:butt;stroke-linejoin:miter">
    <path d="m 297.9,463.4 -9,0 m 9,0 9,0" id="path26"></path>
    <g transform="translate(289.6,467.9)" id="g28" style="font-size:15px;text-anchor:end;fill:#000000;stroke:none;font-family:Arial">
      <text id="text30">3</text>
    </g>
    <path d="m 297.9,399.6 -9,0 m 9,0 9,0" id="path32"></path>
    <g transform="translate(289.6,404.1)" id="g34" style="font-size:15px;text-anchor:end;fill:#000000;stroke:none;font-family:Arial">
      <text id="text36">2</text>
    </g>
    <path d="m 297.9,335.8 -9,0 m 9,0 9,0" id="path38"></path>
    <g transform="translate(289.6,340.3)" id="g40" style="font-size:15px;text-anchor:end;fill:#000000;stroke:none;font-family:Arial">
      <text id="text42">1</text>
    </g>
    <path d="m 297.9,272 -9,0 m 9,0 9,0" id="path44"></path>
    <g transform="translate(289.6,276.5)" id="g46" style="font-size:15px;text-anchor:end;fill:#000000;stroke:none;font-family:Arial">
      <text id="text48">0</text>
    </g>
    <path d="m 297.9,208.1 -9,0 m 9,0 9,0" id="path50"></path>
    <g transform="translate(289.6,212.6)" id="g52" style="font-size:15px;text-anchor:end;fill:#000000;stroke:none;font-family:Arial">
      <text id="text54">1</text>
    </g>
    <path d="m 297.9,144.3 -9,0 m 9,0 9,0" id="path56"></path>
    <g transform="translate(289.6,148.8)" id="g58" style="font-size:15px;text-anchor:end;fill:#000000;stroke:none;font-family:Arial">
      <text id="text60">2</text>
    </g>
    <path d="m 297.9,80.5 -9,0 m 9,0 9,0" id="path62"></path>
    <g transform="translate(289.6,85)" id="g64" style="font-size:15px;text-anchor:end;fill:#000000;stroke:none;font-family:Arial">
      <text id="text66">3</text>
    </g>
    <path d="m 297.9,16.7 -9,0 m 9,0 9,0" id="path68"></path>
    <g transform="translate(289.6,21.2)" id="g70" style="font-size:15px;text-anchor:end;fill:#000000;stroke:none;font-family:Arial">
      <text id="text72">4</text>
    </g>
    <path d="m 20.7,272 0,9 m 0,-9 0,-9" id="path74"></path>
    <g transform="translate(20.7,303.5)" id="g76" style="font-size:15px;text-anchor:middle;fill:#000000;stroke:none;font-family:Arial">
      <text id="text78">4</text>
    </g>
    <path d="m 90,272 0,9 m 0,-9 0,-9" id="path80"></path>
    <g transform="translate(90,303.5)" id="g82" style="font-size:15px;text-anchor:middle;fill:#000000;stroke:none;font-family:Arial">
      <text id="text84">3</text>
    </g>
    <path d="m 159.3,272 0,9 m 0,-9 0,-9" id="path86"></path>
    <g transform="translate(159.3,303.5)" id="g88" style="font-size:15px;text-anchor:middle;fill:#000000;stroke:none;font-family:Arial">
      <text id="text90">2</text>
    </g>
    <path d="m 228.6,272 0,9 m 0,-9 0,-9" id="path92"></path>
    <g transform="translate(228.6,303.5)" id="g94" style="font-size:15px;text-anchor:middle;fill:#000000;stroke:none;font-family:Arial">
      <text id="text96">1</text>
    </g>
    <path d="m 297.9,272 0,9 m 0,-9 0,-9" id="path98"></path>
    <g transform="translate(297.9,303.5)" id="g100" style="font-size:15px;text-anchor:middle;fill:#000000;stroke:none;font-family:Arial">
      <text id="text102">0</text>
    </g>
    <path d="m 367.1,272 0,9 m 0,-9 0,-9" id="path104"></path>
    <g transform="translate(367.1,303.5)" id="g106" style="font-size:15px;text-anchor:middle;fill:#000000;stroke:none;font-family:Arial">
      <text id="text108">1</text>
    </g>
    <path d="m 436.4,272 0,9 m 0,-9 0,-9" id="path110"></path>
    <g transform="translate(436.4,303.5)" id="g112" style="font-size:15px;text-anchor:middle;fill:#000000;stroke:none;font-family:Arial">
      <text id="text114">2</text>
    </g>
    <path d="m 505.7,272 0,9 m 0,-9 0,-9" id="path116"></path>
    <g transform="translate(505.7,303.5)" id="g118" style="font-size:15px;text-anchor:middle;fill:#000000;stroke:none;font-family:Arial">
      <text id="text120">3</text>
    </g>
    <path d="m 575,272 0,9 m 0,-9 0,-9" id="path122"></path>
    <g transform="translate(575,303.5)" id="g124" style="font-size:15px;text-anchor:middle;fill:#000000;stroke:none;font-family:Arial">
      <text id="text126">4</text>
    </g>
  </g>
  <g id="g128" style="color:#808080;fill:none;stroke:currentColor;stroke-width:1;stroke-linecap:butt;stroke-linejoin:miter">
    <path d="M 297.9,272" id="path130"></path>
  </g>
  <g id="g132" style="color:#000000;fill:none;stroke:currentColor;stroke-width:1;stroke-linecap:butt;stroke-linejoin:miter">
    <path d="m 297.9,272 0,9 m 0,-9 0,-9" id="path134"></path>
    <g transform="translate(297.9,294.5)" id="g136" style="font-size:15px;text-anchor:middle;fill:#000000;stroke:none;font-family:Arial">
      <text id="text138">-4</text>
    </g>
  </g>
  <g id="g140" style="color:#808080;fill:none;stroke:currentColor;stroke-width:1;stroke-linecap:butt;stroke-linejoin:miter">
    <path d="m 436.4,272 -0.7,-12.8 -2,-12.6 -3.5,-12.4 -4.7,-11.9 -6,-11.5 -7.3,-10.9 -8.4,-10.2 -9.4,-9.3 -10.4,-8.4 -11.3,-7.4 -12,-6.4 -12.6,-5.2 -13.2,-4 -13.5,-2.8 -13.7,-1.6 -13.9,-0.2 -13.8,1 -13.6,2.3 -13.3,3.5 -12.9,4.7 -12.3,5.9 -11.6,7 -10.8,8 -9.8,8.9 -8.9,9.9 -7.7,10.6 -6.5,11.2 -5.3,11.8 -4,12.2 -2.6,12.5 -1.3,12.8 0.1,12.7 1.5,12.7 2.9,12.5 4.2,12.1 5.5,11.7 6.7,11.2 7.9,10.4 9.1,9.7 10,8.8 10.9,7.9 11.7,6.8 12.4,5.7 13,4.5 13.3,3.3 13.7,2.1 13.8,0.8 13.9,-0.5 13.7,-1.8 13.5,-3 13,-4.2 12.6,-5.4 11.9,-6.5 11.1,-7.6 10.3,-8.6 9.2,-9.5 8.2,-10.3 7.1,-10.9 5.8,-11.6 4.5,-12.1 3.2,-12.4 1.8,-12.6 0.5,-12.8" id="path142"></path>
  </g>
  <g id="g144" style="color:#000000;fill:none;stroke:currentColor;stroke-width:1;stroke-linecap:butt;stroke-linejoin:miter">
    <path d="m 436.4,272 0,9 m 0,-9 0,-9" id="path146"></path>
    <g transform="translate(436.4,294.5)" id="g148" style="font-size:15px;text-anchor:middle;fill:#000000;stroke:none;font-family:Arial">
      <text id="text150">-2</text>
    </g>
  </g>
  <g id="g152" style="color:#808080;fill:none;stroke:currentColor;stroke-width:1;stroke-linecap:butt;stroke-linejoin:miter">
    <path d="m 575,272 -1.4,-25.5 -4.1,-25.3 -6.9,-24.7 -9.5,-23.9 -12,-23 L 526.6,127.8 509.8,107.5 490.9,88.8 470.1,72 447.6,57.2 423.6,44.5 398.3,34 372,26 l -27,-5.6 -27.5,-3.1 -27.7,-0.5 -27.7,2 -27.2,4.6 -26.6,7 -25.8,9.5 -24.6,11.7 -23.2,14 -21.5,16 -19.7,17.9 -17.7,19.7 -15.4,21.2 -13.1,22.5 -10.6,23.5 -8,24.5 -5.2,25 -2.6,25.4 0.3,25.6 3,25.3 5.7,25 8.4,24.3 11,23.4 13.5,22.3 15.8,20.9 18.1,19.4 18.1,15.9 m 366,0 13.5,-11.3 18.5,-19 16.4,-20.6 14.1,-21.9 11.6,-23.2 9.1,-24.1 6.4,-24.8 3.6,-25.3 1,-25.5" id="path154"></path>
  </g>
  <g id="g156" style="color:#000000;fill:none;stroke:currentColor;stroke-width:1;stroke-linecap:butt;stroke-linejoin:miter">
    <path d="m 575,272 0,9 m 0,-9 0,-9" id="path158"></path>
    <g transform="translate(575,294.5)" id="g160" style="font-size:15px;text-anchor:middle;fill:#000000;stroke:none;font-family:Arial">
      <text id="text162">0</text>
    </g>
  </g>
  <g id="g164" style="color:#808080;fill:none;stroke:currentColor;stroke-width:1;stroke-linecap:butt;stroke-linejoin:miter"></g>
  <g id="g166" style="color:#000000;fill:none;stroke:currentColor;stroke-width:1;stroke-linecap:butt;stroke-linejoin:miter">
    <path d="m 713.6,272 0,9 m 0,-9 0,-9" id="path168"></path>
  </g>
  <g id="g170" style="color:#808080;fill:none;stroke:currentColor;stroke-width:1;stroke-linecap:butt;stroke-linejoin:miter"></g>
  <g id="g172" style="color:#000000;fill:none;stroke:currentColor;stroke-width:1;stroke-linecap:butt;stroke-linejoin:miter">
    <path d="m 852.2,272 0,9 m 0,-9 0,-9" id="path174"></path>
  </g>
  <g id="g176" style="color:#808080;fill:none;stroke:currentColor;stroke-width:1;stroke-linecap:butt;stroke-linejoin:miter"></g>
  <g id="g178" style="color:#000000;fill:none;stroke:currentColor;stroke-width:1;stroke-linecap:butt;stroke-linejoin:miter">
    <path d="m 990.7,272 0,9 m 0,-9 0,-9" id="path180"></path>
  </g>
  <g id="g182" style="color:#808080;fill:none;stroke:currentColor;stroke-width:1;stroke-linecap:butt;stroke-linejoin:miter">
    <path d="M 297.9,272 575,272 M 297.9,272 575,124.6 M 297.9,272 458,16.7 M 297.9,272 297.9,16.7 M 297.9,272 137.8,16.7 M 297.9,272 20.7,124.5 M 297.9,272 20.7,272 M 297.9,272 20.7,419.4 M 297.9,272 177.8,463.4 M 297.9,272 297.8,463.4 M 297.9,272 418,463.4 M 297.9,272 575,419.3 M 297.9,272 575,272 M 297.9,272 575,124.6" id="path184"></path>
  </g>
  <g id="g186" style="color:#000000;fill:none;stroke:currentColor;stroke-width:1;stroke-linecap:butt;stroke-linejoin:miter"></g>
  <g id="g188" style="color:#ff0000;fill:none;stroke:currentColor;stroke-width:1;stroke-linecap:butt;stroke-linejoin:miter">
    <path d="m 206.8,272 7.8,4.5 15.8,2.9 22.8,-0.1 28.4,-3.7 32.1,-8.1 33.9,-12.6 33.5,-16.7 30.9,-20.1 26.4,-22.5 20.6,-23.4 13.5,-22.9 6.1,-20.6 -1.3,-16.9 -8.2,-11.9 -14,-6 -18.4,0.3 -21.3,6.7 -22.3,12.5 -22,17.4 -20.1,20.9 -17.2,22.8 -13.7,22.9 -9.9,21.1 -6.5,17.7 -3.6,12.8 -1.7,7.1 -1,0.6 -1.5,-5.8 -3.3,-11.6 -5.9,-16.6 -9.3,-20.1 -12.9,-22.1 -16.3,-22.1 -19.2,-20.4 -21.1,-17.1 -21.4,-12.4 -20.4,-6.6 -17.6,-0.4 -13.2,6 -7.3,11.7 -0.6,16.7 6.9,20.3 14.4,22.6 21.4,23.2 27.4,22.2 32,19.8 34.6,16.3 35.2,12.1 33.5,7.5 29.9,3 24.2,-0.9 17.3,-3.9 9.3,-5.7 0.9,-6.4 -7.3,-5.6 -14.6,-3.8 -20.6,-0.8 -25,2.6 -27.4,6.2 -27.7,9.8 -25.9,12.5 -22.4,14.3 -17.4,14.8 -11.4,13.9 -4.9,11.3 1.4,7.5 7.3,2.4 12,-3.4 15.3,-9.6 17.2,-15.8 17.2,-21.2 15.8,-25.6 13,-28.6 9.3,-29.7 4.9,-28.9 0.4,-26.3 -3.6,-21.7 -7,-15.8 -9.2,-8.8 -10.1,-1.1 -9.5,6.7 -7.7,13.8 -4.6,20.1 -0.7,24.9 3.6,27.9 8,29.2 11.8,28.3 14.7,25.9 16.4,21.7 16.4,16.5 15,10.5 11.9,4.4 7.2,-1.5 1.6,-6.7 -4.7,-10.7 L 361.9,312.3 344.5,297.7 322,283.5 295.5,271 267,261.2 l -28.5,-6.4 -26.6,-2.6 -22.5,1.1 -16.7,4.1 -9.5,6.3 -1.4,7.3 7,7.1 15.3,5.5 22.5,2.8 28.6,-1 32.7,-5.2 34.8,-9.9 34.8,-14.1 32.7,-17.8 28.5,-20.3 22.9,-21.6 16.2,-21.3 8.8,-19.4 1.5,-15.9 -5.4,-11.3 -11.3,-5.6 -15.9,0.6 -18.8,6.8 -20.1,12.7 -19.9,17.5 -18.1,21.1 -15.4,23.1 -11.8,23.2 -8.2,21.5 -4.6,18.2 -1.7,13.3 0.3,7.5 1,1 0.7,-5.5 -1,-11.6 -3.6,-16.8 -7,-20.6 -10.7,-22.9 -14.4,-23.3 -17.3,-21.9 -19.5,-18.8 -20.2,-14.3 -19.4,-8.7 -16.9,-2.6 -12.9,3.7 -7.4,9.6 -0.7,14.6 6.4,18.5 13.9,20.8 20.9,21.7 27,20.9 31.5,18.7 34.4,15.4 35.1,11.2 33.6,6.7 30,2.2 24.6,-1.7 17.7,-4.7 9.6,-6.8 1.3,-7.4 -7.1,-6.7 -14.6,-4.9 -20.9,-2.1 -25.5,1.4 -28.1,5.2 -28.8,8.8 -27.2,11.8 -24,13.8 -19.1,14.6 -13.2,13.9 -6.8,11.6 -0.3,8.1 5.6,3.2 10.6,-2.5 14.1,-8.6 16.2,-14.6 16.6,-20.2 15.4,-24.7 12.8,-27.8 9.2,-29.1 5,-28.5 0.6,-26.1 -3.4,-21.7 -6.8,-15.9 -9.1,-9 -10.1,-1.3 -9.6,6.3 -7.8,13.7 -4.8,20.1 -0.9,25 3.5,28.3 7.9,29.7 12,29.1 15,26.7 17,22.7 17.3,17.6 16.1,11.6 13.2,5.3 8.9,-0.7 3.3,-6 -2.9,-10.3 -9.4,-13.2 -15.6,-14.6 -20.9,-14.7 -25,-13.2 -27.4,-10.7 -27.7,-7.4 -25.9,-3.7 -22.2,-0.2 -16.7,2.9 -9.7,5.2 -1.7,6.3 6.7,6.1 14.9,4.6 22.2,1.9 28.3,-1.7 32.6,-6.1 34.9,-10.7 35,-15 33,-18.8 29,-21.6 23.5,-23 16.6,-23 9.3,-21.2 1.7,-18 -5.4,-13.4 -11.5,-7.8 -16.3,-1.6 -19.7,4.7 -21.3,10.7 -21.3,15.7 -19.9,19.6 -17.4,21.8 -14,22.2 -10.4,20.9 -6.9,17.9 -4,13.3 -1.9,7.7 -1.1,1.4 -1.3,-5.1 -2.9,-11.1 -5.5,-16.3 -8.8,-20.3 -12.5,-22.5 -16.2,-23 -19.3,-21.7 -21.5,-18.6 -22.4,-14.2 -21.8,-8.6 -19.4,-2.3 -15.6,4 -10.1,10.2 -3.6,15.5 3.8,19.6 11.2,22.3 18.5,23.4 24.7,22.9 29.7,21.1 32.9,17.8 33.9,13.9 33,9.5 29.8,5.1 24.7,1.1 18.1,-2.1 10.4,-4.1 2.1,-5 -6,-4.4 -13.6,-2.8 -19.8,0 -24.5,3.4 -27.3,7.1 -28,10.7 -26.5,13.8 -23.3,15.9 -18.4,16.8 -12.6,16.1 -5.9,14.1 0.6,10.5 6.8,5.7 12.1,0 15.9,-6.3 18.2,-12.5 19,-18.2 18,-23 15.7,-26.4 12.3,-28.1 8.1,-28 3.9,-25.8 -0.3,-21.9 -3.8,-16.5 -6.1,-9.7 -7.3,-2.3 -7,5.2 -5.4,12.5 -2.6,18.8 1.2,23.9 5.5,27.2 9.9,28.6 13.8,28.3 17.1,25.9 19.1,22 19.5,16.8 18.4,10.7 15.5,4.5 11.3,-1.7 5.7,-7.3 -0.6,-11.8 -7.2,-14.9 L 397.3,328.7 378,311.9 354.3,296.2 328,283 300.8,272.9 275,266.4 l -22.5,-2.9 -17.3,0.3 -10.6,2.7 -2.9,3.9 5.4,4 13.4,2.7 20.7,0.1 26.9,-3.3 31.3,-7.5 33.7,-12.1 34.1,-16.4 32.1,-20.2 28.3,-23 22.7,-24.5 16,-24.6 8.6,-22.9 0.9,-19.8 -6.2,-15.2 -12.7,-9.6 -17.7,-3.4 -21.3,3.1 -23.1,9.2 -23.4,14.6 -22.2,18.6 -19.7,21.3 -16.5,22 -12.8,21.1 -9.3,18.3 -6.3,14 -4,8.7 -3,2.5 -3.1,-3.9 -4.4,-9.9 -6.9,-15.1 -10,-19.1 -13.6,-21.5 -17.3,-22.2 -20.4,-21 -22.6,-18.1 -23.7,-13.8 -23.1,-8.2 -20.9,-2 -17.1,4.5 -11.8,10.7 -5.2,16.2 2.1,20.5 9.7,23.3 17.1,24.7 23.6,24.5 28.9,22.6 32.4,19.7 33.8,15.8 33.2,11.3 30.3,6.9 25.6,2.8 19.3,-0.5 11.6,-2.7 3.6,-3.8 -4.6,-3.5 -12.1,-2 -18.6,0.6 -23.4,4 -26.3,7.5 -27.3,11.2 -26,14.2 -23,16.4 -18.3,17.4 -12.4,16.9 -5.9,15 0.8,11.5 7,6.8 12.3,1.1 16.5,-5.2 19,-11.5 19.9,-17.3 19.1,-22.4 17,-26 13.6,-28 9.6,-28.1 5.2,-26.3 1,-22.6 -2.5,-17.4 -5.2,-10.8 -6.5,-3.6 -6.4,4.1 -5,11.2 -2.4,17.8 1.3,22.9 5.5,26.5 9.8,28.2 13.9,27.9 17.2,25.8 19.3,22.1 19.9,17.1 18.9,11 16.2,4.8 12.1,-1.5 6.7,-7.1 0.3,-11.7 -6.3,-15.1 -12.8,-17 -18.5,-17.4 -23.2,-16.3 -26.2,-14.1 -27.2,-10.9 -26.2,-7.4 -23.1,-3.7 -18.2,-0.4 -11.6,2 -4.1,3.5 4.1,3.8 12.3,2.6 19.6,0.3 26,-3.1 30.6,-7.2 33.3,-11.7 33.9,-16.1 32.2,-19.9 28.6,-22.9 23.3,-24.6 16.6,-24.7 9.3,-23.3 1.6,-20.4 -5.6,-15.9 -12.2,-10.4 -17.4,-4.2 -21.2,2.3 -23.2,8.5 -23.7,13.9 -22.5,18.3 -20.3,21 -17.1,22.1 -13.5,21.4 -9.9,18.8 -6.8,14.7 -4.4,9.4 -3.2,3.4 -3.1,-3 -4.3,-9 -6.6,-14.5 L 274.2,181 261,159.8 244.1,137.7 224,116.5 201.5,98.1 177.9,83.8 l -23.3,-8.9 -21.4,-2.6 -17.7,3.8 -12.5,10 -6.1,15.6 1.2,20.1 8.8,23.2 16.2,24.7 22.9,24.6 28.3,23 32,20.2 33.8,16.3 33.4,12 30.9,7.4 26.3,3.4 20.1,-0.1 12.7,-2.5 4.6,-3.7 -3.5,-3.6 -11.2,-2.2 -17.8,0.3 -22.9,3.5 -26,7.1 -27.2,10.7 -26.3,13.9 -23.5,16.2 -18.9,17.4 -13.1,17 -6.8,15.3 0,12 6.3,7.5 11.8,1.8 16,-4.3 18.8,-10.7 19.9,-16.7 19.3,-21.8 17.3,-25.6 14.2,-27.9 10.1,-28.2 5.8,-26.6 1.5,-23.2 -2.2,-18.1 -4.8,-11.7 -6.4,-4.5 -6.5,3.1 -5.3,10.4 -2.7,17 0.8,22.4 4.9,26.1 9.3,28.1 13.5,28.1 16.8,26.1 19.1,22.7 19.9,17.7 19.1,11.9 16.7,5.5 12.7,-0.7 7.4,-6.4 1.3,-11.3 -5.5,-14.8 -11.9,-16.8 -17.9,-17.4 -22.7,-16.5 -25.9,-14.5 -27.1,-11.3 -26.4,-7.9 -23.6,-4.1 -18.8,-0.9 -12.5,1.8 -5,3.4 3.1,3.7 11.2,2.8 18.9,0.6 25.3,-2.7 30.1,-6.7 33.1,-11.1 34,-15.6 32.5,-19.6 29.2,-22.7 24,-24.4 17.6,-24.9 10.2,-23.7 2.6,-20.8 -4.8,-16.6 -11.4,-11.3 -16.9,-5.1 -20.8,1.4 -23.1,7.7 -23.7,13.2 -22.9,17.7 -20.7,20.7 -17.6,22 -14,21.4 -10.4,19.1 -7.2,15.2 -4.8,10.1 -3.4,4.1 -3.2,-2.3 -4.2,-8.4 -6.4,-13.9 -9.5,-18.2 -12.9,-21.1 -16.7,-22.1 -19.9,-21.4 -22.4,-19 -23.8,-14.9 -23.7,-9.6 -21.9,-3.4 -18.4,3 -13.5,9.3 -7.2,15 -0.1,19.7 7.6,23 15.1,24.7 21.8,24.8 27.5,23.4 31.4,20.8 33.5,17 33.3,12.8 31,8.2 26.8,4.1 20.7,0.5 13.5,-1.9 5.5,-3.3 -2.8,-3.4 -10.4,-2 -17.2,0.2 -22.4,3.5 -25.9,7 -27.2,10.8 -26.5,13.9 -23.9,16.5 -19.6,17.7 -13.8,17.7 -7.5,16 -0.7,13 5.7,8.6 11.4,3 15.8,-3 18.8,-9.5 20.2,-15.4 19.9,-20.8 18,-24.8 15.1,-27.2 11.1,-27.8 6.9,-26.6 2.6,-23.3 -1.1,-18.4 -4,-12.3 -5.5,-5.1 -5.9,2.4 -4.7,9.8 -2.3,16.4 1.1,21.9 5.3,25.8 9.6,28 13.9,28.2 17.3,26.5 19.8,23 20.9,18.2 20.2,12.4 18,6.1 14.3,-0.3 9,-6.2 3,-11.2 L 435,365.3 424.7,348 408.3,329.9 387,312.5 362.2,297 l -26.3,-12.6 -26,-9.2 -23.3,-5.6 -19,-2.2 -12.8,0.4 -5.5,2.2 2.4,2.6 10.6,1.8 18.2,-0.3 24.7,-3.5 29.8,-7.4 32.8,-11.9 33.9,-16.4 32.6,-20.5 29.4,-23.6 24.4,-25.7 17.9,-26.3 10.6,-25.2 2.9,-22.6 -4.7,-18.5 -11.5,-13.2 -17.2,-7.1 -21.5,-0.6 -24,5.7 -25,11.6 -24.4,16.2 -22.4,19.4 -19.6,21.1 -16,20.7 -12.5,18.8 -9.3,15.2 -6.8,10.2 -5.4,4.4 -5,-1.8 -6,-7.9 -8,-13.4 -11,-17.7 -14.5,-20.7 -18.2,-21.9 -21.6,-21.3 -24.1,-18.8 -25.7,-14.9 -25.8,-9.6 -24.1,-3.5 -20.9,3.2 -16,9.6 -9.8,15.5 -2.7,20.5 5,24 12.5,26 19.6,26.6 25.5,25.3 29.8,23 32.2,19.4 32.4,15.2 30.6,10.8 26.6,6.7 20.9,3.1 14,0.4 6.1,-1 -1.9,-1.1 -9.5,0 -16.3,2.2 -21.6,5.3 -25.1,8.8 -26.6,12.6 -26,15.8 -23.4,18.4 -19.1,19.8 -13.4,19.8 -7,18.4 0,15.4 6.5,11.1 12.5,5.6 17.2,-0.6 20.6,-7.1 22.2,-13.3 22.2,-18.7 20.7,-23.2 17.9,-25.9 14.1,-26.9 10,-26 5.7,-23.2 1.9,-18.6 -0.9,-12.7 -2.7,-5.8 -3.2,1.5 -2.2,8.7 0,15.4 3.4,20.9 7.4,24.9 11.7,27.1 15.9,27.3 19.5,25.8 22,22.4 23.1,17.6 22.7,11.7 20.6,5.3 16.8,-1.2 11.6,-7.3 5.6,-12.5 -1.2,-16.6 -8,-19.2 -14.3,-20.2 -19.6,-19.8 -23.4,-18.1 -25.4,-15.4 -25.4,-12.1 -23.2,-8.4 -19.3,-5.1 -13.4,-2.3 -6.5,-0.4 1.3,0.2 9.3,-0.5 16.8,-2.3 23.4,-5.4 28.4,-9.2 31.7,-13.6 32.7,-18 31.7,-22 28.6,-25.3 23.6,-27.4 17.2,-28 9.8,-27.2 2,-24.5 -5.6,-20.6 -12.7,-15.2 -18.7,-9.1 -23.1,-2.5 -26,4.1 -27.2,10.1 -26.8,15 -25,18.7 -22.1,20.6 -18.8,20.7 -15.2,19.1 -11.9,15.7 -9.3,11.1 -7.6,5.5 -7.1,-0.6 -7.8,-6.6 -9.7,-12 L 263.6,126.1 247.8,106.6 228.3,85.8 205.6,65.4 180.1,47.3 153.2,33.1 126.1,24.1 100.5,21.2 78.1,24.9 60.5,35.2 49,51.5 l -4.2,21.4 3.4,25.2 11.3,27.4 18.5,28 24.6,27.1 29.3,24.8 32.1,21.3 32.7,17.2 31.2,12.8 27.6,8.4 22.3,4.7 15.4,1.9 7.8,0.2 -0.2,-0.1 -7.8,0.7 -14.7,2.8 -20.1,5.6 -23.8,9.1 -25.5,12.7 -25.2,16 -22.8,18.5 -18.7,20 -13.2,20.2 -6.7,18.7 0.1,15.9 6.7,11.7 12.7,6.2 17.7,0 21,-6.5 22.9,-12.9 23.1,-18.6 21.6,-23.1 18.9,-26.2 15.1,-27.5 10.9,-26.8 6.6,-24.3 2.7,-19.9 -0.5,-14.2 -2.5,-7.5 -3.1,-0.1 -2.5,7.2 -0.5,13.9 2.6,19.6 6.5,23.8 10.7,26.3 14.9,26.9 18.5,25.5 21.1,22.4 22.3,17.9 22,12.1 20.1,5.9 16.4,-0.6 11.5,-6.7 5.3,-12 -1.3,-16.1 -8.2,-18.7 -14.6,-20 -20,-19.6 -24,-18 -26.3,-15.3 -26.5,-11.8 -24.6,-8.2 -20.7,-4.7 -15.1,-1.7 -8.2,0.3 -0.4,1.3" id="path190"></path>
  </g>
  <g id="g192" style="color:#000000;fill:none;stroke:currentColor;stroke-width:1;stroke-linecap:butt;stroke-linejoin:miter">
    <path d="M 297.9,272 575,272" id="path194"></path>
  </g>
</svg>
