<!-- Created with Inkscape (http://www.inkscape.org/) -->
<svg xmlns:dc="http://purl.org/dc/elements/1.1/" xmlns:cc="http://creativecommons.org/ns#" xmlns:rdf="http://www.w3.org/1999/02/22-rdf-syntax-ns#" xmlns:svg="http://www.w3.org/2000/svg" xmlns="http://www.w3.org/2000/svg" xmlns:inkscape="http://www.inkscape.org/namespaces/inkscape" version="1.1" width="1200" height="800" id="svg2">
  <metadata id="metadata7"></metadata>
  <defs id="defs5">
    <filter x="-0.54787749" y="-0.072073944" width="2.0957551" height="1.1441479" color-interpolation-filters="sRGB" id="filter3612">
      <feGaussianBlur id="feGaussianBlur3614" stdDeviation="8.0711867"></feGaussianBlur>
    </filter>
    <filter x="-0.27854717" y="-0.036643215" width="1.5570943" height="1.0732864" color-interpolation-filters="sRGB" id="filter3690">
      <feGaussianBlur id="feGaussianBlur3692" stdDeviation="4.1034835"></feGaussianBlur>
    </filter>
    <clipPath id="clipPath3700">
      <path d="m 112.0098,-508.3125 a 118.2598,49.785213 0 1 1 -236.5196,0 118.2598,49.785213 0 1 1 236.5196,0 z" transform="translate(-2.036405,82.1825)" id="path3702" style="fill:#17313b;fill-opacity:1;fill-rule:evenodd;stroke:none"></path>
    </clipPath>
    <filter x="-0.3107174" y="-0.11512245" width="1.6214348" height="1.2302449" color-interpolation-filters="sRGB" id="filter3766">
      <feGaussianBlur id="feGaussianBlur3768" stdDeviation="9.0404419"></feGaussianBlur>
    </filter>
    <clipPath id="clipPath3772">
      <path d="M 42.835522,-413.51642 -8.3824484,-225.047 -59.756062,-413.51642" id="path3774" style="fill:#0a151a;fill-opacity:1;fill-rule:evenodd;stroke:none"></path>
    </clipPath>
    <filter x="-0.43305343" y="-0.069650091" width="1.8661067" height="1.1393002" color-interpolation-filters="sRGB" id="filter3830">
      <feGaussianBlur id="feGaussianBlur3832" stdDeviation="9.9934576"></feGaussianBlur>
    </filter>
    <clipPath id="clipPath3838">
      <path d="m -8.28125,-225.0625 -114.78125,188.5 0.34375,0 c -2.49317,4.022346 -3.8125,8.244081 -3.8125,12.59375 0,27.4814385 52.970588,49.78125 118.25,49.78125 65.279411,1e-6 118.25,-22.2998122 118.25,-49.78125 0,-4.349669 -1.31933,-8.571404 -3.8125,-12.59375 l -114.4375,-188.5 z" id="path3840" style="fill:#0b181d;fill-opacity:1;fill-rule:evenodd;stroke:none"></path>
    </clipPath>
    <clipPath id="clipPath3842">
      <path d="m -8.2812501,-225.0625 -38.2056499,188.5 0.114419,0 c -0.829867,4.022346 -1.269014,8.244081 -1.269014,12.59375 0,27.4814385 17.631588,49.78125 39.3602449,49.78125 21.7286561,1e-6 39.3602451,-22.2998122 39.3602451,-49.78125 0,-4.349669 -0.439147,-8.571404 -1.269014,-12.59375 l -38.0912311,-188.5 z" id="path3844" style="fill:#0b181d;fill-opacity:1;fill-rule:evenodd;stroke:none"></path>
    </clipPath>
  </defs>
  <g transform="translate(12.757803,-28.323592)" id="g4138">
    <g transform="translate(1055.1189,-756.71686)" id="g4073">
      <path d="m -438.70959,1150.8337 -114.78125,188.5 0.34375,0 c -2.49317,4.0223 -3.8125,8.244 -3.8125,12.5937 0,27.4815 52.97059,49.7813 118.25,49.7813 65.27941,0 118.25,-22.2998 118.25,-49.7813 0,-4.3497 -1.31933,-8.5714 -3.8125,-12.5937 l -114.4375,-188.5 z" id="path3921" style="fill:#0b181d;fill-opacity:1;fill-rule:evenodd;stroke:none"></path>
      <path d="m -8.28125,-225.0625 -26.879758,258.737444 0.0805,0 c -0.583857,5.521123 -0.892821,11.315929 -0.892821,17.286338 0,37.721365 12.404784,68.330368 27.692078,68.330368 15.2872942,0 27.692078,-30.609004 27.692078,-68.330368 0,-5.970409 -0.308964,-11.765215 -0.892821,-17.286338 L -8.28125,-225.0625 z" transform="matrix(3.0043004,0,0,1,-413.83023,1375.8962)" clip-path="url(#clipPath3842)" id="path3923" style="fill:#2e6074;fill-opacity:1;fill-rule:evenodd;stroke:none;filter:url(#filter3830)"></path>
      <path d="m -8.28125,-225.0625 -26.879758,258.737444 0.0805,0 c -0.583857,5.521123 -0.892821,11.315929 -0.892821,17.286338 0,37.721365 12.404784,68.330368 27.692078,68.330368 15.2872942,0 27.692078,-30.609004 27.692078,-68.330368 0,-5.970409 -0.308964,-11.765215 -0.892821,-17.286338 L -8.28125,-225.0625 z" transform="translate(-430.42834,1375.8962)" clip-path="url(#clipPath3838)" id="path3927" style="fill:#ffffff;fill-opacity:0.64534882;fill-rule:evenodd;stroke:none;filter:url(#filter3830)"></path>
      <path d="M -324.28665,962.37975 -438.71474,1150.8492 -553.49057,962.37975" id="path3929" style="fill:#0a151a;fill-opacity:1;fill-rule:evenodd;stroke:none"></path>
      <path d="M 26.45419,-413.51642 -8.4073006,-225.047 -43.37473,-413.51642" transform="matrix(2.2341396,0,0,1,-419.98718,1375.8962)" clip-path="url(#clipPath3772)" id="path3931" style="fill:#1d3b47;fill-opacity:1;fill-rule:evenodd;stroke:none;filter:url(#filter3766)"></path>
      <path d="m 112.0098,-508.3125 a 118.2598,49.785213 0 1 1 -236.5196,0 118.2598,49.785213 0 1 1 236.5196,0 z" transform="translate(-432.46474,1458.0787)" id="path3933" style="fill:#17313b;fill-opacity:1;fill-rule:evenodd;stroke:none"></path>
      <g transform="translate(-430.42834,1375.8962)" clip-path="url(#clipPath3700)" id="g3935">
        <path d="M 9.217814,-525.7241 -8.4334502,-256.96056 -26.138354,-525.7241" transform="matrix(5.4193138,0,0,1,37.388588,0)" id="path3937" style="fill:#2e6074;fill-opacity:1;fill-rule:evenodd;stroke:none;filter:url(#filter3690)"></path>
        <path d="M 9.217814,-525.7241 -8.4334502,-256.96056 -26.138354,-525.7241" transform="matrix(1.6187039,0,0,1,5.2344023,0)" id="path3939" style="fill:#ffffff;fill-opacity:0.75;fill-rule:evenodd;stroke:none;filter:url(#filter3612)"></path>
      </g>
      <path d="m -385.3125,1159.0938 -42.1875,10.2187 42.46875,70 c 3.27357,3.082 5.125,6.47 5.125,10.0625 0,13.6672 -26.34731,24.7813 -58.8125,24.7812 -32.46517,0 -58.81249,-11.1139 -58.8125,-24.7812 0,-3.4463 1.69254,-6.7052 4.71875,-9.6875 l 0.0312,-0.062 38.9375,-63.9375 -187.59375,45.375 148.71875,144.2187 256.125,-61.9374 -148.71875,-144.25 z m -68.09375,66.3124 c -1.87753,0.2026 -3.73114,0.4421 -5.53125,0.7188 1.80131,-0.2778 3.65251,-0.5151 5.53125,-0.7188 z m 29.375,0 c 1.87874,0.2037 3.72994,0.441 5.53125,0.7188 -1.80011,-0.2767 -3.65372,-0.5162 -5.53125,-0.7188 z m -40.625,1.75 c -2.40547,0.4981 -4.73359,1.0606 -6.9375,1.6876 2.21183,-0.6293 4.52566,-1.1875 6.9375,-1.6876 z m -6.9375,1.6876 c -1.56453,0.445 -3.08317,0.931 -4.53125,1.4374 1.45254,-0.5047 2.96671,-0.9924 4.53125,-1.4374 z m 58.8125,-1.6876 c 2.41184,0.5001 4.72567,1.0583 6.9375,1.6876 -2.20391,-0.6271 -4.53203,-1.1895 -6.9375,-1.6876 z m 6.9375,1.6876 c 1.56454,0.445 3.07871,0.9327 4.53125,1.4374 -1.45589,-0.5064 -2.96672,-0.9924 -4.53125,-1.4374 z m 8.71875,3.0312 c 1.33066,0.5602 2.58235,1.1385 3.78125,1.75 -1.1927,-0.6049 -2.45958,-1.1936 -3.78125,-1.75 z" id="rect3943" style="fill:#0000ff;fill-opacity:0.26842113;fill-rule:evenodd;stroke:none"></path>
      <path d="m 112.0098,-508.3125 a 118.2598,49.785213 0 1 1 -236.5196,0 118.2598,49.785213 0 1 1 236.5196,0 z" transform="matrix(0.4973264,0,0,-0.4973264,-435.60645,996.58967)" id="path3947" style="fill:none;stroke:#00ffff;stroke-width:2;stroke-linecap:round;stroke-linejoin:round;stroke-miterlimit:4;stroke-opacity:1;stroke-dasharray:none;stroke-dashoffset:0"></path>
      <path d="M -308.90625,899.59375 -339.25,922.875 c 11.87249,7.76061 18.78125,16.99567 18.78125,26.90625 0,4.35072 -1.31817,8.57053 -3.8125,12.59375 l -49.5625,81.625 c 0.0406,-0.071 0.0547,-0.1481 0.0937,-0.2188 -6.7964,12.1544 -27.64731,27.3391 -52.3125,37.125 -26.97484,10.7024 -49.39,11.3392 -53.84375,2.2813 l -21.75,-35.6875 -81.21875,62.3438 63.4375,94.9687 274,-210.21875 -63.46875,-95 z M -381.5,1026.9062 c 0.41182,0.08 0.82927,0.1543 1.21875,0.25 -0.39116,-0.097 -0.80504,-0.169 -1.21875,-0.25 z m 4.125,1.1876 c 0.388,0.1649 0.77196,0.3754 1.125,0.5624 -0.35871,-0.1916 -0.73001,-0.394 -1.125,-0.5624 z m 1.15625,0.5624 c 0.36157,0.1927 0.70763,0.3777 1.03125,0.5938 -0.31842,-0.2135 -0.676,-0.4029 -1.03125,-0.5938 z m 2.9375,2.2813 c 0.15178,0.1765 0.27218,0.376 0.40625,0.5625 -0.13366,-0.1865 -0.25495,-0.3859 -0.40625,-0.5625 z m 1.1875,1.8437 c 0.10287,0.2288 0.16963,0.478 0.25,0.7188 -0.0813,-0.2436 -0.14569,-0.4873 -0.25,-0.7188 z m 0.59375,2.1876 c 0.0532,0.3949 0.0937,0.7969 0.0937,1.2187 0,-0.421 -0.0407,-0.8245 -0.0937,-1.2187 z" id="rect3964" style="fill:#0000ff;fill-opacity:0.26842113;fill-rule:evenodd;stroke:none"></path>
      <path d="m 112.0098,-508.3125 a 118.2598,49.785213 0 1 1 -236.5196,0 118.2598,49.785213 0 1 1 236.5196,0 z" transform="matrix(0.4622562,-0.1834011,0,0.4622562,-423.17375,1291.7115)" id="path3962" style="fill:none;stroke:#00ffff;stroke-width:2;stroke-linecap:round;stroke-linejoin:round;stroke-miterlimit:4;stroke-opacity:1;stroke-dasharray:none;stroke-dashoffset:0"></path>
    </g>
    <g transform="translate(673.9806,13.98501)" id="g4060">
      <path d="m -438.70959,379.63072 -114.78125,188.5 0.34375,0 c -2.49317,4.02235 -3.8125,8.24408 -3.8125,12.59375 0,27.48144 52.97059,49.78125 118.25,49.78125 65.27941,0 118.25,-22.29981 118.25,-49.78125 0,-4.34967 -1.31933,-8.5714 -3.8125,-12.59375 l -114.4375,-188.5 z" id="path3778" style="fill:#0b181d;fill-opacity:1;fill-rule:evenodd;stroke:none"></path>
      <path d="m -8.28125,-225.0625 -26.879758,258.737444 0.0805,0 c -0.583857,5.521123 -0.892821,11.315929 -0.892821,17.286338 0,37.721365 12.404784,68.330368 27.692078,68.330368 15.2872942,0 27.692078,-30.609004 27.692078,-68.330368 0,-5.970409 -0.308964,-11.765215 -0.892821,-17.286338 L -8.28125,-225.0625 z" transform="matrix(3.0043004,0,0,1,-413.83023,604.69322)" clip-path="url(#clipPath3842)" id="path3834" style="fill:#2e6074;fill-opacity:1;fill-rule:evenodd;stroke:none;filter:url(#filter3830)"></path>
      <path d="m -545.35069,123.42857 -128.62991,98.16913 238.88685,423.6523 22.25,-17.84375 C -476.48413,516.69526 -488.77771,446.29912 -469.0625,429.46875 L -438.71875,379.625 -341,540.65625 c 0.0494,0.0765 0.10684,0.14212 0.15625,0.21875 3.95817,6.13797 7.94144,12.52889 12,19.1875 l 17.19241,-20.13788 -233.69935,-416.49605 z" id="path3919" style="fill:#0000ff;fill-opacity:0.26842113;fill-rule:evenodd;stroke:none"></path>
      <path d="m -8.28125,-225.0625 -26.879758,258.737444 0.0805,0 c -0.583857,5.521123 -0.892821,11.315929 -0.892821,17.286338 0,37.721365 12.404784,68.330368 27.692078,68.330368 15.2872942,0 27.692078,-30.609004 27.692078,-68.330368 0,-5.970409 -0.308964,-11.765215 -0.892821,-17.286338 L -8.28125,-225.0625 z" transform="translate(-430.42834,604.69322)" clip-path="url(#clipPath3838)" id="path3792" style="fill:#ffffff;fill-opacity:0.64534882;fill-rule:evenodd;stroke:none;filter:url(#filter3830)"></path>
      <path d="M -324.28665,191.1768 -438.71474,379.64622 -553.49057,191.1768" id="path3509" style="fill:#0a151a;fill-opacity:1;fill-rule:evenodd;stroke:none"></path>
      <path d="M 26.45419,-413.51642 -8.4073006,-225.047 -43.37473,-413.51642" transform="matrix(2.2341396,0,0,1,-419.98718,604.69322)" clip-path="url(#clipPath3772)" id="path3704" style="fill:#1d3b47;fill-opacity:1;fill-rule:evenodd;stroke:none;filter:url(#filter3766)"></path>
      <path d="m 112.0098,-508.3125 a 118.2598,49.785213 0 1 1 -236.5196,0 118.2598,49.785213 0 1 1 236.5196,0 z" transform="translate(-432.46474,686.87572)" id="path3524" style="fill:#17313b;fill-opacity:1;fill-rule:evenodd;stroke:none"></path>
      <g transform="translate(-430.42834,604.69322)" clip-path="url(#clipPath3700)" id="g3694">
        <path d="M 9.217814,-525.7241 -8.4334502,-256.96056 -26.138354,-525.7241" transform="matrix(5.4193138,0,0,1,37.388588,0)" id="path3616" style="fill:#2e6074;fill-opacity:1;fill-rule:evenodd;stroke:none;filter:url(#filter3690)"></path>
        <path d="M 9.217814,-525.7241 -8.4334502,-256.96056 -26.138354,-525.7241" transform="matrix(1.6187039,0,0,1,5.2344023,0)" id="path3542" style="fill:#ffffff;fill-opacity:0.75;fill-rule:evenodd;stroke:none;filter:url(#filter3612)"></path>
      </g>
      <path d="M -328.64768,560.38355 C -460.52452,343.83313 -542.01771,403.66624 -411.90255,629.0323" id="path3887" style="fill:none;stroke:#00ffff;stroke-width:2;stroke-linecap:butt;stroke-linejoin:miter;stroke-miterlimit:4;stroke-opacity:1;stroke-dasharray:none"></path>
    </g>
    <g transform="translate(915.11177,-758.0625)" id="g4088">
      <path d="m 101.51999,1150.8337 -114.781252,188.5 0.34375,0 c -2.49317,4.0223 -3.8125,8.244 -3.8125,12.5937 0,27.4815 52.97059,49.7813 118.250002,49.7813 65.27941,0 118.25,-22.2998 118.25,-49.7813 0,-4.3497 -1.31933,-8.5714 -3.8125,-12.5937 l -114.4375,-188.5 z" id="path4004" style="fill:#0b181d;fill-opacity:1;fill-rule:evenodd;stroke:none"></path>
      <path d="m -8.28125,-225.0625 -26.879758,258.737444 0.0805,0 c -0.583857,5.521123 -0.892821,11.315929 -0.892821,17.286338 0,37.721365 12.404784,68.330368 27.692078,68.330368 15.2872942,0 27.692078,-30.609004 27.692078,-68.330368 0,-5.970409 -0.308964,-11.765215 -0.892821,-17.286338 L -8.28125,-225.0625 z" transform="matrix(3.0043004,0,0,1,126.39935,1375.8962)" clip-path="url(#clipPath3842)" id="path4006" style="fill:#2e6074;fill-opacity:1;fill-rule:evenodd;stroke:none;filter:url(#filter3830)"></path>
      <path d="m -8.28125,-225.0625 -26.879758,258.737444 0.0805,0 c -0.583857,5.521123 -0.892821,11.315929 -0.892821,17.286338 0,37.721365 12.404784,68.330368 27.692078,68.330368 15.2872942,0 27.692078,-30.609004 27.692078,-68.330368 0,-5.970409 -0.308964,-11.765215 -0.892821,-17.286338 L -8.28125,-225.0625 z" transform="translate(109.80124,1375.8962)" clip-path="url(#clipPath3838)" id="path4008" style="fill:#ffffff;fill-opacity:0.64534882;fill-rule:evenodd;stroke:none;filter:url(#filter3830)"></path>
      <path d="M 215.94293,962.37975 101.51484,1150.8492 -13.260992,962.37975" id="path4010" style="fill:#0a151a;fill-opacity:1;fill-rule:evenodd;stroke:none"></path>
      <path d="M 26.45419,-413.51642 -8.4073006,-225.047 -43.37473,-413.51642" transform="matrix(2.2341396,0,0,1,120.2424,1375.8962)" clip-path="url(#clipPath3772)" id="path4012" style="fill:#1d3b47;fill-opacity:1;fill-rule:evenodd;stroke:none;filter:url(#filter3766)"></path>
      <path d="m 112.0098,-508.3125 a 118.2598,49.785213 0 1 1 -236.5196,0 118.2598,49.785213 0 1 1 236.5196,0 z" transform="translate(107.76484,1458.0787)" id="path4014" style="fill:#17313b;fill-opacity:1;fill-rule:evenodd;stroke:none"></path>
      <g transform="translate(109.80124,1375.8962)" clip-path="url(#clipPath3700)" id="g4016">
        <path d="M 9.217814,-525.7241 -8.4334502,-256.96056 -26.138354,-525.7241" transform="matrix(5.4193138,0,0,1,37.388588,0)" id="path4018" style="fill:#2e6074;fill-opacity:1;fill-rule:evenodd;stroke:none;filter:url(#filter3690)"></path>
        <path d="M 9.217814,-525.7241 -8.4334502,-256.96056 -26.138354,-525.7241" transform="matrix(1.6187039,0,0,1,5.2344023,0)" id="path4020" style="fill:#ffffff;fill-opacity:0.75;fill-rule:evenodd;stroke:none;filter:url(#filter3612)"></path>
      </g>
      <path d="m 202.8125,822.0625 -102.78671,115.09111 0,496.81249 30.66171,-34.3411 c 0,-60.3724 -7.98378,-205.915 72.125,-83.4062 l 0,-494.1563 z M 202,982 c -46,91 -69,88 -70,17 l 70,-17 z" id="rect4030" style="fill:#0000ff;fill-opacity:0.26842113;fill-rule:evenodd;stroke:none"></path>
      <path d="m 130.69893,1399.624 c 0,-60.624 -8.06261,-207.163 73.11923,-81.8935" id="path4047" style="fill:none;stroke:#00ffff;stroke-width:1px;stroke-linecap:butt;stroke-linejoin:miter;stroke-opacity:1"></path>
      <path d="m 132,999 c 1,71 24,74 70,-17" id="path4049" style="fill:none;stroke:#00ffff;stroke-width:1px;stroke-linecap:butt;stroke-linejoin:miter;stroke-opacity:1"></path>
    </g>
    <g id="g4120">
      <path d="m 299,713.4585 a 50,50 0 1 1 -100,0 50,50 0 1 1 100,0 z" transform="translate(-8.4632048,26.688687)" id="path4106" style="fill:#ffffff;fill-opacity:1;fill-rule:evenodd;stroke:#000000;stroke-width:5;stroke-linecap:round;stroke-linejoin:round;stroke-miterlimit:4;stroke-opacity:1;stroke-dasharray:none;stroke-dashoffset:0"></path>
      <path d="m 247.55808,775.64221 -8.68086,0 0,-55.31634 c -2.08986,1.99343 -4.83076,3.98681 -8.2227,5.98014 -3.39198,1.99343 -6.43831,3.48847 -9.13901,4.48511 l 0,-8.39149 c 4.85483,-2.28269 9.0988,-5.0477 12.73192,-8.29504 3.63308,-3.24722 6.20518,-6.39805 7.71632,-9.45249 l 5.59433,0 0,70.99011 z" id="text4102" style="font-size:98.76885223px;font-style:normal;font-weight:normal;fill:#000000;fill-opacity:1;stroke:none;font-family:Bitstream Vera Sans"></path>
    </g>
    <g transform="translate(11.334549,0)" id="g4125">
      <path d="m 299,713.4585 a 50,50 0 1 1 -100,0 50,50 0 1 1 100,0 z" transform="translate(370.54603,26.688687)" id="path4108" style="fill:#ffffff;fill-opacity:1;fill-rule:evenodd;stroke:#000000;stroke-width:5;stroke-linecap:round;stroke-linejoin:round;stroke-miterlimit:4;stroke-opacity:1;stroke-dasharray:none;stroke-dashoffset:0"></path>
      <path d="m 642.32059,767.29894 0,8.34327 -46.73195,0 c -0.0643,-2.08983 0.27329,-4.09929 1.01277,-6.02837 1.18959,-3.18297 3.09456,-6.31772 5.7149,-9.40426 2.62032,-3.08651 6.40613,-6.6553 11.35745,-10.70639 7.68414,-6.30163 12.87657,-11.29311 15.57732,-14.97448 2.70067,-3.68128 4.05102,-7.16166 4.05106,-10.44114 -4e-5,-3.44013 -1.22983,-6.34179 -3.68936,-8.70497 -2.45961,-2.36306 -5.6667,-3.54462 -9.62128,-3.54468 -4.1797,6e-5 -7.52343,1.25396 -10.03122,3.7617 -2.50781,2.50786 -3.77779,5.9802 -3.80993,10.41703 l -8.92199,-0.91631 c 0.61087,-6.65527 2.90969,-11.72713 6.89646,-15.21561 3.98675,-3.48835 9.33994,-5.23256 16.05958,-5.23263 6.7839,7e-5 12.15316,1.88092 16.10781,5.64256 3.95457,3.76176 5.93187,8.4237 5.93192,13.98582 -5e-5,2.82936 -0.57877,5.61045 -1.73617,8.34327 -1.15749,2.7329 -3.07853,5.61044 -5.76312,8.63263 -2.68468,3.02225 -7.14567,7.16977 -13.38299,12.44256 -5.20854,4.37259 -8.55227,7.33855 -10.03121,8.89787 -1.47898,1.55935 -2.70073,3.12673 -3.66525,4.70213 l 34.6752,0 z" id="text4110" style="font-size:98.76885223px;font-style:normal;font-weight:normal;fill:#000000;fill-opacity:1;stroke:none;font-family:Bitstream Vera Sans"></path>
    </g>
    <g transform="translate(-8.0000152,0)" id="g4130">
      <path d="m 299,713.4585 a 50,50 0 1 1 -100,0 50,50 0 1 1 100,0 z" transform="translate(796.22431,26.688687)" id="path4114" style="fill:#ffffff;fill-opacity:1;fill-rule:evenodd;stroke:#000000;stroke-width:5;stroke-linecap:round;stroke-linejoin:round;stroke-miterlimit:4;stroke-opacity:1;stroke-dasharray:none;stroke-dashoffset:0"></path>
      <path d="m 1022.4244,756.97837 8.6809,-1.15745 c 0.9967,4.91917 2.6927,8.46385 5.0879,10.63405 2.3953,2.17022 5.313,3.25533 8.7532,3.25532 4.0832,10e-6 7.5314,-1.41465 10.3447,-4.24397 2.8132,-2.8293 4.2198,-6.33379 4.2199,-10.51348 -10e-5,-3.98674 -1.3022,-7.27421 -3.9064,-9.86242 -2.6043,-2.58815 -5.9159,-3.88224 -9.9348,-3.88227 -1.6397,3e-5 -3.6813,0.32155 -6.1248,0.96454 l 0.9646,-7.61986 c 0.5787,0.0643 1.0448,0.0965 1.3985,0.0965 3.6974,4e-5 7.0251,-0.9645 9.983,-2.89362 2.9579,-1.92903 4.4369,-4.90303 4.4369,-8.92199 0,-3.18292 -1.0771,-5.81933 -3.2312,-7.90922 -2.1542,-2.08978 -4.9353,-3.13469 -8.3433,-3.13476 -3.3759,7e-5 -6.1891,1.06106 -8.4397,3.18298 -2.2506,2.12205 -3.6974,5.30503 -4.3404,9.54894 l -8.6809,-1.54326 c 1.061,-5.81933 3.4724,-10.32855 7.2341,-13.52767 3.7617,-3.19898 8.4397,-4.79851 14.034,-4.79858 3.8581,7e-5 7.4109,0.82797 10.6582,2.48369 3.2472,1.65586 5.7309,3.91449 7.4511,6.77589 1.72,2.86153 2.58,5.89982 2.5801,9.1149 -10e-5,3.05442 -0.8199,5.83551 -2.4596,8.34327 -1.6397,2.50784 -4.0672,4.50122 -7.2823,5.98014 4.1797,0.96458 7.427,2.966 9.7419,6.00426 2.3148,3.03833 3.4723,6.84022 3.4723,11.40568 0,6.17307 -2.2506,11.40569 -6.7517,15.69788 -4.5013,4.2922 -10.192,6.4383 -17.0724,6.4383 -6.2052,0 -11.3575,-1.8487 -15.4567,-5.5461 -4.0993,-3.69739 -6.4383,-8.48793 -7.0171,-14.37164 l 0,0 z" id="text4116" style="font-size:98.76885223px;font-style:normal;font-weight:normal;fill:#000000;fill-opacity:1;stroke:none;font-family:Bitstream Vera Sans"></path>
    </g>
  </g>
</svg>
