<!-- Created with Inkscape (http://www.inkscape.org/) -->
<svg xmlns:dc="http://purl.org/dc/elements/1.1/" xmlns:cc="http://creativecommons.org/ns#" xmlns:rdf="http://www.w3.org/1999/02/22-rdf-syntax-ns#" xmlns:svg="http://www.w3.org/2000/svg" xmlns="http://www.w3.org/2000/svg" xmlns:inkscape="http://www.inkscape.org/namespaces/inkscape" version="1.1" width="800" height="800" id="parabola">
  <desc id="desc3">Parabola</desc>
  <metadata id="metadata69"></metadata>
  <defs id="defs10">
    <marker refX="0" refY="0" orient="auto" id="ArrowLargeStart" style="overflow:visible">
      <path d="M 0,0 3.4,1.7 2.125,0 3.4,-1.7 0,0 z" id="path4074" style="fill:none;stroke:#000000;stroke-width:1;stroke-linejoin:miter;stroke-miterlimit:5;marker-start:none"></path>
    </marker>
    <marker refX="0" refY="0" orient="auto" id="ArrowLargeEnd" style="overflow:visible">
      <path d="M 0,0 -3.4,1.7 -2.125,0 -3.4,-1.7 0,0 z" id="path4077" style="fill:none;stroke:#000000;stroke-width:1;stroke-linejoin:miter;stroke-miterlimit:5;marker-start:none"></path>
    </marker>
  </defs>
  <g transform="translate(0,-200)" id="g3231" style="stroke:#808080;stroke-opacity:1">
    <rect width="800" height="800" x="0" y="200" id="rect11282" style="fill:#ffffff;fill-opacity:1;fill-rule:evenodd;stroke:#808080;stroke-width:2;stroke-linecap:square;stroke-linejoin:miter;stroke-miterlimit:4;stroke-opacity:1;stroke-dasharray:none;stroke-dashoffset:0"></rect>
    <path d="M 0.30074337,750.00001 799.70103,749.9991" id="path3814" style="fill:none;stroke:#808080;stroke-width:0.40000001;stroke-linecap:square;stroke-linejoin:miter;stroke-miterlimit:0;stroke-opacity:1;stroke-dasharray:none"></path>
    <path d="M 0.30045395,250.00001 799.70074,249.9991" id="path4711" style="fill:none;stroke:#808080;stroke-width:0.40000001;stroke-linecap:square;stroke-linejoin:miter;stroke-miterlimit:0;stroke-opacity:1;stroke-dasharray:none"></path>
    <path d="M 0.30045412,300.00001 799.70074,299.9991" id="path4713" style="fill:none;stroke:#808080;stroke-width:0.40000001;stroke-linecap:square;stroke-linejoin:miter;stroke-miterlimit:0;stroke-opacity:1;stroke-dasharray:none"></path>
    <path d="M 0.30045395,350.00001 799.70074,349.9991" id="path4715" style="fill:none;stroke:#808080;stroke-width:0.40000001;stroke-linecap:square;stroke-linejoin:miter;stroke-miterlimit:0;stroke-opacity:1;stroke-dasharray:none"></path>
    <path d="M 0.30045395,400.00001 799.70074,399.9991" id="path4717" style="fill:none;stroke:#808080;stroke-width:0.40000001;stroke-linecap:square;stroke-linejoin:miter;stroke-miterlimit:0;stroke-opacity:1;stroke-dasharray:none"></path>
    <path d="M 0.30074341,950.00001 799.70103,949.9991" id="path4721" style="fill:none;stroke:#808080;stroke-width:0.40000001;stroke-linecap:square;stroke-linejoin:miter;stroke-miterlimit:0;stroke-opacity:1;stroke-dasharray:none"></path>
    <path d="M 0.30074341,900.00001 799.70103,899.9991" id="path4723" style="fill:none;stroke:#808080;stroke-width:0.40000001;stroke-linecap:square;stroke-linejoin:miter;stroke-miterlimit:0;stroke-opacity:1;stroke-dasharray:none"></path>
    <path d="M 0.30074341,850.00001 799.70103,849.9991" id="path4725" style="fill:none;stroke:#808080;stroke-width:0.40000001;stroke-linecap:square;stroke-linejoin:miter;stroke-miterlimit:0;stroke-opacity:1;stroke-dasharray:none"></path>
    <path d="M 0.30074341,800.00001 799.70103,799.9991" id="path4727" style="fill:none;stroke:#808080;stroke-width:0.40000001;stroke-linecap:square;stroke-linejoin:miter;stroke-miterlimit:0;stroke-opacity:1;stroke-dasharray:none"></path>
    <path d="M 0.30074341,700.00001 799.70103,699.9991" id="path4729" style="fill:none;stroke:#808080;stroke-width:0.40000001;stroke-linecap:square;stroke-linejoin:miter;stroke-miterlimit:0;stroke-opacity:1;stroke-dasharray:none"></path>
    <path d="M 0.30045412,450.00001 799.70074,449.9991" id="path4731" style="fill:none;stroke:#808080;stroke-width:0.40000001;stroke-linecap:square;stroke-linejoin:miter;stroke-miterlimit:0;stroke-opacity:1;stroke-dasharray:none"></path>
    <path d="M 0.30045412,500.00001 799.70074,499.9991" id="path4733" style="fill:none;stroke:#808080;stroke-width:0.40000001;stroke-linecap:square;stroke-linejoin:miter;stroke-miterlimit:0;stroke-opacity:1;stroke-dasharray:none"></path>
    <path d="M 0.30045395,550.00001 799.70074,549.9991" id="path4735" style="fill:none;stroke:#808080;stroke-width:0.40000001;stroke-linecap:square;stroke-linejoin:miter;stroke-miterlimit:0;stroke-opacity:1;stroke-dasharray:none"></path>
    <path d="M 0.30045395,600.00001 799.70074,599.9991" id="path4737" style="fill:none;stroke:#808080;stroke-width:0.40000001;stroke-linecap:square;stroke-linejoin:miter;stroke-miterlimit:0;stroke-opacity:1;stroke-dasharray:none"></path>
    <path d="M 0.30045395,650.00001 799.70074,649.9991" id="path4739" style="fill:none;stroke:#808080;stroke-width:0.40000001;stroke-linecap:square;stroke-linejoin:miter;stroke-miterlimit:0;stroke-opacity:1;stroke-dasharray:none"></path>
    <path d="M 50.000023,200.10003 50.00093,999.6999" id="path4741" style="fill:none;stroke:#808080;stroke-width:0.40000001;stroke-linecap:square;stroke-linejoin:miter;stroke-miterlimit:0;stroke-opacity:1;stroke-dasharray:none"></path>
    <path d="m 750.00045,200.10003 9.1e-4,799.59987" id="path4745" style="fill:none;stroke:#808080;stroke-width:0.40000001;stroke-linecap:square;stroke-linejoin:miter;stroke-miterlimit:0;stroke-opacity:1;stroke-dasharray:none"></path>
    <path d="m 700.00045,200.10003 9.1e-4,799.59987" id="path4747" style="fill:none;stroke:#808080;stroke-width:0.40000001;stroke-linecap:square;stroke-linejoin:miter;stroke-miterlimit:0;stroke-opacity:1;stroke-dasharray:none"></path>
    <path d="m 650.00045,200.10003 9.1e-4,799.59987" id="path4749" style="fill:none;stroke:#808080;stroke-width:0.40000001;stroke-linecap:square;stroke-linejoin:miter;stroke-miterlimit:0;stroke-opacity:1;stroke-dasharray:none"></path>
    <path d="m 600.00045,200.10003 9.1e-4,799.59987" id="path4751" style="fill:none;stroke:#808080;stroke-width:0.40000001;stroke-linecap:square;stroke-linejoin:miter;stroke-miterlimit:0;stroke-opacity:1;stroke-dasharray:none"></path>
    <path d="m 550.00045,200.10003 9.1e-4,799.59987" id="path4753" style="fill:none;stroke:#808080;stroke-width:0.40000001;stroke-linecap:square;stroke-linejoin:miter;stroke-miterlimit:0;stroke-opacity:1;stroke-dasharray:none"></path>
    <path d="m 500.00045,200.10003 9.1e-4,799.59987" id="path4755" style="fill:none;stroke:#808080;stroke-width:0.40000001;stroke-linecap:square;stroke-linejoin:miter;stroke-miterlimit:0;stroke-opacity:1;stroke-dasharray:none"></path>
    <path d="m 100.00001,200.10015 9.1e-4,799.59983" id="path4759" style="fill:none;stroke:#808080;stroke-width:0.40000001;stroke-linecap:square;stroke-linejoin:miter;stroke-miterlimit:0;stroke-opacity:1;stroke-dasharray:none"></path>
    <path d="m 450.00045,200.10003 9.1e-4,799.59987" id="path4761" style="fill:none;stroke:#808080;stroke-width:0.40000001;stroke-linecap:square;stroke-linejoin:miter;stroke-miterlimit:0;stroke-opacity:1;stroke-dasharray:none"></path>
    <path d="m 150.00001,200.10015 9.1e-4,799.59983" id="path4763" style="fill:none;stroke:#808080;stroke-width:0.40000001;stroke-linecap:square;stroke-linejoin:miter;stroke-miterlimit:0;stroke-opacity:1;stroke-dasharray:none"></path>
    <path d="m 200.00002,200.10015 9.1e-4,799.59983" id="path4765" style="fill:none;stroke:#808080;stroke-width:0.40000001;stroke-linecap:square;stroke-linejoin:miter;stroke-miterlimit:0;stroke-opacity:1;stroke-dasharray:none"></path>
    <path d="m 250.00045,200.10015 0.001,799.59983" id="path4767" style="fill:none;stroke:#808080;stroke-width:0.40000001;stroke-linecap:square;stroke-linejoin:miter;stroke-miterlimit:0;stroke-opacity:1;stroke-dasharray:none"></path>
    <path d="m 300.00045,200.10015 9.1e-4,799.59983" id="path4769" style="fill:none;stroke:#808080;stroke-width:0.40000001;stroke-linecap:square;stroke-linejoin:miter;stroke-miterlimit:0;stroke-opacity:1;stroke-dasharray:none"></path>
    <path d="m 350.00045,200.10015 9.1e-4,799.59983" id="path4771" style="fill:none;stroke:#808080;stroke-width:0.40000001;stroke-linecap:square;stroke-linejoin:miter;stroke-miterlimit:0;stroke-opacity:1;stroke-dasharray:none"></path>
    <path d="m 400.00045,200.10015 9.1e-4,799.59983" id="path4773" style="fill:none;stroke:#808080;stroke-width:0.40000001;stroke-linecap:square;stroke-linejoin:miter;stroke-miterlimit:0;stroke-opacity:1;stroke-dasharray:none"></path>
  </g>
  <path d="m 399.97092,0.99999952 0,798.46183048" id="path2305" style="fill:none;stroke:#000000;stroke-width:4;stroke-linecap:butt;stroke-linejoin:miter;stroke-miterlimit:4;stroke-opacity:1;stroke-dasharray:none;marker-start:url(#ArrowLargeStart)"></path>
  <path d="M 0.93336505,449.99997 799,449.99997" id="path2312" style="fill:none;stroke:#000000;stroke-width:4;stroke-linecap:butt;stroke-linejoin:miter;stroke-miterlimit:4;stroke-opacity:1;stroke-dasharray:none;marker-end:url(#ArrowLargeEnd)"></path>
  <path d="M 1,549 799.8724,149.32641" id="path2330" style="fill:none;stroke:#ff0000;stroke-width:4;stroke-linecap:butt;stroke-linejoin:miter;stroke-miterlimit:4;stroke-opacity:1;stroke-dasharray:none"></path>
  <path d="M 200.99992,1.9376892 798.99966,599.00014" id="path7174" style="fill:none;stroke:#0000ff;stroke-width:4;stroke-linecap:butt;stroke-linejoin:miter;stroke-miterlimit:4;stroke-opacity:1;stroke-dasharray:none"></path>
  <g transform="matrix(2.6832828,-1.3416384,-1.3416384,-2.6832828,815.0934,2297.9068)" id="g3050" xml:space="preserve" style="font-style:normal;font-variant:normal;font-weight:normal;font-stretch:normal;letter-spacing:normal;word-spacing:normal;text-anchor:start;fill:#000000;fill-opacity:1;fill-rule:evenodd;stroke:#808080;stroke-width:0.66666669;stroke-linecap:butt;stroke-linejoin:miter;stroke-miterlimit:10.43299961;stroke-opacity:1;stroke-dasharray:none;stroke-dashoffset:0">
    <path d="m 227.96,651.46 -0.09,-0.12 -0.09,-0.12 -0.1,-0.11 -0.11,-0.12 -0.05,-0.05 -0.06,-0.05 -0.05,-0.06 -0.06,-0.05 -0.06,-0.04 -0.06,-0.05 -0.06,-0.05 -0.06,-0.04 -0.06,-0.04 -0.06,-0.04 -0.07,-0.04 -0.07,-0.04 -0.06,-0.03 -0.07,-0.03 -0.07,-0.03 -0.07,-0.02 -0.07,-0.03 -0.07,-0.02 -0.08,-0.01 -0.07,-0.02 -0.08,-0.01 -0.07,-0.01 -0.08,0 -0.08,-0.01 c -0.21,0 -1.03,0.04 -1.29,0.83 0.05,-0.02 0.14,-0.02 0.17,-0.02 0.52,0 0.86,0.45 0.86,0.85 0,0.39 -0.32,0.53 -0.58,0.53 -0.28,0 -0.88,-0.2 -0.88,-1.05 0,-0.88 0.74,-1.48 1.72,-1.48 1.72,0 3.46,1.58 3.94,3.5 l 1.69,6.71 c 0.02,0.08 0.05,0.19 0.05,0.29 0,0.26 -0.2,0.43 -0.46,0.43 -0.16,0 -0.52,-0.07 -0.66,-0.58 l -1.27,-5.06 c -0.09,-0.31 -0.09,-0.35 -0.23,-0.54 -0.34,-0.48 -0.91,-1.06 -1.73,-1.06 -0.97,0 -1.05,0.94 -1.05,1.41 0,0.98 0.46,2.3 0.92,3.54 0.2,0.5 0.3,0.74 0.3,1.09 0,0.72 -0.52,1.37 -1.36,1.37 -1.59,0 -2.22,-2.49 -2.22,-2.63 0,-0.07 0.07,-0.15 0.19,-0.15 0.15,0 0.17,0.06 0.24,0.31 0.41,1.44 1.07,2.13 1.74,2.13 0.15,0 0.44,0 0.44,-0.57 0,-0.45 -0.19,-0.94 -0.44,-1.6 -0.85,-2.25 -0.85,-2.82 -0.85,-3.24 0,-1.63 1.17,-2.01 2.03,-2.01 0.5,0 1.12,0.16 1.73,0.79 l 0.01,-0.02 c -0.25,-1.01 -0.43,-1.68 -1.03,-2.53 z" id="path3052" style="fill:#000000;fill-opacity:1;stroke:#808080;stroke-width:0;stroke-opacity:1"></path>
    <path d="m 248.12,658.92 0.05,0 0.05,0 0.05,0 0.02,0 0.02,0 0.02,0.01 0.03,0 0.02,0 0.02,0 0.02,0.01 0.02,0 0.02,0.01 0.02,0.01 0.01,0 0.02,0.01 0.02,0.01 0.01,0.01 0.02,0.01 0.01,0.01 0.01,0.02 0.01,0.01 0.01,0.01 0,0.01 0.01,0.01 0,0.01 0.01,0 0,0.01 0,0.01 0.01,0.01 0,0.02 0,0.01 0,0.01 0.01,0.01 0,0.01 0,0.01 0,0.02 0,0.01 c 0,0.31 -0.29,0.31 -0.59,0.31 l -9.62,0 c -0.29,0 -0.59,0 -0.59,-0.31 0,-0.29 0.26,-0.29 0.52,-0.29 l 9.76,0 z" id="path3054" style="fill:#000000;fill-opacity:1;stroke:#808080;stroke-width:0;stroke-opacity:1"></path>
    <path d="m 248.05,655.85 0.06,0 0.05,0 0.06,0.01 0.02,0 0.03,0 0.02,0 0.03,0 0.02,0.01 0.03,0 0.02,0 0.02,0.01 0.02,0.01 0.03,0 0.02,0.01 0.01,0.01 0.02,0.01 0.02,0.01 0.02,0.01 0.01,0.01 0.02,0.02 0.01,0.01 0.01,0.02 0,0.01 0.01,0.01 0,0.01 0.01,0.01 0,0.01 0,0.01 0.01,0.01 0,0.01 0,0.02 0,0.01 0.01,0.01 0,0.02 0,0.01 0,0.01 c 0,0.3 -0.26,0.3 -0.52,0.3 l -9.76,0 c -0.26,0 -0.52,0 -0.52,-0.3 0,-0.31 0.3,-0.31 0.59,-0.31 l 9.62,0 z" id="path3056" style="fill:#000000;fill-opacity:1;stroke:#808080;stroke-width:0;stroke-opacity:1"></path>
    <path d="m 258.63,667.15 0,0.01 0,0.01 0,0.01 0,0.01 0,0.01 0,0.01 0,0.01 0,0.01 0,0.01 0,0.01 0,0.01 0,0.01 -0.01,0.01 0,0.01 0,0 0,0.01 0,0.01 0,0.01 0,0.01 0,0.01 -0.01,0.01 0,0.01 0,0.01 -0.01,0.01 0,0.01 -0.01,0 -0.01,0.01 -0.01,0 0,0.01 -0.01,0 -0.01,0.01 0,0 -0.01,0 -0.01,0 0,0 -0.01,0 -0.01,0 0,0 -0.01,0.01 -0.01,0 -0.01,0 0,0 -0.01,0 -0.01,0 -0.01,0 -0.01,0 -0.01,0 -0.01,0 -0.01,0 -0.01,0 -0.01,0 -0.01,0 c -0.68,-0.7 -1.64,-0.7 -1.99,-0.7 l 0,-0.34 c 0.22,0 0.86,0 1.43,0.29 l 0,-5.65 c 0,-0.4 -0.03,-0.53 -1.02,-0.53 l -0.34,0 0,-0.34 c 0.38,0.04 1.33,0.04 1.76,0.04 0.44,0 1.39,0 1.77,-0.04 l 0,0.34 -0.35,0 c -0.98,0 -1.01,0.12 -1.01,0.53 l 0,6.12 z" id="path3058" style="fill:#000000;fill-opacity:1;stroke:#808080;stroke-width:0;stroke-opacity:1"></path>
    <line style="fill:#000000;fill-opacity:1;stroke:#000000;stroke-width:0.33333334;stroke-miterlimit:10.43299961;stroke-opacity:1;stroke-dasharray:none" x1="255.42" y1="657.69" x2="260.88" y2="657.69" id="line3060"></line>
    <path d="m 260.32,649.35 -0.27,0 c -0.06,-0.33 -0.13,-0.81 -0.25,-0.97 -0.07,-0.09 -0.79,-0.09 -1.03,-0.09 l -1.97,0 1.16,1.13 c 1.7,1.5 2.36,2.09 2.36,3.18 0,1.24 -0.98,2.12 -2.31,2.12 -1.24,0 -2.05,-1.01 -2.05,-1.98 0,-0.61 0.55,-0.61 0.58,-0.61 0.19,0 0.57,0.13 0.57,0.58 0,0.28 -0.19,0.57 -0.58,0.57 -0.08,0 -0.11,0 -0.14,-0.01 0.25,0.71 0.84,1.11 1.47,1.11 1,0 1.47,-0.88 1.47,-1.78 0,-0.87 -0.55,-1.73 -1.15,-2.41 l -2.1,-2.33 c -0.12,-0.12 -0.12,-0.15 -0.12,-0.41 l 4.05,0 0.31,1.9 z" id="path3062" style="fill:#000000;fill-opacity:1;stroke:#808080;stroke-width:0;stroke-opacity:1"></path>
    <path d="m 270.23,660.42 -0.05,-0.01 -0.05,-0.02 -0.04,-0.01 -0.05,-0.02 -0.04,-0.01 -0.04,-0.02 -0.04,-0.02 -0.04,-0.02 -0.03,-0.03 -0.04,-0.02 -0.03,-0.02 -0.03,-0.03 -0.03,-0.03 -0.02,-0.02 -0.03,-0.03 -0.02,-0.03 -0.02,-0.03 -0.02,-0.03 -0.02,-0.03 -0.02,-0.03 -0.02,-0.04 -0.01,-0.03 -0.01,-0.03 -0.01,-0.03 -0.01,-0.03 -0.01,-0.04 -0.01,-0.03 -0.01,-0.03 0,-0.03 0,-0.03 0,-0.04 0,-0.03 c 0,-0.41 0.32,-0.55 0.56,-0.55 0.52,0 0.88,0.45 0.88,0.91 0,0.73 -0.82,1.05 -1.55,1.05 -1.05,0 -1.63,-1.03 -1.79,-1.36 -0.4,1.3 -1.46,1.36 -1.77,1.36 -1.76,0 -2.69,-2.25 -2.69,-2.63 0,-0.07 0.07,-0.15 0.19,-0.15 0.14,0 0.17,0.1 0.21,0.17 0.58,1.91 1.74,2.27 2.24,2.27 0.77,0 0.93,-0.72 0.93,-1.14 0,-0.37 -0.11,-0.77 -0.31,-1.6 -0.28,-1.1 -0.35,-1.36 -0.59,-2.36 -0.26,-1.03 -0.76,-1.97 -1.67,-1.97 -0.08,0 -0.51,0 -0.88,0.22 0.62,0.12 0.76,0.63 0.76,0.84 0,0.35 -0.26,0.55 -0.58,0.55 -0.42,0 -0.87,-0.36 -0.87,-0.91 0,-0.72 0.81,-1.05 1.55,-1.05 0.83,0 1.42,0.66 1.78,1.36 0.27,-1.01 1.13,-1.36 1.77,-1.36 1.76,0 2.69,2.26 2.69,2.63 0,0.09 -0.07,0.16 -0.18,0.16 -0.15,0 -0.17,-0.09 -0.22,-0.23 -0.46,-1.51 -1.46,-2.21 -2.24,-2.21 -0.6,0 -0.93,0.44 -0.93,1.15 0,0.38 0.07,0.65 0.35,1.79 0.2,0.79 0.43,1.7 0.6,2.34 0.26,1.03 0.84,1.79 1.64,1.79 0.03,0 0.51,0 0.87,-0.22 z" id="path3064" style="fill:#000000;fill-opacity:1;stroke:#808080;stroke-width:0;stroke-opacity:1"></path>
    <path d="m 281.96,657.39 4.57,0 c 0.24,0 0.53,0 0.53,0.29 0,0.31 -0.27,0.31 -0.53,0.31 l -4.57,0 0,4.56 c 0,0.24 0,0.54 -0.29,0.54 -0.31,0 -0.31,-0.28 -0.31,-0.54 l 0,-4.56 -4.56,0 c -0.24,0 -0.53,0 -0.53,-0.29 0,-0.31 0.27,-0.31 0.53,-0.31 l 4.56,0 0,-4.57 c 0,-0.24 0,-0.53 0.29,-0.53 0.31,0 0.31,0.28 0.31,0.53 l 0,4.57 z" id="path3066" style="fill:#000000;fill-opacity:1;stroke:#808080;stroke-width:0;stroke-opacity:1"></path>
    <path d="m 298.87,656.06 -0.31,0 c -0.17,-1.22 -0.31,-1.43 -0.38,-1.53 -0.09,-0.14 -1.32,-0.14 -1.57,-0.14 l -3.3,0 c 0.62,0.67 1.82,1.89 3.29,3.31 1.05,1 2.27,2.16 2.27,3.87 0,2.03 -1.62,3.2 -3.43,3.2 -1.89,0 -3.04,-1.67 -3.04,-3.22 0,-0.67 0.49,-0.76 0.7,-0.76 0.17,0 0.69,0.11 0.69,0.71 0,0.53 -0.45,0.69 -0.69,0.69 -0.1,0 -0.21,-0.02 -0.27,-0.05 0.32,1.46 1.32,2.18 2.37,2.18 1.5,0 2.48,-1.18 2.48,-2.75 0,-1.5 -0.88,-2.79 -1.86,-3.91 l -3.42,-3.87 0,-0.4 6.06,0 0.41,2.67 z" id="path3068" style="fill:#000000;fill-opacity:1;stroke:#808080;stroke-width:0;stroke-opacity:1"></path>
  </g>
  <g transform="matrix(2.1213204,2.1213204,2.1213204,-2.1213204,-1688.2137,970.25104)" id="content" xml:space="preserve" style="font-style:normal;font-variant:normal;font-weight:normal;font-stretch:normal;letter-spacing:normal;word-spacing:normal;text-anchor:start;fill:#000000;fill-opacity:1;fill-rule:evenodd;stroke:none">
    <path d="m 227.96,654.17 -0.09,-0.12 -0.09,-0.12 -0.1,-0.12 -0.11,-0.11 -0.05,-0.05 -0.06,-0.06 -0.05,-0.05 -0.06,-0.05 -0.06,-0.05 -0.06,-0.04 -0.06,-0.05 -0.06,-0.04 -0.06,-0.05 -0.06,-0.03 -0.07,-0.04 -0.07,-0.04 -0.06,-0.03 -0.07,-0.03 -0.07,-0.03 -0.07,-0.03 -0.07,-0.02 -0.07,-0.02 -0.08,-0.02 -0.07,-0.01 -0.08,-0.01 -0.07,-0.01 -0.08,-0.01 -0.08,0 c -0.21,0 -1.03,0.04 -1.29,0.83 0.05,-0.02 0.14,-0.02 0.17,-0.02 0.52,0 0.86,0.45 0.86,0.85 0,0.39 -0.32,0.53 -0.58,0.53 -0.28,0 -0.88,-0.21 -0.88,-1.05 0,-0.88 0.74,-1.48 1.72,-1.48 1.72,0 3.46,1.58 3.94,3.49 l 1.69,6.72 c 0.02,0.08 0.05,0.19 0.05,0.29 0,0.26 -0.2,0.43 -0.46,0.43 -0.16,0 -0.52,-0.07 -0.66,-0.59 l -1.27,-5.06 c -0.09,-0.31 -0.09,-0.34 -0.23,-0.53 -0.34,-0.48 -0.91,-1.07 -1.73,-1.07 -0.97,0 -1.05,0.95 -1.05,1.41 0,0.98 0.46,2.31 0.92,3.55 0.2,0.5 0.3,0.74 0.3,1.09 0,0.72 -0.52,1.37 -1.36,1.37 -1.59,0 -2.22,-2.49 -2.22,-2.63 0,-0.07 0.07,-0.16 0.19,-0.16 0.15,0 0.17,0.07 0.24,0.31 0.41,1.45 1.07,2.14 1.74,2.14 0.15,0 0.44,0 0.44,-0.57 0,-0.45 -0.19,-0.95 -0.44,-1.6 -0.85,-2.26 -0.85,-2.83 -0.85,-3.24 0,-1.63 1.17,-2.01 2.03,-2.01 0.5,0 1.12,0.15 1.73,0.79 l 0.01,-0.02 c -0.25,-1.01 -0.43,-1.68 -1.03,-2.53 z" id="path2914" style="fill:#000000;fill-opacity:1"></path>
    <path d="m 248.12,661.63 0.05,0 0.05,0 0.05,0 0.02,0 0.02,0 0.02,0 0.03,0 0.02,0.01 0.02,0 0.02,0.01 0.02,0 0.02,0.01 0.02,0 0.01,0.01 0.02,0.01 0.02,0.01 0.01,0.01 0.02,0.01 0.01,0.01 0.01,0.01 0.01,0.02 0.01,0.01 0,0.01 0.01,0 0,0.01 0.01,0.01 0,0.01 0,0.01 0.01,0.01 0,0.01 0,0.01 0,0.02 0.01,0.01 0,0.01 0,0.01 0,0.02 0,0.01 c 0,0.31 -0.29,0.31 -0.59,0.31 l -9.62,0 c -0.29,0 -0.59,0 -0.59,-0.31 0,-0.29 0.26,-0.29 0.52,-0.29 l 9.76,0 z" id="path2916" style="fill:#000000;fill-opacity:1"></path>
    <path d="m 248.05,658.56 0.06,0 0.05,0 0.06,0 0.02,0.01 0.03,0 0.02,0 0.03,0 0.02,0 0.03,0.01 0.02,0 0.02,0.01 0.02,0 0.03,0.01 0.02,0.01 0.01,0.01 0.02,0.01 0.02,0.01 0.02,0.01 0.01,0.01 0.02,0.02 0.01,0.01 0.01,0.02 0,0.01 0.01,0.01 0,0.01 0.01,0.01 0,0.01 0,0.01 0.01,0.01 0,0.01 0,0.01 0,0.02 0.01,0.01 0,0.01 0,0.02 0,0.01 c 0,0.29 -0.26,0.29 -0.52,0.29 l -9.76,0 c -0.26,0 -0.52,0 -0.52,-0.29 0,-0.31 0.3,-0.31 0.59,-0.31 l 9.62,0 z" id="path2918" style="fill:#000000;fill-opacity:1"></path>
    <path d="m 265.61,660.06 0.02,0 0.02,0 0.05,0 0.05,0 0.02,0 0.03,0.01 0.02,0 0.03,0 0.02,0 0.02,0.01 0.03,0 0.02,0.01 0.02,0.01 0.02,0 0.02,0.01 0.02,0.01 0.02,0.01 0.02,0.01 0.02,0.02 0.01,0.01 0.02,0.02 0,0.01 0.01,0.01 0.01,0 0,0.01 0.01,0.01 0,0.01 0.01,0.02 0,0.01 0.01,0.01 0,0.01 0,0.01 0.01,0.02 0,0.01 0,0.01 0,0.02 0,0.01 0,0.02 0,0.01 c 0,0.35 -0.32,0.35 -0.56,0.35 l -9.39,0 c -0.24,0 -0.56,0 -0.56,-0.35 0,-0.34 0.32,-0.34 0.56,-0.34 l 9.39,0 z" id="path2920" style="fill:#000000;fill-opacity:1"></path>
    <path d="m 275.77,663.12 -0.05,-0.01 -0.04,-0.01 -0.05,-0.01 -0.05,-0.02 -0.04,-0.02 -0.04,-0.01 -0.04,-0.02 -0.04,-0.03 -0.03,-0.02 -0.03,-0.02 -0.04,-0.03 -0.03,-0.02 -0.03,-0.03 -0.02,-0.03 -0.03,-0.02 -0.02,-0.03 -0.02,-0.03 -0.02,-0.03 -0.02,-0.04 -0.02,-0.03 -0.01,-0.03 -0.02,-0.03 -0.01,-0.03 -0.01,-0.03 -0.01,-0.04 -0.01,-0.03 -0.01,-0.03 0,-0.03 -0.01,-0.04 0,-0.03 0,-0.03 0,-0.03 c 0,-0.41 0.33,-0.55 0.57,-0.55 0.51,0 0.87,0.45 0.87,0.91 0,0.72 -0.82,1.05 -1.55,1.05 -1.05,0 -1.63,-1.03 -1.79,-1.36 -0.39,1.29 -1.46,1.36 -1.77,1.36 -1.75,0 -2.68,-2.25 -2.68,-2.63 0,-0.07 0.06,-0.16 0.19,-0.16 0.13,0 0.17,0.11 0.2,0.18 0.59,1.91 1.74,2.27 2.24,2.27 0.77,0 0.93,-0.72 0.93,-1.14 0,-0.38 -0.1,-0.77 -0.31,-1.6 -0.28,-1.1 -0.34,-1.36 -0.59,-2.36 -0.25,-1.03 -0.75,-1.98 -1.67,-1.98 -0.08,0 -0.51,0 -0.87,0.23 0.61,0.12 0.75,0.63 0.75,0.84 0,0.34 -0.25,0.55 -0.58,0.55 -0.41,0 -0.86,-0.36 -0.86,-0.91 0,-0.72 0.81,-1.05 1.55,-1.05 0.82,0 1.41,0.65 1.77,1.36 0.28,-1.02 1.14,-1.36 1.77,-1.36 1.76,0 2.69,2.25 2.69,2.63 0,0.09 -0.07,0.16 -0.17,0.16 -0.16,0 -0.18,-0.09 -0.23,-0.23 -0.46,-1.51 -1.46,-2.22 -2.24,-2.22 -0.6,0 -0.92,0.45 -0.92,1.16 0,0.37 0.06,0.65 0.34,1.79 0.21,0.79 0.43,1.7 0.6,2.34 0.26,1.03 0.85,1.79 1.64,1.79 0.03,0 0.51,0 0.87,-0.23 z" id="path2922" style="fill:#000000;fill-opacity:1"></path>
    <path d="m 287.51,660.09 4.56,0 c 0.24,0 0.53,0 0.53,0.3 0,0.31 -0.27,0.31 -0.53,0.31 l -4.56,0 0,4.56 c 0,0.24 0,0.53 -0.3,0.53 -0.31,0 -0.31,-0.27 -0.31,-0.53 l 0,-4.56 -4.56,0 c -0.24,0 -0.53,0 -0.53,-0.3 0,-0.31 0.27,-0.31 0.53,-0.31 l 4.56,0 0,-4.56 c 0,-0.24 0,-0.53 0.3,-0.53 0.31,0 0.31,0.27 0.31,0.53 l 0,4.56 z" id="path2924" style="fill:#000000;fill-opacity:1"></path>
    <path d="m 299.2,666.17 0.01,-0.01 0.02,0 0.03,-0.01 0.02,-0.01 0.03,-0.01 0.03,-0.01 0.04,-0.01 0.04,-0.01 0.04,-0.02 0.04,-0.01 0.04,-0.01 0.05,-0.01 0.04,-0.01 0.05,-0.02 0.06,-0.01 0.05,-0.01 0.05,-0.01 0.06,-0.02 0.06,-0.01 0.06,-0.01 0.06,-0.01 0.06,-0.01 0.13,-0.02 0.12,-0.01 0.14,-0.01 0.13,-0.01 0.07,0 0.07,0 c 1.6,0 2.47,0.86 2.97,1.36 0,0.14 0,0.22 -0.1,0.22 -0.02,0 -0.05,0 -0.19,-0.07 -0.6,-0.25 -1.31,-0.46 -2.17,-0.46 -0.51,0 -1.29,0.07 -2.13,0.45 -0.19,0.08 -0.23,0.08 -0.24,0.08 -0.09,0 -0.11,-0.01 -0.11,-0.36 l 0,-4.99 c 0,-0.31 0,-0.4 0.18,-0.4 0.08,0 0.12,0.04 0.2,0.16 0.55,0.77 1.31,1.1 2.17,1.1 0.6,0 1.89,-0.38 1.89,-3.32 0,-0.56 0,-1.55 -0.51,-2.35 -0.43,-0.7 -1.1,-1.06 -1.84,-1.06 -1.14,0 -2.29,0.79 -2.6,2.11 0.07,-0.01 0.2,-0.05 0.27,-0.05 0.23,0 0.66,0.12 0.66,0.66 0,0.46 -0.33,0.65 -0.66,0.65 -0.39,0 -0.65,-0.24 -0.65,-0.72 0,-1.5 1.19,-3.06 3.01,-3.06 1.77,0 3.46,1.53 3.46,3.75 0,2.06 -1.34,3.66 -3.01,3.66 -0.88,0 -1.62,-0.32 -2.2,-0.94 l 0,3.87 z" id="path2926" style="fill:#000000;fill-opacity:1"></path>
  </g>
  <g transform="matrix(2,0,0,-2,326.26,1798.7816)" id="g3820" xml:space="preserve" style="font-style:normal;font-variant:normal;font-weight:normal;font-stretch:normal;letter-spacing:normal;word-spacing:normal;text-anchor:start;fill:#000000;fill-opacity:1;fill-rule:evenodd;stroke:none">
    <path d="m 231.59,664.26 -0.05,-0.01 -0.05,-0.02 -0.04,-0.01 -0.05,-0.02 -0.04,-0.01 -0.04,-0.02 -0.04,-0.02 -0.04,-0.02 -0.03,-0.03 -0.04,-0.02 -0.03,-0.02 -0.03,-0.03 -0.03,-0.03 -0.02,-0.02 -0.03,-0.03 -0.02,-0.03 -0.02,-0.03 -0.02,-0.03 -0.02,-0.03 -0.02,-0.03 -0.02,-0.04 -0.01,-0.03 -0.01,-0.03 -0.01,-0.03 -0.01,-0.03 -0.01,-0.04 -0.01,-0.03 -0.01,-0.03 0,-0.03 0,-0.03 0,-0.04 0,-0.03 c 0,-0.41 0.32,-0.55 0.56,-0.55 0.52,0 0.88,0.45 0.88,0.91 0,0.73 -0.82,1.05 -1.55,1.05 -1.05,0 -1.63,-1.03 -1.79,-1.36 -0.4,1.3 -1.46,1.36 -1.77,1.36 -1.76,0 -2.69,-2.25 -2.69,-2.63 0,-0.07 0.07,-0.15 0.19,-0.15 0.14,0 0.17,0.1 0.21,0.17 0.58,1.91 1.74,2.27 2.24,2.27 0.77,0 0.93,-0.72 0.93,-1.14 0,-0.37 -0.11,-0.77 -0.31,-1.6 -0.28,-1.1 -0.35,-1.36 -0.59,-2.36 -0.26,-1.03 -0.76,-1.97 -1.67,-1.97 -0.08,0 -0.52,0 -0.88,0.22 0.62,0.12 0.76,0.64 0.76,0.84 0,0.35 -0.26,0.55 -0.59,0.55 -0.41,0 -0.86,-0.36 -0.86,-0.91 0,-0.72 0.81,-1.05 1.55,-1.05 0.83,0 1.42,0.66 1.78,1.36 0.27,-1.01 1.13,-1.36 1.77,-1.36 1.76,0 2.69,2.26 2.69,2.63 0,0.09 -0.07,0.16 -0.18,0.16 -0.15,0 -0.17,-0.09 -0.22,-0.22 -0.46,-1.52 -1.46,-2.22 -2.24,-2.22 -0.6,0 -0.93,0.44 -0.93,1.15 0,0.38 0.07,0.65 0.35,1.79 0.2,0.79 0.43,1.7 0.6,2.34 0.26,1.03 0.84,1.79 1.63,1.79 0.04,0 0.52,0 0.88,-0.22 z" id="path3822" style="fill:#000000"></path>
  </g>
  <g transform="matrix(2,0,0,-2,-85.620523,1342.54)" id="g3965" xml:space="preserve" style="font-style:normal;font-variant:normal;font-weight:normal;font-stretch:normal;letter-spacing:normal;word-spacing:normal;text-anchor:start;fill:#000000;fill-opacity:1;fill-rule:evenodd;stroke:none">
    <path d="m 227.96,655.3 -0.09,-0.12 -0.09,-0.12 -0.1,-0.11 -0.11,-0.12 -0.05,-0.05 -0.06,-0.05 -0.05,-0.06 -0.06,-0.05 -0.06,-0.04 -0.06,-0.05 -0.06,-0.05 -0.06,-0.04 -0.06,-0.04 -0.06,-0.04 -0.07,-0.04 -0.07,-0.04 -0.06,-0.03 -0.07,-0.03 -0.07,-0.03 -0.07,-0.02 -0.07,-0.03 -0.07,-0.02 -0.08,-0.01 -0.07,-0.02 -0.08,-0.01 -0.07,-0.01 -0.08,0 -0.08,0 c -0.21,0 -1.03,0.03 -1.29,0.82 0.05,-0.02 0.14,-0.02 0.17,-0.02 0.52,0 0.86,0.45 0.86,0.85 0,0.39 -0.32,0.53 -0.58,0.53 -0.28,0 -0.88,-0.21 -0.88,-1.05 0,-0.88 0.74,-1.48 1.72,-1.48 1.72,0 3.46,1.58 3.94,3.5 l 1.69,6.71 c 0.02,0.09 0.05,0.19 0.05,0.29 0,0.26 -0.2,0.43 -0.46,0.43 -0.16,0 -0.52,-0.07 -0.66,-0.58 l -1.27,-5.06 c -0.09,-0.31 -0.09,-0.35 -0.23,-0.54 -0.34,-0.48 -0.91,-1.06 -1.73,-1.06 -0.97,0 -1.05,0.94 -1.05,1.41 0,0.98 0.46,2.3 0.92,3.54 0.2,0.5 0.3,0.74 0.3,1.09 0,0.72 -0.52,1.37 -1.36,1.37 -1.59,0 -2.22,-2.49 -2.22,-2.63 0,-0.07 0.07,-0.15 0.19,-0.15 0.15,0 0.17,0.06 0.24,0.3 0.41,1.45 1.07,2.14 1.74,2.14 0.15,0 0.44,0 0.44,-0.57 0,-0.45 -0.19,-0.94 -0.44,-1.6 -0.85,-2.25 -0.85,-2.82 -0.85,-3.23 0,-1.64 1.17,-2.02 2.03,-2.02 0.5,0 1.12,0.16 1.73,0.79 l 0.01,-0.01 c -0.25,-1.02 -0.43,-1.69 -1.03,-2.54 z" id="path3967" style="fill:#000000"></path>
  </g>
</svg>
