<!-- Created with Inkscape (http://www.inkscape.org/) -->
<svg xmlns:dc="http://purl.org/dc/elements/1.1/" xmlns:cc="http://creativecommons.org/ns#" xmlns:rdf="http://www.w3.org/1999/02/22-rdf-syntax-ns#" xmlns:svg="http://www.w3.org/2000/svg" xmlns="http://www.w3.org/2000/svg" xmlns:inkscape="http://www.inkscape.org/namespaces/inkscape" version="1.1" width="600" height="400" viewBox="0 0 600 400" id="svg2">
  <title id="title4">Graph of Logistics Curve</title>
  <desc id="desc6">Originally Produced by GNUPLOT 4.2 patchlevel 2, hand compressed  </desc>
  <metadata id="metadata110"></metadata>
  <defs id="defs108"></defs>
  <g id="g8" style="color:#808080;fill:none;stroke:currentColor;stroke-width:1;stroke-linecap:butt;stroke-linejoin:miter">
    <path d="m 38.5,346.8 523,0" id="path10"></path>
    <path d="m 38.5,185.5 523,0" id="path12"></path>
    <path d="m 38.5,24.2 523,0" id="path14"></path>
    <path d="m 38.5,346 0,-321" id="path16"></path>
    <path d="m 125.7,346 0,-321" id="path18"></path>
    <path d="m 212.8,346 0,-321" id="path20"></path>
    <path d="M 300,346 300,25" id="path22"></path>
    <path d="m 387.2,346 0,-321" id="path24"></path>
    <path d="m 474.3,346 0,-321" id="path26"></path>
    <path d="m 561.5,346 0,-321" id="path28"></path>
  </g>
  <g id="g30" style="color:#000000;fill:none;stroke:currentColor;stroke-width:1;stroke-linecap:butt;stroke-linejoin:miter">
    <path d="m 300,346.8 -13.5,0" id="path32"></path>
    <path d="m 300,185.5 -13.5,0" id="path34"></path>
    <path d="m 300,24.2 -13.5,0" id="path36"></path>
    <path d="m 38.5,346 0,-13.5" id="path38"></path>
    <path d="m 125.7,346 0,-13.5" id="path40"></path>
    <path d="m 212.8,346 0,-13.5" id="path42"></path>
    <path d="m 300,346 0,-13.5" id="path44"></path>
    <path d="m 387.2,346 0,-13.5" id="path46"></path>
    <path d="m 474.3,346 0,-13.5" id="path48"></path>
    <path d="m 561.5,346 0,-13.5" id="path50"></path>
    <g id="g52" style="font-size:22.5px;text-anchor:end;fill:#000000;stroke:none;font-family:Bitstream Vera Sans">
      <g transform="translate(287.5,353.5)" id="g54">
        <text id="text56">0</text>
      </g>
      <g transform="translate(287.5,192.2)" id="g58">
        <text id="text60">0.5</text>
      </g>
      <g transform="translate(287.5,30.9)" id="g62">
        <text id="text64">1</text>
      </g>
    </g>
    <g id="g66" style="font-size:22.5px;text-anchor:middle;fill:#000000;stroke:none;font-family:Bitstream Vera Sans">
      <g transform="translate(38.5,379.7)" id="g68">
        <text id="text70">6</text>
      </g>
      <g transform="translate(125.7,379.7)" id="g72">
        <text id="text74">4</text>
      </g>
      <g transform="translate(212.8,379.7)" id="g76">
        <text id="text78">2</text>
      </g>
      <g transform="translate(300,379.7)" id="g80">
        <text id="text82">0</text>
      </g>
      <g transform="translate(387.2,379.7)" id="g84">
        <text id="text86">2</text>
      </g>
      <g transform="translate(474.3,379.7)" id="g88">
        <text id="text90">4</text>
      </g>
      <g transform="translate(561.5,379.7)" id="g92">
        <text id="text94">6</text>
      </g>
    </g>
  </g>
  <g id="g96" style="color:#000000;fill:none;stroke:currentColor;stroke-width:1;stroke-linecap:butt;stroke-linejoin:miter">
    <path d="M 300,346 300,25 M 38.5,25 m 0,321 523,0 m 0,-321 m -523,0" id="path98"></path>
    <path d="m 38.5,346 523,0" id="path100"></path>
  </g>
  <g transform="matrix(0.995,0,0,1.038,168.6,249.5)" id="g102" style="fill:none;stroke-width:2">
    <path d="m -132,93 24.2,-0.6 13.2,-0.4 13.2,-0.7 13.2,-0.8 13.2,-1.1 13.2,-1.5 13.2,-2 13.2,-2.7 L -2.2,79.7 11,75 24.2,69 c 4.5,-2.3 8.9,-4.9 13.2,-7.7 4.5,-3 8.9,-6.3 13.2,-9.8 4.5,-3.8 8.9,-7.9 13.2,-12.2 C 68.3,34.6 72.7,29.7 77,24.4 81.5,18.9 85.9,13 90.2,6.9 l 13.2,-19.9 13.2,-21.9 13.2,-23.1 8.8,-15.5 13.2,-22.8 13.2,-21.3 13.2,-19.2 c 4.3,-5.8 8.7,-11.4 13.2,-16.6 4.3,-5 8.7,-9.6 13.2,-14 4.3,-4.1 8.7,-7.9 13.2,-11.3 4.3,-3.4 8.7,-6.4 13.2,-9.1 4.3,-2.7 8.8,-5 13.2,-7.2 l 13.2,-5.5 13.2,-4.2 13.2,-3.2 13.2,-2.4 13.2,-1.9 13.2,-1.3 13.2,-1.1 13.2,-0.7 13.2,-0.6 11,-0.3 19.8,-0.5" id="path104" style="stroke:#4050c0"></path>
  </g>
</svg>
