<!-- Created with Inkscape (http://www.inkscape.org/) -->
<svg xmlns:dc="http://purl.org/dc/elements/1.1/" xmlns:cc="http://creativecommons.org/ns#" xmlns:rdf="http://www.w3.org/1999/02/22-rdf-syntax-ns#" xmlns:svg="http://www.w3.org/2000/svg" xmlns="http://www.w3.org/2000/svg" xmlns:inkscape="http://www.inkscape.org/namespaces/inkscape" version="1.1" width="1000" height="1000" viewBox="0 0 1000 1000" id="svg2">
  <title id="title4">sin: Taylor Series Approximation</title>
  <desc id="desc6"></desc>
  <metadata id="metadata267"></metadata>
  <defs id="defs8">
    <clipPath id="clip">
      <rect width="20" height="20" x="-10" y="-10" id="rect11"></rect>
    </clipPath>
    <style type="text/css" id="style13"></style>
  </defs>
  <g id="g15" style="fill:none;stroke:#808080;stroke-width:1">
    <path d="m 152,892 771,0" id="path17"></path>
    <path d="m 152,808 771,0" id="path19"></path>
    <path d="m 152,724 771,0" id="path21"></path>
    <path d="m 152,639 771,0" id="path23"></path>
    <path d="m 152,555 771,0" id="path25"></path>
    <path d="m 152,471 771,0" id="path27"></path>
    <path d="m 152,387 771,0" id="path29"></path>
    <path d="m 152,303 771,0" id="path31"></path>
    <path d="m 152,218 771,0" id="path33"></path>
    <path d="m 152,134 771,0" id="path35"></path>
    <path d="m 152,50 771,0" id="path37"></path>
    <path d="M 152,892 152,50" id="path39"></path>
    <path d="M 229,892 229,50" id="path41"></path>
    <path d="M 306,892 306,50" id="path43"></path>
    <path d="M 383,892 383,50" id="path45"></path>
    <path d="M 460,892 460,50" id="path47"></path>
    <path d="M 537,892 537,50" id="path49"></path>
    <path d="M 615,892 615,50" id="path51"></path>
    <path d="M 692,892 692,50" id="path53"></path>
    <path d="M 769,892 769,50" id="path55"></path>
    <path d="M 846,892 846,50" id="path57"></path>
    <path d="M 923,892 923,50" id="path59"></path>
  </g>
  <g id="g61" style="fill:none;stroke:#000000;stroke-width:1">
    <path d="m 152,892 27,0 m 744,0 -27,0" id="path63"></path>
    <path d="m 152,808 27,0 m 744,0 -27,0" id="path65"></path>
    <path d="m 152,724 27,0 m 744,0 -27,0" id="path67"></path>
    <path d="m 152,639 27,0 m 744,0 -27,0" id="path69"></path>
    <path d="m 152,555 27,0 m 744,0 -27,0" id="path71"></path>
    <path d="m 152,471 27,0 m 744,0 -27,0" id="path73"></path>
    <path d="m 152,387 27,0 m 744,0 -27,0" id="path75"></path>
    <path d="m 152,303 27,0 m 744,0 -27,0" id="path77"></path>
    <path d="m 152,218 27,0 m 744,0 -27,0" id="path79"></path>
    <path d="m 152,134 27,0 m 744,0 -27,0" id="path81"></path>
    <path d="m 152,50 27,0 m 744,0 -27,0" id="path83"></path>
    <path d="m 152,892 0,-27 m 0,-815 0,27" id="path85"></path>
    <path d="m 229,892 0,-27 m 0,-815 0,27" id="path87"></path>
    <path d="m 306,892 0,-27 m 0,-815 0,27" id="path89"></path>
    <path d="m 383,892 0,-27 m 0,-815 0,27" id="path91"></path>
    <path d="m 460,892 0,-27 m 0,-815 0,27" id="path93"></path>
    <path d="m 537,892 0,-27 m 0,-815 0,27" id="path95"></path>
    <path d="m 615,892 0,-27 m 0,-815 0,27" id="path97"></path>
    <path d="m 692,892 0,-27 m 0,-815 0,27" id="path99"></path>
    <path d="m 769,892 0,-27 m 0,-815 0,27" id="path101"></path>
    <path d="m 846,892 0,-27 m 0,-815 0,27" id="path103"></path>
    <path d="m 923,892 0,-27 m 0,-815 0,27" id="path105"></path>
  </g>
  <g id="g107" style="font-size:24px;text-anchor:end;fill:#000000;stroke:none">
    <g transform="translate(127,905)" id="g109">
      <text id="text111">
        <tspan id="tspan113">-10</tspan>
      </text>
    </g>
    <g transform="translate(127,821)" id="g115">
      <text id="text117">
        <tspan id="tspan119">-8</tspan>
      </text>
    </g>
    <g transform="translate(127,737)" id="g121">
      <text id="text123">
        <tspan id="tspan125">-6</tspan>
      </text>
    </g>
    <g transform="translate(127,652)" id="g127">
      <text id="text129">
        <tspan id="tspan131">-4</tspan>
      </text>
    </g>
    <g transform="translate(127,568)" id="g133">
      <text id="text135">
        <tspan id="tspan137">-2</tspan>
      </text>
    </g>
    <g transform="translate(127,484)" id="g139">
      <text id="text141">
        <tspan id="tspan143">0</tspan>
      </text>
    </g>
    <g transform="translate(127,400)" id="g145">
      <text id="text147">
        <tspan id="tspan149">2</tspan>
      </text>
    </g>
    <g transform="translate(127,316)" id="g151">
      <text id="text153">
        <tspan id="tspan155">4</tspan>
      </text>
    </g>
    <g transform="translate(127,231)" id="g157">
      <text id="text159">
        <tspan id="tspan161">6</tspan>
      </text>
    </g>
    <g transform="translate(127,147)" id="g163">
      <text id="text165">
        <tspan id="tspan167">8</tspan>
      </text>
    </g>
    <g transform="translate(127,63)" id="g169">
      <text id="text171">
        <tspan id="tspan173">10</tspan>
      </text>
    </g>
  </g>
  <g id="g175" style="font-size:24px;text-anchor:middle;fill:#000000;stroke:none">
    <g transform="translate(152,959)" id="g177">
      <text id="text179">
        <tspan id="tspan181">-10</tspan>
      </text>
    </g>
    <g transform="translate(229,959)" id="g183">
      <text id="text185">
        <tspan id="tspan187">-8</tspan>
      </text>
    </g>
    <g transform="translate(306,959)" id="g189">
      <text id="text191">
        <tspan id="tspan193">-6</tspan>
      </text>
    </g>
    <g transform="translate(383,959)" id="g195">
      <text id="text197">
        <tspan id="tspan199">-4</tspan>
      </text>
    </g>
    <g transform="translate(460,959)" id="g201">
      <text id="text203">
        <tspan id="tspan205">-2</tspan>
      </text>
    </g>
    <g transform="translate(537,959)" id="g207">
      <text id="text209">
        <tspan id="tspan211">0</tspan>
      </text>
    </g>
    <g transform="translate(615,959)" id="g213">
      <text id="text215">
        <tspan id="tspan217">2</tspan>
      </text>
    </g>
    <g transform="translate(692,959)" id="g219">
      <text id="text221">
        <tspan id="tspan223">4</tspan>
      </text>
    </g>
    <g transform="translate(769,959)" id="g225">
      <text id="text227">
        <tspan id="tspan229">6</tspan>
      </text>
    </g>
    <g transform="translate(846,959)" id="g231">
      <text id="text233">
        <tspan id="tspan235">8</tspan>
      </text>
    </g>
    <g transform="translate(923,959)" id="g237">
      <text id="text239">
        <tspan id="tspan241">10</tspan>
      </text>
    </g>
  </g>
  <path d="m 152,471 771,0 M 537,892 537,50" id="path243" style="fill:none;stroke:#808080;stroke-width:2.5"></path>
  <g transform="matrix(38.55,0,0,-42.1,537.5,471)" id="g245" style="fill:none;stroke-width:0.1">
    <g clip-path="url(#clip)" id="g247">
      <path d="M -10,-10 10,10" id="path249" style="stroke:#ff0000"></path>
      <path d="m -12,276 c 8,-568 16,16 24,-552" id="path251" style="stroke:#ffa500"></path>
      <path d="m -5.25,-14.3693 c 0.125,2.3591 0.25,4.2773 0.375,5.8587 0.125,1.5813 0.25,2.8256 0.375,3.8208 0.125,0.9951 0.25,1.7409 0.375,2.3104 0.125,0.5695 0.25,0.9626 0.375,1.2387 0.125,0.276 0.25,0.435 0.375,0.5238 0.125,0.0889 0.25,0.1075 0.375,0.0919 0.25,-0.0312 0.5,-0.1913 0.75,-0.3071 0.125,-0.0579 0.25,-0.107 0.375,-0.1374 0.125,-0.0303 0.25,-0.042 0.375,-0.0313 0.125,0.0108 0.25,0.0438 0.375,0.0981 0.125,0.0542 0.25,0.1295 0.375,0.221 C -0.5,-0.4987 -0.25,-0.25 0,0 0.25,0.25 0.5,0.4987 0.75,0.6817 0.875,0.7732 1,0.8485 1.125,0.9027 1.25,0.957 1.375,0.99 1.5,1.0008 1.625,1.0115 1.75,0.9998 1.875,0.9695 2,0.9391 2.125,0.89 2.25,0.8321 2.5,0.7163 2.75,0.5562 3,0.525 3.125,0.5094 3.25,0.528 3.375,0.6169 3.5,0.7057 3.625,0.8647 3.75,1.1407 3.875,1.4168 4,1.8099 4.125,2.3794 4.25,2.9489 4.375,3.6947 4.5,4.6898 4.625,5.685 4.75,6.9293 4.875,8.5106 5,10.092 5.125,12.0102 5.25,14.3693" id="path253" style="stroke:#ffff00"></path>
      <path d="M -5.5312,10.9569 C -5.5,10.486 -5.4687,10.045 -5.4375,9.6307 -5.4062,9.2164 -5.375,8.8289 -5.3437,8.4651 -5.3125,8.1013 -5.2812,7.7612 -5.25,7.4421 -5.2187,7.1231 -5.1875,6.8251 -5.1562,6.5456 -5.125,6.2662 -5.0937,6.0053 -5.0625,5.7607 -5,5.2715 -4.9375,4.8474 -4.875,4.4729 -4.8125,4.0984 -4.75,3.7735 -4.6875,3.4857 -4.625,3.198 -4.5625,2.9475 -4.5,2.7242 -4.4375,2.501 -4.375,2.305 -4.3125,2.1287 -4.25,1.9524 -4.1875,1.7957 -4.125,1.6528 -4,1.3669 -3.875,1.1351 -3.75,0.9284 -3.5,0.5149 -3.25,0.1933 -3,-0.0911 c 0.25,-0.2843 0.5,-0.5222 0.75,-0.6831 0.125,-0.0804 0.25,-0.1412 0.375,-0.1791 0.125,-0.0379 0.25,-0.0529 0.375,-0.0441 0.125,0.0088 0.25,0.0413 0.375,0.0951 0.125,0.0539 0.25,0.1292 0.375,0.2207 C -0.5,-0.4987 -0.25,-0.25 0,0 0.25,0.25 0.5,0.4987 0.75,0.6816 0.875,0.7731 1,0.8484 1.125,0.9023 1.25,0.9561 1.375,0.9886 1.5,0.9974 1.625,1.0062 1.75,0.9912 1.875,0.9533 2,0.9154 2.125,0.8546 2.25,0.7742 2.5,0.6133 2.75,0.3754 3,0.0911 3.25,-0.1933 3.5,-0.5149 3.75,-0.9284 3.875,-1.1351 4,-1.3669 4.125,-1.6528 4.1875,-1.7957 4.25,-1.9524 4.3125,-2.1287 4.375,-2.305 4.4375,-2.501 4.5,-2.7242 4.5625,-2.9475 4.625,-3.198 4.6875,-3.4857 4.75,-3.7735 4.8125,-4.0984 4.875,-4.4729 4.9375,-4.8474 5,-5.2715 5.0625,-5.7607 5.0938,-6.0053 5.125,-6.2662 5.1563,-6.5456 5.1875,-6.8251 5.2188,-7.1231 5.25,-7.4421 5.2813,-7.7612 5.3125,-8.1013 5.3438,-8.4651 5.375,-8.8289 5.4063,-9.2164 5.4375,-9.6307 5.4688,-10.045 5.5,-10.486 5.5313,-10.9569" id="path255" style="stroke:#008000"></path>
      <path d="m -6.1875,-10.0238 c 0.0313,0.5711 0.0625,1.1033 0.0938,1.601 0.0312,0.4978 0.0625,0.9612 0.0937,1.3942 0.0313,0.4331 0.0625,0.8358 0.0938,1.2117 0.0312,0.3759 0.0625,0.7251 0.0937,1.0507 0.0313,0.3257 0.0625,0.6277 0.0938,0.9091 0.0312,0.2813 0.0625,0.5419 0.0937,0.7843 0.0625,0.4848 0.125,0.8969 0.1875,1.2529 0.0625,0.356 0.125,0.6558 0.1875,0.9123 0.0625,0.2566 0.125,0.4697 0.1875,0.6493 0.0625,0.1796 0.125,0.3256 0.1875,0.4456 0.0625,0.12 0.125,0.2139 0.1875,0.2875 0.0625,0.0736 0.125,0.1268 0.1875,0.1642 0.125,0.0748 0.25,0.0868 0.375,0.0608 0.125,-0.0259 0.25,-0.09 0.375,-0.1755 0.25,-0.171 0.5,-0.4259 0.75,-0.6696 0.25,-0.2437 0.5,-0.4761 0.75,-0.633 0.125,-0.0784 0.25,-0.1384 0.375,-0.1758 0.125,-0.0374 0.25,-0.0522 0.375,-0.0434 0.125,0.0088 0.25,0.0413 0.375,0.0952 0.125,0.0539 0.25,0.1292 0.375,0.2207 C -0.5,-0.4987 -0.25,-0.25 0,0 0.25,0.25 0.5,0.4987 0.75,0.6816 0.875,0.7731 1,0.8484 1.125,0.9023 1.25,0.9562 1.375,0.9887 1.5,0.9975 1.625,1.0063 1.75,0.9915 1.875,0.9541 2,0.9167 2.125,0.8567 2.25,0.7783 2.5,0.6214 2.75,0.389 3,0.1453 3.25,-0.0984 3.5,-0.3533 3.75,-0.5243 3.875,-0.6098 4,-0.6739 4.125,-0.6998 4.25,-0.7258 4.375,-0.7138 4.5,-0.639 4.5625,-0.6016 4.625,-0.5484 4.6875,-0.4748 4.75,-0.4012 4.8125,-0.3073 4.875,-0.1873 4.9375,-0.0673 5,0.0787 5.0625,0.2583 5.125,0.4379 5.1875,0.651 5.25,0.9076 5.3125,1.1641 5.375,1.4639 5.4375,1.8199 5.5,2.1759 5.5625,2.588 5.625,3.0728 5.6563,3.3152 5.6875,3.5758 5.7188,3.8571 5.75,4.1385 5.7813,4.4405 5.8125,4.7662 5.8438,5.0918 5.875,5.441 5.9063,5.8169 5.9375,6.1928 5.9688,6.5955 6,7.0286 6.0313,7.4616 6.0625,7.925 6.0938,8.4228 6.125,8.9205 6.1563,9.4527 6.1875,10.0238" id="path257" style="stroke:#0000ff"></path>
      <path d="M -6.9375,10.5557 C -6.9062,9.9471 -6.875,9.3886 -6.8437,8.8737 -6.8125,8.3588 -6.7812,7.8875 -6.75,7.4538 -6.7187,7.0201 -6.6875,6.624 -6.6562,6.2605 -6.625,5.8969 -6.5937,5.5659 -6.5625,5.2627 -6.5312,4.9596 -6.5,4.6843 -6.4687,4.433 -6.4375,4.1817 -6.4062,3.9543 -6.375,3.7473 -6.3437,3.5404 -6.3125,3.3538 -6.2812,3.1846 -6.25,3.0153 -6.2187,2.8635 -6.1875,2.7262 -6.125,2.4518 -6.0625,2.2356 -6,2.0603 -5.9375,1.8849 -5.875,1.7504 -5.8125,1.6435 -5.75,1.5367 -5.6875,1.4575 -5.625,1.396 -5.5,1.2732 -5.375,1.2195 -5.25,1.1846 -5,1.1148 -4.75,1.1079 -4.5,1.0229 -4.25,0.9379 -4,0.7848 -3.75,0.5759 -3.5,0.367 -3.25,0.1069 -3,-0.1409 c 0.25,-0.2477 0.5,-0.4801 0.75,-0.6372 0.125,-0.0785 0.25,-0.1385 0.375,-0.176 0.125,-0.0374 0.25,-0.0522 0.375,-0.0434 0.125,0.0088 0.25,0.0413 0.375,0.0952 0.125,0.0539 0.25,0.1292 0.375,0.2207 C -0.5,-0.4987 -0.25,-0.25 0,0 0.25,0.25 0.5,0.4987 0.75,0.6816 0.875,0.7731 1,0.8484 1.125,0.9023 1.25,0.9562 1.375,0.9887 1.5,0.9975 1.625,1.0063 1.75,0.9915 1.875,0.9541 2,0.9166 2.125,0.8566 2.25,0.7781 2.5,0.621 2.75,0.3886 3,0.1409 3.25,-0.1069 3.5,-0.367 3.75,-0.5759 4,-0.7848 4.25,-0.9379 4.5,-1.0229 4.75,-1.1079 5,-1.1148 5.25,-1.1846 5.375,-1.2195 5.5,-1.2732 5.625,-1.396 5.6875,-1.4575 5.75,-1.5367 5.8125,-1.6435 5.875,-1.7504 5.9375,-1.8849 6,-2.0603 6.0625,-2.2356 6.125,-2.4518 6.1875,-2.7262 6.2188,-2.8635 6.25,-3.0153 6.2813,-3.1846 6.3125,-3.3538 6.3438,-3.5404 6.375,-3.7473 6.4063,-3.9543 6.4375,-4.1817 6.4688,-4.433 6.5,-4.6843 6.5313,-4.9596 6.5625,-5.2627 6.5938,-5.5659 6.625,-5.8969 6.6563,-6.2605 6.6875,-6.624 6.7188,-7.0201 6.75,-7.4538 c 0.0313,-0.4337 0.0625,-0.905 0.0938,-1.4199 0.0312,-0.5149 0.0625,-1.0734 0.0937,-1.682" id="path259" style="stroke:#4b0082"></path>
      <path d="m -7.5937,-11.0545 c 0.0312,0.6153 0.0625,1.1811 0.0937,1.7048 0.0313,0.5238 0.0625,1.0054 0.0938,1.4512 0.0312,0.4458 0.0625,0.8558 0.0937,1.2354 0.0313,0.3796 0.0625,0.7288 0.0938,1.0523 0.0312,0.3235 0.0625,0.6213 0.0937,0.8973 0.0313,0.276 0.0625,0.5303 0.0938,0.7663 0.0312,0.236 0.0625,0.4536 0.0937,0.6558 0.0625,0.4044 0.125,0.7475 0.1875,1.0475 0.0625,0.2999 0.125,0.5565 0.1875,0.7827 0.0625,0.2262 0.125,0.4218 0.1875,0.5958 0.125,0.3479 0.25,0.6109 0.375,0.8282 0.125,0.2174 0.25,0.3879 0.375,0.5268 0.125,0.139 0.25,0.2458 0.375,0.3254 0.125,0.0795 0.25,0.1313 0.375,0.1571 0.125,0.0259 0.25,0.0255 0.375,0.001 C -4.375,0.9486 -4.25,0.8999 -4.125,0.8312 -4,0.7624 -3.875,0.6737 -3.75,0.5713 -3.5,0.3664 -3.25,0.1064 -3,-0.1411 c 0.25,-0.2475 0.5,-0.4799 0.75,-0.637 0.125,-0.0785 0.25,-0.1385 0.375,-0.176 0.125,-0.0374 0.25,-0.0522 0.375,-0.0434 0.125,0.0088 0.25,0.0413 0.375,0.0952 0.125,0.0539 0.25,0.1292 0.375,0.2207 C -0.5,-0.4987 -0.25,-0.25 0,0 0.25,0.25 0.5,0.4987 0.75,0.6816 0.875,0.7731 1,0.8484 1.125,0.9023 1.25,0.9562 1.375,0.9887 1.5,0.9975 1.625,1.0063 1.75,0.9915 1.875,0.9541 2,0.9166 2.125,0.8566 2.25,0.7781 2.5,0.621 2.75,0.3886 3,0.1411 3.25,-0.1064 3.5,-0.3664 3.75,-0.5713 3.875,-0.6737 4,-0.7624 4.125,-0.8312 4.25,-0.8999 4.375,-0.9486 4.5,-0.9731 4.625,-0.9976 4.75,-0.998 4.875,-0.9721 5,-0.9463 5.125,-0.8945 5.25,-0.815 5.375,-0.7354 5.5,-0.6286 5.625,-0.4896 5.75,-0.3507 5.875,-0.1802 6,0.0372 6.125,0.2545 6.25,0.5175 6.375,0.8654 6.4375,1.0394 6.5,1.235 6.5625,1.4612 6.625,1.6874 6.6875,1.944 6.75,2.2439 6.8125,2.5439 6.875,2.887 6.9375,3.2914 6.9688,3.4936 7,3.7112 7.0313,3.9472 7.0625,4.1832 7.0938,4.4375 7.125,4.7135 7.1563,4.9895 7.1875,5.2873 7.2188,5.6108 7.25,5.9343 7.2813,6.2835 7.3125,6.6631 7.3438,7.0427 7.375,7.4527 7.4063,7.8985 7.4375,8.3443 7.4688,8.8259 7.5,9.3497 c 0.0313,0.5237 0.0625,1.0895 0.0938,1.7048" id="path261" style="stroke:#ee82ee"></path>
      <path d="m -10.5,0.8797 c 0.25,-0.1189 0.5,-0.3233 0.75,-0.5602 0.25,-0.2369 0.5,-0.5038 0.75,-0.7316 0.25,-0.2278 0.5,-0.4141 0.75,-0.5105 0.125,-0.0482 0.25,-0.0746 0.375,-0.0772 0.125,-0.0026 0.25,0.0185 0.375,0.0618 0.125,0.0433 0.25,0.1089 0.375,0.1921 0.125,0.0833 0.25,0.1842 0.375,0.2959 0.25,0.2232 0.5,0.4894 0.75,0.7294 0.25,0.2401 0.5,0.4515 0.75,0.5795 0.125,0.064 0.25,0.1077 0.375,0.1279 C -4.75,1.007 -4.625,1.0039 -4.5,0.9775 -4.375,0.9512 -4.25,0.9017 -4.125,0.8324 -4,0.7631 -3.875,0.6741 -3.75,0.5716 -3.5,0.3664 -3.25,0.1064 -3,-0.1411 c 0.25,-0.2475 0.5,-0.4799 0.75,-0.637 0.125,-0.0785 0.25,-0.1385 0.375,-0.176 0.125,-0.0374 0.25,-0.0522 0.375,-0.0434 0.125,0.0088 0.25,0.0413 0.375,0.0952 0.125,0.0539 0.25,0.1292 0.375,0.2207 C -0.5,-0.4987 -0.25,-0.25 0,0 0.25,0.25 0.5,0.4987 0.75,0.6816 0.875,0.7731 1,0.8484 1.125,0.9023 1.25,0.9562 1.375,0.9887 1.5,0.9975 1.625,1.0063 1.75,0.9915 1.875,0.9541 2,0.9166 2.125,0.8566 2.25,0.7781 2.5,0.621 2.75,0.3886 3,0.1411 3.25,-0.1064 3.5,-0.3664 3.75,-0.5716 3.875,-0.6741 4,-0.7631 4.125,-0.8324 4.25,-0.9017 4.375,-0.9512 4.5,-0.9775 4.625,-1.0039 4.75,-1.007 4.875,-0.9868 5,-0.9666 5.125,-0.9229 5.25,-0.8589 5.5,-0.7309 5.75,-0.5195 6,-0.2794 6.25,-0.0394 6.5,0.2268 6.75,0.45 6.875,0.5617 7,0.6626 7.125,0.7459 7.25,0.8291 7.375,0.8947 7.5,0.938 7.625,0.9813 7.75,1.0024 7.875,0.9998 8,0.9972 8.125,0.9708 8.25,0.9226 8.5,0.8262 8.75,0.6399 9,0.4121 9.25,0.1843 9.5,-0.0826 9.75,-0.3195 10,-0.5564 10.25,-0.7608 10.5,-0.8797" id="path263" style="stroke:#000000"></path>
    </g>
  </g>
</svg>
