<!-- Created with Inkscape (http://www.inkscape.org/) -->
<svg xmlns:dc="http://purl.org/dc/elements/1.1/" xmlns:cc="http://creativecommons.org/ns#" xmlns:rdf="http://www.w3.org/1999/02/22-rdf-syntax-ns#" xmlns:svg="http://www.w3.org/2000/svg" xmlns="http://www.w3.org/2000/svg" xmlns:inkscape="http://www.inkscape.org/namespaces/inkscape" version="1.1" width="586.19147" height="473.55121" viewBox="0 0 468.95317 378.84097" id="svg2">
  <metadata id="metadata243"></metadata>
  <defs id="defs4">
    <clipPath id="clip1">
      <path d="m 77.761719,51.839844 401.320311,0 0,323.558596 -401.320311,0 z m 0,0" id="path51"></path>
    </clipPath>
  </defs>
  <g transform="translate(7.9999962,8.0000001)" id="g3708">
    <g transform="translate(-25.499939,-51.464844)" clip-path="url(#clip1)" id="g57">
      <path d="m 97.445312,63.785156 c 0,6.480469 -9.71875,6.480469 -9.71875,0 0,-6.476562 9.71875,-6.476562 9.71875,0" id="path59" style="fill:#453a8a;fill-opacity:1;fill-rule:nonzero;stroke:none"></path>
      <path d="m 112.89063,254.41797 c 0,6.48047 -9.71875,6.48047 -9.71875,0 0,-6.48047 9.71875,-6.48047 9.71875,0" id="path61" style="fill:#453a8a;fill-opacity:1;fill-rule:nonzero;stroke:none"></path>
      <path d="m 128.33594,301.01562 c 0,6.48047 -9.71875,6.48047 -9.71875,0 0,-6.47656 9.71875,-6.47656 9.71875,0" id="path63" style="fill:#453a8a;fill-opacity:1;fill-rule:nonzero;stroke:none"></path>
      <path d="m 143.78125,321.14062 c 0,6.48047 -9.72266,6.48047 -9.72266,0 0,-6.48046 9.72266,-6.48046 9.72266,0" id="path65" style="fill:#453a8a;fill-opacity:1;fill-rule:nonzero;stroke:none"></path>
      <path d="m 159.22266,332.19531 c 0,6.48047 -9.71875,6.48047 -9.71875,0 0,-6.48047 9.71875,-6.48047 9.71875,0" id="path67" style="fill:#453a8a;fill-opacity:1;fill-rule:nonzero;stroke:none"></path>
      <path d="m 174.66797,339.14453 c 0,6.48047 -9.71875,6.48047 -9.71875,0 0,-6.48047 9.71875,-6.48047 9.71875,0" id="path69" style="fill:#453a8a;fill-opacity:1;fill-rule:nonzero;stroke:none"></path>
      <path d="m 190.11328,343.89844 c 0,6.48047 -9.71875,6.48047 -9.71875,0 0,-6.48047 9.71875,-6.48047 9.71875,0" id="path71" style="fill:#453a8a;fill-opacity:1;fill-rule:nonzero;stroke:none"></path>
      <path d="m 205.55859,347.35156 c 0,6.48047 -9.72265,6.48047 -9.72265,0 0,-6.48047 9.72265,-6.48047 9.72265,0" id="path73" style="fill:#453a8a;fill-opacity:1;fill-rule:nonzero;stroke:none"></path>
      <path d="m 221.00391,349.96875 c 0,6.48047 -9.72266,6.48047 -9.72266,0 0,-6.48047 9.72266,-6.48047 9.72266,0" id="path75" style="fill:#453a8a;fill-opacity:1;fill-rule:nonzero;stroke:none"></path>
      <path d="m 236.44531,352.02344 c 0,6.48047 -9.71875,6.48047 -9.71875,0 0,-6.48047 9.71875,-6.48047 9.71875,0" id="path77" style="fill:#453a8a;fill-opacity:1;fill-rule:nonzero;stroke:none"></path>
      <path d="m 251.89062,353.67187 c 0,6.48047 -9.71875,6.48047 -9.71875,0 0,-6.48046 9.71875,-6.48046 9.71875,0" id="path79" style="fill:#453a8a;fill-opacity:1;fill-rule:nonzero;stroke:none"></path>
      <path d="m 267.33594,355.03125 c 0,6.47656 -9.71875,6.47656 -9.71875,0 0,-6.48047 9.71875,-6.48047 9.71875,0" id="path81" style="fill:#453a8a;fill-opacity:1;fill-rule:nonzero;stroke:none"></path>
      <path d="m 282.78125,356.16406 c 0,6.48047 -9.72266,6.48047 -9.72266,0 0,-6.48047 9.72266,-6.48047 9.72266,0" id="path83" style="fill:#453a8a;fill-opacity:1;fill-rule:nonzero;stroke:none"></path>
      <path d="m 298.22266,357.125 c 0,6.48047 -9.71875,6.48047 -9.71875,0 0,-6.48047 9.71875,-6.48047 9.71875,0" id="path85" style="fill:#453a8a;fill-opacity:1;fill-rule:nonzero;stroke:none"></path>
      <path d="m 313.66797,357.95312 c 0,6.48047 -9.71875,6.48047 -9.71875,0 0,-6.48046 9.71875,-6.48046 9.71875,0" id="path87" style="fill:#453a8a;fill-opacity:1;fill-rule:nonzero;stroke:none"></path>
      <path d="m 329.11328,358.67187 c 0,6.47657 -9.71875,6.47657 -9.71875,0 0,-6.48046 9.71875,-6.48046 9.71875,0" id="path89" style="fill:#453a8a;fill-opacity:1;fill-rule:nonzero;stroke:none"></path>
      <path d="m 344.55859,359.30078 c 0,6.47656 -9.72265,6.47656 -9.72265,0 0,-6.48047 9.72265,-6.48047 9.72265,0" id="path91" style="fill:#453a8a;fill-opacity:1;fill-rule:nonzero;stroke:none"></path>
      <path d="m 360.00391,359.85547 c 0,6.48047 -9.72266,6.48047 -9.72266,0 0,-6.48047 9.72266,-6.48047 9.72266,0" id="path93" style="fill:#453a8a;fill-opacity:1;fill-rule:nonzero;stroke:none"></path>
      <path d="m 375.44531,360.34766 c 0,6.48046 -9.71875,6.48046 -9.71875,0 0,-6.48047 9.71875,-6.48047 9.71875,0" id="path95" style="fill:#453a8a;fill-opacity:1;fill-rule:nonzero;stroke:none"></path>
      <path d="m 390.89062,360.79297 c 0,6.47656 -9.71875,6.47656 -9.71875,0 0,-6.48047 9.71875,-6.48047 9.71875,0" id="path97" style="fill:#453a8a;fill-opacity:1;fill-rule:nonzero;stroke:none"></path>
      <path d="m 406.33594,361.19141 c 0,6.47656 -9.71875,6.47656 -9.71875,0 0,-6.48047 9.71875,-6.48047 9.71875,0" id="path99" style="fill:#453a8a;fill-opacity:1;fill-rule:nonzero;stroke:none"></path>
      <path d="m 421.78125,361.55078 c 0,6.48047 -9.72266,6.48047 -9.72266,0 0,-6.48047 9.72266,-6.48047 9.72266,0" id="path101" style="fill:#453a8a;fill-opacity:1;fill-rule:nonzero;stroke:none"></path>
      <path d="m 437.22266,361.87891 c 0,6.48046 -9.71875,6.48046 -9.71875,0 0,-6.48047 9.71875,-6.48047 9.71875,0" id="path103" style="fill:#453a8a;fill-opacity:1;fill-rule:nonzero;stroke:none"></path>
      <path d="m 452.66797,362.17969 c 0,6.48047 -9.71875,6.48047 -9.71875,0 0,-6.48047 9.71875,-6.48047 9.71875,0" id="path105" style="fill:#453a8a;fill-opacity:1;fill-rule:nonzero;stroke:none"></path>
      <path d="m 468.11328,362.45312 c 0,6.48047 -9.71875,6.48047 -9.71875,0 0,-6.48046 9.71875,-6.48046 9.71875,0" id="path107" style="fill:#453a8a;fill-opacity:1;fill-rule:nonzero;stroke:none"></path>
    </g>
    <path d="m 128.86334,322.9336 308.89063,0" id="path109" style="fill:none;stroke:#000000;stroke-width:0.75;stroke-linecap:round;stroke-linejoin:round;stroke-miterlimit:10;stroke-opacity:1"></path>
    <path d="m 128.86334,322.9336 0,12.96093" id="path111" style="fill:none;stroke:#000000;stroke-width:0.75;stroke-linecap:round;stroke-linejoin:round;stroke-miterlimit:10;stroke-opacity:1"></path>
    <path d="m 206.086,322.9336 0,12.96093" id="path113" style="fill:none;stroke:#000000;stroke-width:0.75;stroke-linecap:round;stroke-linejoin:round;stroke-miterlimit:10;stroke-opacity:1"></path>
    <path d="m 283.30865,322.9336 0,12.96093" id="path115" style="fill:none;stroke:#000000;stroke-width:0.75;stroke-linecap:round;stroke-linejoin:round;stroke-miterlimit:10;stroke-opacity:1"></path>
    <path d="m 360.53131,322.9336 0,12.96093" id="path117" style="fill:none;stroke:#000000;stroke-width:0.75;stroke-linecap:round;stroke-linejoin:round;stroke-miterlimit:10;stroke-opacity:1"></path>
    <path d="m 437.75397,322.9336 0,12.96093" id="path119" style="fill:none;stroke:#000000;stroke-width:0.75;stroke-linecap:round;stroke-linejoin:round;stroke-miterlimit:10;stroke-opacity:1"></path>
    <path d="m 52.26178,317.33203 0,-305.011718" id="path149" style="fill:none;stroke:#000000;stroke-width:0.75;stroke-linecap:round;stroke-linejoin:round;stroke-miterlimit:10;stroke-opacity:1"></path>
    <path d="m 52.26178,317.33203 -12.960938,0" id="path151" style="fill:none;stroke:#000000;stroke-width:0.75;stroke-linecap:round;stroke-linejoin:round;stroke-miterlimit:10;stroke-opacity:1"></path>
    <path d="m 52.26178,256.33203 -12.960938,0" id="path153" style="fill:none;stroke:#000000;stroke-width:0.75;stroke-linecap:round;stroke-linejoin:round;stroke-miterlimit:10;stroke-opacity:1"></path>
    <path d="m 52.26178,195.32813 -12.960938,0" id="path155" style="fill:none;stroke:#000000;stroke-width:0.75;stroke-linecap:round;stroke-linejoin:round;stroke-miterlimit:10;stroke-opacity:1"></path>
    <path d="m 52.26178,134.32813 -12.960938,0" id="path157" style="fill:none;stroke:#000000;stroke-width:0.75;stroke-linecap:round;stroke-linejoin:round;stroke-miterlimit:10;stroke-opacity:1"></path>
    <path d="m 52.26178,73.324216 -12.960938,0" id="path159" style="fill:none;stroke:#000000;stroke-width:0.75;stroke-linecap:round;stroke-linejoin:round;stroke-miterlimit:10;stroke-opacity:1"></path>
    <path d="m 52.26178,12.320312 -12.960938,0" id="path161" style="fill:none;stroke:#000000;stroke-width:0.75;stroke-linecap:round;stroke-linejoin:round;stroke-miterlimit:10;stroke-opacity:1"></path>
    <path d="m 52.26178,322.9336 400.3164,0 0,-322.5586 -400.3164,0 0,322.5586" id="path211" style="fill:none;stroke:#000000;stroke-width:0.75;stroke-linecap:round;stroke-linejoin:round;stroke-miterlimit:10;stroke-opacity:1"></path>
    <text x="122.79425" y="362.06754" id="text3220" xml:space="preserve" style="font-size:24px;font-style:normal;font-variant:normal;font-weight:normal;font-stretch:normal;line-height:125%;letter-spacing:0px;word-spacing:0px;fill:#000000;fill-opacity:1;stroke:none;font-family:Charis SIL;-inkscape-font-specification:Charis SIL">
      <tspan x="122.79425" y="362.06754" id="tspan3222">5</tspan>
    </text>
    <text x="191.11383" y="362.45425" id="text3220-8" xml:space="preserve" style="font-size:24px;font-style:normal;font-variant:normal;font-weight:normal;font-stretch:normal;line-height:125%;letter-spacing:0px;word-spacing:0px;fill:#000000;fill-opacity:1;stroke:none;font-family:Charis SIL;-inkscape-font-specification:Charis SIL">
      <tspan x="191.11383" y="362.45425" id="tspan3222-3">10</tspan>
    </text>
    <text x="268.96811" y="362.45425" id="text3337" xml:space="preserve" style="font-size:24px;font-style:normal;font-variant:normal;font-weight:normal;font-stretch:normal;line-height:125%;letter-spacing:0px;word-spacing:0px;fill:#000000;fill-opacity:1;stroke:none;font-family:Charis SIL;-inkscape-font-specification:Charis SIL">
      <tspan x="268.96811" y="362.45425" id="tspan3339" style="font-size:24px;font-style:normal;font-variant:normal;font-weight:normal;font-stretch:normal;font-family:Charis SIL;-inkscape-font-specification:Charis SIL">15</tspan>
    </text>
    <text x="347.87042" y="362.45425" id="text3345" xml:space="preserve" style="font-size:24px;font-style:normal;font-variant:normal;font-weight:normal;font-stretch:normal;line-height:125%;letter-spacing:0px;word-spacing:0px;fill:#000000;fill-opacity:1;stroke:none;font-family:Charis SIL;-inkscape-font-specification:Charis SIL">
      <tspan x="347.87042" y="362.45425" id="tspan3347">20</tspan>
    </text>
    <text x="425.26263" y="362.45425" id="text3349" xml:space="preserve" style="font-size:24px;font-style:normal;font-variant:normal;font-weight:normal;font-stretch:normal;line-height:125%;letter-spacing:0px;word-spacing:0px;fill:#000000;fill-opacity:1;stroke:none;font-family:Charis SIL;-inkscape-font-specification:Charis SIL">
      <tspan x="425.26263" y="362.45425" id="tspan3351">25</tspan>
    </text>
    <text x="-0.96093756" y="324.17731" id="text3353" xml:space="preserve" style="font-size:24px;font-style:normal;font-variant:normal;font-weight:normal;font-stretch:normal;line-height:125%;letter-spacing:0px;word-spacing:0px;fill:#000000;fill-opacity:1;stroke:none;font-family:Charis SIL;-inkscape-font-specification:Charis SIL">
      <tspan x="-0.96093756" y="324.17731" id="tspan3355">0.0</tspan>
    </text>
    <text x="-0.79687506" y="263.01859" id="text3357" xml:space="preserve" style="font-size:24px;font-style:normal;font-variant:normal;font-weight:normal;font-stretch:normal;line-height:125%;letter-spacing:0px;word-spacing:0px;fill:#000000;fill-opacity:1;stroke:none;font-family:Charis SIL;-inkscape-font-specification:Charis SIL">
      <tspan x="-0.79687506" y="263.01859" id="tspan3361">0.2</tspan>
    </text>
    <text x="-0.96093756" y="202.99237" id="text3365" xml:space="preserve" style="font-size:24px;font-style:normal;font-variant:normal;font-weight:normal;font-stretch:normal;line-height:125%;letter-spacing:0px;word-spacing:0px;fill:#000000;fill-opacity:1;stroke:none;font-family:Charis SIL;-inkscape-font-specification:Charis SIL">
      <tspan x="-0.96093756" y="202.99237" id="tspan3367">0.4</tspan>
    </text>
    <text x="-0.96093756" y="141.83362" id="text3369" xml:space="preserve" style="font-size:24px;font-style:normal;font-variant:normal;font-weight:normal;font-stretch:normal;line-height:125%;letter-spacing:0px;word-spacing:0px;fill:#000000;fill-opacity:1;stroke:none;font-family:Charis SIL;-inkscape-font-specification:Charis SIL">
      <tspan x="-0.96093756" y="141.83362" id="tspan3371">0.6</tspan>
    </text>
    <text x="-0.93750006" y="81.807449" id="text3373" xml:space="preserve" style="font-size:24px;font-style:normal;font-variant:normal;font-weight:normal;font-stretch:normal;line-height:125%;letter-spacing:0px;word-spacing:0px;fill:#000000;fill-opacity:1;stroke:none;font-family:Charis SIL;-inkscape-font-specification:Charis SIL">
      <tspan x="-0.93750006" y="81.807449" id="tspan3375">0.8</tspan>
    </text>
    <text x="-0.96093756" y="20.271187" id="text3377" xml:space="preserve" style="font-size:24px;font-style:normal;font-variant:normal;font-weight:normal;font-stretch:normal;line-height:125%;letter-spacing:0px;word-spacing:0px;fill:#000000;fill-opacity:1;stroke:none;font-family:Charis SIL;-inkscape-font-specification:Charis SIL">
      <tspan x="-0.96093756" y="20.271187" id="tspan3379">1.0</tspan>
    </text>
    <g id="g3696">
      <text x="287.89838" y="220.8233" id="text3381" xml:space="preserve" style="font-size:24px;font-style:normal;font-variant:normal;font-weight:normal;font-stretch:normal;line-height:125%;letter-spacing:0px;word-spacing:0px;fill:#000000;fill-opacity:1;stroke:none;font-family:Charis SIL;-inkscape-font-specification:Charis SIL">
        <tspan x="287.89838" y="220.8233" id="tspan3383"><tspan id="tspan3385" style="font-style:italic">n</tspan> + 1</tspan>
      </text>
      <text x="301.77972" y="254.45889" id="text3387" xml:space="preserve" style="font-size:24px;font-style:normal;font-variant:normal;font-weight:normal;font-stretch:normal;line-height:125%;letter-spacing:0px;word-spacing:0px;fill:#000000;fill-opacity:1;stroke:none;font-family:Charis SIL;-inkscape-font-specification:Charis SIL">
        <tspan x="301.77972" y="254.45889" id="tspan3389">2<tspan id="tspan3395" style="font-style:italic">n</tspan><tspan id="tspan3391" style="font-size:15.60021973px;baseline-shift:super"></tspan></tspan>
      </text>
      <path d="m 286.68484,229.66316 64.17894,0" id="path3393" style="fill:none;stroke:#000000;stroke-width:0.80000001px;stroke-linecap:butt;stroke-linejoin:miter;stroke-opacity:1"></path>
      <text x="329.94919" y="245.38333" id="text3692" xml:space="preserve" style="font-size:24px;font-style:normal;font-variant:normal;font-weight:normal;font-stretch:normal;line-height:125%;letter-spacing:0px;word-spacing:0px;fill:#000000;fill-opacity:1;stroke:none;font-family:Charis SIL;-inkscape-font-specification:Charis SIL">
        <tspan x="329.94919" y="245.38333" id="tspan3694" style="font-size:16px">2</tspan>
      </text>
    </g>
  </g>
</svg>
