<!-- Created with Inkscape (http://www.inkscape.org/) -->
<svg xmlns:dc="http://purl.org/dc/elements/1.1/" xmlns:cc="http://creativecommons.org/ns#" xmlns:rdf="http://www.w3.org/1999/02/22-rdf-syntax-ns#" xmlns:svg="http://www.w3.org/2000/svg" xmlns="http://www.w3.org/2000/svg" xmlns:xlink="http://www.w3.org/1999/xlink" xmlns:inkscape="http://www.inkscape.org/namespaces/inkscape" version="1.1" width="420" height="420" viewBox="0 0 140 140" id="svg2">
  <metadata id="metadata28"></metadata>
  <defs id="defs10">
    <path d="M 0.2,0 0,0.05 0.05,0 0,-0.05 0.2,0 z" id="ahd"></path>
    <g id="axes">
      <path d="m -2.25,0 4.5,0 M 0,-1.25 0,3" id="path14" style="fill:none;stroke:#000000;stroke-width:0.017"></path>
      <use transform="translate(2.15,0)" id="use16" style="fill:#000000;stroke:none" x="0" y="0" width="140" height="140" xlink:href="#ahd"></use>
      <use transform="matrix(0,1,-1,0,0,2.85)" id="use18" style="fill:#000000;stroke:none" x="0" y="0" width="140" height="140" xlink:href="#ahd"></use>
    </g>
    <g id="fInt">
      <path d="m -2,0 0,2.228 c 0.2031706,0.070703 0.3800319,0.1647936 0.5377053,0.2486753 0.2052992,0.1092184 0.3784821,0.2013639 0.53394671,0.2013639 C -0.48813815,2.6780392 -0.29231323,1.8752233 0,0.644 l -0.0154096,0.0649403 C 0.04230807,0.46563615 0.09974535,0.22351492 0.15866966,0 M 1.589444,0 C 1.7304102,0.27183388 1.8753361,0.57121396 2,0.836 L 2,0 1.589444,0 z" id="path21" style="fill:#0081cd;stroke:none"></path>
      <path d="m 0.15866966,0 c 0.17763497,-0.6738147 0.3469261,-1.0920858 0.57752424,-1.0920858 0.20975357,0 0.4639936,0.34145858 0.8532501,1.0920858 L 0.15866966,0 z" id="path23" style="fill:#fec200;stroke:none"></path>
    </g>
    <path d="m -2.25,2.15797 c 0.08768,0.01848 0.17089,0.0425 0.25,0.07003 0.2031706,0.070703 0.3800319,0.1647936 0.5377053,0.2486753 0.2052992,0.1092184 0.3784821,0.2013639 0.53394671,0.2013639 C -0.48813815,2.6780392 -0.29231323,1.8752233 0,0.644 l -0.0154096,0.0649403 C 0.04230807,0.46563615 0.09974535,0.22351492 0.15866966,0 0.33630463,-0.6738147 0.50559576,-1.0920858 0.7361939,-1.0920858 0.94594747,-1.0920858 1.2001875,-0.75062722 1.589444,0 1.7304102,0.27183388 1.8753361,0.57121396 2,0.836 2.0656,0.975329 2.15036,1.1577 2.25,1.37778" id="f" style="fill:none;stroke:#000000;stroke-width:0.05"></path>
  </defs>
  <use transform="matrix(28,0,0,-28,68,97)" id="use30" x="0" y="0" width="140" height="140" xlink:href="#axes"></use>
  <use transform="matrix(28,0,0,-28,68,97)" id="use32" x="0" y="0" width="140" height="140" xlink:href="#fInt"></use>
  <path d="M 12,34.616 12,97 l 112,0 0,-23.408" id="path34" style="fill:none;stroke:#000000;stroke-width:0.56"></path>
  <use transform="matrix(28,0,0,-28,68,97)" id="use36" x="0" y="0" width="140" height="140" xlink:href="#f"></use>
  <text x="42" y="63" id="text42" style="font-size:20px;font-style:normal;font-variant:normal;font-weight:normal;font-stretch:normal;text-align:center;line-height:125%;writing-mode:lr-tb;text-anchor:middle;fill:#ffffff;stroke:#ffffff;stroke-width:0;font-family:FreeSerif">+</text>
  <text x="90" y="117" id="text46" style="font-size:20px;font-style:normal;font-variant:normal;font-weight:normal;font-stretch:normal;text-align:center;line-height:125%;writing-mode:lr-tb;text-anchor:middle;fill:#000000;stroke:#000000;stroke-width:0;font-family:FreeSerif"></text>
  <text x="44.283207" y="16.699402" id="text50" style="font-size:13.33333302px;font-style:italic;font-variant:normal;font-weight:normal;font-stretch:normal;text-align:center;line-height:125%;writing-mode:lr-tb;text-anchor:middle;fill:#000000;stroke:#000000;stroke-width:0;font-family:FreeSerif">f(x)</text>
  <path d="m 12,97 0,3.36" id="path56" style="fill:none;stroke:#000000;stroke-width:0.56"></path>
  <text x="12" y="109.32681" id="text60" style="font-size:10px;font-style:normal;font-variant:normal;font-weight:normal;font-stretch:normal;text-align:center;line-height:125%;writing-mode:lr-tb;text-anchor:middle;fill:#000000;stroke:#000000;stroke-width:0;font-family:FreeSerif">a</text>
  <path d="m 124,97 0,3.36" id="path64" style="fill:none;stroke:#000000;stroke-width:0.56"></path>
  <text x="124.5668" y="109.32681" id="text68" style="font-size:10px;font-style:normal;font-variant:normal;font-weight:normal;font-stretch:normal;text-align:center;line-height:125%;writing-mode:lr-tb;text-anchor:middle;fill:#000000;stroke:#000000;stroke-width:0;font-family:FreeSerif;-inkscape-font-specification:FreeSerif">b</text>
  <text x="132.98381" y="93.076599" id="text74" style="font-size:13.33333302px;font-style:italic;font-variant:normal;font-weight:normal;font-stretch:normal;text-align:center;line-height:125%;writing-mode:lr-tb;text-anchor:middle;fill:#000000;stroke:#000000;stroke-width:0;font-family:FreeSerif;-inkscape-font-specification:FreeSerif Italic">x</text>
  <text x="74.183807" y="18.343805" id="text80" style="font-size:13.33333302px;font-style:italic;font-variant:normal;font-weight:normal;font-stretch:normal;text-align:center;line-height:125%;writing-mode:lr-tb;text-anchor:middle;fill:#000000;stroke:#000000;stroke-width:0;font-family:FreeSerif">y</text>
</svg>
