<!-- Created with Inkscape (http://www.inkscape.org/) -->
<svg xmlns:dc="http://purl.org/dc/elements/1.1/" xmlns:cc="http://creativecommons.org/ns#" xmlns:rdf="http://www.w3.org/1999/02/22-rdf-syntax-ns#" xmlns:svg="http://www.w3.org/2000/svg" xmlns="http://www.w3.org/2000/svg" xmlns:inkscape="http://www.inkscape.org/namespaces/inkscape" version="1.2" width="627" height="362" id="svg2">
  <metadata id="metadata29"></metadata>
  <defs id="defs2900"></defs>
  <g transform="translate(0,-690.36218)" id="layer1">
    <path d="m 418,66.40625 c -5.75015,4.394994 -11.41754,9.222929 -17.0625,14.25 L 184.5625,297 187.40625,297 418,66.40625 z m 3,2.1875 L 192.5625,297 195.40625,297 421,71.40625 l 0,-2.8125 z m 0,8 L 200.5625,297 203.40625,297 421,79.40625 l 0,-2.8125 z m 0,8 L 208.5625,297 211.40625,297 421,87.40625 l 0,-2.8125 z m 0,8 L 216.5625,297 219.40625,297 421,95.40625 l 0,-2.8125 z m 0,8 L 224.5625,297 227.40625,297 421,103.40625 l 0,-2.8125 z m 0,8 L 232.5625,297 235.40625,297 421,111.40625 l 0,-2.8125 z m 0,8 L 240.5625,297 243.40625,297 421,119.40625 l 0,-2.8125 z m -68.03125,6.84375 c -3.43031,2.67699 -6.90579,5.23049 -10.40625,7.59375 l -166,165.96875 2.84375,0 173.5625,-173.5625 z M 421,124.59375 248.5625,297 251.40625,297 421,127.40625 l 0,-2.8125 z m 0,8 L 256.5625,297 259.40625,297 421,135.40625 l 0,-2.8125 z M 17.78125,135.8125 17,136.59375 l 0,2.8125 2.5625,-2.5625 c -0.62433,-0.35887 -1.215434,-0.69925 -1.78125,-1.03125 z m 5.09375,2.90625 -5.875,5.875 0,2.8125 7.71875,-7.71875 c -0.620669,-0.33787 -1.259689,-0.64485 -1.84375,-0.96875 z m 306.4375,0.375 c -1.95458,1.07814 -3.95572,2.13197 -5.96875,3.15625 l -154.75,154.75 2.8125,0 L 329.3125,139.09375 z M 421,140.59375 264.5625,297 267.40625,297 421,143.40625 l 0,-2.8125 z M 28.0625,141.53125 17,152.59375 l 0,2.8125 12.9375,-12.9375 c -0.635944,-0.32841 -1.266619,-0.61755 -1.875,-0.9375 z m 5.3125,2.6875 -16.375,16.375 0,2.8125 18.25,-18.25 c -0.636222,-0.31216 -1.260108,-0.63034 -1.875,-0.9375 z M 38.75,146.875 17,168.59375 17,171.40625 40.65625,147.75 c -0.635227,-0.29601 -1.288198,-0.58176 -1.90625,-0.875 z m 274.6875,0.0937 c -1.62862,0.72598 -3.27394,1.43036 -4.9375,2.125 L 160.59375,297 l 2.8125,0 L 313.4375,146.96875 z M 421,148.59375 272.5625,297 275.40625,297 421,151.40625 l 0,-2.8125 z M 44.21875,149.375 17,176.59375 17,179.40625 46.15625,150.25 c -0.660965,-0.29201 -1.291985,-0.58433 -1.9375,-0.875 z m 5.5625,2.4375 L 17,184.59375 l 0,2.8125 34.75,-34.75 c -0.670719,-0.28033 -1.311528,-0.56354 -1.96875,-0.84375 z m 250.15625,0.65625 c -1.45854,0.544 -2.92266,1.07173 -4.40625,1.59375 L 152.59375,297 l 2.8125,0 144.53125,-144.53125 z m -244.5,1.6875 -38.4375,38.4375 0,2.8125 40.4375,-40.4375 c -0.673396,-0.26552 -1.33833,-0.54613 -2,-0.8125 z m 5.75,2.25 -44.1875,44.1875 0,2.8125 46.25,-46.25 c -0.686156,-0.2543 -1.386963,-0.49401 -2.0625,-0.75 z M 421,156.59375 280.5625,297 283.40625,297 421,159.40625 l 0,-2.8125 z m -133.28125,0.0937 c -1.3408,0.42537 -2.70238,0.84125 -4.0625,1.25 L 144.59375,297 l 2.8125,0 140.3125,-140.3125 z M 67.03125,158.5625 17,208.59375 l 0,2.8125 52.125,-52.125 c -0.694775,-0.24096 -1.408561,-0.4754 -2.09375,-0.71875 z m 209.34375,1.46875 c -1.26401,0.3442 -2.53261,0.66922 -3.8125,1 L 136.59375,297 l 2.8125,0 L 276.375,160.03125 z M 72.96875,160.625 17,216.59375 l 0,2.8125 58.125,-58.125 c -0.712505,-0.22997 -1.452687,-0.42317 -2.15625,-0.65625 z m 6.09375,1.90625 -62.0625,62.0625 0,2.8125 64.21875,-64.21875 c -0.721298,-0.2152 -1.443126,-0.43735 -2.15625,-0.65625 z M 265.65625,162.75 c -1.19924,0.28158 -2.41242,0.54201 -3.625,0.8125 L 128.59375,297 l 2.8125,0 134.25,-134.25 z M 85.25,164.34375 l -68.25,68.25 0,2.8125 70.4375,-70.4375 c -0.732418,-0.20025 -1.46263,-0.42046 -2.1875,-0.625 z M 421,164.59375 288.5625,297 291.40625,297 421,167.40625 l 0,-2.8125 z m -165.5625,0.375 c -1.17274,0.23779 -2.34651,0.49078 -3.53125,0.71875 l -0.0313,0 L 120.59375,297 l 2.8125,0 L 255.4375,164.96875 z M 91.53125,166.0625 17,240.59375 l 0,2.8125 76.78125,-76.78125 c -0.750152,-0.18598 -1.506964,-0.37158 -2.25,-0.5625 z m 154.03125,0.78125 c -1.11703,0.19512 -2.24768,0.37569 -3.375,0.5625 L 112.59375,297 l 2.8125,0 L 245.5625,166.84375 z M 97.96875,167.625 17,248.59375 l 0,2.8125 83.28125,-83.28125 c -0.774141,-0.17157 -1.545182,-0.32275 -2.3125,-0.5 z m 138.0625,0.75 c -1.08727,0.16318 -2.18471,0.31294 -3.28125,0.46875 L 104.59375,297 l 2.8125,0 128.625,-128.625 z M 104.5625,169.03125 17,256.59375 17,259.40625 106.90625,169.5 c -0.7821,-0.1522 -1.56793,-0.31036 -2.34375,-0.46875 z m 122.15625,0.65625 c -1.05812,0.13538 -2.121,0.24618 -3.1875,0.375 L 96.59375,297 l 2.8125,0 127.3125,-127.3125 z m -115.4375,0.625 L 17,264.59375 l 0,2.8125 96.65625,-96.65625 c -0.79636,-0.13279 -1.58451,-0.2979 -2.375,-0.4375 z m 106.375,0.4375 c -1.0397,0.11238 -2.07757,0.20611 -3.125,0.3125 L 88.59375,297 l 2.8125,0 126.25,-126.25 z M 118.125,171.46875 17,272.59375 l 0,2.8125 103.59375,-103.59375 c -0.8246,-0.11357 -1.64983,-0.22249 -2.46875,-0.34375 z m 90.65625,0.15625 c -1.01488,0.0914 -2.04055,0.164 -3.0625,0.25 L 80.59375,297 l 2.8125,0 125.375,-125.375 z m -8.71875,0.71875 c -1.00743,0.0741 -2.01712,0.14967 -3.03125,0.21875 L 72.59375,297 75.40625,297 200.0625,172.34375 z M 125.21875,172.375 17,280.59375 l 0,2.8125 110.75,-110.75 c -0.84588,-0.0909 -1.69074,-0.1819 -2.53125,-0.28125 z M 421,172.5625 296.5625,297 299.40625,297 421,175.40625 l 0,-2.84375 z m -229.46875,0.3125 c -0.99736,0.0584 -1.99632,0.13384 -3,0.1875 L 64.59375,297 l 2.8125,0 124.125,-124.125 z m -59.0625,0.25 L 17,288.59375 l 0,2.8125 118.0625,-118.0625 c -0.86952,-0.0659 -1.72932,-0.14345 -2.59375,-0.21875 z m 50.625,0.1875 c -0.98874,0.0441 -1.974,0.11657 -2.96875,0.15625 L 56.59375,297 l 2.8125,0 123.6875,-123.6875 z M 139.9375,173.65625 17,296.59375 17,297 19.40625,297 142.625,173.78125 c -0.89485,-0.038 -1.79747,-0.0766 -2.6875,-0.125 z m 34.8125,0 c -0.95553,0.0302 -1.91404,0.0362 -2.875,0.0625 L 48.59375,297 51.40625,297 174.75,173.65625 z m -8.1875,0.1875 c -0.94875,0.0186 -1.92107,0.0476 -2.875,0.0625 L 40.59375,297 43.40625,297 166.5625,173.84375 z M 147.65625,173.9375 24.59375,297 l 2.8125,0 123,-123 c -0.92004,-0.007 -1.83448,-0.0443 -2.75,-0.0625 z m 10.78125,0.0313 c -0.94474,0.008 -1.89403,0.0268 -2.84375,0.0313 l -123,123 2.8125,0 L 158.4375,173.96875 z M 421,180.5625 304.5625,297 307.40625,297 421,183.40625 l 0,-2.84375 z m 0,8 L 312.5625,297 315.40625,297 421,191.40625 l 0,-2.84375 z m 0,8 L 320.5625,297 323.40625,297 421,199.40625 l 0,-2.84375 z m 0,8 L 328.5625,297 331.40625,297 421,207.40625 l 0,-2.84375 z m 0,8 L 336.5625,297 339.40625,297 421,215.40625 l 0,-2.84375 z m 0,8 L 344.5625,297 347.40625,297 421,223.40625 l 0,-2.84375 z m 0,8 L 352.5625,297 355.40625,297 421,231.40625 l 0,-2.84375 z m 0,8 L 360.5625,297 363.40625,297 421,239.40625 l 0,-2.84375 z m 0,8 L 368.5625,297 371.40625,297 421,247.40625 l 0,-2.84375 z m 0,8 L 376.5625,297 379.40625,297 421,255.40625 l 0,-2.84375 z m 0,8 L 384.5625,297 387.40625,297 421,263.40625 l 0,-2.84375 z m 0,8 L 392.5625,297 395.40625,297 421,271.40625 l 0,-2.84375 z m 0,8 L 400.5625,297 403.40625,297 421,279.40625 l 0,-2.84375 z m 0,8 -12.4375,12.4375 2.84375,0 9.59375,-9.59375 0,-2.84375 z m 0,8 -4.4375,4.4375 2.84375,0 1.59375,-1.59375 0,-2.84375 z" transform="translate(0,690.36218)" id="rect2906" style="fill:#5050bf;fill-opacity:1;fill-rule:nonzero;stroke:none"></path>
    <path d="m 453,47 c -0.32493,0.100887 -0.64467,0.207049 -0.96875,0.3125 L 453,48.28125 453,47 z m -4.78125,1.6875 c -0.6744,0.258463 -1.36033,0.504104 -2.03125,0.78125 l 6.8125,6.8125 0,-2.8125 -4.78125,-4.78125 z m -5.625,2.375 c -0.63904,0.297071 -1.27013,0.59337 -1.90625,0.90625 L 453,64.28125 453,61.46875 442.59375,51.0625 z m -5.3125,2.6875 c -0.60632,0.326679 -1.20862,0.660016 -1.8125,1 L 453,72.28125 453,69.46875 437.28125,53.75 z m -5.09375,2.90625 c -0.58439,0.353773 -1.16769,0.697276 -1.75,1.0625 L 453,80.28125 l 0,-2.8125 -20.8125,-20.8125 z m -4.875,3.125 c -0.55901,0.371704 -1.13022,0.743684 -1.6875,1.125 l 27.375,27.375 0,-2.8125 -25.6875,-25.6875 z m -4.75,3.25 c -0.51893,0.372519 -1.0449,0.744965 -1.5625,1.125 l 0,0.125 32,32 0,-2.8125 -30.4375,-30.4375 z m -1.5625,6.4375 0,2.8125 32,32 0,-2.8125 -32,-32 z m 0,8 0,2.8125 32,32 0,-2.8125 -32,-32 z m 0,8 0,2.8125 32,32 0,-2.8125 -32,-32 z m 0,8 0,2.8125 32,32 0,-2.8125 -32,-32 z m 0,8 0,2.8125 32,32 0,-2.8125 -32,-32 z m 0,8 0,2.8125 32,32 0,-2.8125 -32,-32 z m 0,8 0,2.8125 32,32 0,-2.8125 -32,-32 z m 0,8 0,2.8125 32,32 0,-2.8125 -32,-32 z m 0,8 0,2.8125 32,32 0,-2.8125 -32,-32 z m 0,8 0,2.8125 32,32 0,-2.8125 -32,-32 z m 0,8 0,2.8125 32,32 0,-2.8125 -32,-32 z m 0,8 0,2.8125 32,32 0,-2.8125 -32,-32 z m 0,8 0,2.8125 32,32 0,-2.8125 -32,-32 z m 0,8 0,2.8125 32,32 0,-2.8125 -32,-32 z m 0,8 0,2.8125 32,32 0,-2.8125 -32,-32 z m 0,8 0,2.8125 32,32 0,-2.8125 -32,-32 z m 0,8 0,2.8125 32,32 0,-2.8125 -32,-32 z m 0,8 0,2.8125 32,32 0,-2.8125 -32,-32 z m 0,8 0,2.8125 32,32 0,-2.8125 -32,-32 z m 0,8 0,2.8125 32,32 0,-2.8125 -32,-32 z m 0,8 0,2.8125 32,32 0,-2.8125 -32,-32 z m 0,8 0,2.8125 32,32 0,-2.8125 -32,-32 z m 0,8 0,2.8125 32,32 0,-2.8125 -32,-32 z m 0,8 0,2.8125 32,32 0,-2.8125 -32,-32 z m 0,8 0,2.8125 32,32 0,-2.8125 -32,-32 z m 0,8 0,2.8125 24.71875,24.71875 2.8125,0 L 421,269.46875 z m 0,8 0,2.8125 16.71875,16.71875 2.8125,0 L 421,277.46875 z m 0,8 0,2.8125 8.71875,8.71875 2.8125,0 L 421,285.46875 z m 0,8 0,2.8125 0.71875,0.71875 2.8125,0 L 421,293.46875 z" transform="translate(0,690.36218)" id="rect3872-8" style="fill:#bf5050;fill-opacity:1;fill-rule:nonzero;stroke:none"></path>
    <path d="m 421,987.36218 0,-232.25" id="path4143" style="fill:none;stroke:#000000;stroke-width:2;stroke-linecap:butt;stroke-linejoin:miter;stroke-miterlimit:4;stroke-opacity:1;stroke-dasharray:6, 6;stroke-dashoffset:0"></path>
    <path d="m 453,987.36218 0,-250.5" id="path4141" style="fill:none;stroke:#000000;stroke-width:2;stroke-linecap:butt;stroke-linejoin:miter;stroke-miterlimit:4;stroke-opacity:1;stroke-dasharray:6, 6;stroke-dashoffset:0"></path>
    <path d="m 453,987.36218 0,-250" id="path4047" style="fill:none;stroke:#000000;stroke-width:2;stroke-linecap:butt;stroke-linejoin:miter;stroke-miterlimit:4;stroke-opacity:1;stroke-dasharray:6, 6;stroke-dashoffset:0"></path>
    <g id="g4053">
      <g id="g3976">
        <rect width="1" height="613" x="-988.36218" y="2" transform="matrix(0,-1,1,0,0,0)" id="rect3594-1" style="fill:#000000;fill-opacity:1;fill-rule:nonzero;stroke:none"></rect>
        <path d="m -227.78941,131.68522 -32.87463,0.79744 15.74672,-28.86899 17.12791,28.07155 z" transform="matrix(0.27736744,-0.13111001,0.15137297,0.24023871,667.24778,926.35909)" id="path2816-8" style="fill:#000000;fill-opacity:1;fill-rule:nonzero;stroke:none"></path>
      </g>
      <g id="g3972">
        <rect width="1" height="300" x="16" y="702.36218" id="rect3594" style="fill:#000000;fill-opacity:1;fill-rule:nonzero;stroke:none"></rect>
        <path d="m -227.78941,131.68522 -32.87463,0.79744 15.74672,-28.86899 17.12791,28.07155 z" transform="matrix(-0.13111001,-0.27736744,0.24023871,-0.15137297,-45.003126,650.1144)" id="path2816" style="fill:#000000;fill-opacity:1;fill-rule:nonzero;stroke:none"></path>
      </g>
    </g>
    <path d="m 10,821.36218 c 0,0 63,43 142,43 78.99999,0 140.99999,-12 185.99999,-40 45,-28 83,-88 132.00001,-90 49,-2 123,41 123,41" id="path3667" style="fill:none;stroke:#0000ff;stroke-width:2;stroke-linecap:butt;stroke-linejoin:miter;stroke-miterlimit:4;stroke-opacity:1;stroke-dasharray:none"></path>
    <text x="352.23236" y="749.00922" id="text4068" xml:space="preserve" style="font-size:22px;font-style:normal;font-variant:normal;font-weight:normal;font-stretch:normal;fill:#0000ff;fill-opacity:1;stroke:none;font-family:Sans;-inkscape-font-specification:Sans">y=f(x)</text>
    <rect width="118" height="34" x="157" y="219" transform="translate(0,690.36218)" id="rect4089" style="fill:#ffffff;fill-opacity:0.50196078;fill-rule:nonzero;stroke:none"></rect>
    <text x="164" y="933.36218" id="text4091" xml:space="preserve" style="font-size:20px;font-style:normal;font-variant:normal;font-weight:normal;font-stretch:normal;fill:#000000;fill-opacity:1;stroke:none;font-family:Sans;-inkscape-font-specification:Sans">area=A(x)</text>
    <text x="458.68674" y="875.61517" id="text4109" xml:space="preserve" style="font-size:15.32530117px;font-style:normal;font-variant:normal;font-weight:normal;font-stretch:normal;fill:#000000;fill-opacity:1;stroke:none;font-family:Sans;-inkscape-font-specification:Sans">A(x+h)-A(x)  f(x)h</text>
    <text x="416" y="1002.3622" id="text4127" xml:space="preserve" style="font-size:15px;font-style:normal;font-variant:normal;font-weight:normal;font-stretch:normal;fill:#000000;fill-opacity:1;stroke:none;font-family:Sans;-inkscape-font-specification:Sans">x</text>
    <text x="437.5585" y="1002.3622" id="text4127-3" xml:space="preserve" style="font-size:15px;font-style:normal;font-variant:normal;font-weight:normal;font-stretch:normal;fill:#000000;fill-opacity:1;stroke:none;font-family:Sans;-inkscape-font-specification:Sans">x+h</text>
    <text x="432.2453" y="1033.8026" id="text4127-5" xml:space="preserve" style="font-size:15px;font-style:normal;font-variant:normal;font-weight:normal;font-stretch:normal;fill:#000000;fill-opacity:1;stroke:none;font-family:Sans;-inkscape-font-specification:Sans">h</text>
    <path d="m 421.5,755.86218 31.00011,0" id="path4189" style="fill:none;stroke:#000000;stroke-width:1;stroke-linecap:butt;stroke-linejoin:miter;stroke-miterlimit:4;stroke-opacity:1;stroke-dasharray:4, 4;stroke-dashoffset:0"></path>
    <text x="-1260.8624" y="362.46967" transform="matrix(0,-0.80829973,1.2371648,0,0,0)" id="text4212" xml:space="preserve" style="font-size:29.88241768px;font-style:normal;font-variant:normal;font-weight:normal;font-stretch:normal;fill:#000000;fill-opacity:1;stroke:none;font-family:Sans;-inkscape-font-specification:Sans">{</text>
  </g>
</svg>
