<!-- Created with Inkscape (http://www.inkscape.org/) -->
<svg xmlns:dc="http://purl.org/dc/elements/1.1/" xmlns:cc="http://creativecommons.org/ns#" xmlns:rdf="http://www.w3.org/1999/02/22-rdf-syntax-ns#" xmlns:svg="http://www.w3.org/2000/svg" xmlns="http://www.w3.org/2000/svg" xmlns:inkscape="http://www.inkscape.org/namespaces/inkscape" version="1.1" width="602" height="468" id="svg2">
  <metadata id="metadata94"></metadata>
  <defs id="defs4"></defs>
  <g transform="translate(159.00011,60.500022)" id="layer1"></g>
  <g transform="matrix(2,0,0,2,15,15.000029)" id="g2477">
    <rect width="40" height="50" x="96.000076" y="151.00003" id="rect3232" style="fill:#fff0c1;fill-opacity:1;stroke:#000000;stroke-width:0.99999994;stroke-miterlimit:4;stroke-opacity:1;stroke-dasharray:none;stroke-dashoffset:0"></rect>
    <rect width="39.999992" height="100.00001" x="56.00008" y="101.00003" id="rect3230" style="fill:#fff0c1;fill-opacity:1;stroke:#000000;stroke-width:0.99999994;stroke-miterlimit:4;stroke-opacity:1;stroke-dasharray:none;stroke-dashoffset:0"></rect>
    <rect width="40" height="33.333332" x="136.00008" y="167.66669" id="rect7216" style="fill:#fff0c1;fill-opacity:1;stroke:#000000;stroke-width:0.99999988;stroke-miterlimit:4;stroke-opacity:1;stroke-dasharray:none;stroke-dashoffset:0"></rect>
    <rect width="40" height="25" x="176.00008" y="176.00003" id="rect7218" style="fill:#fff0c1;fill-opacity:1;stroke:#000000;stroke-width:0.99999988;stroke-miterlimit:4;stroke-opacity:1;stroke-dasharray:none;stroke-dashoffset:0"></rect>
    <rect width="20" height="16.666666" x="256.00006" y="184.33336" id="rect3238" style="fill:#fff0c1;fill-opacity:1;stroke:none"></rect>
    <rect width="40" height="20" x="216.00008" y="181.00003" id="rect7220" style="fill:#fff0c1;fill-opacity:1;stroke:#000000;stroke-width:0.99999988;stroke-miterlimit:4;stroke-opacity:1;stroke-dasharray:none;stroke-dashoffset:0"></rect>
    <path d="m 36.000073,1.0000003 c 1.012658,10.1250447 2.025316,18.7406927 3.037975,26.3736287 1.012658,7.632936 2.025316,14.270417 3.037974,20.228318 1.012659,5.957897 2.025317,11.227427 3.037975,16.006757 1.012658,4.77933 2.025317,9.06308 3.037975,12.98186 1.012658,3.91877 2.025316,7.46905 3.037974,10.74038 1.012659,3.27134 2.025317,6.26128 3.037975,9.03331 1.012658,2.77202 2.025317,5.324356 3.037975,7.703236 1.012658,2.37889 2.025316,4.58299 3.037974,6.6468 1.012659,2.06382 2.025317,3.98631 3.037975,5.79374 1.012658,1.80743 2.025317,3.49898 3.037975,5.095 1.012658,1.59601 2.025316,3.09583 3.037975,4.51546 1.012658,1.41964 2.025316,2.75855 3.037974,4.0295 1.012658,1.27096 2.025317,2.47351 3.037975,3.61798 1.012658,1.14447 2.025316,2.23047 3.037975,3.26643 1.012658,1.03596 2.025316,2.02156 3.037974,2.96375 1.012658,0.94219 2.025317,1.84069 3.037975,2.70128 1.012658,0.86059 2.025316,1.68304 3.037975,2.47219 1.012658,0.78916 2.025316,1.54481 3.037974,2.27107 1.012659,0.72626 2.025317,1.42294 3.037975,2.09353 1.012658,0.67059 2.025316,1.31493 3.037975,1.93601 1.012658,0.62109 2.025316,1.21878 3.037974,1.79564 1.012659,0.57687 2.025319,1.13279 3.037979,1.67 1.01265,0.53721 2.02531,1.0556 3.03797,1.5571 1.01266,0.50151 2.02532,0.98603 3.03798,1.45527 1.01265,0.46925 2.02531,0.92312 3.03797,1.36312 1.01266,0.44 2.02532,0.86604 3.03797,1.27945 1.01266,0.4134 2.02532,0.8141 3.03798,1.20325 1.01265,0.38915 2.02531,0.76669 3.03797,1.13367 1.01266,0.36697 2.02532,0.72331 3.03798,1.06994 1.01265,0.34664 2.02531,0.68351 3.03797,1.01146 1.01266,0.32794 2.02532,0.6469 3.03798,0.95763 1.01265,0.31072 2.02531,0.61316 3.03797,0.90799 1.01266,0.29482 2.02532,0.58199 3.03797,0.86211 1.01266,0.28012 2.02532,0.55314 3.03798,0.81962 1.01266,0.26649 2.02532,0.52639 3.03797,0.78021 1.01266,0.25382 2.02532,0.50152 3.03798,0.74356 1.01266,0.24204 2.02532,0.47838 3.03797,0.70944 1.01266,0.23106 2.02532,0.45681 3.03798,0.67762 1.01266,0.22081 2.02531,0.43665 3.03797,0.64788 1.01266,0.21123 2.02532,0.41781 3.03798,0.62007 1.01266,0.20225 2.02531,0.40016 3.03797,0.594 1.01266,0.19385 2.02532,0.38361 3.03798,0.56956 1.01265,0.18594 2.02531,0.36805 3.03797,0.54657 1.01266,0.17853 2.02532,0.35344 3.03798,0.52497 1.01265,0.17154 2.02531,0.33967 3.03797,0.50462 1.01266,0.16494 2.02532,0.32668 3.03798,0.48542 1.01265,0.15873 2.02531,0.31444 3.03797,0.4673 1.01266,0.15286 2.02532,0.30287 3.03797,0.45018 1.01266,0.14731 2.02532,0.29192 3.03798,0.43398 1.01266,0.14206 2.02532,0.28156 3.03797,0.41864 1.01266,0.13709 2.02532,0.27174 3.03798,0.4041 1.01266,0.13237 2.02532,0.26243 3.03797,0.39031 1.01266,0.12788 2.02532,0.25358 3.03798,0.3772 1.01266,0.12363 2.02531,0.24518 3.03797,0.36476 1.01266,0.11958 2.02532,0.23718 3.03798,0.3529 1.01266,0.11573 2.02531,0.22957 3.03797,0.34163 1.01266,0.11206 2.02532,0.22232 3.03798,0.33088 1.01266,0.10857 2.02531,0.21542 3.03797,0.32064 1.01266,0.10523 2.02532,0.20882 3.03798,0.31086 1.01265,0.10204 2.02531,0.20252 3.03797,0.30152 1.01266,0.099 2.02532,0.19651 3.03798,0.2926 1.01265,0.0961 2.02531,0.19075 3.03797,0.28406 1.01266,0.0933 2.02532,0.18526 3.03798,0.2759 1.01265,0.0907 2.02531,0.17999 3.03797,0.26808 1.01266,0.0881 2.02532,0.17494 3.03797,0.2606 1.01266,0.0857 2.02532,0.1701 3.03798,0.25341 1.01266,0.0833 2.02532,0.16546 3.03797,0.24652 1.01266,0.0811 2.02532,0.16102 3.03798,0.23992 1.01266,0.0789 2.02531,0.15674 3.03797,0.23356 1.01266,0.0768 2.02532,0.15263 3.03798,0.22747 1.01266,0.0748 2.02531,0.14868 3.03797,0.2216 1.01266,0.0729 2.02532,0.14489 3.03798,0.21596 1.01266,0.0711 2.02531,0.14124 3.03797,0.21054 1.01266,0.0693 2.02532,0.13772 3.03798,0.2053 1.01265,0.0676 2.02531,0.13434 3.03797,0.20028 1.01266,0.0659 2.02532,0.13107 3.03798,0.19543 1.01265,0.0643 2.02531,0.12792 3.03797,0.19075 1.01266,0.0628 2.02532,0.12489 3.03798,0.18624 1.01265,0.0613 2.02531,0.12196 3.03797,0.18188" id="path7295" style="fill:none;stroke:#bc1e47;stroke-width:2;stroke-miterlimit:4;stroke-opacity:1;stroke-dasharray:none;stroke-dashoffset:0"></path>
    <g transform="translate(-43.999927,21.000034)" id="g3280">
      <path d="m 140,50 c 0,5.522847 -4.47715,10 -10,10 -5.52285,0 -10,-4.477153 -10,-10 0,-5.522847 4.47715,-10 10,-10 5.52285,0 10,4.477153 10,10 z" transform="matrix(0.3,0,0,0.3,61,65)" id="path3240" style="fill:#000000;fill-opacity:1;stroke:none"></path>
      <rect width="20" height="20" x="90" y="70" id="rect3278" style="fill:none;stroke:none"></rect>
    </g>
    <g transform="translate(-3.999927,71.000034)" id="g3284">
      <path d="m 140,50 c 0,5.522847 -4.47715,10 -10,10 -5.52285,0 -10,-4.477153 -10,-10 0,-5.522847 4.47715,-10 10,-10 5.52285,0 10,4.477153 10,10 z" transform="matrix(0.3,0,0,0.3,61,65)" id="path3286" style="fill:#000000;fill-opacity:1;stroke:none"></path>
      <rect width="20" height="20" x="90" y="70" id="rect3288" style="fill:none;stroke:none"></rect>
    </g>
    <g transform="translate(36.000073,87.666704)" id="g3290">
      <path d="m 140,50 c 0,5.522847 -4.47715,10 -10,10 -5.52285,0 -10,-4.477153 -10,-10 0,-5.522847 4.47715,-10 10,-10 5.52285,0 10,4.477153 10,10 z" transform="matrix(0.3,0,0,0.3,61,65)" id="path3292" style="fill:#000000;fill-opacity:1;stroke:none"></path>
      <rect width="20" height="20" x="90" y="70" id="rect3294" style="fill:none;stroke:none"></rect>
    </g>
    <g transform="translate(76.000073,96.000034)" id="g3296">
      <path d="m 140,50 c 0,5.522847 -4.47715,10 -10,10 -5.52285,0 -10,-4.477153 -10,-10 0,-5.522847 4.47715,-10 10,-10 5.52285,0 10,4.477153 10,10 z" transform="matrix(0.3,0,0,0.3,61,65)" id="path3298" style="fill:#000000;fill-opacity:1;stroke:none"></path>
      <rect width="20" height="20" x="90" y="70" id="rect3300" style="fill:none;stroke:none"></rect>
    </g>
    <g transform="translate(116.00007,101.00003)" id="g3302">
      <path d="m 140,50 c 0,5.522847 -4.47715,10 -10,10 -5.52285,0 -10,-4.477153 -10,-10 0,-5.522847 4.47715,-10 10,-10 5.52285,0 10,4.477153 10,10 z" transform="matrix(0.3,0,0,0.3,61,65)" id="path3304" style="fill:#000000;fill-opacity:1;stroke:none"></path>
      <rect width="20" height="20" x="90" y="70" id="rect3306" style="fill:none;stroke:none"></rect>
    </g>
    <g transform="matrix(1.6,0,0,-1.6,-312.15994,1079.16)" id="content" xml:space="preserve" style="font-style:normal;font-variant:normal;font-weight:normal;font-stretch:normal;letter-spacing:normal;word-spacing:normal;text-anchor:start;fill:none;stroke:#000000;stroke-linecap:butt;stroke-linejoin:miter;stroke-miterlimit:10.43299961;stroke-opacity:1;stroke-dasharray:none;stroke-dashoffset:0">
      <path d="m 228.27,657.83 0.01,0.01 0,0.01 0,0 0,0.01 0,0.01 0.01,0.01 0,0.01 0,0.01 0,0.01 0.01,0.01 0,0.01 0,0 0,0.01 0,0.01 0.01,0.01 0,0 0,0.01 0,0 0,0.01 0,0.01 0,0 0,0.01 0,0.01 0,0.01 0,0.01 0,0.01 0,0 0,0.01 0,0.01 0,0 c 0,0.18 -0.13,0.27 -0.29,0.27 -0.09,0 -0.25,-0.06 -0.34,-0.21 -0.02,-0.05 -0.1,-0.36 -0.14,-0.54 -0.07,-0.25 -0.14,-0.52 -0.2,-0.79 l -0.45,-1.8 c -0.04,-0.15 -0.47,-0.84 -1.13,-0.84 -0.5,0 -0.61,0.44 -0.61,0.8 0,0.46 0.17,1.08 0.5,1.96 0.16,0.41 0.2,0.51 0.2,0.71 0,0.45 -0.31,0.82 -0.81,0.82 -0.95,0 -1.32,-1.44 -1.32,-1.53 0,-0.1 0.1,-0.1 0.12,-0.1 0.1,0 0.11,0.02 0.16,0.18 0.27,0.93 0.67,1.23 1.01,1.23 0.08,0 0.25,0 0.25,-0.32 0,-0.25 -0.1,-0.5 -0.17,-0.69 -0.4,-1.06 -0.58,-1.63 -0.58,-2.1 0,-0.88 0.63,-1.18 1.21,-1.18 0.39,0 0.73,0.17 1.01,0.45 -0.13,-0.52 -0.25,-1.01 -0.65,-1.54 -0.26,-0.34 -0.63,-0.63 -1.09,-0.63 -0.14,0 -0.59,0.03 -0.76,0.42 0.16,0 0.29,0 0.43,0.12 0.1,0.09 0.2,0.22 0.2,0.41 0,0.31 -0.27,0.35 -0.37,0.35 -0.23,0 -0.56,-0.16 -0.56,-0.65 0,-0.5 0.44,-0.87 1.06,-0.87 1.02,0 2.05,0.91 2.33,2.04 l 0.95,3.8 z" id="path3342" style="fill:#000000;stroke-width:0"></path>
      <path d="m 238.29,657.29 0.03,0.01 0.02,0 0.03,0 0.02,0 0.01,0 0.02,0 0.01,0 0.02,0 0.01,0.01 0.01,0 0.02,0 0.01,0.01 0.01,0 0.01,0 0.02,0.01 0.01,0.01 0.01,0 0.01,0.01 0.01,0.01 0.01,0.01 0,0.01 0.01,0 0,0.01 0,0.01 0.01,0 0,0.01 0,0.01 0.01,0 0,0.01 0,0.01 0,0 0,0.01 0,0.01 0,0.01 0.01,0.01 0,0.01 0,0 c 0,0.2 -0.19,0.2 -0.33,0.2 l -5.97,0 c -0.14,0 -0.33,0 -0.33,-0.2 0,-0.2 0.19,-0.2 0.34,-0.2 l 5.95,0 z" id="path3344" style="fill:#000000;stroke-width:0"></path>
      <path d="m 238.3,655.36 0.01,0 0.01,0 0.03,0 0.03,0 0.01,0.01 0.02,0 0.01,0 0.01,0 0.02,0 0.01,0 0.02,0.01 0.01,0 0.01,0 0.01,0.01 0.02,0 0.01,0.01 0.01,0 0.01,0.01 0.01,0.01 0.01,0.01 0.01,0.01 0,0 0,0.01 0.01,0 0,0.01 0,0 0.01,0.01 0,0.01 0,0 0.01,0.01 0,0.01 0,0 0,0.01 0,0.01 0,0.01 0,0.01 0.01,0 0,0.01 0,0.01 c 0,0.2 -0.19,0.2 -0.34,0.2 l -5.95,0 c -0.15,0 -0.34,0 -0.34,-0.2 0,-0.2 0.19,-0.2 0.33,-0.2 l 5.97,0 z" id="path3346" style="fill:#000000;stroke-width:0"></path>
      <path d="m 246.44,667.16 0,0.01 0,0.01 0,0.01 0,0.01 0,0.01 0,0.01 0,0.01 0,0.01 0,0 0,0.01 0,0.01 0,0.01 0,0.01 0,0 0,0.01 0,0.01 -0.01,0 0,0.01 0,0.01 0,0.01 0,0.01 -0.01,0.01 0,0.01 0,0.01 -0.01,0.01 -0.01,0 0,0.01 -0.01,0 -0.01,0.01 -0.01,0 0,0 -0.01,0 0,0 -0.01,0.01 0,0 -0.01,0 0,0 -0.01,0 -0.01,0 0,0 -0.01,0 -0.01,0 -0.01,0 0,0 -0.01,0 -0.01,0 -0.01,0 -0.01,0 -0.01,0 -0.01,0 -0.01,0 -0.01,0 c -0.62,-0.63 -1.5,-0.63 -1.81,-0.63 l 0,-0.31 c 0.2,0 0.78,0 1.3,0.26 l 0,-5.16 c 0,-0.36 -0.03,-0.48 -0.93,-0.48 l -0.31,0 0,-0.31 c 0.34,0.03 1.21,0.03 1.61,0.03 0.4,0 1.27,0 1.61,-0.03 l 0,0.31 -0.31,0 c -0.9,0 -0.93,0.11 -0.93,0.48 l 0,5.59 z" id="path3348" style="fill:#000000;stroke-width:0"></path>
      <line id="line3350" y2="656.53003" x2="248.85001" y1="656.53003" x1="243.14999" style="stroke-width:0.398"></line>
      <path d="m 246.48,650.21 0,0.03 0.01,0.03 0.01,0.03 0.01,0.04 0.01,0.04 0.01,0.04 0.01,0.04 0.02,0.05 0.01,0.04 0.02,0.05 0.02,0.05 0.02,0.05 0.02,0.05 0.03,0.05 0.02,0.05 0.03,0.05 0.03,0.05 0.03,0.04 0.04,0.05 0.03,0.05 0.04,0.04 0.04,0.04 0.04,0.04 0.04,0.03 0.05,0.03 0.05,0.03 0.02,0.02 0.03,0.01 0.03,0.01 0.02,0.01 0.03,0.01 0.03,0.01 0.03,0 0.03,0.01 0.03,0 0.03,0.01 0.03,0 0.03,0 c 0.05,0 0.29,0 0.5,-0.13 -0.28,-0.05 -0.48,-0.3 -0.48,-0.54 0,-0.16 0.11,-0.35 0.38,-0.35 0.22,0 0.54,0.18 0.54,0.58 0,0.52 -0.59,0.66 -0.93,0.66 -0.57,0 -0.92,-0.53 -1.04,-0.76 -0.25,0.66 -0.79,0.76 -1.08,0.76 -1.03,0 -1.6,-1.29 -1.6,-1.54 0,-0.1 0.1,-0.1 0.12,-0.1 0.08,0 0.11,0.02 0.13,0.11 0.34,1.06 0.99,1.31 1.33,1.31 0.19,0 0.54,-0.09 0.54,-0.67 0,-0.31 -0.17,-0.98 -0.54,-2.37 -0.16,-0.62 -0.51,-1.03 -0.95,-1.03 -0.05,0 -0.28,0 -0.49,0.12 0.25,0.05 0.46,0.26 0.46,0.54 0,0.27 -0.21,0.35 -0.36,0.35 -0.3,0 -0.55,-0.26 -0.55,-0.58 0,-0.46 0.5,-0.66 0.94,-0.66 0.65,0 1.01,0.7 1.04,0.76 0.12,-0.37 0.48,-0.76 1.08,-0.76 1.02,0 1.59,1.29 1.59,1.54 0,0.1 -0.09,0.1 -0.12,0.1 -0.09,0 -0.11,-0.04 -0.13,-0.11 -0.33,-1.07 -1,-1.3 -1.32,-1.3 -0.39,0 -0.55,0.31 -0.55,0.65 0,0.22 0.06,0.44 0.17,0.88 l 0.34,1.36 z" id="path3352" style="fill:#000000;stroke-width:0"></path>
    </g>
    <g transform="matrix(1.6,0,0,-1.6,-285.54393,1144.568)" id="g3756" xml:space="preserve" style="font-style:normal;font-variant:normal;font-weight:normal;font-stretch:normal;letter-spacing:normal;word-spacing:normal;text-anchor:start;fill:none;stroke:#000000;stroke-width:1;stroke-linecap:butt;stroke-linejoin:miter;stroke-miterlimit:10.43299961;stroke-opacity:1;stroke-dasharray:none;stroke-dashoffset:0">
      <path d="m 226.36,663.61 0,0.01 0,0.01 0,0.01 0,0.01 0,0.01 0,0.01 0,0.01 0,0.01 0,0.01 0,0.01 0,0 0,0.01 0,0.01 0,0.01 0,0 0,0.01 0,0.01 0,0 -0.01,0.01 0,0.02 0,0.01 0,0.01 -0.01,0 0,0.01 -0.01,0.01 0,0 -0.01,0.01 -0.01,0 0,0.01 -0.01,0 -0.01,0 0,0.01 -0.01,0 0,0 -0.01,0 -0.01,0 0,0 -0.01,0 0,0 -0.01,0 -0.01,0.01 -0.01,0 0,0 -0.01,0 -0.01,0 -0.01,0 -0.01,0 -0.01,0 -0.01,0 -0.01,0 -0.01,0 -0.01,0 c -0.62,-0.64 -1.49,-0.64 -1.81,-0.64 l 0,-0.31 c 0.2,0 0.79,0 1.3,0.26 l 0,-5.16 c 0,-0.36 -0.03,-0.48 -0.92,-0.48 l -0.32,0 0,-0.31 c 0.35,0.03 1.21,0.03 1.61,0.03 0.4,0 1.27,0 1.62,-0.03 l 0,0.31 -0.32,0 c -0.9,0 -0.93,0.11 -0.93,0.48 l 0,5.59 z" id="path3758" style="fill:#000000;stroke-width:0"></path>
    </g>
    <g transform="matrix(1.6,0,0,-1.6,-253.75193,1194.584)" id="g3838" xml:space="preserve" style="font-style:normal;font-variant:normal;font-weight:normal;font-stretch:normal;letter-spacing:normal;word-spacing:normal;text-anchor:start;fill:none;stroke:#000000;stroke-width:1;stroke-linecap:butt;stroke-linejoin:miter;stroke-miterlimit:10.43299961;stroke-opacity:1;stroke-dasharray:none;stroke-dashoffset:0">
      <path d="m 226.36,663.61 0,0.01 0,0.01 0,0.01 0,0.01 0,0.01 0,0.01 0,0.01 0,0.01 0,0.01 0,0.01 0,0 0,0.01 0,0.01 0,0.01 0,0 0,0.01 0,0.01 0,0 -0.01,0.01 0,0.02 0,0.01 0,0.01 -0.01,0 0,0.01 -0.01,0.01 0,0 -0.01,0.01 -0.01,0 0,0.01 -0.01,0 -0.01,0 0,0.01 -0.01,0 0,0 -0.01,0 -0.01,0 0,0 -0.01,0 0,0 -0.01,0 -0.01,0.01 -0.01,0 0,0 -0.01,0 -0.01,0 -0.01,0 -0.01,0 -0.01,0 -0.01,0 -0.01,0 -0.01,0 -0.01,0 c -0.62,-0.64 -1.49,-0.64 -1.81,-0.64 l 0,-0.31 c 0.2,0 0.79,0 1.3,0.26 l 0,-5.16 c 0,-0.36 -0.03,-0.48 -0.92,-0.48 l -0.32,0 0,-0.31 c 0.35,0.03 1.21,0.03 1.61,0.03 0.4,0 1.27,0 1.62,-0.03 l 0,0.31 -0.32,0 c -0.9,0 -0.93,0.11 -0.93,0.48 l 0,5.59 z" id="path3840" style="fill:#000000;stroke-width:0"></path>
      <path d="m 232.79,664.33 0,0 0,0.01 0,0 0,0.01 0.01,0 0,0.01 0,0.01 0.01,0.01 0,0.01 0,0.01 0,0.01 0.01,0.01 0,0 0,0.01 0,0.01 0.01,0 0,0.01 0,0 0,0.01 0,0.01 0,0 0,0 0,0.01 0,0 0,0.01 0,0 0.01,0 0,0 0,0.01 0,0 0,0 0,0 0,0 0,0 0,0.01 c 0,0.1 -0.09,0.19 -0.2,0.19 -0.07,0 -0.14,-0.03 -0.17,-0.09 l -3.46,-9.49 c -0.05,-0.13 -0.05,-0.17 -0.05,-0.18 0,-0.11 0.09,-0.2 0.2,-0.2 0.13,0 0.16,0.07 0.22,0.24 l 3.41,9.35 z" id="path3842" style="fill:#000000;stroke-width:0"></path>
      <path d="m 237.87,658.97 -0.25,0 c -0.05,-0.3 -0.12,-0.74 -0.22,-0.89 C 237.33,658 236.67,658 236.45,658 l -1.79,0 1.05,1.03 c 1.56,1.37 2.16,1.91 2.16,2.9 0,1.14 -0.9,1.94 -2.12,1.94 -1.12,0 -1.86,-0.92 -1.86,-1.81 0,-0.55 0.5,-0.55 0.53,-0.55 0.17,0 0.52,0.12 0.52,0.52 0,0.26 -0.18,0.52 -0.53,0.52 -0.08,0 -0.1,0 -0.13,-0.01 0.23,0.65 0.77,1.02 1.34,1.02 0.91,0 1.34,-0.81 1.34,-1.63 0,-0.79 -0.5,-1.58 -1.05,-2.2 L 234,657.6 c -0.11,-0.11 -0.11,-0.13 -0.11,-0.37 l 3.7,0 0.28,1.74 z" id="path3844" style="fill:#000000;stroke-width:0"></path>
    </g>
    <g transform="matrix(1.6,0,0,-1.6,-213.81593,1211.251)" id="g3932" xml:space="preserve" style="font-style:normal;font-variant:normal;font-weight:normal;font-stretch:normal;letter-spacing:normal;word-spacing:normal;text-anchor:start;fill:none;stroke:#000000;stroke-width:1;stroke-linecap:butt;stroke-linejoin:miter;stroke-miterlimit:10.43299961;stroke-opacity:1;stroke-dasharray:none;stroke-dashoffset:0">
      <path d="m 226.36,663.61 0,0.01 0,0.01 0,0.01 0,0.01 0,0.01 0,0.01 0,0.01 0,0.01 0,0.01 0,0.01 0,0 0,0.01 0,0.01 0,0.01 0,0 0,0.01 0,0.01 0,0 -0.01,0.01 0,0.02 0,0.01 0,0.01 -0.01,0 0,0.01 -0.01,0.01 0,0 -0.01,0.01 -0.01,0 0,0.01 -0.01,0 -0.01,0 0,0.01 -0.01,0 0,0 -0.01,0 -0.01,0 0,0 -0.01,0 0,0 -0.01,0 -0.01,0.01 -0.01,0 0,0 -0.01,0 -0.01,0 -0.01,0 -0.01,0 -0.01,0 -0.01,0 -0.01,0 -0.01,0 -0.01,0 c -0.62,-0.64 -1.49,-0.64 -1.81,-0.64 l 0,-0.31 c 0.2,0 0.79,0 1.3,0.26 l 0,-5.16 c 0,-0.36 -0.03,-0.48 -0.92,-0.48 l -0.32,0 0,-0.31 c 0.35,0.03 1.21,0.03 1.61,0.03 0.4,0 1.27,0 1.62,-0.03 l 0,0.31 -0.32,0 c -0.9,0 -0.93,0.11 -0.93,0.48 l 0,5.59 z" id="path3934" style="fill:#000000;stroke-width:0"></path>
      <path d="m 232.79,664.33 0,0 0,0.01 0,0 0,0.01 0.01,0 0,0.01 0,0.01 0.01,0.01 0,0.01 0,0.01 0,0.01 0.01,0.01 0,0 0,0.01 0,0.01 0.01,0 0,0.01 0,0 0,0.01 0,0.01 0,0 0,0 0,0.01 0,0 0,0.01 0,0 0.01,0 0,0 0,0.01 0,0 0,0 0,0 0,0 0,0 0,0.01 c 0,0.1 -0.09,0.19 -0.2,0.19 -0.07,0 -0.14,-0.03 -0.17,-0.09 l -3.46,-9.49 c -0.05,-0.13 -0.05,-0.17 -0.05,-0.18 0,-0.11 0.09,-0.2 0.2,-0.2 0.13,0 0.16,0.07 0.22,0.24 l 3.41,9.35 z" id="path3936" style="fill:#000000;stroke-width:0"></path>
      <path d="m 236.28,660.74 0.08,0.03 0.07,0.02 0.08,0.04 0.07,0.03 0.07,0.04 0.06,0.03 0.07,0.04 0.06,0.05 0.07,0.04 0.06,0.05 0.06,0.04 0.05,0.05 0.06,0.06 0.05,0.05 0.05,0.06 0.05,0.05 0.04,0.06 0.04,0.06 0.04,0.06 0.04,0.06 0.04,0.07 0.03,0.06 0.03,0.07 0.02,0.06 0.03,0.07 0.02,0.07 0.02,0.07 0.01,0.07 0.01,0.07 0.01,0.08 0,0.07 0.01,0.07 c 0,0.82 -0.88,1.38 -1.84,1.38 -1,0 -1.76,-0.6 -1.76,-1.36 0,-0.33 0.22,-0.52 0.51,-0.52 0.31,0 0.51,0.22 0.51,0.51 0,0.5 -0.47,0.5 -0.62,0.5 0.31,0.49 0.97,0.62 1.32,0.62 0.41,0 0.96,-0.22 0.96,-1.12 0,-0.12 -0.02,-0.7 -0.28,-1.13 -0.3,-0.48 -0.64,-0.51 -0.89,-0.52 -0.08,-0.01 -0.32,-0.03 -0.38,-0.03 -0.08,-0.01 -0.15,-0.02 -0.15,-0.12 0,-0.11 0.07,-0.11 0.23,-0.11 l 0.44,0 c 0.82,0 1.19,-0.68 1.19,-1.65 0,-1.36 -0.69,-1.65 -1.13,-1.65 -0.42,0 -1.17,0.17 -1.52,0.76 0.35,-0.05 0.66,0.17 0.66,0.55 0,0.36 -0.27,0.56 -0.56,0.56 -0.24,0 -0.56,-0.14 -0.56,-0.58 0,-0.91 0.93,-1.57 2.01,-1.57 1.22,0 2.13,0.91 2.13,1.93 0,0.81 -0.63,1.59 -1.67,1.8 z" id="path3938" style="fill:#000000;stroke-width:0"></path>
    </g>
    <g transform="matrix(1.6,0,0,-1.6,-173.92793,1219.584)" id="g4034" xml:space="preserve" style="font-style:normal;font-variant:normal;font-weight:normal;font-stretch:normal;letter-spacing:normal;word-spacing:normal;text-anchor:start;fill:none;stroke:#000000;stroke-width:1;stroke-linecap:butt;stroke-linejoin:miter;stroke-miterlimit:10.43299961;stroke-opacity:1;stroke-dasharray:none;stroke-dashoffset:0">
      <path d="m 226.36,663.61 0,0.01 0,0.01 0,0.01 0,0.01 0,0.01 0,0.01 0,0.01 0,0.01 0,0.01 0,0.01 0,0 0,0.01 0,0.01 0,0.01 0,0 0,0.01 0,0.01 0,0 -0.01,0.01 0,0.02 0,0.01 0,0.01 -0.01,0 0,0.01 -0.01,0.01 0,0 -0.01,0.01 -0.01,0 0,0.01 -0.01,0 -0.01,0 0,0.01 -0.01,0 0,0 -0.01,0 -0.01,0 0,0 -0.01,0 0,0 -0.01,0 -0.01,0.01 -0.01,0 0,0 -0.01,0 -0.01,0 -0.01,0 -0.01,0 -0.01,0 -0.01,0 -0.01,0 -0.01,0 -0.01,0 c -0.62,-0.64 -1.49,-0.64 -1.81,-0.64 l 0,-0.31 c 0.2,0 0.79,0 1.3,0.26 l 0,-5.16 c 0,-0.36 -0.03,-0.48 -0.92,-0.48 l -0.32,0 0,-0.31 c 0.35,0.03 1.21,0.03 1.61,0.03 0.4,0 1.27,0 1.62,-0.03 l 0,0.31 -0.32,0 c -0.9,0 -0.93,0.11 -0.93,0.48 l 0,5.59 z" id="path4036" style="fill:#000000;stroke-width:0"></path>
      <path d="m 232.79,664.33 0,0 0,0.01 0,0 0,0.01 0.01,0 0,0.01 0,0.01 0.01,0.01 0,0.01 0,0.01 0,0.01 0.01,0.01 0,0 0,0.01 0,0.01 0.01,0 0,0.01 0,0 0,0.01 0,0.01 0,0 0,0 0,0.01 0,0 0,0.01 0,0 0.01,0 0,0 0,0.01 0,0 0,0 0,0 0,0 0,0 0,0.01 c 0,0.1 -0.09,0.19 -0.2,0.19 -0.07,0 -0.14,-0.03 -0.17,-0.09 l -3.46,-9.49 c -0.05,-0.13 -0.05,-0.17 -0.05,-0.18 0,-0.11 0.09,-0.2 0.2,-0.2 0.13,0 0.16,0.07 0.22,0.24 l 3.41,9.35 z" id="path4038" style="fill:#000000;stroke-width:0"></path>
      <path d="m 233.67,658.88 2.65,0 0,-0.87 c 0,-0.36 -0.02,-0.47 -0.76,-0.47 l -0.21,0 0,-0.31 c 0.41,0.03 0.93,0.03 1.35,0.03 0.42,0 0.95,0 1.35,-0.03 l 0,0.31 -0.2,0 c -0.74,0 -0.76,0.11 -0.76,0.47 l 0,0.87 1,0 0,0.3 -1,0 0,4.54 c 0,0.2 0,0.26 -0.16,0.26 -0.09,0 -0.12,0 -0.2,-0.12 l -3.06,-4.68 0.28,0 2.43,3.72 0,-3.72 -2.43,0 -0.28,0 0,-0.3 z" id="path4040" style="fill:#000000;stroke-width:0"></path>
    </g>
    <path d="m 256.00007,184.33336 c 6.7742,0 13.54839,0 20.32258,0" id="path4206" style="fill:none;stroke:#000000;stroke-width:1.00000012;stroke-linecap:butt;stroke-linejoin:miter;stroke-miterlimit:4;stroke-opacity:1;stroke-dasharray:none"></path>
    <g transform="matrix(0.5,0,0,0.5,91.000073,-56.499966)" id="g6809">
      <path d="m 390,515 -16.8,-8.4 5.8,8.4 -5.8,8.4 16.8,-8.4 z" id="path6294" style="fill:#000000;fill-opacity:1;fill-rule:evenodd;stroke:none"></path>
      <rect width="20" height="20" x="370" y="505" id="rect6807" style="fill:none;stroke:none"></rect>
    </g>
    <g transform="matrix(0,-0.5,0.5,0,-241.49993,196.00003)" id="g6836">
      <path d="m 390,515 -16.8,-8.4 5.8,8.4 -5.8,8.4 16.8,-8.4 z" id="path6838" style="fill:#000000;fill-opacity:1;fill-rule:evenodd;stroke:none"></path>
      <rect width="20" height="20" x="370" y="505" id="rect6840" style="fill:none;stroke:none"></rect>
    </g>
    <g transform="matrix(1.333333,0,0,-1.333333,-20.599852,1091.3198)" id="g6905" xml:space="preserve" style="font-style:normal;font-variant:normal;font-weight:normal;font-stretch:normal;letter-spacing:normal;word-spacing:normal;text-anchor:start;fill:none;stroke:#000000;stroke-linecap:butt;stroke-linejoin:miter;stroke-miterlimit:10.43299961;stroke-opacity:1;stroke-dasharray:none;stroke-dashoffset:0">
      <path d="m 226.76,660.24 0.01,0.03 0,0.03 0.01,0.03 0.01,0.04 0.01,0.03 0.01,0.05 0.02,0.04 0.01,0.04 0.02,0.05 0.01,0.05 0.02,0.05 0.02,0.05 0.03,0.05 0.02,0.05 0.03,0.05 0.02,0.05 0.03,0.04 0.03,0.05 0.04,0.05 0.03,0.04 0.04,0.05 0.04,0.04 0.04,0.03 0.05,0.04 0.04,0.03 0.05,0.03 0.03,0.01 0.02,0.02 0.03,0.01 0.03,0.01 0.02,0.01 0.03,0 0.03,0.01 0.03,0.01 0.03,0 0.03,0 0.03,0.01 0.04,0 c 0.05,0 0.29,0 0.49,-0.13 -0.28,-0.05 -0.47,-0.3 -0.47,-0.54 0,-0.16 0.11,-0.35 0.38,-0.35 0.21,0 0.53,0.18 0.53,0.58 0,0.52 -0.58,0.66 -0.92,0.66 -0.58,0 -0.93,-0.53 -1.05,-0.76 -0.25,0.66 -0.79,0.76 -1.08,0.76 -1.03,0 -1.6,-1.29 -1.6,-1.54 0,-0.1 0.1,-0.1 0.12,-0.1 0.08,0 0.11,0.02 0.13,0.11 0.34,1.06 1,1.31 1.33,1.31 0.19,0 0.54,-0.09 0.54,-0.67 0,-0.31 -0.17,-0.98 -0.54,-2.37 -0.15,-0.62 -0.5,-1.04 -0.94,-1.04 -0.06,0 -0.29,0 -0.5,0.13 0.25,0.05 0.47,0.26 0.47,0.54 0,0.27 -0.22,0.35 -0.37,0.35 -0.3,0 -0.55,-0.26 -0.55,-0.58 0,-0.46 0.5,-0.66 0.94,-0.66 0.66,0 1.01,0.7 1.04,0.76 0.12,-0.37 0.48,-0.76 1.08,-0.76 1.03,0 1.59,1.29 1.59,1.54 0,0.1 -0.09,0.1 -0.12,0.1 -0.09,0 -0.1,-0.04 -0.12,-0.11 -0.33,-1.07 -1.01,-1.31 -1.33,-1.31 -0.39,0 -0.55,0.32 -0.55,0.66 0,0.22 0.06,0.44 0.17,0.88 l 0.34,1.36 z" id="path6907" style="fill:#000000;stroke-width:0"></path>
    </g>
    <g transform="matrix(1.333333,0,0,-1.333333,-295.29319,883.88648)" id="g7150" xml:space="preserve" style="font-style:normal;font-variant:normal;font-weight:normal;font-stretch:normal;letter-spacing:normal;word-spacing:normal;text-anchor:start;fill:none;stroke:#000000;stroke-linecap:butt;stroke-linejoin:miter;stroke-miterlimit:10.43299961;stroke-opacity:1;stroke-dasharray:none;stroke-dashoffset:0">
      <path d="m 228.27,661.03 0.01,0 0,0.01 0,0.01 0,0 0,0.01 0.01,0.02 0,0.01 0,0.01 0,0 0.01,0.01 0,0.01 0,0.01 0,0.01 0,0 0.01,0.01 0,0.01 0,0 0,0.01 0,0 0,0.01 0,0.01 0,0 0,0.01 0,0.01 0,0.01 0,0.01 0,0.01 0,0 0,0.01 0,0.01 c 0,0.18 -0.13,0.27 -0.29,0.27 -0.09,0 -0.25,-0.06 -0.34,-0.21 -0.02,-0.05 -0.1,-0.36 -0.14,-0.54 -0.07,-0.26 -0.14,-0.53 -0.2,-0.8 l -0.45,-1.79 c -0.04,-0.15 -0.47,-0.85 -1.13,-0.85 -0.5,0 -0.61,0.44 -0.61,0.81 0,0.46 0.17,1.07 0.5,1.95 0.16,0.41 0.2,0.52 0.2,0.72 0,0.45 -0.31,0.82 -0.81,0.82 -0.95,0 -1.32,-1.45 -1.32,-1.54 0,-0.1 0.1,-0.1 0.12,-0.1 0.1,0 0.11,0.02 0.16,0.18 0.27,0.94 0.67,1.24 1.01,1.24 0.08,0 0.25,0 0.25,-0.32 0,-0.25 -0.1,-0.51 -0.17,-0.7 -0.4,-1.06 -0.58,-1.62 -0.58,-2.09 0,-0.89 0.63,-1.19 1.21,-1.19 0.39,0 0.73,0.17 1.01,0.45 -0.13,-0.52 -0.25,-1 -0.65,-1.53 -0.26,-0.34 -0.63,-0.63 -1.09,-0.63 -0.14,0 -0.59,0.03 -0.76,0.42 0.16,0 0.29,0 0.43,0.12 0.1,0.09 0.2,0.22 0.2,0.41 0,0.3 -0.27,0.35 -0.37,0.35 -0.23,0 -0.56,-0.17 -0.56,-0.65 0,-0.5 0.44,-0.87 1.06,-0.87 1.02,0 2.05,0.91 2.33,2.03 l 0.95,3.81 z" id="path7152" style="fill:#000000;stroke-width:0"></path>
    </g>
    <g transform="translate(156.00007,104.33336)" id="g7222">
      <path d="m 140,50 c 0,5.522847 -4.47715,10 -10,10 -5.52285,0 -10,-4.477153 -10,-10 0,-5.522847 4.47715,-10 10,-10 5.52285,0 10,4.477153 10,10 z" transform="matrix(0.3,0,0,0.3,61,65)" id="path7224" style="fill:#000000;fill-opacity:1;stroke:none"></path>
      <rect width="20" height="20" x="90" y="70" id="rect7226" style="fill:none;stroke:none"></rect>
    </g>
    <g transform="matrix(1.6,0,0,-1.6,-133.75193,1224.584)" id="g7426" xml:space="preserve" style="font-style:normal;font-variant:normal;font-weight:normal;font-stretch:normal;letter-spacing:normal;word-spacing:normal;text-anchor:start;fill:none;stroke:#000000;stroke-width:1;stroke-linecap:butt;stroke-linejoin:miter;stroke-miterlimit:10.43299961;stroke-opacity:1;stroke-dasharray:none;stroke-dashoffset:0">
      <path d="m 226.36,663.61 0,0.01 0,0.01 0,0.01 0,0.01 0,0.01 0,0.01 0,0.01 0,0.01 0,0.01 0,0.01 0,0 0,0.01 0,0.01 0,0.01 0,0 0,0.01 0,0.01 0,0 -0.01,0.01 0,0.02 0,0.01 0,0.01 -0.01,0 0,0.01 -0.01,0.01 0,0 -0.01,0.01 -0.01,0 0,0.01 -0.01,0 -0.01,0 0,0.01 -0.01,0 0,0 -0.01,0 -0.01,0 0,0 -0.01,0 0,0 -0.01,0 -0.01,0.01 -0.01,0 0,0 -0.01,0 -0.01,0 -0.01,0 -0.01,0 -0.01,0 -0.01,0 -0.01,0 -0.01,0 -0.01,0 c -0.62,-0.64 -1.49,-0.64 -1.81,-0.64 l 0,-0.31 c 0.2,0 0.79,0 1.3,0.26 l 0,-5.16 c 0,-0.36 -0.03,-0.48 -0.92,-0.48 l -0.32,0 0,-0.31 c 0.35,0.03 1.21,0.03 1.61,0.03 0.4,0 1.27,0 1.62,-0.03 l 0,0.31 -0.32,0 c -0.9,0 -0.93,0.11 -0.93,0.48 l 0,5.59 z" id="path7428" style="fill:#000000;stroke-width:0"></path>
      <path d="m 232.79,664.33 0,0 0,0.01 0,0 0,0.01 0.01,0 0,0.01 0,0.01 0.01,0.01 0,0.01 0,0.01 0,0.01 0.01,0.01 0,0 0,0.01 0,0.01 0.01,0 0,0.01 0,0 0,0.01 0,0.01 0,0 0,0 0,0.01 0,0 0,0.01 0,0 0.01,0 0,0 0,0.01 0,0 0,0 0,0 0,0 0,0 0,0.01 c 0,0.1 -0.09,0.19 -0.2,0.19 -0.07,0 -0.14,-0.03 -0.17,-0.09 l -3.46,-9.49 c -0.05,-0.13 -0.05,-0.17 -0.05,-0.18 0,-0.11 0.09,-0.2 0.2,-0.2 0.13,0 0.16,0.07 0.22,0.24 l 3.41,9.35 z" id="path7430" style="fill:#000000;stroke-width:0"></path>
      <path d="m 237.87,659.23 -0.01,0.12 0,0.1 -0.02,0.11 -0.01,0.11 -0.02,0.1 -0.03,0.11 -0.03,0.1 -0.03,0.1 -0.04,0.09 -0.04,0.1 -0.04,0.09 -0.05,0.09 -0.05,0.08 -0.06,0.09 -0.06,0.07 -0.06,0.08 -0.06,0.07 -0.07,0.07 -0.07,0.07 -0.08,0.06 -0.07,0.06 -0.08,0.05 -0.08,0.05 -0.09,0.04 -0.08,0.04 -0.09,0.04 -0.09,0.03 -0.1,0.02 -0.09,0.02 -0.1,0.02 -0.1,0 -0.1,0.01 c -0.48,0 -0.9,-0.16 -1.26,-0.51 l 0,1.94 c 0.2,-0.06 0.53,-0.13 0.84,-0.13 1.23,0 1.93,0.91 1.93,1.04 0,0.06 -0.03,0.11 -0.1,0.11 -0.01,0 -0.03,0 -0.08,-0.03 -0.2,-0.09 -0.69,-0.29 -1.36,-0.29 -0.4,0 -0.85,0.07 -1.32,0.28 -0.08,0.03 -0.1,0.03 -0.12,0.03 -0.1,0 -0.1,-0.08 -0.1,-0.24 l 0,-2.95 c 0,-0.18 0,-0.26 0.14,-0.26 0.07,0 0.09,0.03 0.13,0.09 0.11,0.16 0.48,0.7 1.28,0.7 0.52,0 0.77,-0.46 0.85,-0.64 0.16,-0.37 0.18,-0.76 0.18,-1.26 0,-0.34 0,-0.94 -0.24,-1.36 -0.24,-0.39 -0.61,-0.65 -1.07,-0.65 -0.72,0 -1.29,0.53 -1.46,1.12 0.03,-0.01 0.06,-0.02 0.17,-0.02 0.33,0 0.5,0.25 0.5,0.49 0,0.23 -0.17,0.48 -0.5,0.48 -0.14,0 -0.49,-0.07 -0.49,-0.52 0,-0.86 0.69,-1.83 1.8,-1.83 1.16,0 2.18,0.96 2.18,2.22 z" id="path7432" style="fill:#000000;stroke-width:0"></path>
    </g>
    <path d="m 56.000073,206.00003 0,-5" id="path7501" style="fill:none;stroke:#000000;stroke-width:1px;stroke-linecap:butt;stroke-linejoin:miter;stroke-opacity:1"></path>
    <path d="m 96.000073,206.00003 0,-5" id="path7503" style="fill:none;stroke:#000000;stroke-width:1px;stroke-linecap:butt;stroke-linejoin:miter;stroke-opacity:1"></path>
    <path d="m 136.00007,206.00003 0,-5" id="path7505" style="fill:none;stroke:#000000;stroke-width:1px;stroke-linecap:butt;stroke-linejoin:miter;stroke-opacity:1"></path>
    <path d="m 176.00007,206.00003 0,-5" id="path7507" style="fill:none;stroke:#000000;stroke-width:1px;stroke-linecap:butt;stroke-linejoin:miter;stroke-opacity:1"></path>
    <path d="m 216.00007,206.00003 0,-5" id="path7509" style="fill:none;stroke:#000000;stroke-width:1px;stroke-linecap:butt;stroke-linejoin:miter;stroke-opacity:1"></path>
    <path d="m 256.00007,206.00003 0,-5" id="path7511" style="fill:none;stroke:#000000;stroke-width:1px;stroke-linecap:butt;stroke-linejoin:miter;stroke-opacity:1"></path>
    <path d="m 16.000073,216.01361 0,-212.0276307" id="path7513" style="fill:none;stroke:#000000;stroke-width:2.00000024;stroke-linecap:butt;stroke-linejoin:miter;stroke-miterlimit:4;stroke-opacity:1;stroke-dasharray:none"></path>
    <path d="m 1,201.00003 282.00014,0" id="path7515" style="fill:none;stroke:#000000;stroke-width:2;stroke-linecap:butt;stroke-linejoin:miter;stroke-miterlimit:4;stroke-opacity:1;stroke-dasharray:none"></path>
    <g transform="matrix(1.333333,0,0,-1.333333,-295.21985,1095.0131)" id="g7597" xml:space="preserve" style="font-style:normal;font-variant:normal;font-weight:normal;font-stretch:normal;letter-spacing:normal;word-spacing:normal;text-anchor:start;fill:none;stroke:#000000;stroke-linecap:butt;stroke-linejoin:miter;stroke-miterlimit:10.43299961;stroke-opacity:1;stroke-dasharray:none;stroke-dashoffset:0">
      <path d="m 228.01,660.42 0,0.15 0,0.15 0,0.15 -0.01,0.15 -0.01,0.15 -0.01,0.14 -0.01,0.15 -0.02,0.15 -0.03,0.15 -0.02,0.14 -0.04,0.15 -0.03,0.14 -0.05,0.14 -0.05,0.14 -0.05,0.14 -0.03,0.07 -0.03,0.07 c -0.46,0.96 -1.28,1.12 -1.7,1.12 -0.6,0 -1.32,-0.26 -1.73,-1.19 -0.32,-0.69 -0.37,-1.46 -0.37,-2.26 0,-0.75 0.04,-1.64 0.45,-2.4 0.43,-0.81 1.16,-1.01 1.64,-1.01 l 0,0.22 c -0.39,0 -0.97,0.25 -1.15,1.21 -0.11,0.6 -0.11,1.51 -0.11,2.1 0,0.64 0,1.3 0.08,1.83 0.19,1.19 0.93,1.28 1.18,1.28 0.33,0 0.99,-0.18 1.18,-1.17 0.1,-0.56 0.1,-1.31 0.1,-1.94 0,-0.75 0,-1.43 -0.11,-2.06 -0.15,-0.95 -0.72,-1.25 -1.17,-1.25 l 0,0 0,-0.22 c 0.54,0 1.3,0.21 1.74,1.16 0.31,0.69 0.36,1.46 0.36,2.25 z" id="path7599" style="fill:#000000;stroke-width:0"></path>
    </g>
    <g transform="matrix(1.333333,0,0,-1.333333,-245.28652,1095.3064)" id="g7755" xml:space="preserve" style="font-style:normal;font-variant:normal;font-weight:normal;font-stretch:normal;letter-spacing:normal;word-spacing:normal;text-anchor:start;fill:none;stroke:#000000;stroke-linecap:butt;stroke-linejoin:miter;stroke-miterlimit:10.43299961;stroke-opacity:1;stroke-dasharray:none;stroke-dashoffset:0">
      <path d="m 226.36,663.61 0,0.01 0,0.01 0,0.01 0,0.01 0,0.01 0,0.01 0,0.01 0,0.01 0,0.01 0,0.01 0,0 0,0.01 0,0.01 0,0.01 0,0 0,0.01 0,0.01 0,0 -0.01,0.01 0,0.02 0,0.01 0,0.01 -0.01,0 0,0.01 -0.01,0.01 0,0 -0.01,0.01 -0.01,0 0,0.01 -0.01,0 -0.01,0 0,0.01 -0.01,0 0,0 -0.01,0 -0.01,0 0,0 -0.01,0 0,0 -0.01,0 -0.01,0.01 -0.01,0 0,0 -0.01,0 -0.01,0 -0.01,0 -0.01,0 -0.01,0 -0.01,0 -0.01,0 -0.01,0 -0.01,0 c -0.62,-0.64 -1.49,-0.64 -1.81,-0.64 l 0,-0.31 c 0.2,0 0.79,0 1.3,0.26 l 0,-5.16 c 0,-0.36 -0.03,-0.48 -0.92,-0.48 l -0.32,0 0,-0.31 c 0.35,0.03 1.21,0.03 1.61,0.03 0.4,0 1.27,0 1.62,-0.03 l 0,0.31 -0.32,0 c -0.9,0 -0.93,0.11 -0.93,0.48 l 0,5.59 z" id="path7757" style="fill:#000000;stroke-width:0"></path>
    </g>
    <g transform="matrix(1.333333,0,0,-1.333333,-205.22652,1095.3064)" id="g7917" xml:space="preserve" style="font-style:normal;font-variant:normal;font-weight:normal;font-stretch:normal;letter-spacing:normal;word-spacing:normal;text-anchor:start;fill:none;stroke:#000000;stroke-linecap:butt;stroke-linejoin:miter;stroke-miterlimit:10.43299961;stroke-opacity:1;stroke-dasharray:none;stroke-dashoffset:0">
      <path d="m 227.91,658.97 -0.25,0 c -0.05,-0.3 -0.12,-0.74 -0.22,-0.89 C 227.37,658 226.71,658 226.49,658 l -1.79,0 1.05,1.03 c 1.56,1.37 2.16,1.91 2.16,2.9 0,1.14 -0.9,1.94 -2.12,1.94 -1.12,0 -1.86,-0.92 -1.86,-1.81 0,-0.55 0.5,-0.55 0.53,-0.55 0.17,0 0.52,0.12 0.52,0.52 0,0.26 -0.18,0.52 -0.53,0.52 -0.08,0 -0.1,0 -0.13,-0.01 0.23,0.65 0.77,1.02 1.34,1.02 0.91,0 1.34,-0.81 1.34,-1.63 0,-0.79 -0.5,-1.58 -1.05,-2.2 l -1.91,-2.13 c -0.11,-0.11 -0.11,-0.13 -0.11,-0.37 l 3.7,0 0.28,1.74 z" id="path7919" style="fill:#000000;stroke-width:0"></path>
    </g>
    <g transform="matrix(1.333333,0,0,-1.333333,-165.22652,1095.0131)" id="g8247" xml:space="preserve" style="font-style:normal;font-variant:normal;font-weight:normal;font-stretch:normal;letter-spacing:normal;word-spacing:normal;text-anchor:start;fill:none;stroke:#000000;stroke-linecap:butt;stroke-linejoin:miter;stroke-miterlimit:10.43299961;stroke-opacity:1;stroke-dasharray:none;stroke-dashoffset:0">
      <path d="m 226.32,660.74 0.08,0.03 0.07,0.02 0.08,0.04 0.07,0.03 0.07,0.04 0.06,0.03 0.07,0.04 0.06,0.05 0.07,0.04 0.06,0.05 0.06,0.04 0.05,0.05 0.06,0.06 0.05,0.05 0.05,0.06 0.05,0.05 0.04,0.06 0.04,0.06 0.04,0.06 0.04,0.06 0.04,0.07 0.03,0.06 0.03,0.07 0.02,0.06 0.03,0.07 0.02,0.07 0.02,0.07 0.01,0.07 0.01,0.07 0.01,0.08 0,0.07 0.01,0.07 c 0,0.82 -0.88,1.38 -1.84,1.38 -1,0 -1.76,-0.6 -1.76,-1.36 0,-0.33 0.22,-0.52 0.51,-0.52 0.31,0 0.51,0.22 0.51,0.51 0,0.5 -0.47,0.5 -0.62,0.5 0.31,0.49 0.97,0.62 1.32,0.62 0.41,0 0.96,-0.22 0.96,-1.12 0,-0.12 -0.02,-0.7 -0.28,-1.13 -0.3,-0.48 -0.64,-0.51 -0.89,-0.52 -0.08,-0.01 -0.31,-0.03 -0.38,-0.03 -0.08,-0.01 -0.15,-0.02 -0.15,-0.12 0,-0.11 0.07,-0.11 0.24,-0.11 l 0.43,0 c 0.82,0 1.19,-0.68 1.19,-1.65 0,-1.36 -0.69,-1.65 -1.13,-1.65 -0.43,0 -1.17,0.17 -1.52,0.76 0.35,-0.05 0.66,0.17 0.66,0.55 0,0.36 -0.27,0.56 -0.56,0.56 -0.24,0 -0.56,-0.14 -0.56,-0.58 0,-0.91 0.93,-1.57 2.01,-1.57 1.22,0 2.13,0.91 2.13,1.93 0,0.81 -0.63,1.59 -1.67,1.8 z" id="path8249" style="fill:#000000;stroke-width:0"></path>
    </g>
    <g transform="matrix(1.333333,0,0,-1.333333,-125.22652,1095.3064)" id="g8585" xml:space="preserve" style="font-style:normal;font-variant:normal;font-weight:normal;font-stretch:normal;letter-spacing:normal;word-spacing:normal;text-anchor:start;fill:none;stroke:#000000;stroke-linecap:butt;stroke-linejoin:miter;stroke-miterlimit:10.43299961;stroke-opacity:1;stroke-dasharray:none;stroke-dashoffset:0">
      <path d="m 223.71,658.88 2.65,0 0,-0.87 c 0,-0.36 -0.02,-0.47 -0.76,-0.47 l -0.2,0 0,-0.31 c 0.4,0.03 0.92,0.03 1.34,0.03 0.42,0 0.95,0 1.36,-0.03 l 0,0.31 -0.21,0 c -0.74,0 -0.76,0.11 -0.76,0.47 l 0,0.87 1,0 0,0.3 -1,0 0,4.54 c 0,0.2 0,0.26 -0.16,0.26 -0.09,0 -0.12,0 -0.2,-0.12 l -3.06,-4.68 0.28,0 2.43,3.72 0,-3.72 -2.43,0 -0.28,0 0,-0.3 z" id="path8587" style="fill:#000000;stroke-width:0"></path>
    </g>
    <g transform="matrix(1.333333,0,0,-1.333333,-85.226517,1095.0131)" id="g8759" xml:space="preserve" style="font-style:normal;font-variant:normal;font-weight:normal;font-stretch:normal;letter-spacing:normal;word-spacing:normal;text-anchor:start;fill:none;stroke:#000000;stroke-linecap:butt;stroke-linejoin:miter;stroke-miterlimit:10.43299961;stroke-opacity:1;stroke-dasharray:none;stroke-dashoffset:0">
      <path d="m 227.91,659.23 -0.01,0.12 0,0.1 -0.02,0.11 -0.01,0.11 -0.02,0.1 -0.03,0.11 -0.03,0.1 -0.03,0.1 -0.04,0.09 -0.04,0.1 -0.04,0.09 -0.05,0.09 -0.05,0.08 -0.06,0.09 -0.06,0.07 -0.06,0.08 -0.06,0.07 -0.07,0.07 -0.07,0.07 -0.08,0.06 -0.07,0.06 -0.08,0.05 -0.08,0.05 -0.09,0.04 -0.08,0.04 -0.09,0.04 -0.09,0.03 -0.1,0.02 -0.09,0.02 -0.1,0.02 -0.1,0 -0.1,0.01 c -0.47,0 -0.9,-0.16 -1.26,-0.51 l 0,1.94 c 0.2,-0.06 0.53,-0.13 0.84,-0.13 1.23,0 1.93,0.91 1.93,1.04 0,0.06 -0.03,0.11 -0.1,0.11 -0.01,0 -0.03,0 -0.08,-0.03 -0.2,-0.09 -0.69,-0.29 -1.36,-0.29 -0.4,0 -0.85,0.07 -1.32,0.28 -0.08,0.03 -0.1,0.03 -0.12,0.03 -0.1,0 -0.1,-0.08 -0.1,-0.24 l 0,-2.95 c 0,-0.18 0,-0.26 0.14,-0.26 0.07,0 0.09,0.03 0.13,0.09 0.11,0.16 0.48,0.7 1.28,0.7 0.52,0 0.77,-0.46 0.85,-0.64 0.16,-0.37 0.18,-0.76 0.18,-1.26 0,-0.34 0,-0.94 -0.24,-1.36 -0.24,-0.39 -0.61,-0.65 -1.07,-0.65 -0.72,0 -1.29,0.53 -1.46,1.12 0.03,-0.01 0.06,-0.02 0.17,-0.02 0.33,0 0.5,0.25 0.5,0.49 0,0.23 -0.17,0.48 -0.5,0.48 -0.14,0 -0.49,-0.07 -0.49,-0.52 0,-0.86 0.69,-1.83 1.8,-1.83 1.16,0 2.18,0.96 2.18,2.22 z" id="path8761" style="fill:#000000;stroke-width:0"></path>
    </g>
    <g transform="matrix(1.333333,0,0,-1.333333,-45.226518,1095.0131)" id="g8937" xml:space="preserve" style="font-style:normal;font-variant:normal;font-weight:normal;font-stretch:normal;letter-spacing:normal;word-spacing:normal;text-anchor:start;fill:none;stroke:#000000;stroke-linecap:butt;stroke-linejoin:miter;stroke-miterlimit:10.43299961;stroke-opacity:1;stroke-dasharray:none;stroke-dashoffset:0">
      <path d="m 224.75,660.5 0,0.24 c 0,2.52 1.23,2.88 1.74,2.88 0.24,0 0.66,-0.06 0.88,-0.4 -0.15,0 -0.55,0 -0.55,-0.45 0,-0.31 0.24,-0.46 0.46,-0.46 0.16,0 0.46,0.09 0.46,0.48 0,0.6 -0.44,1.08 -1.27,1.08 -1.27,0 -2.62,-1.29 -2.62,-3.49 0,-2.66 1.16,-3.37 2.08,-3.37 1.11,0 2.06,0.94 2.06,2.26 0,1.26 -0.89,2.22 -2,2.22 l -0.01,-0.23 c 0.16,0 0.62,0 0.93,-0.62 0.18,-0.37 0.18,-0.88 0.18,-1.36 0,-0.48 0,-0.98 -0.17,-1.34 -0.3,-0.6 -0.76,-0.65 -0.99,-0.65 l 0,0 c -0.63,0 -0.92,0.6 -0.98,0.75 -0.18,0.47 -0.18,1.26 -0.18,1.44 0,0.78 0.32,1.78 1.21,1.78 l 0.01,0.23 c -0.67,0 -1.04,-0.51 -1.24,-0.99 z" id="path8939" style="fill:#000000;stroke-width:0"></path>
    </g>
    <path d="m 20.583386,101.00003 -9.166683,0" id="path9031" style="fill:none;stroke:#000000;stroke-width:1.00000012px;stroke-linecap:butt;stroke-linejoin:miter;stroke-opacity:1"></path>
    <g transform="matrix(1.333333,0,0,-1.333333,-295.28652,981.73313)" id="g9033" xml:space="preserve" style="font-style:normal;font-variant:normal;font-weight:normal;font-stretch:normal;letter-spacing:normal;word-spacing:normal;text-anchor:start;fill:none;stroke:#000000;stroke-linecap:butt;stroke-linejoin:miter;stroke-miterlimit:10.43299961;stroke-opacity:1;stroke-dasharray:none;stroke-dashoffset:0">
      <path d="m 226.36,663.61 0,0.01 0,0.01 0,0.01 0,0.01 0,0.01 0,0.01 0,0.01 0,0.01 0,0.01 0,0.01 0,0 0,0.01 0,0.01 0,0.01 0,0 0,0.01 0,0.01 0,0 -0.01,0.01 0,0.02 0,0.01 0,0.01 -0.01,0 0,0.01 -0.01,0.01 0,0 -0.01,0.01 -0.01,0 0,0.01 -0.01,0 -0.01,0 0,0.01 -0.01,0 0,0 -0.01,0 -0.01,0 0,0 -0.01,0 0,0 -0.01,0 -0.01,0.01 -0.01,0 0,0 -0.01,0 -0.01,0 -0.01,0 -0.01,0 -0.01,0 -0.01,0 -0.01,0 -0.01,0 -0.01,0 c -0.62,-0.64 -1.49,-0.64 -1.81,-0.64 l 0,-0.31 c 0.2,0 0.79,0 1.3,0.26 l 0,-5.16 c 0,-0.36 -0.03,-0.48 -0.92,-0.48 l -0.32,0 0,-0.31 c 0.35,0.03 1.21,0.03 1.61,0.03 0.4,0 1.27,0 1.62,-0.03 l 0,0.31 -0.32,0 c -0.9,0 -0.93,0.11 -0.93,0.48 l 0,5.59 z" id="path9035" style="fill:#000000;stroke-width:0"></path>
    </g>
  </g>
</svg>
