<!-- Created with Inkscape (http://www.inkscape.org/) -->
<svg xmlns:dc="http://purl.org/dc/elements/1.1/" xmlns:cc="http://creativecommons.org/ns#" xmlns:rdf="http://www.w3.org/1999/02/22-rdf-syntax-ns#" xmlns:svg="http://www.w3.org/2000/svg" xmlns="http://www.w3.org/2000/svg" xmlns:inkscape="http://www.inkscape.org/namespaces/inkscape" version="1.1" width="600" height="600" id="svg2383">
  <metadata id="metadata295"></metadata>
  <g transform="matrix(1.8844089,0,0,1.8858838,-91.741894,-25.326414)" id="g2968">
    <path d="M 70.724409,310.42913 59.314961,321.09449" id="path2385" style="fill:none;stroke:#3f3d99;stroke-width:1.70078743px;stroke-linejoin:miter;stroke-miterlimit:1;stroke-opacity:1;stroke-dasharray:none"></path>
    <path d="m 62.645669,322.90157 -1.133858,-0.46063 -0.637795,-0.31889 -0.637796,-0.3189 -0.531496,-0.35433 -0.389763,-0.35433 -0.283465,-0.38977 -0.318898,-0.56692 -0.318897,-0.6378 -0.283465,-0.70866 -0.46063,-1.20473 -0.177165,-0.53149 -8.397638,13.6063 14.031496,-7.58268 -0.46063,-0.17717 z" id="path2387" style="fill:#3f3d99;fill-opacity:1;fill-rule:evenodd;stroke:none"></path>
    <path d="M 71.007874,283.6063 59.279528,294.27165" id="path2389" style="fill:none;stroke:#3f3d99;stroke-width:1.70078743px;stroke-linejoin:miter;stroke-miterlimit:1;stroke-opacity:1;stroke-dasharray:none"></path>
    <path d="m 62.645669,296.14961 -1.133858,-0.49607 -0.637795,-0.31889 -0.637796,-0.35434 -0.531496,-0.35433 -0.425196,-0.35433 -0.283465,-0.38976 -0.283465,-0.60236 -0.318897,-0.67323 -0.283465,-0.70866 -0.46063,-1.24016 -0.177165,-0.5315 -8.681102,13.67717 14.350393,-7.47638 -0.496063,-0.17716 z" id="path2391" style="fill:#3f3d99;fill-opacity:1;fill-rule:evenodd;stroke:none"></path>
    <path d="M 70.440945,256.74803 59.314961,267.41339" id="path2393" style="fill:none;stroke:#3f3d99;stroke-width:1.70078743px;stroke-linejoin:miter;stroke-miterlimit:1;stroke-opacity:1;stroke-dasharray:none"></path>
    <path d="m 62.645669,269.18504 -1.133858,-0.46063 -0.637795,-0.3189 -0.602362,-0.3189 -0.56693,-0.31889 -0.389763,-0.35433 -0.283465,-0.35433 -0.318898,-0.56693 -0.283464,-0.6378 -0.318898,-0.70866 -0.46063,-1.20473 -0.212598,-0.49606 -8.114173,13.53543 13.783464,-7.65354 -0.46063,-0.14173 z" id="path2395" style="fill:#3f3d99;fill-opacity:1;fill-rule:evenodd;stroke:none"></path>
    <path d="m 69.129921,229.9252 -9.744094,10.66535" id="path2397" style="fill:none;stroke:#3f3d99;stroke-width:1.70078743px;stroke-linejoin:miter;stroke-miterlimit:1;stroke-opacity:1;stroke-dasharray:none"></path>
    <path d="m 62.610236,242.00787 -1.098425,-0.35433 -0.602362,-0.24803 -0.602362,-0.24803 -0.531496,-0.28346 -0.389764,-0.28347 -0.283465,-0.35433 -0.318897,-0.49606 -0.354331,-0.56693 -0.318898,-0.6378 -0.496063,-1.09842 -0.212598,-0.46063 -6.732284,13.14567 12.366142,-7.97244 -0.425197,-0.14174 z" id="path2399" style="fill:#3f3d99;fill-opacity:1;fill-rule:evenodd;stroke:none"></path>
    <path d="m 67.145669,203.06693 -7.653543,10.66535" id="path2401" style="fill:none;stroke:#3f3d99;stroke-width:1.70078743px;stroke-linejoin:miter;stroke-miterlimit:1;stroke-opacity:1;stroke-dasharray:none"></path>
    <path d="m 62.53937,214.68898 -0.992126,-0.2126 -0.602362,-0.14173 -0.566929,-0.17717 -0.496063,-0.2126 -0.389764,-0.2126 -0.283465,-0.24803 -0.35433,-0.42519 -0.354331,-0.49607 -0.354331,-0.53149 -0.602362,-0.92126 -0.212598,-0.38977 -4.677166,12.57874 10.311024,-8.53937 -0.425197,-0.0709 z" id="path2403" style="fill:#3f3d99;fill-opacity:1;fill-rule:evenodd;stroke:none"></path>
    <path d="m 64.594488,176.24409 -4.96063,10.66536" id="path2405" style="fill:none;stroke:#3f3d99;stroke-width:1.70078743px;stroke-linejoin:miter;stroke-miterlimit:1;stroke-opacity:1;stroke-dasharray:none"></path>
    <path d="m 62.468504,187.22835 -0.92126,0 -0.531496,-0.0354 -0.531496,-0.0709 -0.46063,-0.1063 -0.389764,-0.1063 -0.318897,-0.2126 -0.354331,-0.28346 -0.389764,-0.38977 -0.425197,-0.38976 -0.673228,-0.7441 -0.248032,-0.28346 -2.019685,11.83464 7.653544,-9.21259 -0.389764,0 z" id="path2407" style="fill:#3f3d99;fill-opacity:1;fill-rule:evenodd;stroke:none"></path>
    <path d="m 61.688976,149.42126 -1.877952,10.62992" id="path2409" style="fill:none;stroke:#3f3d99;stroke-width:1.70078743px;stroke-linejoin:miter;stroke-miterlimit:1;stroke-opacity:1;stroke-dasharray:none"></path>
    <path d="m 62.397638,159.69685 -0.814961,0.17717 -0.496063,0.10629 -0.496063,0.0709 -0.425197,0.0354 -0.35433,-0.0354 -0.318898,-0.0709 -0.425197,-0.21259 -0.425197,-0.2126 -0.46063,-0.28347 -0.779527,-0.49606 -0.318898,-0.2126 0.992126,11.05512 4.677166,-10.02756 -0.354331,0.1063 z" id="path2411" style="fill:#3f3d99;fill-opacity:1;fill-rule:evenodd;stroke:none"></path>
    <path d="m 58.677165,122.56299 1.275591,10.66536" id="path2413" style="fill:none;stroke:#3f3d99;stroke-width:1.70078743px;stroke-linejoin:miter;stroke-miterlimit:1;stroke-opacity:1;stroke-dasharray:none"></path>
    <path d="m 62.326772,132.09449 -0.708662,0.46063 -0.46063,0.2126 -0.425197,0.21259 -0.425196,0.17717 -0.354331,0.0709 -0.318898,0 -0.425197,-0.0709 -0.496063,-0.1063 -0.496063,-0.1063 -0.885826,-0.24803 -0.354331,-0.1063 4.145669,10.16929 1.488189,-10.84252 -0.283464,0.17717 z" id="path2415" style="fill:#3f3d99;fill-opacity:1;fill-rule:evenodd;stroke:none"></path>
    <path d="m 55.73622,95.740157 4.393701,10.629923" id="path2417" style="fill:none;stroke:#3f3d99;stroke-width:1.70078743px;stroke-linejoin:miter;stroke-miterlimit:1;stroke-opacity:1;stroke-dasharray:none"></path>
    <path d="m 62.255906,104.56299 -0.637796,0.6378 -0.389764,0.35433 -0.389763,0.35433 -0.389764,0.28346 -0.318898,0.17717 -0.35433,0.1063 -0.46063,0.0709 -0.531496,0.0354 -0.56693,0 -0.956692,0.0354 -0.425197,-0.0354 7.192913,9.35433 -1.523622,-11.65748 -0.248031,0.28346 z" id="path2419" style="fill:#3f3d99;fill-opacity:1;fill-rule:evenodd;stroke:none"></path>
    <path d="m 53.114173,68.88189 7.157481,10.665354" id="path2421" style="fill:none;stroke:#3f3d99;stroke-width:1.70078743px;stroke-linejoin:miter;stroke-miterlimit:1;stroke-opacity:1;stroke-dasharray:none"></path>
    <path d="m 62.185039,77.066929 -0.531496,0.850394 -0.35433,0.496063 -0.354331,0.46063 -0.354331,0.389764 -0.318897,0.283464 -0.354331,0.177165 -0.496063,0.177166 -0.566929,0.141732 -0.602362,0.177165 -1.062993,0.212599 -0.46063,0.07087 9.92126,8.610236 -4.251968,-12.401575 -0.212599,0.354331 z" id="path2423" style="fill:#3f3d99;fill-opacity:1;fill-rule:evenodd;stroke:none"></path>
    <path d="m 50.988189,42.059055 9.389764,10.629921" id="path2425" style="fill:none;stroke:#3f3d99;stroke-width:1.70078743px;stroke-linejoin:miter;stroke-miterlimit:1;stroke-opacity:1;stroke-dasharray:none"></path>
    <path d="m 62.114173,49.712598 -0.46063,1.027559 -0.283464,0.56693 -0.318898,0.566929 -0.354331,0.46063 -0.318897,0.35433 -0.354331,0.248032 -0.531496,0.283464 -0.602362,0.248032 -0.637795,0.248031 -1.133859,0.389764 -0.46063,0.141732 12.118111,8.007875 -6.484252,-12.968504 -0.177166,0.425196 z" id="path2427" style="fill:#3f3d99;fill-opacity:1;fill-rule:evenodd;stroke:none"></path>
    <path d="M 49.535433,15.200787 60.448819,25.866142" id="path2429" style="fill:none;stroke:#3f3d99;stroke-width:1.70078743px;stroke-linejoin:miter;stroke-miterlimit:1;stroke-opacity:1;stroke-dasharray:none"></path>
    <path d="m 62.07874,22.535433 -0.425197,1.098425 -0.248031,0.637796 -0.318898,0.637795 -0.318897,0.531496 -0.318898,0.425197 -0.354331,0.283464 -0.531496,0.318898 -0.637795,0.354331 -0.673228,0.318897 -1.169292,0.496063 -0.496063,0.212599 13.677166,7.582677 -8.043308,-13.393701 -0.141732,0.496063 z" id="path2431" style="fill:#3f3d99;fill-opacity:1;fill-rule:evenodd;stroke:none"></path>
    <path d="M 97.547244,309.57874 86.137795,321.12992" id="path2433" style="fill:none;stroke:#3f3d99;stroke-width:1.70078743px;stroke-linejoin:miter;stroke-miterlimit:1;stroke-opacity:1;stroke-dasharray:none"></path>
    <path d="m 89.681102,322.90157 -1.169291,-0.46063 -0.708661,-0.28346 -0.637796,-0.3189 -0.602362,-0.35433 -0.425197,-0.35433 -0.318897,-0.38976 L 85.5,320.17323 85.145669,319.5 l -0.35433,-0.70866 -0.531496,-1.24016 -0.212599,-0.53149 -8.149606,14.49212 14.279527,-8.4685 -0.496063,-0.14174 z" id="path2435" style="fill:#3f3d99;fill-opacity:1;fill-rule:evenodd;stroke:none"></path>
    <path d="M 97.830709,282.72047 86.137795,294.30709" id="path2437" style="fill:none;stroke:#3f3d99;stroke-width:1.70078743px;stroke-linejoin:miter;stroke-miterlimit:1;stroke-opacity:1;stroke-dasharray:none"></path>
    <path d="m 89.681102,296.11417 -1.169291,-0.46063 -0.708661,-0.31889 -0.673229,-0.3189 -0.566929,-0.35433 -0.425197,-0.35433 -0.318897,-0.38977 -0.354331,-0.60236 -0.318898,-0.67323 -0.35433,-0.74409 -0.496063,-1.27559 -0.212599,-0.5315 -8.468504,14.59843 14.598425,-8.39764 -0.531496,-0.17717 z" id="path2439" style="fill:#3f3d99;fill-opacity:1;fill-rule:evenodd;stroke:none"></path>
    <path d="M 97.299213,255.89764 86.173228,267.48425" id="path2441" style="fill:none;stroke:#3f3d99;stroke-width:1.70078743px;stroke-linejoin:miter;stroke-miterlimit:1;stroke-opacity:1;stroke-dasharray:none"></path>
    <path d="m 89.681102,269.14961 -1.169291,-0.4252 -0.673228,-0.28347 -0.673229,-0.31889 -0.566929,-0.3189 -0.425197,-0.3189 -0.318897,-0.38976 -0.354331,-0.56693 -0.354331,-0.67323 -0.35433,-0.67323 -0.531496,-1.24016 -0.212599,-0.53149 -7.866142,14.42126 13.996063,-8.53937 -0.496063,-0.14173 z" id="path2443" style="fill:#3f3d99;fill-opacity:1;fill-rule:evenodd;stroke:none"></path>
    <path d="m 95.988189,229.03937 -9.744095,11.58661" id="path2445" style="fill:none;stroke:#3f3d99;stroke-width:1.70078743px;stroke-linejoin:miter;stroke-miterlimit:1;stroke-opacity:1;stroke-dasharray:none"></path>
    <path d="m 89.645669,241.97244 -1.133858,-0.3189 -0.637795,-0.2126 -0.673229,-0.24803 -0.531496,-0.28346 -0.425197,-0.28347 -0.318897,-0.31889 -0.389764,-0.5315 -0.354331,-0.60236 -0.35433,-0.6378 -0.602363,-1.09842 -0.248031,-0.49607 -6.484252,14.06693 12.649606,-8.8937 -0.496063,-0.14173 z" id="path2447" style="fill:#3f3d99;fill-opacity:1;fill-rule:evenodd;stroke:none"></path>
    <path d="m 93.968504,202.21654 -7.61811,11.58661" id="path2449" style="fill:none;stroke:#3f3d99;stroke-width:1.70078743px;stroke-linejoin:miter;stroke-miterlimit:1;stroke-opacity:1;stroke-dasharray:none"></path>
    <path d="m 89.574803,214.65354 -1.062992,-0.17716 -0.602362,-0.1063 -0.602362,-0.17717 -0.56693,-0.17716 -0.389763,-0.2126 -0.354331,-0.28346 -0.354331,-0.4252 -0.425197,-0.49606 -0.389763,-0.56693 -0.637796,-0.9567 -0.283464,-0.38976 -4.393701,13.5 10.523622,-9.46063 -0.46063,-0.0709 z" id="path2451" style="fill:#3f3d99;fill-opacity:1;fill-rule:evenodd;stroke:none"></path>
    <path d="m 91.417323,175.35827 -4.925197,11.58661" id="path2453" style="fill:none;stroke:#3f3d99;stroke-width:1.70078743px;stroke-linejoin:miter;stroke-miterlimit:1;stroke-opacity:1;stroke-dasharray:none"></path>
    <path d="m 89.53937,187.19291 -0.992126,0.0354 -0.566929,-0.0354 -0.566929,-0.0354 -0.531496,-0.0709 -0.389764,-0.14173 -0.354331,-0.17716 -0.389764,-0.3189 -0.460629,-0.38976 -0.425197,-0.4252 -0.744095,-0.7441 -0.318897,-0.31889 -1.771654,12.7559 7.901575,-10.13386 -0.389764,0 z" id="path2455" style="fill:#3f3d99;fill-opacity:1;fill-rule:evenodd;stroke:none"></path>
    <path d="m 88.547244,148.53543 -1.913386,11.58662" id="path2457" style="fill:none;stroke:#3f3d99;stroke-width:1.70078743px;stroke-linejoin:miter;stroke-miterlimit:1;stroke-opacity:1;stroke-dasharray:none"></path>
    <path d="m 89.433071,159.66142 -0.850394,0.2126 -0.531496,0.14173 -0.531496,0.0709 -0.496063,0.0354 -0.389764,0 -0.35433,-0.1063 -0.425197,-0.2126 -0.496063,-0.24803 -0.496063,-0.28347 -0.814961,-0.49606 -0.354331,-0.24803 1.240158,11.97638 4.889764,-10.94882 -0.389764,0.1063 z" id="path2459" style="fill:#3f3d99;fill-opacity:1;fill-rule:evenodd;stroke:none"></path>
    <path d="m 85.535433,121.67717 1.275591,11.58661" id="path2461" style="fill:none;stroke:#3f3d99;stroke-width:1.70078743px;stroke-linejoin:miter;stroke-miterlimit:1;stroke-opacity:1;stroke-dasharray:none"></path>
    <path d="m 89.362205,132.09449 -0.779528,0.46063 -0.46063,0.24803 -0.496063,0.2126 -0.425197,0.17716 -0.389763,0.0709 -0.354331,0 -0.496063,-0.0709 -0.531496,-0.1063 -0.531496,-0.14173 -0.956693,-0.24803 -0.389764,-0.14173 4.393701,11.09055 1.73622,-11.76378 -0.318897,0.2126 z" id="path2463" style="fill:#3f3d99;fill-opacity:1;fill-rule:evenodd;stroke:none"></path>
    <path d="m 82.594488,94.854331 4.358268,11.586609" id="path2465" style="fill:none;stroke:#3f3d99;stroke-width:1.70078743px;stroke-linejoin:miter;stroke-miterlimit:1;stroke-opacity:1;stroke-dasharray:none"></path>
    <path d="m 89.291339,104.52756 -0.673229,0.67323 -0.425197,0.38976 -0.425196,0.35433 -0.425197,0.28347 -0.389764,0.21259 -0.354331,0.0709 -0.496063,0.0709 -0.602362,0.0354 -0.602362,0 -1.027559,-0.0354 -0.425197,-0.0354 7.440945,10.27559 -1.311024,-12.57874 -0.283464,0.28347 z" id="path2467" style="fill:#3f3d99;fill-opacity:1;fill-rule:evenodd;stroke:none"></path>
    <path d="m 79.972441,67.996063 7.122047,11.586614" id="path2469" style="fill:none;stroke:#3f3d99;stroke-width:1.70078743px;stroke-linejoin:miter;stroke-miterlimit:1;stroke-opacity:1;stroke-dasharray:none"></path>
    <path d="m 89.220472,77.066929 -0.602362,0.850394 -0.35433,0.496063 -0.389764,0.496063 -0.389764,0.389764 -0.389764,0.283464 -0.354331,0.177166 -0.531496,0.177165 -0.637795,0.141732 -0.637795,0.141732 -1.133858,0.177166 -0.46063,0.07087 10.169291,9.496063 -4.03937,-13.287402 -0.248032,0.389764 z" id="path2471" style="fill:#3f3d99;fill-opacity:1;fill-rule:evenodd;stroke:none"></path>
    <path d="m 77.846457,41.173228 9.35433,11.586615" id="path2473" style="fill:none;stroke:#3f3d99;stroke-width:1.70078743px;stroke-linejoin:miter;stroke-miterlimit:1;stroke-opacity:1;stroke-dasharray:none"></path>
    <path d="m 89.149606,49.712598 -0.496063,1.027559 -0.35433,0.602363 -0.354331,0.566929 -0.354331,0.496063 -0.389764,0.354331 -0.35433,0.248031 -0.566929,0.248032 -0.637796,0.248031 -0.708661,0.212598 -1.169291,0.354331 -0.531497,0.141732 12.401575,8.929134 -6.271653,-13.889763 -0.212599,0.460629 z" id="path2475" style="fill:#3f3d99;fill-opacity:1;fill-rule:evenodd;stroke:none"></path>
    <path d="M 76.358268,14.350394 87.307087,25.901575" id="path2477" style="fill:none;stroke:#3f3d99;stroke-width:1.70078743px;stroke-linejoin:miter;stroke-miterlimit:1;stroke-opacity:1;stroke-dasharray:none"></path>
    <path d="m 89.114173,22.5 -0.46063,1.133858 -0.318897,0.673229 -0.318898,0.637795 -0.354331,0.566929 -0.35433,0.389764 -0.389764,0.318897 -0.566929,0.283465 -0.673229,0.318898 -0.708661,0.318897 -1.240158,0.46063 -0.566929,0.212599 13.925197,8.468504 L 89.326772,22.003937 89.114173,22.5 z" id="path2479" style="fill:#3f3d99;fill-opacity:1;fill-rule:evenodd;stroke:none"></path>
    <path d="m 124.40551,309.50787 -11.40945,11.65748" id="path2481" style="fill:none;stroke:#3f3d99;stroke-width:1.70078743px;stroke-linejoin:miter;stroke-miterlimit:1;stroke-opacity:1;stroke-dasharray:none"></path>
    <path d="m 116.53937,322.90157 -1.16929,-0.46063 -0.70866,-0.28346 -0.67323,-0.3189 -0.56693,-0.35433 -0.4252,-0.3189 -0.31889,-0.38976 -0.35434,-0.56693 -0.35433,-0.70866 -0.31889,-0.70866 -0.56693,-1.24016 -0.2126,-0.53149 -8.11417,14.56299 14.27952,-8.53937 -0.49606,-0.14174 z" id="path2483" style="fill:#3f3d99;fill-opacity:1;fill-rule:evenodd;stroke:none"></path>
    <path d="m 124.68898,282.68504 -11.72835,11.62205" id="path2485" style="fill:none;stroke:#3f3d99;stroke-width:1.70078743px;stroke-linejoin:miter;stroke-miterlimit:1;stroke-opacity:1;stroke-dasharray:none"></path>
    <path d="m 116.53937,296.11417 -1.20472,-0.46063 -0.67323,-0.31889 -0.67323,-0.3189 -0.60236,-0.35433 -0.4252,-0.35433 -0.3189,-0.38977 -0.3189,-0.60236 -0.35433,-0.67323 -0.31889,-0.74409 -0.5315,-1.27559 -0.2126,-0.5315 -8.43307,14.66929 14.59843,-8.4685 -0.5315,-0.17717 z" id="path2487" style="fill:#3f3d99;fill-opacity:1;fill-rule:evenodd;stroke:none"></path>
    <path d="m 124.12205,255.82677 -11.12599,11.65748" id="path2489" style="fill:none;stroke:#3f3d99;stroke-width:1.70078743px;stroke-linejoin:miter;stroke-miterlimit:1;stroke-opacity:1;stroke-dasharray:none"></path>
    <path d="m 116.53937,269.14961 -1.16929,-0.4252 -0.70866,-0.28347 -0.6378,-0.31889 -0.60236,-0.3189 -0.4252,-0.3189 -0.31889,-0.38976 -0.35434,-0.56693 -0.35433,-0.67323 -0.31889,-0.67323 -0.56693,-1.24016 -0.2126,-0.53149 -7.86614,14.49212 14.03149,-8.61023 -0.49606,-0.14173 z" id="path2491" style="fill:#3f3d99;fill-opacity:1;fill-rule:evenodd;stroke:none"></path>
    <path d="m 122.81102,229.00394 -9.74409,11.62204" id="path2493" style="fill:none;stroke:#3f3d99;stroke-width:1.70078743px;stroke-linejoin:miter;stroke-miterlimit:1;stroke-opacity:1;stroke-dasharray:none"></path>
    <path d="m 116.50394,241.97244 -1.13386,-0.3189 -0.67323,-0.2126 -0.63779,-0.24803 -0.56693,-0.28346 -0.4252,-0.28347 -0.3189,-0.31889 -0.35433,-0.5315 -0.38976,-0.60236 -0.35433,-0.6378 -0.60237,-1.09842 -0.24803,-0.49607 -6.48425,14.1378 12.68504,-8.96457 -0.49606,-0.14173 z" id="path2495" style="fill:#3f3d99;fill-opacity:1;fill-rule:evenodd;stroke:none"></path>
    <path d="m 120.82677,202.14567 -7.65354,11.65748" id="path2497" style="fill:none;stroke:#3f3d99;stroke-width:1.70078743px;stroke-linejoin:miter;stroke-miterlimit:1;stroke-opacity:1;stroke-dasharray:none"></path>
    <path d="m 116.43307,214.65354 -1.06299,-0.17716 -0.60236,-0.1063 -0.6378,-0.17717 -0.53149,-0.17716 -0.4252,-0.2126 -0.3189,-0.28346 -0.38976,-0.4252 -0.38977,-0.49606 -0.42519,-0.56693 -0.6378,-0.9567 -0.28346,-0.42519 -4.3937,13.57086 10.55905,-9.49606 -0.46063,-0.0709 z" id="path2499" style="fill:#3f3d99;fill-opacity:1;fill-rule:evenodd;stroke:none"></path>
    <path d="m 118.27559,175.32283 -4.96063,11.62205" id="path2501" style="fill:none;stroke:#3f3d99;stroke-width:1.70078743px;stroke-linejoin:miter;stroke-miterlimit:1;stroke-opacity:1;stroke-dasharray:none"></path>
    <path d="m 116.3622,187.19291 -0.95669,0.0354 -0.60236,-0.0354 -0.56693,-0.0354 -0.49606,-0.0709 -0.4252,-0.14173 -0.3189,-0.17716 -0.42519,-0.3189 -0.46063,-0.38976 -0.4252,-0.4252 -0.7441,-0.7441 -0.31889,-0.35433 -1.73622,12.86221 7.90157,-10.20473 -0.4252,0 z" id="path2503" style="fill:#3f3d99;fill-opacity:1;fill-rule:evenodd;stroke:none"></path>
    <path d="m 115.37008,148.46457 -1.87795,11.65748" id="path2505" style="fill:none;stroke:#3f3d99;stroke-width:1.70078743px;stroke-linejoin:miter;stroke-miterlimit:1;stroke-opacity:1;stroke-dasharray:none"></path>
    <path d="m 116.29134,159.66142 -0.88583,0.24803 -0.53149,0.1063 -0.5315,0.0709 -0.46063,0.0354 -0.38976,0 -0.35433,-0.1063 -0.46063,-0.2126 -0.49607,-0.24803 -0.49606,-0.28347 -0.81496,-0.49606 -0.35433,-0.24803 1.24016,12.01181 4.92519,-10.98425 -0.38976,0.1063 z" id="path2507" style="fill:#3f3d99;fill-opacity:1;fill-rule:evenodd;stroke:none"></path>
    <path d="m 112.35827,121.64173 1.27559,11.62205" id="path2509" style="fill:none;stroke:#3f3d99;stroke-width:1.70078743px;stroke-linejoin:miter;stroke-miterlimit:1;stroke-opacity:1;stroke-dasharray:none"></path>
    <path d="m 116.22047,132.09449 -0.77953,0.46063 -0.46063,0.24803 -0.49606,0.2126 -0.46063,0.17716 -0.38976,0.0709 -0.35433,0 -0.46063,-0.0709 -0.5315,-0.1063 -0.56693,-0.14173 -0.95669,-0.24803 -0.38976,-0.14173 4.3937,11.16142 1.77165,-11.83465 -0.3189,0.2126 z" id="path2511" style="fill:#3f3d99;fill-opacity:1;fill-rule:evenodd;stroke:none"></path>
    <path d="m 109.41732,94.783465 4.3937,11.657475" id="path2513" style="fill:none;stroke:#3f3d99;stroke-width:1.70078743px;stroke-linejoin:miter;stroke-miterlimit:1;stroke-opacity:1;stroke-dasharray:none"></path>
    <path d="m 116.14961,104.52756 -0.67323,0.67323 -0.4252,0.38976 -0.46063,0.35433 -0.4252,0.28347 -0.35433,0.21259 -0.38976,0.0709 -0.49606,0.0709 -0.56693,0.0354 -0.60236,0 -1.063,-0.0354 -0.42519,-0.0354 7.44094,10.31103 -1.27559,-12.61418 -0.28346,0.28347 z" id="path2515" style="fill:#3f3d99;fill-opacity:1;fill-rule:evenodd;stroke:none"></path>
    <path d="m 106.79528,67.96063 7.15748,11.622047" id="path2517" style="fill:none;stroke:#3f3d99;stroke-width:1.70078743px;stroke-linejoin:miter;stroke-miterlimit:1;stroke-opacity:1;stroke-dasharray:none"></path>
    <path d="m 116.07874,77.066929 -0.60236,0.850394 -0.38977,0.531496 -0.38976,0.46063 -0.38976,0.389764 -0.35433,0.283464 -0.38977,0.177166 -0.53149,0.177165 -0.6378,0.141732 -0.63779,0.141732 -1.13386,0.177166 -0.46063,0.07087 10.16929,9.566929 -4.00394,-13.358268 -0.24803,0.389764 z" id="path2519" style="fill:#3f3d99;fill-opacity:1;fill-rule:evenodd;stroke:none"></path>
    <path d="m 104.66929,41.102362 9.38977,11.657481" id="path2521" style="fill:none;stroke:#3f3d99;stroke-width:1.70078743px;stroke-linejoin:miter;stroke-miterlimit:1;stroke-opacity:1;stroke-dasharray:none"></path>
    <path d="m 116.00787,49.712598 -0.53149,1.027559 -0.3189,0.602363 -0.35433,0.566929 -0.38976,0.496063 -0.35433,0.354331 -0.38977,0.248031 -0.56693,0.248032 -0.63779,0.248031 -0.67323,0.212598 -1.20473,0.354331 -0.53149,0.141732 12.40157,8.964567 -6.23622,-13.925196 -0.2126,0.460629 z" id="path2523" style="fill:#3f3d99;fill-opacity:1;fill-rule:evenodd;stroke:none"></path>
    <path d="m 103.21654,14.279528 10.91338,11.622047" id="path2525" style="fill:none;stroke:#3f3d99;stroke-width:1.70078743px;stroke-linejoin:miter;stroke-miterlimit:1;stroke-opacity:1;stroke-dasharray:none"></path>
    <path d="m 115.97244,22.5 -0.46063,1.133858 -0.3189,0.673229 -0.35433,0.637795 -0.35433,0.566929 -0.35433,0.389764 -0.38976,0.318897 -0.56693,0.283465 -0.67323,0.318898 -0.70866,0.318897 -1.24016,0.46063 -0.56693,0.212599 13.96063,8.53937 -7.75984,-14.350394 -0.2126,0.496063 z" id="path2527" style="fill:#3f3d99;fill-opacity:1;fill-rule:evenodd;stroke:none"></path>
    <path d="M 151.22835,310.25197 139.8189,321.09449" id="path2529" style="fill:none;stroke:#3f3d99;stroke-width:1.70078743px;stroke-linejoin:miter;stroke-miterlimit:1;stroke-opacity:1;stroke-dasharray:none"></path>
    <path d="m 143.18504,322.90157 -1.13386,-0.46063 -0.63779,-0.31889 -0.6378,-0.3189 -0.5315,-0.35433 -0.42519,-0.35433 -0.28347,-0.38977 -0.31889,-0.53149 -0.3189,-0.67323 -0.28347,-0.70866 -0.49606,-1.24016 -0.17717,-0.53149 -8.3622,13.81889 14.10236,-7.75984 -0.49606,-0.17717 z" id="path2531" style="fill:#3f3d99;fill-opacity:1;fill-rule:evenodd;stroke:none"></path>
    <path d="M 151.51181,283.42913 139.8189,294.27165" id="path2533" style="fill:none;stroke:#3f3d99;stroke-width:1.70078743px;stroke-linejoin:miter;stroke-miterlimit:1;stroke-opacity:1;stroke-dasharray:none"></path>
    <path d="m 143.22047,296.14961 -1.16929,-0.49607 -0.63779,-0.31889 -0.6378,-0.35434 -0.56693,-0.35433 -0.38976,-0.35433 -0.28347,-0.38976 -0.31889,-0.56693 -0.3189,-0.70866 -0.28347,-0.70866 -0.49606,-1.24016 -0.17717,-0.5315 -8.64566,13.85433 14.38582,-7.65354 -0.46063,-0.17716 z" id="path2535" style="fill:#3f3d99;fill-opacity:1;fill-rule:evenodd;stroke:none"></path>
    <path d="m 150.98031,256.57087 -11.12598,10.84252" id="path2537" style="fill:none;stroke:#3f3d99;stroke-width:1.70078743px;stroke-linejoin:miter;stroke-miterlimit:1;stroke-opacity:1;stroke-dasharray:none"></path>
    <path d="m 143.18504,269.14961 -1.13386,-0.4252 -0.63779,-0.28347 -0.6378,-0.35433 -0.5315,-0.31889 -0.38976,-0.35433 -0.3189,-0.35433 -0.31889,-0.56693 -0.3189,-0.6378 -0.28347,-0.70866 -0.49606,-1.20473 -0.2126,-0.49606 -8.04331,13.7126 13.8189,-7.83071 -0.49606,-0.17716 z" id="path2539" style="fill:#3f3d99;fill-opacity:1;fill-rule:evenodd;stroke:none"></path>
    <path d="m 149.66929,229.74803 -9.74409,10.84252" id="path2541" style="fill:none;stroke:#3f3d99;stroke-width:1.70078743px;stroke-linejoin:miter;stroke-miterlimit:1;stroke-opacity:1;stroke-dasharray:none"></path>
    <path d="m 143.14961,242.00787 -1.063,-0.35433 -0.63779,-0.24803 -0.60236,-0.24803 -0.5315,-0.28346 -0.38976,-0.28347 -0.3189,-0.3189 -0.3189,-0.49606 -0.35433,-0.60236 -0.3189,-0.6378 -0.53149,-1.09842 -0.2126,-0.46063 -6.69685,13.32283 12.43701,-8.1496 -0.46063,-0.14174 z" id="path2543" style="fill:#3f3d99;fill-opacity:1;fill-rule:evenodd;stroke:none"></path>
    <path d="m 147.64961,202.88976 -7.61811,10.84252" id="path2545" style="fill:none;stroke:#3f3d99;stroke-width:1.70078743px;stroke-linejoin:miter;stroke-miterlimit:1;stroke-opacity:1;stroke-dasharray:none"></path>
    <path d="m 143.11417,214.68898 -1.02756,-0.2126 -0.60236,-0.14173 -0.56693,-0.17717 -0.49606,-0.17717 -0.38976,-0.24803 -0.3189,-0.24803 -0.35433,-0.42519 -0.35433,-0.49607 -0.38977,-0.53149 -0.56693,-0.92126 -0.24803,-0.4252 -4.6063,12.79134 10.34646,-8.71654 -0.4252,-0.0709 z" id="path2547" style="fill:#3f3d99;fill-opacity:1;fill-rule:evenodd;stroke:none"></path>
    <path d="m 145.09843,176.06693 -4.9252,10.84252" id="path2549" style="fill:none;stroke:#3f3d99;stroke-width:1.70078743px;stroke-linejoin:miter;stroke-miterlimit:1;stroke-opacity:1;stroke-dasharray:none"></path>
    <path d="m 143.04331,187.22835 -0.92126,0 -0.56693,-0.0354 -0.5315,-0.0709 -0.49606,-0.0709 -0.35433,-0.14173 -0.3189,-0.17717 -0.38976,-0.31889 -0.4252,-0.38977 -0.38976,-0.38976 -0.67323,-0.7441 -0.28347,-0.31889 -1.98425,12.04724 7.72441,-9.4252 -0.38976,0.0354 z" id="path2551" style="fill:#3f3d99;fill-opacity:1;fill-rule:evenodd;stroke:none"></path>
    <path d="m 142.22835,149.20866 -1.91339,10.87795" id="path2553" style="fill:none;stroke:#3f3d99;stroke-width:1.70078743px;stroke-linejoin:miter;stroke-miterlimit:1;stroke-opacity:1;stroke-dasharray:none"></path>
    <path d="m 142.97244,159.66142 -0.85039,0.2126 -0.49607,0.10629 -0.49606,0.0709 -0.4252,0.0354 -0.38976,0 -0.3189,-0.1063 -0.42519,-0.17716 -0.46063,-0.24803 -0.46063,-0.28347 -0.77953,-0.49606 -0.3189,-0.2126 1.06299,11.23229 4.67717,-10.20473 -0.3189,0.0709 z" id="path2555" style="fill:#3f3d99;fill-opacity:1;fill-rule:evenodd;stroke:none"></path>
    <path d="m 139.21654,122.38583 1.27559,10.84252" id="path2557" style="fill:none;stroke:#3f3d99;stroke-width:1.70078743px;stroke-linejoin:miter;stroke-miterlimit:1;stroke-opacity:1;stroke-dasharray:none"></path>
    <path d="m 142.86614,132.09449 -0.70866,0.46063 -0.46063,0.2126 -0.4252,0.21259 -0.42519,0.17717 -0.35433,0.0709 -0.35433,0 -0.4252,-0.0709 -0.49606,-0.0709 -0.5315,-0.14173 -0.88583,-0.24803 -0.35433,-0.1063 4.1811,10.34646 1.55906,-11.01969 -0.3189,0.17717 z" id="path2559" style="fill:#3f3d99;fill-opacity:1;fill-rule:evenodd;stroke:none"></path>
    <path d="m 136.27559,95.562992 4.35827,10.842518" id="path2561" style="fill:none;stroke:#3f3d99;stroke-width:1.70078743px;stroke-linejoin:miter;stroke-miterlimit:1;stroke-opacity:1;stroke-dasharray:none"></path>
    <path d="m 142.79528,104.56299 -0.6378,0.6378 -0.38976,0.38976 -0.38977,0.3189 -0.38976,0.28346 -0.35433,0.2126 -0.35433,0.0709 -0.46063,0.0709 -0.5315,0.0354 -0.56693,0.0354 -0.99212,-0.0354 -0.4252,0 7.26378,9.53149 -1.52362,-11.83464 -0.24803,0.28346 z" id="path2563" style="fill:#3f3d99;fill-opacity:1;fill-rule:evenodd;stroke:none"></path>
    <path d="m 133.65354,68.704724 7.12205,10.84252" id="path2565" style="fill:none;stroke:#3f3d99;stroke-width:1.70078743px;stroke-linejoin:miter;stroke-miterlimit:1;stroke-opacity:1;stroke-dasharray:none"></path>
    <path d="m 142.72441,77.066929 -0.5315,0.850394 -0.35433,0.496063 -0.35433,0.46063 -0.35433,0.389764 -0.35433,0.283464 -0.35433,0.177165 -0.49606,0.177166 -0.60237,0.177165 -0.60236,0.141732 -1.06299,0.177166 -0.46063,0.106299 9.99213,8.787402 -4.25197,-12.578741 -0.2126,0.354331 z" id="path2567" style="fill:#3f3d99;fill-opacity:1;fill-rule:evenodd;stroke:none"></path>
    <path d="m 131.52756,41.88189 9.35433,10.842519" id="path2569" style="fill:none;stroke:#3f3d99;stroke-width:1.70078743px;stroke-linejoin:miter;stroke-miterlimit:1;stroke-opacity:1;stroke-dasharray:none"></path>
    <path d="m 142.68898,49.712598 -0.49607,1.027559 -0.28346,0.56693 -0.35433,0.566929 -0.3189,0.496063 -0.35433,0.35433 -0.35433,0.248032 -0.5315,0.248031 -0.60236,0.248032 -0.63779,0.248031 -1.13386,0.389764 -0.49607,0.141732 12.18898,8.18504 -6.44882,-13.145669 -0.17716,0.425196 z" id="path2571" style="fill:#3f3d99;fill-opacity:1;fill-rule:evenodd;stroke:none"></path>
    <path d="m 130.03937,15.023622 10.94882,10.84252" id="path2573" style="fill:none;stroke:#3f3d99;stroke-width:1.70078743px;stroke-linejoin:miter;stroke-miterlimit:1;stroke-opacity:1;stroke-dasharray:none"></path>
    <path d="m 142.65354,22.535433 -0.42519,1.098425 -0.28347,0.673229 -0.3189,0.602362 -0.31889,0.566929 -0.3189,0.389764 -0.38976,0.318897 -0.5315,0.318898 -0.6378,0.318898 -0.67322,0.318897 -1.20473,0.496063 -0.49606,0.212599 13.7126,7.759842 -7.97244,-13.570866 -0.14174,0.496063 z" id="path2575" style="fill:#3f3d99;fill-opacity:1;fill-rule:evenodd;stroke:none"></path>
    <path d="m 178.08661,311.77559 -11.40944,9.24803" id="path2577" style="fill:none;stroke:#3f3d99;stroke-width:1.70078743px;stroke-linejoin:miter;stroke-miterlimit:1;stroke-opacity:1;stroke-dasharray:none"></path>
    <path d="m 169.65354,322.93701 -0.99212,-0.49607 -0.60236,-0.35433 -0.56693,-0.35433 -0.46063,-0.35433 -0.35433,-0.35433 -0.24804,-0.38976 -0.24803,-0.5315 -0.24803,-0.63779 -0.24803,-0.67323 -0.35433,-1.16929 -0.14173,-0.5315 -8.75197,12.22441 13.67716,-6.16535 -0.46063,-0.2126 z" id="path2579" style="fill:#3f3d99;fill-opacity:1;fill-rule:evenodd;stroke:none"></path>
    <path d="m 178.37008,284.95276 -11.72835,9.24803" id="path2581" style="fill:none;stroke:#3f3d99;stroke-width:1.70078743px;stroke-linejoin:miter;stroke-miterlimit:1;stroke-opacity:1;stroke-dasharray:none"></path>
    <path d="m 169.68898,296.18504 -1.02756,-0.5315 -0.60236,-0.35433 -0.56693,-0.38976 -0.49607,-0.35433 -0.35433,-0.35433 -0.24803,-0.38977 -0.24803,-0.56693 -0.2126,-0.67322 -0.24803,-0.67323 -0.3189,-1.20473 -0.14173,-0.53149 -9.07087,12.33071 13.96063,-6.09449 -0.42519,-0.2126 z" id="path2583" style="fill:#3f3d99;fill-opacity:1;fill-rule:evenodd;stroke:none"></path>
    <path d="m 177.80315,258.09449 -11.12598,9.24803" id="path2585" style="fill:none;stroke:#3f3d99;stroke-width:1.70078743px;stroke-linejoin:miter;stroke-miterlimit:1;stroke-opacity:1;stroke-dasharray:none"></path>
    <path d="m 169.65354,269.22047 -0.99212,-0.53149 -0.60236,-0.3189 -0.5315,-0.3189 -0.49606,-0.35433 -0.35433,-0.35433 -0.24804,-0.35433 -0.24803,-0.5315 -0.24803,-0.63779 -0.24803,-0.67323 -0.35433,-1.16929 -0.14173,-0.49607 -8.50394,12.15355 13.42913,-6.23622 -0.46063,-0.17717 z" id="path2587" style="fill:#3f3d99;fill-opacity:1;fill-rule:evenodd;stroke:none"></path>
    <path d="m 176.49213,231.27165 -9.7441,9.24804" id="path2589" style="fill:none;stroke:#3f3d99;stroke-width:1.70078743px;stroke-linejoin:miter;stroke-miterlimit:1;stroke-opacity:1;stroke-dasharray:none"></path>
    <path d="m 169.61811,242.04331 -0.95669,-0.38977 -0.56693,-0.28346 -0.5315,-0.28347 -0.46063,-0.28346 -0.35433,-0.28346 -0.24803,-0.35434 -0.24803,-0.46063 -0.28347,-0.56692 -0.24803,-0.60237 -0.42519,-1.06299 -0.14174,-0.46063 -7.15748,11.79921 12.04725,-6.62598 -0.4252,-0.14173 z" id="path2591" style="fill:#3f3d99;fill-opacity:1;fill-rule:evenodd;stroke:none"></path>
    <path d="m 174.47244,204.41339 -7.61811,9.24803" id="path2593" style="fill:none;stroke:#3f3d99;stroke-width:1.70078743px;stroke-linejoin:miter;stroke-miterlimit:1;stroke-opacity:1;stroke-dasharray:none"></path>
    <path d="m 169.58268,214.72441 -0.92126,-0.24803 -0.49607,-0.17717 -0.53149,-0.17716 -0.4252,-0.2126 -0.35433,-0.24803 -0.24803,-0.24803 -0.28347,-0.38977 -0.31889,-0.49606 -0.28347,-0.49606 -0.46063,-0.88583 -0.2126,-0.38976 -5.03149,11.19685 9.95669,-7.15748 -0.38976,-0.0709 z" id="path2595" style="fill:#3f3d99;fill-opacity:1;fill-rule:evenodd;stroke:none"></path>
    <path d="m 171.95669,177.59055 -4.96063,9.24803" id="path2597" style="fill:none;stroke:#3f3d99;stroke-width:1.70078743px;stroke-linejoin:miter;stroke-miterlimit:1;stroke-opacity:1;stroke-dasharray:none"></path>
    <path d="m 169.51181,187.26378 -0.81496,-0.0709 -0.49606,-0.0354 -0.46063,-0.1063 -0.4252,-0.1063 -0.3189,-0.1063 -0.24803,-0.17716 -0.3189,-0.3189 -0.35433,-0.35433 -0.31889,-0.35433 -0.56693,-0.70866 -0.24804,-0.28347 -2.37401,10.48819 7.29921,-7.86614 -0.35433,0 z" id="path2599" style="fill:#3f3d99;fill-opacity:1;fill-rule:evenodd;stroke:none"></path>
    <path d="m 169.05118,150.73228 -1.91338,9.24803" id="path2601" style="fill:none;stroke:#3f3d99;stroke-width:1.70078743px;stroke-linejoin:miter;stroke-miterlimit:1;stroke-opacity:1;stroke-dasharray:none"></path>
    <path d="m 169.44094,159.73228 -0.70866,0.14174 -0.46063,0.0709 -0.42519,0.0709 -0.38977,0 -0.31889,-0.0354 -0.24804,-0.0709 -0.35433,-0.17717 -0.38976,-0.21259 -0.38976,-0.24804 -0.6378,-0.46063 -0.28346,-0.17716 0.60236,9.63779 4.2874,-8.64567 -0.28347,0.1063 z" id="path2603" style="fill:#3f3d99;fill-opacity:1;fill-rule:evenodd;stroke:none"></path>
    <path d="m 166.03937,123.90945 1.27559,9.24803" id="path2605" style="fill:none;stroke:#3f3d99;stroke-width:1.70078743px;stroke-linejoin:miter;stroke-miterlimit:1;stroke-opacity:1;stroke-dasharray:none"></path>
    <path d="m 169.33465,132.12992 -0.60237,0.38977 -0.35433,0.21259 -0.38976,0.2126 -0.35433,0.14173 -0.3189,0.0709 -0.28346,0 -0.38977,-0.0354 -0.42519,-0.0709 -0.4252,-0.1063 -0.77953,-0.2126 -0.3189,-0.0709 3.75591,8.7874 1.16929,-9.46063 -0.28346,0.14173 z" id="path2607" style="fill:#3f3d99;fill-opacity:1;fill-rule:evenodd;stroke:none"></path>
    <path d="m 163.09843,97.051181 4.3937,9.248029" id="path2609" style="fill:none;stroke:#3f3d99;stroke-width:1.70078743px;stroke-linejoin:miter;stroke-miterlimit:1;stroke-opacity:1;stroke-dasharray:none"></path>
    <path d="m 169.26378,104.59843 -0.49606,0.60236 -0.3189,0.35433 -0.35433,0.3189 -0.3189,0.24803 -0.28346,0.17716 -0.3189,0.1063 -0.38977,0.0709 -0.49606,0.0709 -0.49606,0.0354 -0.8504,0.0709 -0.35433,0 6.80315,7.93701 -1.91338,-10.27559 -0.2126,0.28347 z" id="path2611" style="fill:#3f3d99;fill-opacity:1;fill-rule:evenodd;stroke:none"></path>
    <path d="m 160.47638,70.228346 7.15748,9.248032" id="path2613" style="fill:none;stroke:#3f3d99;stroke-width:1.70078743px;stroke-linejoin:miter;stroke-miterlimit:1;stroke-opacity:1;stroke-dasharray:none"></path>
    <path d="m 169.19291,77.102362 -0.42519,0.814961 -0.28347,0.46063 -0.28346,0.425197 -0.28347,0.389763 -0.28346,0.283465 -0.3189,0.177165 -0.4252,0.177166 -0.53149,0.177165 -0.5315,0.177165 -0.95669,0.283465 -0.38977,0.07087 9.5315,7.228347 -4.64173,-10.984252 -0.17717,0.318897 z" id="path2615" style="fill:#3f3d99;fill-opacity:1;fill-rule:evenodd;stroke:none"></path>
    <path d="m 158.35039,43.370079 9.38977,9.248031" id="path2617" style="fill:none;stroke:#3f3d99;stroke-width:1.70078743px;stroke-linejoin:miter;stroke-miterlimit:1;stroke-opacity:1;stroke-dasharray:none"></path>
    <path d="m 169.15748,49.748031 -0.35433,0.956693 -0.24803,0.56693 -0.24803,0.531496 -0.28347,0.46063 -0.28346,0.35433 -0.3189,0.248032 -0.46063,0.283464 -0.5315,0.283465 -0.60236,0.283464 -0.99212,0.425197 -0.46063,0.177166 11.76378,6.590551 -6.83859,-11.551181 -0.14173,0.389763 z" id="path2619" style="fill:#3f3d99;fill-opacity:1;fill-rule:evenodd;stroke:none"></path>
    <path d="m 156.89764,16.547244 10.91338,9.248032" id="path2621" style="fill:none;stroke:#3f3d99;stroke-width:1.70078743px;stroke-linejoin:miter;stroke-miterlimit:1;stroke-opacity:1;stroke-dasharray:none"></path>
    <path d="m 169.12205,22.570866 -0.3189,1.062992 -0.2126,0.602362 -0.24803,0.637796 -0.24803,0.531496 -0.28347,0.389764 -0.31889,0.283464 -0.46063,0.354331 -0.56693,0.354331 -0.60237,0.318897 -1.06299,0.566929 -0.46063,0.212599 13.2874,6.200787 -8.39763,-11.976378 -0.1063,0.46063 z" id="path2623" style="fill:#3f3d99;fill-opacity:1;fill-rule:evenodd;stroke:none"></path>
    <path d="M 204.90945,313.93701 193.5,320.91732" id="path2625" style="fill:none;stroke:#3f3d99;stroke-width:1.70078743px;stroke-linejoin:miter;stroke-miterlimit:1;stroke-opacity:1;stroke-dasharray:none"></path>
    <path d="m 195.98031,323.00787 -0.85039,-0.60236 -0.49606,-0.35433 -0.46063,-0.38976 -0.38977,-0.38977 -0.28346,-0.35433 -0.17717,-0.38976 -0.14173,-0.49606 -0.14173,-0.6378 -0.14173,-0.63779 -0.17717,-1.09843 -0.0709,-0.46063 -9.38977,9.95669 13.11024,-3.89763 -0.38977,-0.24804 z" id="path2627" style="fill:#3f3d99;fill-opacity:1;fill-rule:evenodd;stroke:none"></path>
    <path d="M 205.19291,287.11417 193.5,294.05906" id="path2629" style="fill:none;stroke:#3f3d99;stroke-width:1.70078743px;stroke-linejoin:miter;stroke-miterlimit:1;stroke-opacity:1;stroke-dasharray:none"></path>
    <path d="m 195.98031,296.22047 -0.85039,-0.60236 -0.49606,-0.38976 -0.46063,-0.38977 -0.4252,-0.38976 -0.24803,-0.38976 -0.17717,-0.38977 -0.17716,-0.53149 -0.14173,-0.60237 -0.1063,-0.63779 -0.17717,-1.13386 -0.0354,-0.49606 -9.70866,10.06299 13.3937,-3.86221 -0.38977,-0.24803 z" id="path2631" style="fill:#3f3d99;fill-opacity:1;fill-rule:evenodd;stroke:none"></path>
    <path d="M 204.66142,260.25591 193.5,267.23622" id="path2633" style="fill:none;stroke:#3f3d99;stroke-width:1.70078743px;stroke-linejoin:miter;stroke-miterlimit:1;stroke-opacity:1;stroke-dasharray:none"></path>
    <path d="m 195.98031,269.25591 -0.85039,-0.56693 -0.49606,-0.35433 -0.46063,-0.38977 -0.38977,-0.35433 -0.28346,-0.35433 -0.14173,-0.35433 -0.17717,-0.5315 -0.14173,-0.60236 -0.14173,-0.60236 -0.17717,-1.09843 -0.0709,-0.46063 -9.1063,9.88583 12.79134,-3.9685 -0.35434,-0.24803 z" id="path2635" style="fill:#3f3d99;fill-opacity:1;fill-rule:evenodd;stroke:none"></path>
    <path d="m 203.35039,233.43307 -9.74409,6.94488" id="path2637" style="fill:none;stroke:#3f3d99;stroke-width:1.70078743px;stroke-linejoin:miter;stroke-miterlimit:1;stroke-opacity:1;stroke-dasharray:none"></path>
    <path d="m 195.94488,242.11417 -0.81496,-0.49606 -0.46063,-0.28346 -0.4252,-0.3189 -0.38976,-0.3189 -0.24803,-0.3189 -0.2126,-0.31889 -0.17716,-0.46063 -0.14174,-0.5315 -0.17716,-0.56693 -0.2126,-0.95669 -0.1063,-0.4252 -7.72441,9.5315 11.44488,-4.35827 -0.35433,-0.17717 z" id="path2639" style="fill:#3f3d99;fill-opacity:1;fill-rule:evenodd;stroke:none"></path>
    <path d="m 201.33071,206.5748 -7.61811,6.98032" id="path2641" style="fill:none;stroke:#3f3d99;stroke-width:1.70078743px;stroke-linejoin:miter;stroke-miterlimit:1;stroke-opacity:1;stroke-dasharray:none"></path>
    <path d="m 195.87402,214.75984 -0.70867,-0.3189 -0.42519,-0.21259 -0.4252,-0.2126 -0.35433,-0.24803 -0.24803,-0.2126 -0.2126,-0.24803 -0.17717,-0.38977 -0.21259,-0.42519 -0.17717,-0.46063 -0.3189,-0.81496 -0.1063,-0.35434 -5.66929,8.92914 9.35433,-4.88977 -0.31889,-0.14173 z" id="path2643" style="fill:#3f3d99;fill-opacity:1;fill-rule:evenodd;stroke:none"></path>
    <path d="m 198.77953,179.75197 -4.9252,6.94488" id="path2645" style="fill:none;stroke:#3f3d99;stroke-width:1.70078743px;stroke-linejoin:miter;stroke-miterlimit:1;stroke-opacity:1;stroke-dasharray:none"></path>
    <path d="m 195.83858,187.29921 -0.67323,-0.1063 -0.38976,-0.1063 -0.35433,-0.1063 -0.3189,-0.14173 -0.24803,-0.14173 -0.2126,-0.17716 -0.2126,-0.24804 -0.24803,-0.31889 -0.24803,-0.35433 -0.35433,-0.60237 -0.17717,-0.24803 -3.01181,8.22047 6.69685,-5.59842 -0.24803,-0.0709 z" id="path2647" style="fill:#3f3d99;fill-opacity:1;fill-rule:evenodd;stroke:none"></path>
    <path d="m 195.90945,152.8937 -1.91339,6.98032" id="path2649" style="fill:none;stroke:#3f3d99;stroke-width:1.70078743px;stroke-linejoin:miter;stroke-miterlimit:1;stroke-opacity:1;stroke-dasharray:none"></path>
    <path d="m 195.73228,159.76772 -0.53149,0.1063 -0.35433,0.0354 -0.3189,0 -0.28347,0 -0.24803,-0.0354 -0.2126,-0.0709 -0.24803,-0.17717 -0.28346,-0.17716 -0.28347,-0.2126 -0.49606,-0.35433 -0.17716,-0.17717 0,7.40552 3.68503,-6.37796 -0.24803,0.0354 z" id="path2651" style="fill:#3f3d99;fill-opacity:1;fill-rule:evenodd;stroke:none"></path>
    <path d="m 192.89764,126.07087 1.27559,6.94488" id="path2653" style="fill:none;stroke:#3f3d99;stroke-width:1.70078743px;stroke-linejoin:miter;stroke-miterlimit:1;stroke-opacity:1;stroke-dasharray:none"></path>
    <path d="m 195.66142,132.20079 -0.46063,0.3189 -0.24803,0.17716 -0.28347,0.14173 -0.28346,0.14173 -0.2126,0.0354 -0.24803,0.0354 -0.28347,-0.0354 -0.3189,-0.0354 -0.31889,-0.0709 -0.60237,-0.1063 -0.24803,-0.0709 3.15355,6.55512 0.53149,-7.22834 -0.17716,0.14173 z" id="path2655" style="fill:#3f3d99;fill-opacity:1;fill-rule:evenodd;stroke:none"></path>
    <path d="m 189.95669,99.212598 4.35827,6.980312" id="path2657" style="fill:none;stroke:#3f3d99;stroke-width:1.70078743px;stroke-linejoin:miter;stroke-miterlimit:1;stroke-opacity:1;stroke-dasharray:none"></path>
    <path d="m 195.59055,104.63386 -0.35433,0.53149 -0.2126,0.3189 -0.24803,0.28347 -0.24803,0.24803 -0.2126,0.17716 -0.2126,0.1063 -0.3189,0.1063 -0.38976,0.1063 -0.38976,0.0709 -0.67323,0.1063 -0.28347,0.0354 6.20079,5.70472 -2.51575,-8.00787 -0.14173,0.2126 z" id="path2659" style="fill:#3f3d99;fill-opacity:1;fill-rule:evenodd;stroke:none"></path>
    <path d="m 187.33465,72.389764 7.12204,6.944882" id="path2661" style="fill:none;stroke:#3f3d99;stroke-width:1.70078743px;stroke-linejoin:miter;stroke-miterlimit:1;stroke-opacity:1;stroke-dasharray:none"></path>
    <path d="m 195.51969,77.173228 -0.28347,0.744095 -0.17716,0.389764 -0.17717,0.425196 -0.2126,0.354331 -0.2126,0.248032 -0.24803,0.212598 -0.3189,0.212599 -0.42519,0.212598 -0.4252,0.212598 -0.77953,0.318898 -0.3189,0.141732 8.92914,4.96063 -5.2441,-8.751968 -0.10629,0.318897 z" id="path2663" style="fill:#3f3d99;fill-opacity:1;fill-rule:evenodd;stroke:none"></path>
    <path d="m 185.20866,45.531496 9.35433,6.980315" id="path2665" style="fill:none;stroke:#3f3d99;stroke-width:1.70078743px;stroke-linejoin:miter;stroke-miterlimit:1;stroke-opacity:1;stroke-dasharray:none"></path>
    <path d="m 195.44882,49.818898 -0.17717,0.885826 -0.14173,0.531496 -0.17716,0.496063 -0.17717,0.425197 -0.2126,0.354331 -0.24803,0.248032 -0.35433,0.318897 -0.46063,0.318898 -0.46063,0.283464 -0.85039,0.531496 -0.35433,0.212599 11.16141,4.322834 -7.47637,-9.318897 -0.0709,0.389764 z" id="path2667" style="fill:#3f3d99;fill-opacity:1;fill-rule:evenodd;stroke:none"></path>
    <path d="m 183.72047,18.708661 10.94882,6.980315" id="path2669" style="fill:none;stroke:#3f3d99;stroke-width:1.70078743px;stroke-linejoin:miter;stroke-miterlimit:1;stroke-opacity:1;stroke-dasharray:none"></path>
    <path d="m 195.41339,22.606299 -0.14174,1.027559 -0.1063,0.566929 -0.14173,0.56693 -0.17716,0.496063 -0.17717,0.425196 -0.24803,0.283465 -0.38976,0.354331 -0.49607,0.389763 -0.49606,0.389764 -0.88583,0.637795 -0.38976,0.248032 12.68504,3.933071 -8.96457,-9.744095 -0.0709,0.425197 z" id="path2671" style="fill:#3f3d99;fill-opacity:1;fill-rule:evenodd;stroke:none"></path>
    <path d="m 231.76772,316.59449 -11.40945,4.1811" id="path2673" style="fill:none;stroke:#3f3d99;stroke-width:1.70078743px;stroke-linejoin:miter;stroke-miterlimit:1;stroke-opacity:1;stroke-dasharray:none"></path>
    <path d="m 222.16535,323.07874 -0.63779,-0.67323 -0.38976,-0.4252 -0.3189,-0.42519 -0.28347,-0.4252 -0.17716,-0.35433 -0.1063,-0.38976 -0.0354,-0.49607 -0.0354,-0.56693 0,-0.56692 0.0354,-1.02756 0.0354,-0.4252 -10.13386,7.19291 12.36614,-1.13386 -0.3189,-0.28346 z" id="path2675" style="fill:#3f3d99;fill-opacity:1;fill-rule:evenodd;stroke:none"></path>
    <path d="m 232.05118,289.77165 -11.72835,4.14567" id="path2677" style="fill:none;stroke:#3f3d99;stroke-width:1.70078743px;stroke-linejoin:miter;stroke-miterlimit:1;stroke-opacity:1;stroke-dasharray:none"></path>
    <path d="m 222.20079,296.29134 -0.67323,-0.67323 -0.38976,-0.46063 -0.35434,-0.4252 -0.28346,-0.42519 -0.17717,-0.38977 -0.0709,-0.35433 -0.0709,-0.53149 0,-0.56693 0,-0.60237 0.0709,-1.02755 0,-0.46063 -10.41732,7.29921 12.6496,-1.09843 -0.28346,-0.28346 z" id="path2679" style="fill:#3f3d99;fill-opacity:1;fill-rule:evenodd;stroke:none"></path>
    <path d="m 231.48425,262.91339 -11.12598,4.1811" id="path2681" style="fill:none;stroke:#3f3d99;stroke-width:1.70078743px;stroke-linejoin:miter;stroke-miterlimit:1;stroke-opacity:1;stroke-dasharray:none"></path>
    <path d="m 222.16535,269.32677 -0.63779,-0.63779 -0.35433,-0.4252 -0.35433,-0.4252 -0.28347,-0.38976 -0.17716,-0.35433 -0.1063,-0.35433 -0.0354,-0.49607 -0.0354,-0.56692 0,-0.56693 0.0354,-0.99213 0.0354,-0.4252 -9.88583,7.12205 12.08268,-1.20472 -0.28347,-0.28347 z" id="path2683" style="fill:#3f3d99;fill-opacity:1;fill-rule:evenodd;stroke:none"></path>
    <path d="m 230.17323,236.09055 -9.7441,4.14567" id="path2685" style="fill:none;stroke:#3f3d99;stroke-width:1.70078743px;stroke-linejoin:miter;stroke-miterlimit:1;stroke-opacity:1;stroke-dasharray:none"></path>
    <path d="m 222.12992,242.18504 -0.60236,-0.56693 -0.35433,-0.35433 -0.3189,-0.35433 -0.24803,-0.35433 -0.17717,-0.3189 -0.1063,-0.3189 -0.0709,-0.42519 -0.0354,-0.49607 0,-0.49606 -0.0354,-0.88583 0,-0.38976 -8.50393,6.76772 10.73622,-1.59449 -0.28347,-0.2126 z" id="path2687" style="fill:#3f3d99;fill-opacity:1;fill-rule:evenodd;stroke:none"></path>
    <path d="m 228.15354,209.23228 -7.61811,4.18111" id="path2689" style="fill:none;stroke:#3f3d99;stroke-width:1.70078743px;stroke-linejoin:miter;stroke-miterlimit:1;stroke-opacity:1;stroke-dasharray:none"></path>
    <path d="m 222.09449,214.83071 -0.5315,-0.38977 -0.3189,-0.24803 -0.28346,-0.28346 -0.24803,-0.24803 -0.17717,-0.24803 -0.1063,-0.24804 -0.0709,-0.35433 -0.0709,-0.38976 -0.0709,-0.4252 -0.0709,-0.70866 -0.0354,-0.3189 -6.41339,6.16536 8.61024,-2.12599 -0.2126,-0.17716 z" id="path2691" style="fill:#3f3d99;fill-opacity:1;fill-rule:evenodd;stroke:none"></path>
    <path d="m 225.6378,182.40945 -4.96063,4.14567" id="path2693" style="fill:none;stroke:#3f3d99;stroke-width:1.70078743px;stroke-linejoin:miter;stroke-miterlimit:1;stroke-opacity:1;stroke-dasharray:none"></path>
    <path d="m 222.02362,187.37008 -0.46063,-0.2126 -0.24803,-0.14173 -0.24803,-0.14173 -0.24803,-0.14174 -0.14173,-0.17716 -0.1063,-0.14173 -0.1063,-0.24804 -0.14174,-0.28346 -0.10629,-0.28346 -0.14174,-0.5315 -0.0709,-0.2126 -3.75591,5.45669 5.95276,-2.83464 -0.17717,-0.1063 z" id="path2695" style="fill:#3f3d99;fill-opacity:1;fill-rule:evenodd;stroke:none"></path>
    <path d="m 222.73228,155.55118 -1.91338,4.1811" id="path2697" style="fill:none;stroke:#3f3d99;stroke-width:1.70078743px;stroke-linejoin:miter;stroke-miterlimit:1;stroke-opacity:1;stroke-dasharray:none"></path>
    <path d="m 221.95276,159.83858 -0.35433,0 -0.2126,0 -0.2126,-0.0354 -0.17717,-0.0354 -0.17716,-0.0354 -0.1063,-0.0709 -0.14173,-0.14173 -0.17717,-0.14174 -0.14173,-0.14173 -0.24803,-0.28346 -0.1063,-0.1063 -0.77953,4.6063 2.97638,-3.61418 -0.14173,0 z" id="path2699" style="fill:#3f3d99;fill-opacity:1;fill-rule:evenodd;stroke:none"></path>
    <path d="m 219.72047,128.72835 1.27559,4.14567" id="path2701" style="fill:none;stroke:#3f3d99;stroke-width:1.70078743px;stroke-linejoin:miter;stroke-miterlimit:1;stroke-opacity:1;stroke-dasharray:none"></path>
    <path d="m 221.84646,132.27165 -0.24803,0.2126 -0.14174,0.14173 -0.17716,0.1063 -0.14173,0.1063 -0.14174,0.0354 -0.14173,0.0354 -0.17716,0 -0.17717,0 -0.2126,0 -0.38976,-0.0354 -0.14173,-0.0354 2.37401,3.79134 -0.17716,-4.46457 -0.1063,0.1063 z" id="path2703" style="fill:#3f3d99;fill-opacity:1;fill-rule:evenodd;stroke:none"></path>
    <path d="m 216.77953,101.87008 4.3937,4.1811" id="path2705" style="fill:none;stroke:#3f3d99;stroke-width:1.70078743px;stroke-linejoin:miter;stroke-miterlimit:1;stroke-opacity:1;stroke-dasharray:none"></path>
    <path d="m 221.77559,104.70472 -0.14173,0.46063 -0.1063,0.24804 -0.1063,0.24803 -0.14173,0.2126 -0.1063,0.17716 -0.14173,0.1063 -0.2126,0.14173 -0.24803,0.14173 -0.28347,0.1063 -0.46063,0.2126 -0.17716,0.0709 5.42126,2.94094 -3.22441,-5.24409 -0.0709,0.17716 z" id="path2707" style="fill:#3f3d99;fill-opacity:1;fill-rule:evenodd;stroke:none"></path>
    <path d="m 214.15748,75.047244 7.15748,4.145669" id="path2709" style="fill:none;stroke:#3f3d99;stroke-width:1.70078743px;stroke-linejoin:miter;stroke-miterlimit:1;stroke-opacity:1;stroke-dasharray:none"></path>
    <path d="m 221.70472,77.244094 -0.0709,0.637796 -0.0354,0.389764 -0.0709,0.35433 -0.1063,0.318898 -0.1063,0.248031 -0.17716,0.212599 -0.2126,0.248031 -0.3189,0.248032 -0.28347,0.248031 -0.56692,0.425197 -0.24804,0.177166 8.18504,2.19685 -5.95275,-5.988189 -0.0354,0.283464 z" id="path2711" style="fill:#3f3d99;fill-opacity:1;fill-rule:evenodd;stroke:none"></path>
    <path d="m 212.0315,48.188976 9.38976,4.181103" id="path2713" style="fill:none;stroke:#3f3d99;stroke-width:1.70078743px;stroke-linejoin:miter;stroke-miterlimit:1;stroke-opacity:1;stroke-dasharray:none"></path>
    <path d="m 221.66929,49.889764 0,0.779527 -0.0354,0.496063 -0.0354,0.46063 -0.0709,0.425197 -0.1063,0.318898 -0.17717,0.283464 -0.24803,0.318898 -0.31889,0.354331 -0.35434,0.35433 -0.60236,0.602363 -0.28346,0.248031 10.38189,1.559055 -8.18504,-6.555118 0.0354,0.354331 z" id="path2715" style="fill:#3f3d99;fill-opacity:1;fill-rule:evenodd;stroke:none"></path>
    <path d="m 210.57874,21.366142 10.91339,4.145669" id="path2717" style="fill:none;stroke:#3f3d99;stroke-width:1.70078743px;stroke-linejoin:miter;stroke-miterlimit:1;stroke-opacity:1;stroke-dasharray:none"></path>
    <path d="m 221.63386,22.677165 0.0354,0.92126 0,0.531496 0,0.531496 -0.0709,0.496063 -0.1063,0.354331 -0.17717,0.318898 -0.24803,0.389763 -0.35433,0.425197 -0.38977,0.425197 -0.63779,0.744095 -0.3189,0.283464 11.94095,1.169292 -9.70866,-6.944882 0.0354,0.35433 z" id="path2719" style="fill:#3f3d99;fill-opacity:1;fill-rule:evenodd;stroke:none"></path>
    <path d="m 258.59055,319.53543 -11.40945,1.063" id="path2721" style="fill:none;stroke:#3f3d99;stroke-width:1.70078743px;stroke-linejoin:miter;stroke-miterlimit:1;stroke-opacity:1;stroke-dasharray:none"></path>
    <path d="m 248.31496,323.14961 -0.46063,-0.77953 -0.2126,-0.46063 -0.2126,-0.49606 -0.17716,-0.4252 -0.0709,-0.38976 0,-0.35434 0.0709,-0.46063 0.14173,-0.53149 0.14173,-0.5315 0.28347,-0.92126 0.1063,-0.38976 -10.98426,4.14567 11.55119,1.91338 -0.17717,-0.31889 z" id="path2723" style="fill:#3f3d99;fill-opacity:1;fill-rule:evenodd;stroke:none"></path>
    <path d="m 258.87402,292.7126 -11.69292,1.06299" id="path2725" style="fill:none;stroke:#3f3d99;stroke-width:1.70078743px;stroke-linejoin:miter;stroke-miterlimit:1;stroke-opacity:1;stroke-dasharray:none"></path>
    <path d="m 248.31496,296.3622 -0.46063,-0.77952 -0.24803,-0.49607 -0.2126,-0.46063 -0.14173,-0.46063 -0.0709,-0.38976 0,-0.38976 0.0709,-0.46063 0.1063,-0.5315 0.17716,-0.56693 0.28347,-0.92126 0.14173,-0.38976 -11.30315,4.21653 11.87008,1.98426 -0.2126,-0.35434 z" id="path2727" style="fill:#3f3d99;fill-opacity:1;fill-rule:evenodd;stroke:none"></path>
    <path d="m 258.34252,265.85433 -11.16142,1.06299" id="path2729" style="fill:none;stroke:#3f3d99;stroke-width:1.70078743px;stroke-linejoin:miter;stroke-miterlimit:1;stroke-opacity:1;stroke-dasharray:none"></path>
    <path d="m 248.27953,269.39764 -0.4252,-0.7441 -0.2126,-0.46063 -0.2126,-0.46063 -0.14173,-0.42519 -0.1063,-0.38977 0.0354,-0.35433 0.0709,-0.42519 0.1063,-0.5315 0.14173,-0.49606 0.24803,-0.92126 0.14174,-0.38977 -10.70079,4.07481 11.26772,1.84252 -0.2126,-0.3189 z" id="path2731" style="fill:#3f3d99;fill-opacity:1;fill-rule:evenodd;stroke:none"></path>
    <path d="m 256.99606,239.0315 -9.74409,1.06299" id="path2733" style="fill:none;stroke:#3f3d99;stroke-width:1.70078743px;stroke-linejoin:miter;stroke-miterlimit:1;stroke-opacity:1;stroke-dasharray:none"></path>
    <path d="m 248.24409,242.25591 -0.35433,-0.67323 -0.21259,-0.38977 -0.2126,-0.38976 -0.14174,-0.38976 -0.0709,-0.3189 0.0354,-0.3189 0.0354,-0.38976 0.1063,-0.46063 0.1063,-0.46063 0.2126,-0.77953 0.1063,-0.3189 -9.3189,3.68504 9.88583,1.45276 -0.17717,-0.24803 z" id="path2735" style="fill:#3f3d99;fill-opacity:1;fill-rule:evenodd;stroke:none"></path>
    <path d="m 255.01181,212.17323 -7.61811,1.06299" id="path2737" style="fill:none;stroke:#3f3d99;stroke-width:1.70078743px;stroke-linejoin:miter;stroke-miterlimit:1;stroke-opacity:1;stroke-dasharray:none"></path>
    <path d="m 248.20866,214.93701 -0.3189,-0.5315 -0.17716,-0.28346 -0.14173,-0.3189 -0.14174,-0.3189 -0.0354,-0.24803 -0.0354,-0.2126 0.0354,-0.3189 0.0709,-0.35433 0.0709,-0.38976 0.17717,-0.60236 0.0709,-0.28347 -7.26377,3.11811 7.8307,0.92126 -0.14173,-0.17716 z" id="path2739" style="fill:#3f3d99;fill-opacity:1;fill-rule:evenodd;stroke:none"></path>
    <path d="m 252.46063,185.35039 -4.96063,1.063" id="path2741" style="fill:none;stroke:#3f3d99;stroke-width:1.70078743px;stroke-linejoin:miter;stroke-miterlimit:1;stroke-opacity:1;stroke-dasharray:none"></path>
    <path d="m 248.1378,187.47638 -0.2126,-0.3189 -0.14174,-0.2126 -0.10629,-0.17716 -0.1063,-0.2126 -0.0709,-0.14173 0,-0.17717 0,-0.17716 0.0354,-0.24804 0.0354,-0.24803 0.0709,-0.42519 0.0354,-0.17717 -4.6063,2.40945 5.17322,0.2126 -0.10629,-0.1063 z" id="path2743" style="fill:#3f3d99;fill-opacity:1;fill-rule:evenodd;stroke:none"></path>
    <path d="m 249.59055,158.49213 -1.91338,1.06299" id="path2745" style="fill:none;stroke:#3f3d99;stroke-width:1.70078743px;stroke-linejoin:miter;stroke-miterlimit:1;stroke-opacity:1;stroke-dasharray:none"></path>
    <path d="m 248.06693,159.90945 -0.14173,-0.0709 -0.0709,-0.0709 -0.0709,-0.0709 -0.0709,-0.0709 -0.0354,-0.0709 -0.0354,-0.0354 0,-0.1063 -0.0354,-0.1063 0,-0.1063 -0.0354,-0.17717 0,-0.0709 -1.59449,1.55905 2.16142,-0.5315 -0.0709,-0.0709 z" id="path2747" style="fill:#3f3d99;fill-opacity:1;fill-rule:evenodd;stroke:none"></path>
    <path d="m 246.57874,131.66929 1.27559,1.06299" id="path2749" style="fill:none;stroke:#3f3d99;stroke-width:1.70078743px;stroke-linejoin:miter;stroke-miterlimit:1;stroke-opacity:1;stroke-dasharray:none"></path>
    <path d="m 247.99606,132.34252 -0.0354,0.14173 -0.0354,0.0709 -0.0354,0.0709 -0.0354,0.0354 0,0.0709 -0.0354,0.0354 -0.0709,0.0354 -0.0709,0.0354 -0.0709,0.0354 -0.1063,0.0709 -0.0709,0.0354 1.55906,0.70867 -0.99213,-1.38189 0,0.0354 z" id="path2751" style="fill:#3f3d99;fill-opacity:1;fill-rule:evenodd;stroke:none"></path>
    <path d="m 243.6378,104.81102 4.35826,1.063" id="path2753" style="fill:none;stroke:#3f3d99;stroke-width:1.70078743px;stroke-linejoin:miter;stroke-miterlimit:1;stroke-opacity:1;stroke-dasharray:none"></path>
    <path d="m 247.9252,104.81102 0.0354,0.3189 0.0354,0.2126 0.0354,0.2126 0,0.17716 -0.0354,0.14174 -0.0354,0.14173 -0.1063,0.17716 -0.1063,0.17717 -0.1063,0.17716 -0.24803,0.28347 -0.0709,0.14173 4.6063,-0.14173 -4.03937,-2.16142 0.0354,0.14173 z" id="path2755" style="fill:#3f3d99;fill-opacity:1;fill-rule:evenodd;stroke:none"></path>
    <path d="m 241.01575,77.988189 7.12205,1.062992" id="path2757" style="fill:none;stroke:#3f3d99;stroke-width:1.70078743px;stroke-linejoin:miter;stroke-miterlimit:1;stroke-opacity:1;stroke-dasharray:none"></path>
    <path d="m 247.85433,77.314961 0.14173,0.531496 0.0709,0.318897 0.0709,0.354331 0,0.283465 0,0.248031 -0.0709,0.212599 -0.1063,0.283464 -0.14173,0.283465 -0.17717,0.318897 -0.28346,0.496063 -0.14173,0.248032 7.33464,-0.885827 -6.76772,-2.905512 0.0709,0.212599 z" id="path2759" style="fill:#3f3d99;fill-opacity:1;fill-rule:evenodd;stroke:none"></path>
    <path d="m 238.88976,51.129921 9.35433,1.062992" id="path2761" style="fill:none;stroke:#3f3d99;stroke-width:1.70078743px;stroke-linejoin:miter;stroke-miterlimit:1;stroke-opacity:1;stroke-dasharray:none"></path>
    <path d="m 247.78346,49.96063 0.2126,0.708661 0.1063,0.425197 0.1063,0.389764 0.0354,0.389764 0,0.318897 -0.0354,0.283465 -0.14173,0.389764 -0.2126,0.389764 -0.17716,0.389763 -0.38977,0.708662 -0.17716,0.283464 9.56693,-1.488189 -9,-3.472441 0.10629,0.283465 z" id="path2763" style="fill:#3f3d99;fill-opacity:1;fill-rule:evenodd;stroke:none"></path>
    <path d="m 237.40157,24.307087 10.94882,1.062992" id="path2765" style="fill:none;stroke:#3f3d99;stroke-width:1.70078743px;stroke-linejoin:miter;stroke-miterlimit:1;stroke-opacity:1;stroke-dasharray:none"></path>
    <path d="m 247.74803,22.783465 0.28347,0.779527 0.1063,0.496063 0.14173,0.496063 0.0709,0.425197 0,0.389764 -0.0709,0.318897 -0.17717,0.425197 -0.2126,0.46063 -0.21259,0.496063 -0.4252,0.814961 -0.2126,0.35433 11.09055,-1.913385 -10.52362,-3.897638 0.14173,0.354331 z" id="path2767" style="fill:#3f3d99;fill-opacity:1;fill-rule:evenodd;stroke:none"></path>
    <path d="m 285.44882,322.54724 -11.40945,-2.12598" id="path2769" style="fill:none;stroke:#3f3d99;stroke-width:1.70078743px;stroke-linejoin:miter;stroke-miterlimit:1;stroke-opacity:1;stroke-dasharray:none"></path>
    <path d="m 274.3937,323.22047 -0.2126,-0.85039 -0.0709,-0.5315 -0.1063,-0.53149 0,-0.46063 0.0354,-0.4252 0.0709,-0.3189 0.21259,-0.42519 0.24804,-0.49607 0.31889,-0.46063 0.49607,-0.81496 0.24803,-0.35433 -11.83465,0.99213 10.70079,5.06693 -0.1063,-0.38977 z" id="path2771" style="fill:#3f3d99;fill-opacity:1;fill-rule:evenodd;stroke:none"></path>
    <path d="m 285.73228,295.72441 -11.72834,-2.12598" id="path2773" style="fill:none;stroke:#3f3d99;stroke-width:1.70078743px;stroke-linejoin:miter;stroke-miterlimit:1;stroke-opacity:1;stroke-dasharray:none"></path>
    <path d="m 274.42913,296.4685 -0.24803,-0.92126 -0.1063,-0.53149 -0.0709,-0.5315 -0.0354,-0.49606 0.0354,-0.38976 0.1063,-0.35434 0.21259,-0.42519 0.24804,-0.49607 0.31889,-0.49606 0.5315,-0.85039 0.2126,-0.35433 -12.11811,1.06299 11.01968,5.13779 -0.1063,-0.35433 z" id="path2775" style="fill:#3f3d99;fill-opacity:1;fill-rule:evenodd;stroke:none"></path>
    <path d="m 285.16535,268.86614 -11.12598,-2.09055" id="path2777" style="fill:none;stroke:#3f3d99;stroke-width:1.70078743px;stroke-linejoin:miter;stroke-miterlimit:1;stroke-opacity:1;stroke-dasharray:none"></path>
    <path d="m 274.3937,269.50394 -0.17716,-0.88583 -0.1063,-0.49606 -0.0709,-0.49607 -0.0354,-0.49606 0.0354,-0.35433 0.1063,-0.35433 0.17716,-0.4252 0.28347,-0.46063 0.28346,-0.46063 0.49607,-0.77952 0.24803,-0.35434 -11.58662,0.92126 10.45276,4.99607 -0.1063,-0.35433 z" id="path2779" style="fill:#3f3d99;fill-opacity:1;fill-rule:evenodd;stroke:none"></path>
    <path d="m 283.85433,242.04331 -9.74409,-2.12599" id="path2781" style="fill:none;stroke:#3f3d99;stroke-width:1.70078743px;stroke-linejoin:miter;stroke-miterlimit:1;stroke-opacity:1;stroke-dasharray:none"></path>
    <path d="m 274.35827,242.32677 -0.14173,-0.74409 -0.0709,-0.46063 -0.0709,-0.46063 0,-0.38977 0.0354,-0.35433 0.1063,-0.28346 0.17716,-0.35433 0.24803,-0.4252 0.24803,-0.38976 0.46063,-0.70866 0.2126,-0.28347 -10.20472,0.5315 9.07086,4.64173 -0.0709,-0.3189 z" id="path2783" style="fill:#3f3d99;fill-opacity:1;fill-rule:evenodd;stroke:none"></path>
    <path d="m 281.83465,215.18504 -7.61811,-2.09055" id="path2785" style="fill:none;stroke:#3f3d99;stroke-width:1.70078743px;stroke-linejoin:miter;stroke-miterlimit:1;stroke-opacity:1;stroke-dasharray:none"></path>
    <path d="m 274.32283,215.00787 -0.10629,-0.60236 -0.0354,-0.38976 0,-0.35433 0,-0.3189 0.0354,-0.24803 0.10629,-0.24803 0.14174,-0.28347 0.2126,-0.28346 0.21259,-0.3189 0.4252,-0.5315 0.17717,-0.21259 -8.11418,-0.0354 6.98032,4.07481 -0.0354,-0.24804 z" id="path2787" style="fill:#3f3d99;fill-opacity:1;fill-rule:evenodd;stroke:none"></path>
    <path d="m 279.3189,188.3622 -4.96063,-2.12598" id="path2789" style="fill:none;stroke:#3f3d99;stroke-width:1.70078743px;stroke-linejoin:miter;stroke-miterlimit:1;stroke-opacity:1;stroke-dasharray:none"></path>
    <path d="m 274.25197,187.54724 0,-0.42519 0,-0.24803 0,-0.24804 0.0354,-0.21259 0.0709,-0.17717 0.0709,-0.14173 0.14174,-0.17717 0.17716,-0.17716 0.17717,-0.2126 0.31889,-0.28347 0.14174,-0.14173 -5.4567,-0.77953 4.32284,3.40158 0,-0.17717 z" id="path2791" style="fill:#3f3d99;fill-opacity:1;fill-rule:evenodd;stroke:none"></path>
    <path d="M 276.41339,161.50394 274.5,159.41339" id="path2793" style="fill:none;stroke:#3f3d99;stroke-width:1.70078743px;stroke-linejoin:miter;stroke-miterlimit:1;stroke-opacity:1;stroke-dasharray:none"></path>
    <path d="m 274.1811,160.01575 0.0709,-0.2126 0.0709,-0.1063 0.0709,-0.14173 0.0709,-0.0709 0.0354,-0.0709 0.0709,-0.0709 0.1063,-0.0354 0.14173,-0.0709 0.1063,-0.0354 0.24803,-0.1063 0.0709,0 -2.44488,-1.59449 1.34646,2.58661 0.0354,-0.0709 z" id="path2795" style="fill:#3f3d99;fill-opacity:1;fill-rule:evenodd;stroke:none"></path>
    <path d="m 273.40157,134.6811 1.2756,-2.12598" id="path2797" style="fill:none;stroke:#3f3d99;stroke-width:1.70078743px;stroke-linejoin:miter;stroke-miterlimit:1;stroke-opacity:1;stroke-dasharray:none"></path>
    <path d="m 274.0748,132.41339 0.2126,0.0354 0.1063,0.0354 0.1063,0 0.1063,0.0354 0.0709,0.0354 0.0709,0.0354 0.0709,0.1063 0.0709,0.0709 0.0709,0.1063 0.1063,0.14173 0.0709,0.0709 0.67322,-2.40944 -1.80708,1.73622 0.0709,0 z" id="path2799" style="fill:#3f3d99;fill-opacity:1;fill-rule:evenodd;stroke:none"></path>
    <path d="m 270.46063,107.82283 4.3937,-2.09055" id="path2801" style="fill:none;stroke:#3f3d99;stroke-width:1.70078743px;stroke-linejoin:miter;stroke-miterlimit:1;stroke-opacity:1;stroke-dasharray:none"></path>
    <path d="m 274.00394,104.88189 0.28346,0.24803 0.17717,0.14173 0.14173,0.14174 0.14173,0.17716 0.1063,0.14173 0.0354,0.14174 0.0354,0.17716 0.0354,0.2126 0.0354,0.24803 0,0.4252 0,0.14173 3.75591,-3.25984 -4.85433,0.95669 0.1063,0.1063 z" id="path2803" style="fill:#3f3d99;fill-opacity:1;fill-rule:evenodd;stroke:none"></path>
    <path d="m 267.83858,81 7.15748,-2.125984" id="path2805" style="fill:none;stroke:#3f3d99;stroke-width:1.70078743px;stroke-linejoin:miter;stroke-miterlimit:1;stroke-opacity:1;stroke-dasharray:none"></path>
    <path d="m 273.93307,77.385827 0.38976,0.46063 0.2126,0.248031 0.17717,0.283465 0.17716,0.283464 0.1063,0.212599 0.0354,0.248031 0,0.283465 0,0.354331 -0.0354,0.35433 -0.0709,0.637796 -0.0354,0.248031 6.48426,-4.003937 -7.58268,0.212598 0.14173,0.177166 z" id="path2807" style="fill:#3f3d99;fill-opacity:1;fill-rule:evenodd;stroke:none"></path>
    <path d="m 265.7126,54.177165 9.38976,-2.125984" id="path2809" style="fill:none;stroke:#3f3d99;stroke-width:1.70078743px;stroke-linejoin:miter;stroke-miterlimit:1;stroke-opacity:1;stroke-dasharray:none"></path>
    <path d="m 273.89764,50.031496 0.42519,0.602362 0.24804,0.389764 0.24803,0.354331 0.17716,0.35433 0.1063,0.318898 0.0354,0.283465 -0.0354,0.389763 -0.0354,0.46063 -0.0709,0.46063 -0.1063,0.779528 -0.0709,0.354331 8.6811,-4.641733 -9.81496,-0.35433 0.2126,0.248031 z" id="path2811" style="fill:#3f3d99;fill-opacity:1;fill-rule:evenodd;stroke:none"></path>
    <path d="m 264.25984,27.318898 10.91339,-2.125985" id="path2813" style="fill:none;stroke:#3f3d99;stroke-width:1.70078743px;stroke-linejoin:miter;stroke-miterlimit:1;stroke-opacity:1;stroke-dasharray:none"></path>
    <path d="m 273.8622,22.854331 0.49607,0.708661 0.24803,0.425197 0.24803,0.425197 0.2126,0.425197 0.1063,0.35433 0.0354,0.354331 -0.0354,0.46063 -0.0709,0.496063 -0.0709,0.531496 -0.17717,0.92126 -0.1063,0.389764 10.24016,-5.031496 -11.37402,-0.744095 0.24803,0.283465 z" id="path2815" style="fill:#3f3d99;fill-opacity:1;fill-rule:evenodd;stroke:none"></path>
    <path d="M 312.27165,325.41732 300.8622,320.27953" id="path2817" style="fill:none;stroke:#3f3d99;stroke-width:1.70078743px;stroke-linejoin:miter;stroke-miterlimit:1;stroke-opacity:1;stroke-dasharray:none"></path>
    <path d="m 300.54331,323.29134 0,-0.95669 0.0354,-0.56693 0.0709,-0.56693 0.0709,-0.5315 0.14173,-0.38976 0.2126,-0.3189 0.3189,-0.4252 0.38976,-0.42519 0.4252,-0.4252 0.7441,-0.70866 0.35433,-0.3189 -12.68504,-1.98425 9.95669,8.04331 -0.0354,-0.4252 z" id="path2819" style="fill:#3f3d99;fill-opacity:1;fill-rule:evenodd;stroke:none"></path>
    <path d="m 312.55512,298.59449 -11.69292,-5.1378" id="path2821" style="fill:none;stroke:#3f3d99;stroke-width:1.70078743px;stroke-linejoin:miter;stroke-miterlimit:1;stroke-opacity:1;stroke-dasharray:none"></path>
    <path d="m 300.54331,296.53937 0,-0.99213 0.0354,-0.60236 0.0354,-0.56693 0.1063,-0.53149 0.14173,-0.38977 0.17717,-0.35433 0.3189,-0.42519 0.42519,-0.4252 0.4252,-0.46063 0.7441,-0.7441 0.35433,-0.28346 -12.96851,-1.94882 10.24016,8.14961 -0.0354,-0.4252 z" id="path2823" style="fill:#3f3d99;fill-opacity:1;fill-rule:evenodd;stroke:none"></path>
    <path d="M 312.02362,271.73622 300.8622,266.59843" id="path2825" style="fill:none;stroke:#3f3d99;stroke-width:1.70078743px;stroke-linejoin:miter;stroke-miterlimit:1;stroke-opacity:1;stroke-dasharray:none"></path>
    <path d="m 300.54331,269.5748 0,-0.95669 0.0354,-0.56693 0.0709,-0.56693 0.1063,-0.49606 0.10629,-0.38976 0.2126,-0.3189 0.3189,-0.38977 0.38976,-0.42519 0.4252,-0.4252 0.7441,-0.67323 0.31889,-0.3189 -12.36614,-2.05511 9.6378,7.97244 0,-0.38977 z" id="path2827" style="fill:#3f3d99;fill-opacity:1;fill-rule:evenodd;stroke:none"></path>
    <path d="m 310.67717,244.91339 -9.7441,-5.1378" id="path2829" style="fill:none;stroke:#3f3d99;stroke-width:1.70078743px;stroke-linejoin:miter;stroke-miterlimit:1;stroke-opacity:1;stroke-dasharray:none"></path>
    <path d="m 300.50787,242.39764 0.0709,-0.8504 0.0354,-0.49606 0.0709,-0.49606 0.1063,-0.46063 0.14173,-0.3189 0.2126,-0.28346 0.28346,-0.35433 0.38977,-0.35434 0.38976,-0.35433 0.70866,-0.56693 0.3189,-0.24803 -11.01968,-2.48031 8.29133,7.61811 0,-0.35433 z" id="path2831" style="fill:#3f3d99;fill-opacity:1;fill-rule:evenodd;stroke:none"></path>
    <path d="m 308.69291,218.05512 -7.61811,-5.1378" id="path2833" style="fill:none;stroke:#3f3d99;stroke-width:1.70078743px;stroke-linejoin:miter;stroke-miterlimit:1;stroke-opacity:1;stroke-dasharray:none"></path>
    <path d="m 300.47244,215.07874 0.1063,-0.70866 0.1063,-0.4252 0.1063,-0.38976 0.1063,-0.35433 0.17716,-0.28347 0.17717,-0.2126 0.28346,-0.24803 0.3189,-0.24803 0.35433,-0.28346 0.6378,-0.4252 0.28346,-0.17717 -8.92913,-3.01181 6.20078,7.05118 0.0709,-0.28346 z" id="path2835" style="fill:#3f3d99;fill-opacity:1;fill-rule:evenodd;stroke:none"></path>
    <path d="m 306.14173,191.23228 -4.96063,-5.13779" id="path2837" style="fill:none;stroke:#3f3d99;stroke-width:1.70078743px;stroke-linejoin:miter;stroke-miterlimit:1;stroke-opacity:1;stroke-dasharray:none"></path>
    <path d="m 300.40157,187.61811 0.2126,-0.49606 0.1063,-0.3189 0.17717,-0.28346 0.14173,-0.24804 0.14173,-0.17716 0.17717,-0.14173 0.24803,-0.14174 0.3189,-0.14173 0.31889,-0.14173 0.56693,-0.2126 0.2126,-0.1063 -6.27165,-3.7559 3.54331,6.37795 0.10629,-0.2126 z" id="path2839" style="fill:#3f3d99;fill-opacity:1;fill-rule:evenodd;stroke:none"></path>
    <path d="m 303.27165,164.37402 -1.91338,-5.1378" id="path2841" style="fill:none;stroke:#3f3d99;stroke-width:1.70078743px;stroke-linejoin:miter;stroke-miterlimit:1;stroke-opacity:1;stroke-dasharray:none"></path>
    <path d="m 300.33071,160.08661 0.28346,-0.31889 0.17717,-0.14174 0.2126,-0.17716 0.17716,-0.1063 0.17717,-0.1063 0.14173,-0.0354 0.24803,-0.0354 0.24803,0 0.24803,0 0.46063,0.0354 0.2126,0 -3.25984,-4.57087 0.5315,5.56299 0.14173,-0.1063 z" id="path2843" style="fill:#3f3d99;fill-opacity:1;fill-rule:evenodd;stroke:none"></path>
    <path d="M 300.22441,137.55118 301.5,132.41339" id="path2845" style="fill:none;stroke:#3f3d99;stroke-width:1.70078743px;stroke-linejoin:miter;stroke-miterlimit:1;stroke-opacity:1;stroke-dasharray:none"></path>
    <path d="m 300.22441,132.51969 0.4252,-0.0709 0.24803,-0.0354 0.2126,-0.0354 0.21259,0 0.17717,0.0354 0.17717,0.0354 0.17716,0.1063 0.2126,0.14173 0.2126,0.14173 0.35433,0.24803 0.14173,0.14174 -0.1063,-5.42126 -2.62205,4.74803 0.17717,-0.0354 z" id="path2847" style="fill:#3f3d99;fill-opacity:1;fill-rule:evenodd;stroke:none"></path>
    <path d="m 297.3189,110.69291 4.35827,-5.13779" id="path2849" style="fill:none;stroke:#3f3d99;stroke-width:1.70078743px;stroke-linejoin:miter;stroke-miterlimit:1;stroke-opacity:1;stroke-dasharray:none"></path>
    <path d="m 300.15354,104.95276 0.49607,0.14173 0.31889,0.1063 0.28347,0.1063 0.24803,0.14173 0.17717,0.1063 0.14173,0.17716 0.14173,0.2126 0.17717,0.24803 0.17716,0.3189 0.24803,0.49606 0.1063,0.2126 2.94095,-6.27165 -5.6693,3.93307 0.2126,0.0709 z" id="path2851" style="fill:#3f3d99;fill-opacity:1;fill-rule:evenodd;stroke:none"></path>
    <path d="m 294.69685,83.870079 7.12205,-5.137796" id="path2853" style="fill:none;stroke:#3f3d99;stroke-width:1.70078743px;stroke-linejoin:miter;stroke-miterlimit:1;stroke-opacity:1;stroke-dasharray:none"></path>
    <path d="m 300.08268,77.492126 0.60236,0.318898 0.3189,0.212598 0.35433,0.248032 0.24803,0.248031 0.2126,0.212598 0.14173,0.212599 0.1063,0.354331 0.14173,0.389763 0.1063,0.425197 0.17717,0.708662 0.0709,0.283464 5.66929,-6.980315 -8.39763,3.22441 0.24803,0.141732 z" id="path2855" style="fill:#3f3d99;fill-opacity:1;fill-rule:evenodd;stroke:none"></path>
    <path d="m 292.57087,57.047244 9.35433,-5.173228" id="path2857" style="fill:none;stroke:#3f3d99;stroke-width:1.70078743px;stroke-linejoin:miter;stroke-miterlimit:1;stroke-opacity:1;stroke-dasharray:none"></path>
    <path d="m 300.04724,50.137795 0.6378,0.496063 0.38976,0.318898 0.35433,0.318898 0.28347,0.318897 0.2126,0.283465 0.14173,0.318897 0.1063,0.425197 0.0709,0.496063 0.1063,0.496063 0.0709,0.885827 0.0354,0.389764 7.90158,-7.61811 -10.62992,2.65748 0.31889,0.212598 z" id="path2859" style="fill:#3f3d99;fill-opacity:1;fill-rule:evenodd;stroke:none"></path>
    <path d="M 291.08268,30.188976 302.0315,25.051181" id="path2861" style="fill:none;stroke:#3f3d99;stroke-width:1.70078743px;stroke-linejoin:miter;stroke-miterlimit:1;stroke-opacity:1;stroke-dasharray:none"></path>
    <path d="m 299.97638,22.925197 0.74409,0.602362 0.38977,0.389764 0.38976,0.389764 0.3189,0.389763 0.2126,0.354331 0.1063,0.354331 0.10629,0.46063 0.0709,0.566929 0.0354,0.602362 0.0354,0.992126 0.0354,0.425197 9.38976,-8.007874 -12.11811,2.232283 0.28347,0.248032 z" id="path2863" style="fill:#3f3d99;fill-opacity:1;fill-rule:evenodd;stroke:none"></path>
    <path d="M 339.12992,327.93307 327.68504,320.1378" id="path2865" style="fill:none;stroke:#3f3d99;stroke-width:1.70078743px;stroke-linejoin:miter;stroke-miterlimit:1;stroke-opacity:1;stroke-dasharray:none"></path>
    <path d="m 326.79921,323.3622 0.17717,-1.06299 0.14173,-0.60236 0.17717,-0.60236 0.17716,-0.5315 0.2126,-0.42519 0.28346,-0.3189 0.4252,-0.35433 0.5315,-0.38977 0.53149,-0.38976 0.9567,-0.6378 0.42519,-0.28346 -13.35827,-4.6063 9.24804,10.66535 0.0709,-0.46063 z" id="path2867" style="fill:#3f3d99;fill-opacity:1;fill-rule:evenodd;stroke:none"></path>
    <path d="m 339.37795,301.11024 -11.69291,-7.79528" id="path2869" style="fill:none;stroke:#3f3d99;stroke-width:1.70078743px;stroke-linejoin:miter;stroke-miterlimit:1;stroke-opacity:1;stroke-dasharray:none"></path>
    <path d="m 326.79921,296.61024 0.17717,-1.09843 0.14173,-0.60236 0.14173,-0.6378 0.2126,-0.53149 0.2126,-0.4252 0.28346,-0.35433 0.4252,-0.35433 0.5315,-0.4252 0.53149,-0.38976 0.99213,-0.67323 0.4252,-0.28346 -13.67717,-4.5 9.5315,10.73622 0.0709,-0.46063 z" id="path2871" style="fill:#3f3d99;fill-opacity:1;fill-rule:evenodd;stroke:none"></path>
    <path d="m 338.84646,274.25197 -11.12599,-7.79528" id="path2873" style="fill:none;stroke:#3f3d99;stroke-width:1.70078743px;stroke-linejoin:miter;stroke-miterlimit:1;stroke-opacity:1;stroke-dasharray:none"></path>
    <path d="m 326.76378,269.64567 0.2126,-1.06299 0.14173,-0.60237 0.17717,-0.60236 0.21259,-0.49606 0.2126,-0.4252 0.28347,-0.31889 0.42519,-0.35434 0.49607,-0.38976 0.53149,-0.35433 0.9567,-0.60236 0.42519,-0.28347 -13.11023,-4.67716 8.96456,10.59449 0.0709,-0.4252 z" id="path2875" style="fill:#3f3d99;fill-opacity:1;fill-rule:evenodd;stroke:none"></path>
    <path d="m 337.53543,247.42913 -9.74409,-7.79527" id="path2877" style="fill:none;stroke:#3f3d99;stroke-width:1.70078743px;stroke-linejoin:miter;stroke-miterlimit:1;stroke-opacity:1;stroke-dasharray:none"></path>
    <path d="m 326.72835,242.4685 0.24803,-0.92126 0.17716,-0.56693 0.17717,-0.53149 0.2126,-0.46063 0.24803,-0.35433 0.28346,-0.28347 0.38977,-0.28346 0.49606,-0.35433 0.49606,-0.28347 0.92126,-0.53149 0.38977,-0.2126 -11.72835,-5.0315 7.61811,10.20473 0.0709,-0.38977 z" id="path2879" style="fill:#3f3d99;fill-opacity:1;fill-rule:evenodd;stroke:none"></path>
    <path d="m 335.51575,220.57087 -7.61811,-7.79528" id="path2881" style="fill:none;stroke:#3f3d99;stroke-width:1.70078743px;stroke-linejoin:miter;stroke-miterlimit:1;stroke-opacity:1;stroke-dasharray:none"></path>
    <path d="m 326.69291,215.14961 0.3189,-0.77953 0.17717,-0.46063 0.24803,-0.46063 0.2126,-0.38976 0.24803,-0.28347 0.24803,-0.17716 0.38976,-0.24804 0.46063,-0.21259 0.49607,-0.2126 0.85039,-0.35433 0.35433,-0.14174 -9.63779,-5.63385 5.49212,9.67322 0.14173,-0.31889 z" id="path2883" style="fill:#3f3d99;fill-opacity:1;fill-rule:evenodd;stroke:none"></path>
    <path d="m 333,193.74803 -4.96063,-7.79527" id="path2885" style="fill:none;stroke:#3f3d99;stroke-width:1.70078743px;stroke-linejoin:miter;stroke-miterlimit:1;stroke-opacity:1;stroke-dasharray:none"></path>
    <path d="m 326.62205,187.68898 0.38976,-0.60237 0.24803,-0.35433 0.28347,-0.31889 0.24803,-0.28347 0.24803,-0.17716 0.24803,-0.14174 0.35433,-0.1063 0.4252,-0.10629 0.4252,-0.1063 0.77952,-0.1063 0.3189,-0.0709 -6.98031,-6.34252 2.83464,8.96457 0.17717,-0.24803 z" id="path2887" style="fill:#3f3d99;fill-opacity:1;fill-rule:evenodd;stroke:none"></path>
    <path d="m 330.09449,166.88976 -1.91339,-7.79527" id="path2889" style="fill:none;stroke:#3f3d99;stroke-width:1.70078743px;stroke-linejoin:miter;stroke-miterlimit:1;stroke-opacity:1;stroke-dasharray:none"></path>
    <path d="m 326.55118,160.15748 0.49606,-0.38976 0.28347,-0.2126 0.3189,-0.2126 0.28346,-0.14173 0.24803,-0.1063 0.24803,-0.0354 0.3189,0.0354 0.38977,0 0.38976,0.0709 0.67323,0.0709 0.28346,0.0709 -4.00394,-7.19292 -0.14173,8.18504 0.2126,-0.14173 z" id="path2891" style="fill:#3f3d99;fill-opacity:1;fill-rule:evenodd;stroke:none"></path>
    <path d="m 327.08268,140.06693 1.27559,-7.79528" id="path2893" style="fill:none;stroke:#3f3d99;stroke-width:1.70078743px;stroke-linejoin:miter;stroke-miterlimit:1;stroke-opacity:1;stroke-dasharray:none"></path>
    <path d="m 326.48031,132.55512 0.56693,-0.14173 0.35433,-0.0709 0.35434,-0.0709 0.31889,-0.0354 0.28347,0.0354 0.24803,0.0709 0.28346,0.1063 0.3189,0.17716 0.35433,0.2126 0.5315,0.3189 0.24803,0.17717 -0.85039,-8.04331 -3.25985,7.37008 0.24803,-0.1063 z" id="path2895" style="fill:#3f3d99;fill-opacity:1;fill-rule:evenodd;stroke:none"></path>
    <path d="M 324.14173,113.20866 328.5,105.41339" id="path2897" style="fill:none;stroke:#3f3d99;stroke-width:1.70078743px;stroke-linejoin:miter;stroke-miterlimit:1;stroke-opacity:1;stroke-dasharray:none"></path>
    <path d="m 326.37402,105.02362 0.70866,0.0709 0.38976,0.0354 0.4252,0.0709 0.35433,0.1063 0.24803,0.1063 0.24803,0.17716 0.24803,0.24803 0.28347,0.3189 0.28346,0.3189 0.46063,0.60236 0.2126,0.24803 2.19685,-8.893699 -6.34252,6.555119 0.28347,0.0354 z" id="path2899" style="fill:#3f3d99;fill-opacity:1;fill-rule:evenodd;stroke:none"></path>
    <path d="m 321.51969,86.385827 7.15748,-7.795276" id="path2901" style="fill:none;stroke:#3f3d99;stroke-width:1.70078743px;stroke-linejoin:miter;stroke-miterlimit:1;stroke-opacity:1;stroke-dasharray:none"></path>
    <path d="m 326.30315,77.527559 0.77953,0.283465 0.46063,0.177165 0.46063,0.177165 0.35433,0.212599 0.3189,0.212598 0.21259,0.248032 0.2126,0.35433 0.24803,0.425197 0.24804,0.46063 0.35433,0.814961 0.17716,0.318897 4.9252,-9.602362 -9.07087,5.846457 0.3189,0.07087 z" id="path2903" style="fill:#3f3d99;fill-opacity:1;fill-rule:evenodd;stroke:none"></path>
    <path d="m 319.3937,59.527559 9.38976,-7.795276" id="path2905" style="fill:none;stroke:#3f3d99;stroke-width:1.70078743px;stroke-linejoin:miter;stroke-miterlimit:1;stroke-opacity:1;stroke-dasharray:none"></path>
    <path d="m 326.26772,50.173228 0.85039,0.425197 0.49606,0.283465 0.46063,0.283464 0.38977,0.283465 0.31889,0.283464 0.2126,0.318898 0.2126,0.46063 0.2126,0.531496 0.17717,0.566929 0.31889,0.956693 0.1063,0.425197 7.15748,-10.240157 -11.30315,5.279527 0.38977,0.141732 z" id="path2907" style="fill:#3f3d99;fill-opacity:1;fill-rule:evenodd;stroke:none"></path>
    <path d="m 317.94094,32.704724 10.91339,-7.795275" id="path2909" style="fill:none;stroke:#3f3d99;stroke-width:1.70078743px;stroke-linejoin:miter;stroke-miterlimit:1;stroke-opacity:1;stroke-dasharray:none"></path>
    <path d="m 326.23228,22.996063 0.88583,0.531496 0.5315,0.318898 0.49606,0.35433 0.4252,0.354331 0.28346,0.354331 0.2126,0.354331 0.17716,0.531496 0.2126,0.566929 0.14174,0.637795 0.28346,1.098425 0.0709,0.46063 8.6811,-10.629921 -12.79134,4.854331 0.38976,0.212598 z" id="path2911" style="fill:#3f3d99;fill-opacity:1;fill-rule:evenodd;stroke:none"></path>
    <path d="M 365.95276,329.91732 354.54331,320.0315" id="path2913" style="fill:none;stroke:#3f3d99;stroke-width:1.70078743px;stroke-linejoin:miter;stroke-miterlimit:1;stroke-opacity:1;stroke-dasharray:none"></path>
    <path d="m 353.16142,323.43307 0.31889,-1.13386 0.24804,-0.63779 0.24803,-0.6378 0.28346,-0.56693 0.28347,-0.42519 0.35433,-0.3189 0.49606,-0.35433 0.60236,-0.35433 0.6378,-0.35433 1.13386,-0.56693 0.49606,-0.2126 -13.96063,-6.66142 8.71654,12.68504 0.14173,-0.46063 z" id="path2915" style="fill:#3f3d99;fill-opacity:1;fill-rule:evenodd;stroke:none"></path>
    <path d="m 366.23622,303.05906 -11.69291,-9.8504" id="path2917" style="fill:none;stroke:#3f3d99;stroke-width:1.70078743px;stroke-linejoin:miter;stroke-miterlimit:1;stroke-opacity:1;stroke-dasharray:none"></path>
    <path d="m 353.16142,296.64567 0.31889,-1.13386 0.2126,-0.67323 0.24803,-0.63779 0.28347,-0.56693 0.3189,-0.4252 0.31889,-0.3189 0.5315,-0.38976 0.60236,-0.35433 0.6378,-0.38976 1.13386,-0.56693 0.49606,-0.24804 -14.24409,-6.59055 9,12.79134 0.14173,-0.49606 z" id="path2919" style="fill:#3f3d99;fill-opacity:1;fill-rule:evenodd;stroke:none"></path>
    <path d="m 365.70472,276.23622 -11.16141,-9.88583" id="path2921" style="fill:none;stroke:#3f3d99;stroke-width:1.70078743px;stroke-linejoin:miter;stroke-miterlimit:1;stroke-opacity:1;stroke-dasharray:none"></path>
    <path d="m 353.12598,269.6811 0.35433,-1.09842 0.24804,-0.6378 0.24803,-0.63779 0.28346,-0.5315 0.28347,-0.4252 0.35433,-0.28346 0.49606,-0.35433 0.60236,-0.35433 0.6378,-0.3189 1.13386,-0.56693 0.46063,-0.2126 -13.67717,-6.73228 8.46851,12.61417 0.10629,-0.46063 z" id="path2923" style="fill:#3f3d99;fill-opacity:1;fill-rule:evenodd;stroke:none"></path>
    <path d="m 364.35827,249.37795 -9.7441,-9.85039" id="path2925" style="fill:none;stroke:#3f3d99;stroke-width:1.70078743px;stroke-linejoin:miter;stroke-miterlimit:1;stroke-opacity:1;stroke-dasharray:none"></path>
    <path d="m 353.09055,242.50394 0.38976,-0.99213 0.28347,-0.56693 0.28346,-0.56693 0.28347,-0.49606 0.28346,-0.35433 0.35433,-0.28347 0.49607,-0.28346 0.56693,-0.28346 0.60236,-0.28347 1.09842,-0.4252 0.46063,-0.17716 -12.29527,-7.12205 7.05118,12.29528 0.14173,-0.46063 z" id="path2927" style="fill:#3f3d99;fill-opacity:1;fill-rule:evenodd;stroke:none"></path>
    <path d="m 362.37402,222.55512 -7.65355,-9.88583" id="path2929" style="fill:none;stroke:#3f3d99;stroke-width:1.70078743px;stroke-linejoin:miter;stroke-miterlimit:1;stroke-opacity:1;stroke-dasharray:none"></path>
    <path d="m 353.05512,215.18504 0.46063,-0.85039 0.28346,-0.49607 0.3189,-0.46063 0.3189,-0.38976 0.28346,-0.3189 0.35433,-0.17716 0.46063,-0.2126 0.5315,-0.2126 0.60236,-0.17717 0.99213,-0.24803 0.42519,-0.14173 -10.20472,-7.65354 4.99606,11.72834 0.17717,-0.38976 z" id="path2931" style="fill:#3f3d99;fill-opacity:1;fill-rule:evenodd;stroke:none"></path>
    <path d="m 359.82283,195.69685 -4.96063,-9.85039" id="path2933" style="fill:none;stroke:#3f3d99;stroke-width:1.70078743px;stroke-linejoin:miter;stroke-miterlimit:1;stroke-opacity:1;stroke-dasharray:none"></path>
    <path d="m 352.98425,187.72441 0.5315,-0.6378 0.35433,-0.38976 0.35433,-0.35433 0.3189,-0.28346 0.31889,-0.2126 0.3189,-0.1063 0.46063,-0.1063 0.49607,-0.0709 0.53149,-0.0709 0.92126,-0.0709 0.38976,-0.0354 -7.54724,-8.39764 2.33858,11.05512 0.2126,-0.3189 z" id="path2935" style="fill:#3f3d99;fill-opacity:1;fill-rule:evenodd;stroke:none"></path>
    <path d="m 356.95276,168.87402 -1.91339,-9.88583" id="path2937" style="fill:none;stroke:#3f3d99;stroke-width:1.70078743px;stroke-linejoin:miter;stroke-miterlimit:1;stroke-opacity:1;stroke-dasharray:none"></path>
    <path d="m 352.91339,160.19291 0.63779,-0.46063 0.38976,-0.24803 0.38977,-0.2126 0.38976,-0.17716 0.3189,-0.1063 0.28346,0 0.4252,0 0.46063,0.0709 0.49606,0.0709 0.81497,0.17717 0.35433,0.0709 -4.57087,-9.2126 -0.67323,10.24016 0.28347,-0.2126 z" id="path2939" style="fill:#3f3d99;fill-opacity:1;fill-rule:evenodd;stroke:none"></path>
    <path d="m 353.90551,142.01575 1.27559,-9.8504" id="path2941" style="fill:none;stroke:#3f3d99;stroke-width:1.70078743px;stroke-linejoin:miter;stroke-miterlimit:1;stroke-opacity:1;stroke-dasharray:none"></path>
    <path d="m 352.84252,132.62598 0.70866,-0.21259 0.46063,-0.1063 0.4252,-0.1063 0.42519,-0.0354 0.3189,0 0.3189,0.0709 0.35433,0.14173 0.4252,0.2126 0.42519,0.2126 0.7441,0.4252 0.28346,0.17716 -1.38189,-10.09842 -3.82677,9.42519 0.3189,-0.1063 z" id="path2943" style="fill:#3f3d99;fill-opacity:1;fill-rule:evenodd;stroke:none"></path>
    <path d="m 351,115.19291 4.35827,-9.88582" id="path2945" style="fill:none;stroke:#3f3d99;stroke-width:1.70078743px;stroke-linejoin:miter;stroke-miterlimit:1;stroke-opacity:1;stroke-dasharray:none"></path>
    <path d="m 352.73622,105.05906 0.85039,0 0.49607,0.0354 0.49606,0.0354 0.4252,0.0709 0.35433,0.1063 0.28346,0.17716 0.35433,0.28347 0.35433,0.31889 0.38977,0.38977 0.63779,0.63779 0.24803,0.28347 1.62993,-10.913388 -6.87402,8.610238 0.35433,-0.0354 z" id="path2947" style="fill:#3f3d99;fill-opacity:1;fill-rule:evenodd;stroke:none"></path>
    <path d="M 348.37795,88.334646 355.5,78.484252" id="path2949" style="fill:none;stroke:#3f3d99;stroke-width:1.70078743px;stroke-linejoin:miter;stroke-miterlimit:1;stroke-opacity:1;stroke-dasharray:none"></path>
    <path d="m 352.66535,77.598425 0.9567,0.177166 0.53149,0.141732 0.5315,0.177165 0.46063,0.177166 0.35433,0.212598 0.28346,0.248031 0.3189,0.389764 0.3189,0.46063 0.3189,0.496063 0.56693,0.850394 0.2126,0.389764 4.3937,-11.692914 -9.6378,7.901575 0.38976,0.07087 z" id="path2951" style="fill:#3f3d99;fill-opacity:1;fill-rule:evenodd;stroke:none"></path>
    <path d="m 346.25197,61.511811 9.35433,-9.885827" id="path2953" style="fill:none;stroke:#3f3d99;stroke-width:1.70078743px;stroke-linejoin:miter;stroke-miterlimit:1;stroke-opacity:1;stroke-dasharray:none"></path>
    <path d="m 352.62992,50.244094 0.99213,0.354331 0.56693,0.212599 0.56693,0.283464 0.49606,0.248032 0.35433,0.283464 0.28346,0.318898 0.28347,0.496063 0.3189,0.566929 0.28346,0.566929 0.46063,1.062992 0.17717,0.425197 6.62598,-12.259842 -11.83465,7.299212 0.4252,0.141732 z" id="path2955" style="fill:#3f3d99;fill-opacity:1;fill-rule:evenodd;stroke:none"></path>
    <path d="M 344.76378,34.653543 355.7126,24.80315" id="path2957" style="fill:none;stroke:#3f3d99;stroke-width:1.70078743px;stroke-linejoin:miter;stroke-miterlimit:1;stroke-opacity:1;stroke-dasharray:none"></path>
    <path d="m 352.59449,23.031496 1.02756,0.46063 0.60236,0.318898 0.60236,0.318897 0.49606,0.354331 0.38977,0.318898 0.24803,0.35433 0.28346,0.531496 0.28347,0.637796 0.24803,0.673228 0.4252,1.169291 0.17716,0.496063 8.11418,-12.720472 -13.35827,6.909449 0.46063,0.177165 z" id="path2959" style="fill:#3f3d99;fill-opacity:1;fill-rule:evenodd;stroke:none"></path>
  </g>
  <defs id="defs2962"></defs>
</svg>
