<!-- Created with Inkscape (http://www.inkscape.org/) -->
<svg xmlns:dc="http://purl.org/dc/elements/1.1/" xmlns:cc="http://creativecommons.org/ns#" xmlns:rdf="http://www.w3.org/1999/02/22-rdf-syntax-ns#" xmlns:svg="http://www.w3.org/2000/svg" xmlns="http://www.w3.org/2000/svg" xmlns:inkscape="http://www.inkscape.org/namespaces/inkscape" version="1.1" width="420" height="420" viewBox="0 0 420 420" id="svg2">
  <title id="title4">Integral approximations</title>
  <desc id="desc6">Plot of approximations to integral of sqrt(x) from 0 to 1, with 5 right samples (above) and 12 left samples (below)</desc>
  <metadata id="metadata118"></metadata>
  <defs id="defs8"></defs>
  <g id="g24" style="color:#000000;fill:none;stroke:currentColor;stroke-width:1;stroke-linecap:butt;stroke-linejoin:miter">
    <path d="m 58.8,368.1 -9,0 m 344.6,0 9,0" id="path26"></path>
    <g transform="translate(41.5,372.6)" id="g28" style="font-size:20px;text-anchor:end;fill:#000000;stroke:none;font-family:Bitstream Vera Sans">
      <text id="text30">0</text>
    </g>
    <path d="m 58.8,301 -9,0 m 344.6,0 9,0" id="path32"></path>
    <g transform="translate(41.5,305.5)" id="g34" style="font-size:20px;text-anchor:end;fill:#000000;stroke:none;font-family:Bitstream Vera Sans">
      <text id="text36">0.2</text>
    </g>
    <path d="m 58.8,233.9 -9,0 m 344.6,0 9,0" id="path38"></path>
    <g transform="translate(41.5,238.4)" id="g40" style="font-size:20px;text-anchor:end;fill:#000000;stroke:none;font-family:Bitstream Vera Sans">
      <text id="text42">0.4</text>
    </g>
    <path d="m 58.8,166.7 -9,0 m 344.6,0 9,0" id="path44"></path>
    <g transform="translate(41.5,171.2)" id="g46" style="font-size:20px;text-anchor:end;fill:#000000;stroke:none;font-family:Bitstream Vera Sans">
      <text id="text48">0.6</text>
    </g>
    <path d="m 58.8,99.6 -9,0 m 344.6,0 9,0" id="path50"></path>
    <g transform="translate(41.5,104.1)" id="g52" style="font-size:20px;text-anchor:end;fill:#000000;stroke:none;font-family:Bitstream Vera Sans">
      <text id="text54">0.8</text>
    </g>
    <path d="m 58.8,32.5 -9,0 m 344.6,0 9,0" id="path56"></path>
    <g transform="translate(41.5,37)" id="g58" style="font-size:20px;text-anchor:end;fill:#000000;stroke:none;font-family:Bitstream Vera Sans">
      <text id="text60">1</text>
    </g>
    <path d="m 58.8,368.1 0,9 m 0,-344.6 0,-9" id="path62"></path>
    <g transform="translate(58.8,399.6)" id="g64" style="font-size:20px;text-anchor:middle;fill:#000000;stroke:none;font-family:Bitstream Vera Sans">
      <text id="text66">0</text>
    </g>
    <path d="m 125.9,368.1 0,9 m 0,-344.6 0,-9" id="path68"></path>
    <g transform="translate(125.9,399.6)" id="g70" style="font-size:20px;text-anchor:middle;fill:#000000;stroke:none;font-family:Bitstream Vera Sans">
      <text id="text72">0.2</text>
    </g>
    <path d="m 193,368.1 0,9 m 0,-344.6 0,-9" id="path74"></path>
    <g transform="translate(193,399.6)" id="g76" style="font-size:20px;text-anchor:middle;fill:#000000;stroke:none;font-family:Bitstream Vera Sans">
      <text id="text78">0.4</text>
    </g>
    <path d="m 260.2,368.1 0,9 m 0,-344.6 0,-9" id="path80"></path>
    <g transform="translate(260.2,399.6)" id="g82" style="font-size:20px;text-anchor:middle;fill:#000000;stroke:none;font-family:Bitstream Vera Sans">
      <text id="text84">0.6</text>
    </g>
    <path d="m 327.3,368.1 0,9 m 0,-344.6 0,-9" id="path86"></path>
    <g transform="translate(327.3,399.6)" id="g88" style="font-size:20px;text-anchor:middle;fill:#000000;stroke:none;font-family:Bitstream Vera Sans">
      <text id="text90">0.8</text>
    </g>
    <path d="m 394.4,368.1 0,9 m 0,-344.6 0,-9" id="path92"></path>
    <g transform="translate(394.4,399.6)" id="g94" style="font-size:20px;text-anchor:middle;fill:#000000;stroke:none;font-family:Bitstream Vera Sans">
      <text id="text96">1</text>
    </g>
    <path d="m 58.8,32.5 0,335.6 335.6,0 0,-335.6 -335.6,0 z" id="path98"></path>
  </g>
  <g id="g100" style="color:#fec200;fill:currentColor;stroke:#000000;stroke-width:2;stroke-linecap:butt;stroke-linejoin:miter">
    <path d="m 58.8,368.1 h 67.12 V 218.02 H 58.8 z m 67.12,0 h 67.12 V 155.85 h -67.12 z m 67.12,0 h 67.12 V 108.15 h -67.12 z m 67.12,0 h 67.12 V 67.93 h -67.12 z m 67.12,0 H 394.4 V 32.5 h -67.12 z" id="path102"></path>
  </g>
  <g id="g104" style="color:#009246;fill:currentColor;stroke:#000000;stroke-width:2;stroke-linecap:butt;stroke-linejoin:miter">
    <path d="m 58.8,368.1 h 27.967 v 0 H 58.8 z m 27.967,0 H 114.73 V 271.22 H 86.767 z m 27.963,0 H 142.7 V 231.09 h -27.97 z m 27.97,0 h 27.97 V 200.3 H 142.7 z m 27.97,0 h 27.96 V 174.34 h -27.96 z m 27.96,0 H 226.6 V 151.47 h -27.97 z m 27.97,0 h 27.97 V 130.79 H 226.6 z m 27.97,0 h 27.96 V 111.78 h -27.96 z m 27.96,0 H 310.5 V 94.084 h -27.97 z m 27.97,0 h 27.97 V 77.462 H 310.5 z m 27.97,0 h 27.96 V 61.741 h -27.96 z m 27.96,0 H 394.4 V 46.787 h -27.97 z" id="path106"></path>
  </g>
  <g id="g108" style="color:#000000;fill:none;stroke:currentColor;stroke-width:4;stroke-linecap:butt;stroke-linejoin:miter">
    <path d="M 58.8,368.1 Q 58.8,200.3 394.4,32.5" id="path110"></path>
  </g>
  <g id="g112" style="color:#000000;fill:none;stroke:currentColor;stroke-width:1;stroke-linecap:butt;stroke-linejoin:miter">
    <path d="m 58.8,32.5 0,335.6 335.6,0 0,-335.6 -335.6,0 z" id="path114"></path>
  </g>
</svg>
