<!-- Created with Inkscape (http://www.inkscape.org/) -->
<svg xmlns:dc="http://purl.org/dc/elements/1.1/" xmlns:cc="http://creativecommons.org/ns#" xmlns:rdf="http://www.w3.org/1999/02/22-rdf-syntax-ns#" xmlns:svg="http://www.w3.org/2000/svg" xmlns="http://www.w3.org/2000/svg" xmlns:inkscape="http://www.inkscape.org/namespaces/inkscape" version="1.1" width="552.40692" height="335.81555" id="svg2">
  <defs id="defs4"></defs>
  <metadata id="metadata7"></metadata>
  <g transform="translate(-60.1388,-338.446)" id="layer1">
    <text x="511.42899" y="286.64801" id="text3700" xml:space="preserve" style="font-size:48px;font-style:normal;font-weight:normal;fill:#000000;fill-opacity:1;stroke:none;font-family:Bitstream Vera Sans">
      <tspan x="511.42899" y="286.64801" id="tspan3702"></tspan>
    </text>
    <g id="g7271">
      <path d="m 166.51538,478.90713 c 198.18514,-225.6227 209.3505,24.46511 209.3505,24.46511" id="path1872" style="fill:#9d8f86;fill-opacity:1;fill-rule:evenodd;stroke:#000000;stroke-width:0.96411002px;stroke-linecap:butt;stroke-linejoin:miter;stroke-opacity:1"></path>
      <path d="m 378.65722,500.65389 c 170.27174,76.11368 -8.37402,103.29714 -8.37402,103.29714 145.14968,106.01548 -192.60246,59.8036 -192.60246,59.8036 -106.07092,-135.91728 -8.37402,-190.2842 -8.37402,-190.2842" id="path1874" style="fill:#9d8f86;fill-opacity:1;fill-rule:evenodd;stroke:#000000;stroke-width:0.96411002px;stroke-linecap:butt;stroke-linejoin:miter;stroke-opacity:1"></path>
      <text x="483.85699" y="375.10999" transform="scale(1.01334,0.986838)" id="text3704" xml:space="preserve" style="font-size:46.27730179px;font-style:normal;font-weight:bold;fill:#000000;fill-opacity:1;stroke:none;font-family:Bitstream Vera Sans">
        <tspan x="483.85699" y="375.10999" id="tspan3706">x</tspan>
      </text>
      <text x="151.74284" y="576.23083" transform="scale(1.013339,0.986837)" id="text3708" xml:space="preserve" style="font-size:46.27737045px;font-style:normal;font-weight:bold;fill:#000000;fill-opacity:1;stroke:none;font-family:Bitstream Vera Sans">
        <tspan x="151.74284" y="576.23083" id="tspan3710">r</tspan>
      </text>
      <rect width="28.571428" height="31.42857" x="147.20464" y="506.54147" id="rect3729" style="fill:#da126f;fill-opacity:1;stroke:#df156f;stroke-width:8.5;stroke-miterlimit:4;stroke-opacity:1;stroke-dasharray:none;stroke-dashoffset:0"></rect>
      <path d="m -411.42859,406.64789 a 120,77.14286 0 1 1 -0.26826,-5.15534 l -119.73174,5.15534 z" transform="matrix(0.100493,0,0,0.116997,218.305,474.4214)" id="path3674" style="fill:#000000;fill-opacity:1;stroke:#000000;stroke-width:8.5;stroke-miterlimit:4;stroke-opacity:1;stroke-dasharray:none;stroke-dashoffset:0"></path>
      <path d="M 531.86562,374.30428 166.91097,523.03046" id="path3686" style="fill:none;stroke:#000000;stroke-width:8.83376884;stroke-linecap:butt;stroke-linejoin:miter;stroke-miterlimit:4;stroke-opacity:1;stroke-dasharray:none"></path>
      <text x="57.490398" y="463.39899" id="text9077" xml:space="preserve" style="font-size:48px;font-style:normal;font-weight:normal;fill:#000000;fill-opacity:1;stroke:none;font-family:Bitstream Vera Sans"><tspan x="57.490398" y="463.39899" id="tspan9079" style="font-family:Bitstream Vera Sans">dm(<tspan id="tspan1973" style="font-weight:bold">r</tspan></tspan>)</text>
      <path d="m -411.42859,406.64789 a 120,77.14286 0 1 1 -0.26826,-5.15534 l -119.73174,5.15534 z" transform="matrix(0.100493,0,0,0.116997,591.3458,322.6291)" id="path1898" style="fill:#000000;fill-opacity:1;stroke:#000000;stroke-width:8.5;stroke-miterlimit:4;stroke-opacity:1;stroke-dasharray:none;stroke-dashoffset:0"></path>
      <path d="m 511.61397,400.75613 27.53433,-10.68491 0.84472,1.81938 c 2.26186,4.87155 -0.93773,9.969 -9.59863,15.29253 -8.66998,5.30398 -27.09081,13.42214 -55.26239,24.35448 l -45.69923,17.73408 c -19.2484,7.46955 -32.32407,13.16714 -39.22715,17.09275 -6.90284,3.92557 -9.70933,7.27739 -8.41955,10.05551 l 0.83114,1.79014 -27.34306,10.61078 -0.83111,-1.79011 c -1.29887,-2.79767 -5.82205,-3.30518 -13.56962,-1.5224 -7.88382,1.81267 -21.32254,6.40428 -40.31629,13.775 l -45.8904,17.80828 c -28.17138,10.93226 -47.29147,17.38227 -57.36032,19.35011 -10.20484,1.9975 -16.43837,0.56065 -18.7005,-4.31075 l -0.84478,-1.81949 27.34302,-10.61074 0.92654,1.99557 c 1.28109,2.75843 4.9212,3.47004 10.92036,2.13481 5.99972,-1.33541 17.98625,-5.49048 35.95979,-12.46536 l 47.42009,-18.40191 c 20.0135,-7.76648 34.75438,-12.95576 44.22269,-15.56797 9.45954,-2.63185 16.28221,-3.49004 20.46816,-2.57466 2.43357,-3.50725 7.97124,-7.45718 16.61297,-11.84971 8.64198,-4.39261 22.90579,-10.44735 42.79154,-18.16427 l 47.42014,-18.40195 c 17.97378,-6.97484 29.56969,-11.97123 34.78794,-14.98911 5.2182,-3.01779 7.18695,-5.90598 5.90615,-8.66454 l -0.92655,-1.99554" id="text1923" style="font-size:144px;font-style:normal;font-weight:normal;fill:#000000;fill-opacity:1;stroke:none;font-family:Bitstream Vera Sans"></path>
      <path d="m 328.81598,505.25188 0,48 -3.98437,0 0,-48 3.98437,0 m 16.80469,23.25 -9.46875,-12.82031 8.88281,0 5.36719,7.78125 5.4375,-7.78125 8.88281,0 -9.46875,12.77344 9.9375,13.47656 -8.88281,0 -5.90625,-8.29687 -5.83594,8.29687 -8.88281,0 9.9375,-13.42969 m 37.89844,-1.64062 12.63281,0 0,3.84375 -12.63281,0 0,-3.84375 m 53.8125,-4.03125 c -0.7344,-0.34373 -1.46878,-0.59373 -2.20313,-0.75 -0.71877,-0.17186 -1.44533,-0.25779 -2.17969,-0.25781 -2.15626,2e-5 -3.82032,0.69533 -4.99218,2.08593 -1.15627,1.37502 -1.73439,3.35158 -1.73438,5.92969 l 0,12.09375 -8.39062,0 0,-26.25 8.39062,0 0,4.3125 c 1.07811,-1.71873 2.31249,-2.96872 3.70313,-3.75 1.40623,-0.79685 3.08591,-1.19529 5.03906,-1.19531 0.28123,2e-5 0.58591,0.0156 0.91406,0.0469 0.3281,0.0156 0.80467,0.0625 1.42969,0.14063 l 0.0234,7.59375 m 10.26562,-17.57813 0,48 -3.98437,0 0,-48 3.98437,0" id="text1895" style="font-size:48px;font-style:normal;font-weight:normal;fill:#000000;fill-opacity:1;stroke:none;font-family:Bitstream Vera Sans"></path>
    </g>
  </g>
</svg>
