<!-- Created with Inkscape (http://www.inkscape.org/) -->
<svg xmlns:dc="http://purl.org/dc/elements/1.1/" xmlns:cc="http://creativecommons.org/ns#" xmlns:rdf="http://www.w3.org/1999/02/22-rdf-syntax-ns#" xmlns:svg="http://www.w3.org/2000/svg" xmlns="http://www.w3.org/2000/svg" xmlns:inkscape="http://www.inkscape.org/namespaces/inkscape" version="1.1" width="412" height="602" id="svg2">
  <defs id="defs4"></defs>
  <metadata id="metadata7"></metadata>
  <g transform="translate(-588.16042,-1969.4152)" id="layer1">
    <path d="m 506.08643,2181.1934 a 159.6041,159.6041 0 1 1 -319.2082,0 159.6041,159.6041 0 1 1 319.2082,0 z" transform="translate(443.45099,148.48662)" id="path3314" style="fill:none;stroke:#000000;stroke-width:1;stroke-linecap:square;stroke-linejoin:bevel;stroke-miterlimit:4;stroke-opacity:1;stroke-dasharray:none;stroke-dashoffset:40"></path>
    <path d="m 145.20943,2182.2035 401.30843,0" transform="translate(443.45099,148.48662)" id="path3316" style="fill:none;stroke:#000000;stroke-width:1;stroke-linecap:butt;stroke-linejoin:miter;stroke-miterlimit:4;stroke-opacity:1;stroke-dasharray:none"></path>
    <path d="M 346.48232,2182.456 506.08643,1902.77" transform="translate(443.45099,148.48662)" id="path3318" style="fill:none;stroke:#000000;stroke-width:1;stroke-linecap:butt;stroke-linejoin:miter;stroke-miterlimit:4;stroke-opacity:1;stroke-dasharray:none"></path>
    <path d="m 506.07143,2422.6786 0,-601.25" transform="translate(443.45099,148.48662)" id="path3320" style="fill:none;stroke:#000000;stroke-width:1;stroke-linecap:butt;stroke-linejoin:miter;stroke-miterlimit:4;stroke-opacity:1;stroke-dasharray:none"></path>
    <path d="m 444.64139,2042.1377 a 170.21069,170.21069 0 0 1 70.95869,119.7977" transform="translate(443.45099,148.48662)" id="path3322" style="fill:none;stroke:#000000;stroke-width:1;stroke-linecap:square;stroke-linejoin:bevel;stroke-miterlimit:4;stroke-opacity:1;stroke-dasharray:none;stroke-dashoffset:40"></path>
    <path d="m 486.578,2194.6094 9.01732,2.4162 -9.01732,2.4282 0,-4.8444 z" transform="translate(443.45099,148.48662)" id="path3326" style="fill:#000000;fill-rule:evenodd;stroke:none"></path>
    <path d="m 799.00148,2343.096 -9.01732,2.4162 9.01732,2.4282 0,-4.8444 z" id="path3328" style="fill:#000000;fill-rule:evenodd;stroke:none"></path>
    <path d="m 782.11144,2310.9578 -2.13857,9.0872 6.40623,-6.7948 -4.26766,-2.2924 z" id="path3332" style="fill:#000000;fill-rule:evenodd;stroke:none"></path>
    <path d="m 935.27448,2052.9503 2.13857,-9.0872 -6.40623,6.7948 4.26766,2.2924 z" id="path3334" style="fill:#000000;fill-rule:evenodd;stroke:none"></path>
    <path d="m 889.26782,2188.4393 -8.89261,-2.8411 6.27419,6.9168 2.61842,-4.0757 z" id="path3336" style="fill:#000000;fill-rule:evenodd;stroke:none"></path>
    <path d="m 961.34571,2310.5026 -2.2739,9.0543 -2.56982,-8.978 4.84372,-0.076 z" id="path3338" style="fill:#000000;fill-rule:evenodd;stroke:none"></path>
    <path d="m 876.97275,2210.2239 2.4162,-9.0174 2.4282,9.0174 -4.8444,0 z" id="path3340" style="fill:#000000;fill-rule:evenodd;stroke:none"></path>
    <path d="m 876.97275,2315.9851 2.4162,9.0174 2.4282,-9.0174 -4.8444,0 z" id="path3342" style="fill:#000000;fill-rule:evenodd;stroke:none"></path>
    <path d="M 784.37747,2312.4442 933.37498,2051.2566" id="path3344" style="fill:none;stroke:#000000;stroke-width:1;stroke-linecap:butt;stroke-linejoin:miter;stroke-miterlimit:4;stroke-opacity:1;stroke-dasharray:none"></path>
    <path d="m 355.479,2197.0716 131.16199,0" transform="translate(443.45099,148.48662)" id="path3346" style="fill:none;stroke:#000000;stroke-width:1px;stroke-linecap:butt;stroke-linejoin:miter;stroke-opacity:1"></path>
    <path d="m 435.98214,2061.6964 0,105.8706" transform="translate(443.45099,148.48662)" id="path3348" style="fill:none;stroke:#000000;stroke-width:1px;stroke-linecap:butt;stroke-linejoin:miter;stroke-opacity:1"></path>
    <path d="m 966.9376,2060.1294 2.4162,-9.0174 2.4282,9.0174 -4.8444,0 z" id="path3350" style="fill:#000000;fill-rule:evenodd;stroke:none"></path>
    <path d="m 966.9376,2311.0744 2.4162,9.0174 2.4282,-9.0174 -4.8444,0 z" id="path3352" style="fill:#000000;fill-rule:evenodd;stroke:none"></path>
    <path d="m 969.39798,2059.8887 0,251.2542" id="path3354" style="fill:none;stroke:#000000;stroke-width:1px;stroke-linecap:butt;stroke-linejoin:miter;stroke-opacity:1"></path>
    <text x="862.23364" y="2365.4475" id="text3356" xml:space="preserve" style="font-size:24px;font-style:normal;font-variant:normal;font-weight:normal;font-stretch:normal;text-align:start;line-height:125%;writing-mode:lr-tb;text-anchor:start;fill:#000000;fill-opacity:1;stroke:none;font-family:Times New Roman;-inkscape-font-specification:Times New Roman">
      <tspan x="862.23364" y="2365.4475" id="tspan3358">1</tspan>
    </text>
    <path d="m 426.07143,2042.8571 0,139.4726" transform="translate(443.45099,148.48662)" id="path3362" style="fill:none;stroke:#000000;stroke-width:1px;stroke-linecap:butt;stroke-linejoin:miter;stroke-opacity:1"></path>
    <text x="828.94373" y="2128.1826" id="text3364" xml:space="preserve" style="font-size:24px;font-style:normal;font-variant:normal;font-weight:normal;font-stretch:normal;text-align:start;line-height:125%;writing-mode:lr-tb;text-anchor:start;fill:#000000;fill-opacity:1;stroke:none;font-family:Times New Roman;-inkscape-font-specification:Times New Roman">
      <tspan x="828.94373" y="2128.1826" id="tspan3366">sec </tspan>
    </text>
    <text x="2162.1833" y="-975.10638" transform="matrix(0,1,-1,0,0,0)" id="text3368" xml:space="preserve" style="font-size:24px;font-style:normal;font-variant:normal;font-weight:normal;font-stretch:normal;text-align:start;line-height:125%;writing-mode:lr-tb;text-anchor:start;fill:#000000;fill-opacity:1;stroke:none;font-family:Times New Roman;-inkscape-font-specification:Times New Roman">
      <tspan x="2162.1833" y="-975.10638" id="tspan3370">tan </tspan>
    </text>
    <text x="2245.2681" y="-884.30756" transform="matrix(0,1,-1,0,0,0)" id="text3372" xml:space="preserve" style="font-size:24px;font-style:normal;font-variant:normal;font-weight:normal;font-stretch:normal;text-align:start;line-height:125%;writing-mode:lr-tb;text-anchor:start;fill:#000000;fill-opacity:1;stroke:none;font-family:Times New Roman;-inkscape-font-specification:Times New Roman">
      <tspan x="2245.2681" y="-884.30756" id="tspan3374">sin </tspan>
    </text>
    <text x="932.75635" y="2231.811" id="text3376" xml:space="preserve" style="font-size:24px;font-style:normal;font-variant:normal;font-weight:normal;font-stretch:normal;text-align:start;line-height:125%;writing-mode:lr-tb;text-anchor:start;fill:#000000;fill-opacity:1;stroke:none;font-family:Times New Roman;-inkscape-font-specification:Times New Roman">
      <tspan x="932.75635" y="2231.811" id="tspan3378"></tspan>
    </text>
  </g>
</svg>
