<!-- Created with Inkscape (http://www.inkscape.org/) -->
<svg xmlns:dc="http://purl.org/dc/elements/1.1/" xmlns:cc="http://creativecommons.org/ns#" xmlns:rdf="http://www.w3.org/1999/02/22-rdf-syntax-ns#" xmlns:svg="http://www.w3.org/2000/svg" xmlns="http://www.w3.org/2000/svg" xmlns:inkscape="http://www.inkscape.org/namespaces/inkscape" version="1.1" width="600" height="600" viewBox="-30 -156 1824 1824" id="svg2" xml:space="preserve"><metadata id="metadata120"></metadata><defs id="defs118"></defs><path d="M -30,-156 H 1794 V 1668 H -30" id="path4" style="fill:#ffffff"></path><path d="M 617,420 46,573 311,1562 M 252,-96 H 43 v 362 m 56,15 H 308 V -81" id="path6" style="fill:#88ccdd"></path><g id="g8" style="fill:none;stroke-width:21"><path d="m 43,102 a 164,164 0 0 1 82,22 M 226,61 a 164,164 0 0 0 82,22 m 58,0 A 164,164 0 0 0 448,61 M 214,1200 a 375,375 0 0 1 194,0 M 990,103 a 274,274 0 0 1 0,142" id="path10" style="stroke:#551100;stroke-width:63"></path><path d="m 43,102 a 164,164 0 0 1 82,22 M 226,61 a 164,164 0 0 0 82,22 m -94,1117 a 375,375 0 0 1 194,0" id="path12" style="stroke:#88ccdd"></path><path d="m 366,83 a 164,164 0 0 0 82,-22 m 542,42 a 274,274 0 0 1 0,142" id="path14" style="stroke:#ffffff"></path><path d="M 46,573 617,420 311,1562 z m 26,97 97,-26 -26,-97 M 725,174 1561,-50 1449,368 z M 252,-96 H 43 v 362 z m 56,15 V 281 H 99 z m 58,0 v 362 h 209 z" id="path16" style="stroke:#000000;stroke-width:14;stroke-linejoin:round"></path><path d="m 94,-96 v 51 H 43 m 214,326 v -51 h 51 m 58,0 h 51 v 51 m 961,68 19,-71 71,19 M 819,750 H 612 m 0,354 h 207 m 198,0 h 204 m 0,-354 h -204 m -63,9 h -75 m 0,-27 h 75 m 0,354 h -75 m 0,27 h 75 m 330,0 h 75 m 0,-27 h -75 m 0,-354 h 75 m 0,27 h -75 m -486,711 h -75 m 0,27 h 75 m 477,0 h 75 m 0,-27 h -75 m -828,18 h 216 m 195,0 h 357" id="path18" style="stroke:#000000;stroke-width:9"></path></g><text x="900" y="1455" id="text20" style="font-size:99px;font-family:'&quot;Bitstream Charter&quot;,serif'">s<tspan x="966" id="tspan22">i</tspan><tspan x="1017" id="tspan24">n</tspan><tspan x="1119" id="tspan26" style="font-style:italic"><tspan x="474" id="tspan28" style="font-family:'&quot;DejaVu Sans&quot;,sans-serif'">U<tspan x="567" id="tspan30">V</tspan><tspan x="633" y="717" id="tspan32">U</tspan><tspan x="726" id="tspan34">V</tspan><tspan x="1038" id="tspan36">B</tspan><tspan x="1131" id="tspan38">C</tspan><tspan x="621" y="867" id="tspan40">U</tspan><tspan x="714" id="tspan42">T</tspan><tspan x="1029" id="tspan44">B</tspan><tspan x="1122" id="tspan46">A</tspan><tspan x="633" y="1071" id="tspan48">T</tspan><tspan x="726" id="tspan50">V</tspan><tspan x="1038" id="tspan52">A</tspan><tspan x="1131" id="tspan54">C</tspan><tspan x="621" y="1221" id="tspan56">T</tspan><tspan x="714" id="tspan58">U</tspan><tspan x="1029" id="tspan60">A</tspan><tspan x="1122" id="tspan62">B</tspan><tspan x="465" y="1602" id="tspan64">T</tspan><tspan x="555" id="tspan66">V</tspan></tspan></tspan><tspan x="894" id="tspan68">c</tspan><tspan x="954" id="tspan70">o</tspan><tspan x="1026" id="tspan72">s</tspan><tspan x="1113" id="tspan74" style="font-style:italic"><tspan x="99" id="tspan76" style="font-size:144px;font-family:'&quot;DejaVu Sans&quot;,sans-serif'">T<tspan x="1617" y="3" id="tspan78">B</tspan><tspan x="-9" y="498" id="tspan80">V</tspan><tspan x="675" y="471" id="tspan82">U</tspan><tspan x="1512" id="tspan84">C</tspan><tspan x="645" y="99" id="tspan86">A</tspan></tspan><tspan x="1654" y="1125" id="tspan88" style="font-size:111px"></tspan></tspan><tspan x="1417" id="tspan90" style="font-size:105px;font-weight:bold;fill:#005511">c<tspan x="1487" id="tspan92">o</tspan><tspan x="1563" id="tspan94">s</tspan><tspan x="1411" y="1509" id="tspan96">t</tspan><tspan x="1472" id="tspan98">a</tspan><tspan x="1545" id="tspan100">n</tspan></tspan><tspan x="1647" id="tspan102" style="font-size:111px;font-style:italic"><tspan x="252" y="1089" id="tspan104" style="font-size:156px;fill:#551100"><tspan x="1080" y="228" id="tspan106" style="font-size:141px"></tspan></tspan><tspan x="1648" y="771" id="tspan108" style="font-size:111px"></tspan></tspan><tspan x="1425" id="tspan110" style="font-size:105px;font-weight:bold;fill:#005511">s<tspan x="1494" id="tspan112">i</tspan><tspan x="1545" id="tspan114">n</tspan></tspan></text>
</svg>
