<!-- Created with Inkscape (http://www.inkscape.org/) -->
<svg xmlns:dc="http://purl.org/dc/elements/1.1/" xmlns:cc="http://creativecommons.org/ns#" xmlns:rdf="http://www.w3.org/1999/02/22-rdf-syntax-ns#" xmlns:svg="http://www.w3.org/2000/svg" xmlns="http://www.w3.org/2000/svg" xmlns:inkscape="http://www.inkscape.org/namespaces/inkscape" version="1.1" width="555" height="525" viewBox="-22.54 -17.396 555 525" id="svg2" xml:space="preserve">
  <metadata id="metadata88"></metadata>
  <defs id="defs86"></defs>
  <line fill="none" stroke="#282896" stroke-width="3" x1="251.961" y1="280.49799" x2="8.5459995" y2="381.323" id="line4" style="fill:none;stroke:#282896;stroke-width:3"></line>
  <line fill="none" stroke="#962828" stroke-width="3" x1="251.961" y1="280.49799" x2="495.37299" y2="381.323" id="line6" style="fill:none;stroke:#962828;stroke-width:3"></line>
  <line fill="none" stroke="#286E28" stroke-width="3" x1="251.961" y1="280.49799" x2="251.961" y2="14.629" id="line8" style="fill:none;stroke:#286e28;stroke-width:3"></line>
  <polygon points="129.01,346.267 86.694,348.953 129.01,316.583 115.825,336.887 " id="polygon10" style="fill:#808080"></polygon>
  <line fill="none" stroke="#808080" stroke-width="7" x1="115.825" y1="336.88699" x2="251.961" y2="280.49799" id="line12" style="fill:none;stroke:#808080;stroke-width:7"></line>
  <polygon points="303.064,423.734 345.381,456.104 303.064,453.418 316.25,444.038 " id="polygon14" style="fill:#808080"></polygon>
  <polygon points="304.267,287.322 346.583,319.691 304.267,317.005 317.452,307.625 " id="polygon16" style="fill:#e12828"></polygon>
  <polygon points="199.655,317.005 157.339,319.691 199.655,287.322 186.47,307.625 " id="polygon18" style="fill:#2828ff"></polygon>
  <polygon points="330.538,136.148 345.381,93.832 360.223,136.148 345.381,122.963 " id="polygon20" style="fill:#808080"></polygon>
  <polygon points="237.119,222.483 251.961,180.167 266.803,222.483 251.961,209.298 " id="polygon22" style="fill:#28c828"></polygon>
  <line fill="none" stroke="#808080" stroke-width="7" x1="86.694" y1="348.953" x2="316.25" y2="444.03799" id="line24" style="fill:none;stroke:#808080;stroke-width:7"></line>
  <polygon points="313.17,125.031 345.381,93.832 339.715,138.315 332.344,119.882 " id="polygon26"></polygon>
  <line fill="none" stroke="#2828FF" stroke-width="7" x1="251.961" y1="280.49799" x2="186.47" y2="307.625" id="line28" style="fill:none;stroke:#2828ff;stroke-width:7"></line>
  <line fill="none" stroke="#E12828" stroke-width="7" x1="251.961" y1="280.49799" x2="317.452" y2="307.625" id="line30" style="fill:none;stroke:#e12828;stroke-width:7"></line>
  <line fill="none" stroke="#28C828" stroke-width="7" x1="251.961" y1="280.49799" x2="251.961" y2="209.298" id="line32" style="fill:none;stroke:#28c828;stroke-width:7"></line>
  <line fill="none" stroke="#000000" stroke-width="7" x1="251.961" y1="280.49799" x2="332.34399" y2="119.882" id="line34" style="fill:none;stroke:#000000;stroke-width:7"></line>
  <line fill="none" stroke="#808080" stroke-width="7" x1="345.38101" y1="456.104" x2="345.38101" y2="122.963" id="line36" style="fill:none;stroke:#808080;stroke-width:7"></line>
  <g id="g38">
    <path d="M 6.987,352.53 C 6.841,351.759 6.689,351.016 6.533,350.303 6.377,349.59 6.216,348.926 6.05,348.311 5.884,347.696 5.747,347.293 5.64,347.102 5.533,346.913 5.418,346.78 5.296,346.707 c -0.122,-0.074 -0.276,-0.11 -0.461,-0.11 -0.205,0 -0.391,0.047 -0.557,0.14 -0.166,0.093 -0.347,0.254 -0.542,0.482 -0.195,0.23 -0.454,0.589 -0.776,1.077 l -0.952,-0.63 c 0.615,-0.928 1.206,-1.621 1.772,-2.08 0.566,-0.459 1.235,-0.688 2.007,-0.688 0.303,0 0.569,0.034 0.798,0.103 0.229,0.069 0.432,0.174 0.608,0.314 0.176,0.143 0.332,0.325 0.469,0.55 0.137,0.225 0.269,0.53 0.396,0.915 0.127,0.387 0.247,0.865 0.359,1.436 0.112,0.572 0.212,1.165 0.3,1.78 h 0.146 c 0.938,-1.318 1.648,-2.282 2.131,-2.894 0.483,-0.609 0.891,-1.063 1.223,-1.361 0.332,-0.298 0.652,-0.508 0.959,-0.631 0.308,-0.121 0.715,-0.183 1.223,-0.183 0.459,0 0.835,0.059 1.128,0.176 l -0.586,2.651 h -1.025 c -0.059,-0.41 -0.229,-0.615 -0.513,-0.615 -0.088,0 -0.181,0.015 -0.278,0.044 -0.097,0.029 -0.217,0.093 -0.359,0.19 -0.142,0.097 -0.349,0.288 -0.623,0.571 -0.274,0.283 -0.581,0.63 -0.923,1.04 -0.342,0.41 -0.693,0.84 -1.055,1.289 L 9.17,351.52 c 0.176,0.938 0.342,1.748 0.498,2.432 0.156,0.684 0.295,1.253 0.417,1.706 0.122,0.455 0.229,0.813 0.322,1.077 0.093,0.264 0.193,0.462 0.3,0.593 0.107,0.133 0.217,0.226 0.33,0.279 0.113,0.053 0.242,0.08 0.388,0.08 0.264,0 0.52,-0.103 0.769,-0.308 0.249,-0.205 0.608,-0.669 1.077,-1.392 l 0.952,0.63 c -0.684,1.016 -1.301,1.731 -1.853,2.146 -0.552,0.415 -1.208,0.623 -1.97,0.623 -0.42,0 -0.776,-0.076 -1.069,-0.227 -0.293,-0.151 -0.547,-0.394 -0.762,-0.726 -0.215,-0.332 -0.405,-0.85 -0.571,-1.553 -0.303,-1.25 -0.488,-2.207 -0.557,-2.871 H 7.295 c -1.035,1.455 -1.804,2.5 -2.307,3.135 -0.503,0.635 -0.918,1.104 -1.245,1.406 -0.327,0.302 -0.645,0.516 -0.952,0.638 -0.308,0.121 -0.715,0.183 -1.223,0.183 -0.459,0 -0.835,-0.059 -1.128,-0.176 l 0.586,-2.651 h 1.025 c 0.059,0.41 0.229,0.615 0.513,0.615 0.137,0 0.281,-0.037 0.432,-0.109 0.151,-0.074 0.369,-0.25 0.652,-0.527 0.283,-0.279 0.674,-0.716 1.172,-1.312 0.498,-0.596 1.22,-1.489 2.167,-2.681 z" id="path40" style="fill:#282896"></path>
  </g>
  <g id="g42">
    <path d="m 180.767,286.384 c -0.098,0.41 -0.164,0.728 -0.198,0.952 -0.034,0.224 -0.051,0.479 -0.051,0.762 0,0.381 0.063,0.645 0.19,0.791 0.127,0.146 0.308,0.22 0.542,0.22 0.283,0 0.601,-0.134 0.952,-0.403 0.352,-0.268 0.767,-0.676 1.245,-1.223 l 1.055,1.055 c -0.957,0.977 -1.814,1.67 -2.571,2.08 -0.757,0.41 -1.589,0.615 -2.498,0.615 -1.035,0 -1.792,-0.254 -2.271,-0.762 -0.479,-0.508 -0.718,-1.274 -0.718,-2.3 0,-0.654 0.107,-1.421 0.322,-2.3 l 1.23,-5.098 c 0.225,-0.928 0.337,-1.66 0.337,-2.197 0,-0.381 -0.09,-0.652 -0.271,-0.813 -0.181,-0.162 -0.559,-0.271 -1.135,-0.33 l 0.22,-0.967 4.292,-0.161 h 1.67 l -2.342,10.079 z m 3.354,-15.762 -0.762,3.589 h -3.794 l 0.806,-3.589 h 3.75 z" id="path44" style="fill:#282896"></path>
  </g>
  <g id="g46">
    <path d="m 224.225,204.855 h 0.293 c 0.352,0 0.684,-0.063 0.996,-0.19 0.381,-0.156 0.85,-0.435 1.406,-0.835 0.752,-0.557 1.284,-0.991 1.597,-1.304 0.313,-0.313 0.53,-0.608 0.652,-0.886 0.122,-0.279 0.183,-0.564 0.183,-0.857 0,-0.225 -0.061,-0.415 -0.183,-0.571 -0.122,-0.156 -0.339,-0.249 -0.652,-0.278 l 0.234,-0.967 h 5.215 l 0.366,0.952 c -0.605,0.664 -1.421,1.387 -2.446,2.168 l -3.296,2.476 1.509,5.347 c 0.176,0.635 0.339,1.064 0.491,1.289 0.152,0.225 0.364,0.337 0.637,0.337 0.254,0 0.542,-0.129 0.864,-0.389 0.322,-0.258 0.703,-0.646 1.143,-1.164 l 1.055,1.055 c -0.908,0.977 -1.729,1.67 -2.461,2.08 -0.732,0.41 -1.484,0.615 -2.256,0.615 -0.967,0 -1.719,-0.229 -2.256,-0.688 -0.537,-0.459 -0.928,-1.245 -1.172,-2.358 l -0.776,-3.516 c -0.049,-0.234 -0.112,-0.42 -0.19,-0.557 -0.078,-0.137 -0.181,-0.234 -0.308,-0.293 -0.127,-0.059 -0.317,-0.088 -0.571,-0.088 h -0.366 l -1.597,7.266 h -4.204 l 3.706,-16.553 c 0.215,-0.957 0.322,-1.655 0.322,-2.095 0,-0.215 -0.022,-0.383 -0.066,-0.505 -0.044,-0.122 -0.11,-0.223 -0.198,-0.301 -0.088,-0.078 -0.205,-0.139 -0.352,-0.184 -0.146,-0.043 -0.435,-0.095 -0.864,-0.153 l 0.234,-0.952 4.38,-0.234 h 1.655 l -2.724,12.333 z" id="path48" style="fill:#286e28"></path>
  </g>
  <g id="g50">
    <path d="m 302.851,124.079 -0.22,-0.073 c -0.801,0.781 -1.58,1.348 -2.336,1.699 -0.758,0.352 -1.561,0.527 -2.41,0.527 -1.25,0 -2.241,-0.33 -2.974,-0.988 -0.732,-0.66 -1.099,-1.541 -1.099,-2.645 0,-1.436 0.705,-2.565 2.117,-3.391 1.41,-0.825 3.552,-1.346 6.423,-1.561 v -1.392 c 0,-0.908 -0.103,-1.608 -0.308,-2.103 -0.205,-0.492 -0.469,-0.839 -0.791,-1.039 -0.322,-0.2 -0.708,-0.301 -1.157,-0.301 -0.449,0 -0.837,0.078 -1.165,0.234 -0.326,0.156 -0.622,0.452 -0.886,0.887 -0.264,0.435 -0.459,1.037 -0.586,1.809 h -2.769 v -2.666 c 1.123,-0.498 2.072,-0.871 2.85,-1.121 0.775,-0.248 1.498,-0.432 2.168,-0.549 0.668,-0.117 1.311,-0.176 1.926,-0.176 1.182,0 2.127,0.156 2.834,0.469 0.709,0.313 1.238,0.82 1.59,1.523 0.352,0.703 0.527,1.675 0.527,2.915 v 5.713 c 0,0.83 0.024,1.419 0.073,1.765 0.049,0.348 0.124,0.599 0.228,0.755 0.102,0.156 0.234,0.278 0.395,0.366 0.162,0.088 0.457,0.186 0.887,0.293 v 0.967 h -5.449 l 0.132,-1.917 z m -0.484,-4.995 c -1.514,0.039 -2.635,0.322 -3.361,0.85 -0.729,0.527 -1.092,1.299 -1.092,2.314 0,0.605 0.166,1.067 0.498,1.385 0.332,0.318 0.791,0.476 1.377,0.476 0.449,0 0.874,-0.119 1.274,-0.358 0.4,-0.239 0.718,-0.56 0.952,-0.96 0.234,-0.4 0.352,-0.825 0.352,-1.274 v -2.433 z" id="path52"></path>
  </g>
  <g id="g54">
    <path d="m 103.198,312.579 -0.22,-0.073 c -0.801,0.781 -1.58,1.348 -2.336,1.699 -0.756,0.351 -1.56,0.527 -2.41,0.527 -1.25,0 -2.241,-0.33 -2.974,-0.988 -0.732,-0.66 -1.099,-1.541 -1.099,-2.645 0,-1.436 0.706,-2.565 2.117,-3.391 1.411,-0.826 3.552,-1.346 6.423,-1.561 v -1.392 c 0,-0.908 -0.103,-1.608 -0.308,-2.103 -0.205,-0.492 -0.469,-0.839 -0.791,-1.039 -0.322,-0.2 -0.708,-0.301 -1.157,-0.301 -0.449,0 -0.837,0.078 -1.165,0.234 -0.328,0.156 -0.623,0.452 -0.886,0.887 -0.263,0.435 -0.459,1.037 -0.586,1.809 h -2.769 v -2.666 c 1.123,-0.498 2.073,-0.871 2.849,-1.121 0.776,-0.248 1.499,-0.432 2.168,-0.549 0.669,-0.117 1.311,-0.176 1.926,-0.176 1.182,0 2.126,0.156 2.834,0.469 0.708,0.313 1.238,0.82 1.589,1.523 0.351,0.703 0.527,1.675 0.527,2.915 v 5.713 c 0,0.83 0.024,1.419 0.073,1.765 0.049,0.348 0.125,0.599 0.227,0.755 0.102,0.156 0.234,0.278 0.396,0.366 0.162,0.088 0.457,0.186 0.886,0.293 v 0.967 h -5.449 l 0.135,-1.917 z m -0.484,-4.995 c -1.514,0.039 -2.634,0.322 -3.362,0.85 -0.728,0.528 -1.091,1.299 -1.091,2.314 0,0.605 0.166,1.067 0.498,1.385 0.332,0.318 0.791,0.476 1.377,0.476 0.449,0 0.874,-0.119 1.274,-0.358 0.4,-0.239 0.718,-0.56 0.952,-0.96 0.234,-0.4 0.352,-0.825 0.352,-1.274 v -2.433 z" id="path56" style="fill:#404040"></path>
    <path d="m 115.378,312.98 c -0.122,-0.643 -0.249,-1.262 -0.378,-1.855 -0.13,-0.594 -0.265,-1.147 -0.403,-1.66 -0.139,-0.513 -0.252,-0.849 -0.342,-1.007 -0.09,-0.159 -0.185,-0.269 -0.287,-0.33 -0.102,-0.061 -0.23,-0.091 -0.384,-0.091 -0.171,0 -0.326,0.038 -0.464,0.115 -0.139,0.078 -0.289,0.212 -0.452,0.403 -0.163,0.191 -0.378,0.49 -0.647,0.897 l -0.793,-0.525 c 0.513,-0.773 1.005,-1.351 1.477,-1.733 0.472,-0.383 1.029,-0.573 1.672,-0.573 0.252,0 0.474,0.028 0.665,0.085 0.191,0.057 0.36,0.145 0.507,0.263 0.147,0.118 0.276,0.271 0.391,0.457 0.114,0.188 0.224,0.442 0.33,0.764 0.105,0.321 0.206,0.72 0.299,1.196 0.093,0.476 0.177,0.97 0.25,1.483 h 0.122 c 0.781,-1.1 1.373,-1.902 1.776,-2.411 0.402,-0.509 0.742,-0.887 1.019,-1.136 0.276,-0.248 0.543,-0.423 0.799,-0.524 0.257,-0.102 0.596,-0.153 1.02,-0.153 0.382,0 0.696,0.049 0.94,0.146 l -0.488,2.21 h -0.854 c -0.049,-0.342 -0.191,-0.513 -0.427,-0.513 -0.073,0 -0.151,0.012 -0.232,0.037 -0.082,0.023 -0.181,0.077 -0.299,0.158 -0.118,0.081 -0.291,0.24 -0.519,0.477 -0.228,0.235 -0.484,0.524 -0.769,0.866 -0.285,0.342 -0.578,0.7 -0.879,1.074 l -0.83,1.038 c 0.146,0.781 0.285,1.456 0.415,2.025 0.13,0.57 0.246,1.044 0.348,1.423 0.102,0.378 0.191,0.677 0.269,0.897 0.077,0.219 0.16,0.384 0.25,0.494 0.089,0.109 0.181,0.188 0.274,0.231 0.094,0.045 0.202,0.067 0.324,0.067 0.22,0 0.433,-0.086 0.641,-0.256 0.207,-0.172 0.506,-0.558 0.897,-1.16 l 0.793,0.525 c -0.57,0.846 -1.084,1.442 -1.544,1.788 -0.46,0.346 -1.007,0.519 -1.642,0.519 -0.35,0 -0.647,-0.063 -0.891,-0.189 -0.244,-0.126 -0.456,-0.327 -0.635,-0.604 -0.179,-0.277 -0.338,-0.709 -0.476,-1.295 -0.252,-1.041 -0.407,-1.839 -0.464,-2.393 h -0.122 c -0.863,1.213 -1.503,2.084 -1.922,2.613 -0.419,0.528 -0.765,0.919 -1.038,1.172 -0.272,0.252 -0.537,0.429 -0.793,0.53 -0.257,0.102 -0.597,0.153 -1.02,0.153 -0.383,0 -0.696,-0.049 -0.94,-0.146 l 0.488,-2.21 h 0.854 c 0.049,0.342 0.191,0.513 0.427,0.513 0.114,0 0.234,-0.03 0.36,-0.092 0.126,-0.061 0.307,-0.207 0.543,-0.439 0.236,-0.231 0.562,-0.596 0.977,-1.092 0.415,-0.494 1.017,-1.238 1.807,-2.232 z" id="path58" style="fill:#404040"></path>
  </g>
  <g id="g60">
    <path d="m 295.855,468.579 -0.219,-0.073 c -0.801,0.781 -1.58,1.348 -2.337,1.699 -0.757,0.351 -1.56,0.527 -2.409,0.527 -1.25,0 -2.242,-0.33 -2.975,-0.988 -0.732,-0.66 -1.098,-1.541 -1.098,-2.645 0,-1.436 0.705,-2.565 2.116,-3.391 1.411,-0.826 3.552,-1.346 6.423,-1.561 v -1.392 c 0,-0.908 -0.102,-1.608 -0.307,-2.103 -0.205,-0.492 -0.469,-0.839 -0.791,-1.039 -0.322,-0.2 -0.709,-0.301 -1.158,-0.301 -0.449,0 -0.837,0.078 -1.164,0.234 -0.327,0.156 -0.623,0.452 -0.887,0.887 -0.264,0.435 -0.459,1.037 -0.586,1.809 h -2.768 v -2.666 c 1.123,-0.498 2.072,-0.871 2.849,-1.121 0.776,-0.248 1.499,-0.432 2.168,-0.549 0.669,-0.117 1.312,-0.176 1.927,-0.176 1.182,0 2.126,0.156 2.834,0.469 0.708,0.313 1.238,0.82 1.59,1.523 0.352,0.703 0.527,1.675 0.527,2.915 v 5.713 c 0,0.83 0.023,1.419 0.072,1.765 0.049,0.348 0.125,0.599 0.228,0.755 0.103,0.156 0.234,0.278 0.396,0.366 0.162,0.088 0.457,0.186 0.887,0.293 v 0.967 h -5.449 l 0.131,-1.917 z m -0.482,-4.995 c -1.514,0.039 -2.635,0.322 -3.362,0.85 -0.727,0.528 -1.091,1.299 -1.091,2.314 0,0.605 0.166,1.067 0.498,1.385 0.332,0.318 0.791,0.476 1.377,0.476 0.449,0 0.873,-0.119 1.273,-0.358 0.4,-0.239 0.719,-0.56 0.953,-0.96 0.234,-0.4 0.352,-0.825 0.352,-1.274 v -2.433 z" id="path62" style="fill:#404040"></path>
    <path d="m 308.183,474.522 c -0.236,-1.424 -0.558,-3.142 -0.964,-5.151 -0.432,-2.148 -0.717,-3.479 -0.855,-3.992 -0.17,-0.618 -0.35,-1.013 -0.537,-1.184 -0.113,-0.105 -0.256,-0.158 -0.427,-0.158 -0.261,0 -0.505,0.105 -0.732,0.316 -0.228,0.212 -0.509,0.578 -0.843,1.1 l -0.793,-0.525 c 0.562,-0.838 1.086,-1.43 1.574,-1.776 0.488,-0.346 1.033,-0.519 1.637,-0.519 0.333,0 0.617,0.045 0.854,0.135 0.163,0.064 0.326,0.173 0.488,0.323 0.163,0.15 0.308,0.36 0.434,0.628 0.127,0.27 0.236,0.57 0.33,0.904 0.094,0.333 0.197,0.813 0.311,1.439 0.195,1.051 0.385,2.155 0.568,3.314 0.183,1.16 0.34,2.236 0.47,3.229 0.789,-1.139 1.459,-2.254 2.008,-3.344 0.55,-1.091 0.944,-2.039 1.185,-2.845 0.241,-0.806 0.359,-1.461 0.359,-1.966 0,-0.382 -0.081,-0.643 -0.244,-0.781 -0.162,-0.138 -0.439,-0.219 -0.83,-0.244 l 0.123,-0.598 h 3.21 l 0.329,0.61 c -0.618,1.692 -1.457,3.503 -2.514,5.433 -1.043,1.888 -2.234,3.768 -3.577,5.639 -1.286,1.783 -2.356,3.072 -3.21,3.87 -0.595,0.545 -1.168,0.936 -1.722,1.172 -0.439,0.179 -0.907,0.269 -1.403,0.269 -0.172,0 -0.369,-0.015 -0.593,-0.043 -0.224,-0.028 -0.396,-0.066 -0.519,-0.115 l 0.525,-2.369 h 0.964 c 0,0.521 0.179,0.781 0.537,0.781 0.472,0 1.021,-0.295 1.647,-0.885 0.626,-0.59 1.363,-1.478 2.21,-2.667 z" id="path64" style="fill:#404040"></path>
  </g>
  <g id="g66">
    <path d="m 375.309,141.079 -0.221,-0.073 c -0.801,0.781 -1.579,1.348 -2.336,1.699 -0.757,0.351 -1.561,0.527 -2.41,0.527 -1.25,0 -2.24,-0.33 -2.973,-0.988 -0.732,-0.66 -1.1,-1.541 -1.1,-2.645 0,-1.436 0.706,-2.565 2.117,-3.391 1.411,-0.826 3.553,-1.346 6.424,-1.561 v -1.392 c 0,-0.908 -0.104,-1.608 -0.309,-2.103 -0.205,-0.492 -0.469,-0.839 -0.791,-1.039 -0.322,-0.2 -0.707,-0.301 -1.156,-0.301 -0.449,0 -0.838,0.078 -1.165,0.234 -0.327,0.156 -0.622,0.452 -0.886,0.887 -0.264,0.435 -0.459,1.037 -0.586,1.809 h -2.77 v -2.666 c 1.123,-0.498 2.073,-0.871 2.85,-1.121 0.776,-0.248 1.499,-0.432 2.168,-0.549 0.669,-0.117 1.311,-0.176 1.926,-0.176 1.182,0 2.127,0.156 2.835,0.469 0.708,0.313 1.237,0.82 1.589,1.523 0.352,0.703 0.527,1.675 0.527,2.915 v 5.713 c 0,0.83 0.025,1.419 0.074,1.765 0.049,0.348 0.124,0.599 0.227,0.755 0.103,0.156 0.234,0.278 0.396,0.366 0.162,0.088 0.456,0.186 0.886,0.293 v 0.967 h -5.449 l 0.133,-1.917 z m -0.485,-4.995 c -1.514,0.039 -2.634,0.322 -3.361,0.85 -0.727,0.528 -1.092,1.299 -1.092,2.314 0,0.605 0.166,1.067 0.498,1.385 0.332,0.318 0.791,0.476 1.377,0.476 0.449,0 0.875,-0.119 1.275,-0.358 0.4,-0.239 0.717,-0.56 0.951,-0.96 0.234,-0.4 0.352,-0.825 0.352,-1.274 v -2.433 z" id="path68" style="fill:#404040"></path>
    <path d="m 391.785,143.568 -0.744,3.43 h -8.838 l -0.232,-0.598 6.678,-7.691 c 0.943,-1.082 1.635,-1.851 2.074,-2.307 l -0.072,-0.086 h -2.857 c -0.423,0 -0.732,0.029 -0.928,0.086 -0.196,0.057 -0.391,0.157 -0.586,0.299 -0.195,0.143 -0.404,0.354 -0.628,0.635 -0.224,0.281 -0.475,0.682 -0.751,1.203 h -1.086 l 0.72,-3.211 h 8.679 l 0.232,0.61 -5.822,6.689 c -1.132,1.294 -2.112,2.393 -2.942,3.296 l 0.073,0.086 h 2.759 c 0.488,0 0.862,-0.026 1.123,-0.08 0.261,-0.053 0.488,-0.152 0.684,-0.299 0.196,-0.147 0.396,-0.368 0.604,-0.665 0.207,-0.297 0.465,-0.763 0.775,-1.397 h 1.085 z" id="path70" style="fill:#404040"></path>
  </g>
  <g id="g72">
    <path d="m 331.643,290.544 c -0.527,2.432 -1.39,4.206 -2.586,5.325 -1.196,1.117 -2.824,1.677 -4.885,1.677 -0.459,0 -0.924,-0.063 -1.393,-0.19 l 0.396,-1.597 c 0.273,0.078 0.596,0.117 0.967,0.117 0.439,0 0.798,-0.062 1.076,-0.183 0.278,-0.123 0.529,-0.333 0.754,-0.631 0.225,-0.298 0.436,-0.734 0.631,-1.311 0.195,-0.577 0.41,-1.387 0.645,-2.432 l 2.373,-10.547 c 0.225,-0.996 0.336,-1.729 0.336,-2.197 0,-0.381 -0.09,-0.652 -0.271,-0.813 -0.181,-0.162 -0.56,-0.271 -1.136,-0.33 l 0.221,-0.967 4.291,-0.161 h 1.67 l -3.089,14.24 z m 4.13,-19.922 -0.762,3.589 h -3.795 l 0.807,-3.589 h 3.75 z" id="path74" style="fill:#962828"></path>
  </g>
  <g id="g76">
    <path d="m 502.208,357.681 c -0.283,-1.709 -0.669,-3.77 -1.157,-6.182 -0.518,-2.578 -0.859,-4.175 -1.025,-4.79 -0.205,-0.742 -0.42,-1.216 -0.645,-1.421 -0.137,-0.127 -0.308,-0.19 -0.513,-0.19 -0.313,0 -0.605,0.127 -0.879,0.381 -0.274,0.254 -0.61,0.693 -1.011,1.318 l -0.952,-0.63 c 0.674,-1.006 1.304,-1.716 1.89,-2.131 0.586,-0.415 1.24,-0.623 1.963,-0.623 0.4,0 0.742,0.054 1.025,0.161 0.195,0.078 0.391,0.208 0.586,0.388 0.195,0.182 0.369,0.433 0.521,0.755 0.152,0.322 0.283,0.684 0.396,1.084 0.113,0.4 0.236,0.977 0.373,1.729 0.234,1.26 0.462,2.585 0.682,3.978 0.22,1.391 0.407,2.683 0.563,3.874 0.947,-1.367 1.751,-2.705 2.41,-4.014 0.659,-1.309 1.133,-2.446 1.421,-3.413 0.288,-0.967 0.432,-1.753 0.432,-2.358 0,-0.459 -0.098,-0.771 -0.293,-0.938 -0.195,-0.167 -0.527,-0.264 -0.996,-0.293 l 0.146,-0.718 h 3.853 l 0.396,0.732 c -0.742,2.031 -1.748,4.204 -3.018,6.519 -1.25,2.266 -2.681,4.521 -4.292,6.768 -1.543,2.139 -2.827,3.687 -3.853,4.644 -0.713,0.654 -1.401,1.123 -2.065,1.406 -0.527,0.215 -1.089,0.322 -1.685,0.322 -0.205,0 -0.441,-0.018 -0.71,-0.051 -0.269,-0.035 -0.477,-0.081 -0.623,-0.14 l 0.63,-2.842 h 1.157 c 0,0.625 0.215,0.938 0.645,0.938 0.566,0 1.226,-0.354 1.978,-1.062 0.751,-0.709 1.634,-1.776 2.65,-3.201 z" id="path78" style="fill:#962828"></path>
  </g>
  <g id="g80">
    <path d="m 229.854,20.882 -0.894,4.116 h -10.605 l -0.278,-0.718 8.013,-9.229 c 1.133,-1.299 1.963,-2.222 2.49,-2.769 l -0.088,-0.103 h -3.428 c -0.508,0 -0.879,0.034 -1.113,0.103 -0.234,0.069 -0.469,0.188 -0.703,0.359 -0.234,0.171 -0.486,0.424 -0.754,0.762 -0.269,0.336 -0.569,0.817 -0.901,1.442 h -1.304 l 0.864,-3.853 h 10.415 l 0.278,0.732 -6.987,8.027 c -1.357,1.553 -2.534,2.871 -3.53,3.955 l 0.088,0.103 h 3.311 c 0.586,0 1.035,-0.031 1.348,-0.095 0.313,-0.064 0.586,-0.184 0.82,-0.359 0.234,-0.175 0.476,-0.441 0.725,-0.799 0.249,-0.355 0.559,-0.915 0.93,-1.677 h 1.303 z" id="path82" style="fill:#286e28"></path>
  </g>
</svg>
