<!-- Created with Inkscape (http://www.inkscape.org/) -->
<svg xmlns:dc="http://purl.org/dc/elements/1.1/" xmlns:cc="http://creativecommons.org/ns#" xmlns:rdf="http://www.w3.org/1999/02/22-rdf-syntax-ns#" xmlns:svg="http://www.w3.org/2000/svg" xmlns="http://www.w3.org/2000/svg" xmlns:xlink="http://www.w3.org/1999/xlink" xmlns:inkscape="http://www.inkscape.org/namespaces/inkscape" version="1.1" width="321.22147" height="502.48792" viewBox="0.0002 0 321.22146 502.48792" id="svg2" xml:space="preserve" style="overflow:visible"><metadata id="metadata38"></metadata><defs id="defs44"></defs><symbol viewBox="-1 -1 2 2" transform="translate(113.28896,151.25331)" id="circular_dot"><path d="M 0,-1 C 0.5522,-1 1,-0.5518 1,0 1,0.5527 0.5522,1 0,1 -0.5522,1 -1,0.5527 -1,0 -1,-0.5518 -0.5522,-1 0,-1 z" id="path4"></path></symbol><path d="" id="path6" style="fill:none"></path><path d="" id="path8" style="fill:none"></path><path d="m 14.49136,459.95941 v -6 m 8.5713,6 v -6 m 8.5713,6 v -6 m 8.5713,6 v -6 m 8.5712,6 v -6 m 8.5723,6 v -6 m 8.5713,6 v -6 m 8.5713,6 v -6 m 8.5713,6 v -6 m 8.5722,6 v -6 m 8.5713,6 v -6 m 8.5713,6 v -6 m 8.5713,6 v -6 m 8.5713,6 v -6 m 8.5723,6 v -6 m 8.5713,6 v -6 m 8.5712,6 v -6 m 8.5713,6 v -6 m 8.5723,6 v -6 m 8.5713,6 v -6 m 8.5713,6 v -6 m 8.5713,6 v -6 m 8.5713,6 v -6 m 8.5722,6 v -6 m 8.5713,6 v -6 m 8.5713,6 v -6 m 8.5713,6 v -6 m 8.5713,6 v -6 m 8.5713,6 v -6 m 8.5713,6 v -6 m 8.5712,6 v -6 m 8.5713,6 v -6 m 8.5713,6 v -6 m 8.5713,6 v -6 m 8.5713,6 v -6" id="path12" style="fill:none;stroke:#000000;stroke-width:0.25;stroke-linejoin:round"></path><path d="m 83.06266,464.95941 v -16 m 171.4287,16 v -16" id="path10" style="fill:none;stroke:#000000;stroke-width:0.25;stroke-linejoin:round"></path><text x="246.25456" y="478.10977" id="text16" style="font-size:16px;font-family:ArialMT">1</text>
<text x="71.860054" y="478.10977" id="text18" style="font-size:16px;font-family:ArialMT">1</text>
<path d="m 14.49136,456.95941 h 300" id="path20" style="fill:none;stroke:#000000;stroke-width:0.25;stroke-linejoin:round"></path><path d="m 171.77646,496.95941 h -6 m 6,-8 h -6 m 6,-8 h -6 m 6,-8 h -6 m 6,-8 h -6 m 6,-16 h -6 m 6,-8 h -6 m 6,-8 h -6 m 6,-8 h -6 m 6,-8 h -6 m 6,-8 h -6 m 6,-8 h -6 m 6,-8 h -6 m 6,-8 h -6 m 6,-16 h -6 m 6,-8 h -6 m 6,-8 h -6 m 6,-8 h -6 m 6,-8 h -6 m 6,-8 h -6 m 6,-8 h -6 m 6,-8 h -6 m 6,-8 h -6 m 6,-15.9991 h -6 m 6,-8 h -6 m 6,-8 h -6 m 6,-8 h -6 m 6,-8 h -6 m 6,-8 h -6 m 6,-8 h -6 m 6,-8 h -6 m 6,-8 h -6 m 6,-16 h -6 m 6,-8 h -6 m 6,-8 h -6 m 6,-8 h -6 m 6,-8 h -6 m 6,-8 h -6 m 6,-8 h -6 m 6,-8 h -6 m 6,-8 h -6 m 6,-16 h -6 m 6,-8 h -6 m 6,-8 h -6 m 6,-8 h -6 m 6,-8 h -6 m 6,-8 h -6 m 6,-8 h -6 m 6,-8 h -6 m 6,-8 h -6 m 6,-16.0005 h -6 m 6,-8 h -6 m 6,-8 h -6 m 6,-8 h -6 m 6,-8 h -6 m 6,-8 h -6" id="path22" style="fill:none;stroke:#000000;stroke-width:0.25;stroke-linejoin:round"></path><path d="m 176.77646,456.95941 h -16 m 16,-80 h -16 m 16,-80 h -16 m 16,-79.9991 h -16 m 16,-80 h -16 m 16,-80.0005 h -16" id="path24" style="fill:none;stroke:#000000;stroke-width:0.25;stroke-linejoin:round"></path><path d="M 168.77646,496.95941 V 8.95991" id="path36" style="fill:none;stroke:#000000;stroke-width:0.25;stroke-linejoin:round"></path><path d="m 14.49136,443.73571 29.7744,-5.4922 20.3252,-5.0078 29.0674,-9.5801 15.6709,-6.6797 16.8359,-8.6758 12.1865,-7.4365 15.5645,-11.168 16.6826,-14.4551 14.7949,-15.3955 15.2051,-18.8486 10.3262,-14.8477 15.6924,-26.2803 10.5049,-20.4834 12.3652,-27.5576 18.1338,-48.3291 13.4014,-42.8936 18.7773,-72.584 14.6914,-68.9771" id="path38" style="fill:none;stroke:#0000ff;stroke-width:2;stroke-linejoin:round;stroke-miterlimit:4;stroke-dasharray:none"></path><path d="m 31.63396,456.95941 132.5693,-67.9033" id="path40" style="fill:none;stroke:#ff0000;stroke-width:2;stroke-linejoin:round;stroke-miterlimit:4;stroke-dasharray:none"></path><path d="m 117.34876,456.95941 v -43.9033" id="path42" style="fill:none;stroke:#01ff00;stroke-width:2;stroke-linejoin:round;stroke-miterlimit:4;stroke-dasharray:none"></path><path d="m 38.144321,472.14325 2.4248,-2.4238 -8.4863,2.4238 8.4863,2.4248 -2.4248,-2.4248 z" id="path3651" style="stroke:#000000;stroke-width:1;stroke-linejoin:round"></path><path d="m 111.01352,472.14325 -2.4238,2.4248 8.4854,-2.4248 -8.4854,-2.4238 2.4238,2.4238 z" id="path3654" style="stroke:#000000;stroke-width:1;stroke-linejoin:round"></path><path d="M 113.56756,464.95941" id="path44" style="stroke:#000000;stroke-linejoin:round"></path><use transform="matrix(2,0,0,2,-109.17502,110.48992)" id="use57" x="-1" y="-1" width="2" height="2" xlink:href="#circular_dot"></use><path d="M 203.06266,456.95941 309.91326,52.54381" id="path59" style="fill:none;stroke:#ff0000;stroke-width:2;stroke-linejoin:round;stroke-miterlimit:4;stroke-dasharray:none"></path><path d="M 288.77646,456.95941 V 132.54431" id="path61" style="fill:none;stroke:#00ff00;stroke-width:2;stroke-linejoin:round;stroke-miterlimit:4;stroke-dasharray:none"></path><path d="m 208.80652,472.14325 2.4326,-2.4326 -8.5146,2.4326 8.5146,2.4336 -2.4326,-2.4336 z" id="path3651_1_" style="stroke:#000000;stroke-width:1;stroke-linejoin:round"></path><path d="m 282.40702,472.14325 -2.4326,2.4336 8.5146,-2.4336 -8.5146,-2.4326 2.4326,2.4326 z" id="path3654_1_" style="stroke:#000000;stroke-width:1;stroke-linejoin:round"></path><path d="M 284.97186,464.95941" id="path63" style="stroke:#000000;stroke-linejoin:round"></path><use transform="matrix(2,0,0,2,62.075098,-170.17552)" id="use77" x="-1" y="-1" width="2" height="2" xlink:href="#circular_dot"></use><path d="m 32.49036,457.47401 h 85.7149" id="path63-9" style="fill:none;stroke:#00ff00;stroke-width:2;stroke-linejoin:round;stroke-miterlimit:4;stroke-dasharray:none"></path><use transform="matrix(2,0,0,2,-194.84593,154.67305)" id="use53" x="-1" y="-1" width="2" height="2" xlink:href="#circular_dot"></use><use transform="matrix(2,0,0,2,-109.2304,154.66159)" id="use55" x="-1" y="-1" width="2" height="2" xlink:href="#circular_dot"></use><path d="m 202.52846,457.47401 h 85.7139" id="path63-5" style="fill:none;stroke:#00ff00;stroke-width:2;stroke-linejoin:round;stroke-miterlimit:4;stroke-dasharray:none"></path><use transform="matrix(2,0,0,2,62.197308,154.56231)" id="use75" x="-1" y="-1" width="2" height="2" xlink:href="#circular_dot"></use><use transform="matrix(2,0,0,2,-23.550898,154.49547)" id="use73" x="-1" y="-1" width="2" height="2" xlink:href="#circular_dot"></use><rect width="332" height="516" x="-5.639534" y="-6.1509857" id="rect40" style="fill:none;stroke:#000000;stroke-width:0.25;stroke-linejoin:round"></rect></svg>
