<!-- Created with Inkscape (http://www.inkscape.org/) -->
<svg xmlns:dc="http://purl.org/dc/elements/1.1/" xmlns:cc="http://creativecommons.org/ns#" xmlns:rdf="http://www.w3.org/1999/02/22-rdf-syntax-ns#" xmlns:svg="http://www.w3.org/2000/svg" xmlns="http://www.w3.org/2000/svg" xmlns:xlink="http://www.w3.org/1999/xlink" xmlns:inkscape="http://www.inkscape.org/namespaces/inkscape" version="1.1" width="400" height="400" id="Sphere_wireframe">
  <title id="title3">Sphere wireframe</title>
  <desc id="desc5">
     about: http://commons.wikimedia.org/wiki/Image:Sphere_wireframe.svg
     rights: GNU Free Documentation license,
             Creative Commons Attribution ShareAlike license
  </desc>
  <metadata id="metadata49"></metadata>
  <defs id="defs47"></defs>
  <g transform="matrix(200,0,0,-200,200,200)" id="sphere">
    <g transform="scale(-1,-1)" id="sphere_back" style="opacity:0.25">
      <g id="sphere_half">
        <g id="meridians" style="fill:#334070;stroke:none">
          <path d="m -0.0309338,0.999521 a 0.99999003,0.0346053 -88.4775 1 0 0.0531389,-1.999274 1,1 0 0 1 0.0087287,2.32e-4 0.99999003,0.0346053 -88.4775 0 1 -0.0531389,1.999274 1,1 0 0 1 -0.0087287,-2.32e-4 z" id="meridian0"></path>
          <path d="M -0.138135,0.990413 A 0.99999,0.171711 -82.3139 1 0 0.129356,-0.991598 1,1 0 0 1 0.138135,-0.990413 0.99999,0.171711 -82.3139 0 1 -0.129356,0.991598 1,1 0 0 1 -0.138135,0.990413 z" id="meridian1"></path>
          <path d="m -0.248942,0.968518 a 0.99999,0.3036 -75.8475 1 0 0.489003,-1.939276 1,1 0 0 1 0.008881,0.00224 0.99999,0.3036 -75.8475 0 1 -0.489003,1.939276 1,1 0 0 1 -0.008881,-0.00224 z" id="meridian2"></path>
          <path d="M -0.366076,0.930585 A 0.99999,0.426264 -68.8025 1 0 0.357082,-0.934073 1,1 0 0 1 0.366076,-0.930585 0.99999,0.426264 -68.8025 0 1 -0.357082,0.934073 1,1 0 0 1 -0.366076,0.930585 z" id="meridian3"></path>
          <path d="M -0.491665,0.870784 A 0.99999,0.535977 -60.846 1 0 0.482638,-0.87582 1,1 0 0 1 0.491665,-0.870784 0.99999,0.535977 -60.846 0 1 -0.482638,0.87582 1,1 0 0 1 -0.491665,0.870784 z" id="meridian4"></path>
          <path d="M -0.625904,0.7799 A 0.99999,0.629404 -51.5732 1 0 0.617106,-0.78688 1,1 0 0 1 0.625904,-0.7799 0.99999,0.629404 -51.5732 0 1 -0.617106,0.78688 1,1 0 0 1 -0.625904,0.7799 z" id="meridian5"></path>
          <path d="M -0.763991,0.645227 A 0.99999,0.703706 -40.5346 1 0 0.756008,-0.654562 1,1 0 0 1 0.763991,-0.645227 0.99999,0.703706 -40.5346 0 1 -0.756008,0.654562 1,1 0 0 1 -0.763991,0.645227 z" id="meridian6"></path>
          <path d="M -0.891016,0.453973 A 0.99999,0.756627 -27.3812 1 0 0.884877,-0.465824 1,1 0 0 1 0.891016,-0.453973 0.99999,0.756627 -27.3812 0 1 -0.884877,0.465824 1,1 0 0 1 -0.891016,0.453973 z" id="meridian7"></path>
          <path d="M -0.978874,0.204465 A 0.99999,0.786559 -12.203 1 0 0.975887,-0.218277 1,1 0 0 1 0.978874,-0.204465 0.99999,0.786559 -12.203 0 1 -0.975887,0.218277 1,1 0 0 1 -0.978874,0.204465 z" id="meridian8"></path>
          <path d="M -0.9969,-0.078673 A 0.99999,0.792591 4.10228 1 0 0.997924,0.0643977 1,1 0 0 1 0.9969,0.078673 0.99999,0.792591 4.10228 0 1 -0.997924,-0.0643977 1,1 0 0 1 -0.9969,-0.078673 z" id="meridian9"></path>
          <path d="M -0.937248,-0.348662 A 0.99999,0.77454 20.0103 1 0 0.941969,0.335699 1,1 0 0 1 0.937248,0.348662 0.99999,0.77454 20.0103 0 1 -0.941969,-0.335699 1,1 0 0 1 -0.937248,-0.348662 z" id="meridian10"></path>
          <path d="M -0.82314,-0.567839 A 0.99999,0.732956 34.2322 1 0 0.830356,0.557233 1,1 0 0 1 0.82314,0.567839 0.99999,0.732956 34.2322 0 1 -0.830356,-0.557233 1,1 0 0 1 -0.82314,-0.567839 z" id="meridian11"></path>
          <path d="m -0.686604,-0.727031 a 0.99999,0.669101 46.3017 1 0 1.381698,1.44595 1,1 0 0 1 -0.00849,0.008112 0.99999,0.669101 46.3017 0 1 -1.381698,-1.44595 1,1 0 0 1 0.00849,-0.008112 z" id="meridian12"></path>
          <path d="M -0.548873,-0.835906 A 0.99999,0.584916 56.4021 1 0 0.557834,0.829952 1,1 0 0 1 0.548873,0.835906 0.99999,0.584916 56.4021 0 1 -0.557834,-0.829952 1,1 0 0 1 -0.548873,-0.835906 z" id="meridian13"></path>
          <path d="m -0.418702,-0.908124 a 0.99999,0.482958 64.9618 1 0 0.846433,1.81203 1,1 0 0 1 -0.009029,0.004218 0.99999,0.482958 64.9618 0 1 -0.846433,-1.81203 1,1 0 0 1 0.009029,-0.004218 z" id="meridian14"></path>
          <path d="M -0.297621,-0.954684 A 0.99999,0.366326 72.4165 1 0 0.306562,0.951851 1,1 0 0 1 0.297621,0.954684 0.99999,0.366326 72.4165 0 1 -0.306562,-0.951851 1,1 0 0 1 -0.297621,-0.954684 z" id="meridian15"></path>
          <path d="M -0.184086,-0.98291 A 0.99999,0.238564 79.1347 1 0 0.192911,0.981216 1,1 0 0 1 0.184086,0.98291 0.99999,0.238564 79.1347 0 1 -0.192911,-0.981216 1,1 0 0 1 -0.184086,-0.98291 z" id="meridian16"></path>
          <path d="m -0.0755152,-0.997145 a 0.99999069,0.10355207 85.4178 1 0 0.1597761,1.993589 1,1 0 0 1 -0.0087457,7.01e-4 0.99999069,0.10355207 85.4178 0 1 -0.1597761,-1.993589 1,1 0 0 1 0.0087457,-7.01e-4 z" id="meridian17"></path>
        </g>
        <g id="circles_of_latitude" style="fill:#334070;stroke:none">
          <path d="m -0.272931,-0.962033 a 0.646124,0.393335 0 0 1 0.545862,0 1,1 0 0 0 -0.026278,-0.007071 0.639439,0.389266 0 0 0 -0.493306,0 1,1 0 0 0 -0.026278,0.007071 z" id="circle_of_latitude4"></path>
          <path d="m -0.591922,-0.805995 a 0.768842,0.468041 0 0 1 1.183844,0 1,1 0 0 0 -0.011648,-0.008426 0.763232,0.464626 0 0 0 -1.160548,0 1,1 0 0 0 -0.011648,0.008426 z" id="circle_of_latitude5"></path>
          <path d="m -0.78025,-0.625467 a 0.868199,0.528526 0 0 1 1.5605,0 1,1 0 0 0 -0.007732,-0.009526 0.863836,0.52587 0 0 0 -1.545036,0 1,1 0 0 0 -0.007732,0.009526 z" id="circle_of_latitude6"></path>
          <path d="m -0.904754,-0.425935 a 0.941176,0.572952 0 0 1 1.809508,0 1,1 0 0 0 -0.004939,-0.010336 0.938191,0.571135 0 0 0 -1.79963,0 1,1 0 0 0 -0.004939,0.010336 z" id="circle_of_latitude7"></path>
          <path d="m -0.976952,-0.21346 a 0.985556,0.599969 0 0 1 1.953904,0 1,1 0 0 0 -0.00243,-0.010833 0.984041,0.599046 0 0 0 -1.949044,0 1,1 0 0 0 -0.00243,0.010833 z" id="circle_of_latitude8"></path>
          <path d="m -0.999985,0.00549983 a 0.99999,0.608756 0 1 1 1.99997,0 1,1 0 0 0 0,-0.01099966 0.99999,0.608756 0 0 0 -1.99997,0 1,1 0 0 0 0,0.01099966 z" id="circle_of_latitude9"></path>
          <path d="m -0.974522,0.224293 a 0.984041,0.599046 0 1 1 1.949044,0 1,1 0 0 0 0.00243,-0.010833 0.985556,0.599969 0 1 0 -1.953904,0 1,1 0 0 0 0.00243,0.010833 z" id="circle_of_latitude10"></path>
          <path d="m -0.899815,0.436271 a 0.938191,0.571135 0 1 1 1.79963,0 1,1 0 0 0 0.004939,-0.010336 0.941176,0.572952 0 1 0 -1.809508,0 1,1 0 0 0 0.004939,0.010336 z" id="circle_of_latitude11"></path>
          <path d="m -0.772518,0.634993 a 0.863836,0.52587 0 1 1 1.545036,0 1,1 0 0 0 0.007732,-0.009526 0.868199,0.528526 0 1 0 -1.5605,0 1,1 0 0 0 0.007732,0.009526 z" id="circle_of_latitude12"></path>
          <path d="m -0.580274,0.814421 a 0.763232,0.464626 0 1 1 1.160548,0 1,1 0 0 0 0.011648,-0.008426 0.768842,0.468041 0 1 0 -1.183844,0 1,1 0 0 0 0.011648,0.008426 z" id="circle_of_latitude13"></path>
          <path d="m -0.246653,0.969104 a 0.639439,0.389266 0 1 1 0.493306,0 1,1 0 0 0 0.026278,-0.007071 0.646124,0.393335 0 1 0 -0.545862,0 1,1 0 0 0 0.026278,0.007071 z" id="circle_of_latitude14"></path>
          <path d="m -0.496217,0.688788 a 0.496217,0.302077 0 1 0 0.992434,0 0.496217,0.302077 0 1 0 -0.992434,0 z M -0.503774,0.685327 a 0.503774,0.306678 0 1 1 1.007548,0 0.503774,0.306678 0 1 1 -1.007548,0 z" id="circle_of_latitude15"></path>
          <path d="m -0.337917,0.746685 a 0.337917,0.205711 0 1 0 0.675834,0 0.337917,0.205711 0 1 0 -0.675834,0 z m -0.0082,-0.002368 a 0.346117,0.210703 0 1 1 0.692234,0 0.346117,0.210703 0 1 1 -0.692234,0 z" id="circle_of_latitude16"></path>
          <path d="m -0.16935,0.781894 a 0.16935,0.103093 0 1 0 0.3387,0 0.16935,0.103093 0 1 0 -0.3387,0 z M -0.177944,0.780692 a 0.177944,0.108325 0 1 1 0.355888,0 0.177944,0.108325 0 1 1 -0.355888,0 z" id="circle_of_latitude17"></path>
        </g>
      </g>
    </g>
    <use id="sphere_front" x="0" y="0" width="1" height="1" xlink:href="#sphere_half"></use>
  </g>
</svg>
