<!-- Created with Inkscape (http://www.inkscape.org/) -->
<svg xmlns:dc="http://purl.org/dc/elements/1.1/" xmlns:cc="http://creativecommons.org/ns#" xmlns:rdf="http://www.w3.org/1999/02/22-rdf-syntax-ns#" xmlns:svg="http://www.w3.org/2000/svg" xmlns="http://www.w3.org/2000/svg" xmlns:inkscape="http://www.inkscape.org/namespaces/inkscape" version="1.1" width="155.5" height="175.5" id="svg4425">
  <defs id="defs4427"></defs>
  <metadata id="metadata4430"></metadata>
  <g transform="translate(-79.75,-242.125)" id="layer1">
    <g transform="matrix(0,-1,1,0,-162.36218,502.36218)" id="g5331">
      <path d="m 220,247.36218 c -9.82287,0.0384 -17.83593,7.13008 -24,19 -6.16373,11.86929 -10,28.03812 -10,46 0,17.96183 3.83653,34.13121 10,46 6.16999,11.88132 14.19744,19 24,19 9.80256,0 18.83001,-7.11868 25,-19 6.16347,-11.86879 10,-28.03817 10,-46 0,-17.96188 -3.83627,-34.13071 -10,-46 -6.16407,-11.86992 -15.17713,-18.9616 -25,-19 z" id="path2985-4-1-5-9-0-7-9-9-0-6" style="font-size:medium;font-style:normal;font-variant:normal;font-weight:normal;font-stretch:normal;text-indent:0;text-align:start;text-decoration:none;line-height:normal;letter-spacing:normal;word-spacing:normal;text-transform:none;direction:ltr;block-progression:tb;writing-mode:lr-tb;text-anchor:start;baseline-shift:baseline;color:#000000;fill:#d0e58e;fill-opacity:1;fill-rule:nonzero;stroke:none;stroke-width:1;marker:none;visibility:visible;display:inline;overflow:visible;enable-background:accumulate;font-family:Sans;-inkscape-font-specification:Sans"></path>
      <path d="m 125,247.36218 c -9.82287,0.0384 -18.83593,7.13008 -25,19 -6.16373,11.86929 -10,28.03812 -10,46 0,17.96183 3.83653,34.13121 10,46 6.16999,11.88132 15.19744,19 25,19 l 95,0 c -10,0 -17.9349,-7.32068 -24,-19 -6.06771,-11.68439 -10,-28.17645 -10,-46 0,-17.82358 3.93255,-34.31613 10,-46 6.06733,-11.68362 14,-19 24,-19 z" id="path2985-4-1-5-9-0-7-9-9-7" style="font-size:medium;font-style:normal;font-variant:normal;font-weight:normal;font-stretch:normal;text-indent:0;text-align:start;text-decoration:none;line-height:normal;letter-spacing:normal;word-spacing:normal;text-transform:none;direction:ltr;block-progression:tb;writing-mode:lr-tb;text-anchor:start;baseline-shift:baseline;color:#000000;fill:#8edfe5;fill-opacity:1;fill-rule:nonzero;stroke:#000000;stroke-width:1;stroke-opacity:1;marker:none;visibility:visible;display:inline;overflow:visible;enable-background:accumulate;font-family:Sans;-inkscape-font-specification:Sans"></path>
      <path d="m 125,247.36218 c 9.82287,0.0384 18.83593,7.13008 25,19 6.16373,11.86929 10,28.03812 10,46 0,17.96183 -3.83653,34.13121 -10,46 -6.16999,11.88132 -15.19744,19 -25,19" id="path4429-3" style="font-size:medium;font-style:normal;font-variant:normal;font-weight:normal;font-stretch:normal;text-indent:0;text-align:start;text-decoration:none;line-height:normal;letter-spacing:normal;word-spacing:normal;text-transform:none;direction:ltr;block-progression:tb;writing-mode:lr-tb;text-anchor:start;baseline-shift:baseline;color:#000000;fill:none;stroke:#000000;stroke-width:0.5;stroke-miterlimit:4;stroke-opacity:0.50196078;stroke-dasharray:none;stroke-dashoffset:0.5;marker:none;visibility:visible;display:inline;overflow:visible;enable-background:accumulate;font-family:Sans;-inkscape-font-specification:Sans"></path>
      <path d="m 220,247.36218 c 9.82287,0.0384 18.83593,7.13008 25,19 6.16373,11.86929 10,28.03812 10,46 0,17.96183 -3.83653,34.13121 -10,46 -6.16999,11.88132 -15.19744,19 -25,19" id="path4429" style="font-size:medium;font-style:normal;font-variant:normal;font-weight:normal;font-stretch:normal;text-indent:0;text-align:start;text-decoration:none;line-height:normal;letter-spacing:normal;word-spacing:normal;text-transform:none;direction:ltr;block-progression:tb;writing-mode:lr-tb;text-anchor:start;baseline-shift:baseline;color:#000000;fill:none;stroke:#000000;stroke-width:1;stroke-opacity:1;marker:none;visibility:visible;display:inline;overflow:visible;enable-background:accumulate;font-family:Sans;-inkscape-font-specification:Sans"></path>
    </g>
    <path d="m 140.25,40.23718 5,0 0,95 -5,0" transform="translate(79.75,242.125)" id="path5387" style="fill:none;stroke:#000000;stroke-width:0.5;stroke-linecap:butt;stroke-linejoin:miter;stroke-miterlimit:4;stroke-opacity:1;stroke-dasharray:none"></path>
    <text x="230" y="330.36218" id="text5389" xml:space="preserve" style="font-size:10px;font-style:normal;font-weight:normal;text-align:center;line-height:125%;letter-spacing:0px;word-spacing:0px;text-anchor:middle;fill:#000000;fill-opacity:1;stroke:none;font-family:Sans">
      <tspan x="230" y="330.36218" id="tspan5391">h</tspan>
    </text>
    <path d="M 150,282.36218 129.82143,250.21932" id="path5393" style="fill:none;stroke:#000000;stroke-width:0.5;stroke-linecap:butt;stroke-linejoin:miter;stroke-miterlimit:4;stroke-opacity:1;stroke-dasharray:none"></path>
    <text x="134.64082" y="273.73877" id="text5389-6" xml:space="preserve" style="font-size:10px;font-style:normal;font-weight:normal;text-align:center;line-height:125%;letter-spacing:0px;word-spacing:0px;text-anchor:middle;fill:#000000;fill-opacity:1;stroke:none;font-family:Sans">
      <tspan x="134.64082" y="273.73877" id="tspan5391-1">r</tspan>
    </text>
  </g>
</svg>
