<!-- Created with Inkscape (http://www.inkscape.org/) -->
<svg xmlns:dc="http://purl.org/dc/elements/1.1/" xmlns:cc="http://creativecommons.org/ns#" xmlns:rdf="http://www.w3.org/1999/02/22-rdf-syntax-ns#" xmlns:svg="http://www.w3.org/2000/svg" xmlns="http://www.w3.org/2000/svg" xmlns:inkscape="http://www.inkscape.org/namespaces/inkscape" version="1.1" width="800" height="800" id="parabola">
  <desc id="desc3">Parabola</desc>
  <metadata id="metadata12"></metadata>
  <defs id="defs10"></defs>
  <g id="layer1"></g>
  <g transform="translate(779.86914,750.5)" id="g7490" style="stroke:#0000ff;stroke-opacity:1">
    <path d="M -729.86914,-50.5 -29.999613,-50" inkscape:connector-type="polyline" id="path1878" style="fill:#000000;fill-opacity:1;fill-rule:evenodd;stroke:#0000ff;stroke-width:1.99999928;stroke-linecap:square;stroke-linejoin:miter;stroke-miterlimit:4;stroke-opacity:1;stroke-dasharray:none"></path>
    <path d="m -59.89538,-49.89953 -9.52544,-9.60045 28.81623,9.50387 -28.89461,9.52521 9.60382,-9.42863 z" id="path10914" style="fill:#000000;fill-opacity:1;fill-rule:evenodd;stroke:#0000ff;stroke-width:1;stroke-linecap:butt;stroke-linejoin:miter;stroke-miterlimit:50;stroke-opacity:1;stroke-dasharray:none"></path>
    <text x="-59.869141" y="-20.5" id="text5716" xml:space="preserve" style="font-size:28px;font-style:normal;font-variant:normal;font-weight:normal;font-stretch:normal;text-align:start;line-height:125%;writing-mode:lr-tb;text-anchor:start;fill:#000000;fill-opacity:1;stroke:#0000ff;stroke-width:1px;stroke-linecap:butt;stroke-linejoin:miter;stroke-opacity:1;font-family:Times New Roman">
      <tspan x="-59.869141" y="-20.5" id="tspan5718">x</tspan>
    </text>
  </g>
  <g transform="translate(150,49.99946)" id="g5704" style="fill:#000000;fill-opacity:1;stroke:#0000ff;stroke-opacity:1">
    <path d="M -49.9,0.99942161 -50,700.00054" inkscape:connector-type="polyline" id="path2766" style="fill:#000000;fill-opacity:1;fill-rule:evenodd;stroke:#0000ff;stroke-width:1.99999905;stroke-linecap:square;stroke-linejoin:miter;stroke-miterlimit:4;stroke-opacity:1;stroke-dasharray:none"></path>
    <path d="m -49.88993,29.619706 -9.58092,9.540076 9.47457,-28.89919 9.55451,28.977568 -9.44816,-9.618454 z" id="path10027" style="fill:#000000;fill-opacity:1;fill-rule:evenodd;stroke:#0000ff;stroke-width:1;stroke-linecap:butt;stroke-linejoin:miter;stroke-miterlimit:50;stroke-opacity:1;stroke-dasharray:none"></path>
    <text x="-79.664062" y="23.457031" id="text2786" xml:space="preserve" style="font-size:28px;font-style:normal;font-variant:normal;font-weight:normal;font-stretch:normal;text-align:start;line-height:125%;writing-mode:lr-tb;text-anchor:start;fill:#000000;fill-opacity:1;stroke:#0000ff;stroke-width:1px;stroke-linecap:butt;stroke-linejoin:miter;stroke-opacity:1;font-family:Times New Roman">
      <tspan x="-79.664062" y="23.457031" id="tspan3432">y</tspan>
    </text>
  </g>
  <path d="M 50,600 C 270,550 510,170 750,120" id="path3328" style="fill:none;stroke:#ff0000;stroke-width:4;stroke-linecap:butt;stroke-linejoin:miter;stroke-miterlimit:4;stroke-opacity:1;stroke-dasharray:none"></path>
  <path d="m 70.530717,350.00002 359.807463,0" id="path3711" style="fill:none;stroke:#000000;stroke-width:0.99999994px;stroke-linecap:butt;stroke-linejoin:miter;stroke-opacity:1"></path>
  <path d="m 91.414521,231.00002 478.909119,0" id="path3713" style="fill:none;stroke:#000000;stroke-width:1px;stroke-linecap:butt;stroke-linejoin:miter;stroke-opacity:1"></path>
  <path d="m 91.309151,470.00002 219.119879,0" id="path3715" style="fill:none;stroke:#000000;stroke-width:1px;stroke-linecap:butt;stroke-linejoin:miter;stroke-opacity:1"></path>
  <path d="m 271.36908,440.95012 0,269.76736" id="path3717" style="fill:none;stroke:#000000;stroke-width:1px;stroke-linecap:butt;stroke-linejoin:miter;stroke-opacity:1"></path>
  <path d="m 400.93455,331.01244 0,408.45018" id="path3719" style="fill:none;stroke:#000000;stroke-width:0.99999988px;stroke-linecap:butt;stroke-linejoin:miter;stroke-opacity:1"></path>
  <path d="m 540.36906,201.04262 0,508.91484" id="path3721" style="fill:none;stroke:#000000;stroke-width:0.99999994px;stroke-linecap:butt;stroke-linejoin:miter;stroke-opacity:1"></path>
  <text x="380" y="730" id="text3723" xml:space="preserve" style="font-size:28px;font-style:normal;font-variant:normal;font-weight:normal;font-stretch:normal;text-align:start;line-height:125%;writing-mode:lr-tb;text-anchor:start;fill:#640064;fill-opacity:1;stroke:#640064;stroke-width:1px;stroke-linecap:butt;stroke-linejoin:miter;stroke-opacity:1;font-family:Times New Roman;-inkscape-font-specification:Times New Roman">
    <tspan x="380" y="730" id="tspan2910">c</tspan>
  </text>
  <text x="70" y="340" id="text3727" xml:space="preserve" style="font-size:28px;font-style:normal;font-variant:normal;font-weight:normal;font-stretch:normal;text-align:start;line-height:125%;writing-mode:lr-tb;text-anchor:start;fill:#000082;fill-opacity:1;stroke:#000082;stroke-width:1px;stroke-linecap:butt;stroke-linejoin:miter;stroke-opacity:1;font-family:Times New Roman">
    <tspan x="70" y="340" id="tspan3749">L</tspan>
  </text>
  <path d="m 510,620 10,10 -10,10 30,-10 -30,-10 z" id="path3739" style="fill:#640064;fill-opacity:1;fill-rule:evenodd;stroke:#640064;stroke-width:1px;stroke-linecap:butt;stroke-linejoin:miter;stroke-opacity:1"></path>
  <path d="m 370,620 10,10 -10,10 30,-10 -30,-10 z" id="path3741" style="fill:#640064;fill-opacity:1;fill-rule:evenodd;stroke:#640064;stroke-width:1px;stroke-linecap:butt;stroke-linejoin:miter;stroke-opacity:1"></path>
  <path d="m 300,620 -10,10 10,10 -30,-10 30,-10 z" id="path3743" style="fill:#640064;fill-opacity:1;fill-rule:evenodd;stroke:#640064;stroke-width:1px;stroke-linecap:butt;stroke-linejoin:miter;stroke-opacity:1"></path>
  <path d="m 430,620 -10,10 10,10 -30,-10 30,-10 z" id="path3745" style="fill:#640064;fill-opacity:1;fill-rule:evenodd;stroke:#640064;stroke-width:1px;stroke-linecap:butt;stroke-linejoin:miter;stroke-opacity:1"></path>
  <path d="m 180,260 -10,-10 -10,10 10,-30 10,30 z" id="path3751" style="fill:#000082;fill-opacity:1;fill-rule:evenodd;stroke:#000082;stroke-width:1px;stroke-linecap:butt;stroke-linejoin:miter;stroke-opacity:1"></path>
  <path d="m 180,380 -10,-10 -10,10 10,-30 10,30 z" id="path3753" style="fill:#000082;fill-opacity:1;fill-rule:evenodd;stroke:#000082;stroke-width:1px;stroke-linecap:butt;stroke-linejoin:miter;stroke-opacity:1"></path>
  <path d="m 180,440 -10,10 -10,-10 10,30 10,-30 z" id="path3755" style="fill:#000082;fill-opacity:1;fill-rule:evenodd;stroke:#000082;stroke-width:1px;stroke-linecap:butt;stroke-linejoin:miter;stroke-opacity:1"></path>
  <path d="m 180,320 -10,10 -10,-10 10,30 10,-30 z" id="path3757" style="fill:#000082;fill-opacity:1;fill-rule:evenodd;stroke:#000082;stroke-width:1px;stroke-linecap:butt;stroke-linejoin:miter;stroke-opacity:1"></path>
  <g transform="matrix(0.01854305,0,0,-0.02059732,178.68344,299.42327)" id="g3886" style="fill:#000082;fill-opacity:1;stroke:#000082;stroke-opacity:1">
    <path d="m 316,485 c -131.33333,46.66667 -197,117.33333 -197,212 0,74.66667 34.66667,134.33333 104,179 69.33333,44.66667 156,67 260,67 94,0 168.66667,-15.33333 224,-46 55.33333,-30.66667 83,-68 83,-112 0,-22.66667 -8.66667,-42.33333 -26,-59 -17.33333,-16.66667 -37.33333,-25.33333 -60,-26 -37.33333,0 -68,26 -92,78 -33.33333,72 -83.33333,108 -150,108 -52.66667,0 -96,-17.33333 -130,-52 -34,-34.66667 -51,-83 -51,-145 0,-122 63,-183 189,-183 13.33333,0 28.66667,1.33333 46,4 30,4 53.33333,6 70,6 40.66667,0 61,-11.66667 61,-35 0,-26 -20.66667,-39 -62,-39 -14.66667,0 -36.66667,2.33333 -66,7 -22,4 -39,6 -51,6 -133.33333,0 -200,-68 -200,-204 0,-66 17.66667,-119 53,-159 35.33333,-40 84.66667,-60.333333 148,-61 79.33333,0 132,41 158,123 13.33333,43.33333 28,73.33333 44,90 16,16.66667 38,25 66,25 22.66667,0 43,-8 61,-24 18,-16 27.33333,-37 28,-63 C 826,121.33333 792,71.333333 724,32 656,-7.3333333 573.66667,-27.333333 477,-28 371,-28 277,-2.6666667 195,48 113,98.666667 71.666667,166.33333 71,251 c 0,106 81.66667,184 245,234 z" id="path3888" style="fill:#000082;fill-opacity:1;stroke:#000082;stroke-opacity:1"></path>
  </g>
  <g transform="matrix(0.01696926,0,0,-0.02071823,328.81215,619.41989)" id="g3890" style="fill:#640064;fill-opacity:1;stroke:#640064;stroke-opacity:1">
    <path d="m 494,853 c -33.33333,37.33333 -79.66667,82 -139,134 -65.33333,57.3333 -109.33333,102.3333 -132,135 -22.66667,32.6667 -34,69 -34,109 0,58.6667 27.33333,104.6667 82,138 54.66667,33.3333 126,50.3333 214,51 88,0 164.66667,-15 230,-45 65.33333,-30 98.33333,-71.3333 99,-124 0,-25.3333 -8,-46.3333 -24,-63 -16,-16.6667 -34.66667,-25 -56,-25 -30.66667,0 -66.66667,23 -108,69 -42,46.6667 -77.33333,79.3333 -106,98 -28.66667,18.6667 -62.66667,28.3333 -102,29 -49.33333,0 -89.66667,-11 -121,-33 -31.33333,-22 -47.33333,-50 -48,-84 0,-32 13,-62 39,-90 26,-28 93,-79 201,-153 C 604.33333,919.66667 685.66667,857.66667 733,813 780.33333,768.33333 819.33333,714 850,650 880.66667,586 895.66667,518.33333 895,447 895,321.66667 851,211.33333 763,116 675,20.666667 571.66667,-27.333333 453,-28 345.66667,-28 255,10.333333 181,87 107,163.66667 70,266 70,394 c 0,123.33333 40.66667,226.33333 122,309 81.33333,82.66667 182,132.66667 302,150 z m 44,-46 C 346.66667,775.66667 251,644.33333 251,413 251,293.66667 274.66667,201 322,135 369.33333,69 425,36 489,36 c 66,0 120.33333,31.666667 163,95 42.66667,63.33333 64,149.66667 64,259 0,157.33333 -59.33333,296.33333 -178,417 z" id="path3892" style="fill:#640064;fill-opacity:1;stroke:#640064;stroke-opacity:1"></path>
  </g>
  <g transform="matrix(0.01854305,0,0,-0.02059732,178.74594,419.36077)" id="g3898" style="fill:#000082;fill-opacity:1;stroke:#000082;stroke-opacity:1">
    <path d="m 316,485 c -131.33333,46.66667 -197,117.33333 -197,212 0,74.66667 34.66667,134.33333 104,179 69.33333,44.66667 156,67 260,67 94,0 168.66667,-15.33333 224,-46 55.33333,-30.66667 83,-68 83,-112 0,-22.66667 -8.66667,-42.33333 -26,-59 -17.33333,-16.66667 -37.33333,-25.33333 -60,-26 -37.33333,0 -68,26 -92,78 -33.33333,72 -83.33333,108 -150,108 -52.66667,0 -96,-17.33333 -130,-52 -34,-34.66667 -51,-83 -51,-145 0,-122 63,-183 189,-183 13.33333,0 28.66667,1.33333 46,4 30,4 53.33333,6 70,6 40.66667,0 61,-11.66667 61,-35 0,-26 -20.66667,-39 -62,-39 -14.66667,0 -36.66667,2.33333 -66,7 -22,4 -39,6 -51,6 -133.33333,0 -200,-68 -200,-204 0,-66 17.66667,-119 53,-159 35.33333,-40 84.66667,-60.333333 148,-61 79.33333,0 132,41 158,123 13.33333,43.33333 28,73.33333 44,90 16,16.66667 38,25 66,25 22.66667,0 43,-8 61,-24 18,-16 27.33333,-37 28,-63 C 826,121.33333 792,71.333333 724,32 656,-7.3333333 573.66667,-27.333333 477,-28 371,-28 277,-2.6666667 195,48 113,98.666667 71.666667,166.33333 71,251 c 0,106 81.66667,184 245,234 z" id="path3900" style="fill:#000082;fill-opacity:1;stroke:#000082;stroke-opacity:1"></path>
  </g>
  <g transform="matrix(0.01696926,0,0,-0.02071823,458.81215,619.41989)" id="g3902" style="fill:#640064;fill-opacity:1;stroke:#640064;stroke-opacity:1">
    <path d="m 494,853 c -33.33333,37.33333 -79.66667,82 -139,134 -65.33333,57.3333 -109.33333,102.3333 -132,135 -22.66667,32.6667 -34,69 -34,109 0,58.6667 27.33333,104.6667 82,138 54.66667,33.3333 126,50.3333 214,51 88,0 164.66667,-15 230,-45 65.33333,-30 98.33333,-71.3333 99,-124 0,-25.3333 -8,-46.3333 -24,-63 -16,-16.6667 -34.66667,-25 -56,-25 -30.66667,0 -66.66667,23 -108,69 -42,46.6667 -77.33333,79.3333 -106,98 -28.66667,18.6667 -62.66667,28.3333 -102,29 -49.33333,0 -89.66667,-11 -121,-33 -31.33333,-22 -47.33333,-50 -48,-84 0,-32 13,-62 39,-90 26,-28 93,-79 201,-153 C 604.33333,919.66667 685.66667,857.66667 733,813 780.33333,768.33333 819.33333,714 850,650 880.66667,586 895.66667,518.33333 895,447 895,321.66667 851,211.33333 763,116 675,20.666667 571.66667,-27.333333 453,-28 345.66667,-28 255,10.333333 181,87 107,163.66667 70,266 70,394 c 0,123.33333 40.66667,226.33333 122,309 81.33333,82.66667 182,132.66667 302,150 z m 44,-46 C 346.66667,775.66667 251,644.33333 251,413 251,293.66667 274.66667,201 322,135 369.33333,69 425,36 489,36 c 66,0 120.33333,31.666667 163,95 42.66667,63.33333 64,149.66667 64,259 0,157.33333 -59.33333,296.33333 -178,417 z" id="path3904" style="fill:#640064;fill-opacity:1;stroke:#640064;stroke-opacity:1"></path>
  </g>
  <path d="m 170,240 0,220" id="path3906" style="fill:#000082;fill-opacity:1;fill-rule:evenodd;stroke:#000082;stroke-width:2;stroke-linecap:butt;stroke-linejoin:miter;stroke-miterlimit:4;stroke-opacity:1;stroke-dasharray:none"></path>
  <path d="m 280,630 250,0" id="path3908" style="fill:#640064;fill-opacity:1;fill-rule:evenodd;stroke:#640064;stroke-width:2;stroke-linecap:butt;stroke-linejoin:miter;stroke-miterlimit:4;stroke-opacity:1;stroke-dasharray:none"></path>
</svg>
