<!-- Created with Inkscape (http://www.inkscape.org/) -->
<svg xmlns:dc="http://purl.org/dc/elements/1.1/" xmlns:cc="http://creativecommons.org/ns#" xmlns:rdf="http://www.w3.org/1999/02/22-rdf-syntax-ns#" xmlns:svg="http://www.w3.org/2000/svg" xmlns="http://www.w3.org/2000/svg" xmlns:inkscape="http://www.inkscape.org/namespaces/inkscape" version="1.1" width="343pt" height="340pt" id="svg9106">
  <defs id="defs9108"></defs>
  <metadata id="metadata9112"></metadata>
  <g id="layer1">
    <path d="m 5,216.5 418.75,0" id="path9115" style="fill:none;stroke:#000000;stroke-width:1px;stroke-linecap:butt;stroke-linejoin:miter;stroke-opacity:1"></path>
    <path d="M 216.25,5 215,418.75" id="path9117" style="fill:none;stroke:#000000;stroke-width:1px;stroke-linecap:butt;stroke-linejoin:miter;stroke-opacity:1"></path>
    <path d="M 6.25,41.5 C 75.423585,157.29798 145.00326,216.24274 215.00214,216.50001 284.58293,216.75574 354.57793,159.02294 425,41.5" id="path9119" style="fill:none;stroke:#27d926;stroke-width:1.25;stroke-linecap:butt;stroke-linejoin:miter;stroke-miterlimit:4;stroke-opacity:1;stroke-dasharray:none"></path>
    <path d="M 3.75,392.75086 C 72.923585,276.95288 142.50326,218.00812 212.50214,217.75085 282.08293,217.49512 352.07793,275.22792 422.5,392.75086" id="path9121" style="fill:none;stroke:#ee382f;stroke-width:1.25;stroke-linecap:butt;stroke-linejoin:miter;stroke-miterlimit:4;stroke-opacity:1;stroke-dasharray:none"></path>
    <path d="M 10.892136,51.874309 C 35.046749,91.146398 7.9569671,374.86458 37.700694,338.64042 90.065356,274.86677 71.415176,132.61056 97.441506,162.53352 c 7.043834,8.09842 12.480314,95.20287 26.353834,85.68784 12.65244,-8.67758 10.39898,-58.57723 25.0357,-48.13706 7.01232,5.00179 7.85727,27.9948 17.71894,25.25364 7.70979,-2.14302 12.99313,-14.1911 18.01152,-11.44786 2.5289,1.38239 5.26923,4.94594 6.98312,4.60474 3.61442,-0.71958 4.55265,-2.4305 9.4495,-1.87029 3.50309,0.39784 7.07884,0.29811 14.24413,0.41931 7.50978,0.12703 13.22965,0.4044 17.35312,1.57318 4.39489,1.24572 7.38136,-3.66085 9.2256,-3.63762 2.93201,0.0369 9.36725,7.75152 11.64221,8.18248 14.77094,2.79818 7.39998,-13.67692 18.75661,-18.6701 5.88696,-2.58833 5.24822,27.79697 11.29852,32.60723 20.12462,15.99996 21.967,-50.40891 29.89212,-57.54292 25.92748,-23.33935 7.73293,83.60495 30.37823,104.94062 27.83713,26.22725 24.67223,-168.96995 48.58791,-190.425751 19.97719,-17.92241 0.95617,211.077991 27.24238,289.798791" id="path10092" style="fill:none;stroke:#55509f;stroke-width:1px;stroke-linecap:butt;stroke-linejoin:miter;stroke-opacity:1"></path>
  </g>
</svg>
