<!-- Created with Inkscape (http://www.inkscape.org/) -->
<svg xmlns:dc="http://purl.org/dc/elements/1.1/" xmlns:cc="http://creativecommons.org/ns#" xmlns:rdf="http://www.w3.org/1999/02/22-rdf-syntax-ns#" xmlns:svg="http://www.w3.org/2000/svg" xmlns="http://www.w3.org/2000/svg" xmlns:xlink="http://www.w3.org/1999/xlink" xmlns:inkscape="http://www.inkscape.org/namespaces/inkscape" version="1.1" width="340" height="102" viewBox="0 0 340 102" id="svg3195">
  <desc id="desc3197">Produced by GNUPLOT 4.4 patchlevel 0 </desc>
  <metadata id="metadata3403"></metadata>
  <defs id="defs3199"></defs>
  <g transform="matrix(1.077387,0,0,1.077387,-19.413941,-5.500025)" id="g3215" style="color:#ffffff;fill:none;stroke:#000000;stroke-width:1;stroke-linecap:butt;stroke-linejoin:miter"></g>
  <g transform="matrix(1.077387,0,0,1.077387,-19.413941,-5.500025)" id="g3217" style="color:#000094;fill:none;stroke:currentColor;stroke-width:1;stroke-linecap:butt;stroke-linejoin:miter"></g>
  <g transform="matrix(1.077387,0,0,1.077387,-19.413941,-5.500025)" id="g3219" style="color:#808080;fill:none;stroke:currentColor;stroke-width:1;stroke-linecap:butt;stroke-linejoin:miter">
    <path d="m 45.6,54.2 273.5,0" id="path3221"></path>
  </g>
  <g transform="matrix(1.077387,0,0,1.077387,-19.413941,-5.500025)" id="g3223" style="color:#000094;fill:none;stroke:currentColor;stroke-width:1;stroke-linecap:butt;stroke-linejoin:miter">
    <path d="m 45.6,54.2 9,0 m 264.5,0 -9,0" id="path3225" style="stroke:#000000"></path>
    <g transform="translate(37.3,58.7)" id="g3227" style="font-size:15px;text-anchor:end;fill:#000000;stroke:none;font-family:Arial">
      <text id="text3229">0</text>
    </g>
  </g>
  <g transform="matrix(1.077387,0,0,1.077387,-19.413941,-5.500025)" id="g3231" style="color:#808080;fill:none;stroke:currentColor;stroke-width:1;stroke-linecap:butt;stroke-linejoin:miter">
    <path d="m 45.6,38.4 273.5,0" id="path3233"></path>
  </g>
  <g transform="matrix(1.077387,0,0,1.077387,-19.413941,-5.500025)" id="g3235" style="color:#000094;fill:none;stroke:currentColor;stroke-width:1;stroke-linecap:butt;stroke-linejoin:miter">
    <g transform="translate(37.3,42.9)" id="g3239" style="font-size:15px;text-anchor:end;fill:#000000;stroke:none;font-family:Arial">
      <text id="text3241">2</text>
    </g>
  </g>
  <g transform="matrix(1.077387,0,0,1.077387,-19.413941,-5.500025)" id="g3243" style="color:#808080;fill:none;stroke:currentColor;stroke-width:1;stroke-linecap:butt;stroke-linejoin:miter">
    <path d="m 45.6,22.6 273.5,0" id="path3245"></path>
  </g>
  <g transform="matrix(1.077387,0,0,1.077387,-19.413941,-5.500025)" id="g3247" style="color:#000094;fill:none;stroke:currentColor;stroke-width:1;stroke-linecap:butt;stroke-linejoin:miter">
    <g transform="translate(37.3,27.1)" id="g3251" style="font-size:15px;text-anchor:end;fill:#000000;stroke:none;font-family:Arial">
      <text id="text3253">4</text>
    </g>
  </g>
  <g transform="matrix(1.077387,0,0,1.077387,-19.413941,-5.500025)" id="g3255" style="color:#808080;fill:none;stroke:currentColor;stroke-width:1;stroke-linecap:butt;stroke-linejoin:miter">
    <path d="m 45.6,66 0,-49.3" id="path3257"></path>
  </g>
  <g transform="matrix(1.077387,0,0,1.077387,-19.413941,-5.500025)" id="g3259" style="color:#000094;fill:none;stroke:currentColor;stroke-width:1;stroke-linecap:butt;stroke-linejoin:miter">
    <path d="m 45.6,66 0,-9 m 0,-40.3 0,9" id="path3261" style="stroke:#000000"></path>
    <g transform="translate(45.6,88.5)" id="g3263" style="font-size:15px;text-anchor:middle;fill:#000000;stroke:none;font-family:Arial">
      <text id="text3265">-2</text>
    </g>
  </g>
  <g transform="matrix(1.077387,0,0,1.077387,-19.413941,-5.500025)" id="g3267" style="color:#808080;fill:none;stroke:currentColor;stroke-width:1;stroke-linecap:butt;stroke-linejoin:miter">
    <path d="m 114,66 0,-49.3" id="path3269"></path>
  </g>
  <g transform="matrix(1.077387,0,0,1.077387,-19.413941,-5.500025)" id="g3271" style="color:#000094;fill:none;stroke:currentColor;stroke-width:1;stroke-linecap:butt;stroke-linejoin:miter">
    <g transform="translate(114,88.5)" id="g3275" style="font-size:15px;text-anchor:middle;fill:#000000;stroke:none;font-family:Arial">
      <text id="text3277">-1</text>
    </g>
  </g>
  <g transform="matrix(1.077387,0,0,1.077387,-19.413941,-5.500025)" id="g3279" style="color:#808080;fill:none;stroke:currentColor;stroke-width:1;stroke-linecap:butt;stroke-linejoin:miter">
    <path d="m 182.4,66 0,-49.3" id="path3281"></path>
  </g>
  <g transform="matrix(1.077387,0,0,1.077387,-19.413941,-5.500025)" id="g3283" style="color:#000094;fill:none;stroke:currentColor;stroke-width:1;stroke-linecap:butt;stroke-linejoin:miter">
    <path d="m 182.4,66 0,-9" id="path3285" style="stroke:#000000"></path>
    <g transform="translate(182.4,88.5)" id="g3287" style="font-size:15px;text-anchor:middle;fill:#000000;stroke:none;font-family:Arial">
      <text id="text3289">0</text>
    </g>
  </g>
  <g transform="matrix(1.077387,0,0,1.077387,-19.413941,-5.500025)" id="g3291" style="color:#808080;fill:none;stroke:currentColor;stroke-width:1;stroke-linecap:butt;stroke-linejoin:miter">
    <path d="m 250.7,66 0,-49.3" id="path3293"></path>
  </g>
  <g transform="matrix(1.077387,0,0,1.077387,-19.413941,-5.500025)" id="g3295" style="color:#000094;fill:none;stroke:currentColor;stroke-width:1;stroke-linecap:butt;stroke-linejoin:miter">
    <path d="m 250.7,66 0,-9" id="path3297" style="stroke:#000000"></path>
    <g transform="translate(250.7,88.5)" id="g3299" style="font-size:15px;text-anchor:middle;fill:#000000;stroke:none;font-family:Arial">
      <text id="text3301">1</text>
    </g>
  </g>
  <g transform="matrix(1.077387,0,0,1.077387,-19.413941,-5.500025)" id="g3303" style="color:#808080;fill:none;stroke:currentColor;stroke-width:1;stroke-linecap:butt;stroke-linejoin:miter">
    <path d="m 319.1,66 0,-49.3" id="path3305"></path>
  </g>
  <g transform="matrix(1.077387,0,0,1.077387,-19.413941,-5.500025)" id="g3307" style="color:#000094;fill:none;stroke:currentColor;stroke-width:1;stroke-linecap:butt;stroke-linejoin:miter">
    <path d="m 319.1,66 0,-9" id="path3309" style="stroke:#000000"></path>
    <g transform="translate(319.1,88.5)" id="g3311" style="font-size:15px;text-anchor:middle;fill:#000000;stroke:none;font-family:Arial">
      <text id="text3313">2</text>
    </g>
  </g>
  <g transform="matrix(1.077387,0,0,1.077387,-19.413941,-5.500025)" id="g3315" style="color:#0000ff;fill:none;stroke:currentColor;stroke-width:1;stroke-linecap:butt;stroke-linejoin:miter">
    <path d="m 45.6,54.2 273.5,0" id="path3317"></path>
  </g>
  <g transform="matrix(1.077387,0,0,1.077387,-19.413941,-5.500025)" id="g3319" style="color:#000094;fill:none;stroke:currentColor;stroke-width:1;stroke-linecap:butt;stroke-linejoin:miter">
    <path d="m 45.6,16.7 0,49.3 273.5,0 m 0,-49.3 m -273.5,0" id="path3321" style="stroke:#000000"></path>
  </g>
  <g transform="matrix(1.077387,0,0,1.077387,-19.413941,-5.500025)" id="g3323" style="color:#000000;fill:none;stroke:currentColor;stroke-width:1;stroke-linecap:butt;stroke-linejoin:miter">
    <path d="m 45.6,54.2 17.1,0 0,-32.1 -17.1,0.5 0,31.6 z" id="path3325"></path>
    <path d="m 45.6,54.2 17.1,0 0,-32.1 -8.62213,0.252109 L 45.6,22.6 z" id="path3327" style="stroke:#0000ff"></path>
    <path d="m 62.7,54.2 17.1,0 0,-17.8 -17.1,-14.3 0,32.1 z" id="path3329"></path>
    <path d="m 62.7,54.2 17.1,0 0,-17.8 -17.1,-14.3 0,32.1 z" id="path3331" style="stroke:#0000ff"></path>
    <path d="m 79.8,54.2 17.1,0 0,-4.5 -17.1,-13.3 0,17.8 z" id="path3333"></path>
    <path d="m 79.8,54.2 17.1,0 0,-4.5 -17.1,-13.3 0,17.8 z" id="path3335" style="stroke:#0000ff"></path>
    <path d="m 96.9,54.2 17.1,0 0,-7.9 -17.1,3.4 0,4.5 z" id="path3337"></path>
    <path d="m 96.9,54.2 17.1,0 0,-7.9 -17.1,3.4 0,4.5 z" id="path3339" style="stroke:#0000ff"></path>
    <path d="m 114,54.2 17.1,0 0,-12.4 -17.1,4.5 0,7.9 z" id="path3341"></path>
    <path d="m 114,54.2 17.1,0 0,-12.4 -17.1,4.5 0,7.9 z" id="path3343" style="stroke:#0000ff"></path>
    <path d="m 131.1,54.2 17.1,0 0,-2 -17.1,-10.4 0,12.4 z" id="path3345"></path>
    <path d="m 131.1,54.2 17.1,0 0,-2 -17.1,-10.4 0,12.4 z" id="path3347" style="stroke:#0000ff"></path>
    <path d="m 148.2,54.2 17.1,0 0,7.4 -17.1,-9.4 0,2 z" id="path3349"></path>
    <path d="m 148.2,54.2 17.1,0 0,7.4 -17.1,-9.4 0,2 z" id="path3351" style="stroke:#0000ff"></path>
    <path d="m 165.3,54.2 17.1,0 -17.1,7.4 0,-7.4 z" id="path3353"></path>
    <path d="m 165.3,54.2 17.1,0 -17.1,7.4 0,-7.4 z" id="path3355" style="stroke:#0000ff"></path>
    <path d="m 182.4,54.2 17,0 0,-8.4 -17,8.4 z" id="path3357"></path>
    <path d="m 182.4,54.2 17,0 0,-8.4 -17,8.4 z" id="path3359" style="stroke:#0000ff"></path>
    <path d="m 199.4,54.2 17.1,0 0,-2 -17.1,-6.4 0,8.4 z" id="path3361"></path>
    <path d="m 199.4,54.2 17.1,0 0,-2 -17.1,-6.4 0,8.4 z" id="path3363" style="stroke:#0000ff"></path>
    <path d="m 216.5,54.2 17.1,0 0,3.4 -17.1,-5.4 0,2 z" id="path3365"></path>
    <path d="m 216.5,54.2 17.1,0 0,3.4 -17.1,-5.4 0,2 z" id="path3367" style="stroke:#0000ff"></path>
    <path d="m 233.6,54.2 17.1,0 0,-7.9 -17.1,11.3 0,-3.4 z" id="path3369"></path>
    <path d="m 233.6,54.2 17.1,0 0,-7.9 -17.1,11.3 0,-3.4 z" id="path3371" style="stroke:#0000ff"></path>
    <path d="m 250.7,54.2 17.1,0 0,-20.2 -17.1,12.3 0,7.9 z" id="path3373"></path>
    <path d="m 250.7,54.2 17.1,0 0,-20.2 -17.1,12.3 0,7.9 z" id="path3375" style="stroke:#0000ff"></path>
    <path d="m 267.8,54.2 17.1,0 0,-17.8 -17.1,-2.4 0,20.2 z" id="path3377"></path>
    <path d="m 267.8,54.2 17.1,0 0,-17.8 -17.1,-2.4 0,20.2 z" id="path3379" style="stroke:#0000ff"></path>
    <path d="m 284.9,54.2 17.1,0 0,-16.3 -17.1,-1.5 0,17.8 z" id="path3381"></path>
    <path d="m 284.9,54.2 17.1,0 0,-16.3 -17.1,-1.5 0,17.8 z" id="path3383" style="stroke:#0000ff"></path>
    <path d="m 302,54.2 17.1,0 0,-31.6 -17.1,15.3 0,16.3 z" id="path3385"></path>
    <path d="m 302,54.2 17.1,0 0,-31.6 -17.1,15.3 0,16.3 z" id="path3387" style="stroke:#0000ff"></path>
  </g>
  <g transform="matrix(1.077387,0,0,1.077387,-19.413941,-5.500025)" id="g3389" style="color:#000094;fill:none;stroke:currentColor;stroke-width:1;stroke-linecap:butt;stroke-linejoin:miter"></g>
  <a xlink:title="Plot #1" transform="matrix(1.077387,0,0,1.077387,-19.413941,-5.500025)" id="a3391">
    <g id="g3393" style="color:#ff0000;fill:none;stroke:currentColor;stroke-width:1;stroke-linecap:butt;stroke-linejoin:miter">
      <path d="m 45.6,22.6 0.3,-0.1 0.2,0 0.3,-0.1 0.3,-0.1 0.3,0 0.2,-0.1 0.3,-0.1 0.3,-0.1 0.3,0 0.2,-0.1 0.3,-0.1 0.3,0 0.3,-0.1 0.2,-0.1 0.3,0 0.3,-0.1 0.3,0 0.2,-0.1 0.3,-0.1 0.3,0 0.2,-0.1 0.3,0 0.3,-0.1 0.3,0 0.2,0 0.3,-0.1 0.3,0 0.3,-0.1 0.2,0 0.3,0 0.3,0 0.3,-0.1 0.2,0 0.3,0 0.3,0 0.3,0 0.2,0 0.3,0 0.3,0 0.3,0 0.2,0 0.3,0 0.3,0.1 0.2,0 0.3,0 0.3,0 0.3,0.1 0.2,0 0.3,0.1 0.3,0 0.3,0.1 0.2,0 0.3,0.1 0.3,0.1 0.3,0 0.2,0.1 0.3,0.1 0.3,0.1 0.3,0.1 0.2,0.1 0.3,0.1 0.3,0.1 0.2,0.1 0.3,0.1 0.3,0.1 0.3,0.1 0.2,0.2 0.3,0.1 0.3,0.2 0.3,0.1 0.2,0.1 0.3,0.2 0.3,0.2 0.3,0.1 0.2,0.2 0.3,0.2 0.3,0.1 0.3,0.2 0.2,0.2 0.3,0.2 0.3,0.2 0.2,0.2 0.3,0.2 0.3,0.2 0.3,0.2 0.2,0.2 0.3,0.2 0.3,0.2 0.3,0.3 0.2,0.2 0.3,0.2 0.3,0.3 0.3,0.2 0.2,0.2 0.3,0.3 0.3,0.2 0.3,0.3 0.2,0.2 0.3,0.3 0.3,0.3 0.3,0.2 0.2,0.3 0.3,0.3 0.3,0.2 0.2,0.3 0.3,0.3 0.3,0.3 0.3,0.2 0.2,0.3 0.3,0.3 0.3,0.3 0.3,0.3 0.2,0.3 0.3,0.2 0.3,0.3 0.3,0.3 0.2,0.3 0.3,0.3 0.3,0.3 0.3,0.3 0.2,0.3 0.3,0.3 0.3,0.3 0.2,0.3 0.3,0.3 0.3,0.2 0.3,0.3 0.2,0.3 0.3,0.3 0.3,0.3 0.3,0.3 0.2,0.3 0.3,0.3 0.3,0.3 0.3,0.3 0.2,0.2 0.3,0.3 0.3,0.3 0.3,0.3 0.2,0.3 0.3,0.2 0.3,0.3 0.2,0.3 0.3,0.2 0.3,0.3 0.3,0.3 0.2,0.2 0.3,0.3 0.3,0.2 0.3,0.3 0.2,0.2 0.3,0.3 0.3,0.2 0.3,0.2 0.2,0.3 0.3,0.2 0.3,0.2 0.3,0.3 0.2,0.2 0.3,0.2 0.3,0.2 0.3,0.2 0.2,0.2 0.3,0.2 0.3,0.2 0.2,0.2 0.3,0.2 0.3,0.1 0.3,0.2 0.2,0.2 0.3,0.2 0.3,0.1 0.3,0.2 0.2,0.1 0.3,0.2 0.3,0.1 0.3,0.1 0.2,0.2 0.3,0.1 0.3,0.1 0.3,0.1 0.2,0.1 0.3,0.1 0.3,0.1 0.2,0.1 0.3,0.1 0.3,0.1 0.3,0.1 0.2,0.1 0.3,0 0.3,0.1 0.3,0 0.2,0.1 0.3,0 0.3,0.1 0.3,0 0.2,0.1 0.3,0 0.3,0 0.3,0 0.2,0 0.3,0 0.3,0 0.2,0 0.3,0 0.3,0 0.3,0 0.2,0 0.3,-0.1 0.3,0 0.3,0 0.2,-0.1 0.3,0 0.3,-0.1 0.3,0 0.2,-0.1 0.3,0 0.3,-0.1 0.3,-0.1 0.2,0 0.3,-0.1 0.3,-0.1 0.3,-0.1 0.2,-0.1 0.3,-0.1 0.3,-0.1 0.2,-0.1 0.3,0 0.3,-0.2 0.3,-0.1 0.2,-0.1 0.3,-0.1 0.3,-0.1 0.3,-0.1 0.2,-0.1 0.3,-0.1 0.3,-0.2 0.3,-0.1 0.2,-0.1 0.3,-0.1 0.3,-0.2 0.3,-0.1 0.2,-0.1 0.3,-0.2 0.3,-0.1 0.2,-0.1 0.3,-0.1 0.3,-0.2 0.3,-0.1 0.2,-0.2 0.3,-0.1 0.3,-0.1 0.3,-0.2 0.2,-0.1 0.3,-0.1 0.3,-0.2 0.3,-0.1 0.2,-0.1 0.3,-0.2 0.3,-0.1 0.3,-0.1 0.2,-0.2 0.3,-0.1 0.3,-0.1 0.3,-0.1 0.2,-0.2 0.3,-0.1 0.3,-0.1 0.2,-0.1 0.3,-0.1 0.3,-0.2 0.3,-0.1 0.2,-0.1 0.3,-0.1 0.3,-0.1 0.3,-0.1 0.2,-0.1 0.3,-0.1 0.3,-0.1 0.3,-0.1 0.2,-0.1 0.3,0 0.3,-0.1 0.3,-0.1 0.2,-0.1 0.3,0 0.3,-0.1 0.2,-0.1 0.3,0 0.3,-0.1 0.3,0 0.2,-0.1 0.3,0 0.3,0 0.3,-0.1 0.2,0 0.3,0 0.3,-0.1 0.3,0 0.2,0 0.3,0 0.3,0 0.3,0 0.2,0 0.3,0 0.3,0 0.2,0.1 0.3,0 0.3,0 0.3,0.1 0.2,0 0.3,0 0.3,0.1 0.3,0 0.2,0.1 0.3,0.1 0.3,0 0.3,0.1 0.2,0.1 0.3,0.1 0.3,0 0.3,0.1 0.2,0.1 0.3,0.1 0.3,0.1 0.3,0.1 0.2,0.2 0.3,0.1 0.3,0.1 0.2,0.1 0.3,0.2 0.3,0.1 0.3,0.1 0.2,0.2 0.3,0.1 0.3,0.2 0.3,0.1 0.2,0.2 0.3,0.1 0.3,0.2 0.3,0.2 0.2,0.2 0.3,0.1 0.3,0.2 0.3,0.2 0.2,0.2 0.3,0.2 0.3,0.2 0.2,0.2 0.3,0.2 0.3,0.2 0.3,0.2 0.2,0.2 0.3,0.2 0.3,0.2 0.3,0.2 0.2,0.2 0.3,0.2 0.3,0.3 0.3,0.2 0.2,0.2 0.3,0.2 0.3,0.2 0.3,0.3 0.2,0.2 0.3,0.2 0.3,0.2 0.2,0.3 0.3,0.2 0.3,0.2 0.3,0.3 0.2,0.2 0.3,0.2 0.3,0.3 0.3,0.2 0.2,0.2 0.3,0.2 0.3,0.3 0.3,0.2 0.2,0.2 0.3,0.3 0.3,0.2 0.3,0.2 0.2,0.2 0.3,0.2 0.3,0.3 0.3,0.2 0.2,0.2 0.3,0.2 0.3,0.2 0.2,0.2 0.3,0.2 0.3,0.3 0.3,0.2 0.2,0.2 0.3,0.2 0.3,0.1 0.3,0.2 0.2,0.2 0.3,0.2 0.3,0.2 0.3,0.2 0.2,0.2 0.3,0.1 0.3,0.2 0.3,0.2 0.2,0.1 0.3,0.2 0.3,0.1 0.2,0.2 0.3,0.1 0.3,0.2 0.3,0.1 0.2,0.1 0.3,0.2 0.3,0.1 0.3,0.1 0.2,0.1 0.3,0.1 0.3,0.1 0.3,0.1 0.2,0.1 0.3,0.1 0.3,0.1 0.3,0.1 0.2,0.1 0.3,0 0.3,0.1 0.2,0.1 0.3,0 0.3,0.1 0.3,0 0.2,0.1 0.3,0 0.3,0 0.3,0 0.2,0.1 0.3,0 0.3,0 0.3,0 0.2,0 0.3,0 0.3,0 0.3,-0.1 0.2,0 0.3,0 0.3,0 0.3,-0.1 0.2,0 0.3,-0.1 0.3,0 0.2,-0.1 0.3,0 0.3,-0.1 0.3,-0.1 0.2,-0.1 0.3,0 0.3,-0.1 0.3,-0.1 0.2,-0.1 0.3,-0.1 0.3,-0.1 0.3,-0.1 0.2,-0.1 0.3,-0.2 0.3,-0.1 0.3,-0.1 0.2,-0.1 0.3,-0.2 0.3,-0.1 0.2,-0.2 0.3,-0.1 0.3,-0.1 0.3,-0.2 0.2,-0.1 0.3,-0.2 0.3,-0.2 0.3,-0.1 0.2,-0.2 0.3,-0.2 0.3,-0.1 0.3,-0.2 0.2,-0.2 0.3,-0.2 0.3,-0.1 0.3,-0.2 0.2,-0.2 0.3,-0.2 0.3,-0.2 0.2,-0.2 0.3,-0.2 0.3,-0.2 0.3,-0.2 0.2,-0.1 0.3,-0.2 0.3,-0.2 0.3,-0.2 0.2,-0.2 0.3,-0.2 0.3,-0.2 0.3,-0.2 0.2,-0.2 0.3,-0.2 0.3,-0.2 0.3,-0.2 0.2,-0.2 0.3,-0.2 0.3,-0.2 0.3,-0.2 0.2,-0.2 0.3,-0.2 0.3,-0.2 0.2,-0.2 0.3,-0.2 0.3,-0.2 0.3,-0.1 0.2,-0.2 0.3,-0.2 0.3,-0.2 0.3,-0.2 0.2,-0.2 0.3,-0.1 0.3,-0.2 0.3,-0.2 0.2,-0.1 0.3,-0.2 0.3,-0.2 0.3,-0.1 0.2,-0.2 0.3,-0.1 0.3,-0.2 0.2,-0.1 0.3,-0.2 0.3,-0.1 0.3,-0.1 0.2,-0.2 0.3,-0.1 0.3,-0.1 0.3,-0.1 0.2,-0.2 0.3,-0.1 0.3,-0.1 0.3,-0.1 0.2,-0.1 0.3,-0.1 0.3,-0.1 0.3,-0.1 0.2,0 0.3,-0.1 0.3,-0.1 0.2,-0.1 0.3,0 0.3,-0.1 0.3,0 0.2,-0.1 0.3,0 0.3,-0.1 0.3,0 0.2,0 0.3,-0.1 0.3,0 0.3,0 0.2,0 0.3,0 0.3,0 0.3,0 0.2,0 0.3,0 0.3,0 0.3,0 0.2,0 0.3,0.1 0.3,0 0.2,0 0.3,0.1 0.3,0 0.3,0.1 0.2,0 0.3,0.1 0.3,0.1 0.3,0 0.2,0.1 0.3,0.1 0.3,0.1 0.3,0 0.2,0.1 0.3,0.1 0.3,0.1 0.3,0.1 0.2,0.1 0.3,0.1 0.3,0.1 0.2,0.2 0.3,0.1 0.3,0.1 0.3,0.1 0.2,0.2 0.3,0.1 0.3,0.1 0.3,0.2 0.2,0.1 0.3,0.1 0.3,0.2 0.3,0.1 0.2,0.2 0.3,0.1 0.3,0.2 0.3,0.1 0.2,0.2 0.3,0.1 0.3,0.2 0.2,0.2 0.3,0.1 0.3,0.2 0.3,0.1 0.2,0.2 0.3,0.2 0.3,0.1 0.3,0.2 0.2,0.2 0.3,0.1 0.3,0.2 0.3,0.2 0.2,0.1 0.3,0.2 0.3,0.2 0.3,0.1 0.2,0.2 0.3,0.2 0.3,0.1 0.3,0.2 0.2,0.2 0.3,0.1 0.3,0.2 0.2,0.1 0.3,0.2 0.3,0.1 0.3,0.2 0.2,0.1 0.3,0.2 0.3,0.1 0.3,0.2 0.2,0.1 0.3,0.2 0.3,0.1 0.3,0.1 0.2,0.2 0.3,0.1 0.3,0.1 0.3,0.1 0.2,0.2 0.3,0.1 0.3,0.1 0.2,0.1 0.3,0.1 0.3,0.1 0.3,0.1 0.2,0.1 0.3,0.1 0.3,0.1 0.3,0.1 0.2,0 0.3,0.1 0.3,0.1 0.3,0 0.2,0.1 0.3,0 0.3,0.1 0.3,0 0.2,0.1 0.3,0 0.3,0.1 0.2,0 0.3,0 0.3,0 0.3,0 0.2,0 0.3,0 0.3,0 0.3,0 0.2,0 0.3,0 0.3,0 0.3,-0.1 0.2,0 0.3,0 0.3,-0.1 0.3,0 0.2,-0.1 0.3,-0.1 0.3,0 0.3,-0.1 0.2,-0.1 0.3,-0.1 0.3,0 0.2,-0.1 0.3,-0.1 0.3,-0.1 0.3,-0.1 0.2,-0.2 0.3,-0.1 0.3,-0.1 0.3,-0.1 0.2,-0.2 0.3,-0.1 0.3,-0.1 0.3,-0.2 0.2,-0.1 0.3,-0.2 0.3,-0.2 0.3,-0.1 0.2,-0.2 0.3,-0.2 0.3,-0.1 0.2,-0.2 0.3,-0.2 0.3,-0.2 0.3,-0.2 0.2,-0.2 0.3,-0.2 0.3,-0.2 0.3,-0.2 0.2,-0.2 0.3,-0.2 0.3,-0.2 0.3,-0.3 0.2,-0.2 0.3,-0.2 0.3,-0.2 0.3,-0.3 0.2,-0.2 0.3,-0.3 0.3,-0.2 0.2,-0.2 0.3,-0.3 0.3,-0.2 0.3,-0.3 0.2,-0.2 0.3,-0.3 0.3,-0.2 0.3,-0.3 0.2,-0.2 0.3,-0.3 0.3,-0.3 0.3,-0.2 0.2,-0.3 0.3,-0.2 0.3,-0.3 0.3,-0.3 0.2,-0.2 0.3,-0.3 0.3,-0.2 0.3,-0.3 0.2,-0.3 0.3,-0.2 0.3,-0.3 0.2,-0.2 0.3,-0.3 0.3,-0.3 0.3,-0.2 0.2,-0.3 0.3,-0.2 0.3,-0.3 0.3,-0.2 0.2,-0.3 0.3,-0.2 0.3,-0.3 0.3,-0.2 0.2,-0.3 0.3,-0.2 0.3,-0.3 0.3,-0.2 0.2,-0.2 0.3,-0.3 0.3,-0.2 0.2,-0.2 0.3,-0.2 0.3,-0.3 0.3,-0.2 0.2,-0.2 0.3,-0.2 0.3,-0.2 0.3,-0.2 0.2,-0.2 0.3,-0.2 0.3,-0.2 0.3,-0.2 0.2,-0.2 0.3,-0.2 0.3,-0.1 0.3,-0.2 0.2,-0.2 0.3,-0.2 0.3,-0.1 0.3,-0.2 0.2,-0.1 0.3,-0.2 0.3,-0.1 0.2,-0.2 0.3,-0.1 0.3,-0.1 0.3,-0.2 0.2,-0.1 0.3,-0.1 0.3,-0.1 0.3,-0.1 0.2,-0.1 0.3,-0.1 0.3,-0.1 0.3,-0.1 0.2,-0.1 0.3,-0.1 0.3,0 0.3,-0.1 0.2,-0.1 0.3,0 0.3,-0.1 0.2,0 0.3,-0.1 0.3,0 0.3,-0.1 0.2,0 0.3,0 0.3,-0.1 0.3,0 0.2,0 0.3,0 0.3,0 0.3,0 0.2,0 0.3,0 0.3,0 0.3,0 0.2,0 0.3,0.1 0.3,0 0.2,0 0.3,0.1 0.3,0 0.3,0 0.2,0.1 0.3,0 0.3,0.1 0.3,0 0.2,0.1 0.3,0.1 0.3,0 0.3,0.1 0.2,0.1 0.3,0 0.3,0.1 0.3,0.1 0.2,0.1 0.3,0.1 0.3,0 0.3,0.1 0.2,0.1 0.3,0.1 0.3,0.1 0.2,0.1 0.3,0.1 0.3,0.1 0.3,0.1 0.2,0.1 0.3,0.1 0.3,0.1 0.3,0.1 0.2,0.1 0.3,0.1 0.3,0.1 0.3,0.1 0.2,0.1 0.3,0.1 0.3,0.1 0.3,0.1 0.2,0.1 0.3,0.1 0.3,0.1 0.2,0.1 0.3,0.1 0.3,0.1 0.3,0.1 0.2,0.1 0.3,0.1 0.3,0.1 0.3,0.1 0.2,0.1 0.3,0.1 0.3,0.1 0.3,0.1 0.2,0 0.3,0.1 0.3,0.1 0.3,0.1 0.2,0 0.3,0.1 0.3,0.1 0.2,0 0.3,0.1 0.3,0.1 0.3,0 0.2,0.1 0.3,0 0.3,0.1 0.3,0 0.2,0 0.3,0.1 0.3,0 0.3,0 0.2,0 0.3,0.1 0.3,0 0.3,0 0.2,0 0.3,0 0.3,0 0.3,0 0.2,0 0.3,-0.1 0.3,0 0.2,0 0.3,0 0.3,-0.1 0.3,0 0.2,-0.1 0.3,0 0.3,-0.1 0.3,0 0.2,-0.1 0.3,-0.1 0.3,-0.1 0.3,-0.1 0.2,0 0.3,-0.1 0.3,-0.1 0.3,-0.1 0.2,-0.1 0.3,-0.2 0.3,-0.1 0.2,-0.1 0.3,-0.1 0.3,-0.2 0.3,-0.1 0.2,-0.2 0.3,-0.1 0.3,-0.2 0.3,-0.1 0.2,-0.2 0.3,-0.2 0.3,-0.2 0.3,-0.1 0.2,-0.2 0.3,-0.2 0.3,-0.2 0.3,-0.2 0.2,-0.2 0.3,-0.2 0.3,-0.2 0.2,-0.3 0.3,-0.2 0.3,-0.2 0.3,-0.3 0.2,-0.2 0.3,-0.2 0.3,-0.3 0.3,-0.2 0.2,-0.3 0.3,-0.2 0.3,-0.3 0.3,-0.3 0.2,-0.2 0.3,-0.3 0.3,-0.3 0.3,-0.3 0.2,-0.2 0.3,-0.3 0.3,-0.3 0.3,-0.3 0.2,-0.3 0.3,-0.3 0.3,-0.3 0.2,-0.3 0.3,-0.3 0.3,-0.3 0.3,-0.3 0.2,-0.3 0.3,-0.3 0.3,-0.4 0.3,-0.3 0.2,-0.3 0.3,-0.3 0.3,-0.3 0.3,-0.3 0.2,-0.4 0.3,-0.3 0.3,-0.3 0.3,-0.3 0.2,-0.4 0.3,-0.3" id="path3395"></path>
    </g>
  </a>
  <g transform="matrix(1.077387,0,0,1.077387,-19.413941,-5.500025)" id="g3397" style="color:#000094;fill:none;stroke:currentColor;stroke-width:1;stroke-linecap:butt;stroke-linejoin:miter">
    <path d="m 45.6,16.7 0,49.3 273.5,0 m 0,-49.3 m -273.5,0" id="path3399" style="stroke:#000000"></path>
  </g>
</svg>
