<!-- Created with Inkscape (http://www.inkscape.org/) -->
<svg xmlns:dc="http://purl.org/dc/elements/1.1/" xmlns:cc="http://creativecommons.org/ns#" xmlns:rdf="http://www.w3.org/1999/02/22-rdf-syntax-ns#" xmlns:svg="http://www.w3.org/2000/svg" xmlns="http://www.w3.org/2000/svg" xmlns:xlink="http://www.w3.org/1999/xlink" xmlns:inkscape="http://www.inkscape.org/namespaces/inkscape" version="1.1" width="340" height="110" viewBox="0 0 340 110" id="svg3537">
  <desc id="desc3539">Produced by GNUPLOT 4.4 patchlevel 0 </desc>
  <metadata id="metadata3683"></metadata>
  <defs id="defs3541"></defs>
  <g transform="matrix(1.0773869,0,0,1.0773869,-19.413938,-5.8101113)" id="g3557" style="color:#ffffff;fill:none;stroke:#000000;stroke-width:1;stroke-linecap:butt;stroke-linejoin:miter"></g>
  <g transform="matrix(1.0773869,0,0,1.0773869,-19.413938,-5.8101113)" id="g3559" style="color:#000094;fill:none;stroke:currentColor;stroke-width:1;stroke-linecap:butt;stroke-linejoin:miter"></g>
  <g transform="matrix(1.0773869,0,0,1.0773869,-19.413938,-5.8101113)" id="g3561" style="color:#808080;fill:none;stroke:currentColor;stroke-width:1;stroke-linecap:butt;stroke-linejoin:miter">
    <path d="m 45.6,60.2 273.5,0" id="path3563"></path>
  </g>
  <g transform="matrix(1.0773869,0,0,1.0773869,-19.413938,-5.8101113)" id="g3565" style="color:#000094;fill:none;stroke:currentColor;stroke-width:1;stroke-linecap:butt;stroke-linejoin:miter">
    <path d="m 45.6,60.2 9,0 m 264.5,0 -9,0" id="path3567" style="stroke:#000000"></path>
    <g transform="translate(37.3,64.7)" id="g3569" style="font-size:15px;text-anchor:end;fill:#000000;stroke:none;font-family:Arial">
      <text id="text3571">0</text>
    </g>
  </g>
  <g transform="matrix(1.0773869,0,0,1.0773869,-19.413938,-5.8101113)" id="g3573" style="color:#808080;fill:none;stroke:currentColor;stroke-width:1;stroke-linecap:butt;stroke-linejoin:miter">
    <path d="m 45.6,41.9 273.5,0" id="path3575"></path>
  </g>
  <g transform="matrix(1.0773869,0,0,1.0773869,-19.413938,-5.8101113)" id="g3577" style="color:#000094;fill:none;stroke:currentColor;stroke-width:1;stroke-linecap:butt;stroke-linejoin:miter">
    <g transform="translate(37.3,46.4)" id="g3581" style="font-size:15px;text-anchor:end;fill:#000000;stroke:none;font-family:Arial">
      <text id="text3583">2</text>
    </g>
  </g>
  <g transform="matrix(1.0773869,0,0,1.0773869,-19.413938,-5.8101113)" id="g3585" style="color:#808080;fill:none;stroke:currentColor;stroke-width:1;stroke-linecap:butt;stroke-linejoin:miter">
    <path d="m 45.6,23.6 273.5,0" id="path3587"></path>
  </g>
  <g transform="matrix(1.0773869,0,0,1.0773869,-19.413938,-5.8101113)" id="g3589" style="color:#000094;fill:none;stroke:currentColor;stroke-width:1;stroke-linecap:butt;stroke-linejoin:miter">
    <g transform="translate(37.3,28.1)" id="g3593" style="font-size:15px;text-anchor:end;fill:#000000;stroke:none;font-family:Arial">
      <text id="text3595">4</text>
    </g>
  </g>
  <g transform="matrix(1.0773869,0,0,1.0773869,-19.413938,-5.8101113)" id="g3597" style="color:#808080;fill:none;stroke:currentColor;stroke-width:1;stroke-linecap:butt;stroke-linejoin:miter">
    <path d="m 45.6,74 0,-57.3" id="path3599"></path>
  </g>
  <g transform="matrix(1.0773869,0,0,1.0773869,-19.413938,-5.8101113)" id="g3601" style="color:#000094;fill:none;stroke:currentColor;stroke-width:1;stroke-linecap:butt;stroke-linejoin:miter">
    <path d="m 45.6,74 0,-9 m 0,-48.3 0,9" id="path3603" style="stroke:#000000"></path>
    <g transform="translate(45.6,96.5)" id="g3605" style="font-size:15px;text-anchor:middle;fill:#000000;stroke:none;font-family:Arial">
      <text id="text3607">-2</text>
    </g>
  </g>
  <g transform="matrix(1.0773869,0,0,1.0773869,-19.413938,-5.8101113)" id="g3609" style="color:#808080;fill:none;stroke:currentColor;stroke-width:1;stroke-linecap:butt;stroke-linejoin:miter">
    <path d="m 114,74 0,-57.3" id="path3611"></path>
  </g>
  <g transform="matrix(1.0773869,0,0,1.0773869,-19.413938,-5.8101113)" id="g3613" style="color:#000094;fill:none;stroke:currentColor;stroke-width:1;stroke-linecap:butt;stroke-linejoin:miter">
    <path d="m 114,74 0,-9" id="path3615" style="stroke:#000000"></path>
    <g transform="translate(114,96.5)" id="g3617" style="font-size:15px;text-anchor:middle;fill:#000000;stroke:none;font-family:Arial">
      <text id="text3619">-1</text>
    </g>
  </g>
  <g transform="matrix(1.0773869,0,0,1.0773869,-19.413938,-5.8101113)" id="g3621" style="color:#808080;fill:none;stroke:currentColor;stroke-width:1;stroke-linecap:butt;stroke-linejoin:miter">
    <path d="m 182.4,74 0,-57.3" id="path3623"></path>
  </g>
  <g transform="matrix(1.0773869,0,0,1.0773869,-19.413938,-5.8101113)" id="g3625" style="color:#000094;fill:none;stroke:currentColor;stroke-width:1;stroke-linecap:butt;stroke-linejoin:miter">
    <path d="m 182.4,74 0,-9" id="path3627" style="stroke:#000000"></path>
    <g transform="translate(182.4,96.5)" id="g3629" style="font-size:15px;text-anchor:middle;fill:#000000;stroke:none;font-family:Arial">
      <text id="text3631">0</text>
    </g>
  </g>
  <g transform="matrix(1.0773869,0,0,1.0773869,-19.413938,-5.8101113)" id="g3633" style="color:#808080;fill:none;stroke:currentColor;stroke-width:1;stroke-linecap:butt;stroke-linejoin:miter">
    <path d="m 250.7,74 0,-57.3" id="path3635"></path>
  </g>
  <g transform="matrix(1.0773869,0,0,1.0773869,-19.413938,-5.8101113)" id="g3637" style="color:#000094;fill:none;stroke:currentColor;stroke-width:1;stroke-linecap:butt;stroke-linejoin:miter">
    <path d="m 250.7,74 0,-9" id="path3639" style="stroke:#000000"></path>
    <g transform="translate(250.7,96.5)" id="g3641" style="font-size:15px;text-anchor:middle;fill:#000000;stroke:none;font-family:Arial">
      <text id="text3643">1</text>
    </g>
  </g>
  <g transform="matrix(1.0773869,0,0,1.0773869,-19.413938,-5.8101113)" id="g3645" style="color:#808080;fill:none;stroke:currentColor;stroke-width:1;stroke-linecap:butt;stroke-linejoin:miter">
    <path d="m 319.1,74 0,-57.3" id="path3647"></path>
  </g>
  <g transform="matrix(1.0773869,0,0,1.0773869,-19.413938,-5.8101113)" id="g3649" style="color:#000094;fill:none;stroke:currentColor;stroke-width:1;stroke-linecap:butt;stroke-linejoin:miter">
    <path d="m 319.1,74 0,-9" id="path3651" style="stroke:#000000"></path>
    <g transform="translate(319.1,96.5)" id="g3653" style="font-size:15px;text-anchor:middle;fill:#000000;stroke:none;font-family:Arial">
      <text id="text3655">2</text>
    </g>
  </g>
  <g transform="matrix(1.0773869,0,0,1.0773869,-19.413938,-5.8101113)" id="g3657" style="color:#0000ff;fill:none;stroke:currentColor;stroke-width:1;stroke-linecap:butt;stroke-linejoin:miter">
    <path d="m 45.6,60.2 273.5,0" id="path3659"></path>
  </g>
  <g transform="matrix(1.0773869,0,0,1.0773869,-19.413938,-5.8101113)" id="g3661" style="color:#000094;fill:none;stroke:currentColor;stroke-width:1;stroke-linecap:butt;stroke-linejoin:miter">
    <path d="m 45.6,16.7 0,57.3 273.5,0 m 0,-57.3 m -273.5,0" id="path3663" style="stroke:#000000"></path>
  </g>
  <g transform="matrix(1.0773869,0,0,1.0773869,-19.413938,-5.8101113)" id="g3665" style="color:#ffffff;fill:none;stroke:currentColor;stroke-width:1;stroke-linecap:butt;stroke-linejoin:miter">
    <path d="m 45.6,60.2 0,-38.7 17.1,0 0,38.7 -17.1,0 m 17.1,0 0,-30.6 17.1,0 0,30.6 -17.1,0 m 17.1,0 0,-10.8 17.1,0 0,10.8 -17.1,0 m 17.1,0 0,-5.1 17.1,0 0,5.1 -17.1,0 m 17.1,0 0,-13.5 17.1,0 0,13.5 -17.1,0 m 17.1,0 0,-10 17.1,0 0,10 -17.1,0 m 17.1,5.2 0,-5.2 17.1,0 0,5.2 -17.1,0 m 17.1,1.2 0,-6.4 17.1,0 0,6.4 -17.1,0 m 17.1,-6.4 0,-6.6 17,0 0,6.6 -17,0 m 17,0 0,-7.7 17.1,0 0,7.7 -17.1,0 m 17.1,2.9 0,-2.9 17.1,0 0,2.9 -17.1,0 m 17.1,-2.9 0,-0.5 17.1,0 0,0.5 -17.1,0 m 17.1,0 0,-18 17.1,0 0,18 -17.1,0 m 17.1,0 0,-23.8 17.1,0 0,23.8 -17.1,0 m 17.1,0 0,-17.7 17.1,0 0,17.7 -17.1,0 m 17.1,0 0,-25.7 17,0 0,25.7 -17,0" id="path3667" style="stroke:#0000ff"></path>
  </g>
  <g transform="matrix(1.0773869,0,0,1.0773869,-19.413938,-5.8101113)" id="g3669" style="color:#000094;fill:none;stroke:currentColor;stroke-width:1;stroke-linecap:butt;stroke-linejoin:miter"></g>
  <a xlink:title="Plot #1" transform="matrix(1.0773869,0,0,1.0773869,-19.413938,-5.8101113)" id="a3671">
    <g id="g3673" style="color:#ff0000;fill:none;stroke:currentColor;stroke-width:1;stroke-linecap:butt;stroke-linejoin:miter">
      <path d="m 45.6,23.6 0.3,-0.1 0.2,-0.1 0.3,-0.1 0.3,-0.1 0.3,0 0.2,-0.1 0.3,-0.1 0.3,-0.1 0.3,-0.1 0.2,-0.1 0.3,0 0.3,-0.1 0.3,-0.1 0.2,-0.1 0.3,0 0.3,-0.1 0.3,-0.1 0.2,0 0.3,-0.1 0.3,-0.1 0.2,0 0.3,-0.1 0.3,0 0.3,-0.1 0.2,0 0.3,-0.1 0.3,0 0.3,-0.1 0.2,0 0.3,0 0.3,-0.1 0.3,0 0.2,0 0.3,0 0.3,0 0.3,0 0.2,0 0.3,0 0.3,0 0.3,0 0.2,0 0.3,0 0.3,0 0.2,0.1 0.3,0 0.3,0 0.3,0.1 0.2,0 0.3,0.1 0.3,0 0.3,0.1 0.2,0.1 0.3,0 0.3,0.1 0.3,0.1 0.2,0.1 0.3,0.1 0.3,0.1 0.3,0.1 0.2,0.1 0.3,0.1 0.3,0.1 0.2,0.2 0.3,0.1 0.3,0.2 0.3,0.1 0.2,0.1 0.3,0.2 0.3,0.2 0.3,0.1 0.2,0.2 0.3,0.2 0.3,0.2 0.3,0.2 0.2,0.1 0.3,0.2 0.3,0.3 0.3,0.2 0.2,0.2 0.3,0.2 0.3,0.2 0.2,0.2 0.3,0.3 0.3,0.2 0.3,0.3 0.2,0.2 0.3,0.3 0.3,0.2 0.3,0.3 0.2,0.2 0.3,0.3 0.3,0.3 0.3,0.3 0.2,0.3 0.3,0.2 0.3,0.3 0.3,0.3 0.2,0.3 0.3,0.3 0.3,0.3 0.3,0.3 0.2,0.3 0.3,0.3 0.3,0.4 0.2,0.3 0.3,0.3 0.3,0.3 0.3,0.3 0.2,0.4 0.3,0.3 0.3,0.3 0.3,0.4 0.2,0.3 0.3,0.3 0.3,0.4 0.3,0.3 0.2,0.3 0.3,0.4 0.3,0.3 0.3,0.4 0.2,0.3 0.3,0.3 0.3,0.4 0.2,0.3 0.3,0.4 0.3,0.3 0.3,0.3 0.2,0.4 0.3,0.3 0.3,0.4 0.3,0.3 0.2,0.3 0.3,0.4 0.3,0.3 0.3,0.3 0.2,0.4 0.3,0.3 0.3,0.3 0.3,0.3 0.2,0.4 0.3,0.3 0.3,0.3 0.2,0.3 0.3,0.3 0.3,0.3 0.3,0.3 0.2,0.3 0.3,0.3 0.3,0.3 0.3,0.3 0.2,0.3 0.3,0.3 0.3,0.3 0.3,0.2 0.2,0.3 0.3,0.3 0.3,0.2 0.3,0.3 0.2,0.2 0.3,0.3 0.3,0.2 0.3,0.3 0.2,0.2 0.3,0.2 0.3,0.3 0.2,0.2 0.3,0.2 0.3,0.2 0.3,0.2 0.2,0.2 0.3,0.2 0.3,0.2 0.3,0.2 0.2,0.1 0.3,0.2 0.3,0.2 0.3,0.1 0.2,0.2 0.3,0.1 0.3,0.2 0.3,0.1 0.2,0.1 0.3,0.1 0.3,0.2 0.2,0.1 0.3,0.1 0.3,0.1 0.3,0.1 0.2,0 0.3,0.1 0.3,0.1 0.3,0.1 0.2,0 0.3,0.1 0.3,0 0.3,0.1 0.2,0 0.3,0 0.3,0.1 0.3,0 0.2,0 0.3,0 0.3,0 0.2,0 0.3,0 0.3,0 0.3,-0.1 0.2,0 0.3,0 0.3,-0.1 0.3,0 0.2,0 0.3,-0.1 0.3,-0.1 0.3,0 0.2,-0.1 0.3,-0.1 0.3,0 0.3,-0.1 0.2,-0.1 0.3,-0.1 0.3,-0.1 0.3,-0.1 0.2,-0.1 0.3,-0.1 0.3,-0.1 0.2,-0.1 0.3,-0.1 0.3,-0.1 0.3,-0.2 0.2,-0.1 0.3,-0.1 0.3,-0.1 0.3,-0.2 0.2,-0.1 0.3,-0.1 0.3,-0.2 0.3,-0.1 0.2,-0.2 0.3,-0.1 0.3,-0.2 0.3,-0.1 0.2,-0.2 0.3,-0.1 0.3,-0.2 0.2,-0.1 0.3,-0.2 0.3,-0.1 0.3,-0.2 0.2,-0.2 0.3,-0.1 0.3,-0.2 0.3,-0.1 0.2,-0.2 0.3,-0.1 0.3,-0.2 0.3,-0.2 0.2,-0.1 0.3,-0.2 0.3,-0.1 0.3,-0.2 0.2,-0.1 0.3,-0.2 0.3,-0.1 0.3,-0.2 0.2,-0.1 0.3,-0.2 0.3,-0.1 0.2,-0.1 0.3,-0.2 0.3,-0.1 0.3,-0.1 0.2,-0.2 0.3,-0.1 0.3,-0.1 0.3,-0.1 0.2,-0.1 0.3,-0.1 0.3,-0.2 0.3,-0.1 0.2,-0.1 0.3,-0.1 0.3,0 0.3,-0.1 0.2,-0.1 0.3,-0.1 0.3,-0.1 0.2,0 0.3,-0.1 0.3,-0.1 0.3,0 0.2,-0.1 0.3,0 0.3,-0.1 0.3,0 0.2,-0.1 0.3,0 0.3,0 0.3,0 0.2,0 0.3,-0.1 0.3,0 0.3,0 0.2,0.1 0.3,0 0.3,0 0.2,0 0.3,0 0.3,0.1 0.3,0 0.2,0.1 0.3,0 0.3,0.1 0.3,0 0.2,0.1 0.3,0.1 0.3,0.1 0.3,0 0.2,0.1 0.3,0.1 0.3,0.1 0.3,0.1 0.2,0.1 0.3,0.2 0.3,0.1 0.3,0.1 0.2,0.1 0.3,0.2 0.3,0.1 0.2,0.2 0.3,0.1 0.3,0.2 0.3,0.1 0.2,0.2 0.3,0.2 0.3,0.1 0.3,0.2 0.2,0.2 0.3,0.2 0.3,0.2 0.3,0.2 0.2,0.2 0.3,0.2 0.3,0.2 0.3,0.2 0.2,0.2 0.3,0.3 0.3,0.2 0.2,0.2 0.3,0.2 0.3,0.3 0.3,0.2 0.2,0.2 0.3,0.3 0.3,0.2 0.3,0.3 0.2,0.2 0.3,0.3 0.3,0.2 0.3,0.3 0.2,0.2 0.3,0.3 0.3,0.3 0.3,0.2 0.2,0.3 0.3,0.3 0.3,0.2 0.2,0.3 0.3,0.3 0.3,0.2 0.3,0.3 0.2,0.3 0.3,0.2 0.3,0.3 0.3,0.3 0.2,0.2 0.3,0.3 0.3,0.3 0.3,0.2 0.2,0.3 0.3,0.2 0.3,0.3 0.3,0.3 0.2,0.2 0.3,0.3 0.3,0.2 0.3,0.3 0.2,0.2 0.3,0.3 0.3,0.2 0.2,0.3 0.3,0.2 0.3,0.3 0.3,0.2 0.2,0.2 0.3,0.3 0.3,0.2 0.3,0.2 0.2,0.2 0.3,0.3 0.3,0.2 0.3,0.2 0.2,0.2 0.3,0.2 0.3,0.2 0.3,0.2 0.2,0.2 0.3,0.1 0.3,0.2 0.2,0.2 0.3,0.2 0.3,0.1 0.3,0.2 0.2,0.1 0.3,0.2 0.3,0.1 0.3,0.2 0.2,0.1 0.3,0.1 0.3,0.2 0.3,0.1 0.2,0.1 0.3,0.1 0.3,0.1 0.3,0.1 0.2,0.1 0.3,0.1 0.3,0 0.2,0.1 0.3,0.1 0.3,0 0.3,0.1 0.2,0 0.3,0.1 0.3,0 0.3,0 0.2,0 0.3,0.1 0.3,0 0.3,0 0.2,0 0.3,0 0.3,-0.1 0.3,0 0.2,0 0.3,0 0.3,-0.1 0.3,0 0.2,-0.1 0.3,0 0.3,-0.1 0.2,-0.1 0.3,0 0.3,-0.1 0.3,-0.1 0.2,-0.1 0.3,-0.1 0.3,-0.1 0.3,-0.1 0.2,-0.1 0.3,-0.1 0.3,-0.1 0.3,-0.2 0.2,-0.1 0.3,-0.1 0.3,-0.2 0.3,-0.1 0.2,-0.2 0.3,-0.1 0.3,-0.2 0.2,-0.1 0.3,-0.2 0.3,-0.2 0.3,-0.2 0.2,-0.1 0.3,-0.2 0.3,-0.2 0.3,-0.2 0.2,-0.2 0.3,-0.2 0.3,-0.2 0.3,-0.2 0.2,-0.2 0.3,-0.2 0.3,-0.2 0.3,-0.2 0.2,-0.2 0.3,-0.3 0.3,-0.2 0.2,-0.2 0.3,-0.2 0.3,-0.2 0.3,-0.3 0.2,-0.2 0.3,-0.2 0.3,-0.2 0.3,-0.3 0.2,-0.2 0.3,-0.2 0.3,-0.3 0.3,-0.2 0.2,-0.2 0.3,-0.3 0.3,-0.2 0.3,-0.2 0.2,-0.3 0.3,-0.2 0.3,-0.2 0.3,-0.2 0.2,-0.3 0.3,-0.2 0.3,-0.2 0.2,-0.2 0.3,-0.3 0.3,-0.2 0.3,-0.2 0.2,-0.2 0.3,-0.2 0.3,-0.2 0.3,-0.2 0.2,-0.2 0.3,-0.2 0.3,-0.2 0.3,-0.2 0.2,-0.2 0.3,-0.2 0.3,-0.2 0.3,-0.2 0.2,-0.2 0.3,-0.2 0.3,-0.1 0.2,-0.2 0.3,-0.2 0.3,-0.1 0.3,-0.2 0.2,-0.1 0.3,-0.2 0.3,-0.1 0.3,-0.2 0.2,-0.1 0.3,-0.1 0.3,-0.2 0.3,-0.1 0.2,-0.1 0.3,-0.1 0.3,-0.1 0.3,-0.1 0.2,-0.1 0.3,-0.1 0.3,-0.1 0.2,-0.1 0.3,0 0.3,-0.1 0.3,-0.1 0.2,0 0.3,-0.1 0.3,0 0.3,-0.1 0.2,0 0.3,0 0.3,-0.1 0.3,0 0.2,0 0.3,0 0.3,0 0.3,0 0.2,0 0.3,0 0.3,0 0.3,0 0.2,0.1 0.3,0 0.3,0 0.2,0.1 0.3,0 0.3,0.1 0.3,0 0.2,0.1 0.3,0.1 0.3,0.1 0.3,0 0.2,0.1 0.3,0.1 0.3,0.1 0.3,0.1 0.2,0.1 0.3,0.1 0.3,0.1 0.3,0.1 0.2,0.2 0.3,0.1 0.3,0.1 0.2,0.2 0.3,0.1 0.3,0.1 0.3,0.2 0.2,0.1 0.3,0.2 0.3,0.1 0.3,0.2 0.2,0.1 0.3,0.2 0.3,0.2 0.3,0.1 0.2,0.2 0.3,0.2 0.3,0.2 0.3,0.1 0.2,0.2 0.3,0.2 0.3,0.2 0.2,0.2 0.3,0.2 0.3,0.2 0.3,0.1 0.2,0.2 0.3,0.2 0.3,0.2 0.3,0.2 0.2,0.2 0.3,0.2 0.3,0.2 0.3,0.2 0.2,0.2 0.3,0.2 0.3,0.2 0.3,0.2 0.2,0.2 0.3,0.1 0.3,0.2 0.3,0.2 0.2,0.2 0.3,0.2 0.3,0.2 0.2,0.2 0.3,0.2 0.3,0.1 0.3,0.2 0.2,0.2 0.3,0.2 0.3,0.1 0.3,0.2 0.2,0.2 0.3,0.1 0.3,0.2 0.3,0.1 0.2,0.2 0.3,0.1 0.3,0.2 0.3,0.1 0.2,0.2 0.3,0.1 0.3,0.1 0.2,0.2 0.3,0.1 0.3,0.1 0.3,0.1 0.2,0.1 0.3,0.1 0.3,0.1 0.3,0.1 0.2,0.1 0.3,0.1 0.3,0.1 0.3,0 0.2,0.1 0.3,0.1 0.3,0 0.3,0.1 0.2,0 0.3,0.1 0.3,0 0.2,0 0.3,0.1 0.3,0 0.3,0 0.2,0 0.3,0 0.3,0 0.3,0 0.2,0 0.3,0 0.3,-0.1 0.3,0 0.2,-0.1 0.3,0 0.3,-0.1 0.3,0 0.2,-0.1 0.3,0 0.3,-0.1 0.3,-0.1 0.2,-0.1 0.3,-0.1 0.3,-0.1 0.2,-0.1 0.3,-0.1 0.3,-0.1 0.3,-0.2 0.2,-0.1 0.3,-0.1 0.3,-0.2 0.3,-0.1 0.2,-0.2 0.3,-0.1 0.3,-0.2 0.3,-0.2 0.2,-0.1 0.3,-0.2 0.3,-0.2 0.3,-0.2 0.2,-0.2 0.3,-0.2 0.3,-0.2 0.2,-0.2 0.3,-0.2 0.3,-0.3 0.3,-0.2 0.2,-0.2 0.3,-0.2 0.3,-0.3 0.3,-0.2 0.2,-0.3 0.3,-0.2 0.3,-0.3 0.3,-0.2 0.2,-0.3 0.3,-0.3 0.3,-0.2 0.3,-0.3 0.2,-0.3 0.3,-0.2 0.3,-0.3 0.2,-0.3 0.3,-0.3 0.3,-0.3 0.3,-0.3 0.2,-0.3 0.3,-0.2 0.3,-0.3 0.3,-0.3 0.2,-0.3 0.3,-0.3 0.3,-0.3 0.3,-0.3 0.2,-0.3 0.3,-0.3 0.3,-0.3 0.3,-0.3 0.2,-0.3 0.3,-0.4 0.3,-0.3 0.3,-0.3 0.2,-0.3 0.3,-0.3 0.3,-0.3 0.2,-0.3 0.3,-0.3 0.3,-0.3 0.3,-0.3 0.2,-0.3 0.3,-0.3 0.3,-0.3 0.3,-0.3 0.2,-0.3 0.3,-0.2 0.3,-0.3 0.3,-0.3 0.2,-0.3 0.3,-0.3 0.3,-0.3 0.3,-0.2 0.2,-0.3 0.3,-0.3 0.3,-0.2 0.2,-0.3 0.3,-0.3 0.3,-0.2 0.3,-0.3 0.2,-0.2 0.3,-0.3 0.3,-0.2 0.3,-0.2 0.2,-0.3 0.3,-0.2 0.3,-0.2 0.3,-0.3 0.2,-0.2 0.3,-0.2 0.3,-0.2 0.3,-0.2 0.2,-0.2 0.3,-0.2 0.3,-0.2 0.3,-0.2 0.2,-0.1 0.3,-0.2 0.3,-0.2 0.2,-0.1 0.3,-0.2 0.3,-0.2 0.3,-0.1 0.2,-0.1 0.3,-0.2 0.3,-0.1 0.3,-0.1 0.2,-0.2 0.3,-0.1 0.3,-0.1 0.3,-0.1 0.2,-0.1 0.3,-0.1 0.3,-0.1 0.3,0 0.2,-0.1 0.3,-0.1 0.3,-0.1 0.2,0 0.3,-0.1 0.3,0 0.3,-0.1 0.2,0 0.3,0 0.3,-0.1 0.3,0 0.2,0 0.3,0 0.3,0 0.3,0 0.2,0 0.3,0 0.3,0 0.3,0 0.2,0 0.3,0.1 0.3,0 0.2,0 0.3,0.1 0.3,0 0.3,0.1 0.2,0 0.3,0.1 0.3,0 0.3,0.1 0.2,0.1 0.3,0 0.3,0.1 0.3,0.1 0.2,0.1 0.3,0.1 0.3,0.1 0.3,0 0.2,0.1 0.3,0.1 0.3,0.1 0.3,0.1 0.2,0.1 0.3,0.1 0.3,0.1 0.2,0.2 0.3,0.1 0.3,0.1 0.3,0.1 0.2,0.1 0.3,0.1 0.3,0.1 0.3,0.2 0.2,0.1 0.3,0.1 0.3,0.1 0.3,0.1 0.2,0.2 0.3,0.1 0.3,0.1 0.3,0.1 0.2,0.1 0.3,0.2 0.3,0.1 0.2,0.1 0.3,0.1 0.3,0.1 0.3,0.1 0.2,0.2 0.3,0.1 0.3,0.1 0.3,0.1 0.2,0.1 0.3,0.1 0.3,0.1 0.3,0.1 0.2,0.1 0.3,0.1 0.3,0.1 0.3,0.1 0.2,0.1 0.3,0 0.3,0.1 0.2,0.1 0.3,0.1 0.3,0 0.3,0.1 0.2,0.1 0.3,0 0.3,0.1 0.3,0 0.2,0 0.3,0.1 0.3,0 0.3,0.1 0.2,0 0.3,0 0.3,0 0.3,0 0.2,0 0.3,0 0.3,0 0.3,0 0.2,0 0.3,0 0.3,-0.1 0.2,0 0.3,0 0.3,-0.1 0.3,0 0.2,-0.1 0.3,0 0.3,-0.1 0.3,-0.1 0.2,-0.1 0.3,0 0.3,-0.1 0.3,-0.1 0.2,-0.1 0.3,-0.2 0.3,-0.1 0.3,-0.1 0.2,-0.1 0.3,-0.2 0.3,-0.1 0.2,-0.1 0.3,-0.2 0.3,-0.1 0.3,-0.2 0.2,-0.2 0.3,-0.2 0.3,-0.1 0.3,-0.2 0.2,-0.2 0.3,-0.2 0.3,-0.2 0.3,-0.2 0.2,-0.3 0.3,-0.2 0.3,-0.2 0.3,-0.2 0.2,-0.3 0.3,-0.2 0.3,-0.3 0.2,-0.2 0.3,-0.3 0.3,-0.3 0.3,-0.2 0.2,-0.3 0.3,-0.3 0.3,-0.3 0.3,-0.3 0.2,-0.3 0.3,-0.3 0.3,-0.3 0.3,-0.3 0.2,-0.3 0.3,-0.3 0.3,-0.3 0.3,-0.4 0.2,-0.3 0.3,-0.3 0.3,-0.3 0.3,-0.4 0.2,-0.3 0.3,-0.4 0.3,-0.3 0.2,-0.4 0.3,-0.3 0.3,-0.4 0.3,-0.3 0.2,-0.4 0.3,-0.4 0.3,-0.3 0.3,-0.4 0.2,-0.4 0.3,-0.3 0.3,-0.4 0.3,-0.4 0.2,-0.3 0.3,-0.4 0.3,-0.4 0.3,-0.4 0.2,-0.3 0.3,-0.4" id="path3675"></path>
    </g>
  </a>
  <g transform="matrix(1.0773869,0,0,1.0773869,-19.413938,-5.8101113)" id="g3677" style="color:#000094;fill:none;stroke:currentColor;stroke-width:1;stroke-linecap:butt;stroke-linejoin:miter">
    <path d="m 45.6,16.7 0,57.3 273.5,0 m 0,-57.3 m -273.5,0" id="path3679" style="stroke:#000000"></path>
  </g>
</svg>
