<!-- Created with Inkscape (http://www.inkscape.org/) -->
<svg xmlns:dc="http://purl.org/dc/elements/1.1/" xmlns:cc="http://creativecommons.org/ns#" xmlns:rdf="http://www.w3.org/1999/02/22-rdf-syntax-ns#" xmlns:svg="http://www.w3.org/2000/svg" xmlns="http://www.w3.org/2000/svg" xmlns:inkscape="http://www.inkscape.org/namespaces/inkscape" version="1.1" width="343pt" height="340pt" id="svg7110">
  <defs id="defs7112"></defs>
  <metadata id="metadata7116"></metadata>
  <g id="layer1">
    <path d="M 32.971154,375.59615 97.538462,318.38462 96.721154,33.144231" id="path19894" style="fill:none;stroke:#000000;stroke-width:3.75;stroke-linecap:butt;stroke-linejoin:miter;stroke-miterlimit:4;stroke-opacity:1;stroke-dasharray:none"></path>
    <path d="M 97.223465,318.94803 385.15516,349.47737" id="path19896" style="fill:none;stroke:#000000;stroke-width:3.75;stroke-linecap:butt;stroke-linejoin:miter;stroke-miterlimit:4;stroke-opacity:1;stroke-dasharray:none"></path>
    <text x="56.011189" y="30.756836" transform="scale(1.029204,0.971624)" id="text19904" xml:space="preserve" style="font-size:39.99998474px;font-style:oblique;font-variant:normal;font-weight:normal;font-stretch:normal;text-align:start;line-height:125%;writing-mode:lr-tb;text-anchor:start;fill:#000000;fill-opacity:1;stroke:none;font-family:Bitstream Vera Sans">
      <tspan x="56.011189" y="30.756836" id="tspan19906">z</tspan>
    </text>
    <text x="7.17134" y="375.58972" transform="scale(1.018548,0.981789)" id="text19908" xml:space="preserve" style="font-size:40px;font-style:oblique;font-variant:normal;font-weight:normal;font-stretch:normal;text-align:start;line-height:125%;writing-mode:lr-tb;text-anchor:start;fill:#000000;fill-opacity:1;stroke:none;font-family:Bitstream Vera Sans">
      <tspan x="7.17134" y="375.58972" id="tspan19910">x</tspan>
    </text>
    <text x="395.40704" y="378.54617" transform="scale(0.985647,1.014562)" id="text19912" xml:space="preserve" style="font-size:40px;font-style:oblique;font-variant:normal;font-weight:normal;font-stretch:normal;text-align:start;line-height:125%;writing-mode:lr-tb;text-anchor:start;fill:#000000;fill-opacity:1;stroke:none;font-family:Bitstream Vera Sans">
      <tspan x="395.40704" y="378.54617" id="tspan19914">y</tspan>
    </text>
    <path d="m 123.80237,191.36635 c 23.94411,30.10293 66.43052,15.08521 130.70404,19.57415 38.74561,2.70604 124.21277,72.56299 149.39439,4.5029 C 421.6282,156.59015 342.31413,102.87848 269.12612,95.974574 134.71472,89.521166 107.92105,167.68423 123.80237,191.36635 z" id="path19916" style="opacity:0.7;fill:#999999;fill-opacity:1;fill-rule:evenodd;stroke:#000000;stroke-width:1.85125005;stroke-linecap:butt;stroke-linejoin:miter;stroke-miterlimit:4;stroke-opacity:1;stroke-dasharray:none"></path>
    <path d="M 405.38462,208.41346 C 388.23141,106.75017 151.41767,88.24489 123.41346,159.375" id="path21129" style="fill:none;stroke:#000000;stroke-width:1.625;stroke-linecap:butt;stroke-linejoin:miter;stroke-miterlimit:4;stroke-opacity:1;stroke-dasharray:9.75, 9.75;stroke-dashoffset:0"></path>
    <path d="m 236.25,151.25 0,-80" id="path22106" style="fill:none;stroke:#000000;stroke-width:3.75;stroke-linecap:butt;stroke-linejoin:miter;stroke-miterlimit:4;stroke-opacity:1;stroke-dasharray:none"></path>
    <path d="m -91.538459,58.028847 16.279611,28.197115 16.279612,28.197118 -32.559224,0 -32.55922,0 16.27961,-28.197118 z" transform="matrix(0.236886,0,0,0.599138,258.147,3.982713)" id="path22108" style="fill:#000000;fill-opacity:1;stroke:none"></path>
    <text x="269.73825" y="190.36427" transform="scale(1.010019,0.99008)" id="text22118" xml:space="preserve" style="font-size:45px;font-style:oblique;font-variant:normal;font-weight:normal;font-stretch:normal;text-align:start;line-height:125%;writing-mode:lr-tb;text-anchor:start;fill:#000000;fill-opacity:1;stroke:none;font-family:Bitstream Vera Sans">
      <tspan x="269.73825" y="190.36427" id="tspan22120"></tspan>
    </text>
    <text x="140.34837" y="260.7749" transform="scale(0.998458,1.001544)" id="text22122" xml:space="preserve" style="font-size:40.00000763px;font-style:oblique;font-variant:normal;font-weight:normal;font-stretch:normal;text-align:start;line-height:125%;writing-mode:lr-tb;text-anchor:start;fill:#000000;fill-opacity:1;stroke:none;font-family:Bitstream Vera Sans">
      <tspan x="140.34837" y="260.7749" id="tspan22124"></tspan>
    </text>
    <path d="m -91.538459,58.028847 16.279611,28.197115 16.279612,28.197118 -32.559224,0 -32.55922,0 16.27961,-28.197118 z" transform="matrix(-0.03756538,0.133169,-0.300984,-0.07933833,361.6588,260.0284)" id="path22134" style="fill:#000000;fill-opacity:1;stroke:none"></path>
    <text x="59.692112" y="343.11911" transform="scale(1.074017,0.931084)" id="text22148" xml:space="preserve" style="font-size:40px;font-style:oblique;font-variant:normal;font-weight:normal;font-stretch:normal;text-align:start;line-height:125%;writing-mode:lr-tb;text-anchor:start;fill:#000000;fill-opacity:1;stroke:none;font-family:Bitstream Vera Sans">
      <tspan x="59.692112" y="343.11911" id="tspan22150">0</tspan>
    </text>
    <text x="255.14024" y="67.860619" id="text2195" xml:space="preserve" style="font-size:40px;font-style:oblique;font-variant:normal;font-weight:normal;font-stretch:normal;text-align:start;line-height:125%;writing-mode:lr-tb;text-anchor:start;fill:#000000;fill-opacity:1;stroke:none;font-family:Bitstream Vera Sans">
      <tspan x="255.14024" y="67.860619" id="tspan2197" style="font-size:40px;font-style:oblique;font-variant:normal;font-weight:normal;font-stretch:normal;text-align:start;line-height:125%;writing-mode:lr-tb;text-anchor:start;font-family:Bitstream Vera Sans">n</tspan>
    </text>
    <path d="m -91.538459,58.028847 16.279611,28.197115 16.279612,28.197118 -32.559224,0 -32.55922,0 16.27961,-28.197118 z" transform="matrix(0.236886,0,0,0.599138,118.147,-32.30521)" id="path2215" style="fill:#000000;fill-opacity:1;stroke:none"></path>
    <path d="m -91.538459,58.028847 16.279611,28.197115 16.279612,28.197118 -32.559224,0 -32.55922,0 16.27961,-28.197118 z" transform="matrix(-0.156264,-0.178036,0.450293,-0.395225,-33.03001,404.2586)" id="path2217" style="fill:#000000;fill-opacity:1;stroke:none"></path>
    <path d="m -91.538459,58.028847 16.279611,28.197115 16.279612,28.197118 -32.559224,0 -32.55922,0 16.27961,-28.197118 z" transform="matrix(-0.02573897,0.235483,-0.595591,-0.06509969,450.8634,378.4993)" id="path2219" style="fill:#000000;fill-opacity:1;stroke:none"></path>
    <path d="m -91.538459,58.028847 16.279611,28.197115 16.279612,28.197118 -32.559224,0 -32.55922,0 16.27961,-28.197118 z" transform="matrix(-0.05330278,0.127687,-0.289263,-0.114948,292.9002,236.7274)" id="path2223" style="fill:#000000;fill-opacity:1;stroke:none"></path>
    <path d="m -91.538459,58.028847 16.279611,28.197115 16.279612,28.197118 -32.559224,0 -32.55922,0 16.27961,-28.197118 z" transform="matrix(-0.01133434,0.137901,-0.310611,-0.02015507,203.6058,224.9391)" id="path2227" style="fill:#000000;fill-opacity:1;stroke:none"></path>
    <path d="m -91.538459,58.028847 16.279611,28.197115 16.279612,28.197118 -32.559224,0 -32.55922,0 16.27961,-28.197118 z" transform="matrix(-0.0916572,0.103654,-0.236692,-0.202146,140.5055,223.2565)" id="path2229" style="fill:#000000;fill-opacity:1;stroke:none"></path>
    <path d="m -91.538459,58.028847 16.279611,28.197115 16.279612,28.197118 -32.559224,0 -32.55922,0 16.27961,-28.197118 z" transform="matrix(0.09013807,0.104977,-0.23263,0.206807,419.6858,225.5969)" id="path2231" style="fill:#000000;fill-opacity:1;stroke:none"></path>
    <path d="m -91.538459,58.028847 16.279611,28.197115 16.279612,28.197118 -32.559224,0 -32.55922,0 16.27961,-28.197118 z" transform="matrix(0.09087865,-0.104337,0.238198,0.200369,359.1809,130.3949)" id="path2233" style="fill:#000000;fill-opacity:1;stroke:none"></path>
    <path d="m -91.538459,58.028847 16.279611,28.197115 16.279612,28.197118 -32.559224,0 -32.55922,0 16.27961,-28.197118 z" transform="matrix(0.04376981,-0.131261,0.296932,0.09336742,285.6107,106.9728)" id="path2235" style="fill:#000000;fill-opacity:1;stroke:none"></path>
    <path d="m -91.538459,58.028847 16.279611,28.197115 16.279612,28.197118 -32.559224,0 -32.55922,0 16.27961,-28.197118 z" transform="matrix(-0.01537304,-0.137509,0.308697,-0.03990151,175.1445,108.9161)" id="path2237" style="fill:#000000;fill-opacity:1;stroke:none"></path>
    <path d="m -91.538459,58.028847 16.279611,28.197115 16.279612,28.197118 -32.559224,0 -32.55922,0 16.27961,-28.197118 z" transform="matrix(-0.04817208,-0.12971,0.289884,-0.113372,131.7578,125.9787)" id="path2239" style="fill:#000000;fill-opacity:1;stroke:none"></path>
  </g>
</svg>
