<!-- Created with Inkscape (http://www.inkscape.org/) -->
<svg xmlns:dc="http://purl.org/dc/elements/1.1/" xmlns:cc="http://creativecommons.org/ns#" xmlns:rdf="http://www.w3.org/1999/02/22-rdf-syntax-ns#" xmlns:svg="http://www.w3.org/2000/svg" xmlns="http://www.w3.org/2000/svg" xmlns:inkscape="http://www.inkscape.org/namespaces/inkscape" version="1.1" width="100%" height="100%" viewBox="-24 -172 256 192" id="svg2">
  <title id="title4">Comparison of mean, median and mode</title>
  <desc id="desc6">The mean, median and mode of two log-normal distributions are compared by CMG Lee.</desc>
  <metadata id="metadata144"></metadata>
  <defs id="defs142"></defs>
  <rect width="256" height="192" x="-24" y="-172" id="rect8" style="fill:#ffffff"></rect>
  <g id="g10" style="font-family:sans-serif">
    <g id="g12" style="font-size:10px;letter-spacing:-1;text-anchor:middle;fill:#000000;stroke:#000000">
      <text x="0" y="10" dy="-7.6547157e-25" id="text14" style="stroke:none">0.0</text>
      <line x1="0" y1="4" x2="0" y2="0" id="line16"></line>
      <text x="20" y="10" dy="-7.6547157e-25" id="text18" style="stroke:none">0.2</text>
      <line x1="20" y1="2" x2="20" y2="0" id="line20"></line>
      <text x="40" y="10" dy="-7.6547157e-25" id="text22" style="stroke:none">0.4</text>
      <line x1="40" y1="2" x2="40" y2="0" id="line24"></line>
      <text x="60" y="10" dy="-7.6547157e-25" id="text26" style="stroke:none">0.6</text>
      <line x1="60" y1="2" x2="60" y2="0" id="line28"></line>
      <text x="80" y="10" dy="-7.6547157e-25" id="text30" style="stroke:none">0.8</text>
      <line x1="80" y1="2" x2="80" y2="0" id="line32"></line>
      <text x="100" y="10" dy="-7.6547157e-25" id="text34" style="stroke:none">1.0</text>
      <line x1="100" y1="4" x2="100" y2="0" id="line36"></line>
      <text x="120" y="10" dy="-7.6547157e-25" id="text38" style="stroke:none">1.2</text>
      <line x1="120" y1="2" x2="120" y2="0" id="line40"></line>
      <text x="140" y="10" dy="-7.6547157e-25" id="text42" style="stroke:none">1.4</text>
      <line x1="140" y1="2" x2="140" y2="0" id="line44"></line>
      <text x="160" y="10" dy="-7.6547157e-25" id="text46" style="stroke:none">1.6</text>
      <line x1="160" y1="2" x2="160" y2="0" id="line48"></line>
      <text x="180" y="10" dy="-7.6547157e-25" id="text50" style="stroke:none">1.8</text>
      <line x1="180" y1="2" x2="180" y2="0" id="line52"></line>
      <text x="200" y="10" dy="-7.6547157e-25" id="text54" style="stroke:none">2.0</text>
      <line x1="200" y1="2" x2="200" y2="0" id="line56"></line>
      <text x="220" y="10" dy="-7.6547157e-25" id="text58" style="stroke:none">2.2</text>
      <line x1="220" y1="2" x2="220" y2="0" id="line60"></line>
      <text x="-12" y="0" dy="-7.6547157e-25" id="text62" style="stroke:none">0.0</text>
      <line x1="-4" y1="0" x2="0" y2="0" id="line64"></line>
      <text x="-12" y="-20" dy="-7.6547157e-25" id="text66" style="stroke:none">0.2</text>
      <line x1="-2" y1="-20" x2="0" y2="-20" id="line68"></line>
      <text x="-12" y="-40" dy="-7.6547157e-25" id="text70" style="stroke:none">0.4</text>
      <line x1="-2" y1="-40" x2="0" y2="-40" id="line72"></line>
      <text x="-12" y="-60" dy="-7.6547157e-25" id="text74" style="stroke:none">0.6</text>
      <line x1="-2" y1="-60" x2="0" y2="-60" id="line76"></line>
      <text x="-12" y="-80" dy="-7.6547157e-25" id="text78" style="stroke:none">0.8</text>
      <line x1="-2" y1="-80" x2="0" y2="-80" id="line80"></line>
      <text x="-12" y="-100" dy="-7.6547157e-25" id="text82" style="stroke:none">1.0</text>
      <line x1="-4" y1="-100" x2="0" y2="-100" id="line84"></line>
      <text x="-12" y="-120" dy="-7.6547157e-25" id="text86" style="stroke:none">1.2</text>
      <line x1="-2" y1="-120" x2="0" y2="-120" id="line88"></line>
      <text x="-12" y="-140" dy="-7.6547157e-25" id="text90" style="stroke:none">1.4</text>
      <line x1="-2" y1="-140" x2="0" y2="-140" id="line92"></line>
      <text x="-12" y="-160" dy="-7.6547157e-25" id="text94" style="stroke:none">1.6</text>
      <line x1="-2" y1="-160" x2="0" y2="-160" id="line96"></line>
      <path d="M 0,-170 V 0 h 230" id="path98" style="fill:none"></path>
    </g>
    <g id="g100" style="font-size:16px;text-anchor:start;stroke:none">
      <text x="140" y="-60" id="text102" style="fill:#330099"> = 0.25</text>
      <text x="180" y="-25" id="text104" style="fill:#330099"> = 1</text>
      <line x1="140" y1="-150" x2="155" y2="-150" stroke="#ff0000" id="line106" style="stroke:#ff0000"></line>
      <line x1="140" y1="-130" x2="155" y2="-130" stroke="#009900" id="line108" style="stroke:#009900"></line>
      <line x1="140" y1="-110" x2="155" y2="-110" stroke="#0066ff" id="line110" style="stroke:#0066ff"></line>
      <text x="160" y="-150" dy="-7.6547157e-25" id="text112" style="fill:#ff0000">mode</text>
      <text x="160" y="-130" dy="-7.6547157e-25" id="text114" style="fill:#009900">median</text>
      <text x="160" y="-110" dy="-7.6547157e-25" id="text116" style="fill:#0066ff">mean</text>
    </g>
  </g>
  <g id="g118" style="fill:none">
    <g id="g120" style="stroke-width:4;stroke-dasharray:1, 1">
      <line x1="36.787998" y1="-65.774002" x2="36.787998" y2="0" stroke="#ff0000" id="line122" style="stroke:#ff0000"></line>
      <line x1="100" y1="-39.894001" x2="100" y2="0" stroke="#009900" id="line124" style="stroke:#009900"></line>
      <line x1="164.87199" y1="-21.354" x2="164.87199" y2="0" stroke="#0066ff" id="line126" style="stroke:#0066ff"></line>
      <path d="m 0,0 2,-0.948 1,-1.895 1,-2.767 1,-3.368 1,-3.727 1,-3.899 1,-3.935 1,-3.873 1,-3.747 1,-3.578 1,-3.382 1,-3.172 1,-2.955 1,-2.738 1,-2.525 1,-2.317 1,-2.12 1,-1.93 1,-1.751 1,-1.582 1,-1.422 1,-1.274 1,-1.135 1,-1.006 1,-0.884 1,-0.772 1,-0.667 1,-0.571 2,-0.878 2,-0.569 11,0.658 2,0.577 2,0.664 2,0.738 2,0.799 2,0.847 2,0.887 2,0.918 2,0.942 2,0.959 2,0.972 2,0.979 2,0.984 2,0.984 2,0.981 2,0.976 2,0.97 2,0.96 2,0.95 2,0.939 2,0.926 2,0.913 2,0.899 2,0.883 2,0.869 2,0.853 2,0.838 2,0.822 2,0.806 2,0.79 2,0.774 2,0.758 2,0.742 2,0.727 2,0.711 2,0.696 2,0.681 2,0.666 2,0.652 2,0.637 2,0.623 2,0.609 2,0.596 2,0.582 2,0.57 2,0.556 2,0.544 2,0.532 2,0.52 2,0.509 3,0.741 3,0.716 3,0.693 3,0.669 3,0.648 3,0.625 3,0.606 3,0.585 3,0.566 3,0.548 3,0.529 3,0.513 4,0.658 4,0.63 4,0.604 4,0.578 4,0.554 4,0.531 4,0.51 5,0.608 5,0.577 5,0.548 5,0.522 4,0.399" id="path128" style="stroke:#330099"></path>
    </g>
    <g id="g130" style="stroke-width:2">
      <line x1="93.941002" y1="-164.642" x2="93.941002" y2="0" stroke="#ff0000" id="line132" style="stroke:#ff0000"></line>
      <line x1="100" y1="-159.577" x2="100" y2="0" stroke="#009900" id="line134" style="stroke:#009900"></line>
      <line x1="103.174" y1="-153.464" x2="103.174" y2="0" stroke="#0066ff" id="line136" style="stroke:#0066ff"></line>
      <path d="m 0,0 41,-0.673 2,-0.571 2,-0.916 1,-0.627 1,-0.763 1,-0.917 1,-1.089 1,-1.279 1,-1.486 1,-1.708 1,-1.946 1,-2.196 1,-2.457 1,-2.725 1,-2.997 1,-3.271 1,-3.545 1,-3.811 1,-4.07 1,-4.317 1,-4.549 1,-4.762 1,-4.955 1,-5.123 1,-5.266 1,-5.381 1,-5.468 1,-5.522 1,-5.547 1,-5.54 1,-5.501 1,-5.431 1,-5.332 1,-5.202 1,-5.046 1,-4.862 1,-4.655 1,-4.425 1,-4.175 1,-3.906 1,-3.623 1,-3.326 1,-3.019 1,-2.702 1,-2.379 1,-2.054 1,-1.726 1,-1.4 1,-1.074 1,-0.754 2,-0.573 2,0.617 1,0.729 1,0.993 1,1.244 1,1.482 1,1.705 1,1.914 1,2.108 1,2.287 1,2.452 1,2.601 1,2.736 1,2.856 1,2.962 1,3.055 1,3.134 1,3.2 1,3.254 1,3.297 1,3.328 1,3.349 1,3.359 1,3.36 1,3.354 1,3.337 1,3.315 1,3.284 1,3.249 1,3.206 1,3.159 1,3.107 1,3.052 1,2.991 1,2.929 1,2.864 1,2.795 1,2.726 1,2.654 1,2.582 1,2.508 1,2.435 1,2.36 1,2.285 1,2.212 1,2.138 1,2.064 1,1.992 1,1.921 1,1.85 1,1.781 1,1.713 1,1.647 1,1.581 1,1.518 1,1.456 1,1.395 1,1.337 1,1.28 1,1.224 1,1.171 1,1.12 1,1.069 1,1.02 1,0.974 1,0.93 1,0.885 1,0.844 1,0.804 1,0.766 1,0.728 1,0.693 1,0.659 1,0.627 1,0.595 1,0.565 1,0.537 1,0.51 2,0.942 2,0.847 2,0.761 2,0.683 2,0.612 2,0.548 3,0.715 3,0.603 3,0.509 4,0.554 5,0.534 7,0.526 12,0.516 9,0.202" id="path138" style="stroke:#330099"></path>
    </g>
  </g>
</svg>
