<!-- Created with Inkscape (http://www.inkscape.org/) -->
<svg xmlns:dc="http://purl.org/dc/elements/1.1/" xmlns:cc="http://creativecommons.org/ns#" xmlns:rdf="http://www.w3.org/1999/02/22-rdf-syntax-ns#" xmlns:svg="http://www.w3.org/2000/svg" xmlns="http://www.w3.org/2000/svg" version="1.1" width="500" height="346" viewBox="0 0 1 1" id="body">
  <title id="title3">SVG drawing</title>
  <desc id="desc5">This was produced by version 4.2 of GNU libplot, a free library for exporting 2-D vector graphics.</desc>
  <metadata id="metadata60"></metadata>
  <defs id="defs110"></defs>
  <rect width="1.4450867" height="1" x="-0.22254336" y="2.9802322e-08" id="background" style="fill:#ffffff;stroke:none"></rect>
  <g transform="matrix(0.00353469,0,0,-0.00354876,-0.2216236,1.0002156)" id="content" xml:space="preserve" style="font-style:normal;font-variant:normal;font-weight:normal;font-stretch:normal;letter-spacing:normal;word-spacing:normal;text-anchor:start;fill:none;stroke:#000000;stroke-linecap:butt;stroke-linejoin:miter;stroke-miterlimit:10.43299961;stroke-opacity:1;stroke-dasharray:none;stroke-dashoffset:0"><polygon points="286.28,183.31 286.28,274.89 261.47,274.89 261.47,183.31 261.47,183.31 " id="polygon9" style="fill:#ff0000;fill-rule:nonzero;stroke:#ff0000;stroke-width:0;stroke-linejoin:round"></polygon><polygon points="286.28,183.31 286.28,274.89 261.47,274.89 261.47,183.31 261.47,183.31 " id="polygon11" style="stroke-width:0.75;stroke-linejoin:round"></polygon><polygon points="90.516,183.31 90.516,192.46 65.707,192.46 65.707,183.31 65.707,183.31 " id="polygon13" style="fill:#0000ff;fill-rule:nonzero;stroke:#0000ff;stroke-width:0;stroke-linejoin:round"></polygon><polygon points="90.516,183.31 90.516,192.46 65.707,192.46 65.707,183.31 65.707,183.31 " id="polygon15" style="stroke-width:0.75;stroke-linejoin:round"></polygon><line x1="65.707001" y1="183.31" x2="286.26999" y2="183.31" id="line17" style="stroke-width:1.5;stroke-linecap:round"></line><polygon points="243.67,165 268.48,165 256.08,183.31 256.08,183.31 " id="polygon19" style="fill:#000000;fill-rule:nonzero;stroke-width:0;stroke-linejoin:round"></polygon><polygon points="243.67,165 268.48,165 256.08,183.31 256.08,183.31 " id="polygon21" style="stroke-width:0.75;stroke-linejoin:round"></polygon><line x1="48.667999" y1="183.31" x2="48.667999" y2="274.89999" id="line23" style="stroke-width:0.75;stroke-linecap:round"></line><line x1="48.667999" y1="183.31" x2="39.308998" y2="183.31" id="line25" style="stroke-width:0.75;stroke-linecap:round"></line><line x1="48.667999" y1="201.63" x2="39.308998" y2="201.63" id="line27" style="stroke-width:0.75;stroke-linecap:round"></line><line x1="48.667999" y1="219.95" x2="39.308998" y2="219.95" id="line29" style="stroke-width:0.75;stroke-linecap:round"></line><line x1="48.667999" y1="238.25999" x2="39.308998" y2="238.25999" id="line31" style="stroke-width:0.75;stroke-linecap:round"></line><line x1="48.667999" y1="256.57999" x2="39.308998" y2="256.57999" id="line33" style="stroke-width:0.75;stroke-linecap:round"></line><line x1="48.667999" y1="274.89999" x2="39.308998" y2="274.89999" id="line35" style="stroke-width:0.75;stroke-linecap:round"></line><text transform="matrix(0.8,0,0,-0.8,21.055,177.57)" id="text37" style="font-size:20px;fill:#000000;stroke:none;font-family:'Helvetica, sans-serif'">0</text>
<text transform="matrix(0.8,0,0,-0.8,12.16,195.88)" id="text39" style="font-size:20px;fill:#000000;stroke:none;font-family:'Helvetica, sans-serif'">20</text>
<text transform="matrix(0.8,0,0,-0.8,12.16,214.2)" id="text41" style="font-size:20px;fill:#000000;stroke:none;font-family:'Helvetica, sans-serif'">40</text>
<text transform="matrix(0.8,0,0,-0.8,12.16,232.52)" id="text43" style="font-size:20px;fill:#000000;stroke:none;font-family:'Helvetica, sans-serif'">60</text>
<text transform="matrix(0.8,0,0,-0.8,12.16,250.84)" id="text45" style="font-size:20px;fill:#000000;stroke:none;font-family:'Helvetica, sans-serif'">80</text>
<text transform="matrix(0.8,0,0,-0.8,3.2656,269.15)" id="text47" style="font-size:20px;fill:#000000;stroke:none;font-family:'Helvetica, sans-serif'">100</text>
<line x1="78.109001" y1="183.31" x2="273.87" y2="183.31" id="line49" style="stroke-width:0.75;stroke-linecap:round"></line><line x1="78.109001" y1="183.31" x2="78.109001" y2="173.95" id="line51" style="stroke-width:0.75;stroke-linecap:round"></line><line x1="273.87" y1="183.31" x2="273.87" y2="173.95" id="line53" style="stroke-width:0.75;stroke-linecap:round"></line><text transform="matrix(0.8,0,0,-0.8,66.992,149.62)" id="text55" style="font-size:20px;fill:#000000;stroke:none;font-family:'Helvetica, sans-serif'">0.1</text>
<text transform="matrix(0.8,0,0,-0.8,262.75,149.62)" id="text57" style="font-size:20px;fill:#000000;stroke:none;font-family:'Helvetica, sans-serif'">0.6</text>
<polygon points="403.73,39.309 403.73,48.465 378.92,48.465 378.92,39.309 378.92,39.309 " id="polygon59" style="fill:#ff0000;fill-rule:nonzero;stroke:#ff0000;stroke-width:0;stroke-linejoin:round"></polygon><polygon points="403.73,39.309 403.73,48.465 378.92,48.465 378.92,39.309 378.92,39.309 " id="polygon61" style="stroke-width:0.75;stroke-linejoin:round"></polygon><polygon points="168.82,39.309 168.82,130.89 144.01,130.89 144.01,39.309 144.01,39.309 " id="polygon63" style="fill:#0000ff;fill-rule:nonzero;stroke:#0000ff;stroke-width:0;stroke-linejoin:round"></polygon><polygon points="168.82,39.309 168.82,130.89 144.01,130.89 144.01,39.309 144.01,39.309 " id="polygon65" style="stroke-width:0.75;stroke-linejoin:round"></polygon><line x1="144.00999" y1="39.308998" x2="403.73001" y2="39.308998" id="line67" style="stroke-width:1.5;stroke-linecap:round"></line><polygon points="165.37,21 190.18,21 177.77,39.309 177.77,39.309 " id="polygon69" style="fill:#000000;fill-rule:nonzero;stroke-width:0;stroke-linejoin:round"></polygon><polygon points="165.37,21 190.18,21 177.77,39.309 177.77,39.309 " id="polygon71" style="stroke-width:0.75;stroke-linejoin:round"></polygon><line x1="48.667999" y1="39.308998" x2="48.667999" y2="130.89999" id="line73" style="stroke-width:0.75;stroke-linecap:round"></line><line x1="48.667999" y1="39.308998" x2="39.308998" y2="39.308998" id="line75" style="stroke-width:0.75;stroke-linecap:round"></line><line x1="48.667999" y1="57.629002" x2="39.308998" y2="57.629002" id="line77" style="stroke-width:0.75;stroke-linecap:round"></line><line x1="48.667999" y1="75.948997" x2="39.308998" y2="75.948997" id="line79" style="stroke-width:0.75;stroke-linecap:round"></line><line x1="48.667999" y1="94.258003" x2="39.308998" y2="94.258003" id="line81" style="stroke-width:0.75;stroke-linecap:round"></line><line x1="48.667999" y1="112.58" x2="39.308998" y2="112.58" id="line83" style="stroke-width:0.75;stroke-linecap:round"></line><line x1="48.667999" y1="130.89999" x2="39.308998" y2="130.89999" id="line85" style="stroke-width:0.75;stroke-linecap:round"></line><text transform="matrix(0.8,0,0,-0.8,21.055,33.566)" id="text87" style="font-size:20px;fill:#000000;stroke:none;font-family:'Helvetica, sans-serif'">0</text>
<text transform="matrix(0.8,0,0,-0.8,12.16,51.879)" id="text89" style="font-size:20px;fill:#000000;stroke:none;font-family:'Helvetica, sans-serif'">20</text>
<text transform="matrix(0.8,0,0,-0.8,12.16,70.199)" id="text91" style="font-size:20px;fill:#000000;stroke:none;font-family:'Helvetica, sans-serif'">40</text>
<text transform="matrix(0.8,0,0,-0.8,12.16,88.52)" id="text93" style="font-size:20px;fill:#000000;stroke:none;font-family:'Helvetica, sans-serif'">60</text>
<text transform="matrix(0.8,0,0,-0.8,12.16,106.84)" id="text95" style="font-size:20px;fill:#000000;stroke:none;font-family:'Helvetica, sans-serif'">80</text>
<text transform="matrix(0.8,0,0,-0.8,3.2656,125.15)" id="text97" style="font-size:20px;fill:#000000;stroke:none;font-family:'Helvetica, sans-serif'">100</text>
<line x1="156.42" y1="39.308998" x2="391.32001" y2="39.308998" id="line99" style="stroke-width:0.75;stroke-linecap:round"></line><line x1="156.42" y1="39.308998" x2="156.42" y2="29.948999" id="line101" style="stroke-width:0.75;stroke-linecap:round"></line><line x1="391.32999" y1="39.308998" x2="391.32999" y2="29.948999" id="line103" style="stroke-width:0.75;stroke-linecap:round"></line><text transform="matrix(0.8,0,0,-0.8,145.3,5.6172)" id="text105" style="font-size:20px;fill:#000000;stroke:none;font-family:'Helvetica, sans-serif'">0.3</text>
<text transform="matrix(0.8,0,0,-0.8,380.21,5.6172)" id="text107" style="font-size:20px;fill:#000000;stroke:none;font-family:'Helvetica, sans-serif'">0.9</text>
</g>
</svg>
