<!-- Created with Inkscape (http://www.inkscape.org/) -->
<svg xmlns:dc="http://purl.org/dc/elements/1.1/" xmlns:cc="http://creativecommons.org/ns#" xmlns:rdf="http://www.w3.org/1999/02/22-rdf-syntax-ns#" xmlns:svg="http://www.w3.org/2000/svg" xmlns="http://www.w3.org/2000/svg" xmlns:inkscape="http://www.inkscape.org/namespaces/inkscape" version="1.1" width="216" height="216" viewBox="0 0 216 216" id="svg2" xml:space="preserve" style="overflow:visible"><metadata id="metadata74"></metadata><defs id="defs72"></defs><text transform="translate(35.4502,16.3101)" id="text4" style="font-size:12px;font-family:Arial-BoldMT">Heights of Black Cherry Trees</text>
<text transform="translate(92.6401,212.4004)" id="text6" style="font-size:10px;font-family:ArialMT">Height (feet)</text>
<text transform="matrix(0,-1,1,0,10.7998,125.6201)" id="text8" style="font-size:10px;font-family:ArialMT">Frequency</text>
<line fill="none" stroke="#000000" x1="68.150002" y1="180" x2="68.150002" y2="186" id="line10" style="fill:none;stroke:#000000"></line><line fill="none" stroke="#000000" x1="94.07" y1="180" x2="94.07" y2="186" id="line12" style="fill:none;stroke:#000000"></line><line fill="none" stroke="#000000" x1="120" y1="180" x2="120" y2="186" id="line14" style="fill:none;stroke:#000000"></line><line fill="none" stroke="#000000" x1="145.92999" y1="180" x2="145.92999" y2="186" id="line16" style="fill:none;stroke:#000000"></line><line fill="none" stroke="#000000" x1="171.85001" y1="180" x2="171.85001" y2="186" id="line18" style="fill:none;stroke:#000000"></line><path d="m 42.22,186 v -6 h 155.56 v 6" id="path20" style="fill:none;stroke:#000000"></path><text transform="translate(36.6602,198)" id="text22" style="font-size:10px;font-family:ArialMT">60</text>
<text transform="translate(62.5898,198)" id="text24" style="font-size:10px;font-family:ArialMT">65</text>
<text transform="translate(88.5098,198)" id="text26" style="font-size:10px;font-family:ArialMT">70</text>
<text transform="translate(114.4404,198)" id="text28" style="font-size:10px;font-family:ArialMT">75</text>
<text transform="translate(140.3701,198)" id="text30" style="font-size:10px;font-family:ArialMT">80</text>
<text transform="translate(166.29,198)" id="text32" style="font-size:10px;font-family:ArialMT">85</text>
<text transform="translate(192.2197,198)" id="text34" style="font-size:10px;font-family:ArialMT">90</text>
<line fill="none" stroke="#000000" x1="36" y1="145.33" x2="30" y2="145.33" id="line36" style="fill:none;stroke:#000000"></line><line fill="none" stroke="#000000" x1="36" y1="116.44" x2="30" y2="116.44" id="line38" style="fill:none;stroke:#000000"></line><line fill="none" stroke="#000000" x1="36" y1="87.559998" x2="30" y2="87.559998" id="line40" style="fill:none;stroke:#000000"></line><line fill="none" stroke="#000000" x1="36" y1="58.669998" x2="30" y2="58.669998" id="line42" style="fill:none;stroke:#000000"></line><path d="m 30,29.78 h 6 v 144.44 h -6" id="path44" style="fill:none;stroke:#000000"></path><text transform="matrix(0,-1,1,0,25.2002,177)" id="text46" style="font-size:10px;font-family:ArialMT">0</text>
<text transform="matrix(0,-1,1,0,25.2002,148.1104)" id="text48" style="font-size:10px;font-family:ArialMT">2</text>
<text transform="matrix(0,-1,1,0,25.1997,119.2197)" id="text50" style="font-size:10px;font-family:ArialMT">4</text>
<text transform="matrix(0,-1,1,0,25.1997,90.3398)" id="text52" style="font-size:10px;font-family:ArialMT">6</text>
<text transform="matrix(0,-1,1,0,25.2002,61.4502)" id="text54" style="font-size:10px;font-family:ArialMT">8</text>
<text transform="matrix(0,-1,1,0,25.1997,35.3398)" id="text56" style="font-size:10px;font-family:ArialMT">10</text>
<rect width="25.93" height="43.330002" x="42.220001" y="130.89" id="rect58" style="fill:#deb887;stroke:#000000"></rect><rect width="25.93" height="43.330002" x="68.150002" y="130.89" id="rect60" style="fill:#deb887;stroke:#000000"></rect><rect width="25.93" height="115.56" x="94.07" y="58.66" id="rect62" style="fill:#deb887;stroke:#000000"></rect><rect width="25.93" height="144.44" x="120" y="29.780001" id="rect64" style="fill:#deb887;stroke:#000000"></rect><rect width="25.931" height="72.220001" x="145.92999" y="102" id="rect66" style="fill:#deb887;stroke:#000000"></rect><rect width="25.931" height="28.889999" x="171.85001" y="145.33" id="rect68" style="fill:#deb887;stroke:#000000"></rect></svg>
