<!-- Created with Inkscape (http://www.inkscape.org/) -->
<svg xmlns:dc="http://purl.org/dc/elements/1.1/" xmlns:cc="http://creativecommons.org/ns#" xmlns:rdf="http://www.w3.org/1999/02/22-rdf-syntax-ns#" xmlns:svg="http://www.w3.org/2000/svg" xmlns="http://www.w3.org/2000/svg" xmlns:inkscape="http://www.inkscape.org/namespaces/inkscape" version="1.1" width="600" height="480" viewBox="0 0 600 480" id="svg2">
  <desc id="desc4">Produced by GNUPLOT 4.2 patchlevel 5  </desc>
  <metadata id="metadata500"></metadata>
  <defs id="defs6"></defs>
  <g id="g22" style="color:#ffffff;fill:none;stroke:currentColor;stroke-width:1;stroke-linecap:butt;stroke-linejoin:miter"></g>
  <g id="g24" style="color:#000000;fill:none;stroke:currentColor;stroke-width:1;stroke-linecap:butt;stroke-linejoin:miter">
    <path d="m 87.8,435 -9,0" id="path26"></path>
    <g transform="translate(70.5,439.5)" id="g28" style="font-size:15px;text-anchor:end;fill:#000000;stroke:none;font-family:Arial">
      <text id="text30">0</text>
    </g>
    <path d="m 87.8,375.2 -9,0" id="path32"></path>
    <g transform="translate(70.5,379.7)" id="g34" style="font-size:15px;text-anchor:end;fill:#000000;stroke:none;font-family:Arial">
      <text id="text36">0.02</text>
    </g>
    <path d="m 87.8,315.5 -9,0" id="path38"></path>
    <g transform="translate(70.5,320)" id="g40" style="font-size:15px;text-anchor:end;fill:#000000;stroke:none;font-family:Arial">
      <text id="text42">0.04</text>
    </g>
    <path d="m 87.8,255.7 -9,0" id="path44"></path>
    <g transform="translate(70.5,260.2)" id="g46" style="font-size:15px;text-anchor:end;fill:#000000;stroke:none;font-family:Arial">
      <text id="text48">0.06</text>
    </g>
    <path d="m 87.8,195.9 -9,0" id="path50"></path>
    <g transform="translate(70.5,200.4)" id="g52" style="font-size:15px;text-anchor:end;fill:#000000;stroke:none;font-family:Arial">
      <text id="text54">0.08</text>
    </g>
    <path d="m 87.8,136.1 -9,0" id="path56"></path>
    <g transform="translate(70.5,140.6)" id="g58" style="font-size:15px;text-anchor:end;fill:#000000;stroke:none;font-family:Arial">
      <text id="text60">0.1</text>
    </g>
    <path d="m 87.8,76.4 -9,0" id="path62"></path>
    <g transform="translate(70.5,80.9)" id="g64" style="font-size:15px;text-anchor:end;fill:#000000;stroke:none;font-family:Arial">
      <text id="text66">0.12</text>
    </g>
    <path d="m 87.8,16.6 -9,0" id="path68"></path>
    <g transform="translate(70.5,21.1)" id="g70" style="font-size:15px;text-anchor:end;fill:#000000;stroke:none;font-family:Arial">
      <text id="text72">0.14</text>
    </g>
    <path d="m 97.3,435 0,9" id="path74"></path>
    <g transform="translate(97.3,466.5)" id="g76" style="font-size:15px;text-anchor:middle;fill:#000000;stroke:none;font-family:Arial">
      <text id="text78">a</text>
    </g>
    <path d="m 116.2,435 0,9" id="path80"></path>
    <g transform="translate(116.2,466.5)" id="g82" style="font-size:15px;text-anchor:middle;fill:#000000;stroke:none;font-family:Arial">
      <text id="text84">b</text>
    </g>
    <path d="m 135.1,435 0,9" id="path86"></path>
    <g transform="translate(135.1,466.5)" id="g88" style="font-size:15px;text-anchor:middle;fill:#000000;stroke:none;font-family:Arial">
      <text id="text90">c</text>
    </g>
    <path d="m 154,435 0,9" id="path92"></path>
    <g transform="translate(154,466.5)" id="g94" style="font-size:15px;text-anchor:middle;fill:#000000;stroke:none;font-family:Arial">
      <text id="text96">d</text>
    </g>
    <path d="m 172.9,435 0,9" id="path98"></path>
    <g transform="translate(172.9,466.5)" id="g100" style="font-size:15px;text-anchor:middle;fill:#000000;stroke:none;font-family:Arial">
      <text id="text102">e</text>
    </g>
    <path d="m 191.8,435 0,9" id="path104"></path>
    <g transform="translate(191.8,466.5)" id="g106" style="font-size:15px;text-anchor:middle;fill:#000000;stroke:none;font-family:Arial">
      <text id="text108">f</text>
    </g>
    <path d="m 210.7,435 0,9" id="path110"></path>
    <g transform="translate(210.7,466.5)" id="g112" style="font-size:15px;text-anchor:middle;fill:#000000;stroke:none;font-family:Arial">
      <text id="text114">g</text>
    </g>
    <path d="m 229.6,435 0,9" id="path116"></path>
    <g transform="translate(229.6,466.5)" id="g118" style="font-size:15px;text-anchor:middle;fill:#000000;stroke:none;font-family:Arial">
      <text id="text120">h</text>
    </g>
    <path d="m 248.5,435 0,9" id="path122"></path>
    <g transform="translate(248.5,466.5)" id="g124" style="font-size:15px;text-anchor:middle;fill:#000000;stroke:none;font-family:Arial">
      <text id="text126">i</text>
    </g>
    <path d="m 267.4,435 0,9" id="path128"></path>
    <g transform="translate(267.4,466.5)" id="g130" style="font-size:15px;text-anchor:middle;fill:#000000;stroke:none;font-family:Arial">
      <text id="text132">j</text>
    </g>
    <path d="m 286.3,435 0,9" id="path134"></path>
    <g transform="translate(286.3,466.5)" id="g136" style="font-size:15px;text-anchor:middle;fill:#000000;stroke:none;font-family:Arial">
      <text id="text138">k</text>
    </g>
    <path d="m 305.2,435 0,9" id="path140"></path>
    <g transform="translate(305.2,466.5)" id="g142" style="font-size:15px;text-anchor:middle;fill:#000000;stroke:none;font-family:Arial">
      <text id="text144">l</text>
    </g>
    <path d="m 324.1,435 0,9" id="path146"></path>
    <g transform="translate(324.1,466.5)" id="g148" style="font-size:15px;text-anchor:middle;fill:#000000;stroke:none;font-family:Arial">
      <text id="text150">m</text>
    </g>
    <path d="m 343,435 0,9" id="path152"></path>
    <g transform="translate(343,466.5)" id="g154" style="font-size:15px;text-anchor:middle;fill:#000000;stroke:none;font-family:Arial">
      <text id="text156">n</text>
    </g>
    <path d="m 361.9,435 0,9" id="path158"></path>
    <g transform="translate(361.9,466.5)" id="g160" style="font-size:15px;text-anchor:middle;fill:#000000;stroke:none;font-family:Arial">
      <text id="text162">o</text>
    </g>
    <path d="m 380.8,435 0,9" id="path164"></path>
    <g transform="translate(380.8,466.5)" id="g166" style="font-size:15px;text-anchor:middle;fill:#000000;stroke:none;font-family:Arial">
      <text id="text168">p</text>
    </g>
    <path d="m 399.7,435 0,9" id="path170"></path>
    <g transform="translate(399.7,466.5)" id="g172" style="font-size:15px;text-anchor:middle;fill:#000000;stroke:none;font-family:Arial">
      <text id="text174">q</text>
    </g>
    <path d="m 418.6,435 0,9" id="path176"></path>
    <g transform="translate(418.6,466.5)" id="g178" style="font-size:15px;text-anchor:middle;fill:#000000;stroke:none;font-family:Arial">
      <text id="text180">r</text>
    </g>
    <path d="m 437.5,435 0,9" id="path182"></path>
    <g transform="translate(437.5,466.5)" id="g184" style="font-size:15px;text-anchor:middle;fill:#000000;stroke:none;font-family:Arial">
      <text id="text186">s</text>
    </g>
    <path d="m 456.4,435 0,9" id="path188"></path>
    <g transform="translate(456.4,466.5)" id="g190" style="font-size:15px;text-anchor:middle;fill:#000000;stroke:none;font-family:Arial">
      <text id="text192">t</text>
    </g>
    <path d="m 475.3,435 0,9" id="path194"></path>
    <g transform="translate(475.3,466.5)" id="g196" style="font-size:15px;text-anchor:middle;fill:#000000;stroke:none;font-family:Arial">
      <text id="text198">u</text>
    </g>
    <path d="m 494.2,435 0,9" id="path200"></path>
    <g transform="translate(494.2,466.5)" id="g202" style="font-size:15px;text-anchor:middle;fill:#000000;stroke:none;font-family:Arial">
      <text id="text204">v</text>
    </g>
    <path d="m 513.1,435 0,9" id="path206"></path>
    <g transform="translate(513.1,466.5)" id="g208" style="font-size:15px;text-anchor:middle;fill:#000000;stroke:none;font-family:Arial">
      <text id="text210">w</text>
    </g>
    <path d="m 532,435 0,9" id="path212"></path>
    <g transform="translate(532,466.5)" id="g214" style="font-size:15px;text-anchor:middle;fill:#000000;stroke:none;font-family:Arial">
      <text id="text216">x</text>
    </g>
    <path d="m 550.9,435 0,9" id="path218"></path>
    <g transform="translate(550.9,466.5)" id="g220" style="font-size:15px;text-anchor:middle;fill:#000000;stroke:none;font-family:Arial">
      <text id="text222">y</text>
    </g>
    <path d="m 569.8,435 0,9" id="path224"></path>
    <g transform="translate(569.8,466.5)" id="g226" style="font-size:15px;text-anchor:middle;fill:#000000;stroke:none;font-family:Arial">
      <text id="text228">z</text>
    </g>
    <path d="m 87.8,16.6 0,418.4 491.4,0 m 0,-418.4 m -491.4,0" id="path230"></path>
  </g>
  <g id="g232" style="color:#808080;fill:none;stroke:currentColor;stroke-width:1;stroke-linecap:butt;stroke-linejoin:miter">
    <g id="g234" style="stroke:none">
      <polygon points="106.8,435 106.8,190.8 87.8,190.8 87.8,435 " id="polygon236" style="fill:currentColor"></polygon>
    </g>
  </g>
  <g id="g238" style="color:#000000;fill:none;stroke:currentColor;stroke-width:1;stroke-linecap:butt;stroke-linejoin:miter">
    <path d="m 87.8,435 0,-244.1 18.9,0 0,244.1 -18.9,0 z" id="path240"></path>
  </g>
  <g id="g242" style="color:#808080;fill:none;stroke:currentColor;stroke-width:1;stroke-linecap:butt;stroke-linejoin:miter">
    <g id="g244" style="stroke:none">
      <polygon points="125.7,435 125.7,390.3 106.7,390.3 106.7,435 " id="polygon246" style="fill:currentColor"></polygon>
    </g>
  </g>
  <g id="g248" style="color:#000000;fill:none;stroke:currentColor;stroke-width:1;stroke-linecap:butt;stroke-linejoin:miter">
    <path d="m 106.7,435 0,-44.6 18.9,0 0,44.6 -18.9,0 z" id="path250"></path>
  </g>
  <g id="g252" style="color:#808080;fill:none;stroke:currentColor;stroke-width:1;stroke-linecap:butt;stroke-linejoin:miter">
    <g id="g254" style="stroke:none">
      <polygon points="144.6,435 144.6,351.8 125.6,351.8 125.6,435 " id="polygon256" style="fill:currentColor"></polygon>
    </g>
  </g>
  <g id="g258" style="color:#000000;fill:none;stroke:currentColor;stroke-width:1;stroke-linecap:butt;stroke-linejoin:miter">
    <path d="m 125.6,435 0,-83.1 18.9,0 0,83.1 -18.9,0 z" id="path260"></path>
  </g>
  <g id="g262" style="color:#808080;fill:none;stroke:currentColor;stroke-width:1;stroke-linecap:butt;stroke-linejoin:miter">
    <g id="g264" style="stroke:none">
      <polygon points="163.5,435 163.5,307.8 144.5,307.8 144.5,435 " id="polygon266" style="fill:currentColor"></polygon>
    </g>
  </g>
  <g id="g268" style="color:#000000;fill:none;stroke:currentColor;stroke-width:1;stroke-linecap:butt;stroke-linejoin:miter">
    <path d="m 144.5,435 0,-127.1 18.9,0 0,127.1 -18.9,0 z" id="path270"></path>
  </g>
  <g id="g272" style="color:#808080;fill:none;stroke:currentColor;stroke-width:1;stroke-linecap:butt;stroke-linejoin:miter">
    <g id="g274" style="stroke:none">
      <polygon points="182.4,435 182.4,55.3 163.4,55.3 163.4,435 " id="polygon276" style="fill:currentColor"></polygon>
    </g>
  </g>
  <g id="g278" style="color:#000000;fill:none;stroke:currentColor;stroke-width:1;stroke-linecap:butt;stroke-linejoin:miter">
    <path d="m 163.4,435 0,-379.6 18.9,0 0,379.6 -18.9,0 z" id="path280"></path>
  </g>
  <g id="g282" style="color:#808080;fill:none;stroke:currentColor;stroke-width:1;stroke-linecap:butt;stroke-linejoin:miter">
    <g id="g284" style="stroke:none">
      <polygon points="201.3,435 201.3,368.3 182.3,368.3 182.3,435 " id="polygon286" style="fill:currentColor"></polygon>
    </g>
  </g>
  <g id="g288" style="color:#000000;fill:none;stroke:currentColor;stroke-width:1;stroke-linecap:butt;stroke-linejoin:miter">
    <path d="m 182.3,435 0,-66.6 18.9,0 0,66.6 -18.9,0 z" id="path290"></path>
  </g>
  <g id="g292" style="color:#808080;fill:none;stroke:currentColor;stroke-width:1;stroke-linecap:butt;stroke-linejoin:miter">
    <g id="g294" style="stroke:none">
      <polygon points="220.2,435 220.2,374.7 201.2,374.7 201.2,435 " id="polygon296" style="fill:currentColor"></polygon>
    </g>
  </g>
  <g id="g298" style="color:#000000;fill:none;stroke:currentColor;stroke-width:1;stroke-linecap:butt;stroke-linejoin:miter">
    <path d="m 201.2,435 0,-60.2 18.9,0 0,60.2 -18.9,0 z" id="path300"></path>
  </g>
  <g id="g302" style="color:#808080;fill:none;stroke:currentColor;stroke-width:1;stroke-linecap:butt;stroke-linejoin:miter">
    <g id="g304" style="stroke:none">
      <polygon points="239.1,435 239.1,252.8 220.1,252.8 220.1,435 " id="polygon306" style="fill:currentColor"></polygon>
    </g>
  </g>
  <g id="g308" style="color:#000000;fill:none;stroke:currentColor;stroke-width:1;stroke-linecap:butt;stroke-linejoin:miter">
    <path d="m 220.1,435 0,-182.1 18.9,0 0,182.1 -18.9,0 z" id="path310"></path>
  </g>
  <g id="g312" style="color:#808080;fill:none;stroke:currentColor;stroke-width:1;stroke-linecap:butt;stroke-linejoin:miter">
    <g id="g314" style="stroke:none">
      <polygon points="258,435 258,226.7 239,226.7 239,435 " id="polygon316" style="fill:currentColor"></polygon>
    </g>
  </g>
  <g id="g318" style="color:#000000;fill:none;stroke:currentColor;stroke-width:1;stroke-linecap:butt;stroke-linejoin:miter">
    <path d="m 239,435 0,-208.2 18.9,0 0,208.2 -18.9,0 z" id="path320"></path>
  </g>
  <g id="g322" style="color:#808080;fill:none;stroke:currentColor;stroke-width:1;stroke-linecap:butt;stroke-linejoin:miter">
    <g id="g324" style="stroke:none">
      <polygon points="276.9,435 276.9,430.3 257.9,430.3 257.9,435 " id="polygon326" style="fill:currentColor"></polygon>
    </g>
  </g>
  <g id="g328" style="color:#000000;fill:none;stroke:currentColor;stroke-width:1;stroke-linecap:butt;stroke-linejoin:miter">
    <path d="m 257.9,435 0,-4.6 18.9,0 0,4.6 -18.9,0 z" id="path330"></path>
  </g>
  <g id="g332" style="color:#808080;fill:none;stroke:currentColor;stroke-width:1;stroke-linecap:butt;stroke-linejoin:miter">
    <g id="g334" style="stroke:none">
      <polygon points="295.8,435 295.8,411.8 276.8,411.8 276.8,435 " id="polygon336" style="fill:currentColor"></polygon>
    </g>
  </g>
  <g id="g338" style="color:#000000;fill:none;stroke:currentColor;stroke-width:1;stroke-linecap:butt;stroke-linejoin:miter">
    <path d="m 276.8,435 0,-23.1 18.9,0 0,23.1 -18.9,0 z" id="path340"></path>
  </g>
  <g id="g342" style="color:#808080;fill:none;stroke:currentColor;stroke-width:1;stroke-linecap:butt;stroke-linejoin:miter">
    <g id="g344" style="stroke:none">
      <polygon points="314.7,435 314.7,314.6 295.7,314.6 295.7,435 " id="polygon346" style="fill:currentColor"></polygon>
    </g>
  </g>
  <g id="g348" style="color:#000000;fill:none;stroke:currentColor;stroke-width:1;stroke-linecap:butt;stroke-linejoin:miter">
    <path d="m 295.7,435 0,-120.3 18.9,0 0,120.3 -18.9,0 z" id="path350"></path>
  </g>
  <g id="g352" style="color:#808080;fill:none;stroke:currentColor;stroke-width:1;stroke-linecap:butt;stroke-linejoin:miter">
    <g id="g354" style="stroke:none">
      <polygon points="333.6,435 333.6,363 314.6,363 314.6,435 " id="polygon356" style="fill:currentColor"></polygon>
    </g>
  </g>
  <g id="g358" style="color:#000000;fill:none;stroke:currentColor;stroke-width:1;stroke-linecap:butt;stroke-linejoin:miter">
    <path d="m 314.6,435 0,-71.9 18.9,0 0,71.9 -18.9,0 z" id="path360"></path>
  </g>
  <g id="g362" style="color:#808080;fill:none;stroke:currentColor;stroke-width:1;stroke-linecap:butt;stroke-linejoin:miter">
    <g id="g364" style="stroke:none">
      <polygon points="352.5,435 352.5,233.2 333.5,233.2 333.5,435 " id="polygon366" style="fill:currentColor"></polygon>
    </g>
  </g>
  <g id="g368" style="color:#000000;fill:none;stroke:currentColor;stroke-width:1;stroke-linecap:butt;stroke-linejoin:miter">
    <path d="m 333.5,435 0,-201.7 18.9,0 0,201.7 -18.9,0 z" id="path370"></path>
  </g>
  <g id="g372" style="color:#808080;fill:none;stroke:currentColor;stroke-width:1;stroke-linecap:butt;stroke-linejoin:miter">
    <g id="g374" style="stroke:none">
      <polygon points="371.4,435 371.4,210.5 352.4,210.5 352.4,435 " id="polygon376" style="fill:currentColor"></polygon>
    </g>
  </g>
  <g id="g378" style="color:#000000;fill:none;stroke:currentColor;stroke-width:1;stroke-linecap:butt;stroke-linejoin:miter">
    <path d="m 352.4,435 0,-224.4 18.9,0 0,224.4 -18.9,0 z" id="path380"></path>
  </g>
  <g id="g382" style="color:#808080;fill:none;stroke:currentColor;stroke-width:1;stroke-linecap:butt;stroke-linejoin:miter">
    <g id="g384" style="stroke:none">
      <polygon points="390.3,435 390.3,377.3 371.3,377.3 371.3,435 " id="polygon386" style="fill:currentColor"></polygon>
    </g>
  </g>
  <g id="g388" style="color:#000000;fill:none;stroke:currentColor;stroke-width:1;stroke-linecap:butt;stroke-linejoin:miter">
    <path d="m 371.3,435 0,-57.6 18.9,0 0,57.6 -18.9,0 z" id="path390"></path>
  </g>
  <g id="g392" style="color:#808080;fill:none;stroke:currentColor;stroke-width:1;stroke-linecap:butt;stroke-linejoin:miter">
    <g id="g394" style="stroke:none">
      <polygon points="409.2,435 409.2,432.1 390.2,432.1 390.2,435 " id="polygon396" style="fill:currentColor"></polygon>
    </g>
  </g>
  <g id="g398" style="color:#000000;fill:none;stroke:currentColor;stroke-width:1;stroke-linecap:butt;stroke-linejoin:miter">
    <path d="m 390.2,435 0,-2.8 18.9,0 0,2.8 -18.9,0 z" id="path400"></path>
  </g>
  <g id="g402" style="color:#808080;fill:none;stroke:currentColor;stroke-width:1;stroke-linecap:butt;stroke-linejoin:miter">
    <g id="g404" style="stroke:none">
      <polygon points="428.1,435 428.1,256 409.1,256 409.1,435 " id="polygon406" style="fill:currentColor"></polygon>
    </g>
  </g>
  <g id="g408" style="color:#000000;fill:none;stroke:currentColor;stroke-width:1;stroke-linecap:butt;stroke-linejoin:miter">
    <path d="m 409.1,435 0,-178.9 18.9,0 0,178.9 -18.9,0 z" id="path410"></path>
  </g>
  <g id="g412" style="color:#808080;fill:none;stroke:currentColor;stroke-width:1;stroke-linecap:butt;stroke-linejoin:miter">
    <g id="g414" style="stroke:none">
      <polygon points="447,435 447,245.8 428,245.8 428,435 " id="polygon416" style="fill:currentColor"></polygon>
    </g>
  </g>
  <g id="g418" style="color:#000000;fill:none;stroke:currentColor;stroke-width:1;stroke-linecap:butt;stroke-linejoin:miter">
    <path d="m 428,435 0,-189.1 18.9,0 0,189.1 -18.9,0 z" id="path420"></path>
  </g>
  <g id="g422" style="color:#808080;fill:none;stroke:currentColor;stroke-width:1;stroke-linecap:butt;stroke-linejoin:miter">
    <g id="g424" style="stroke:none">
      <polygon points="465.9,435 465.9,164.3 446.9,164.3 446.9,435 " id="polygon426" style="fill:currentColor"></polygon>
    </g>
  </g>
  <g id="g428" style="color:#000000;fill:none;stroke:currentColor;stroke-width:1;stroke-linecap:butt;stroke-linejoin:miter">
    <path d="m 446.9,435 0,-270.6 18.9,0 0,270.6 -18.9,0 z" id="path430"></path>
  </g>
  <g id="g432" style="color:#808080;fill:none;stroke:currentColor;stroke-width:1;stroke-linecap:butt;stroke-linejoin:miter">
    <g id="g434" style="stroke:none">
      <polygon points="484.8,435 484.8,352.5 465.8,352.5 465.8,435 " id="polygon436" style="fill:currentColor"></polygon>
    </g>
  </g>
  <g id="g438" style="color:#000000;fill:none;stroke:currentColor;stroke-width:1;stroke-linecap:butt;stroke-linejoin:miter">
    <path d="m 465.8,435 0,-82.4 18.9,0 0,82.4 -18.9,0 z" id="path440"></path>
  </g>
  <g id="g442" style="color:#808080;fill:none;stroke:currentColor;stroke-width:1;stroke-linecap:butt;stroke-linejoin:miter">
    <g id="g444" style="stroke:none">
      <polygon points="503.7,435 503.7,405.7 484.7,405.7 484.7,435 " id="polygon446" style="fill:currentColor"></polygon>
    </g>
  </g>
  <g id="g448" style="color:#000000;fill:none;stroke:currentColor;stroke-width:1;stroke-linecap:butt;stroke-linejoin:miter">
    <path d="m 484.7,435 0,-29.2 18.9,0 0,29.2 -18.9,0 z" id="path450"></path>
  </g>
  <g id="g452" style="color:#808080;fill:none;stroke:currentColor;stroke-width:1;stroke-linecap:butt;stroke-linejoin:miter">
    <g id="g454" style="stroke:none">
      <polygon points="522.6,435 522.6,364.4 503.6,364.4 503.6,435 " id="polygon456" style="fill:currentColor"></polygon>
    </g>
  </g>
  <g id="g458" style="color:#000000;fill:none;stroke:currentColor;stroke-width:1;stroke-linecap:butt;stroke-linejoin:miter">
    <path d="m 503.6,435 0,-70.5 18.9,0 0,70.5 -18.9,0 z" id="path460"></path>
  </g>
  <g id="g462" style="color:#808080;fill:none;stroke:currentColor;stroke-width:1;stroke-linecap:butt;stroke-linejoin:miter">
    <g id="g464" style="stroke:none">
      <polygon points="541.5,435 541.5,430.4 522.5,430.4 522.5,435 " id="polygon466" style="fill:currentColor"></polygon>
    </g>
  </g>
  <g id="g468" style="color:#000000;fill:none;stroke:currentColor;stroke-width:1;stroke-linecap:butt;stroke-linejoin:miter">
    <path d="m 522.5,435 0,-4.5 18.9,0 0,4.5 -18.9,0 z" id="path470"></path>
  </g>
  <g id="g472" style="color:#808080;fill:none;stroke:currentColor;stroke-width:1;stroke-linecap:butt;stroke-linejoin:miter">
    <g id="g474" style="stroke:none">
      <polygon points="560.4,435 560.4,375.9 541.4,375.9 541.4,435 " id="polygon476" style="fill:currentColor"></polygon>
    </g>
  </g>
  <g id="g478" style="color:#000000;fill:none;stroke:currentColor;stroke-width:1;stroke-linecap:butt;stroke-linejoin:miter">
    <path d="m 541.4,435 0,-59 18.9,0 0,59 -18.9,0 z" id="path480"></path>
  </g>
  <g id="g482" style="color:#808080;fill:none;stroke:currentColor;stroke-width:1;stroke-linecap:butt;stroke-linejoin:miter">
    <g id="g484" style="stroke:none">
      <polygon points="579.3,435 579.3,432.7 560.3,432.7 560.3,435 " id="polygon486" style="fill:currentColor"></polygon>
    </g>
  </g>
  <g id="g488" style="color:#000000;fill:none;stroke:currentColor;stroke-width:1;stroke-linecap:butt;stroke-linejoin:miter">
    <path d="m 560.3,435 0,-2.2 18.9,0 0,2.2 -18.9,0 z" id="path490"></path>
  </g>
  <g id="g492" style="color:#808080;fill:none;stroke:currentColor;stroke-width:1;stroke-linecap:butt;stroke-linejoin:miter"></g>
  <g id="g494" style="color:#000000;fill:none;stroke:currentColor;stroke-width:1;stroke-linecap:butt;stroke-linejoin:miter">
    <path d="m 87.8,16.6 0,418.4 491.4,0 m 0,-418.4 m -491.4,0" id="path496"></path>
  </g>
</svg>
