<!-- Created with Inkscape (http://www.inkscape.org/) -->
<svg xmlns:dc="http://purl.org/dc/elements/1.1/" xmlns:cc="http://creativecommons.org/ns#" xmlns:rdf="http://www.w3.org/1999/02/22-rdf-syntax-ns#" xmlns:svg="http://www.w3.org/2000/svg" xmlns="http://www.w3.org/2000/svg" xmlns:inkscape="http://www.inkscape.org/namespaces/inkscape" version="1.1" width="630" height="628.75" id="svg2816" xml:space="preserve">
  <metadata id="metadata2822"></metadata>
  <defs id="defs2820">
    <clipPath id="clipPath2834">
      <path d="m 59.04,73.44 414.72,0 0,370.77 -414.72,0 0,-370.77 z" id="path2836"></path>
    </clipPath>
    <clipPath id="clipPath2842">
      <path d="m 59.04,73.44 414.72,0 0,370.77 -414.72,0 0,-370.77 z" id="path2844"></path>
    </clipPath>
    <clipPath id="clipPath2972">
      <path d="m 0,0 504,0 0,503.25 -504,0 L 0,0 z" id="path2974"></path>
    </clipPath>
    <clipPath id="clipPath3046">
      <path d="m 0,0 504,0 0,503.25 -504,0 L 0,0 z" id="path3048"></path>
    </clipPath>
  </defs>
  <g transform="matrix(1.25,0,0,-1.25,0,628.75)" id="g2826">
    <g id="g2828"></g>
    <g id="g2830">
      <g clip-path="url(#clipPath2834)" id="g2832"></g>
    </g>
    <g id="g2838">
      <g clip-path="url(#clipPath2842)" id="g2840">
        <path d="m 69.89,425.97 9.02,0 0,9.02 -9.02,0 0,-9.02 z" id="path2846" style="fill:#048004;fill-opacity:1;fill-rule:evenodd;stroke:none"></path>
        <path d="m 76.29,374.63 9.02,0 0,9.01 -9.02,0 0,-9.01 z" id="path2848" style="fill:#048004;fill-opacity:1;fill-rule:evenodd;stroke:none"></path>
        <path d="m 82.69,416.73 9.02,0 0,9.02 -9.02,0 0,-9.02 z" id="path2850" style="fill:#048004;fill-opacity:1;fill-rule:evenodd;stroke:none"></path>
        <path d="m 89.09,360.94 9.02,0 0,9.01 -9.02,0 0,-9.01 z" id="path2852" style="fill:#048004;fill-opacity:1;fill-rule:evenodd;stroke:none"></path>
        <path d="m 95.49,347.59 9.02,0 0,9.01 -9.02,0 0,-9.01 z" id="path2854" style="fill:#048004;fill-opacity:1;fill-rule:evenodd;stroke:none"></path>
        <path d="m 101.89,329.45 9.02,0 0,9.01 -9.02,0 0,-9.01 z" id="path2856" style="fill:#048004;fill-opacity:1;fill-rule:evenodd;stroke:none"></path>
        <path d="m 108.29,269.21 9.02,0 0,9.01 -9.02,0 0,-9.01 z" id="path2858" style="fill:#048004;fill-opacity:1;fill-rule:evenodd;stroke:none"></path>
        <path d="m 114.69,285.29 9.02,0 0,9.02 -9.02,0 0,-9.02 z" id="path2860" style="fill:#048004;fill-opacity:1;fill-rule:evenodd;stroke:none"></path>
        <path d="m 121.09,314.04 9.02,0 0,9.02 -9.02,0 0,-9.02 z" id="path2862" style="fill:#048004;fill-opacity:1;fill-rule:evenodd;stroke:none"></path>
        <path d="m 127.49,269.89 9.02,0 0,9.02 -9.02,0 0,-9.02 z" id="path2864" style="fill:#048004;fill-opacity:1;fill-rule:evenodd;stroke:none"></path>
        <path d="m 133.89,330.47 9.02,0 0,9.02 -9.02,0 0,-9.02 z" id="path2866" style="fill:#048004;fill-opacity:1;fill-rule:evenodd;stroke:none"></path>
        <path d="m 140.29,210.33 9.02,0 0,9.02 -9.02,0 0,-9.02 z" id="path2868" style="fill:#048004;fill-opacity:1;fill-rule:evenodd;stroke:none"></path>
        <path d="m 146.69,330.13 9.02,0 0,9.02 -9.02,0 0,-9.02 z" id="path2870" style="fill:#048004;fill-opacity:1;fill-rule:evenodd;stroke:none"></path>
        <path d="m 153.09,232.58 9.02,0 0,9.02 -9.02,0 0,-9.02 z" id="path2872" style="fill:#048004;fill-opacity:1;fill-rule:evenodd;stroke:none"></path>
        <path d="m 159.49,378.05 9.02,0 0,9.02 -9.02,0 0,-9.02 z" id="path2874" style="fill:#048004;fill-opacity:1;fill-rule:evenodd;stroke:none"></path>
        <path d="m 165.89,270.23 9.02,0 0,9.02 -9.02,0 0,-9.02 z" id="path2876" style="fill:#048004;fill-opacity:1;fill-rule:evenodd;stroke:none"></path>
        <path d="m 172.29,286.66 9.02,0 0,9.02 -9.02,0 0,-9.02 z" id="path2878" style="fill:#048004;fill-opacity:1;fill-rule:evenodd;stroke:none"></path>
        <path d="m 178.69,269.89 9.02,0 0,9.02 -9.02,0 0,-9.02 z" id="path2880" style="fill:#048004;fill-opacity:1;fill-rule:evenodd;stroke:none"></path>
        <path d="m 185.09,268.86 9.02,0 0,9.02 -9.02,0 0,-9.02 z" id="path2882" style="fill:#048004;fill-opacity:1;fill-rule:evenodd;stroke:none"></path>
        <path d="m 191.49,284.95 9.02,0 0,9.02 -9.02,0 0,-9.02 z" id="path2884" style="fill:#048004;fill-opacity:1;fill-rule:evenodd;stroke:none"></path>
        <path d="m 197.89,316.1 9.02,0 0,9.02 -9.02,0 0,-9.02 z" id="path2886" style="fill:#048004;fill-opacity:1;fill-rule:evenodd;stroke:none"></path>
        <path d="m 204.29,285.98 9.02,0 0,9.01 -9.02,0 0,-9.01 z" id="path2888" style="fill:#048004;fill-opacity:1;fill-rule:evenodd;stroke:none"></path>
        <path d="m 210.69,281.87 9.02,0 0,9.02 -9.02,0 0,-9.02 z" id="path2890" style="fill:#048004;fill-opacity:1;fill-rule:evenodd;stroke:none"></path>
        <path d="m 217.09,272.29 9.02,0 0,9.01 -9.02,0 0,-9.01 z" id="path2892" style="fill:#048004;fill-opacity:1;fill-rule:evenodd;stroke:none"></path>
        <path d="m 223.49,309.25 9.02,0 0,9.02 -9.02,0 0,-9.02 z" id="path2894" style="fill:#048004;fill-opacity:1;fill-rule:evenodd;stroke:none"></path>
        <path d="m 229.89,275.71 9.02,0 0,9.02 -9.02,0 0,-9.02 z" id="path2896" style="fill:#048004;fill-opacity:1;fill-rule:evenodd;stroke:none"></path>
        <path d="m 236.29,178.5 9.02,0 0,9.02 -9.02,0 0,-9.02 z" id="path2898" style="fill:#048004;fill-opacity:1;fill-rule:evenodd;stroke:none"></path>
        <path d="m 242.69,232.24 9.02,0 0,9.02 -9.02,0 0,-9.02 z" id="path2900" style="fill:#048004;fill-opacity:1;fill-rule:evenodd;stroke:none"></path>
        <path d="m 249.09,217.18 9.02,0 0,9.02 -9.02,0 0,-9.02 z" id="path2902" style="fill:#048004;fill-opacity:1;fill-rule:evenodd;stroke:none"></path>
        <path d="m 255.49,200.41 9.02,0 0,9.02 -9.02,0 0,-9.02 z" id="path2904" style="fill:#048004;fill-opacity:1;fill-rule:evenodd;stroke:none"></path>
        <path d="m 261.89,255.86 9.02,0 0,9.01 -9.02,0 0,-9.01 z" id="path2906" style="fill:#048004;fill-opacity:1;fill-rule:evenodd;stroke:none"></path>
        <path d="m 268.29,272.29 9.02,0 0,9.01 -9.02,0 0,-9.01 z" id="path2908" style="fill:#048004;fill-opacity:1;fill-rule:evenodd;stroke:none"></path>
        <path d="m 274.69,267.15 9.02,0 0,9.02 -9.02,0 0,-9.02 z" id="path2910" style="fill:#048004;fill-opacity:1;fill-rule:evenodd;stroke:none"></path>
        <path d="m 281.09,239.77 9.02,0 0,9.02 -9.02,0 0,-9.02 z" id="path2912" style="fill:#048004;fill-opacity:1;fill-rule:evenodd;stroke:none"></path>
        <path d="m 287.49,223 9.02,0 0,9.02 -9.02,0 0,-9.02 z" id="path2914" style="fill:#048004;fill-opacity:1;fill-rule:evenodd;stroke:none"></path>
        <path d="m 293.89,236.69 9.02,0 0,9.02 -9.02,0 0,-9.02 z" id="path2916" style="fill:#048004;fill-opacity:1;fill-rule:evenodd;stroke:none"></path>
        <path d="m 300.29,272.63 9.02,0 0,9.02 -9.02,0 0,-9.02 z" id="path2918" style="fill:#048004;fill-opacity:1;fill-rule:evenodd;stroke:none"></path>
        <path d="m 306.69,309.25 9.02,0 0,9.02 -9.02,0 0,-9.02 z" id="path2920" style="fill:#048004;fill-opacity:1;fill-rule:evenodd;stroke:none"></path>
        <path d="m 313.09,215.13 9.02,0 0,9.01 -9.02,0 0,-9.01 z" id="path2922" style="fill:#048004;fill-opacity:1;fill-rule:evenodd;stroke:none"></path>
        <path d="m 319.49,143.25 9.02,0 0,9.01 -9.02,0 0,-9.01 z" id="path2924" style="fill:#048004;fill-opacity:1;fill-rule:evenodd;stroke:none"></path>
        <path d="m 325.89,236.69 9.02,0 0,9.02 -9.02,0 0,-9.02 z" id="path2926" style="fill:#048004;fill-opacity:1;fill-rule:evenodd;stroke:none"></path>
        <path d="m 332.29,195.96 9.02,0 0,9.02 -9.02,0 0,-9.02 z" id="path2928" style="fill:#048004;fill-opacity:1;fill-rule:evenodd;stroke:none"></path>
        <path d="m 338.69,154.54 9.02,0 0,9.02 -9.02,0 0,-9.02 z" id="path2930" style="fill:#048004;fill-opacity:1;fill-rule:evenodd;stroke:none"></path>
        <path d="m 345.09,159.33 9.02,0 0,9.02 -9.02,0 0,-9.02 z" id="path2932" style="fill:#048004;fill-opacity:1;fill-rule:evenodd;stroke:none"></path>
        <path d="m 351.49,134.01 9.02,0 0,9.01 -9.02,0 0,-9.01 z" id="path2934" style="fill:#048004;fill-opacity:1;fill-rule:evenodd;stroke:none"></path>
        <path d="m 357.89,82.66 9.02,0 0,9.02 -9.02,0 0,-9.02 z" id="path2936" style="fill:#048004;fill-opacity:1;fill-rule:evenodd;stroke:none"></path>
        <path d="m 364.29,158.31 9.02,0 0,9.01 -9.02,0 0,-9.01 z" id="path2938" style="fill:#048004;fill-opacity:1;fill-rule:evenodd;stroke:none"></path>
        <path d="m 370.69,147.7 9.02,0 0,9.01 -9.02,0 0,-9.01 z" id="path2940" style="fill:#048004;fill-opacity:1;fill-rule:evenodd;stroke:none"></path>
        <path d="m 377.09,174.39 9.02,0 0,9.02 -9.02,0 0,-9.02 z" id="path2942" style="fill:#048004;fill-opacity:1;fill-rule:evenodd;stroke:none"></path>
        <path d="m 383.49,126.82 9.02,0 0,9.02 -9.02,0 0,-9.02 z" id="path2944" style="fill:#048004;fill-opacity:1;fill-rule:evenodd;stroke:none"></path>
        <path d="m 389.89,144.96 9.02,0 0,9.02 -9.02,0 0,-9.02 z" id="path2946" style="fill:#048004;fill-opacity:1;fill-rule:evenodd;stroke:none"></path>
        <path d="m 396.29,209.31 9.02,0 0,9.01 -9.02,0 0,-9.01 z" id="path2948" style="fill:#048004;fill-opacity:1;fill-rule:evenodd;stroke:none"></path>
        <path d="m 402.69,110.05 9.02,0 0,9.01 -9.02,0 0,-9.01 z" id="path2950" style="fill:#048004;fill-opacity:1;fill-rule:evenodd;stroke:none"></path>
        <path d="m 409.09,89.85 9.02,0 0,9.02 -9.02,0 0,-9.02 z" id="path2952" style="fill:#048004;fill-opacity:1;fill-rule:evenodd;stroke:none"></path>
        <path d="m 415.49,229.16 9.02,0 0,9.02 -9.02,0 0,-9.02 z" id="path2954" style="fill:#048004;fill-opacity:1;fill-rule:evenodd;stroke:none"></path>
        <path d="m 421.89,114.84 9.02,0 0,9.02 -9.02,0 0,-9.02 z" id="path2956" style="fill:#048004;fill-opacity:1;fill-rule:evenodd;stroke:none"></path>
        <path d="m 428.29,119.63 9.02,0 0,9.02 -9.02,0 0,-9.02 z" id="path2958" style="fill:#048004;fill-opacity:1;fill-rule:evenodd;stroke:none"></path>
        <path d="m 434.69,231.9 9.02,0 0,9.01 -9.02,0 0,-9.01 z" id="path2960" style="fill:#048004;fill-opacity:1;fill-rule:evenodd;stroke:none"></path>
        <path d="m 441.09,169.6 9.02,0 0,9.02 -9.02,0 0,-9.02 z" id="path2962" style="fill:#048004;fill-opacity:1;fill-rule:evenodd;stroke:none"></path>
        <path d="m 447.49,123.74 9.02,0 0,9.01 -9.02,0 0,-9.01 z" id="path2964" style="fill:#048004;fill-opacity:1;fill-rule:evenodd;stroke:none"></path>
        <path d="m 453.89,117.58 9.02,0 0,9.01 -9.02,0 0,-9.01 z" id="path2966" style="fill:#048004;fill-opacity:1;fill-rule:evenodd;stroke:none"></path>
      </g>
    </g>
    <g id="g2968">
      <g clip-path="url(#clipPath2972)" id="g2970"><path d="m 74.4,73.44 384,0" id="path2976" style="fill:none;stroke:#000000;stroke-width:0.75;stroke-linecap:round;stroke-linejoin:round;stroke-miterlimit:10;stroke-opacity:1;stroke-dasharray:none"></path><path d="m 74.4,73.44 0,-7.2" id="path2978" style="fill:none;stroke:#000000;stroke-width:0.75;stroke-linecap:round;stroke-linejoin:round;stroke-miterlimit:10;stroke-opacity:1;stroke-dasharray:none"></path><path d="m 170.4,73.44 0,-7.2" id="path2980" style="fill:none;stroke:#000000;stroke-width:0.75;stroke-linecap:round;stroke-linejoin:round;stroke-miterlimit:10;stroke-opacity:1;stroke-dasharray:none"></path><path d="m 266.4,73.44 0,-7.2" id="path2982" style="fill:none;stroke:#000000;stroke-width:0.75;stroke-linecap:round;stroke-linejoin:round;stroke-miterlimit:10;stroke-opacity:1;stroke-dasharray:none"></path><path d="m 362.4,73.44 0,-7.2" id="path2984" style="fill:none;stroke:#000000;stroke-width:0.75;stroke-linecap:round;stroke-linejoin:round;stroke-miterlimit:10;stroke-opacity:1;stroke-dasharray:none"></path><path d="m 458.4,73.44 0,-7.2" id="path2986" style="fill:none;stroke:#000000;stroke-width:0.75;stroke-linecap:round;stroke-linejoin:round;stroke-miterlimit:10;stroke-opacity:1;stroke-dasharray:none"></path><text transform="matrix(1,0,0,-1,71.06,47.52)" id="text2988"><tspan x="0" y="0" id="tspan2990" style="font-size:12px;font-variant:normal;font-weight:normal;writing-mode:lr-tb;fill:#000000;fill-opacity:1;fill-rule:nonzero;stroke:none;font-family:Helvetica;-inkscape-font-specification:Helvetica">0</tspan></text>
<text transform="matrix(1,0,0,-1,167.06,47.52)" id="text2992"><tspan x="0" y="0" id="tspan2994" style="font-size:12px;font-variant:normal;font-weight:normal;writing-mode:lr-tb;fill:#000000;fill-opacity:1;fill-rule:nonzero;stroke:none;font-family:Helvetica;-inkscape-font-specification:Helvetica">5</tspan></text>
<text transform="matrix(1,0,0,-1,259.73,47.52)" id="text2996"><tspan x="0 6.6719999" y="0" id="tspan2998" style="font-size:12px;font-variant:normal;font-weight:normal;writing-mode:lr-tb;fill:#000000;fill-opacity:1;fill-rule:nonzero;stroke:none;font-family:Helvetica;-inkscape-font-specification:Helvetica">10</tspan></text>
<text transform="matrix(1,0,0,-1,355.73,47.52)" id="text3000"><tspan x="0 6.6719999" y="0" id="tspan3002" style="font-size:12px;font-variant:normal;font-weight:normal;writing-mode:lr-tb;fill:#000000;fill-opacity:1;fill-rule:nonzero;stroke:none;font-family:Helvetica;-inkscape-font-specification:Helvetica">15</tspan></text>
<text transform="matrix(1,0,0,-1,451.73,47.52)" id="text3004"><tspan x="0 6.6719999" y="0" id="tspan3006" style="font-size:12px;font-variant:normal;font-weight:normal;writing-mode:lr-tb;fill:#000000;fill-opacity:1;fill-rule:nonzero;stroke:none;font-family:Helvetica;-inkscape-font-specification:Helvetica">20</tspan></text>
<path d="m 59.04,116.27 0,273.82" id="path3008" style="fill:none;stroke:#000000;stroke-width:0.75;stroke-linecap:round;stroke-linejoin:round;stroke-miterlimit:10;stroke-opacity:1;stroke-dasharray:none"></path><path d="m 59.04,116.27 -7.2,0" id="path3010" style="fill:none;stroke:#000000;stroke-width:0.75;stroke-linecap:round;stroke-linejoin:round;stroke-miterlimit:10;stroke-opacity:1;stroke-dasharray:none"></path><path d="m 59.04,184.72 -7.2,0" id="path3012" style="fill:none;stroke:#000000;stroke-width:0.75;stroke-linecap:round;stroke-linejoin:round;stroke-miterlimit:10;stroke-opacity:1;stroke-dasharray:none"></path><path d="m 59.04,253.18 -7.2,0" id="path3014" style="fill:none;stroke:#000000;stroke-width:0.75;stroke-linecap:round;stroke-linejoin:round;stroke-miterlimit:10;stroke-opacity:1;stroke-dasharray:none"></path><path d="m 59.04,321.63 -7.2,0" id="path3016" style="fill:none;stroke:#000000;stroke-width:0.75;stroke-linecap:round;stroke-linejoin:round;stroke-miterlimit:10;stroke-opacity:1;stroke-dasharray:none"></path><path d="m 59.04,390.09 -7.2,0" id="path3018" style="fill:none;stroke:#000000;stroke-width:0.75;stroke-linecap:round;stroke-linejoin:round;stroke-miterlimit:10;stroke-opacity:1;stroke-dasharray:none"></path><text transform="matrix(0,1,1,0,41.76,109.59)" id="text3020"><tspan x="0 6.6719999" y="0" id="tspan3022" style="font-size:12px;font-variant:normal;font-weight:normal;writing-mode:lr-tb;fill:#000000;fill-opacity:1;fill-rule:nonzero;stroke:none;font-family:Helvetica;-inkscape-font-specification:Helvetica">94</tspan></text>
<text transform="matrix(0,1,1,0,41.76,178.05)" id="text3024"><tspan x="0 6.6719999" y="0" id="tspan3026" style="font-size:12px;font-variant:normal;font-weight:normal;writing-mode:lr-tb;fill:#000000;fill-opacity:1;fill-rule:nonzero;stroke:none;font-family:Helvetica;-inkscape-font-specification:Helvetica">96</tspan></text>
<text transform="matrix(0,1,1,0,41.76,246.51)" id="text3028"><tspan x="0 6.6719999" y="0" id="tspan3030" style="font-size:12px;font-variant:normal;font-weight:normal;writing-mode:lr-tb;fill:#000000;fill-opacity:1;fill-rule:nonzero;stroke:none;font-family:Helvetica;-inkscape-font-specification:Helvetica">98</tspan></text>
<text transform="matrix(0,1,1,0,41.76,311.63)" id="text3032"><tspan x="0 6.6719999 13.344" y="0" id="tspan3034" style="font-size:12px;font-variant:normal;font-weight:normal;writing-mode:lr-tb;fill:#000000;fill-opacity:1;fill-rule:nonzero;stroke:none;font-family:Helvetica;-inkscape-font-specification:Helvetica">100</tspan></text>
<text transform="matrix(0,1,1,0,41.76,380.08)" id="text3036"><tspan x="0 6.6719999 13.344" y="0" id="tspan3038" style="font-size:12px;font-variant:normal;font-weight:normal;writing-mode:lr-tb;fill:#000000;fill-opacity:1;fill-rule:nonzero;stroke:none;font-family:Helvetica;-inkscape-font-specification:Helvetica">102</tspan></text>
<path d="m 59.04,73.44 414.72,0 0,370.77 -414.72,0 0,-370.77" id="path3040" style="fill:none;stroke:#000000;stroke-width:0.75;stroke-linecap:round;stroke-linejoin:round;stroke-miterlimit:10;stroke-opacity:1;stroke-dasharray:none"></path></g>
    </g>
    <g id="g3042">
      <g clip-path="url(#clipPath3046)" id="g3044"><text transform="matrix(1,0,0,-1,130.84,468.7)" id="text3050"><tspan x="0 9.3380003 17.122 24.906 29.568001 34.23 42.014 47.459999 56.014 59.905998 68.459999 73.122002 77.014 81.396004 89.949997 95.396004 99.288002 107.842 116.396 124.18 128.07201 131.964 136.62601 144.41 148.302 155.946 164.5 172.284 177.73 185.51401 193.298 197.96001 205.744 211.19 215.082 222.866 227.528 231.42 239.20399 243.09599 252.43401 261.772" y="0" id="tspan3052" style="font-size:14px;font-variant:normal;font-weight:bold;writing-mode:lr-tb;fill:#000000;fill-opacity:1;fill-rule:nonzero;stroke:none;font-family:Helvetica;-inkscape-font-specification:Helvetica-Bold">Scatterplot for quality characteristic XXX</tspan></text>
<text transform="matrix(1,0,0,-1,230.05,18.72)" id="text3054"><tspan x="0 8.0039997 12 18.672001 24.672001 31.344 37.344002 43.344002 46.68 49.344002 56.015999 62.688 69.360001" y="0" id="tspan3056" style="font-size:12px;font-variant:normal;font-weight:normal;writing-mode:lr-tb;fill:#000000;fill-opacity:1;fill-rule:nonzero;stroke:none;font-family:Helvetica;-inkscape-font-specification:Helvetica">Process input</tspan></text>
<text transform="matrix(0,1,1,0,12.96,189.44)" id="text3058"><tspan x="0 9.3360004 16.007999 22.68 25.344 28.007999 31.344 37.344002 40.68 46.68 53.352001 60.023998 63.900002 70.571999 76.571999 79.907997 86.580002 90.755997 93.419998 99.419998 102.756 105.42 111.42 114.756 122.76 130.76401" y="0" id="tspan3060" style="font-size:12px;font-variant:normal;font-weight:normal;writing-mode:lr-tb;fill:#000000;fill-opacity:1;fill-rule:nonzero;stroke:none;font-family:Helvetica;-inkscape-font-specification:Helvetica">Quality characteristic XXX</tspan></text>
</g>
    </g>
  </g>
</svg>
