<!-- Created with Inkscape (http://www.inkscape.org/) -->
<svg xmlns:dc="http://purl.org/dc/elements/1.1/" xmlns:cc="http://creativecommons.org/ns#" xmlns:rdf="http://www.w3.org/1999/02/22-rdf-syntax-ns#" xmlns:svg="http://www.w3.org/2000/svg" xmlns="http://www.w3.org/2000/svg" xmlns:inkscape="http://www.inkscape.org/namespaces/inkscape" version="1.1" width="1000" height="400" viewBox="0 0 1000 400" id="svg2">
  <desc id="desc4">Produced by GNUPLOT 4.2 patchlevel 2  </desc>
  <metadata id="metadata380"></metadata>
  <defs id="defs6"></defs>
  <g id="g22" style="color:#ffffff;fill:none;stroke:currentColor;stroke-width:1;stroke-linecap:butt;stroke-linejoin:miter"></g>
  <g id="g24" style="color:#000000;fill:none;stroke:currentColor;stroke-width:1;stroke-linecap:butt;stroke-linejoin:miter"></g>
  <g id="g26" style="color:#808080;fill:none;stroke:currentColor;stroke-width:1;stroke-linecap:butt;stroke-linejoin:miter">
    <path d="m 156.6,346 801.9,0" id="path28"></path>
  </g>
  <g id="g30" style="color:#000000;fill:none;stroke:currentColor;stroke-width:1;stroke-linecap:butt;stroke-linejoin:miter">
    <path d="m 156.6,346 13.5,0" id="path32"></path>
    <g transform="translate(144,352.7)" id="g34" style="font-size:22.5px;text-anchor:end;fill:#000000;stroke:none;font-family:Arial">
      <text id="text36">
        <tspan id="tspan38">0</tspan>
      </text>
    </g>
  </g>
  <g id="g40" style="color:#808080;fill:none;stroke:currentColor;stroke-width:1;stroke-linecap:butt;stroke-linejoin:miter">
    <path d="m 156.6,313.9 801.9,0" id="path42"></path>
  </g>
  <g id="g44" style="color:#000000;fill:none;stroke:currentColor;stroke-width:1;stroke-linecap:butt;stroke-linejoin:miter">
    <path d="m 156.6,313.9 13.5,0" id="path46"></path>
    <g transform="translate(144,320.6)" id="g48" style="font-size:22.5px;text-anchor:end;fill:#000000;stroke:none;font-family:Arial">
      <text id="text50">
        <tspan id="tspan52">20000</tspan>
      </text>
    </g>
  </g>
  <g id="g54" style="color:#808080;fill:none;stroke:currentColor;stroke-width:1;stroke-linecap:butt;stroke-linejoin:miter">
    <path d="m 156.6,281.8 801.9,0" id="path56"></path>
  </g>
  <g id="g58" style="color:#000000;fill:none;stroke:currentColor;stroke-width:1;stroke-linecap:butt;stroke-linejoin:miter">
    <path d="m 156.6,281.8 13.5,0" id="path60"></path>
    <g transform="translate(144,288.5)" id="g62" style="font-size:22.5px;text-anchor:end;fill:#000000;stroke:none;font-family:Arial">
      <text id="text64">
        <tspan id="tspan66">40000</tspan>
      </text>
    </g>
  </g>
  <g id="g68" style="color:#808080;fill:none;stroke:currentColor;stroke-width:1;stroke-linecap:butt;stroke-linejoin:miter">
    <path d="m 156.6,249.8 801.9,0" id="path70"></path>
  </g>
  <g id="g72" style="color:#000000;fill:none;stroke:currentColor;stroke-width:1;stroke-linecap:butt;stroke-linejoin:miter">
    <path d="m 156.6,249.8 13.5,0" id="path74"></path>
    <g transform="translate(144,256.5)" id="g76" style="font-size:22.5px;text-anchor:end;fill:#000000;stroke:none;font-family:Arial">
      <text id="text78">
        <tspan id="tspan80">60000</tspan>
      </text>
    </g>
  </g>
  <g id="g82" style="color:#808080;fill:none;stroke:currentColor;stroke-width:1;stroke-linecap:butt;stroke-linejoin:miter">
    <path d="m 156.6,217.7 801.9,0" id="path84"></path>
  </g>
  <g id="g86" style="color:#000000;fill:none;stroke:currentColor;stroke-width:1;stroke-linecap:butt;stroke-linejoin:miter">
    <path d="m 156.6,217.7 13.5,0" id="path88"></path>
    <g transform="translate(144,224.4)" id="g90" style="font-size:22.5px;text-anchor:end;fill:#000000;stroke:none;font-family:Arial">
      <text id="text92">
        <tspan id="tspan94">80000</tspan>
      </text>
    </g>
  </g>
  <g id="g96" style="color:#808080;fill:none;stroke:currentColor;stroke-width:1;stroke-linecap:butt;stroke-linejoin:miter">
    <path d="m 156.6,185.6 801.9,0" id="path98"></path>
  </g>
  <g id="g100" style="color:#000000;fill:none;stroke:currentColor;stroke-width:1;stroke-linecap:butt;stroke-linejoin:miter">
    <path d="m 156.6,185.6 13.5,0" id="path102"></path>
    <g transform="translate(144,192.3)" id="g104" style="font-size:22.5px;text-anchor:end;fill:#000000;stroke:none;font-family:Arial">
      <text id="text106">
        <tspan id="tspan108">100000</tspan>
      </text>
    </g>
  </g>
  <g id="g110" style="color:#808080;fill:none;stroke:currentColor;stroke-width:1;stroke-linecap:butt;stroke-linejoin:miter">
    <path d="m 156.6,153.5 801.9,0" id="path112"></path>
  </g>
  <g id="g114" style="color:#000000;fill:none;stroke:currentColor;stroke-width:1;stroke-linecap:butt;stroke-linejoin:miter">
    <path d="m 156.6,153.5 13.5,0" id="path116"></path>
    <g transform="translate(144,160.2)" id="g118" style="font-size:22.5px;text-anchor:end;fill:#000000;stroke:none;font-family:Arial">
      <text id="text120">
        <tspan id="tspan122">120000</tspan>
      </text>
    </g>
  </g>
  <g id="g124" style="color:#808080;fill:none;stroke:currentColor;stroke-width:1;stroke-linecap:butt;stroke-linejoin:miter">
    <path d="m 156.6,121.4 12.6,0 m 139.5,0 649.8,0" id="path126"></path>
  </g>
  <g id="g128" style="color:#000000;fill:none;stroke:currentColor;stroke-width:1;stroke-linecap:butt;stroke-linejoin:miter">
    <path d="m 156.6,121.4 13.5,0" id="path130"></path>
    <g transform="translate(144,128.1)" id="g132" style="font-size:22.5px;text-anchor:end;fill:#000000;stroke:none;font-family:Arial">
      <text id="text134">
        <tspan id="tspan136">140000</tspan>
      </text>
    </g>
  </g>
  <g id="g138" style="color:#808080;fill:none;stroke:currentColor;stroke-width:1;stroke-linecap:butt;stroke-linejoin:miter">
    <path d="m 156.6,89.4 12.6,0 m 139.5,0 649.8,0" id="path140"></path>
  </g>
  <g id="g142" style="color:#000000;fill:none;stroke:currentColor;stroke-width:1;stroke-linecap:butt;stroke-linejoin:miter">
    <path d="m 156.6,89.4 13.5,0" id="path144"></path>
    <g transform="translate(144,96.1)" id="g146" style="font-size:22.5px;text-anchor:end;fill:#000000;stroke:none;font-family:Arial">
      <text id="text148">
        <tspan id="tspan150">160000</tspan>
      </text>
    </g>
  </g>
  <g id="g152" style="color:#808080;fill:none;stroke:currentColor;stroke-width:1;stroke-linecap:butt;stroke-linejoin:miter">
    <path d="m 156.6,57.3 12.6,0 m 139.5,0 649.8,0" id="path154"></path>
  </g>
  <g id="g156" style="color:#000000;fill:none;stroke:currentColor;stroke-width:1;stroke-linecap:butt;stroke-linejoin:miter">
    <path d="m 156.6,57.3 13.5,0" id="path158"></path>
    <g transform="translate(144,64)" id="g160" style="font-size:22.5px;text-anchor:end;fill:#000000;stroke:none;font-family:Arial">
      <text id="text162">
        <tspan id="tspan164">180000</tspan>
      </text>
    </g>
  </g>
  <g id="g166" style="color:#808080;fill:none;stroke:currentColor;stroke-width:1;stroke-linecap:butt;stroke-linejoin:miter">
    <path d="m 156.6,25.2 801.9,0" id="path168"></path>
  </g>
  <g id="g170" style="color:#000000;fill:none;stroke:currentColor;stroke-width:1;stroke-linecap:butt;stroke-linejoin:miter">
    <path d="m 156.6,25.2 13.5,0" id="path172"></path>
    <g transform="translate(144,31.9)" id="g174" style="font-size:22.5px;text-anchor:end;fill:#000000;stroke:none;font-family:Arial">
      <text id="text176">
        <tspan id="tspan178">200000</tspan>
      </text>
    </g>
  </g>
  <g id="g180" style="color:#808080;fill:none;stroke:currentColor;stroke-width:1;stroke-linecap:butt;stroke-linejoin:miter">
    <path d="m 156.6,346 0,-320.8" id="path182"></path>
  </g>
  <g id="g184" style="color:#000000;fill:none;stroke:currentColor;stroke-width:1;stroke-linecap:butt;stroke-linejoin:miter">
    <path d="m 156.6,346 0,-13.5" id="path186"></path>
    <g transform="translate(156.6,379.7)" id="g188" style="font-size:22.5px;text-anchor:middle;fill:#000000;stroke:none;font-family:Arial">
      <text id="text190">
        <tspan id="tspan192">1940</tspan>
      </text>
    </g>
  </g>
  <g id="g194" style="color:#808080;fill:none;stroke:currentColor;stroke-width:1;stroke-linecap:butt;stroke-linejoin:miter">
    <path d="m 271.2,346 0,-199.3 m 0,-108 0,-13.5" id="path196"></path>
  </g>
  <g id="g198" style="color:#000000;fill:none;stroke:currentColor;stroke-width:1;stroke-linecap:butt;stroke-linejoin:miter">
    <path d="m 271.2,346 0,-13.5" id="path200"></path>
    <g transform="translate(271.2,379.7)" id="g202" style="font-size:22.5px;text-anchor:middle;fill:#000000;stroke:none;font-family:Arial">
      <text id="text204">
        <tspan id="tspan206">1950</tspan>
      </text>
    </g>
  </g>
  <g id="g208" style="color:#808080;fill:none;stroke:currentColor;stroke-width:1;stroke-linecap:butt;stroke-linejoin:miter">
    <path d="m 385.7,346 0,-320.8" id="path210"></path>
  </g>
  <g id="g212" style="color:#000000;fill:none;stroke:currentColor;stroke-width:1;stroke-linecap:butt;stroke-linejoin:miter">
    <path d="m 385.7,346 0,-13.5" id="path214"></path>
    <g transform="translate(385.7,379.7)" id="g216" style="font-size:22.5px;text-anchor:middle;fill:#000000;stroke:none;font-family:Arial">
      <text id="text218">
        <tspan id="tspan220">1960</tspan>
      </text>
    </g>
  </g>
  <g id="g222" style="color:#808080;fill:none;stroke:currentColor;stroke-width:1;stroke-linecap:butt;stroke-linejoin:miter">
    <path d="m 500.3,346 0,-320.8" id="path224"></path>
  </g>
  <g id="g226" style="color:#000000;fill:none;stroke:currentColor;stroke-width:1;stroke-linecap:butt;stroke-linejoin:miter">
    <path d="m 500.3,346 0,-13.5" id="path228"></path>
    <g transform="translate(500.3,379.7)" id="g230" style="font-size:22.5px;text-anchor:middle;fill:#000000;stroke:none;font-family:Arial">
      <text id="text232">
        <tspan id="tspan234">1970</tspan>
      </text>
    </g>
  </g>
  <g id="g236" style="color:#808080;fill:none;stroke:currentColor;stroke-width:1;stroke-linecap:butt;stroke-linejoin:miter">
    <path d="m 614.8,346 0,-320.8" id="path238"></path>
  </g>
  <g id="g240" style="color:#000000;fill:none;stroke:currentColor;stroke-width:1;stroke-linecap:butt;stroke-linejoin:miter">
    <path d="m 614.8,346 0,-13.5" id="path242"></path>
    <g transform="translate(614.8,379.7)" id="g244" style="font-size:22.5px;text-anchor:middle;fill:#000000;stroke:none;font-family:Arial">
      <text id="text246">
        <tspan id="tspan248">1980</tspan>
      </text>
    </g>
  </g>
  <g id="g250" style="color:#808080;fill:none;stroke:currentColor;stroke-width:1;stroke-linecap:butt;stroke-linejoin:miter">
    <path d="m 729.4,346 0,-320.8" id="path252"></path>
  </g>
  <g id="g254" style="color:#000000;fill:none;stroke:currentColor;stroke-width:1;stroke-linecap:butt;stroke-linejoin:miter">
    <path d="m 729.4,346 0,-13.5" id="path256"></path>
    <g transform="translate(729.4,379.7)" id="g258" style="font-size:22.5px;text-anchor:middle;fill:#000000;stroke:none;font-family:Arial">
      <text id="text260">
        <tspan id="tspan262">1990</tspan>
      </text>
    </g>
  </g>
  <g id="g264" style="color:#808080;fill:none;stroke:currentColor;stroke-width:1;stroke-linecap:butt;stroke-linejoin:miter">
    <path d="m 843.9,346 0,-320.8" id="path266"></path>
  </g>
  <g id="g268" style="color:#000000;fill:none;stroke:currentColor;stroke-width:1;stroke-linecap:butt;stroke-linejoin:miter">
    <path d="m 843.9,346 0,-13.5" id="path270"></path>
    <g transform="translate(843.9,379.7)" id="g272" style="font-size:22.5px;text-anchor:middle;fill:#000000;stroke:none;font-family:Arial">
      <text id="text274">
        <tspan id="tspan276">2000</tspan>
      </text>
    </g>
  </g>
  <g id="g278" style="color:#808080;fill:none;stroke:currentColor;stroke-width:1;stroke-linecap:butt;stroke-linejoin:miter">
    <path d="m 958.5,346 0,-320.8" id="path280"></path>
  </g>
  <g id="g282" style="color:#000000;fill:none;stroke:currentColor;stroke-width:1;stroke-linecap:butt;stroke-linejoin:miter">
    <path d="m 958.5,346 0,-13.5" id="path284"></path>
    <g transform="translate(958.5,379.7)" id="g286" style="font-size:22.5px;text-anchor:middle;fill:#000000;stroke:none;font-family:Arial">
      <text id="text288">
        <tspan id="tspan290">2010</tspan>
      </text>
    </g>
    <path d="m 156.6,25.2 0,320.8 801.9,0 m 0,-320.8 m -801.9,0" id="path292"></path>
    <g transform="matrix(0,-1,1,0,36.4,185.6)" id="g294" style="font-size:30px;text-anchor:middle;fill:#000000;stroke:none;font-family:Arial">
      <text id="text296">
        <tspan id="tspan298">Income in 2007 US$</tspan>
      </text>
    </g>
  </g>
  <g id="g300" style="color:#000000;fill:none;stroke:currentColor;stroke-width:2;stroke-linecap:butt;stroke-linejoin:miter"></g>
  <g id="g302" style="color:#000094;fill:none;stroke:currentColor;stroke-width:2;stroke-linecap:butt;stroke-linejoin:miter"></g>
  <g id="g304" style="color:#000000;fill:none;stroke:currentColor;stroke-width:2;stroke-linecap:butt;stroke-linejoin:miter">
    <g transform="translate(220.5,56.2)" id="g306" style="font-size:22.5px;text-anchor:start;fill:#000000;stroke:none;font-family:Arial">
      <text id="text308">
        <tspan id="tspan310" style="font-size:18.75px">95th percentile</tspan>
      </text>
    </g>
  </g>
  <g id="g312" style="color:#000094;fill:none;stroke:currentColor;stroke-width:2;stroke-linecap:butt;stroke-linejoin:miter">
    <path d="m 181.8,49.5 26.1,0 m 716.2,-19.8 -11.4,1.1 -11.5,0.9 -11.4,8.6 -11.5,-1.9 -11.4,3.8 -11.5,-4.5 -11.5,-0.9 -11.4,-0.2 -11.5,13.5 -11.4,12.7 -11.5,13 -11.4,2.3 -11.5,1.5 -11.4,9.9 -11.5,10.3 -11.5,1.3 -11.4,-7.6 -11.5,-3.8 -11.4,7.8 -11.5,5 -11.4,2 -11.5,8.7 -11.4,5.4 -11.5,7.3 -11.5,4 -11.4,5.6 -11.5,-0.9 -11.4,-5.3 -11.5,3.1 -11.4,6.9 -11.5,6.1 -11.4,5.6 -11.5,-4 -11.5,-1.8 -11.4,2.9 -11.5,12.5 -11.4,0 -11.5,3.3 -11.4,9.6 -11.5,-1 -11.5,11.9 -11.4,7.5 -11.5,6.1 -11.4,4.1 -11.5,0.4 -11.4,1.4 -11.5,9.1 -11.4,5.2 -11.5,7 -11.5,1.9 -11.4,-3.3 -11.5,7.1 -11.4,2.7 -11.5,1.2 -11.4,7.4 -11.5,3.1 -11.4,-3.2 -11.5,5.4 -11.5,-1 -11.4,-5.6" id="path314"></path>
  </g>
  <g id="g316" style="color:#157545;fill:none;stroke:currentColor;stroke-width:2;stroke-linecap:butt;stroke-linejoin:miter"></g>
  <g id="g318" style="color:#000000;fill:none;stroke:currentColor;stroke-width:2;stroke-linecap:butt;stroke-linejoin:miter">
    <g transform="translate(220.5,77.8)" id="g320" style="font-size:22.5px;text-anchor:start;fill:#000000;stroke:none;font-family:Arial">
      <text id="text322">
        <tspan id="tspan324" style="font-size:18.75px">80th percentile</tspan>
      </text>
    </g>
  </g>
  <g id="g326" style="color:#157545;fill:none;stroke:currentColor;stroke-width:2;stroke-linecap:butt;stroke-linejoin:miter">
    <path d="m 181.8,71.1 26.1,0 m 716.2,94.2 -11.4,0.7 -11.5,4.4 -11.4,-0.5 -11.5,-1.5 -11.4,3 -11.5,-2.3 -11.5,0.4 -11.4,0.8 -11.5,5.2 -11.4,5.2 -11.5,6.3 -11.4,2.4 -11.5,1.3 -11.4,3.9 -11.5,2.6 -11.5,-1.2 -11.4,-1.7 -11.5,-2.5 -11.4,3.2 -11.5,1.6 -11.4,3 -11.5,4.2 -11.4,3.3 -11.5,5.1 -11.5,1.1 -11.4,0.1 -11.5,-1.1 -11.4,-1.3 -11.5,0.3 -11.4,4.2 -11.5,2.9 -11.4,3.1 -11.5,-2.2 -11.5,-2.1 -11.4,2.5 -11.5,7.5 -11.4,0.1 -11.5,0.4 -11.4,6 -11.5,4.3 -11.5,3.5 -11.4,4.8 -11.5,4.1 -11.4,0.9 -11.5,3.2 -11.4,3.6 -11.5,1.4 -11.4,2.8 -11.5,5.2 -11.5,0.8 -11.4,-1.2 -11.5,4.2 -11.4,3.8 -11.5,-0.6 -11.4,4.8 -11.5,2.4 -11.4,0.6 -11.5,2.3 -11.5,0.3 -11.4,-3" id="path328"></path>
  </g>
  <g id="g330" style="color:#0000ff;fill:none;stroke:currentColor;stroke-width:2;stroke-linecap:butt;stroke-linejoin:miter"></g>
  <g id="g332" style="color:#000000;fill:none;stroke:currentColor;stroke-width:2;stroke-linecap:butt;stroke-linejoin:miter">
    <g transform="translate(220.5,99.4)" id="g334" style="font-size:22.5px;text-anchor:start;fill:#000000;stroke:none;font-family:Arial">
      <text id="text336">
        <tspan id="tspan338" style="font-size:18.75px">60th percentile</tspan>
      </text>
    </g>
  </g>
  <g id="g340" style="color:#0000ff;fill:none;stroke:currentColor;stroke-width:2;stroke-linecap:butt;stroke-linejoin:miter">
    <path d="m 181.8,92.7 26.1,0 m 716.2,133 -11.4,2.9 -11.5,1 -11.4,0.5 -11.5,-1.6 -11.4,1 -11.5,-0.9 -11.5,-1 -11.4,0.1 -11.5,4.2 -11.4,3.3 -11.5,3 -11.4,1.7 -11.5,1.8 -11.4,2.2 -11.5,-0.1 -11.5,-0.2 -11.4,-1.3 -11.5,-2 -11.4,1.7 -11.5,0.9 -11.4,1.4 -11.5,4 -11.4,1.1 -11.5,3.1 -11.5,1 -11.4,-1.4 -11.5,-1.4 -11.4,-2.8 -11.5,1.2 -11.4,2.2 -11.5,2.3 -11.4,2.5 -11.5,-1.8 -11.5,-2 -11.4,2.3 -11.5,4.8 -11.4,0.2 -11.5,-0.2 -11.4,3.2 -11.5,4.7 -11.5,1.8 -11.4,3.9 -11.5,2.7 -11.4,2.5 -11.5,2.3 -11.4,1.7 -11.5,1.3 -11.4,1.8 -11.5,3.1 -11.5,-0.3 -11.4,-0.3 -11.5,3 -11.4,3.4 -11.5,-1.3 -11.4,3.8 -11.5,2.2 -11.4,1.3 -11.5,2.4 -11.5,-0.4 -11.4,-1.3" id="path342"></path>
  </g>
  <g id="g344" style="color:#008000;fill:none;stroke:currentColor;stroke-width:2;stroke-linecap:butt;stroke-linejoin:miter"></g>
  <g id="g346" style="color:#000000;fill:none;stroke:currentColor;stroke-width:2;stroke-linecap:butt;stroke-linejoin:miter">
    <g transform="translate(220.5,121)" id="g348" style="font-size:22.5px;text-anchor:start;fill:#000000;stroke:none;font-family:Arial">
      <text id="text350">
        <tspan id="tspan352" style="font-size:18.75px">40th percentile</tspan>
      </text>
    </g>
  </g>
  <g id="g354" style="color:#008000;fill:none;stroke:currentColor;stroke-width:2;stroke-linecap:butt;stroke-linejoin:miter">
    <path d="m 181.8,114.3 26.1,0 m 716.2,152.3 -11.4,1.9 -11.5,0.8 -11.4,0.3 -11.5,0.3 -11.4,-0.5 -11.5,-0.7 -11.5,-1.6 -11.4,0.1 -11.5,2 -11.4,2.4 -11.5,2 -11.4,0.9 -11.5,2 -11.4,1.5 -11.5,-0.9 -11.5,-0.4 -11.4,-2.3 -11.5,-0.9 -11.4,1.8 -11.5,0.2 -11.4,0.7 -11.5,2.3 -11.4,0.8 -11.5,2.4 -11.5,-0.3 -11.4,-1.2 -11.5,-1.5 -11.4,-1.9 -11.5,0 -11.4,2.2 -11.5,0.6 -11.4,1.7 -11.5,-2 -11.5,-0.4 -11.4,1 -11.5,2.9 -11.4,-0.4 -11.5,-0.6 -11.4,3 -11.5,2.5 -11.5,1.3 -11.4,3.3 -11.5,2.5 -11.4,2.2 -11.5,1.2 -11.4,1.3 -11.5,-0.3 -11.4,1.6 -11.5,2.4 -11.5,-0.6 -11.4,-0.1 -11.5,2.9 -11.4,2.8 -11.5,-1.4 -11.4,3.1 -11.5,0.9 -11.4,1.2 -11.5,2.2 -11.5,-0.6 -11.4,-0.5" id="path356"></path>
  </g>
  <g id="g358" style="color:#ff0000;fill:none;stroke:currentColor;stroke-width:2;stroke-linecap:butt;stroke-linejoin:miter"></g>
  <g id="g360" style="color:#000000;fill:none;stroke:currentColor;stroke-width:2;stroke-linecap:butt;stroke-linejoin:miter">
    <g transform="translate(220.5,142.6)" id="g362" style="font-size:22.5px;text-anchor:start;fill:#000000;stroke:none;font-family:Arial">
      <text id="text364">
        <tspan id="tspan366" style="font-size:18.75px">20th percentile</tspan>
      </text>
    </g>
  </g>
  <g id="g368" style="color:#ff0000;fill:none;stroke:currentColor;stroke-width:2;stroke-linecap:butt;stroke-linejoin:miter">
    <path d="m 181.8,135.9 26.1,0 m 716.2,165.4 -11.4,0.2 -11.5,0.9 -11.4,0 -11.5,0 -11.4,-0.8 -11.5,-0.7 -11.5,-1.3 -11.4,0.9 -11.5,1.5 -11.4,1.5 -11.5,1 -11.4,0.2 -11.5,1.5 -11.4,1.3 -11.5,-0.3 -11.5,-1.7 -11.4,-1.1 -11.5,0.2 -11.4,0.6 -11.5,-0.1 -11.4,0.4 -11.5,1.3 -11.4,0.9 -11.5,0.7 -11.5,-0.1 -11.4,-0.9 -11.5,-1.4 -11.4,-2.1 -11.5,0.9 -11.4,1.2 -11.5,0.1 -11.4,0.6 -11.5,-1.5 -11.5,0.1 -11.4,0.8 -11.5,1.7 -11.4,-0.8 -11.5,-1.1 -11.4,2 -11.5,2.3 -11.5,0.5 -11.4,3 -11.5,1.8 -11.4,1.1 -11.5,0.5 -11.4,1.7 -11.5,-0.2 -11.4,0.7 -11.5,1.2 -11.5,-0.2 -11.4,-0.4 -11.5,2 -11.4,2.4 -11.5,-1.6 -11.4,0.8 -11.5,0.7 -11.4,1.8 -11.5,1.2 -11.5,-1.2 -11.4,-0.6" id="path370"></path>
  </g>
  <g id="g372" style="color:#ff0000;fill:none;stroke:currentColor;stroke-width:1;stroke-linecap:butt;stroke-linejoin:miter"></g>
  <g id="g374" style="color:#000000;fill:none;stroke:currentColor;stroke-width:1;stroke-linecap:butt;stroke-linejoin:miter">
    <path d="m 156.6,25.2 0,320.8 801.9,0 m 0,-320.8 m -801.9,0" id="path376"></path>
  </g>
</svg>
