<!-- Created with Inkscape (http://www.inkscape.org/) -->
<svg xmlns:dc="http://purl.org/dc/elements/1.1/" xmlns:cc="http://creativecommons.org/ns#" xmlns:rdf="http://www.w3.org/1999/02/22-rdf-syntax-ns#" xmlns:svg="http://www.w3.org/2000/svg" xmlns="http://www.w3.org/2000/svg" xmlns:xlink="http://www.w3.org/1999/xlink" xmlns:inkscape="http://www.inkscape.org/namespaces/inkscape" version="1.1" width="576pt" height="432pt" viewBox="0 0 576 432" id="svg1">
  <metadata id="metadata346"></metadata>
  <defs id="defs344"></defs>
  <g id="figure1">
    <path d="M 0,432 576,432 576,0 0,0 0,432" id="path4" style="fill:#ffffff;stroke:#ffffff;stroke-width:1;stroke-linecap:square;stroke-linejoin:miter"></path>
    <g id="axes1">
      <path d="m 72,388.8 446.4,0 0,-345.6 -446.4,0 0,345.6" id="path7" style="fill:#ffffff;stroke:#000000;stroke-width:1;stroke-linecap:square;stroke-linejoin:miter"></path>
      <g id="line2d1">
        <defs id="defs10">
          <clipPath id="pdfe8138a4e5f5c14e3df41988c01b1aa">
            <rect width="446.39999" height="345.60001" x="72" y="43.200001" id="rect13"></rect>
          </clipPath>
        </defs>
        <path d="m 72,216 4.464,8.64 4.464,-8.64 4.464,-8.64 4.464,8.64 4.464,8.64 4.464,8.64 4.464,8.64 4.464,-8.64 4.464,-8.64 4.464,-8.64 4.464,-8.64 4.464,-8.64 4.464,8.64 4.464,8.64 4.464,-8.64 4.464,8.64 4.464,-8.64 4.464,-8.64 4.464,-8.64 4.464,-8.64 4.464,-8.64 4.464,-8.64 4.464,8.64 4.464,-8.64 4.464,8.64 4.464,-8.64 4.464,8.64 4.464,-8.64 4.464,8.64 4.464,-8.64 4.464,-8.64 4.464,-8.64 4.464,8.64 4.464,-8.64 4.464,-8.64 4.464,-8.64 4.464,8.64 4.464,8.64 4.464,8.64 4.464,-8.64 4.464,-8.64 4.464,8.64 4.464,8.64 4.464,-8.64 4.464,-8.64 4.464,8.64 4.464,8.64 4.464,-8.64 4.464,8.64 4.464,8.64 4.464,8.64 4.464,-8.64 4.464,-8.64 4.464,-8.64 4.464,8.64 4.464,8.64 4.464,-8.64 4.464,8.64 4.464,8.64 4.464,8.64 4.464,-8.64 4.464,8.64 4.464,8.64 4.464,8.64 4.464,-8.64 4.464,8.64 4.464,8.64 4.464,-8.64 4.464,-8.64 4.464,-8.64 4.464,-8.64 4.464,8.64 4.464,-8.64 4.464,-8.64 4.464,-8.64 4.464,-8.64 4.464,-8.64 4.464,-8.64 4.464,8.64 4.464,8.64 4.464,-8.64 4.464,8.64 4.464,-8.64 4.464,8.64 4.464,8.64 4.464,-8.64 4.464,-8.64 4.464,-8.64 4.464,-8.64 4.464,8.64 4.464,-8.64 4.464,-8.64 4.464,-8.64 4.464,8.64 4.464,-8.64 4.464,8.64 4.464,8.64 4.464,8.64 4.464,8.64" clip-path="url(#pdfe8138a4e5f5c14e3df41988c01b1aa)" id="path15" style="fill:none;stroke:#0000ff;stroke-width:1;stroke-linecap:square;stroke-linejoin:miter"></path>
      </g>
      <g id="line2d2">
        <path d="m 72,216 4.464,8.64 4.464,-8.64 4.464,8.64 4.464,8.64 4.464,-8.64 4.464,8.64 4.464,-8.64 4.464,8.64 4.464,-8.64 4.464,8.64 4.464,8.64 4.464,8.64 4.464,-8.64 4.464,8.64 4.464,-8.64 4.464,8.64 4.464,8.64 4.464,8.64 4.464,8.64 4.464,8.64 4.464,8.64 4.464,8.64 4.464,8.64 4.464,-8.64 4.464,-8.64 4.464,-8.64 4.464,8.64 4.464,-8.64 4.464,8.64 4.464,8.64 4.464,8.64 4.464,-8.64 4.464,8.64 4.464,8.64 4.464,-8.64 4.464,-8.64 4.464,-8.64 4.464,8.64 4.464,-8.64 4.464,-8.64 4.464,-8.64 4.464,-8.64 4.464,-8.64 4.464,-8.64 4.464,-8.64 4.464,8.64 4.464,-8.64 4.464,-8.64 4.464,-8.64 4.464,8.64 4.464,-8.64 4.464,-8.64 4.464,-8.64 4.464,8.64 4.464,8.64 4.464,8.64 4.464,8.64 4.464,8.64 4.464,-8.64 4.464,-8.64 4.464,8.64 4.464,8.64 4.464,8.64 4.464,8.64 4.464,8.64 4.464,8.64 4.464,8.64 4.464,8.64 4.464,-8.64 4.464,8.64 4.464,8.64 4.464,8.64 4.464,8.64 4.464,-8.64 4.464,8.64 4.464,-8.64 4.464,8.64 4.464,8.64 4.464,8.64 4.464,8.64 4.464,-8.64 4.464,-8.64 4.464,-8.64 4.464,-8.64 4.464,8.64 4.464,-8.64 4.464,8.64 4.464,-8.64 4.464,-8.64 4.464,-8.64 4.464,8.64 4.464,8.64 4.464,8.64 4.464,-8.64 4.464,-8.64 4.464,8.64 4.464,-8.64 4.464,-8.64 4.464,-8.64" clip-path="url(#pdfe8138a4e5f5c14e3df41988c01b1aa)" id="path18" style="fill:none;stroke:#008000;stroke-width:1;stroke-linecap:square;stroke-linejoin:miter"></path>
      </g>
      <g id="line2d3">
        <path d="m 72,216 4.464,-8.64 4.464,8.64 4.464,8.64 4.464,-8.64 4.464,8.64 4.464,-8.64 4.464,-8.64 4.464,-8.64 4.464,8.64 4.464,8.64 4.464,-8.64 4.464,8.64 4.464,-8.64 4.464,8.64 4.464,8.64 4.464,-8.64 4.464,8.64 4.464,8.64 4.464,8.64 4.464,8.64 4.464,8.64 4.464,-8.64 4.464,-8.64 4.464,-8.64 4.464,-8.64 4.464,-8.64 4.464,-8.64 4.464,-8.64 4.464,8.64 4.464,-8.64 4.464,8.64 4.464,-8.64 4.464,-8.64 4.464,-8.64 4.464,8.64 4.464,-8.64 4.464,8.64 4.464,-8.64 4.464,8.64 4.464,8.64 4.464,8.64 4.464,-8.64 4.464,-8.64 4.464,-8.64 4.464,8.64 4.464,8.64 4.464,-8.64 4.464,-8.64 4.464,8.64 4.464,-8.64 4.464,-8.64 4.464,-8.64 4.464,-8.64 4.464,-8.64 4.464,-8.64 4.464,-8.64 4.464,-8.64 4.464,-8.64 4.464,-8.64 4.464,8.64 4.464,-8.64 4.464,8.64 4.464,-8.64 4.464,8.64 4.464,-8.64 4.464,8.64 4.464,-8.64 4.464,8.64 4.464,8.64 4.464,-8.64 4.464,8.64 4.464,8.64 4.464,-8.64 4.464,8.64 4.464,8.64 4.464,8.64 4.464,8.64 4.464,-8.64 4.464,-8.64 4.464,-8.64 4.464,-8.64 4.464,8.64 4.464,8.64 4.464,-8.64 4.464,8.64 4.464,8.64 4.464,8.64 4.464,8.64 4.464,8.64 4.464,-8.64 4.464,-8.64 4.464,8.64 4.464,-8.64 4.464,-8.64 4.464,8.64 4.464,8.64 4.464,8.64 4.464,8.64 4.464,-8.64" clip-path="url(#pdfe8138a4e5f5c14e3df41988c01b1aa)" id="path21" style="fill:none;stroke:#ff0000;stroke-width:1;stroke-linecap:square;stroke-linejoin:miter"></path>
      </g>
      <g id="line2d4">
        <path d="m 72,216 4.464,8.64 4.464,-8.64 4.464,-8.64 4.464,8.64 4.464,8.64 4.464,-8.64 4.464,8.64 4.464,8.64 4.464,-8.64 4.464,8.64 4.464,8.64 4.464,8.64 4.464,-8.64 4.464,-8.64 4.464,-8.64 4.464,8.64 4.464,-8.64 4.464,-8.64 4.464,8.64 4.464,-8.64 4.464,-8.64 4.464,8.64 4.464,-8.64 4.464,8.64 4.464,8.64 4.464,-8.64 4.464,-8.64 4.464,-8.64 4.464,8.64 4.464,8.64 4.464,8.64 4.464,-8.64 4.464,-8.64 4.464,-8.64 4.464,-8.64 4.464,-8.64 4.464,-8.64 4.464,8.64 4.464,8.64 4.464,-8.64 4.464,-8.64 4.464,8.64 4.464,-8.64 4.464,-8.64 4.464,8.64 4.464,-8.64 4.464,-8.64 4.464,8.64 4.464,8.64 4.464,8.64 4.464,-8.64 4.464,8.64 4.464,-8.64 4.464,-8.64 4.464,8.64 4.464,-8.64 4.464,-8.64 4.464,-8.64 4.464,8.64 4.464,8.64 4.464,8.64 4.464,-8.64 4.464,8.64 4.464,-8.64 4.464,-8.64 4.464,8.64 4.464,8.64 4.464,-8.64 4.464,8.64 4.464,8.64 4.464,8.64 4.464,-8.64 4.464,-8.64 4.464,-8.64 4.464,8.64 4.464,-8.64 4.464,8.64 4.464,-8.64 4.464,8.64 4.464,-8.64 4.464,8.64 4.464,8.64 4.464,-8.64 4.464,8.64 4.464,-8.64 4.464,-8.64 4.464,-8.64 4.464,8.64 4.464,8.64 4.464,-8.64 4.464,-8.64 4.464,-8.64 4.464,8.64 4.464,8.64 4.464,8.64 4.464,8.64 4.464,-8.64 4.464,-8.64 4.464,-8.64" clip-path="url(#pdfe8138a4e5f5c14e3df41988c01b1aa)" id="path24" style="fill:none;stroke:#00bfbf;stroke-width:1;stroke-linecap:square;stroke-linejoin:miter"></path>
      </g>
      <g id="line2d5">
        <path d="m 72,216 4.464,-8.64 4.464,8.64 4.464,8.64 4.464,-8.64 4.464,-8.64 4.464,-8.64 4.464,8.64 4.464,8.64 4.464,-8.64 4.464,-8.64 4.464,-8.64 4.464,-8.64 4.464,8.64 4.464,8.64 4.464,-8.64 4.464,8.64 4.464,8.64 4.464,-8.64 4.464,8.64 4.464,8.64 4.464,-8.64 4.464,-8.64 4.464,-8.64 4.464,8.64 4.464,-8.64 4.464,8.64 4.464,8.64 4.464,8.64 4.464,8.64 4.464,8.64 4.464,-8.64 4.464,-8.64 4.464,-8.64 4.464,-8.64 4.464,8.64 4.464,8.64 4.464,8.64 4.464,-8.64 4.464,8.64 4.464,8.64 4.464,8.64 4.464,-8.64 4.464,-8.64 4.464,8.64 4.464,-8.64 4.464,8.64 4.464,8.64 4.464,-8.64 4.464,8.64 4.464,-8.64 4.464,8.64 4.464,8.64 4.464,8.64 4.464,8.64 4.464,8.64 4.464,-8.64 4.464,-8.64 4.464,-8.64 4.464,8.64 4.464,8.64 4.464,-8.64 4.464,8.64 4.464,8.64 4.464,8.64 4.464,8.64 4.464,-8.64 4.464,-8.64 4.464,8.64 4.464,8.64 4.464,-8.64 4.464,8.64 4.464,8.64 4.464,-8.64 4.464,-8.64 4.464,-8.64 4.464,-8.64 4.464,-8.64 4.464,-8.64 4.464,-8.64 4.464,8.64 4.464,8.64 4.464,8.64 4.464,-8.64 4.464,-8.64 4.464,-8.64 4.464,-8.64 4.464,8.64 4.464,-8.64 4.464,8.64 4.464,-8.64 4.464,-8.64 4.464,-8.64 4.464,8.64 4.464,-8.64 4.464,8.64 4.464,-8.64 4.464,-8.64 4.464,8.64 4.464,8.64" clip-path="url(#pdfe8138a4e5f5c14e3df41988c01b1aa)" id="path27" style="fill:none;stroke:#bf00bf;stroke-width:1;stroke-linecap:square;stroke-linejoin:miter"></path>
      </g>
      <g id="line2d6">
        <path d="m 72,216 4.464,8.64 4.464,-8.64 4.464,8.64 4.464,-8.64 4.464,-8.64 4.464,-8.64 4.464,-8.64 4.464,-8.64 4.464,8.64 4.464,-8.64 4.464,-8.64 4.464,-8.64 4.464,8.64 4.464,-8.64 4.464,-8.64 4.464,8.64 4.464,-8.64 4.464,8.64 4.464,8.64 4.464,8.64 4.464,8.64 4.464,8.64 4.464,8.64 4.464,8.64 4.464,-8.64 4.464,8.64 4.464,-8.64 4.464,8.64 4.464,-8.64 4.464,8.64 4.464,-8.64 4.464,-8.64 4.464,-8.64 4.464,-8.64 4.464,-8.64 4.464,8.64 4.464,8.64 4.464,8.64 4.464,-8.64 4.464,-8.64 4.464,-8.64 4.464,-8.64 4.464,-8.64 4.464,-8.64 4.464,-8.64 4.464,-8.64 4.464,-8.64 4.464,-8.64 4.464,-8.64 4.464,8.64 4.464,-8.64 4.464,8.64 4.464,8.64 4.464,-8.64 4.464,-8.64 4.464,8.64 4.464,8.64 4.464,8.64 4.464,8.64 4.464,8.64 4.464,-8.64 4.464,-8.64 4.464,-8.64 4.464,-8.64 4.464,-8.64 4.464,8.64 4.464,8.64 4.464,-8.64 4.464,8.64 4.464,-8.64 4.464,8.64 4.464,-8.64 4.464,8.64 4.464,-8.64 4.464,-8.64 4.464,8.64 4.464,-8.64 4.464,8.64 4.464,-8.64 4.464,-8.64 4.464,-8.64 4.464,-8.64 4.464,-8.64 4.464,8.64 4.464,8.64 4.464,8.64 4.464,-8.64 4.464,-8.64 4.464,-8.64 4.464,-8.64 4.464,8.64 4.464,-8.64 4.464,-8.64 4.464,8.64 4.464,8.64 4.464,-8.64 4.464,8.64 4.464,8.64 4.464,-8.64" clip-path="url(#pdfe8138a4e5f5c14e3df41988c01b1aa)" id="path30" style="fill:none;stroke:#bfbf00;stroke-width:1;stroke-linecap:square;stroke-linejoin:miter"></path>
      </g>
      <g id="line2d7">
        <path d="m 72,216 4.464,8.64 4.464,8.64 4.464,-8.64 4.464,8.64 4.464,8.64 4.464,8.64 4.464,-8.64 4.464,8.64 4.464,-8.64 4.464,8.64 4.464,8.64 4.464,8.64 4.464,8.64 4.464,8.64 4.464,-8.64 4.464,8.64 4.464,-8.64 4.464,8.64 4.464,8.64 4.464,-8.64 4.464,8.64 4.464,8.64 4.464,-8.64 4.464,-8.64 4.464,8.64 4.464,8.64 4.464,-8.64 4.464,8.64 4.464,-8.64 4.464,8.64 4.464,8.64 4.464,8.64 4.464,-8.64 4.464,8.64 4.464,-8.64 4.464,8.64 4.464,-8.64 4.464,-8.64 4.464,-8.64 4.464,8.64 4.464,-8.64 4.464,8.64 4.464,-8.64 4.464,-8.64 4.464,-8.64 4.464,8.64 4.464,8.64 4.464,8.64 4.464,8.64 4.464,-8.64 4.464,8.64 4.464,-8.64 4.464,-8.64 4.464,8.64 4.464,8.64 4.464,8.64 4.464,-8.64 4.464,-8.64 4.464,8.64 4.464,8.64 4.464,8.64 4.464,8.64 4.464,-8.64 4.464,8.64 4.464,-8.64 4.464,8.64 4.464,-8.64 4.464,-8.64 4.464,8.64 4.464,-8.64 4.464,8.64 4.464,-8.64 4.464,8.64 4.464,8.64 4.464,8.64 4.464,-8.64 4.464,-8.64 4.464,-8.64 4.464,-8.64 4.464,-8.64 4.464,8.64 4.464,8.64 4.464,8.64 4.464,8.64 4.464,8.64 4.464,8.64 4.464,8.64 4.464,-8.64 4.464,8.64 4.464,8.64 4.464,8.64 4.464,-8.64 4.464,-8.64 4.464,8.64 4.464,8.64 4.464,-8.64 4.464,8.64 4.464,-8.64 4.464,8.64" clip-path="url(#pdfe8138a4e5f5c14e3df41988c01b1aa)" id="path33" style="fill:none;stroke:#000000;stroke-width:1;stroke-linecap:square;stroke-linejoin:miter"></path>
      </g>
      <g id="line2d8">
        <path d="m 72,216 4.464,-8.64 4.464,8.64 4.464,8.64 4.464,8.64 4.464,-8.64 4.464,8.64 4.464,8.64 4.464,-8.64 4.464,-8.64 4.464,-8.64 4.464,8.64 4.464,-8.64 4.464,8.64 4.464,8.64 4.464,8.64 4.464,-8.64 4.464,8.64 4.464,-8.64 4.464,8.64 4.464,-8.64 4.464,-8.64 4.464,8.64 4.464,8.64 4.464,8.64 4.464,8.64 4.464,-8.64 4.464,8.64 4.464,-8.64 4.464,8.64 4.464,8.64 4.464,-8.64 4.464,8.64 4.464,8.64 4.464,-8.64 4.464,-8.64 4.464,8.64 4.464,8.64 4.464,-8.64 4.464,-8.64 4.464,-8.64 4.464,-8.64 4.464,-8.64 4.464,8.64 4.464,-8.64 4.464,8.64 4.464,-8.64 4.464,8.64 4.464,-8.64 4.464,8.64 4.464,8.64 4.464,-8.64 4.464,8.64 4.464,-8.64 4.464,-8.64 4.464,-8.64 4.464,8.64 4.464,8.64 4.464,8.64 4.464,8.64 4.464,8.64 4.464,8.64 4.464,8.64 4.464,8.64 4.464,8.64 4.464,8.64 4.464,-8.64 4.464,-8.64 4.464,8.64 4.464,8.64 4.464,8.64 4.464,8.64 4.464,-8.64 4.464,8.64 4.464,8.64 4.464,-8.64 4.464,-8.64 4.464,-8.64 4.464,8.64 4.464,-8.64 4.464,8.64 4.464,8.64 4.464,8.64 4.464,-8.64 4.464,-8.64 4.464,-8.64 4.464,-8.64 4.464,8.64 4.464,8.64 4.464,-8.64 4.464,-8.64 4.464,-8.64 4.464,8.64 4.464,8.64 4.464,-8.64 4.464,-8.64 4.464,8.64 4.464,-8.64 4.464,-8.64 4.464,-8.64" clip-path="url(#pdfe8138a4e5f5c14e3df41988c01b1aa)" id="path36" style="fill:none;stroke:#0000ff;stroke-width:1;stroke-linecap:square;stroke-linejoin:miter"></path>
      </g>
      <g id="matplotlib.axis1">
        <g id="xtick1">
          <g id="line2d9">
            <defs id="defs41">
              <path d="M 0,0 0,-4" id="mffffbd93ab9c4a8848ec339ada90541e"></path>
            </defs>
            <g id="g44">
              <use id="use46" style="fill:none;stroke:#000000;stroke-width:0.5;stroke-linecap:butt;stroke-linejoin:miter" x="72" y="388.79999" width="1" height="1" xlink:href="#mffffbd93ab9c4a8848ec339ada90541e"></use>
            </g>
          </g>
          <g id="line2d10">
            <defs id="defs49">
              <path d="M 0,0 0,4" id="m55446021c8a568fc6cf5567925c8a1ef"></path>
            </defs>
            <g id="g52">
              <use id="use54" style="fill:none;stroke:#000000;stroke-width:0.5;stroke-linecap:butt;stroke-linejoin:miter" x="72" y="43.200001" width="1" height="1" xlink:href="#m55446021c8a568fc6cf5567925c8a1ef"></use>
            </g>
          </g>
          <defs id="defs56">
            <path d="m 31.78125,-66.40625 q -7.609375,0 -11.453125,7.5 Q 16.5,-51.421875 16.5,-36.375 q 0,14.984375 3.828125,22.484375 3.84375,7.5 11.453125,7.5 7.671875,0 11.5,-7.5 3.84375,-7.5 3.84375,-22.484375 0,-15.046875 -3.84375,-22.53125 -3.828125,-7.5 -11.5,-7.5 m 0,-7.8125 q 12.265625,0 18.734375,9.703125 6.46875,9.6875 6.46875,28.140625 0,18.40625 -6.46875,28.109375 -6.46875,9.6875 -18.734375,9.6875 -12.25,0 -18.71875,-9.6875 Q 6.59375,-17.96875 6.59375,-36.375 q 0,-18.453125 6.46875,-28.140625 6.46875,-9.703125 18.71875,-9.703125" id="c_95f14088edd5858aea2c3b4aa58e4de2"></path>
          </defs>
          <g transform="matrix(0.12,0,0,0.12,68.976562,401.70625)" id="g59" style="fill:#000000">
            <use id="use61" x="0" y="0" width="1" height="1" xlink:href="#c_95f14088edd5858aea2c3b4aa58e4de2"></use>
          </g>
        </g>
        <g id="xtick2">
          <g id="line2d11">
            <g id="g65">
              <use id="use67" style="fill:none;stroke:#000000;stroke-width:0.5;stroke-linecap:butt;stroke-linejoin:miter" x="161.28" y="388.79999" width="1" height="1" xlink:href="#mffffbd93ab9c4a8848ec339ada90541e"></use>
            </g>
          </g>
          <g id="line2d12">
            <g id="g70">
              <use id="use72" style="fill:none;stroke:#000000;stroke-width:0.5;stroke-linecap:butt;stroke-linejoin:miter" x="161.28" y="43.200001" width="1" height="1" xlink:href="#m55446021c8a568fc6cf5567925c8a1ef"></use>
            </g>
          </g>
          <defs id="defs74">
            <path d="m 19.1875,-8.296875 34.421875,0 0,8.296875 -46.28125,0 0,-8.296875 q 5.609375,-5.8125 15.296875,-15.59375 9.703125,-9.796875 12.1875,-12.640625 4.734375,-5.3125 6.609375,-9 1.890625,-3.6875 1.890625,-7.25 0,-5.8125 -4.078125,-9.46875 -4.078125,-3.671875 -10.625,-3.671875 -4.640625,0 -9.796875,1.609375 -5.140625,1.609375 -11,4.890625 l 0,-9.96875 Q 13.765625,-71.78125 18.9375,-73 q 5.1875,-1.21875 9.484375,-1.21875 11.328125,0 18.0625,5.671875 6.734375,5.65625 6.734375,15.125 0,4.5 -1.6875,8.53125 -1.671875,4.015625 -6.125,9.484375 -1.21875,1.421875 -7.765625,8.1875 -6.53125,6.765625 -18.453125,18.921875" id="c_eaed548a39c8bfc1ad9c7a767102867e"></path>
          </defs>
          <g transform="matrix(0.12,0,0,0.12,154.47531,401.70625)" id="g77" style="fill:#000000">
            <use id="use79" x="0" y="0" width="1" height="1" xlink:href="#c_eaed548a39c8bfc1ad9c7a767102867e"></use>
            <use id="use81" x="63.623047" y="0" width="1" height="1" xlink:href="#c_95f14088edd5858aea2c3b4aa58e4de2"></use>
          </g>
        </g>
        <g id="xtick3">
          <g id="line2d13">
            <g id="g85">
              <use id="use87" style="fill:none;stroke:#000000;stroke-width:0.5;stroke-linecap:butt;stroke-linejoin:miter" x="250.56" y="388.79999" width="1" height="1" xlink:href="#mffffbd93ab9c4a8848ec339ada90541e"></use>
            </g>
          </g>
          <g id="line2d14">
            <g id="g90">
              <use id="use92" style="fill:none;stroke:#000000;stroke-width:0.5;stroke-linecap:butt;stroke-linejoin:miter" x="250.56" y="43.200001" width="1" height="1" xlink:href="#m55446021c8a568fc6cf5567925c8a1ef"></use>
            </g>
          </g>
          <defs id="defs94">
            <path d="m 37.796875,-64.3125 -24.90625,38.921875 24.90625,0 z m -2.59375,-8.59375 12.40625,0 0,47.515625 10.40625,0 0,8.203125 -10.40625,0 0,17.1875 -9.8125,0 0,-17.1875 -32.90625,0 0,-9.515625 z" id="c_47a349c5fab6f63bcee0b405ba445c6f"></path>
          </defs>
          <g transform="matrix(0.12,0,0,0.12,243.61469,401.70625)" id="g97" style="fill:#000000">
            <use id="use99" x="0" y="0" width="1" height="1" xlink:href="#c_47a349c5fab6f63bcee0b405ba445c6f"></use>
            <use id="use101" x="63.623047" y="0" width="1" height="1" xlink:href="#c_95f14088edd5858aea2c3b4aa58e4de2"></use>
          </g>
        </g>
        <g id="xtick4">
          <g id="line2d15">
            <g id="g105">
              <use id="use107" style="fill:none;stroke:#000000;stroke-width:0.5;stroke-linecap:butt;stroke-linejoin:miter" x="339.84" y="388.79999" width="1" height="1" xlink:href="#mffffbd93ab9c4a8848ec339ada90541e"></use>
            </g>
          </g>
          <g id="line2d16">
            <g id="g110">
              <use id="use112" style="fill:none;stroke:#000000;stroke-width:0.5;stroke-linecap:butt;stroke-linejoin:miter" x="339.84" y="43.200001" width="1" height="1" xlink:href="#m55446021c8a568fc6cf5567925c8a1ef"></use>
            </g>
          </g>
          <defs id="defs114">
            <path d="m 33.015625,-40.375 q -6.640625,0 -10.53125,4.546875 -3.875,4.53125 -3.875,12.4375 0,7.859375 3.875,12.4375 3.890625,4.5625 10.53125,4.5625 6.640625,0 10.515625,-4.5625 3.875,-4.578125 3.875,-12.4375 0,-7.90625 -3.875,-12.4375 Q 39.65625,-40.375 33.015625,-40.375 m 19.578125,-30.921875 0,8.984375 q -3.71875,-1.75 -7.5,-2.671875 -3.78125,-0.9375 -7.5,-0.9375 -9.765625,0 -14.921875,6.59375 -5.140625,6.59375 -5.875,19.921875 2.875,-4.25 7.21875,-6.515625 4.359375,-2.265625 9.578125,-2.265625 10.984375,0 17.359375,6.671875 6.375,6.65625 6.375,18.125 0,11.234375 -6.640625,18.03125 -6.640625,6.78125 -17.671875,6.78125 -12.65625,0 -19.34375,-9.6875 -6.6875,-9.703125 -6.6875,-28.109375 0,-17.28125 8.203125,-27.5625 8.203125,-10.28125 22.015625,-10.28125 3.71875,0 7.5,0.734375 3.78125,0.734375 7.890625,2.1875" id="c_b3a8b59ce25d33f84315ee39f6514694"></path>
          </defs>
          <g transform="matrix(0.12,0,0,0.12,333.01969,401.70625)" id="g117" style="fill:#000000">
            <use id="use119" x="0" y="0" width="1" height="1" xlink:href="#c_b3a8b59ce25d33f84315ee39f6514694"></use>
            <use id="use121" x="63.623047" y="0" width="1" height="1" xlink:href="#c_95f14088edd5858aea2c3b4aa58e4de2"></use>
          </g>
        </g>
        <g id="xtick5">
          <g id="line2d17">
            <g id="g125">
              <use id="use127" style="fill:none;stroke:#000000;stroke-width:0.5;stroke-linecap:butt;stroke-linejoin:miter" x="429.12" y="388.79999" width="1" height="1" xlink:href="#mffffbd93ab9c4a8848ec339ada90541e"></use>
            </g>
          </g>
          <g id="line2d18">
            <g id="g130">
              <use id="use132" style="fill:none;stroke:#000000;stroke-width:0.5;stroke-linecap:butt;stroke-linejoin:miter" x="429.12" y="43.200001" width="1" height="1" xlink:href="#m55446021c8a568fc6cf5567925c8a1ef"></use>
            </g>
          </g>
          <defs id="defs134">
            <path d="m 31.78125,-34.625 q -7.03125,0 -11.0625,3.765625 -4.015625,3.765625 -4.015625,10.34375 0,6.59375 4.015625,10.359375 4.03125,3.765625 11.0625,3.765625 7.03125,0 11.078125,-3.78125 4.0625,-3.796875 4.0625,-10.34375 0,-6.578125 -4.03125,-10.34375 Q 38.875,-34.625 31.78125,-34.625 m -9.859375,-4.1875 Q 15.578125,-40.375 12.03125,-44.71875 8.5,-49.078125 8.5,-55.328125 q 0,-8.734375 6.21875,-13.8125 6.234375,-5.078125 17.0625,-5.078125 10.890625,0 17.09375,5.078125 6.203125,5.078125 6.203125,13.8125 0,6.25 -3.546875,10.609375 Q 48,-40.375 41.703125,-38.8125 q 7.125,1.65625 11.09375,6.5 3.984375,4.828125 3.984375,11.796875 0,10.609375 -6.46875,16.28125 -6.46875,5.65625 -18.53125,5.65625 -12.046875,0 -18.53125,-5.65625 -6.46875,-5.671875 -6.46875,-16.28125 0,-6.96875 4,-11.796875 4.015625,-4.84375 11.140625,-6.5 M 18.3125,-54.390625 q 0,5.65625 3.53125,8.828125 3.546875,3.171875 9.9375,3.171875 6.359375,0 9.9375,-3.171875 3.59375,-3.171875 3.59375,-8.828125 0,-5.671875 -3.59375,-8.84375 -3.578125,-3.171875 -9.9375,-3.171875 -6.390625,0 -9.9375,3.171875 -3.53125,3.171875 -3.53125,8.84375" id="c_0f8aa7a3642d7cc7afc284b770f4c32d"></path>
          </defs>
          <g transform="matrix(0.12,0,0,0.12,422.28406,401.70625)" id="g137" style="fill:#000000">
            <use id="use139" x="0" y="0" width="1" height="1" xlink:href="#c_0f8aa7a3642d7cc7afc284b770f4c32d"></use>
            <use id="use141" x="63.623047" y="0" width="1" height="1" xlink:href="#c_95f14088edd5858aea2c3b4aa58e4de2"></use>
          </g>
        </g>
        <g id="xtick6">
          <g id="line2d19">
            <g id="g145">
              <use id="use147" style="fill:none;stroke:#000000;stroke-width:0.5;stroke-linecap:butt;stroke-linejoin:miter" x="518.40002" y="388.79999" width="1" height="1" xlink:href="#mffffbd93ab9c4a8848ec339ada90541e"></use>
            </g>
          </g>
          <g id="line2d20">
            <g id="g150">
              <use id="use152" style="fill:none;stroke:#000000;stroke-width:0.5;stroke-linecap:butt;stroke-linejoin:miter" x="518.40002" y="43.200001" width="1" height="1" xlink:href="#m55446021c8a568fc6cf5567925c8a1ef"></use>
            </g>
          </g>
          <defs id="defs154">
            <path d="m 12.40625,-8.296875 16.109375,0 0,-55.625 -17.53125,3.515625 0,-8.984375 17.4375,-3.515625 9.859375,0 0,64.609375 16.109375,0 0,8.296875 -41.984375,0 z" id="c_2322e4f977aa11305e2465866d88750f"></path>
          </defs>
          <g transform="matrix(0.12,0,0,0.12,507.99375,401.70625)" id="g157" style="fill:#000000">
            <use id="use159" x="0" y="0" width="1" height="1" xlink:href="#c_2322e4f977aa11305e2465866d88750f"></use>
            <use id="use161" x="63.623047" y="0" width="1" height="1" xlink:href="#c_95f14088edd5858aea2c3b4aa58e4de2"></use>
            <use id="use163" x="127.24609" y="0" width="1" height="1" xlink:href="#c_95f14088edd5858aea2c3b4aa58e4de2"></use>
          </g>
        </g>
        <defs id="defs165">
          <path d="m 18.3125,-70.21875 0,15.53125 18.5,0 0,6.984375 -18.5,0 0,29.6875 q 0,6.6875 1.828125,8.59375 1.828125,1.90625 7.453125,1.90625 l 9.21875,0 0,7.515625 -9.21875,0 Q 17.1875,0 13.234375,-3.875 9.28125,-7.765625 9.28125,-18.015625 l 0,-29.6875 -6.59375,0 0,-6.984375 6.59375,0 0,-15.53125 z" id="c_7719cac8f98cf2bca3e99fb2bb21e785"></path>
        </defs>
        <g transform="matrix(0.12,0,0,0.12,293.15312,415.3)" id="g168" style="fill:#000000">
          <use id="use170" x="0" y="0" width="1" height="1" xlink:href="#c_7719cac8f98cf2bca3e99fb2bb21e785"></use>
        </g>
      </g>
      <g id="matplotlib.axis2">
        <g id="ytick1">
          <g id="line2d21">
            <defs id="defs175">
              <path d="M 0,0 4,0" id="m2d700b5b5d738bf2751cd81726959973"></path>
            </defs>
            <g id="g178">
              <use id="use180" style="fill:none;stroke:#000000;stroke-width:0.5;stroke-linecap:butt;stroke-linejoin:miter" x="72" y="388.79999" width="1" height="1" xlink:href="#m2d700b5b5d738bf2751cd81726959973"></use>
            </g>
          </g>
          <g id="line2d22">
            <defs id="defs183">
              <path d="M 0,0 -4,0" id="mb380ebd9df8a07a3be12f7447ef9bdd8"></path>
            </defs>
            <g id="g186">
              <use id="use188" style="fill:none;stroke:#000000;stroke-width:0.5;stroke-linecap:butt;stroke-linejoin:miter" x="518.40002" y="388.79999" width="1" height="1" xlink:href="#mb380ebd9df8a07a3be12f7447ef9bdd8"></use>
            </g>
          </g>
          <defs id="defs190">
            <path d="m 10.59375,-35.5 62.59375,0 0,8.296875 -62.59375,0 z" id="c_139293c3576e2a5eaff9a02b9ab719e6"></path>
          </defs>
          <g transform="matrix(0.12,0,0,0.12,44.71875,393.16719)" id="g193" style="fill:#000000">
            <use id="use195" x="0" y="0" width="1" height="1" xlink:href="#c_139293c3576e2a5eaff9a02b9ab719e6"></use>
            <use id="use197" x="83.789062" y="0" width="1" height="1" xlink:href="#c_eaed548a39c8bfc1ad9c7a767102867e"></use>
            <use id="use199" x="147.41211" y="0" width="1" height="1" xlink:href="#c_95f14088edd5858aea2c3b4aa58e4de2"></use>
          </g>
        </g>
        <g id="ytick2">
          <g id="line2d23">
            <g id="g203">
              <use id="use205" style="fill:none;stroke:#000000;stroke-width:0.5;stroke-linecap:butt;stroke-linejoin:miter" x="72" y="345.60001" width="1" height="1" xlink:href="#m2d700b5b5d738bf2751cd81726959973"></use>
            </g>
          </g>
          <g id="line2d24">
            <g id="g208">
              <use id="use210" style="fill:none;stroke:#000000;stroke-width:0.5;stroke-linecap:butt;stroke-linejoin:miter" x="518.40002" y="345.60001" width="1" height="1" xlink:href="#mb380ebd9df8a07a3be12f7447ef9bdd8"></use>
            </g>
          </g>
          <defs id="defs212">
            <path d="m 10.796875,-72.90625 38.71875,0 0,8.3125 -29.6875,0 0,17.859375 q 2.140625,-0.734375 4.28125,-1.09375 2.15625,-0.359375 4.3125,-0.359375 12.203125,0 19.328125,6.6875 7.140625,6.6875 7.140625,18.109375 0,11.765625 -7.328125,18.296875 -7.328125,6.515625 -20.65625,6.515625 -4.59375,0 -9.359375,-0.78125 -4.75,-0.78125 -9.828125,-2.34375 l 0,-9.921875 q 4.390625,2.390625 9.078125,3.5625 4.6875,1.171875 9.90625,1.171875 8.453125,0 13.375,-4.4375 4.9375,-4.4375 4.9375,-12.0625 0,-7.609375 -4.9375,-12.046875 -4.921875,-4.453125 -13.375,-4.453125 -3.953125,0 -7.890625,0.875 -3.921875,0.875 -8.015625,2.734375 z" id="c_2f869442ca5f4cfa589132f61f547ba5"></path>
          </defs>
          <g transform="matrix(0.12,0,0,0.12,44.96875,349.88906)" id="g215" style="fill:#000000">
            <use id="use217" x="0" y="0" width="1" height="1" xlink:href="#c_139293c3576e2a5eaff9a02b9ab719e6"></use>
            <use id="use219" x="83.789062" y="0" width="1" height="1" xlink:href="#c_2322e4f977aa11305e2465866d88750f"></use>
            <use id="use221" x="147.41211" y="0" width="1" height="1" xlink:href="#c_2f869442ca5f4cfa589132f61f547ba5"></use>
          </g>
        </g>
        <g id="ytick3">
          <g id="line2d25">
            <g id="g225">
              <use id="use227" style="fill:none;stroke:#000000;stroke-width:0.5;stroke-linecap:butt;stroke-linejoin:miter" x="72" y="302.39999" width="1" height="1" xlink:href="#m2d700b5b5d738bf2751cd81726959973"></use>
            </g>
          </g>
          <g id="line2d26">
            <g id="g230">
              <use id="use232" style="fill:none;stroke:#000000;stroke-width:0.5;stroke-linecap:butt;stroke-linejoin:miter" x="518.40002" y="302.39999" width="1" height="1" xlink:href="#mb380ebd9df8a07a3be12f7447ef9bdd8"></use>
            </g>
          </g>
          <g transform="matrix(0.12,0,0,0.12,44.71875,306.76719)" id="g234" style="fill:#000000">
            <use id="use236" x="0" y="0" width="1" height="1" xlink:href="#c_139293c3576e2a5eaff9a02b9ab719e6"></use>
            <use id="use238" x="83.789062" y="0" width="1" height="1" xlink:href="#c_2322e4f977aa11305e2465866d88750f"></use>
            <use id="use240" x="147.41211" y="0" width="1" height="1" xlink:href="#c_95f14088edd5858aea2c3b4aa58e4de2"></use>
          </g>
        </g>
        <g id="ytick4">
          <g id="line2d27">
            <g id="g244">
              <use id="use246" style="fill:none;stroke:#000000;stroke-width:0.5;stroke-linecap:butt;stroke-linejoin:miter" x="72" y="259.20001" width="1" height="1" xlink:href="#m2d700b5b5d738bf2751cd81726959973"></use>
            </g>
          </g>
          <g id="line2d28">
            <g id="g249">
              <use id="use251" style="fill:none;stroke:#000000;stroke-width:0.5;stroke-linecap:butt;stroke-linejoin:miter" x="518.40002" y="259.20001" width="1" height="1" xlink:href="#mb380ebd9df8a07a3be12f7447ef9bdd8"></use>
            </g>
          </g>
          <g transform="matrix(0.12,0,0,0.12,52.609375,263.48906)" id="g253" style="fill:#000000">
            <use id="use255" x="0" y="0" width="1" height="1" xlink:href="#c_139293c3576e2a5eaff9a02b9ab719e6"></use>
            <use id="use257" x="83.789062" y="0" width="1" height="1" xlink:href="#c_2f869442ca5f4cfa589132f61f547ba5"></use>
          </g>
        </g>
        <g id="ytick5">
          <g id="line2d29">
            <g id="g261">
              <use id="use263" style="fill:none;stroke:#000000;stroke-width:0.5;stroke-linecap:butt;stroke-linejoin:miter" x="72" y="216" width="1" height="1" xlink:href="#m2d700b5b5d738bf2751cd81726959973"></use>
            </g>
          </g>
          <g id="line2d30">
            <g id="g266">
              <use id="use268" style="fill:none;stroke:#000000;stroke-width:0.5;stroke-linecap:butt;stroke-linejoin:miter" x="518.40002" y="216" width="1" height="1" xlink:href="#mb380ebd9df8a07a3be12f7447ef9bdd8"></use>
            </g>
          </g>
          <g transform="matrix(0.12,0,0,0.12,61.953125,220.36719)" id="g270" style="fill:#000000">
            <use id="use272" x="0" y="0" width="1" height="1" xlink:href="#c_95f14088edd5858aea2c3b4aa58e4de2"></use>
          </g>
        </g>
        <g id="ytick6">
          <g id="line2d31">
            <g id="g276">
              <use id="use278" style="fill:none;stroke:#000000;stroke-width:0.5;stroke-linecap:butt;stroke-linejoin:miter" x="72" y="172.8" width="1" height="1" xlink:href="#m2d700b5b5d738bf2751cd81726959973"></use>
            </g>
          </g>
          <g id="line2d32">
            <g id="g281">
              <use id="use283" style="fill:none;stroke:#000000;stroke-width:0.5;stroke-linecap:butt;stroke-linejoin:miter" x="518.40002" y="172.8" width="1" height="1" xlink:href="#mb380ebd9df8a07a3be12f7447ef9bdd8"></use>
            </g>
          </g>
          <g transform="matrix(0.12,0,0,0.12,62.328125,177.08906)" id="g285" style="fill:#000000">
            <use id="use287" x="0" y="0" width="1" height="1" xlink:href="#c_2f869442ca5f4cfa589132f61f547ba5"></use>
          </g>
        </g>
        <g id="ytick7">
          <g id="line2d33">
            <g id="g291">
              <use id="use293" style="fill:none;stroke:#000000;stroke-width:0.5;stroke-linecap:butt;stroke-linejoin:miter" x="72" y="129.60001" width="1" height="1" xlink:href="#m2d700b5b5d738bf2751cd81726959973"></use>
            </g>
          </g>
          <g id="line2d34">
            <g id="g296">
              <use id="use298" style="fill:none;stroke:#000000;stroke-width:0.5;stroke-linecap:butt;stroke-linejoin:miter" x="518.40002" y="129.60001" width="1" height="1" xlink:href="#mb380ebd9df8a07a3be12f7447ef9bdd8"></use>
            </g>
          </g>
          <g transform="matrix(0.12,0,0,0.12,54.828125,133.96719)" id="g300" style="fill:#000000">
            <use id="use302" x="0" y="0" width="1" height="1" xlink:href="#c_2322e4f977aa11305e2465866d88750f"></use>
            <use id="use304" x="63.623047" y="0" width="1" height="1" xlink:href="#c_95f14088edd5858aea2c3b4aa58e4de2"></use>
          </g>
        </g>
        <g id="ytick8">
          <g id="line2d35">
            <g id="g308">
              <use id="use310" style="fill:none;stroke:#000000;stroke-width:0.5;stroke-linecap:butt;stroke-linejoin:miter" x="72" y="86.400002" width="1" height="1" xlink:href="#m2d700b5b5d738bf2751cd81726959973"></use>
            </g>
          </g>
          <g id="line2d36">
            <g id="g313">
              <use id="use315" style="fill:none;stroke:#000000;stroke-width:0.5;stroke-linecap:butt;stroke-linejoin:miter" x="518.40002" y="86.400002" width="1" height="1" xlink:href="#mb380ebd9df8a07a3be12f7447ef9bdd8"></use>
            </g>
          </g>
          <g transform="matrix(0.12,0,0,0.12,55.078125,90.689063)" id="g317" style="fill:#000000">
            <use id="use319" x="0" y="0" width="1" height="1" xlink:href="#c_2322e4f977aa11305e2465866d88750f"></use>
            <use id="use321" x="63.623047" y="0" width="1" height="1" xlink:href="#c_2f869442ca5f4cfa589132f61f547ba5"></use>
          </g>
        </g>
        <g id="ytick9">
          <g id="line2d37">
            <g id="g325">
              <use id="use327" style="fill:none;stroke:#000000;stroke-width:0.5;stroke-linecap:butt;stroke-linejoin:miter" x="72" y="43.200001" width="1" height="1" xlink:href="#m2d700b5b5d738bf2751cd81726959973"></use>
            </g>
          </g>
          <g id="line2d38">
            <g id="g330">
              <use id="use332" style="fill:none;stroke:#000000;stroke-width:0.5;stroke-linecap:butt;stroke-linejoin:miter" x="518.40002" y="43.200001" width="1" height="1" xlink:href="#mb380ebd9df8a07a3be12f7447ef9bdd8"></use>
            </g>
          </g>
          <g transform="matrix(0.12,0,0,0.12,54.390625,47.567188)" id="g334" style="fill:#000000">
            <use id="use336" x="0" y="0" width="1" height="1" xlink:href="#c_eaed548a39c8bfc1ad9c7a767102867e"></use>
            <use id="use338" x="63.623047" y="0" width="1" height="1" xlink:href="#c_95f14088edd5858aea2c3b4aa58e4de2"></use>
          </g>
        </g>
      </g>
      <path d="m 72,388.8 446.4,0 0,-345.6 -446.4,0 0,345.6" id="path340" style="fill:none;stroke:#000000;stroke-width:1;stroke-linecap:square;stroke-linejoin:miter"></path>
    </g>
  </g>
</svg>
