<!-- Created with Inkscape (http://www.inkscape.org/) -->
<svg xmlns:dc="http://purl.org/dc/elements/1.1/" xmlns:cc="http://creativecommons.org/ns#" xmlns:rdf="http://www.w3.org/1999/02/22-rdf-syntax-ns#" xmlns:svg="http://www.w3.org/2000/svg" xmlns="http://www.w3.org/2000/svg" xmlns:xlink="http://www.w3.org/1999/xlink" xmlns:inkscape="http://www.inkscape.org/namespaces/inkscape" version="1.1" width="288pt" height="230pt" viewBox="0 0 288 230" id="svg1">
  <metadata id="metadata590"></metadata>
  <defs id="defs588"></defs>
  <g id="figure1">
    <g id="patch1">
      <path d="m 0,230.4 288,0 L 288,0 0,0 0,230.4" id="path5" style="fill:#ffffff;stroke:#ffffff;stroke-width:1;stroke-linecap:square;stroke-linejoin:round"></path>
    </g>
    <g id="axes1">
      <g id="patch2">
        <path d="m 48.96,200.448 227.52,0 0,-184.32 -227.52,0 0,184.32" id="path9" style="fill:#ffffff"></path>
      </g>
      <g id="line2d1">
        <defs id="defs12">
          <clipPath id="p7d45bcb963c11562de4cbcc4e1a60e5c">
            <rect width="227.52" height="184.32001" x="48.959999" y="16.128" id="rect15"></rect>
          </clipPath>
        </defs>
        <path d="m 59.301818,30.929154 10.341818,0 10.341819,84.759426 10.341818,56.50628 10.341817,21.18985 10.34182,5.65063 10.34182,1.17722 10.34181,0.2018 10.34182,0.0294 10.34182,0.004 10.34182,4.2e-4 10.34182,5e-5 10.34182,0 10.34181,0 10.34182,0 10.34182,0 10.34182,0 10.34182,0 10.34181,0 10.34182,0 10.34182,0" clip-path="url(#p7d45bcb963c11562de4cbcc4e1a60e5c)" id="path17" style="fill:none;stroke:#808080;stroke-width:1;stroke-linecap:square;stroke-linejoin:round"></path>
      </g>
      <g id="line2d2">
        <defs id="defs20">
          <path d="M 0,3 C 0.795609,3 1.55874,2.683901 2.12132,2.12132 2.683901,1.55874 3,0.795609 3,0 3,-0.795609 2.683901,-1.55874 2.12132,-2.12132 1.55874,-2.683901 0.795609,-3 0,-3 -0.795609,-3 -1.55874,-2.683901 -2.12132,-2.12132 -2.683901,-1.55874 -3,-0.795609 -3,0 -3,0.795609 -2.683901,1.55874 -2.12132,2.12132 -1.55874,2.683901 -0.795609,3 0,3 z" id="m87f81da4bcf58d853202912065521dc1"></path>
        </defs>
        <g clip-path="url(#p7d45bcb963c11562de4cbcc4e1a60e5c)" id="g23">
          <use id="use25" style="fill:#ffa500;stroke:#000000;stroke-width:0.5;stroke-linecap:butt;stroke-linejoin:round" x="59.301819" y="30.929153" width="1" height="1" xlink:href="#m87f81da4bcf58d853202912065521dc1"></use>
          <use id="use27" style="fill:#ffa500;stroke:#000000;stroke-width:0.5;stroke-linecap:butt;stroke-linejoin:round" x="69.643639" y="30.929153" width="1" height="1" xlink:href="#m87f81da4bcf58d853202912065521dc1"></use>
          <use id="use29" style="fill:#ffa500;stroke:#000000;stroke-width:0.5;stroke-linecap:butt;stroke-linejoin:round" x="79.985458" y="115.68858" width="1" height="1" xlink:href="#m87f81da4bcf58d853202912065521dc1"></use>
          <use id="use31" style="fill:#ffa500;stroke:#000000;stroke-width:0.5;stroke-linecap:butt;stroke-linejoin:round" x="90.327271" y="172.19485" width="1" height="1" xlink:href="#m87f81da4bcf58d853202912065521dc1"></use>
          <use id="use33" style="fill:#ffa500;stroke:#000000;stroke-width:0.5;stroke-linecap:butt;stroke-linejoin:round" x="100.66909" y="193.38472" width="1" height="1" xlink:href="#m87f81da4bcf58d853202912065521dc1"></use>
          <use id="use35" style="fill:#ffa500;stroke:#000000;stroke-width:0.5;stroke-linecap:butt;stroke-linejoin:round" x="111.01091" y="199.03534" width="1" height="1" xlink:href="#m87f81da4bcf58d853202912065521dc1"></use>
          <use id="use37" style="fill:#ffa500;stroke:#000000;stroke-width:0.5;stroke-linecap:butt;stroke-linejoin:round" x="121.35273" y="200.21255" width="1" height="1" xlink:href="#m87f81da4bcf58d853202912065521dc1"></use>
          <use id="use39" style="fill:#ffa500;stroke:#000000;stroke-width:0.5;stroke-linecap:butt;stroke-linejoin:round" x="131.69455" y="200.41437" width="1" height="1" xlink:href="#m87f81da4bcf58d853202912065521dc1"></use>
          <use id="use41" style="fill:#ffa500;stroke:#000000;stroke-width:0.5;stroke-linecap:butt;stroke-linejoin:round" x="142.03636" y="200.4438" width="1" height="1" xlink:href="#m87f81da4bcf58d853202912065521dc1"></use>
          <use id="use43" style="fill:#ffa500;stroke:#000000;stroke-width:0.5;stroke-linecap:butt;stroke-linejoin:round" x="152.37819" y="200.44754" width="1" height="1" xlink:href="#m87f81da4bcf58d853202912065521dc1"></use>
          <use id="use45" style="fill:#ffa500;stroke:#000000;stroke-width:0.5;stroke-linecap:butt;stroke-linejoin:round" x="162.72" y="200.44795" width="1" height="1" xlink:href="#m87f81da4bcf58d853202912065521dc1"></use>
          <use id="use47" style="fill:#ffa500;stroke:#000000;stroke-width:0.5;stroke-linecap:butt;stroke-linejoin:round" x="173.06181" y="200.448" width="1" height="1" xlink:href="#m87f81da4bcf58d853202912065521dc1"></use>
          <use id="use49" style="fill:#ffa500;stroke:#000000;stroke-width:0.5;stroke-linecap:butt;stroke-linejoin:round" x="183.40364" y="200.448" width="1" height="1" xlink:href="#m87f81da4bcf58d853202912065521dc1"></use>
          <use id="use51" style="fill:#ffa500;stroke:#000000;stroke-width:0.5;stroke-linecap:butt;stroke-linejoin:round" x="193.74545" y="200.448" width="1" height="1" xlink:href="#m87f81da4bcf58d853202912065521dc1"></use>
          <use id="use53" style="fill:#ffa500;stroke:#000000;stroke-width:0.5;stroke-linecap:butt;stroke-linejoin:round" x="204.08728" y="200.448" width="1" height="1" xlink:href="#m87f81da4bcf58d853202912065521dc1"></use>
          <use id="use55" style="fill:#ffa500;stroke:#000000;stroke-width:0.5;stroke-linecap:butt;stroke-linejoin:round" x="214.42909" y="200.448" width="1" height="1" xlink:href="#m87f81da4bcf58d853202912065521dc1"></use>
          <use id="use57" style="fill:#ffa500;stroke:#000000;stroke-width:0.5;stroke-linecap:butt;stroke-linejoin:round" x="224.7709" y="200.448" width="1" height="1" xlink:href="#m87f81da4bcf58d853202912065521dc1"></use>
          <use id="use59" style="fill:#ffa500;stroke:#000000;stroke-width:0.5;stroke-linecap:butt;stroke-linejoin:round" x="235.11273" y="200.448" width="1" height="1" xlink:href="#m87f81da4bcf58d853202912065521dc1"></use>
          <use id="use61" style="fill:#ffa500;stroke:#000000;stroke-width:0.5;stroke-linecap:butt;stroke-linejoin:round" x="245.45454" y="200.448" width="1" height="1" xlink:href="#m87f81da4bcf58d853202912065521dc1"></use>
          <use id="use63" style="fill:#ffa500;stroke:#000000;stroke-width:0.5;stroke-linecap:butt;stroke-linejoin:round" x="255.79637" y="200.448" width="1" height="1" xlink:href="#m87f81da4bcf58d853202912065521dc1"></use>
          <use id="use65" style="fill:#ffa500;stroke:#000000;stroke-width:0.5;stroke-linecap:butt;stroke-linejoin:round" x="266.13818" y="200.448" width="1" height="1" xlink:href="#m87f81da4bcf58d853202912065521dc1"></use>
        </g>
      </g>
      <g id="line2d3">
        <path d="m 59.301818,192.00815 10.341818,-25.31954 10.341819,-33.75938 10.341818,-22.50626 10.341817,0 10.34182,18.00501 10.34182,24.00667 10.34181,20.57715 10.34182,13.7181 10.34182,7.62117 10.34182,3.65816 10.34182,1.55194 10.34182,0.59122 10.34181,0.20465 10.34182,0.065 10.34182,0.0191 10.34182,0.005 10.34182,0.001 10.34181,3.2e-4 10.34182,7e-5 10.34182,2e-5" clip-path="url(#p7d45bcb963c11562de4cbcc4e1a60e5c)" id="path68" style="fill:none;stroke:#808080;stroke-width:1;stroke-linecap:square;stroke-linejoin:round"></path>
      </g>
      <g id="line2d4">
        <g clip-path="url(#p7d45bcb963c11562de4cbcc4e1a60e5c)" id="g71">
          <use id="use73" style="fill:#800080;stroke:#000000;stroke-width:0.5;stroke-linecap:butt;stroke-linejoin:round" x="59.301819" y="192.00815" width="1" height="1" xlink:href="#m87f81da4bcf58d853202912065521dc1"></use>
          <use id="use75" style="fill:#800080;stroke:#000000;stroke-width:0.5;stroke-linecap:butt;stroke-linejoin:round" x="69.643639" y="166.68861" width="1" height="1" xlink:href="#m87f81da4bcf58d853202912065521dc1"></use>
          <use id="use77" style="fill:#800080;stroke:#000000;stroke-width:0.5;stroke-linecap:butt;stroke-linejoin:round" x="79.985458" y="132.92923" width="1" height="1" xlink:href="#m87f81da4bcf58d853202912065521dc1"></use>
          <use id="use79" style="fill:#800080;stroke:#000000;stroke-width:0.5;stroke-linecap:butt;stroke-linejoin:round" x="90.327271" y="110.42297" width="1" height="1" xlink:href="#m87f81da4bcf58d853202912065521dc1"></use>
          <use id="use81" style="fill:#800080;stroke:#000000;stroke-width:0.5;stroke-linecap:butt;stroke-linejoin:round" x="100.66909" y="110.42297" width="1" height="1" xlink:href="#m87f81da4bcf58d853202912065521dc1"></use>
          <use id="use83" style="fill:#800080;stroke:#000000;stroke-width:0.5;stroke-linecap:butt;stroke-linejoin:round" x="111.01091" y="128.42798" width="1" height="1" xlink:href="#m87f81da4bcf58d853202912065521dc1"></use>
          <use id="use85" style="fill:#800080;stroke:#000000;stroke-width:0.5;stroke-linecap:butt;stroke-linejoin:round" x="121.35273" y="152.43465" width="1" height="1" xlink:href="#m87f81da4bcf58d853202912065521dc1"></use>
          <use id="use87" style="fill:#800080;stroke:#000000;stroke-width:0.5;stroke-linecap:butt;stroke-linejoin:round" x="131.69455" y="173.0118" width="1" height="1" xlink:href="#m87f81da4bcf58d853202912065521dc1"></use>
          <use id="use89" style="fill:#800080;stroke:#000000;stroke-width:0.5;stroke-linecap:butt;stroke-linejoin:round" x="142.03636" y="186.7299" width="1" height="1" xlink:href="#m87f81da4bcf58d853202912065521dc1"></use>
          <use id="use91" style="fill:#800080;stroke:#000000;stroke-width:0.5;stroke-linecap:butt;stroke-linejoin:round" x="152.37819" y="194.35107" width="1" height="1" xlink:href="#m87f81da4bcf58d853202912065521dc1"></use>
          <use id="use93" style="fill:#800080;stroke:#000000;stroke-width:0.5;stroke-linecap:butt;stroke-linejoin:round" x="162.72" y="198.00923" width="1" height="1" xlink:href="#m87f81da4bcf58d853202912065521dc1"></use>
          <use id="use95" style="fill:#800080;stroke:#000000;stroke-width:0.5;stroke-linecap:butt;stroke-linejoin:round" x="173.06181" y="199.56117" width="1" height="1" xlink:href="#m87f81da4bcf58d853202912065521dc1"></use>
          <use id="use97" style="fill:#800080;stroke:#000000;stroke-width:0.5;stroke-linecap:butt;stroke-linejoin:round" x="183.40364" y="200.15239" width="1" height="1" xlink:href="#m87f81da4bcf58d853202912065521dc1"></use>
          <use id="use99" style="fill:#800080;stroke:#000000;stroke-width:0.5;stroke-linecap:butt;stroke-linejoin:round" x="193.74545" y="200.35704" width="1" height="1" xlink:href="#m87f81da4bcf58d853202912065521dc1"></use>
          <use id="use101" style="fill:#800080;stroke:#000000;stroke-width:0.5;stroke-linecap:butt;stroke-linejoin:round" x="204.08728" y="200.42201" width="1" height="1" xlink:href="#m87f81da4bcf58d853202912065521dc1"></use>
          <use id="use103" style="fill:#800080;stroke:#000000;stroke-width:0.5;stroke-linecap:butt;stroke-linejoin:round" x="214.42909" y="200.44107" width="1" height="1" xlink:href="#m87f81da4bcf58d853202912065521dc1"></use>
          <use id="use105" style="fill:#800080;stroke:#000000;stroke-width:0.5;stroke-linecap:butt;stroke-linejoin:round" x="224.7709" y="200.44627" width="1" height="1" xlink:href="#m87f81da4bcf58d853202912065521dc1"></use>
          <use id="use107" style="fill:#800080;stroke:#000000;stroke-width:0.5;stroke-linecap:butt;stroke-linejoin:round" x="235.11273" y="200.44759" width="1" height="1" xlink:href="#m87f81da4bcf58d853202912065521dc1"></use>
          <use id="use109" style="fill:#800080;stroke:#000000;stroke-width:0.5;stroke-linecap:butt;stroke-linejoin:round" x="245.45454" y="200.44791" width="1" height="1" xlink:href="#m87f81da4bcf58d853202912065521dc1"></use>
          <use id="use111" style="fill:#800080;stroke:#000000;stroke-width:0.5;stroke-linecap:butt;stroke-linejoin:round" x="255.79637" y="200.44798" width="1" height="1" xlink:href="#m87f81da4bcf58d853202912065521dc1"></use>
          <use id="use113" style="fill:#800080;stroke:#000000;stroke-width:0.5;stroke-linecap:butt;stroke-linejoin:round" x="266.13818" y="200.448" width="1" height="1" xlink:href="#m87f81da4bcf58d853202912065521dc1"></use>
        </g>
      </g>
      <g id="line2d5">
        <path d="m 59.301818,200.42708 10.341818,-0.18828 10.341819,-0.83681 10.341818,-2.44071 10.341817,-5.23007 10.34182,-8.71678 10.34182,-11.62239 10.34181,-12.45255 10.34182,-10.37712 10.34182,-5.76507 10.34182,0 10.34182,5.24097 10.34182,8.73495 10.34181,10.0788 10.34182,9.59885 10.34182,7.99904 10.34182,5.99929 10.34182,4.11715 10.34181,2.61407 10.34182,1.5478 10.34182,0.85989" clip-path="url(#p7d45bcb963c11562de4cbcc4e1a60e5c)" id="path116" style="fill:none;stroke:#808080;stroke-width:1;stroke-linecap:square;stroke-linejoin:round"></path>
      </g>
      <g id="line2d6">
        <g clip-path="url(#p7d45bcb963c11562de4cbcc4e1a60e5c)" id="g119">
          <use id="use121" style="fill:#add8e6;stroke:#000000;stroke-width:0.5;stroke-linecap:butt;stroke-linejoin:round" x="59.301819" y="200.42708" width="1" height="1" xlink:href="#m87f81da4bcf58d853202912065521dc1"></use>
          <use id="use123" style="fill:#add8e6;stroke:#000000;stroke-width:0.5;stroke-linecap:butt;stroke-linejoin:round" x="69.643639" y="200.2388" width="1" height="1" xlink:href="#m87f81da4bcf58d853202912065521dc1"></use>
          <use id="use125" style="fill:#add8e6;stroke:#000000;stroke-width:0.5;stroke-linecap:butt;stroke-linejoin:round" x="79.985458" y="199.40199" width="1" height="1" xlink:href="#m87f81da4bcf58d853202912065521dc1"></use>
          <use id="use127" style="fill:#add8e6;stroke:#000000;stroke-width:0.5;stroke-linecap:butt;stroke-linejoin:round" x="90.327271" y="196.96129" width="1" height="1" xlink:href="#m87f81da4bcf58d853202912065521dc1"></use>
          <use id="use129" style="fill:#add8e6;stroke:#000000;stroke-width:0.5;stroke-linecap:butt;stroke-linejoin:round" x="100.66909" y="191.73122" width="1" height="1" xlink:href="#m87f81da4bcf58d853202912065521dc1"></use>
          <use id="use131" style="fill:#add8e6;stroke:#000000;stroke-width:0.5;stroke-linecap:butt;stroke-linejoin:round" x="111.01091" y="183.01442" width="1" height="1" xlink:href="#m87f81da4bcf58d853202912065521dc1"></use>
          <use id="use133" style="fill:#add8e6;stroke:#000000;stroke-width:0.5;stroke-linecap:butt;stroke-linejoin:round" x="121.35273" y="171.39204" width="1" height="1" xlink:href="#m87f81da4bcf58d853202912065521dc1"></use>
          <use id="use135" style="fill:#add8e6;stroke:#000000;stroke-width:0.5;stroke-linecap:butt;stroke-linejoin:round" x="131.69455" y="158.9395" width="1" height="1" xlink:href="#m87f81da4bcf58d853202912065521dc1"></use>
          <use id="use137" style="fill:#add8e6;stroke:#000000;stroke-width:0.5;stroke-linecap:butt;stroke-linejoin:round" x="142.03636" y="148.56236" width="1" height="1" xlink:href="#m87f81da4bcf58d853202912065521dc1"></use>
          <use id="use139" style="fill:#add8e6;stroke:#000000;stroke-width:0.5;stroke-linecap:butt;stroke-linejoin:round" x="152.37819" y="142.7973" width="1" height="1" xlink:href="#m87f81da4bcf58d853202912065521dc1"></use>
          <use id="use141" style="fill:#add8e6;stroke:#000000;stroke-width:0.5;stroke-linecap:butt;stroke-linejoin:round" x="162.72" y="142.7973" width="1" height="1" xlink:href="#m87f81da4bcf58d853202912065521dc1"></use>
          <use id="use143" style="fill:#add8e6;stroke:#000000;stroke-width:0.5;stroke-linecap:butt;stroke-linejoin:round" x="173.06181" y="148.03827" width="1" height="1" xlink:href="#m87f81da4bcf58d853202912065521dc1"></use>
          <use id="use145" style="fill:#add8e6;stroke:#000000;stroke-width:0.5;stroke-linecap:butt;stroke-linejoin:round" x="183.40364" y="156.77322" width="1" height="1" xlink:href="#m87f81da4bcf58d853202912065521dc1"></use>
          <use id="use147" style="fill:#add8e6;stroke:#000000;stroke-width:0.5;stroke-linecap:butt;stroke-linejoin:round" x="193.74545" y="166.85202" width="1" height="1" xlink:href="#m87f81da4bcf58d853202912065521dc1"></use>
          <use id="use149" style="fill:#add8e6;stroke:#000000;stroke-width:0.5;stroke-linecap:butt;stroke-linejoin:round" x="204.08728" y="176.45087" width="1" height="1" xlink:href="#m87f81da4bcf58d853202912065521dc1"></use>
          <use id="use151" style="fill:#add8e6;stroke:#000000;stroke-width:0.5;stroke-linecap:butt;stroke-linejoin:round" x="214.42909" y="184.44992" width="1" height="1" xlink:href="#m87f81da4bcf58d853202912065521dc1"></use>
          <use id="use153" style="fill:#add8e6;stroke:#000000;stroke-width:0.5;stroke-linecap:butt;stroke-linejoin:round" x="224.7709" y="190.4492" width="1" height="1" xlink:href="#m87f81da4bcf58d853202912065521dc1"></use>
          <use id="use155" style="fill:#add8e6;stroke:#000000;stroke-width:0.5;stroke-linecap:butt;stroke-linejoin:round" x="235.11273" y="194.56635" width="1" height="1" xlink:href="#m87f81da4bcf58d853202912065521dc1"></use>
          <use id="use157" style="fill:#add8e6;stroke:#000000;stroke-width:0.5;stroke-linecap:butt;stroke-linejoin:round" x="245.45454" y="197.18042" width="1" height="1" xlink:href="#m87f81da4bcf58d853202912065521dc1"></use>
          <use id="use159" style="fill:#add8e6;stroke:#000000;stroke-width:0.5;stroke-linecap:butt;stroke-linejoin:round" x="255.79637" y="198.72823" width="1" height="1" xlink:href="#m87f81da4bcf58d853202912065521dc1"></use>
          <use id="use161" style="fill:#add8e6;stroke:#000000;stroke-width:0.5;stroke-linecap:butt;stroke-linejoin:round" x="266.13818" y="199.5881" width="1" height="1" xlink:href="#m87f81da4bcf58d853202912065521dc1"></use>
        </g>
      </g>
      <g id="matplotlib.axis1">
        <g id="xtick1">
          <g id="line2d7">
            <defs id="defs166">
              <path d="M 0,0 0,-4" id="m30e32995789d870ad79a2e54c91cf9c6"></path>
            </defs>
            <g id="g169">
              <use id="use171" style="fill:none;stroke:#000000;stroke-width:0.5;stroke-linecap:butt;stroke-linejoin:round" x="59.301819" y="200.448" width="1" height="1" xlink:href="#m30e32995789d870ad79a2e54c91cf9c6"></use>
            </g>
          </g>
          <g id="line2d8">
            <defs id="defs174">
              <path d="M 0,0 0,4" id="m9281cae24120827b11d5ea8a7ad3e96b"></path>
            </defs>
            <g id="g177">
              <use id="use179" style="fill:none;stroke:#000000;stroke-width:0.5;stroke-linecap:butt;stroke-linejoin:round" x="59.301819" y="16.128" width="1" height="1" xlink:href="#m9281cae24120827b11d5ea8a7ad3e96b"></use>
            </g>
          </g>
          <g id="text1">
            <defs id="defs182">
              <path d="m 31.78125,-66.40625 q -7.609375,0 -11.453125,7.5 Q 16.5,-51.421875 16.5,-36.375 q 0,14.984375 3.828125,22.484375 3.84375,7.5 11.453125,7.5 7.671875,0 11.5,-7.5 3.84375,-7.5 3.84375,-22.484375 0,-15.046875 -3.84375,-22.53125 -3.828125,-7.5 -11.5,-7.5 m 0,-7.8125 q 12.265625,0 18.734375,9.703125 6.46875,9.6875 6.46875,28.140625 0,18.40625 -6.46875,28.109375 -6.46875,9.6875 -18.734375,9.6875 -12.25,0 -18.71875,-9.6875 Q 6.59375,-17.96875 6.59375,-36.375 q 0,-18.453125 6.46875,-28.140625 6.46875,-9.703125 18.71875,-9.703125" id="c_7a2040fe3b94fcd41d0a72c84e93b115"></path>
            </defs>
            <g transform="matrix(0.12,0,0,0.12,56.278381,213.35425)" id="g185" style="fill:#000000">
              <use id="use187" x="0" y="0" width="1" height="1" xlink:href="#c_7a2040fe3b94fcd41d0a72c84e93b115"></use>
            </g>
          </g>
        </g>
        <g id="xtick2">
          <g id="line2d9">
            <g id="g191">
              <use id="use193" style="fill:none;stroke:#000000;stroke-width:0.5;stroke-linecap:butt;stroke-linejoin:round" x="111.01091" y="200.448" width="1" height="1" xlink:href="#m30e32995789d870ad79a2e54c91cf9c6"></use>
            </g>
          </g>
          <g id="line2d10">
            <g id="g196">
              <use id="use198" style="fill:none;stroke:#000000;stroke-width:0.5;stroke-linecap:butt;stroke-linejoin:round" x="111.01091" y="16.128" width="1" height="1" xlink:href="#m9281cae24120827b11d5ea8a7ad3e96b"></use>
            </g>
          </g>
          <g id="text2">
            <defs id="defs201">
              <path d="m 10.796875,-72.90625 38.71875,0 0,8.3125 -29.6875,0 0,17.859375 q 2.140625,-0.734375 4.28125,-1.09375 2.15625,-0.359375 4.3125,-0.359375 12.203125,0 19.328125,6.6875 7.140625,6.6875 7.140625,18.109375 0,11.765625 -7.328125,18.296875 -7.328125,6.515625 -20.65625,6.515625 -4.59375,0 -9.359375,-0.78125 -4.75,-0.78125 -9.828125,-2.34375 l 0,-9.921875 q 4.390625,2.390625 9.078125,3.5625 4.6875,1.171875 9.90625,1.171875 8.453125,0 13.375,-4.4375 4.9375,-4.4375 4.9375,-12.0625 0,-7.609375 -4.9375,-12.046875 -4.921875,-4.453125 -13.375,-4.453125 -3.953125,0 -7.890625,0.875 -3.921875,0.875 -8.015625,2.734375 z" id="c_1260a2df50f305f3db244e29828f968e"></path>
            </defs>
            <g transform="matrix(0.12,0,0,0.12,108.17497,213.198)" id="g204" style="fill:#000000">
              <use id="use206" x="0" y="0" width="1" height="1" xlink:href="#c_1260a2df50f305f3db244e29828f968e"></use>
            </g>
          </g>
        </g>
        <g id="xtick3">
          <g id="line2d11">
            <g id="g210">
              <use id="use212" style="fill:none;stroke:#000000;stroke-width:0.5;stroke-linecap:butt;stroke-linejoin:round" x="162.72" y="200.448" width="1" height="1" xlink:href="#m30e32995789d870ad79a2e54c91cf9c6"></use>
            </g>
          </g>
          <g id="line2d12">
            <g id="g215">
              <use id="use217" style="fill:none;stroke:#000000;stroke-width:0.5;stroke-linecap:butt;stroke-linejoin:round" x="162.72" y="16.128" width="1" height="1" xlink:href="#m9281cae24120827b11d5ea8a7ad3e96b"></use>
            </g>
          </g>
          <g id="text3">
            <defs id="defs220">
              <path d="m 12.40625,-8.296875 16.109375,0 0,-55.625 -17.53125,3.515625 0,-8.984375 17.4375,-3.515625 9.859375,0 0,64.609375 16.109375,0 0,8.296875 -41.984375,0 z" id="c_42baa63129a918535c52adb20d687ea7"></path>
            </defs>
            <g transform="matrix(0.12,0,0,0.12,156.13406,213.35425)" id="g223" style="fill:#000000">
              <use id="use225" x="0" y="0" width="1" height="1" xlink:href="#c_42baa63129a918535c52adb20d687ea7"></use>
              <use id="use227" x="63.623047" y="0" width="1" height="1" xlink:href="#c_7a2040fe3b94fcd41d0a72c84e93b115"></use>
            </g>
          </g>
        </g>
        <g id="xtick4">
          <g id="line2d13">
            <g id="g231">
              <use id="use233" style="fill:none;stroke:#000000;stroke-width:0.5;stroke-linecap:butt;stroke-linejoin:round" x="214.42909" y="200.448" width="1" height="1" xlink:href="#m30e32995789d870ad79a2e54c91cf9c6"></use>
            </g>
          </g>
          <g id="line2d14">
            <g id="g236">
              <use id="use238" style="fill:none;stroke:#000000;stroke-width:0.5;stroke-linecap:butt;stroke-linejoin:round" x="214.42909" y="16.128" width="1" height="1" xlink:href="#m9281cae24120827b11d5ea8a7ad3e96b"></use>
            </g>
          </g>
          <g id="text4">
            <g transform="matrix(0.12,0,0,0.12,207.96815,213.198)" id="g241" style="fill:#000000">
              <use id="use243" x="0" y="0" width="1" height="1" xlink:href="#c_42baa63129a918535c52adb20d687ea7"></use>
              <use id="use245" x="63.623047" y="0" width="1" height="1" xlink:href="#c_1260a2df50f305f3db244e29828f968e"></use>
            </g>
          </g>
        </g>
        <g id="xtick5">
          <g id="line2d15">
            <g id="g249">
              <use id="use251" style="fill:none;stroke:#000000;stroke-width:0.5;stroke-linecap:butt;stroke-linejoin:round" x="266.13818" y="200.448" width="1" height="1" xlink:href="#m30e32995789d870ad79a2e54c91cf9c6"></use>
            </g>
          </g>
          <g id="line2d16">
            <g id="g254">
              <use id="use256" style="fill:none;stroke:#000000;stroke-width:0.5;stroke-linecap:butt;stroke-linejoin:round" x="266.13818" y="16.128" width="1" height="1" xlink:href="#m9281cae24120827b11d5ea8a7ad3e96b"></use>
            </g>
          </g>
          <g id="text5">
            <defs id="defs259">
              <path d="m 19.1875,-8.296875 34.421875,0 0,8.296875 -46.28125,0 0,-8.296875 q 5.609375,-5.8125 15.296875,-15.59375 9.703125,-9.796875 12.1875,-12.640625 4.734375,-5.3125 6.609375,-9 1.890625,-3.6875 1.890625,-7.25 0,-5.8125 -4.078125,-9.46875 -4.078125,-3.671875 -10.625,-3.671875 -4.640625,0 -9.796875,1.609375 -5.140625,1.609375 -11,4.890625 l 0,-9.96875 Q 13.765625,-71.78125 18.9375,-73 q 5.1875,-1.21875 9.484375,-1.21875 11.328125,0 18.0625,5.671875 6.734375,5.65625 6.734375,15.125 0,4.5 -1.6875,8.53125 -1.671875,4.015625 -6.125,9.484375 -1.21875,1.421875 -7.765625,8.1875 -6.53125,6.765625 -18.453125,18.921875" id="c_ed3f3ed3ebfbd18bcb9c012009a68ad1"></path>
            </defs>
            <g transform="matrix(0.12,0,0,0.12,259.33349,213.35425)" id="g262" style="fill:#000000">
              <use id="use264" x="0" y="0" width="1" height="1" xlink:href="#c_ed3f3ed3ebfbd18bcb9c012009a68ad1"></use>
              <use id="use266" x="63.623047" y="0" width="1" height="1" xlink:href="#c_7a2040fe3b94fcd41d0a72c84e93b115"></use>
            </g>
          </g>
        </g>
        <g id="text6">
          <defs id="defs269">
            <path d="m 9.078125,-75.984375 9.03125,0 0,44.875 26.8125,-23.578125 11.46875,0 -29,25.578125 L 57.625,0 45.90625,0 18.109375,-26.703125 18.109375,0 9.078125,0 z" id="c_dcb78ab3124be785176d70a27dde1356"></path>
          </defs>
          <g transform="matrix(0.12,0,0,0.12,159.80594,227.65112)" id="g272" style="fill:#000000">
            <use id="use274" x="0" y="0" width="1" height="1" xlink:href="#c_dcb78ab3124be785176d70a27dde1356"></use>
          </g>
        </g>
      </g>
      <g id="matplotlib.axis2">
        <g id="ytick1">
          <g id="line2d17">
            <defs id="defs279">
              <path d="M 0,0 4,0" id="m3400efa6b1638b3fea9e19e898273957"></path>
            </defs>
            <g id="g282">
              <use id="use284" style="fill:none;stroke:#000000;stroke-width:0.5;stroke-linecap:butt;stroke-linejoin:round" x="48.959999" y="200.448" width="1" height="1" xlink:href="#m3400efa6b1638b3fea9e19e898273957"></use>
            </g>
          </g>
          <g id="line2d18">
            <defs id="defs287">
              <path d="M 0,0 -4,0" id="m20b58b2501143cb5e0a5e8f1ef6f1643"></path>
            </defs>
            <g id="g290">
              <use id="use292" style="fill:none;stroke:#000000;stroke-width:0.5;stroke-linecap:butt;stroke-linejoin:round" x="276.48001" y="200.448" width="1" height="1" xlink:href="#m20b58b2501143cb5e0a5e8f1ef6f1643"></use>
            </g>
          </g>
          <g id="text7">
            <defs id="defs295">
              <path d="m 10.6875,-12.40625 10.3125,0 L 21,0 10.6875,0 z" id="c_ed3e21196fb739f392806f09ca0594ef"></path>
            </defs>
            <g transform="matrix(0.12,0,0,0.12,19.819375,204.81519)" id="g298" style="fill:#000000">
              <use id="use300" x="0" y="0" width="1" height="1" xlink:href="#c_7a2040fe3b94fcd41d0a72c84e93b115"></use>
              <use id="use302" x="63.623047" y="0" width="1" height="1" xlink:href="#c_ed3e21196fb739f392806f09ca0594ef"></use>
              <use id="use304" x="95.410156" y="0" width="1" height="1" xlink:href="#c_7a2040fe3b94fcd41d0a72c84e93b115"></use>
              <use id="use306" x="159.0332" y="0" width="1" height="1" xlink:href="#c_7a2040fe3b94fcd41d0a72c84e93b115"></use>
            </g>
          </g>
        </g>
        <g id="ytick2">
          <g id="line2d19">
            <g id="g310">
              <use id="use312" style="fill:none;stroke:#000000;stroke-width:0.5;stroke-linecap:butt;stroke-linejoin:round" x="48.959999" y="177.408" width="1" height="1" xlink:href="#m3400efa6b1638b3fea9e19e898273957"></use>
            </g>
          </g>
          <g id="line2d20">
            <g id="g315">
              <use id="use317" style="fill:none;stroke:#000000;stroke-width:0.5;stroke-linecap:butt;stroke-linejoin:round" x="276.48001" y="177.408" width="1" height="1" xlink:href="#m20b58b2501143cb5e0a5e8f1ef6f1643"></use>
            </g>
          </g>
          <g id="text8">
            <g transform="matrix(0.12,0,0,0.12,20.069375,181.77519)" id="g320" style="fill:#000000">
              <use id="use322" x="0" y="0" width="1" height="1" xlink:href="#c_7a2040fe3b94fcd41d0a72c84e93b115"></use>
              <use id="use324" x="63.623047" y="0" width="1" height="1" xlink:href="#c_ed3e21196fb739f392806f09ca0594ef"></use>
              <use id="use326" x="95.410156" y="0" width="1" height="1" xlink:href="#c_7a2040fe3b94fcd41d0a72c84e93b115"></use>
              <use id="use328" x="159.0332" y="0" width="1" height="1" xlink:href="#c_1260a2df50f305f3db244e29828f968e"></use>
            </g>
          </g>
        </g>
        <g id="ytick3">
          <g id="line2d21">
            <g id="g332">
              <use id="use334" style="fill:none;stroke:#000000;stroke-width:0.5;stroke-linecap:butt;stroke-linejoin:round" x="48.959999" y="154.368" width="1" height="1" xlink:href="#m3400efa6b1638b3fea9e19e898273957"></use>
            </g>
          </g>
          <g id="line2d22">
            <g id="g337">
              <use id="use339" style="fill:none;stroke:#000000;stroke-width:0.5;stroke-linecap:butt;stroke-linejoin:round" x="276.48001" y="154.368" width="1" height="1" xlink:href="#m20b58b2501143cb5e0a5e8f1ef6f1643"></use>
            </g>
          </g>
          <g id="text9">
            <g transform="matrix(0.12,0,0,0.12,19.819375,158.73519)" id="g342" style="fill:#000000">
              <use id="use344" x="0" y="0" width="1" height="1" xlink:href="#c_7a2040fe3b94fcd41d0a72c84e93b115"></use>
              <use id="use346" x="63.623047" y="0" width="1" height="1" xlink:href="#c_ed3e21196fb739f392806f09ca0594ef"></use>
              <use id="use348" x="95.410156" y="0" width="1" height="1" xlink:href="#c_42baa63129a918535c52adb20d687ea7"></use>
              <use id="use350" x="159.0332" y="0" width="1" height="1" xlink:href="#c_7a2040fe3b94fcd41d0a72c84e93b115"></use>
            </g>
          </g>
        </g>
        <g id="ytick4">
          <g id="line2d23">
            <g id="g354">
              <use id="use356" style="fill:none;stroke:#000000;stroke-width:0.5;stroke-linecap:butt;stroke-linejoin:round" x="48.959999" y="131.328" width="1" height="1" xlink:href="#m3400efa6b1638b3fea9e19e898273957"></use>
            </g>
          </g>
          <g id="line2d24">
            <g id="g359">
              <use id="use361" style="fill:none;stroke:#000000;stroke-width:0.5;stroke-linecap:butt;stroke-linejoin:round" x="276.48001" y="131.328" width="1" height="1" xlink:href="#m20b58b2501143cb5e0a5e8f1ef6f1643"></use>
            </g>
          </g>
          <g id="text10">
            <g transform="matrix(0.12,0,0,0.12,20.069375,135.69519)" id="g364" style="fill:#000000">
              <use id="use366" x="0" y="0" width="1" height="1" xlink:href="#c_7a2040fe3b94fcd41d0a72c84e93b115"></use>
              <use id="use368" x="63.623047" y="0" width="1" height="1" xlink:href="#c_ed3e21196fb739f392806f09ca0594ef"></use>
              <use id="use370" x="95.410156" y="0" width="1" height="1" xlink:href="#c_42baa63129a918535c52adb20d687ea7"></use>
              <use id="use372" x="159.0332" y="0" width="1" height="1" xlink:href="#c_1260a2df50f305f3db244e29828f968e"></use>
            </g>
          </g>
        </g>
        <g id="ytick5">
          <g id="line2d25">
            <g id="g376">
              <use id="use378" style="fill:none;stroke:#000000;stroke-width:0.5;stroke-linecap:butt;stroke-linejoin:round" x="48.959999" y="108.288" width="1" height="1" xlink:href="#m3400efa6b1638b3fea9e19e898273957"></use>
            </g>
          </g>
          <g id="line2d26">
            <g id="g381">
              <use id="use383" style="fill:none;stroke:#000000;stroke-width:0.5;stroke-linecap:butt;stroke-linejoin:round" x="276.48001" y="108.288" width="1" height="1" xlink:href="#m20b58b2501143cb5e0a5e8f1ef6f1643"></use>
            </g>
          </g>
          <g id="text11">
            <g transform="matrix(0.12,0,0,0.12,19.819375,112.65519)" id="g386" style="fill:#000000">
              <use id="use388" x="0" y="0" width="1" height="1" xlink:href="#c_7a2040fe3b94fcd41d0a72c84e93b115"></use>
              <use id="use390" x="63.623047" y="0" width="1" height="1" xlink:href="#c_ed3e21196fb739f392806f09ca0594ef"></use>
              <use id="use392" x="95.410156" y="0" width="1" height="1" xlink:href="#c_ed3f3ed3ebfbd18bcb9c012009a68ad1"></use>
              <use id="use394" x="159.0332" y="0" width="1" height="1" xlink:href="#c_7a2040fe3b94fcd41d0a72c84e93b115"></use>
            </g>
          </g>
        </g>
        <g id="ytick6">
          <g id="line2d27">
            <g id="g398">
              <use id="use400" style="fill:none;stroke:#000000;stroke-width:0.5;stroke-linecap:butt;stroke-linejoin:round" x="48.959999" y="85.248001" width="1" height="1" xlink:href="#m3400efa6b1638b3fea9e19e898273957"></use>
            </g>
          </g>
          <g id="line2d28">
            <g id="g403">
              <use id="use405" style="fill:none;stroke:#000000;stroke-width:0.5;stroke-linecap:butt;stroke-linejoin:round" x="276.48001" y="85.248001" width="1" height="1" xlink:href="#m20b58b2501143cb5e0a5e8f1ef6f1643"></use>
            </g>
          </g>
          <g id="text12">
            <g transform="matrix(0.12,0,0,0.12,20.069375,89.615187)" id="g408" style="fill:#000000">
              <use id="use410" x="0" y="0" width="1" height="1" xlink:href="#c_7a2040fe3b94fcd41d0a72c84e93b115"></use>
              <use id="use412" x="63.623047" y="0" width="1" height="1" xlink:href="#c_ed3e21196fb739f392806f09ca0594ef"></use>
              <use id="use414" x="95.410156" y="0" width="1" height="1" xlink:href="#c_ed3f3ed3ebfbd18bcb9c012009a68ad1"></use>
              <use id="use416" x="159.0332" y="0" width="1" height="1" xlink:href="#c_1260a2df50f305f3db244e29828f968e"></use>
            </g>
          </g>
        </g>
        <g id="ytick7">
          <g id="line2d29">
            <g id="g420">
              <use id="use422" style="fill:none;stroke:#000000;stroke-width:0.5;stroke-linecap:butt;stroke-linejoin:round" x="48.959999" y="62.208" width="1" height="1" xlink:href="#m3400efa6b1638b3fea9e19e898273957"></use>
            </g>
          </g>
          <g id="line2d30">
            <g id="g425">
              <use id="use427" style="fill:none;stroke:#000000;stroke-width:0.5;stroke-linecap:butt;stroke-linejoin:round" x="276.48001" y="62.208" width="1" height="1" xlink:href="#m20b58b2501143cb5e0a5e8f1ef6f1643"></use>
            </g>
          </g>
          <g id="text13">
            <defs id="defs430">
              <path d="M 40.578125,-39.3125 Q 47.65625,-37.796875 51.625,-33 q 3.984375,4.78125 3.984375,11.8125 0,10.78125 -7.421875,16.703125 -7.421875,5.90625 -21.09375,5.90625 -4.578125,0 -9.4375,-0.90625 -4.859375,-0.90625 -10.03125,-2.71875 l 0,-9.515625 q 4.09375,2.390625 8.96875,3.609375 4.890625,1.21875 10.21875,1.21875 9.265625,0 14.125,-3.65625 4.859375,-3.65625 4.859375,-10.640625 0,-6.453125 -4.515625,-10.078125 -4.515625,-3.640625 -12.5625,-3.640625 l -8.5,0 0,-8.109375 8.890625,0 q 7.265625,0 11.125,-2.90625 3.859375,-2.90625 3.859375,-8.375 0,-5.609375 -3.984375,-8.609375 -3.96875,-3.015625 -11.390625,-3.015625 -4.0625,0 -8.703125,0.890625 -4.640625,0.875 -10.203125,2.71875 l 0,-8.78125 q 5.625,-1.5625 10.53125,-2.34375 4.90625,-0.78125 9.25,-0.78125 11.234375,0 17.765625,5.109375 6.546875,5.09375 6.546875,13.78125 0,6.0625 -3.46875,10.234375 -3.46875,4.171875 -9.859375,5.78125" id="c_3dcfa38a02242cb63ec6726c6e70be7a"></path>
            </defs>
            <g transform="matrix(0.12,0,0,0.12,19.819375,66.575187)" id="g433" style="fill:#000000">
              <use id="use435" x="0" y="0" width="1" height="1" xlink:href="#c_7a2040fe3b94fcd41d0a72c84e93b115"></use>
              <use id="use437" x="63.623047" y="0" width="1" height="1" xlink:href="#c_ed3e21196fb739f392806f09ca0594ef"></use>
              <use id="use439" x="95.410156" y="0" width="1" height="1" xlink:href="#c_3dcfa38a02242cb63ec6726c6e70be7a"></use>
              <use id="use441" x="159.0332" y="0" width="1" height="1" xlink:href="#c_7a2040fe3b94fcd41d0a72c84e93b115"></use>
            </g>
          </g>
        </g>
        <g id="ytick8">
          <g id="line2d31">
            <g id="g445">
              <use id="use447" style="fill:none;stroke:#000000;stroke-width:0.5;stroke-linecap:butt;stroke-linejoin:round" x="48.959999" y="39.167999" width="1" height="1" xlink:href="#m3400efa6b1638b3fea9e19e898273957"></use>
            </g>
          </g>
          <g id="line2d32">
            <g id="g450">
              <use id="use452" style="fill:none;stroke:#000000;stroke-width:0.5;stroke-linecap:butt;stroke-linejoin:round" x="276.48001" y="39.167999" width="1" height="1" xlink:href="#m20b58b2501143cb5e0a5e8f1ef6f1643"></use>
            </g>
          </g>
          <g id="text14">
            <g transform="matrix(0.12,0,0,0.12,20.069375,43.535187)" id="g455" style="fill:#000000">
              <use id="use457" x="0" y="0" width="1" height="1" xlink:href="#c_7a2040fe3b94fcd41d0a72c84e93b115"></use>
              <use id="use459" x="63.623047" y="0" width="1" height="1" xlink:href="#c_ed3e21196fb739f392806f09ca0594ef"></use>
              <use id="use461" x="95.410156" y="0" width="1" height="1" xlink:href="#c_3dcfa38a02242cb63ec6726c6e70be7a"></use>
              <use id="use463" x="159.0332" y="0" width="1" height="1" xlink:href="#c_1260a2df50f305f3db244e29828f968e"></use>
            </g>
          </g>
        </g>
        <g id="ytick9">
          <g id="line2d33">
            <g id="g467">
              <use id="use469" style="fill:none;stroke:#000000;stroke-width:0.5;stroke-linecap:butt;stroke-linejoin:round" x="48.959999" y="16.128" width="1" height="1" xlink:href="#m3400efa6b1638b3fea9e19e898273957"></use>
            </g>
          </g>
          <g id="line2d34">
            <g id="g472">
              <use id="use474" style="fill:none;stroke:#000000;stroke-width:0.5;stroke-linecap:butt;stroke-linejoin:round" x="276.48001" y="16.128" width="1" height="1" xlink:href="#m20b58b2501143cb5e0a5e8f1ef6f1643"></use>
            </g>
          </g>
          <g id="text15">
            <defs id="defs477">
              <path d="m 37.796875,-64.3125 -24.90625,38.921875 24.90625,0 z m -2.59375,-8.59375 12.40625,0 0,47.515625 10.40625,0 0,8.203125 -10.40625,0 0,17.1875 -9.8125,0 0,-17.1875 -32.90625,0 0,-9.515625 z" id="c_a0416418d96557a09b8c1332d34883ba"></path>
            </defs>
            <g transform="matrix(0.12,0,0,0.12,19.819375,20.495187)" id="g480" style="fill:#000000">
              <use id="use482" x="0" y="0" width="1" height="1" xlink:href="#c_7a2040fe3b94fcd41d0a72c84e93b115"></use>
              <use id="use484" x="63.623047" y="0" width="1" height="1" xlink:href="#c_ed3e21196fb739f392806f09ca0594ef"></use>
              <use id="use486" x="95.410156" y="0" width="1" height="1" xlink:href="#c_a0416418d96557a09b8c1332d34883ba"></use>
              <use id="use488" x="159.0332" y="0" width="1" height="1" xlink:href="#c_7a2040fe3b94fcd41d0a72c84e93b115"></use>
            </g>
          </g>
        </g>
        <g id="text16">
          <defs id="defs491">
            <path d="m 19.671875,-64.796875 0,27.390625 12.40625,0 q 6.890625,0 10.640625,-3.5625 3.765625,-3.5625 3.765625,-10.15625 0,-6.546875 -3.765625,-10.109375 -3.75,-3.5625 -10.640625,-3.5625 z M 9.8125,-72.90625 l 22.265625,0 q 12.265625,0 18.53125,5.546875 6.28125,5.546875 6.28125,16.234375 0,10.796875 -6.28125,16.3125 -6.265625,5.515625 -18.53125,5.515625 l -12.40625,0 L 19.671875,0 9.8125,0 z" id="c_518d586bee075aa0153eaebfcb5ab11f"></path>
            <path d="m 31,-75.875 q -6.53125,11.21875 -9.71875,22.21875 -3.171875,10.984375 -3.171875,22.265625 0,11.265625 3.203125,22.328125 Q 24.515625,2 31,13.1875 l -7.8125,0 Q 15.875,1.703125 12.234375,-9.375 8.59375,-20.453125 8.59375,-31.390625 q 0,-10.890625 3.609375,-21.921875 3.625,-11.046875 10.984375,-22.5625 z" id="c_7efa9804c2b4c09a4b614b91fdebee3d"></path>
            <path d="m 6.296875,-72.90625 10.59375,0 18.125,27.109375 18.203125,-27.109375 10.59375,0 L 40.375,-37.890625 65.375,0 54.78125,0 34.28125,-31 13.625,0 2.984375,0 29,-38.921875 z" id="c_1f359503f1521dfa90158578bb4360b9"></path>
            <path d="m 10.59375,-45.40625 62.59375,0 0,8.203125 -62.59375,0 z m 0,19.921875 62.59375,0 0,8.296875 -62.59375,0 z" id="c_8c0379a31aa3b07b28207e25658c6113"></path>
            <path d="m 8.015625,-75.875 7.8125,0 q 7.3125,11.515625 10.953125,22.5625 3.640625,11.03125 3.640625,21.921875 0,10.9375 -3.640625,22.015625 -3.640625,11.078125 -10.953125,22.5625 l -7.8125,0 Q 14.5,2 17.703125,-9.0625 20.90625,-20.125 20.90625,-31.390625 q 0,-11.28125 -3.203125,-22.265625 -3.203125,-11 -9.6875,-22.21875" id="c_e96974be642f6eac0427d72f9cec6c19"></path>
          </defs>
          <g transform="matrix(0,-0.12,0.12,0,14.819375,126.53019)" id="g498" style="fill:#000000">
            <use id="use500" x="0" y="0" width="1" height="1" xlink:href="#c_518d586bee075aa0153eaebfcb5ab11f"></use>
            <use id="use502" x="60.302734" y="0" width="1" height="1" xlink:href="#c_7efa9804c2b4c09a4b614b91fdebee3d"></use>
            <use id="use504" x="99.316406" y="0" width="1" height="1" xlink:href="#c_1f359503f1521dfa90158578bb4360b9"></use>
            <use id="use506" x="167.82227" y="0" width="1" height="1" xlink:href="#c_8c0379a31aa3b07b28207e25658c6113"></use>
            <use id="use508" x="251.61133" y="0" width="1" height="1" xlink:href="#c_dcb78ab3124be785176d70a27dde1356"></use>
            <use id="use510" x="309.52148" y="0" width="1" height="1" xlink:href="#c_e96974be642f6eac0427d72f9cec6c19"></use>
          </g>
        </g>
      </g>
      <g id="patch3">
        <path d="m 48.96,16.128 227.52,0" id="path513" style="fill:none;stroke:#000000;stroke-width:1;stroke-linecap:square;stroke-linejoin:round"></path>
      </g>
      <g id="patch4">
        <path d="m 276.48,200.448 0,-184.32" id="path516" style="fill:none;stroke:#000000;stroke-width:1;stroke-linecap:square;stroke-linejoin:round"></path>
      </g>
      <g id="patch5">
        <path d="m 48.96,200.448 227.52,0" id="path519" style="fill:none;stroke:#000000;stroke-width:1;stroke-linecap:square;stroke-linejoin:round"></path>
      </g>
      <g id="patch6">
        <path d="m 48.96,200.448 0,-184.32" id="path522" style="fill:none;stroke:#000000;stroke-width:1;stroke-linecap:square;stroke-linejoin:round"></path>
      </g>
      <g id="legend1">
        <g id="line2d35"></g>
        <g id="line2d36">
          <g id="g527">
            <use id="use529" style="fill:#ffa500;stroke:#000000;stroke-width:0.5;stroke-linecap:butt;stroke-linejoin:round" x="211.12" y="34.688625" width="1" height="1" xlink:href="#m87f81da4bcf58d853202912065521dc1"></use>
          </g>
        </g>
        <g id="text17">
          <defs id="defs532">
            <path d="m 5.078125,-1.703125 q 0,-1.46875 1.3125,-2.796875 l 28.125,-27.578125 -9.90625,-27.828125 q -1.171875,-3.1875 -2.46875,-5.03125 -1.296875,-1.859375 -3.734375,-1.859375 -1.125,0 -1.125,-1.3125 0.109375,-0.59375 0.5,-0.9375 0.390625,-0.34375 1.015625,-0.34375 10.5,0 12.703125,6.203125 L 51.8125,-6.5 q 1.3125,4.25 2.6875,5.71875 0.484375,0.734375 0.484375,0.984375 0,0.921875 -0.78125,0.921875 l -5.421875,0 Q 46.296875,0.390625 44.828125,-3.21875 L 35.6875,-28.8125 11.53125,-0.390625 Q 9.71875,1.3125 8.296875,1.3125 q -1.265625,0 -2.25,-0.875 -0.96875,-0.875 -0.96875,-2.140625" id="c_9f3e64f1d3df67c852bf1bb9b070bbba"></path>
            <path d="m 7.515625,-13.28125 q -0.828125,0 -1.375,-0.625 -0.53125,-0.640625 -0.53125,-1.375 0,-0.828125 0.53125,-1.40625 0.546875,-0.59375 1.375,-0.59375 l 62.796875,0 q 0.734375,0 1.265625,0.59375 0.546875,0.578125 0.546875,1.40625 0,0.734375 -0.546875,1.375 -0.53125,0.625 -1.265625,0.625 z m 0,-19.4375 q -0.828125,0 -1.375,-0.578125 -0.53125,-0.59375 -0.53125,-1.421875 0,-0.734375 0.53125,-1.359375 0.546875,-0.640625 1.375,-0.640625 l 62.796875,0 q 0.734375,0 1.265625,0.640625 0.546875,0.625 0.546875,1.359375 0,0.828125 -0.546875,1.421875 -0.53125,0.578125 -1.265625,0.578125 z" id="c_7bbc93c01755cdeb977d08bdfb9ce616"></path>
            <path d="m 9.28125,0 0,-3.515625 q 12.5,0 12.5,-3.171875 l 0,-52.5 q -5.171875,2.5 -13.09375,2.5 l 0,-3.515625 q 12.265625,0 18.515625,-6.40625 l 1.40625,0 q 0.34375,0 0.65625,0.28125 0.328125,0.265625 0.328125,0.609375 l 0,59.03125 q 0,3.171875 12.5,3.171875 l 0,3.515625 z" id="c_1a459ac34855d27ec37ccb0e66298d36"></path>
          </defs>
          <g id="mathtext1">
            <g transform="translate(225.52,40.728625)" id="g538" style="fill:#000000">
              <use transform="matrix(0.144,0,0,0.144,0,-1.015625)" id="use540" x="0" y="0" width="1" height="1" xlink:href="#c_9f3e64f1d3df67c852bf1bb9b070bbba"></use>
              <use transform="matrix(0.144,0,0,0.144,10.916638,-1.015625)" id="use542" x="0" y="0" width="1" height="1" xlink:href="#c_7bbc93c01755cdeb977d08bdfb9ce616"></use>
              <use transform="matrix(0.144,0,0,0.144,23.00593,-1.015625)" id="use544" x="0" y="0" width="1" height="1" xlink:href="#c_1a459ac34855d27ec37ccb0e66298d36"></use>
            </g>
          </g>
        </g>
        <g id="line2d37"></g>
        <g id="line2d38">
          <g id="g548">
            <use id="use550" style="fill:#800080;stroke:#000000;stroke-width:0.5;stroke-linecap:butt;stroke-linejoin:round" x="211.12" y="55.435501" width="1" height="1" xlink:href="#m87f81da4bcf58d853202912065521dc1"></use>
          </g>
        </g>
        <g id="text18">
          <defs id="defs553">
            <path d="m 2.78125,-16.5 0,-3.515625 30.90625,-46.09375 q 0.34375,-0.5 1.03125,-0.5 l 1.46875,0 q 1.125,0 1.125,1.125 l 0,45.46875 9.8125,0 0,3.515625 -9.8125,0 0,9.8125 q 0,2.046875 2.921875,2.609375 2.9375,0.5625 6.78125,0.5625 l 0,3.515625 -27.53125,0 0,-3.515625 q 3.859375,0 6.78125,-0.5625 2.9375,-0.5625 2.9375,-2.609375 l 0,-9.8125 z m 3.328125,-3.515625 23.671875,0 0,-35.40625 z" id="c_f6bfecfef5ea966626c74db776cc6a54"></path>
          </defs>
          <g id="mathtext2">
            <g transform="translate(225.52,61.4755)" id="g557" style="fill:#000000">
              <use transform="matrix(0.144,0,0,0.144,0,-1.015625)" id="use559" x="0" y="0" width="1" height="1" xlink:href="#c_9f3e64f1d3df67c852bf1bb9b070bbba"></use>
              <use transform="matrix(0.144,0,0,0.144,10.916638,-1.015625)" id="use561" x="0" y="0" width="1" height="1" xlink:href="#c_7bbc93c01755cdeb977d08bdfb9ce616"></use>
              <use transform="matrix(0.144,0,0,0.144,23.00593,-1.015625)" id="use563" x="0" y="0" width="1" height="1" xlink:href="#c_f6bfecfef5ea966626c74db776cc6a54"></use>
            </g>
          </g>
        </g>
        <g id="line2d39"></g>
        <g id="line2d40">
          <g id="g567">
            <use id="use569" style="fill:#add8e6;stroke:#000000;stroke-width:0.5;stroke-linecap:butt;stroke-linejoin:round" x="211.12" y="76.182373" width="1" height="1" xlink:href="#m87f81da4bcf58d853202912065521dc1"></use>
          </g>
        </g>
        <g id="text19">
          <defs id="defs572">
            <path d="M 25,2.203125 Q 12.75,2.203125 8.328125,-7.875 3.90625,-17.96875 3.90625,-31.890625 q 0,-8.6875 1.578125,-16.34375 Q 7.078125,-55.90625 11.78125,-61.25 16.5,-66.609375 25,-66.609375 q 6.59375,0 10.78125,3.234375 4.203125,3.21875 6.40625,8.328125 2.203125,5.09375 3,10.9375 Q 46,-38.28125 46,-31.890625 q 0,8.59375 -1.59375,16.09375 -1.578125,7.5 -6.21875,12.75 -4.640625,5.25 -13.1875,5.25 m 0,-2.59375 q 5.5625,0 8.296875,-5.703125 2.734375,-5.71875 3.375,-12.65625 0.640625,-6.9375 0.640625,-14.75 0,-7.515625 -0.640625,-13.859375 -0.640625,-6.359375 -3.359375,-11.5 -2.703125,-5.15625 -8.3125,-5.15625 -5.65625,0 -8.390625,5.1875 -2.734375,5.171875 -3.375,11.5 -0.640625,6.3125 -0.640625,13.828125 0,5.5625 0.265625,10.5 0.28125,4.9375 1.453125,10.1875 1.171875,5.25 3.78125,8.84375 2.609375,3.578125 6.90625,3.578125" id="c_f47f2818876b2f1a61c47f270461e46e"></path>
          </defs>
          <g id="mathtext3">
            <g transform="translate(225.52,82.222375)" id="g576" style="fill:#000000">
              <use transform="matrix(0.144,0,0,0.144,0,-1.015625)" id="use578" x="0" y="0" width="1" height="1" xlink:href="#c_9f3e64f1d3df67c852bf1bb9b070bbba"></use>
              <use transform="matrix(0.144,0,0,0.144,10.916638,-1.015625)" id="use580" x="0" y="0" width="1" height="1" xlink:href="#c_7bbc93c01755cdeb977d08bdfb9ce616"></use>
              <use transform="matrix(0.144,0,0,0.144,23.00593,-1.015625)" id="use582" x="0" y="0" width="1" height="1" xlink:href="#c_1a459ac34855d27ec37ccb0e66298d36"></use>
              <use transform="matrix(0.144,0,0,0.144,30.201242,-1.015625)" id="use584" x="0" y="0" width="1" height="1" xlink:href="#c_f47f2818876b2f1a61c47f270461e46e"></use>
            </g>
          </g>
        </g>
      </g>
    </g>
  </g>
</svg>
