<!-- Created with Inkscape (http://www.inkscape.org/) -->
<svg xmlns:dc="http://purl.org/dc/elements/1.1/" xmlns:cc="http://creativecommons.org/ns#" xmlns:rdf="http://www.w3.org/1999/02/22-rdf-syntax-ns#" xmlns:svg="http://www.w3.org/2000/svg" xmlns="http://www.w3.org/2000/svg" xmlns:inkscape="http://www.inkscape.org/namespaces/inkscape" version="1.1" width="300" height="300" viewBox="0 0 300 300" id="Layer_1" xml:space="preserve" style="overflow:visible">
  <metadata id="metadata35"></metadata>
  <defs id="defs33"></defs>
  <path d="M 300,150 C 300,232.8 232.8,300 150,300 67.2,300 0,232.8 0,150 0,67.2 67.2,0 150,0 232.8,0 300,67.2 300,150 z" id="path3" style="fill:#ff0000"></path>
  <g id="g5">
    <path d="M 24.8,150 C 24.8,219 81,275.2 150,275.2 219,275.2 275.2,219 275.2,150 275.2,81 219,24.8 150,24.8 81,24.8 24.8,81 24.8,150 z" id="path7" style="fill:#ff0000"></path>
    <path d="m 150,18.9 c -17.7,0 -34.9,3.5 -51,10.3 -7.8,3.3 -15.3,7.4 -22.3,12.1 -6.9,4.7 -13.5,10.1 -19.4,16 -5.9,5.9 -11.3,12.5 -16,19.4 -4.7,7 -8.8,14.5 -12.1,22.3 -6.8,16.2 -10.3,33.3 -10.3,51 0,17.7 3.5,34.9 10.3,51 3.3,7.8 7.4,15.3 12.1,22.3 4.7,6.9 10.1,13.5 16,19.4 5.9,5.9 12.5,11.3 19.4,16 7,4.7 14.5,8.8 22.3,12.1 16.2,6.8 33.3,10.3 51,10.3 17.7,0 34.9,-3.5 51,-10.3 7.8,-3.3 15.3,-7.4 22.3,-12.1 6.9,-4.7 13.5,-10.1 19.4,-16 5.9,-5.9 11.3,-12.5 16,-19.4 4.7,-7 8.8,-14.5 12.1,-22.3 6.8,-16.2 10.3,-33.3 10.3,-51 0,-17.7 -3.5,-34.9 -10.3,-51 C 267.5,91.2 263.4,83.7 258.7,76.7 254,69.8 248.6,63.2 242.7,57.3 236.8,51.4 230.2,46 223.3,41.3 216.3,36.6 208.8,32.5 201,29.2 184.9,22.4 167.7,18.9 150,18.9 l 0,0 z M 30.7,150 C 30.7,84.1 84.1,30.7 150,30.7 c 65.9,0 119.3,53.4 119.3,119.3 l 0,0 0,0 C 269.3,215.9 215.9,269.3 150,269.3 84.1,269.3 30.7,215.9 30.7,150 l 0,0 0,0 z" id="path9" style="fill:#ffffff"></path>
  </g>
  <g id="g11">
    <path d="m 55.5,150 c 0,52.1 42.4,94.5 94.5,94.5 52.1,0 94.5,-42.4 94.5,-94.5 0,-52.1 -42.4,-94.5 -94.5,-94.5 -52.1,0 -94.5,42.4 -94.5,94.5 z" id="path13" style="fill:#ff0000"></path>
    <path d="m 150,49.6 c -13.5,0 -26.7,2.7 -39.1,7.9 C 99,62.6 88.2,69.8 79,79 c -9.2,9.2 -16.5,20 -21.5,31.9 -5.2,12.4 -7.9,25.5 -7.9,39.1 0,13.5 2.7,26.7 7.9,39.1 5.1,12 12.3,22.7 21.5,31.9 9.2,9.2 20,16.5 31.9,21.5 12.4,5.2 25.5,7.9 39.1,7.9 13.5,0 26.7,-2.7 39.1,-7.9 12,-5.1 22.7,-12.3 31.9,-21.5 9.2,-9.2 16.5,-20 21.5,-31.9 5.2,-12.4 7.9,-25.5 7.9,-39.1 0,-13.5 -2.7,-26.7 -7.9,-39.1 C 237.4,99 230.2,88.2 221,79 211.8,69.8 201,62.5 189.1,57.5 176.7,52.3 163.5,49.6 150,49.6 l 0,0 z M 61.4,150 c 0,-48.9 39.7,-88.6 88.6,-88.6 48.9,0 88.6,39.7 88.6,88.6 l 0,0 0,0 c 0,48.9 -39.7,88.6 -88.6,88.6 -48.9,0 -88.6,-39.7 -88.6,-88.6 l 0,0 0,0 z" id="path15" style="fill:#ffffff"></path>
  </g>
  <g id="g17">
    <path d="m 85.8,150 c 0,17.1 6.7,33.3 18.8,45.4 12.1,12.1 28.2,18.8 45.4,18.8 17.2,0 33.3,-6.7 45.4,-18.8 12.1,-12.1 18.8,-28.2 18.8,-45.4 0,-35.4 -28.8,-64.2 -64.2,-64.2 -35.4,0 -64.2,28.8 -64.2,64.2 z" id="path19" style="fill:#ff0000"></path>
    <path d="m 150,79.9 c -9.5,0 -18.6,1.9 -27.3,5.5 -8.3,3.5 -15.8,8.6 -22.3,15 -6.4,6.4 -11.5,13.9 -15,22.3 -3.7,8.6 -5.5,17.8 -5.5,27.3 0,9.5 1.9,18.6 5.5,27.3 3.5,8.3 8.6,15.8 15,22.3 6.4,6.4 13.9,11.5 22.3,15 8.6,3.7 17.8,5.5 27.3,5.5 9.5,0 18.6,-1.9 27.3,-5.5 8.3,-3.5 15.8,-8.6 22.3,-15 6.5,-6.4 11.5,-13.9 15,-22.3 3.7,-8.6 5.5,-17.8 5.5,-27.3 0,-9.5 -1.9,-18.6 -5.5,-27.3 -3.5,-8.3 -8.6,-15.8 -15,-22.3 -6.4,-6.4 -13.9,-11.5 -22.3,-15 -8.7,-3.6 -17.8,-5.5 -27.3,-5.5 l 0,0 z M 91.7,150 c 0,-32.2 26.1,-58.3 58.3,-58.3 32.2,0 58.3,26.1 58.3,58.3 l 0,0 0,0 c 0,32.2 -26.1,58.3 -58.3,58.3 -32.2,0 -58.3,-26.1 -58.3,-58.3 l 0,0 0,0 z" id="path21" style="fill:#ffffff"></path>
  </g>
  <circle cx="136.39999" cy="101.7" r="8.3000002" id="circle23"></circle>
  <circle cx="83.900002" cy="156.8" r="8.3000002" id="circle25"></circle>
  <circle cx="118.8" cy="208.7" r="8.3000002" id="circle27"></circle>
  <circle cx="208.3" cy="149.39999" r="8.3000002" id="circle29"></circle>
</svg>
