<!-- Created with Inkscape (http://www.inkscape.org/) -->
<svg xmlns:dc="http://purl.org/dc/elements/1.1/" xmlns:cc="http://creativecommons.org/ns#" xmlns:rdf="http://www.w3.org/1999/02/22-rdf-syntax-ns#" xmlns:svg="http://www.w3.org/2000/svg" xmlns="http://www.w3.org/2000/svg" version="1.1" width="433.62" height="289.07999" viewBox="0 0 433.62 289.08" id="svg2">
  <desc id="desc4">R SVG Plot!</desc>
  <metadata id="metadata240"></metadata>
  <defs id="defs238"></defs>
  <rect width="1" height="1" x="0" y="0" id="rect6" style="fill:#ffffff"></rect>
  <circle cx="39.950001" cy="248.71001" r="1.88" id="circle8" style="fill:#ff0000;fill-opacity:1;stroke:#ff0000;stroke-width:1;stroke-opacity:1"></circle>
  <circle cx="49.290001" cy="248.71001" r="1.88" id="circle10" style="fill:#ff0000;fill-opacity:1;stroke:#ff0000;stroke-width:1;stroke-opacity:1"></circle>
  <circle cx="58.639999" cy="248.71001" r="1.88" id="circle12" style="fill:#ff0000;fill-opacity:1;stroke:#ff0000;stroke-width:1;stroke-opacity:1"></circle>
  <circle cx="67.980003" cy="248.71001" r="1.88" id="circle14" style="fill:#ff0000;fill-opacity:1;stroke:#ff0000;stroke-width:1;stroke-opacity:1"></circle>
  <circle cx="77.32" cy="248.71001" r="1.88" id="circle16" style="fill:#ff0000;fill-opacity:1;stroke:#ff0000;stroke-width:1;stroke-opacity:1"></circle>
  <circle cx="86.660004" cy="248.71001" r="1.88" id="circle18" style="fill:#ff0000;fill-opacity:1;stroke:#ff0000;stroke-width:1;stroke-opacity:1"></circle>
  <circle cx="96.010002" cy="248.7" r="1.88" id="circle20" style="fill:#ff0000;fill-opacity:1;stroke:#ff0000;stroke-width:1;stroke-opacity:1"></circle>
  <circle cx="105.35" cy="248.69" r="1.88" id="circle22" style="fill:#ff0000;fill-opacity:1;stroke:#ff0000;stroke-width:1;stroke-opacity:1"></circle>
  <circle cx="114.69" cy="248.64" r="1.88" id="circle24" style="fill:#ff0000;fill-opacity:1;stroke:#ff0000;stroke-width:1;stroke-opacity:1"></circle>
  <circle cx="124.04" cy="248.47" r="1.88" id="circle26" style="fill:#ff0000;fill-opacity:1;stroke:#ff0000;stroke-width:1;stroke-opacity:1"></circle>
  <circle cx="133.38" cy="247.98" r="1.88" id="circle28" style="fill:#ff0000;fill-opacity:1;stroke:#ff0000;stroke-width:1;stroke-opacity:1"></circle>
  <circle cx="142.72" cy="246.74001" r="1.88" id="circle30" style="fill:#ff0000;fill-opacity:1;stroke:#ff0000;stroke-width:1;stroke-opacity:1"></circle>
  <circle cx="152.07001" cy="243.94" r="1.88" id="circle32" style="fill:#ff0000;fill-opacity:1;stroke:#ff0000;stroke-width:1;stroke-opacity:1"></circle>
  <circle cx="161.41" cy="238.45" r="1.88" id="circle34" style="fill:#ff0000;fill-opacity:1;stroke:#ff0000;stroke-width:1;stroke-opacity:1"></circle>
  <circle cx="170.75" cy="228.92" r="1.88" id="circle36" style="fill:#ff0000;fill-opacity:1;stroke:#ff0000;stroke-width:1;stroke-opacity:1"></circle>
  <circle cx="180.09" cy="214.41" r="1.88" id="circle38" style="fill:#ff0000;fill-opacity:1;stroke:#ff0000;stroke-width:1;stroke-opacity:1"></circle>
  <circle cx="189.44" cy="195.13" r="1.88" id="circle40" style="fill:#ff0000;fill-opacity:1;stroke:#ff0000;stroke-width:1;stroke-opacity:1"></circle>
  <circle cx="198.78" cy="173.06" r="1.88" id="circle42" style="fill:#ff0000;fill-opacity:1;stroke:#ff0000;stroke-width:1;stroke-opacity:1"></circle>
  <circle cx="208.12" cy="152.05" r="1.88" id="circle44" style="fill:#ff0000;fill-opacity:1;stroke:#ff0000;stroke-width:1;stroke-opacity:1"></circle>
  <circle cx="217.47" cy="136.78999" r="1.88" id="circle46" style="fill:#ff0000;fill-opacity:1;stroke:#ff0000;stroke-width:1;stroke-opacity:1"></circle>
  <circle cx="226.81" cy="131.19" r="1.88" id="circle48" style="fill:#ff0000;fill-opacity:1;stroke:#ff0000;stroke-width:1;stroke-opacity:1"></circle>
  <circle cx="236.14999" cy="136.78999" r="1.88" id="circle50" style="fill:#ff0000;fill-opacity:1;stroke:#ff0000;stroke-width:1;stroke-opacity:1"></circle>
  <circle cx="245.5" cy="152.05" r="1.88" id="circle52" style="fill:#ff0000;fill-opacity:1;stroke:#ff0000;stroke-width:1;stroke-opacity:1"></circle>
  <circle cx="254.84" cy="173.06" r="1.88" id="circle54" style="fill:#ff0000;fill-opacity:1;stroke:#ff0000;stroke-width:1;stroke-opacity:1"></circle>
  <circle cx="264.17999" cy="195.13" r="1.88" id="circle56" style="fill:#ff0000;fill-opacity:1;stroke:#ff0000;stroke-width:1;stroke-opacity:1"></circle>
  <circle cx="273.53" cy="214.41" r="1.88" id="circle58" style="fill:#ff0000;fill-opacity:1;stroke:#ff0000;stroke-width:1;stroke-opacity:1"></circle>
  <circle cx="282.87" cy="228.92" r="1.88" id="circle60" style="fill:#ff0000;fill-opacity:1;stroke:#ff0000;stroke-width:1;stroke-opacity:1"></circle>
  <circle cx="292.20999" cy="238.45" r="1.88" id="circle62" style="fill:#ff0000;fill-opacity:1;stroke:#ff0000;stroke-width:1;stroke-opacity:1"></circle>
  <circle cx="301.54999" cy="243.94" r="1.88" id="circle64" style="fill:#ff0000;fill-opacity:1;stroke:#ff0000;stroke-width:1;stroke-opacity:1"></circle>
  <circle cx="310.89999" cy="246.74001" r="1.88" id="circle66" style="fill:#ff0000;fill-opacity:1;stroke:#ff0000;stroke-width:1;stroke-opacity:1"></circle>
  <circle cx="320.23999" cy="247.98" r="1.88" id="circle68" style="fill:#ff0000;fill-opacity:1;stroke:#ff0000;stroke-width:1;stroke-opacity:1"></circle>
  <circle cx="329.57999" cy="248.47" r="1.88" id="circle70" style="fill:#ff0000;fill-opacity:1;stroke:#ff0000;stroke-width:1;stroke-opacity:1"></circle>
  <circle cx="338.92999" cy="248.64" r="1.88" id="circle72" style="fill:#ff0000;fill-opacity:1;stroke:#ff0000;stroke-width:1;stroke-opacity:1"></circle>
  <circle cx="348.26999" cy="248.69" r="1.88" id="circle74" style="fill:#ff0000;fill-opacity:1;stroke:#ff0000;stroke-width:1;stroke-opacity:1"></circle>
  <circle cx="357.60999" cy="248.7" r="1.88" id="circle76" style="fill:#ff0000;fill-opacity:1;stroke:#ff0000;stroke-width:1;stroke-opacity:1"></circle>
  <circle cx="366.95999" cy="248.71001" r="1.88" id="circle78" style="fill:#ff0000;fill-opacity:1;stroke:#ff0000;stroke-width:1;stroke-opacity:1"></circle>
  <circle cx="376.29999" cy="248.71001" r="1.88" id="circle80" style="fill:#ff0000;fill-opacity:1;stroke:#ff0000;stroke-width:1;stroke-opacity:1"></circle>
  <circle cx="385.64001" cy="248.71001" r="1.88" id="circle82" style="fill:#ff0000;fill-opacity:1;stroke:#ff0000;stroke-width:1;stroke-opacity:1"></circle>
  <circle cx="394.98001" cy="248.71001" r="1.88" id="circle84" style="fill:#ff0000;fill-opacity:1;stroke:#ff0000;stroke-width:1;stroke-opacity:1"></circle>
  <circle cx="404.32999" cy="248.71001" r="1.88" id="circle86" style="fill:#ff0000;fill-opacity:1;stroke:#ff0000;stroke-width:1;stroke-opacity:1"></circle>
  <circle cx="413.67001" cy="248.71001" r="1.88" id="circle88" style="fill:#ff0000;fill-opacity:1;stroke:#ff0000;stroke-width:1;stroke-opacity:1"></circle>
  <line x1="39.950001" y1="258.07999" x2="413.67001" y2="258.07999" style="fill:#000000;fill-opacity:0;stroke:#000000;stroke-width:1;stroke-opacity:1" id="line90"></line>
  <line x1="39.950001" y1="258.07999" x2="39.950001" y2="263.07999" style="fill:#000000;fill-opacity:0;stroke:#000000;stroke-width:1;stroke-opacity:1" id="line92"></line>
  <line x1="133.38" y1="258.07999" x2="133.38" y2="263.07999" style="fill:#000000;fill-opacity:0;stroke:#000000;stroke-width:1;stroke-opacity:1" id="line94"></line>
  <line x1="226.81" y1="258.07999" x2="226.81" y2="263.07999" style="fill:#000000;fill-opacity:0;stroke:#000000;stroke-width:1;stroke-opacity:1" id="line96"></line>
  <line x1="320.23999" y1="258.07999" x2="320.23999" y2="263.07999" style="fill:#000000;fill-opacity:0;stroke:#000000;stroke-width:1;stroke-opacity:1" id="line98"></line>
  <line x1="413.67001" y1="258.07999" x2="413.67001" y2="263.07999" style="fill:#000000;fill-opacity:0;stroke:#000000;stroke-width:1;stroke-opacity:1" id="line100"></line>
  <text transform="translate(36.95,278.08)" id="text102" style="font-size:12px">0</text>
  <text transform="translate(126.78,278.08)" id="text104" style="font-size:12px">10</text>
  <text transform="translate(220.21,278.08)" id="text106" style="font-size:12px">20</text>
  <text transform="translate(313.64,278.08)" id="text108" style="font-size:12px">30</text>
  <text transform="translate(407.07,278.08)" id="text110" style="font-size:12px">40</text>
  <line x1="25" y1="248.71001" x2="25" y2="14.37" style="fill:#000000;fill-opacity:0;stroke:#000000;stroke-width:1;stroke-opacity:1" id="line112"></line>
  <line x1="25" y1="248.71001" x2="20" y2="248.71001" style="fill:#000000;fill-opacity:0;stroke:#000000;stroke-width:1;stroke-opacity:1" id="line114"></line>
  <line x1="25" y1="201.84" x2="20" y2="201.84" style="fill:#000000;fill-opacity:0;stroke:#000000;stroke-width:1;stroke-opacity:1" id="line116"></line>
  <line x1="25" y1="154.97" x2="20" y2="154.97" style="fill:#000000;fill-opacity:0;stroke:#000000;stroke-width:1;stroke-opacity:1" id="line118"></line>
  <line x1="25" y1="108.11" x2="20" y2="108.11" style="fill:#000000;fill-opacity:0;stroke:#000000;stroke-width:1;stroke-opacity:1" id="line120"></line>
  <line x1="25" y1="61.240002" x2="20" y2="61.240002" style="fill:#000000;fill-opacity:0;stroke:#000000;stroke-width:1;stroke-opacity:1" id="line122"></line>
  <line x1="25" y1="14.37" x2="20" y2="14.37" style="fill:#000000;fill-opacity:0;stroke:#000000;stroke-width:1;stroke-opacity:1" id="line124"></line>
  <text transform="matrix(0,-1,1,0,15,260.44)" id="text126" style="font-size:12px">0.00</text>
  <text transform="matrix(0,-1,1,0,15,213.57)" id="text128" style="font-size:12px">0.05</text>
  <text transform="matrix(0,-1,1,0,15,166.71)" id="text130" style="font-size:12px">0.10</text>
  <text transform="matrix(0,-1,1,0,15,119.84)" id="text132" style="font-size:12px">0.15</text>
  <text transform="matrix(0,-1,1,0,15,72.97)" id="text134" style="font-size:12px">0.20</text>
  <text transform="matrix(0,-1,1,0,15,26.11)" id="text136" style="font-size:12px">0.25</text>
  <polyline points="25.00 , 258.08 428.62 , 258.08 428.62 , 5.00 25.00 , 5.00 25.00 , 258.08 " style="fill:#000000;fill-opacity:0;stroke:#000000;stroke-width:1;stroke-opacity:1" id="polyline138"></polyline>
  <polygon points="41.82,250.58 41.82,246.83 38.07,246.83 38.07,250.58 " id="polygon140" style="fill:#00ff00;fill-opacity:1;stroke:#ffffff;stroke-width:1;stroke-opacity:0"></polygon>
  <polygon points="51.17,250.58 51.17,246.83 47.42,246.83 47.42,250.58 " id="polygon142" style="fill:#00ff00;fill-opacity:1;stroke:#ffffff;stroke-width:1;stroke-opacity:0"></polygon>
  <polygon points="60.51,250.58 60.51,246.83 56.76,246.83 56.76,250.58 " id="polygon144" style="fill:#00ff00;fill-opacity:1;stroke:#ffffff;stroke-width:1;stroke-opacity:0"></polygon>
  <polygon points="69.85,250.58 69.85,246.83 66.1,246.83 66.1,250.58 " id="polygon146" style="fill:#00ff00;fill-opacity:1;stroke:#ffffff;stroke-width:1;stroke-opacity:0"></polygon>
  <polygon points="79.2,250.58 79.2,246.83 75.45,246.83 75.45,250.58 " id="polygon148" style="fill:#00ff00;fill-opacity:1;stroke:#ffffff;stroke-width:1;stroke-opacity:0"></polygon>
  <polygon points="88.54,250.55 88.54,246.8 84.79,246.8 84.79,250.55 " id="polygon150" style="fill:#00ff00;fill-opacity:1;stroke:#ffffff;stroke-width:1;stroke-opacity:0"></polygon>
  <polygon points="97.88,250.38 97.88,246.63 94.13,246.63 94.13,250.38 " id="polygon152" style="fill:#00ff00;fill-opacity:1;stroke:#ffffff;stroke-width:1;stroke-opacity:0"></polygon>
  <polygon points="107.23,249.63 107.23,245.88 103.48,245.88 103.48,249.63 " id="polygon154" style="fill:#00ff00;fill-opacity:1;stroke:#ffffff;stroke-width:1;stroke-opacity:0"></polygon>
  <polygon points="116.57,246.96 116.57,243.21 112.82,243.21 112.82,246.96 " id="polygon156" style="fill:#00ff00;fill-opacity:1;stroke:#ffffff;stroke-width:1;stroke-opacity:0"></polygon>
  <polygon points="125.91,239.33 125.91,235.58 122.16,235.58 122.16,239.33 " id="polygon158" style="fill:#00ff00;fill-opacity:1;stroke:#ffffff;stroke-width:1;stroke-opacity:0"></polygon>
  <polygon points="135.25,221.7 135.25,217.95 131.5,217.95 131.5,221.7 " id="polygon160" style="fill:#00ff00;fill-opacity:1;stroke:#ffffff;stroke-width:1;stroke-opacity:0"></polygon>
  <polygon points="144.6,189.31 144.6,185.56 140.85,185.56 140.85,189.31 " id="polygon162" style="fill:#00ff00;fill-opacity:1;stroke:#ffffff;stroke-width:1;stroke-opacity:0"></polygon>
  <polygon points="153.94,143.35 153.94,139.6 150.19,139.6 150.19,143.35 " id="polygon164" style="fill:#00ff00;fill-opacity:1;stroke:#ffffff;stroke-width:1;stroke-opacity:0"></polygon>
  <polygon points="163.28,96.61 163.28,92.86 159.53,92.86 159.53,96.61 " id="polygon166" style="fill:#00ff00;fill-opacity:1;stroke:#ffffff;stroke-width:1;stroke-opacity:0"></polygon>
  <polygon points="172.63,70.95 172.63,67.2 168.88,67.2 168.88,70.95 " id="polygon168" style="fill:#00ff00;fill-opacity:1;stroke:#ffffff;stroke-width:1;stroke-opacity:0"></polygon>
  <polygon points="181.97,82.93 181.97,79.18 178.22,79.18 178.22,82.93 " id="polygon170" style="fill:#00ff00;fill-opacity:1;stroke:#ffffff;stroke-width:1;stroke-opacity:0"></polygon>
  <polygon points="191.31,128.33 191.31,124.58 187.56,124.58 187.56,128.33 " id="polygon172" style="fill:#00ff00;fill-opacity:1;stroke:#ffffff;stroke-width:1;stroke-opacity:0"></polygon>
  <polygon points="200.66,183.47 200.66,179.72 196.91,179.72 196.91,183.47 " id="polygon174" style="fill:#00ff00;fill-opacity:1;stroke:#ffffff;stroke-width:1;stroke-opacity:0"></polygon>
  <polygon points="210,224.48 210,220.73 206.25,220.73 206.25,224.48 " id="polygon176" style="fill:#00ff00;fill-opacity:1;stroke:#ffffff;stroke-width:1;stroke-opacity:0"></polygon>
  <polygon points="219.34,244.17 219.34,240.42 215.59,240.42 215.59,244.17 " id="polygon178" style="fill:#00ff00;fill-opacity:1;stroke:#ffffff;stroke-width:1;stroke-opacity:0"></polygon>
  <polygon points="228.69,249.83 228.69,246.08 224.94,246.08 224.94,249.83 " id="polygon180" style="fill:#00ff00;fill-opacity:1;stroke:#ffffff;stroke-width:1;stroke-opacity:0"></polygon>
  <polygon points="39.95,246.83 41.82,248.71 39.95,250.58 38.07,248.71 " id="polygon182" style="fill:#0000ff;fill-opacity:1;stroke:#ffffff;stroke-width:1;stroke-opacity:0"></polygon>
  <polygon points="49.29,246.81 51.17,248.69 49.29,250.56 47.42,248.69 " id="polygon184" style="fill:#0000ff;fill-opacity:1;stroke:#ffffff;stroke-width:1;stroke-opacity:0"></polygon>
  <polygon points="58.64,246.66 60.51,248.54 58.64,250.41 56.76,248.54 " id="polygon186" style="fill:#0000ff;fill-opacity:1;stroke:#ffffff;stroke-width:1;stroke-opacity:0"></polygon>
  <polygon points="67.98,245.81 69.85,247.69 67.98,249.56 66.1,247.69 " id="polygon188" style="fill:#0000ff;fill-opacity:1;stroke:#ffffff;stroke-width:1;stroke-opacity:0"></polygon>
  <polygon points="77.32,242.5 79.2,244.38 77.32,246.25 75.45,244.38 " id="polygon190" style="fill:#0000ff;fill-opacity:1;stroke:#ffffff;stroke-width:1;stroke-opacity:0"></polygon>
  <polygon points="86.66,232.97 88.54,234.85 86.66,236.72 84.79,234.85 " id="polygon192" style="fill:#0000ff;fill-opacity:1;stroke:#ffffff;stroke-width:1;stroke-opacity:0"></polygon>
  <polygon points="96.01,212.18 97.88,214.06 96.01,215.93 94.13,214.06 " id="polygon194" style="fill:#0000ff;fill-opacity:1;stroke:#ffffff;stroke-width:1;stroke-opacity:0"></polygon>
  <polygon points="105.35,177.54 107.23,179.41 105.35,181.29 103.48,179.41 " id="polygon196" style="fill:#0000ff;fill-opacity:1;stroke:#ffffff;stroke-width:1;stroke-opacity:0"></polygon>
  <polygon points="114.69,134.23 116.57,136.1 114.69,137.98 112.82,136.1 " id="polygon198" style="fill:#0000ff;fill-opacity:1;stroke:#ffffff;stroke-width:1;stroke-opacity:0"></polygon>
  <polygon points="124.04,96.69 125.91,98.57 124.04,100.44 122.16,98.57 " id="polygon200" style="fill:#0000ff;fill-opacity:1;stroke:#ffffff;stroke-width:1;stroke-opacity:0"></polygon>
  <polygon points="133.38,81.68 135.25,83.55 133.38,85.43 131.5,83.55 " id="polygon202" style="fill:#0000ff;fill-opacity:1;stroke:#ffffff;stroke-width:1;stroke-opacity:0"></polygon>
  <polygon points="142.72,96.69 144.6,98.57 142.72,100.44 140.85,98.57 " id="polygon204" style="fill:#0000ff;fill-opacity:1;stroke:#ffffff;stroke-width:1;stroke-opacity:0"></polygon>
  <polygon points="152.07,134.23 153.94,136.1 152.07,137.98 150.19,136.1 " id="polygon206" style="fill:#0000ff;fill-opacity:1;stroke:#ffffff;stroke-width:1;stroke-opacity:0"></polygon>
  <polygon points="161.41,177.54 163.28,179.41 161.41,181.29 159.53,179.41 " id="polygon208" style="fill:#0000ff;fill-opacity:1;stroke:#ffffff;stroke-width:1;stroke-opacity:0"></polygon>
  <polygon points="170.75,212.18 172.63,214.06 170.75,215.93 168.88,214.06 " id="polygon210" style="fill:#0000ff;fill-opacity:1;stroke:#ffffff;stroke-width:1;stroke-opacity:0"></polygon>
  <polygon points="180.09,232.97 181.97,234.85 180.09,236.72 178.22,234.85 " id="polygon212" style="fill:#0000ff;fill-opacity:1;stroke:#ffffff;stroke-width:1;stroke-opacity:0"></polygon>
  <polygon points="189.44,242.5 191.31,244.38 189.44,246.25 187.56,244.38 " id="polygon214" style="fill:#0000ff;fill-opacity:1;stroke:#ffffff;stroke-width:1;stroke-opacity:0"></polygon>
  <polygon points="198.78,245.81 200.66,247.69 198.78,249.56 196.91,247.69 " id="polygon216" style="fill:#0000ff;fill-opacity:1;stroke:#ffffff;stroke-width:1;stroke-opacity:0"></polygon>
  <polygon points="208.12,246.66 210,248.54 208.12,250.41 206.25,248.54 " id="polygon218" style="fill:#0000ff;fill-opacity:1;stroke:#ffffff;stroke-width:1;stroke-opacity:0"></polygon>
  <polygon points="217.47,246.81 219.34,248.69 217.47,250.56 215.59,248.69 " id="polygon220" style="fill:#0000ff;fill-opacity:1;stroke:#ffffff;stroke-width:1;stroke-opacity:0"></polygon>
  <polygon points="226.81,246.83 228.69,248.71 226.81,250.58 224.94,248.71 " id="polygon222" style="fill:#0000ff;fill-opacity:1;stroke:#ffffff;stroke-width:1;stroke-opacity:0"></polygon>
  <polygon points="311.7,25 313.58,26.87 311.7,28.75 309.83,26.87 " id="polygon224" style="fill:#0000ff;fill-opacity:1;stroke:#ffffff;stroke-width:1;stroke-opacity:0"></polygon>
  <polygon points="313.58,43.75 313.58,40 309.83,40 309.83,43.75 " id="polygon226" style="fill:#00ff00;fill-opacity:1;stroke:#ffffff;stroke-width:1;stroke-opacity:0"></polygon>
  <circle cx="311.70001" cy="56.869999" r="1.88" id="circle228" style="fill:#ff0000;fill-opacity:1;stroke:#ff0000;stroke-width:1;stroke-opacity:1"></circle>
  <text transform="translate(320.7,31.87)" id="text230" style="font-size:12px">p=0.5 and n=20</text>
  <text transform="translate(320.7,46.87)" id="text232" style="font-size:12px">p=0.7 and n=20</text>
  <text transform="translate(320.7,61.87)" id="text234" style="font-size:12px">p=0.5 and n=40</text>
</svg>
