<!-- Created with Inkscape (http://www.inkscape.org/) -->
<svg xmlns:dc="http://purl.org/dc/elements/1.1/" xmlns:cc="http://creativecommons.org/ns#" xmlns:rdf="http://www.w3.org/1999/02/22-rdf-syntax-ns#" xmlns:svg="http://www.w3.org/2000/svg" xmlns="http://www.w3.org/2000/svg" xmlns:inkscape="http://www.inkscape.org/namespaces/inkscape" version="1.1" width="390" height="260" viewBox="0 0 1 1" id="svg2">
  <title id="title4">SVG drawing</title>
  <desc id="desc6">This was produced by version 4.1 of GNU libplot, a free library for exporting 2-D vector graphics.</desc>
  <metadata id="metadata60"></metadata>
  <defs id="defs113"></defs>
  <rect width="1.5384616" height="1" x="-0.25" y="0" id="rect8" style="fill:#ffffff;stroke:none"></rect>
  <g transform="matrix(0,0.00465253,0.00467558,0,-0.2539624,-0.01079497)" id="g10" xml:space="preserve" style="font-style:normal;font-variant:normal;font-weight:normal;font-stretch:normal;letter-spacing:normal;word-spacing:normal;text-anchor:start;fill:none;stroke:#000000;stroke-linecap:butt;stroke-linejoin:miter;stroke-miterlimit:10.43299961;stroke-opacity:1;stroke-dasharray:none;stroke-dashoffset:0"><path d="m 77.223,94.918 -0.278,-0.007 -0.274,-0.021 -0.27,-0.034 -0.266,-0.048 -0.261,-0.06 -0.257,-0.073 -0.251,-0.085 -0.245,-0.096 -0.239,-0.109 -0.233,-0.119 -0.226,-0.13 -0.219,-0.14 -0.212,-0.151 -0.204,-0.16 -0.196,-0.17 -0.188,-0.179 -0.179,-0.187 -0.17,-0.196 -0.161,-0.204 -0.15,-0.212 -0.141,-0.219 -0.13,-0.226 L 72.354,91.86 72.245,91.62 72.148,91.375 72.063,91.124 71.991,90.868 71.93,90.607 71.883,90.341 71.848,90.071 71.827,89.797 71.82,89.52 c 0,-2.981 2.422,-5.403 5.403,-5.403 2.98,0 5.398,2.422 5.398,5.403 0,2.98 -2.418,5.398 -5.398,5.398 z" id="path12" style="fill:#b3dae6;fill-rule:nonzero;stroke:#b3dae6;stroke-width:0;stroke-linecap:round;stroke-linejoin:round"></path><path d="m 77.223,94.918 -0.278,-0.007 -0.274,-0.021 -0.27,-0.034 -0.266,-0.048 -0.261,-0.06 -0.257,-0.073 -0.251,-0.085 -0.245,-0.096 -0.239,-0.109 -0.233,-0.119 -0.226,-0.13 -0.219,-0.14 -0.212,-0.151 -0.204,-0.16 -0.196,-0.17 -0.188,-0.179 -0.179,-0.187 -0.17,-0.196 -0.161,-0.204 -0.15,-0.212 -0.141,-0.219 -0.13,-0.226 L 72.354,91.86 72.245,91.62 72.148,91.375 72.063,91.124 71.991,90.868 71.93,90.607 71.883,90.341 71.848,90.071 71.827,89.797 71.82,89.52 c 0,-2.981 2.422,-5.403 5.403,-5.403 2.98,0 5.398,2.422 5.398,5.403 0,2.98 -2.418,5.398 -5.398,5.398 z" id="path14" style="stroke:#0000ff;stroke-width:0.75;stroke-linecap:round;stroke-linejoin:round"></path><path d="m 64.441,113.02 -0.277,-0.01 -0.274,-0.02 -0.271,-0.03 -0.265,-0.05 -0.261,-0.06 -0.257,-0.07 -0.25,-0.09 -0.245,-0.1 -0.24,-0.1 -0.232,-0.12 -0.226,-0.13 -0.219,-0.14 -0.212,-0.15 -0.204,-0.16 -0.196,-0.17 -0.187,-0.18 -0.179,-0.19 -0.17,-0.2 -0.16,-0.2 -0.151,-0.21 -0.14,-0.22 -0.13,-0.23 -0.119,-0.23 -0.109,-0.24 -0.096,-0.25 -0.085,-0.25 -0.073,-0.25 -0.06,-0.26 -0.048,-0.27 -0.034,-0.27 -0.021,-0.28 -0.007,-0.27 c 0,-2.98 2.418,-5.4 5.398,-5.4 2.981,0 5.403,2.42 5.403,5.4 0,2.98 -2.422,5.4 -5.403,5.4 z" id="path16" style="fill:#b3dae6;fill-rule:nonzero;stroke:#b3dae6;stroke-width:0;stroke-linecap:round;stroke-linejoin:round"></path><path d="m 64.441,113.02 -0.277,-0.01 -0.274,-0.02 -0.271,-0.03 -0.265,-0.05 -0.261,-0.06 -0.257,-0.07 -0.25,-0.09 -0.245,-0.1 -0.24,-0.1 -0.232,-0.12 -0.226,-0.13 -0.219,-0.14 -0.212,-0.15 -0.204,-0.16 -0.196,-0.17 -0.187,-0.18 -0.179,-0.19 -0.17,-0.2 -0.16,-0.2 -0.151,-0.21 -0.14,-0.22 -0.13,-0.23 -0.119,-0.23 -0.109,-0.24 -0.096,-0.25 -0.085,-0.25 -0.073,-0.25 -0.06,-0.26 -0.048,-0.27 -0.034,-0.27 -0.021,-0.28 -0.007,-0.27 c 0,-2.98 2.418,-5.4 5.398,-5.4 2.981,0 5.403,2.42 5.403,5.4 0,2.98 -2.422,5.4 -5.403,5.4 z" id="path18" style="stroke:#0000ff;stroke-width:0.75;stroke-linecap:round;stroke-linejoin:round"></path><path d="m 51.672,131.11 -0.278,-0.01 -0.274,-0.02 -0.27,-0.03 -0.266,-0.05 -0.261,-0.06 -0.256,-0.07 -0.251,-0.09 -0.245,-0.1 -0.239,-0.1 -0.233,-0.12 -0.226,-0.13 -0.219,-0.14 -0.212,-0.15 -0.204,-0.17 -0.196,-0.17 -0.187,-0.17 -0.179,-0.19 -0.17,-0.2 -0.16,-0.2 -0.15,-0.21 -0.141,-0.22 -0.13,-0.23 -0.119,-0.23 -0.108,-0.24 -0.097,-0.25 -0.085,-0.25 -0.073,-0.25 -0.06,-0.27 -0.047,-0.26 -0.035,-0.27 -0.021,-0.28 -0.007,-0.27 c 0,-2.98 2.418,-5.4 5.399,-5.4 2.98,0 5.398,2.42 5.398,5.4 0,2.98 -2.418,5.4 -5.398,5.4 z" id="path20" style="fill:#b3dae6;fill-rule:nonzero;stroke:#b3dae6;stroke-width:0;stroke-linecap:round;stroke-linejoin:round"></path><path d="m 51.672,131.11 -0.278,-0.01 -0.274,-0.02 -0.27,-0.03 -0.266,-0.05 -0.261,-0.06 -0.256,-0.07 -0.251,-0.09 -0.245,-0.1 -0.239,-0.1 -0.233,-0.12 -0.226,-0.13 -0.219,-0.14 -0.212,-0.15 -0.204,-0.17 -0.196,-0.17 -0.187,-0.17 -0.179,-0.19 -0.17,-0.2 -0.16,-0.2 -0.15,-0.21 -0.141,-0.22 -0.13,-0.23 -0.119,-0.23 -0.108,-0.24 -0.097,-0.25 -0.085,-0.25 -0.073,-0.25 -0.06,-0.27 -0.047,-0.26 -0.035,-0.27 -0.021,-0.28 -0.007,-0.27 c 0,-2.98 2.418,-5.4 5.399,-5.4 2.98,0 5.398,2.42 5.398,5.4 0,2.98 -2.418,5.4 -5.398,5.4 z" id="path22" style="stroke:#0000ff;stroke-width:0.75;stroke-linecap:round;stroke-linejoin:round"></path><path d="m 38.891,149.21 -0.278,-0.01 -0.274,-0.02 -0.27,-0.04 -0.266,-0.04 -0.261,-0.06 -0.256,-0.08 -0.251,-0.08 -0.245,-0.1 -0.239,-0.11 -0.233,-0.11 -0.226,-0.13 -0.219,-0.15 -0.212,-0.15 -0.204,-0.16 -0.196,-0.17 -0.187,-0.17 -0.179,-0.19 -0.17,-0.2 -0.16,-0.2 -0.151,-0.21 -0.14,-0.22 -0.13,-0.23 -0.119,-0.23 -0.108,-0.24 -0.097,-0.25 -0.085,-0.25 -0.073,-0.25 -0.06,-0.26 -0.048,-0.27 -0.034,-0.27 -0.021,-0.27 -0.007,-0.28 c 0,-2.98 2.418,-5.4 5.399,-5.4 2.98,0 5.402,2.42 5.402,5.4 0,2.98 -2.422,5.4 -5.402,5.4 z" id="path24" style="fill:#b3dae6;fill-rule:nonzero;stroke:#b3dae6;stroke-width:0;stroke-linecap:round;stroke-linejoin:round"></path><path d="m 38.891,149.21 -0.278,-0.01 -0.274,-0.02 -0.27,-0.04 -0.266,-0.04 -0.261,-0.06 -0.256,-0.08 -0.251,-0.08 -0.245,-0.1 -0.239,-0.11 -0.233,-0.11 -0.226,-0.13 -0.219,-0.15 -0.212,-0.15 -0.204,-0.16 -0.196,-0.17 -0.187,-0.17 -0.179,-0.19 -0.17,-0.2 -0.16,-0.2 -0.151,-0.21 -0.14,-0.22 -0.13,-0.23 -0.119,-0.23 -0.108,-0.24 -0.097,-0.25 -0.085,-0.25 -0.073,-0.25 -0.06,-0.26 -0.048,-0.27 -0.034,-0.27 -0.021,-0.27 -0.007,-0.28 c 0,-2.98 2.418,-5.4 5.399,-5.4 2.98,0 5.402,2.42 5.402,5.4 0,2.98 -2.422,5.4 -5.402,5.4 z" id="path26" style="stroke:#0000ff;stroke-width:0.75;stroke-linecap:round;stroke-linejoin:round"></path><path d="m 141.11,221.59 -0.27,-0.01 -0.28,-0.02 -0.27,-0.03 -0.26,-0.05 -0.27,-0.06 -0.25,-0.07 -0.25,-0.09 -0.25,-0.1 -0.24,-0.1 -0.23,-0.12 -0.23,-0.13 -0.22,-0.14 -0.21,-0.15 -0.2,-0.16 -0.2,-0.17 -0.19,-0.18 -0.17,-0.19 -0.17,-0.2 -0.16,-0.2 -0.16,-0.21 -0.14,-0.22 -0.13,-0.23 -0.12,-0.23 -0.1,-0.24 -0.1,-0.25 -0.09,-0.25 -0.07,-0.25 -0.06,-0.26 -0.05,-0.27 -0.03,-0.27 -0.02,-0.27 -0.01,-0.28 c 0,-2.98 2.42,-5.4 5.4,-5.4 2.98,0 5.4,2.42 5.4,5.4 0,2.98 -2.42,5.4 -5.4,5.4 z" id="path28" style="fill:#ffc0cb;fill-rule:nonzero;stroke:#ffc0cb;stroke-width:0;stroke-linecap:round;stroke-linejoin:round"></path><path d="m 141.11,221.59 -0.27,-0.01 -0.28,-0.02 -0.27,-0.03 -0.26,-0.05 -0.27,-0.06 -0.25,-0.07 -0.25,-0.09 -0.25,-0.1 -0.24,-0.1 -0.23,-0.12 -0.23,-0.13 -0.22,-0.14 -0.21,-0.15 -0.2,-0.16 -0.2,-0.17 -0.19,-0.18 -0.17,-0.19 -0.17,-0.2 -0.16,-0.2 -0.16,-0.21 -0.14,-0.22 -0.13,-0.23 -0.12,-0.23 -0.1,-0.24 -0.1,-0.25 -0.09,-0.25 -0.07,-0.25 -0.06,-0.26 -0.05,-0.27 -0.03,-0.27 -0.02,-0.27 -0.01,-0.28 c 0,-2.98 2.42,-5.4 5.4,-5.4 2.98,0 5.4,2.42 5.4,5.4 0,2.98 -2.42,5.4 -5.4,5.4 z" id="path30" style="stroke:#ff0000;stroke-width:0.75;stroke-linecap:round;stroke-linejoin:round"></path><path d="m 128.33,239.69 -0.28,-0.01 -0.27,-0.02 -0.27,-0.03 -0.27,-0.05 -0.26,-0.06 -0.25,-0.07 -0.25,-0.09 -0.25,-0.1 -0.24,-0.1 -0.23,-0.12 -0.23,-0.13 -0.22,-0.14 -0.21,-0.15 -0.2,-0.17 -0.2,-0.16 -0.18,-0.18 -0.18,-0.19 -0.17,-0.2 -0.16,-0.2 -0.15,-0.21 -0.14,-0.22 -0.13,-0.23 -0.12,-0.23 -0.11,-0.24 -0.1,-0.24 -0.08,-0.26 -0.08,-0.25 -0.06,-0.26 -0.04,-0.27 -0.04,-0.27 -0.02,-0.27 -0.01,-0.28 c 0,-2.98 2.42,-5.4 5.4,-5.4 2.98,0 5.4,2.42 5.4,5.4 0,2.98 -2.42,5.4 -5.4,5.4 z" id="path32" style="fill:#ffc0cb;fill-rule:nonzero;stroke:#ffc0cb;stroke-width:0;stroke-linecap:round;stroke-linejoin:round"></path><path d="m 128.33,239.69 -0.28,-0.01 -0.27,-0.02 -0.27,-0.03 -0.27,-0.05 -0.26,-0.06 -0.25,-0.07 -0.25,-0.09 -0.25,-0.1 -0.24,-0.1 -0.23,-0.12 -0.23,-0.13 -0.22,-0.14 -0.21,-0.15 -0.2,-0.17 -0.2,-0.16 -0.18,-0.18 -0.18,-0.19 -0.17,-0.2 -0.16,-0.2 -0.15,-0.21 -0.14,-0.22 -0.13,-0.23 -0.12,-0.23 -0.11,-0.24 -0.1,-0.24 -0.08,-0.26 -0.08,-0.25 -0.06,-0.26 -0.04,-0.27 -0.04,-0.27 -0.02,-0.27 -0.01,-0.28 c 0,-2.98 2.42,-5.4 5.4,-5.4 2.98,0 5.4,2.42 5.4,5.4 0,2.98 -2.42,5.4 -5.4,5.4 z" id="path34" style="stroke:#ff0000;stroke-width:0.75;stroke-linecap:round;stroke-linejoin:round"></path><path d="m 115.56,257.78 -0.28,-0.01 -0.27,-0.02 -0.27,-0.04 -0.27,-0.04 -0.26,-0.06 -0.25,-0.08 -0.25,-0.08 -0.25,-0.1 -0.24,-0.11 -0.23,-0.11 -0.23,-0.13 -0.22,-0.15 -0.21,-0.15 -0.2,-0.16 -0.2,-0.17 -0.19,-0.17 -0.18,-0.19 -0.17,-0.2 -0.16,-0.2 -0.15,-0.21 -0.14,-0.22 -0.13,-0.23 -0.12,-0.23 -0.1,-0.24 -0.1,-0.25 -0.09,-0.25 -0.07,-0.25 -0.06,-0.26 -0.05,-0.27 -0.03,-0.27 -0.02,-0.27 -0.01,-0.28 c 0,-2.98 2.42,-5.4 5.4,-5.4 2.98,0 5.4,2.42 5.4,5.4 0,2.98 -2.42,5.4 -5.4,5.4 z" id="path36" style="fill:#ffc0cb;fill-rule:nonzero;stroke:#ffc0cb;stroke-width:0;stroke-linecap:round;stroke-linejoin:round"></path><path d="m 115.56,257.78 -0.28,-0.01 -0.27,-0.02 -0.27,-0.04 -0.27,-0.04 -0.26,-0.06 -0.25,-0.08 -0.25,-0.08 -0.25,-0.1 -0.24,-0.11 -0.23,-0.11 -0.23,-0.13 -0.22,-0.15 -0.21,-0.15 -0.2,-0.16 -0.2,-0.17 -0.19,-0.17 -0.18,-0.19 -0.17,-0.2 -0.16,-0.2 -0.15,-0.21 -0.14,-0.22 -0.13,-0.23 -0.12,-0.23 -0.1,-0.24 -0.1,-0.25 -0.09,-0.25 -0.07,-0.25 -0.06,-0.26 -0.05,-0.27 -0.03,-0.27 -0.02,-0.27 -0.01,-0.28 c 0,-2.98 2.42,-5.4 5.4,-5.4 2.98,0 5.4,2.42 5.4,5.4 0,2.98 -2.42,5.4 -5.4,5.4 z" id="path38" style="stroke:#ff0000;stroke-width:0.75;stroke-linecap:round;stroke-linejoin:round"></path><path d="m 102.78,275.88 -0.28,-0.01 -0.27,-0.02 -0.27,-0.03 -0.27,-0.05 -0.26,-0.06 -0.25,-0.07 -0.25,-0.09 -0.25,-0.1 -0.24,-0.1 -0.23,-0.12 -0.228,-0.13 -0.219,-0.14 -0.211,-0.16 -0.204,-0.16 -0.196,-0.17 -0.188,-0.17 -0.178,-0.19 -0.17,-0.2 -0.16,-0.2 -0.151,-0.21 -0.14,-0.22 -0.13,-0.23 -0.12,-0.23 -0.108,-0.24 -0.097,-0.25 -0.084,-0.25 -0.073,-0.25 -0.06,-0.27 -0.048,-0.26 -0.034,-0.27 -0.021,-0.28 -0.007,-0.27 c 0,-2.98 2.418,-5.4 5.397,-5.4 2.98,0 5.4,2.42 5.4,5.4 0,2.98 -2.42,5.4 -5.4,5.4 z" id="path40" style="fill:#ffc0cb;fill-rule:nonzero;stroke:#ffc0cb;stroke-width:0;stroke-linecap:round;stroke-linejoin:round"></path><path d="m 102.78,275.88 -0.28,-0.01 -0.27,-0.02 -0.27,-0.03 -0.27,-0.05 -0.26,-0.06 -0.25,-0.07 -0.25,-0.09 -0.25,-0.1 -0.24,-0.1 -0.23,-0.12 -0.228,-0.13 -0.219,-0.14 -0.211,-0.16 -0.204,-0.16 -0.196,-0.17 -0.188,-0.17 -0.178,-0.19 -0.17,-0.2 -0.16,-0.2 -0.151,-0.21 -0.14,-0.22 -0.13,-0.23 -0.12,-0.23 -0.108,-0.24 -0.097,-0.25 -0.084,-0.25 -0.073,-0.25 -0.06,-0.27 -0.048,-0.26 -0.034,-0.27 -0.021,-0.28 -0.007,-0.27 c 0,-2.98 2.418,-5.4 5.397,-5.4 2.98,0 5.4,2.42 5.4,5.4 0,2.98 -2.42,5.4 -5.4,5.4 z" id="path42" style="stroke:#ff0000;stroke-width:0.75;stroke-linecap:round;stroke-linejoin:round"></path><line x1="172.8" y1="71.43" x2="172.8" y2="288.57001" style="stroke-width:0.75;stroke-linecap:round" id="line44"></line><line x1="172.8" y1="71.43" x2="180" y2="71.43" style="stroke-width:0.75;stroke-linecap:round" id="line46"></line><line x1="172.8" y1="107.62" x2="180" y2="107.62" style="stroke-width:0.75;stroke-linecap:round" id="line48"></line><line x1="172.8" y1="143.81" x2="180" y2="143.81" style="stroke-width:0.75;stroke-linecap:round" id="line50"></line><line x1="172.8" y1="180" x2="180" y2="180" style="stroke-width:0.75;stroke-linecap:round" id="line52"></line><line x1="172.8" y1="216.19" x2="180" y2="216.19" style="stroke-width:0.75;stroke-linecap:round" id="line54"></line><line x1="172.8" y1="252.38" x2="180" y2="252.38" style="stroke-width:0.75;stroke-linecap:round" id="line56"></line><line x1="172.8" y1="288.57001" x2="180" y2="288.57001" style="stroke-width:0.75;stroke-linecap:round" id="line58"></line><text transform="matrix(0,1,1,0,198.72,68.094)" id="text60" style="font-size:12px;fill:#000000;stroke:none;font-family:'&quot;Helvetica&quot;, sans-serif'">0</text>
<text transform="matrix(0,1,1,0,198.72,104.28)" id="text62" style="font-size:12px;fill:#000000;stroke:none;font-family:'&quot;Helvetica&quot;, sans-serif'">2</text>
<text transform="matrix(0,1,1,0,198.72,140.47)" id="text64" style="font-size:12px;fill:#000000;stroke:none;font-family:'&quot;Helvetica&quot;, sans-serif'">4</text>
<text transform="matrix(0,1,1,0,198.72,176.66)" id="text66" style="font-size:12px;fill:#000000;stroke:none;font-family:'&quot;Helvetica&quot;, sans-serif'">6</text>
<text transform="matrix(0,1,1,0,198.72,212.85)" id="text68" style="font-size:12px;fill:#000000;stroke:none;font-family:'&quot;Helvetica&quot;, sans-serif'">8</text>
<text transform="matrix(0,1,1,0,198.72,245.71)" id="text70" style="font-size:12px;fill:#000000;stroke:none;font-family:'&quot;Helvetica&quot;, sans-serif'">10</text>
<text transform="matrix(0,1,1,0,198.72,281.89)" id="text72" style="font-size:12px;fill:#000000;stroke:none;font-family:'&quot;Helvetica&quot;, sans-serif'">12</text>
<line x1="153.89" y1="43.199001" x2="26.113001" y2="43.199001" style="stroke-width:0.75;stroke-linecap:round" id="line74"></line><line x1="153.89" y1="43.199001" x2="153.89" y2="36" style="stroke-width:0.75;stroke-linecap:round" id="line76"></line><line x1="128.33" y1="43.199001" x2="128.33" y2="36" style="stroke-width:0.75;stroke-linecap:round" id="line78"></line><line x1="102.78" y1="43.199001" x2="102.78" y2="36" style="stroke-width:0.75;stroke-linecap:round" id="line80"></line><line x1="77.223" y1="43.199001" x2="77.223" y2="36" style="stroke-width:0.75;stroke-linecap:round" id="line82"></line><line x1="51.672001" y1="43.199001" x2="51.672001" y2="36" style="stroke-width:0.75;stroke-linecap:round" id="line84"></line><line x1="26.113001" y1="43.199001" x2="26.113001" y2="36" style="stroke-width:0.75;stroke-linecap:round" id="line86"></line><text transform="matrix(0,1,1,0,158.2,22.125)" id="text88" style="font-size:12px;fill:#000000;stroke:none;font-family:'&quot;Helvetica&quot;, sans-serif'">0</text>
<text transform="matrix(0,1,1,0,132.64,22.125)" id="text90" style="font-size:12px;fill:#000000;stroke:none;font-family:'&quot;Helvetica&quot;, sans-serif'">2</text>
<text transform="matrix(0,1,1,0,107.09,22.125)" id="text92" style="font-size:12px;fill:#000000;stroke:none;font-family:'&quot;Helvetica&quot;, sans-serif'">4</text>
<text transform="matrix(0,1,1,0,81.531,22.125)" id="text94" style="font-size:12px;fill:#000000;stroke:none;font-family:'&quot;Helvetica&quot;, sans-serif'">6</text>
<text transform="matrix(0,1,1,0,55.973,22.125)" id="text96" style="font-size:12px;fill:#000000;stroke:none;font-family:'&quot;Helvetica&quot;, sans-serif'">8</text>
<text transform="matrix(0,1,1,0,30.422,15.453)" id="text98" style="font-size:12px;fill:#000000;stroke:none;font-family:'&quot;Helvetica&quot;, sans-serif'">10</text>
<polygon points="172.8,316.8 7.2031,316.8 7.2031,43.199 172.8,43.199 172.8,43.199 " id="polygon100" style="stroke-width:0.75;stroke-linejoin:round"></polygon><text transform="matrix(0,1,1,0,213.12,177)" id="text102" style="font-size:12px;fill:#000000;stroke:none;font-family:'&quot;Helvetica&quot;, sans-serif'">x</text>
<text transform="matrix(-1,0,0,1,93,11.519)" id="text104" style="font-size:12px;fill:#000000;stroke:none;font-family:'&quot;Helvetica&quot;, sans-serif'">y</text>
<line x1="109.93" y1="43.199001" x2="7.2069998" y2="188.69" style="stroke:#0000ff;stroke-width:1.5;stroke-linecap:round" id="line106"></line><line x1="172.8" y1="171.31" x2="70.073997" y2="316.79999" style="stroke:#ff0000;stroke-width:1.5;stroke-linecap:round" id="line108"></line><line x1="36.332001" y1="43.199001" x2="143.67" y2="316.79999" style="stroke-width:1.5;stroke-linecap:round;stroke-dasharray:4.5, 7.5" id="line110"></line></g>
</svg>
