<!-- Created with Inkscape (http://www.inkscape.org/) -->
<svg xmlns:dc="http://purl.org/dc/elements/1.1/" xmlns:cc="http://creativecommons.org/ns#" xmlns:rdf="http://www.w3.org/1999/02/22-rdf-syntax-ns#" xmlns:svg="http://www.w3.org/2000/svg" xmlns="http://www.w3.org/2000/svg" xmlns:xlink="http://www.w3.org/1999/xlink" xmlns:inkscape="http://www.inkscape.org/namespaces/inkscape" version="1.1" width="600" height="480" viewBox="0 0 600 480" id="svg2">
  <desc id="desc4">Produced by GNUPLOT 4.0 patchlevel 0 </desc>
  <metadata id="metadata135"></metadata>
  <defs id="defs6">
    <rect width="2" height="2" x="-1" y="-1" id="gpPt3" style="stroke-width:0.111"></rect>
    <circle cx="0" cy="0" r="1" id="gpPt5" style="stroke-width:0.111"></circle>
    <use id="gpPt6" style="fill:currentColor;stroke:none" x="0" y="0" width="1" height="1" xlink:href="#gpPt5"></use>
  </defs>
  <g id="g22" style="color:#000000;fill:none;stroke:currentColor;stroke-width:1">
    <path d="m 86,446 18,0" id="path24"></path>
    <g transform="translate(69,455)" id="g26" style="font-size:25px;text-anchor:end;fill:#000000;stroke:none;font-family:Helvetica">
      <text id="text28">-1</text>
    </g>
    <path d="m 86,240 18,0" id="path30"></path>
    <g transform="translate(69,249)" id="g32" style="font-size:25px;text-anchor:end;fill:#000000;stroke:none;font-family:Helvetica">
      <text id="text34">0</text>
    </g>
    <path d="m 86,34 18,0" id="path36"></path>
    <g transform="translate(69,43)" id="g38" style="font-size:25px;text-anchor:end;fill:#000000;stroke:none;font-family:Helvetica">
      <text id="text40">1</text>
    </g>
    <path d="m 144,240 0,18 m 0,-18 0,-18" id="path42"></path>
    <g transform="translate(144,304)" id="g44" style="font-size:25px;text-anchor:middle;fill:#000000;stroke:none;font-family:Helvetica">
      <text id="text46">1</text>
    </g>
    <path d="m 201,240 0,18 m 0,-18 0,-18" id="path48"></path>
    <g transform="translate(201,304)" id="g50" style="font-size:25px;text-anchor:middle;fill:#000000;stroke:none;font-family:Helvetica">
      <text id="text52">2</text>
    </g>
    <path d="m 259,240 0,18 m 0,-18 0,-18" id="path54"></path>
    <g transform="translate(259,304)" id="g56" style="font-size:25px;text-anchor:middle;fill:#000000;stroke:none;font-family:Helvetica">
      <text id="text58">3</text>
    </g>
    <path d="m 317,240 0,18 m 0,-18 0,-18" id="path60"></path>
    <g transform="translate(317,304)" id="g62" style="font-size:25px;text-anchor:middle;fill:#000000;stroke:none;font-family:Helvetica">
      <text id="text64">4</text>
    </g>
    <path d="m 374,240 0,18 m 0,-18 0,-18" id="path66"></path>
    <g transform="translate(374,304)" id="g68" style="font-size:25px;text-anchor:middle;fill:#000000;stroke:none;font-family:Helvetica">
      <text id="text70">5</text>
    </g>
    <path d="m 432,240 0,18 m 0,-18 0,-18" id="path72"></path>
    <g transform="translate(432,304)" id="g74" style="font-size:25px;text-anchor:middle;fill:#000000;stroke:none;font-family:Helvetica">
      <text id="text76">6</text>
    </g>
    <path d="m 489,240 0,18 m 0,-18 0,-18" id="path78"></path>
    <g transform="translate(489,304)" id="g80" style="font-size:25px;text-anchor:middle;fill:#000000;stroke:none;font-family:Helvetica">
      <text id="text82">7</text>
    </g>
    <path d="m 547,240 0,18 m 0,-18 0,-18" id="path84"></path>
    <g transform="translate(547,304)" id="g86" style="font-size:25px;text-anchor:middle;fill:#000000;stroke:none;font-family:Helvetica">
      <text id="text88">8</text>
    </g>
  </g>
  <g id="g90" style="color:#808080;fill:none;stroke:currentColor;stroke-width:1">
    <path d="m 86,240 461,0" id="path92"></path>
  </g>
  <g id="g94" style="color:#000000;fill:none;stroke:currentColor;stroke-width:1">
    <path d="m 86,446 m 461,0 m 0,-412 m -461,0 0,412" id="path96"></path>
  </g>
  <g id="g98" style="color:#ff0000;fill:none;stroke:currentColor;stroke-width:1">
    <use transform="matrix(4.5,0,0,4.5,86,281)" id="use100" x="0" y="0" width="1" height="1" xlink:href="#gpPt6"></use>
    <use transform="matrix(4.5,0,0,4.5,115,250)" id="use102" x="0" y="0" width="1" height="1" xlink:href="#gpPt6"></use>
    <use transform="matrix(4.5,0,0,4.5,144,219)" id="use104" x="0" y="0" width="1" height="1" xlink:href="#gpPt6"></use>
    <use transform="matrix(4.5,0,0,4.5,172,168)" id="use106" x="0" y="0" width="1" height="1" xlink:href="#gpPt6"></use>
    <use transform="matrix(4.5,0,0,4.5,201,116)" id="use108" x="0" y="0" width="1" height="1" xlink:href="#gpPt6"></use>
    <use transform="matrix(4.5,0,0,4.5,230,100)" id="use110" x="0" y="0" width="1" height="1" xlink:href="#gpPt6"></use>
    <use transform="matrix(4.5,0,0,4.5,259,96)" id="use112" x="0" y="0" width="1" height="1" xlink:href="#gpPt6"></use>
    <use transform="matrix(4.5,0,0,4.5,288,127)" id="use114" x="0" y="0" width="1" height="1" xlink:href="#gpPt6"></use>
    <use transform="matrix(4.5,0,0,4.5,317,158)" id="use116" x="0" y="0" width="1" height="1" xlink:href="#gpPt6"></use>
    <use transform="matrix(4.5,0,0,4.5,345,184)" id="use118" x="0" y="0" width="1" height="1" xlink:href="#gpPt6"></use>
    <use transform="matrix(4.5,0,0,4.5,374,209)" id="use120" x="0" y="0" width="1" height="1" xlink:href="#gpPt6"></use>
  </g>
  <g id="g122" style="color:#000000;fill:none;stroke:currentColor;stroke-width:1">
    <path d="m 86,240 5,0 4,0 5,0 5,0 4,0 5,0 5,0 4,0 5,0 5,0 4,0 5,0 5,0 4,0 5,0 5,0 4,0 5,0 4,0 5,0 5,0 4,0 5,0 5,0 4,0 5,0 5,0 4,0 5,0 5,0 4,0 5,0 5,0 4,0 5,0 5,0 4,0 5,0 5,0 4,0 5,0 5,0 4,0 5,0 5,0 4,0 5,0 5,0 4,0 5,0 4,0 5,0 5,0 4,0 5,0 5,0 4,0 5,0 5,0 4,0 5,0 5,0 4,0 5,0 5,0 4,0 5,0 5,0 4,0 5,0 5,0 4,0 5,0 5,0 4,0 5,0 5,0 4,0 5,0 5,0 4,0 5,0 4,0 5,0 5,0 4,0 5,0 5,0 4,0 5,0 5,0 4,0 5,0 5,0 4,0 5,0 5,0 4,0 5,0" id="path124"></path>
  </g>
  <g id="g126" style="color:#0000ff;fill:none;stroke:currentColor;stroke-width:1">
    <use transform="matrix(9,0,0,9,489,322)" id="use128" x="0" y="0" width="1" height="1" xlink:href="#gpPt3"></use>
  </g>
  <g id="g130" style="color:#000000;fill:none;stroke:currentColor;stroke-width:1">
    <path d="m 86,446 m 461,0 m 0,-412 m -461,0 0,412" id="path132"></path>
  </g>
  <text x="500.48001" y="337.91998" id="text2287" xml:space="preserve" style="font-size:30px;font-style:normal;font-variant:normal;font-weight:normal;font-stretch:normal;text-align:start;line-height:100%;writing-mode:lr-tb;text-anchor:start;fill:#000000;fill-opacity:1;stroke:none;font-family:Bitstream Vera Sans">
    <tspan x="500.48001" y="337.91998" id="tspan2289" style="font-size:50px;font-style:normal;font-variant:normal;font-weight:normal;font-stretch:normal;text-align:start;line-height:100%;writing-mode:lr-tb;text-anchor:start;font-family:Bitstream Vera Sans">?</tspan>
  </text>
</svg>
