<!-- Created with Inkscape (http://www.inkscape.org/) -->
<svg xmlns:dc="http://purl.org/dc/elements/1.1/" xmlns:cc="http://creativecommons.org/ns#" xmlns:rdf="http://www.w3.org/1999/02/22-rdf-syntax-ns#" xmlns:svg="http://www.w3.org/2000/svg" xmlns="http://www.w3.org/2000/svg" xmlns:inkscape="http://www.inkscape.org/namespaces/inkscape" version="1.1" width="600" height="480" viewBox="0 0 600 480" id="svg2">
  <desc id="desc4">Produced by GNUPLOT 4.2 patchlevel 5  </desc>
  <metadata id="metadata172"></metadata>
  <defs id="defs6"></defs>
  <g id="g22" style="color:#ffffff;fill:none;stroke:currentColor;stroke-width:1;stroke-linecap:butt;stroke-linejoin:miter"></g>
  <g id="g24" style="color:#000000;fill:none;stroke:currentColor;stroke-width:1;stroke-linecap:butt;stroke-linejoin:miter">
    <path d="m 71.9,422.4 9,0 m 498.3,0 -9,0" id="path26"></path>
    <g transform="translate(63.6,426.9)" id="g28" style="font-size:15px;text-anchor:end;fill:#000000;stroke:none;font-family:Arial">
      <text id="text30">1</text>
    </g>
    <path d="m 71.9,348.7 9,0 m 498.3,0 -9,0" id="path32"></path>
    <g transform="translate(63.6,353.2)" id="g34" style="font-size:15px;text-anchor:end;fill:#000000;stroke:none;font-family:Arial">
      <text id="text36">2</text>
    </g>
    <path d="m 71.9,275 9,0 m 498.3,0 -9,0" id="path38"></path>
    <g transform="translate(63.6,279.5)" id="g40" style="font-size:15px;text-anchor:end;fill:#000000;stroke:none;font-family:Arial">
      <text id="text42">3</text>
    </g>
    <path d="m 71.9,201.4 9,0 m 498.3,0 -9,0" id="path44"></path>
    <g transform="translate(63.6,205.9)" id="g46" style="font-size:15px;text-anchor:end;fill:#000000;stroke:none;font-family:Arial">
      <text id="text48">4</text>
    </g>
    <path d="m 71.9,127.7 9,0 m 498.3,0 -9,0" id="path50"></path>
    <g transform="translate(63.6,132.2)" id="g52" style="font-size:15px;text-anchor:end;fill:#000000;stroke:none;font-family:Arial">
      <text id="text54">5</text>
    </g>
    <path d="m 71.9,54 9,0 m 498.3,0 -9,0" id="path56"></path>
    <g transform="translate(63.6,58.5)" id="g58" style="font-size:15px;text-anchor:end;fill:#000000;stroke:none;font-family:Arial">
      <text id="text60">6</text>
    </g>
    <path d="m 71.9,422.4 0,-9 m 0,-359.4 0,9" id="path62"></path>
    <g transform="translate(71.9,444.9)" id="g64" style="font-size:15px;text-anchor:middle;fill:#000000;stroke:none;font-family:Arial">
      <text id="text66">0</text>
    </g>
    <path d="m 122.6,422.4 0,-9 m 0,-359.4 0,9" id="path68"></path>
    <g transform="translate(122.6,444.9)" id="g70" style="font-size:15px;text-anchor:middle;fill:#000000;stroke:none;font-family:Arial">
      <text id="text72">100</text>
    </g>
    <path d="m 173.4,422.4 0,-9 m 0,-359.4 0,9" id="path74"></path>
    <g transform="translate(173.4,444.9)" id="g76" style="font-size:15px;text-anchor:middle;fill:#000000;stroke:none;font-family:Arial">
      <text id="text78">200</text>
    </g>
    <path d="m 224.1,422.4 0,-9 m 0,-359.4 0,9" id="path80"></path>
    <g transform="translate(224.1,444.9)" id="g82" style="font-size:15px;text-anchor:middle;fill:#000000;stroke:none;font-family:Arial">
      <text id="text84">300</text>
    </g>
    <path d="m 274.8,422.4 0,-9 m 0,-359.4 0,9" id="path86"></path>
    <g transform="translate(274.8,444.9)" id="g88" style="font-size:15px;text-anchor:middle;fill:#000000;stroke:none;font-family:Arial">
      <text id="text90">400</text>
    </g>
    <path d="m 325.6,422.4 0,-9 m 0,-359.4 0,9" id="path92"></path>
    <g transform="translate(325.6,444.9)" id="g94" style="font-size:15px;text-anchor:middle;fill:#000000;stroke:none;font-family:Arial">
      <text id="text96">500</text>
    </g>
    <path d="m 376.3,422.4 0,-9 m 0,-359.4 0,9" id="path98"></path>
    <g transform="translate(376.3,444.9)" id="g100" style="font-size:15px;text-anchor:middle;fill:#000000;stroke:none;font-family:Arial">
      <text id="text102">600</text>
    </g>
    <path d="m 427,422.4 0,-9 m 0,-359.4 0,9" id="path104"></path>
    <g transform="translate(427,444.9)" id="g106" style="font-size:15px;text-anchor:middle;fill:#000000;stroke:none;font-family:Arial">
      <text id="text108">700</text>
    </g>
    <path d="m 477.7,422.4 0,-9 m 0,-359.4 0,9" id="path110"></path>
    <g transform="translate(477.7,444.9)" id="g112" style="font-size:15px;text-anchor:middle;fill:#000000;stroke:none;font-family:Arial">
      <text id="text114">800</text>
    </g>
    <path d="m 528.5,422.4 0,-9 m 0,-359.4 0,9" id="path116"></path>
    <g transform="translate(528.5,444.9)" id="g118" style="font-size:15px;text-anchor:middle;fill:#000000;stroke:none;font-family:Arial">
      <text id="text120">900</text>
    </g>
    <path d="m 579.2,422.4 0,-9 m 0,-359.4 0,9" id="path122"></path>
    <g transform="translate(579.2,444.9)" id="g124" style="font-size:15px;text-anchor:middle;fill:#000000;stroke:none;font-family:Arial">
      <text id="text126">1000</text>
    </g>
    <path d="m 71.9,54 0,368.4 507.3,0 0,-368.4 -507.3,0 z" id="path128"></path>
    <g transform="matrix(0,-1,1,0,34.2,238.2)" id="g130" style="font-size:15px;text-anchor:middle;fill:#000000;stroke:none;font-family:Arial">
      <text id="text132">mean value</text>
    </g>
    <g transform="translate(325.5,471.9)" id="g134" style="font-size:15px;text-anchor:middle;fill:#000000;stroke:none;font-family:Arial">
      <text id="text136">trials</text>
    </g>
    <g transform="translate(325.5,31.5)" id="g138" style="font-size:15px;text-anchor:middle;fill:#000000;stroke:none;font-family:Arial">
      <text id="text140">average dice value against number of rolls</text>
    </g>
  </g>
  <g id="g142" style="color:#ff0000;fill:none;stroke:currentColor;stroke-width:1;stroke-linecap:butt;stroke-linejoin:miter"></g>
  <g id="g144" style="color:#000000;fill:none;stroke:currentColor;stroke-width:1;stroke-linecap:butt;stroke-linejoin:miter">
    <g transform="translate(512.1,76.5)" id="g146" style="font-size:15px;text-anchor:end;fill:#000000;stroke:none;font-family:Arial">
      <text id="text148">average</text>
    </g>
  </g>
  <g id="g150" style="color:#ff0000;fill:none;stroke:currentColor;stroke-width:1;stroke-linecap:butt;stroke-linejoin:miter">
    <path d="m 520.4,72 42.2,0 m -490.2,350.4 0.5,0 0.5,-24.6 0.5,-67.5 0.5,-55.3 0.5,-12.2 0.6,-29.9 0.5,5.3 0.5,4.1 0.5,18 0.5,-18.8 0.5,-3.3 0.5,8.5 0.5,12.6 0.5,10.8 0.5,-8.9 0.5,0.8 0.5,-3.3 0.5,8.6 0.5,7.7 0.6,7.1 0.5,-3.7 0.5,-3.4 0.5,0 0.5,0 0.5,-5.6 0.5,-5.3 0.5,-7.5 0.5,-1.9 0.5,3.1 0.5,0.6 0.5,5.1 0.5,-4.1 0.5,2.6 0.6,-3.8 0.5,-3.6 0.5,-5.4 0.5,0.6 0.5,-3.1 0.5,0.7 0.5,2.5 0.5,-4.7 0.5,-4.4 0.5,4.1 0.5,3.9 0.5,-4.2 0.5,-2.5 0.6,-0.8 0.5,-3.9 0.5,-0.7 0.5,2.2 0.5,-0.7 0.5,2.1 0.5,3.4 0.5,-0.8 0.5,-2.1 0.5,3.2 0.5,-3.3 0.5,-3.1 0.5,3.1 0.5,0.5 0.6,-3 0.5,2.9 0.5,2.9 0.5,-3 0.5,0.5 0.5,-0.6 0.5,-2.7 0.5,2.7 0.5,0.5 0.5,-0.6 0.5,-2.6 0.5,0.5 0.5,-1.5 0.5,0.5 0.6,2.4 0.5,1.4 0.5,0.5 0.5,1.3 0.5,-0.5 0.5,0.4 0.5,-0.5 0.5,1.3 0.5,-1.4 0.5,1.2 0.5,0.4 0.5,-1.3 0.5,2 0.5,-2.1 0.6,1.1 0.5,0.4 0.5,-2.1 0.5,1.1 0.5,-0.4 0.5,1.9 0.5,-2 0.5,1.9 0.5,1.8 0.5,1.7 0.5,1.1 0.5,1.7 0.5,-2 0.6,-0.4 0.5,0.2 0.5,-1.8 0.5,-1.8 0.5,0.9 0.5,0.3 0.5,-0.4 0.5,1.6 0.5,-1.1 0.5,1.6 0.5,0.9 0.5,0.8 0.5,-0.4 0.5,0.9 0.6,0.8 0.5,-1 0.5,-1.1 0.5,-1.6 0.5,0.8 0.5,0.9 0.5,0.8 0.5,-1.6 0.5,-1.6 0.5,0.3 0.5,-0.4 0.5,-0.9 0.5,0.8 0.5,0.2 0.6,-0.9 0.5,-1.5 0.5,-1.4 0.5,0.8 0.5,0.8 0.5,-0.3 0.5,0.2 0.5,0.7 0.5,0.3 0.5,1.2 0.5,1.3 0.5,0.7 0.5,0.7 0.6,-0.9 0.5,0.7 0.5,-0.8 0.5,0.7 0.5,-0.3 0.5,1.1 0.5,1.2 0.5,0.1 0.5,0.2 0.5,-0.8 0.5,1.1 0.5,1.1 0.5,0.6 0.5,0.6 0.6,1.1 0.5,0.6 0.5,-0.4 0.5,-1.2 0.5,0.1 0.5,0.1 0.5,1.1 0.5,0.1 0.5,-0.3 0.5,1 0.5,1 0.5,0.1 0.5,-0.8 0.5,0.5 0.6,-1.1 0.5,-1.2 0.5,0.1 0.5,-0.7 0.5,0.5 0.5,0.1 0.5,-1.1 0.5,1 0.5,0.1 0.5,-1.1 0.5,-1.1 0.5,0.9 0.5,0.9 0.6,-0.7 0.5,0.9 0.5,0.2 0.5,0.5 0.5,-0.7 0.5,0.9 0.5,0.1 0.5,-0.7 0.5,0.1 0.5,-0.3 0.5,0.1 0.5,0.1 0.5,0.5 0.5,-0.3 0.6,-0.2 0.5,-0.7 0.5,-0.2 0.5,0.4 0.5,0.2 0.5,0.1 0.5,-0.3 0.5,0.5 0.5,-1 0.5,-0.3 0.5,-0.9 0.5,-0.3 0.5,-0.9 0.5,0.1 0.6,-0.2 0.5,-0.3 0.5,0.2 0.5,-0.3 0.5,-0.9 0.5,0.1 0.5,-0.5 0.5,-0.6 0.5,0.1 0.5,0.5 0.5,0.8 0.5,-0.6 0.5,-0.2 0.5,-0.9 0.6,0.8 0.5,0.8 0.5,0.1 0.5,0.1 0.5,-0.9 0.5,-0.2 0.5,-0.5 0.5,-0.2 0.5,-0.5 0.5,0.4 0.5,-0.8 0.5,-0.5 0.5,-0.8 0.6,0.4 0.5,0.7 0.5,0.4 0.5,0.2 0.5,-0.5 0.5,-0.2 0.5,-0.2 0.5,-0.8 0.5,-0.8 0.5,0.7 0.5,-0.7 0.5,-0.8 0.5,-0.2 0.5,0.7 0.6,0.7 0.5,-0.1 0.5,0.4 0.5,-0.5 0.5,0.1 0.5,-0.2 0.5,-0.1 0.5,0.6 0.5,-0.1 0.5,0.6 0.5,-0.7 0.5,-0.2 0.5,-0.4 0.5,0.1 0.6,0.4 0.5,0.7 0.5,0.3 0.5,-0.1 0.5,-0.7 0.5,0.6 0.5,0.4 0.5,-0.2 0.5,0.4 0.5,-0.7 0.5,-0.4 0.5,-0.2 0.5,0.6 0.6,0.1 0.5,0.6 0.5,-0.1 0.5,-0.4 0.5,-0.5 0.5,0.1 0.5,0.4 0.5,0.4 0.5,0.6 0.5,0.1 0.5,0.6 0.5,-0.7 0.5,0.6 0.5,-0.2 0.6,-0.1 0.5,-0.7 0.5,0.6 0.5,0.3 0.5,-0.1 0.5,-0.2 0.5,-0.6 0.5,-0.7 0.5,-0.6 0.5,0.1 0.5,-0.1 0.5,-0.4 0.5,0.3 0.5,0.1 0.6,-0.4 0.5,-0.6 0.5,0.3 0.5,-0.6 0.5,-0.1 0.5,-0.4 0.5,0.6 0.5,0.1 0.5,-0.6 0.5,-0.2 0.5,0.6 0.5,-0.2 0.5,0.4 0.6,-0.6 0.5,-0.2 0.5,0.4 0.5,0.3 0.5,0.3 0.5,0.5 0.5,-0.5 0.5,-0.6 0.5,-0.1 0.5,0.5 0.5,0.1 0.5,0.3 0.5,-0.4 0.5,0.3 0.6,0.1 0.5,-0.5 0.5,-0.6 0.5,-0.6 0.5,-0.3 0.5,0.5 0.5,0.5 0.5,0.6 0.5,-0.6 0.5,-0.3 0.5,0.1 0.5,-0.6 0.5,-0.3 0.5,-0.1 0.6,-0.4 0.5,-0.5 0.5,-0.1 0.5,0.3 0.5,0.1 0.5,0.3 0.5,0.5 0.5,0.5 0.5,-0.1 0.5,0.2 0.5,-0.1 0.5,-0.5 0.5,0.3 0.5,-0.5 0.6,-0.3 0.5,0.2 0.5,0.3 0.5,-0.3 0.5,-0.1 0.5,0.1 0.5,-0.5 0.5,-0.5 0.5,-0.5 0.5,-0.1 0.5,0.4 0.5,0.1 0.5,-0.5 0.6,-0.5 0.5,0.1 0.5,-0.5 0.5,0.1 0.5,-0.1 0.5,-0.5 0.5,-0.3 0.5,-0.1 0.5,0.5 0.5,-0.5 0.5,0.3 0.5,0.5 0.5,0.1 0.5,-0.3 0.6,-0.5 0.5,-0.3 0.5,0.5 0.5,-0.3 0.5,0.3 0.5,-0.5 0.5,0.1 0.5,-0.1 0.5,-0.3 0.5,0.3 0.5,-0.3 0.5,0.3 0.5,-0.5 0.5,0.3 0.6,0.1 0.5,-0.1 0.5,-0.1 0.5,-0.5 0.5,0.1 0.5,-0.4 0.5,0.1 0.5,-0.5 0.5,0.3 0.5,-0.3 0.5,-0.4 0.5,0.1 0.5,-0.3 0.6,-0.4 0.5,0.2 0.5,0.1 0.5,0.1 0.5,0.1 0.5,-0.3 0.5,0.1 0.5,-0.1 0.5,-0.4 0.5,0.5 0.5,-0.1 0.5,-0.1 0.5,-0.4 0.5,-0.1 0.6,-0.3 0.5,-0.4 0.5,-0.2 0.5,0 0.5,-0.4 0.5,0.3 0.5,0.2 0.5,0.3 0.5,0.1 0.5,-0.3 0.5,0.1 0.5,0.3 0.5,-0.3 0.5,0.3 0.6,-0.4 0.5,0.2 0.5,0.5 0.5,-0.1 0.5,-0.4 0.5,0.1 0.5,0.2 0.5,-0.2 0.5,-0.1 0.5,-0.1 0.5,-0.1 0.5,-0.4 0.5,0.3 0.6,-0.1 0.5,-0.1 0.5,0 0.5,0 0.5,-0.3 0.5,0.2 0.5,0.2 0.5,-0.3 0.5,0.2 0.5,0.4 0.5,0.4 0.5,0.4 0.5,-0.1 0.5,-0.1 0.6,0.3 0.5,0.4 0.5,0.4 0.5,0.3 0.5,-0.2 0.5,0.2 0.5,0.1 0.5,-0.1 0.5,-0.3 0.5,0.3 0.5,0.4 0.5,-0.4 0.5,0 0.5,-0.4 0.6,-0.1 0.5,0.2 0.5,-0.2 0.5,0.4 0.5,-0.4 0.5,-0.3 0.5,0 0.5,0.1 0.5,-0.2 0.5,-0.1 0.5,0.4 0.5,0.4 0.5,0.2 0.6,0.2 0.5,-0.2 0.5,-0.2 0.5,0.3 0.5,0.1 0.5,0.1 0.5,-0.2 0.5,-0.1 0.5,-0.1 0.5,0.1 0.5,-0.2 0.5,0 0.5,0.4 0.5,-0.2 0.6,-0.4 0.5,0 0.5,-0.4 0.5,-0.1 0.5,-0.3 0.5,-0.4 0.5,0 0.5,0.3 0.5,0.2 0.5,0.1 0.5,-0.3 0.5,0.2 0.5,-0.2 0.5,0.3 0.6,0.1 0.5,0.3 0.5,0.1 0.5,0.1 0.5,-0.4 0.5,0.1 0.5,0.1 0.5,0.3 0.5,0.2 0.5,-0.3 0.5,0.1 0.5,0.3 0.5,0.3 0.5,0.2 0.6,-0.2 0.5,0 0.5,0.2 0.5,-0.2 0.5,0 0.5,0.2 0.5,-0.2 0.5,-0.3 0.5,-0.3 0.5,0 0.5,-0.2 0.5,0 0.5,-0.4 0.6,-0.3 0.5,0.1 0.5,0.3 0.5,0.3 0.5,0.2 0.5,0.1 0.5,-0.1 0.5,0.4 0.5,0 0.5,0.4 0.5,-0.1 0.5,-0.2 0.5,-0.1 0.5,-0.2 0.6,0.1 0.5,-0.3 0.5,-0.3 0.5,-0.2 0.5,0.3 0.5,-0.3 0.5,-0.1 0.5,0.3 0.5,0.2 0.5,-0.2 0.5,-0.2 0.5,0.2 0.5,0.2 0.5,-0.2 0.6,-0.3 0.5,-0.3 0.5,0 0.5,-0.2 0.5,0.3 0.5,-0.1 0.5,0.3 0.5,-0.1 0.5,0.1 0.5,0 0.5,0.2 0.5,0.3 0.5,0.2 0.6,-0.1 0.5,-0.2 0.5,0.3 0.5,-0.3 0.5,-0.3 0.5,0.2 0.5,-0.2 0.5,0.1 0.5,0.2 0.5,-0.2 0.5,0.2 0.5,0 0.5,0.2 0.5,0 0.6,-0.2 0.5,0 0.5,0.3 0.5,0.3 0.5,0.2 0.5,0.3 0.5,-0.2 0.5,-0.1 0.5,-0.1 0.5,-0.2 0.5,-0.3 0.5,0.2 0.5,-0.3 0.5,0.3 0.6,-0.1 0.5,-0.1 0.5,0.1 0.5,-0.2 0.5,-0.3 0.5,0.3 0.5,0.2 0.5,-0.2 0.5,-0.1 0.5,-0.2 0.5,0.1 0.5,0.2 0.5,0 0.6,0.2 0.5,-0.1 0.5,0 0.5,0.3 0.5,-0.2 0.5,-0.3 0.5,-0.2 0.5,0.3 0.5,-0.1 0.5,-0.1 0.5,0.2 0.5,0.1 0.5,0.3 0.5,0.3 0.6,0.3 0.5,0.3 0.5,0.3 0.5,-0.1 0.5,0.3 0.5,-0.1 0.5,-0.1 0.5,-0.2 0.5,0 0.5,0.1 0.5,0 0.5,0.3 0.5,0.3 0.5,0.1 0.6,-0.3 0.5,0 0.5,0.1 0.5,0.3 0.5,-0.1 0.5,-0.3 0.5,0.1 0.5,0.2 0.5,-0.1 0.5,-0.2 0.5,0.2 0.5,0.2 0.5,0.3 0.5,-0.3 0.6,-0.1 0.5,0 0.5,0 0.5,-0.1 0.5,0.2 0.5,0.1 0.5,0.1 0.5,-0.3 0.5,0.2 0.5,-0.1 0.5,-0.3 0.5,0.3 0.5,-0.3 0.6,-0.2 0.5,0.2 0.5,0.2 0.5,0.3 0.5,-0.1 0.5,0.3 0.5,-0.3 0.5,-0.1 0.5,0 0.5,-0.1 0.5,0.2 0.5,-0.1 0.5,0.1 0.5,0 0.6,0 0.5,0.1 0.5,0.1 0.5,-0.2 0.5,-0.2 0.5,-0.3 0.5,0 0.5,-0.2 0.5,-0.1 0.5,-0.1 0.5,-0.3 0.5,0.3 0.5,-0.2 0.5,0.1 0.6,0 0.5,-0.1 0.5,-0.2 0.5,0.1 0.5,-0.3 0.5,0.3 0.5,0.1 0.5,0.2 0.5,0 0.5,0.3 0.5,-0.3 0.5,0 0.5,0 0.6,0 0.5,0.1 0.5,0 0.5,0 0.5,0.2 0.5,-0.2 0.5,-0.2 0.5,0 0.5,0.1 0.5,0.3 0.5,-0.2 0.5,-0.1 0.5,-0.3 0.5,-0.2 0.6,0.1 0.5,0.1 0.5,0 0.5,0.3 0.5,-0.1 0.5,0.3 0.5,-0.3 0.5,0.2 0.5,-0.2 0.5,0.3 0.5,0.1 0.5,0.3 0.5,0 0.5,-0.2 0.6,0.1 0.5,0.1 0.5,0.3 0.5,0.2 0.5,0.2 0.5,-0.1 0.5,0.3 0.5,-0.2 0.5,-0.2 0.5,0.2 0.5,0 0.5,-0.3 0.5,0.2 0.6,0.3 0.5,-0.3 0.5,-0.2 0.5,0.2 0.5,0 0.5,-0.2 0.5,-0.2 0.5,-0.1 0.5,-0.1 0.5,0.1 0.5,0.1 0.5,-0.1 0.5,-0.1 0.5,-0.1 0.6,-0.3 0.5,0 0.5,0 0.5,-0.1 0.5,-0.3 0.5,0.1 0.5,0 0.5,0 0.5,-0.2 0.5,0.2 0.5,0.1 0.5,-0.1 0.5,0 0.5,0.3 0.6,-0.2 0.5,0 0.5,-0.3 0.5,-0.1 0.5,0.1 0.5,0.2 0.5,0.2 0.5,-0.1 0.5,-0.3 0.5,0.2 0.5,0.1 0.5,0 0.5,0.2 0.5,-0.2 0.6,0.1 0.5,-0.1 0.5,0.2 0.5,0 0.5,0.2 0.5,0.2 0.5,0.1 0.5,0 0.5,0.2 0.5,-0.1 0.5,-0.2 0.5,0.1 0.5,0.3 0.6,0.2 0.5,-0.1 0.5,0.1 0.5,-0.2 0.5,-0.2 0.5,-0.2 0.5,0 0.5,0.2 0.5,0.2 0.5,0.2 0.5,0.1 0.5,-0.3 0.5,0.2 0.5,-0.2 0.6,-0.2 0.5,0.1 0.5,-0.1 0.5,0 0.5,-0.2 0.5,0.2 0.5,0.1 0.5,-0.1 0.5,-0.1 0.5,-0.1 0.5,-0.1 0.5,-0.2 0.5,0 0.5,-0.2 0.6,-0.1 0.5,0 0.5,0 0.5,0 0.5,0.3 0.5,0 0.5,-0.2 0.5,-0.1 0.5,0 0.5,-0.2 0.5,0.1 0.5,0 0.5,-0.1 0.6,0 0.5,-0.2 0.5,0.1 0.5,0 0.5,-0.2 0.5,0.2 0.5,0 0.5,-0.1 0.5,0.3 0.5,0 0.5,0 0.5,0 0.5,0 0.5,0.1 0.6,-0.1 0.5,-0.1 0.5,0 0.5,0 0.5,0.1 0.5,-0.1 0.5,-0.1 0.5,-0.1 0.5,0.2 0.5,0.2 0.5,0.2 0.5,-0.2 0.5,0 0.5,0.1 0.6,-0.2 0.5,-0.2 0.5,0 0.5,0 0.5,0 0.5,-0.2 0.5,-0.2 0.5,0 0.5,-0.2 0.5,0 0.5,0.2 0.5,-0.2 0.5,0 0.6,0 0.5,0.2 0.5,0.1 0.5,0 0.5,-0.1 0.5,0 0.5,0 0.5,0 0.5,-0.1 0.5,0.1 0.5,-0.1 0.5,-0.2 0.5,0.1 0.5,-0.2 0.6,0.1 0.5,0.1 0.5,0 0.5,0 0.5,-0.2 0.5,0 0.5,0 0.5,-0.1 0.5,-0.2 0.5,-0.1 0.5,0.1 0.5,0.2 0.5,-0.2 0.5,0 0.6,0.2 0.5,0.1 0.5,-0.2 0.5,-0.1 0.5,-0.1 0.5,-0.2 0.5,-0.1 0.5,0 0.5,0.1 0.5,0.2 0.5,-0.1 0.5,0.1 0.5,-0.1 0.5,0.2 0.6,-0.2 0.5,0 0.5,0 0.5,-0.2 0.5,0.1 0.5,0 0.5,0.1 0.5,0.1 0.5,-0.1 0.5,0.2 0.5,0 0.5,0 0.5,-0.1 0.6,0.1 0.5,-0.1 0.5,-0.2 0.5,-0.2 0.5,0.2 0.5,-0.1 0.5,-0.2 0.5,-0.1 0.5,0 0.5,0 0.5,0.1 0.5,-0.1 0.5,0.1 0.5,0 0.6,0.1 0.5,-0.2 0.5,-0.2 0.5,-0.1 0.5,0.1 0.5,-0.1 0.5,-0.1 0.5,0.1 0.5,-0.1 0.5,-0.2 0.5,0 0.5,0.1 0.5,0.1 0.5,0.2 0.6,-0.1 0.5,0.1 0.5,0.1 0.5,0.2 0.5,0.1 0.5,0.2 0.5,0.1" id="path152"></path>
  </g>
  <g id="g154" style="color:#008000;fill:none;stroke:currentColor;stroke-width:1;stroke-linecap:butt;stroke-linejoin:miter"></g>
  <g id="g156" style="color:#000000;fill:none;stroke:currentColor;stroke-width:1;stroke-linecap:butt;stroke-linejoin:miter">
    <g transform="translate(512.1,94.5)" id="g158" style="font-size:15px;text-anchor:end;fill:#000000;stroke:none;font-family:Arial">
      <text id="text160">y=3.5</text>
    </g>
  </g>
  <g id="g162" style="color:#008000;fill:none;stroke:currentColor;stroke-width:1;stroke-linecap:butt;stroke-linejoin:miter">
    <path d="m 520.4,90 42.2,0 m -490.2,148.2 5.1,0 5.1,0 5.2,0 5.1,0 5.1,0 5.1,0 5.1,0 5.2,0 5.1,0 5.1,0 5.1,0 5.1,0 5.2,0 5.1,0 5.1,0 5.1,0 5.1,0 5.2,0 5.1,0 5.1,0 5.1,0 5.1,0 5.1,0 5.2,0 5.1,0 5.1,0 5.1,0 5.1,0 5.2,0 5.1,0 5.1,0 5.1,0 5.1,0 5.2,0 5.1,0 5.1,0 5.1,0 5.1,0 5.2,0 5.1,0 5.1,0 5.1,0 5.1,0 5.1,0 5.2,0 5.1,0 5.1,0 5.1,0 5.1,0 5.2,0 5.1,0 5.1,0 5.1,0 5.1,0 5.2,0 5.1,0 5.1,0 5.1,0 5.1,0 5.2,0 5.1,0 5.1,0 5.1,0 5.1,0 5.1,0 5.2,0 5.1,0 5.1,0 5.1,0 5.1,0 5.2,0 5.1,0 5.1,0 5.1,0 5.1,0 5.2,0 5.1,0 5.1,0 5.1,0 5.1,0 5.2,0 5.1,0 5.1,0 5.1,0 5.1,0 5.2,0 5.1,0 5.1,0 5.1,0 5.1,0 5.1,0 5.2,0 5.1,0 5.1,0 5.1,0 5.1,0 5.2,0 5.1,0 5.1,0" id="path164"></path>
  </g>
  <g id="g166" style="color:#000000;fill:none;stroke:currentColor;stroke-width:1;stroke-linecap:butt;stroke-linejoin:miter">
    <path d="m 71.9,54 0,368.4 507.3,0 0,-368.4 -507.3,0 z" id="path168"></path>
  </g>
</svg>
