<!-- Created with Inkscape (http://www.inkscape.org/) -->
<svg xmlns:dc="http://purl.org/dc/elements/1.1/" xmlns:cc="http://creativecommons.org/ns#" xmlns:rdf="http://www.w3.org/1999/02/22-rdf-syntax-ns#" xmlns:svg="http://www.w3.org/2000/svg" xmlns="http://www.w3.org/2000/svg" xmlns:xlink="http://www.w3.org/1999/xlink" xmlns:inkscape="http://www.inkscape.org/namespaces/inkscape" version="1.1" width="180pt" height="180pt" viewBox="0 0 180 180" id="svg1">
  <metadata id="metadata186"></metadata>
  <defs id="defs184"></defs>
  <filter color-interpolation-filters="sRGB" id="colorAdd">
    <feComposite in2="BackgroundImage" operator="arithmetic" k1="0" k2="1" k3="1" k4="0" in="SourceGraphic" id="feComposite4"></feComposite>
  </filter>
  <g id="figure1">
    <g id="patch1">
      <path d="M 0,180 180,180 180,0 0,0 0,180" id="path8" style="fill:#ffffff;stroke:#ffffff;stroke-width:1;stroke-linecap:square;stroke-linejoin:round"></path>
    </g>
    <g id="axes1">
      <g id="patch2">
        <path d="m 5.4,84.6 81,0 0,-81 -81,0 0,81" id="path12" style="fill:#ffffff"></path>
      </g>
      <g id="line2d1">
        <defs id="defs15">
          <clipPath id="pc7e44e6eb564e6e8c6674c2516f94d95">
            <rect width="81" height="81" x="5.4000001" y="3.5999999" id="rect18"></rect>
          </clipPath>
        </defs>
        <path d="m 5.4,84.599706 10.98995,-0.10308 2.849246,-0.246656 1.628141,-0.314724 1.62814,-0.547712 1.221106,-0.640686 1.221105,-0.915589 1.221106,-1.275003 1.221105,-1.729434 1.221106,-2.283873 1.221106,-2.934709 1.221105,-3.666696 1.221106,-4.450597 1.221105,-5.242127 1.628141,-8.123212 2.035176,-11.494153 3.256281,-18.646208 1.221106,-5.958853 1.221105,-4.838423 0.814071,-2.449922 0.81407,-1.743833 0.81407,-0.986058 0.407035,-0.19871 0.407036,0 0.407035,0.19871 0.407035,0.395918 0.81407,1.370072 0.814071,2.104631 0.81407,2.777346 1.221106,5.248832 1.62814,8.501731 5.698493,31.925719 1.62814,7.15854 1.221106,4.450597 1.221105,3.666696 1.221106,2.934709 1.221106,2.283873 1.221105,1.729434 1.221106,1.275003 1.221105,0.915589 1.221106,0.640686 1.62814,0.547712 2.035176,0.368459 2.442211,0.192921 4.477387,0.09153 6.512563,0.01155 0,0" clip-path="url(#pc7e44e6eb564e6e8c6674c2516f94d95)" id="path20" style="opacity:0.7;fill:none;stroke:#ffa500;stroke-width:3;stroke-linecap:square;stroke-linejoin:round"></path>
      </g>
      <g id="line2d2">
        <path d="m 5.4,84.599979 15.060302,-0.104303 2.849246,-0.248612 1.62814,-0.316997 1.628141,-0.551363 1.221106,-0.644646 1.221105,-0.920852 1.221106,-1.281776 1.221105,-1.737851 1.221106,-2.293955 1.221105,-2.946304 1.221106,-3.679439 1.221105,-4.46387 1.221106,-5.255069 1.628141,-8.138068 2.035175,-11.504798 3.256282,-18.633449 1.221105,-5.942986 1.221106,-4.816988 0.81407,-2.433064 0.814071,-1.72543 0.407035,-0.580523 0.407035,-0.386116 0.407035,-0.188798 0.407035,0.00995 0.407036,0.208619 0.407035,0.405712 0.81407,1.389026 0.81407,2.122286 0.814071,2.793208 1.221105,5.268416 1.628141,8.518708 5.698492,31.9095 1.628141,7.141517 1.221106,4.437326 1.221105,3.653969 1.221106,2.923136 1.221105,2.273818 1.221106,1.721044 1.221105,1.268257 1.221106,0.91035 1.221105,0.636747 1.628141,0.544081 2.035176,0.365793 2.849246,0.20864 5.291457,0.07902 1.221106,0.003 0,0" clip-path="url(#pc7e44e6eb564e6e8c6674c2516f94d95)" id="path23" style="opacity:0.7;fill:none;stroke:#800080;stroke-width:3;stroke-linecap:square;stroke-linejoin:round"></path>
      </g>
      <g id="matplotlib.axis1"></g>
      <g id="matplotlib.axis2"></g>
      <g id="patch3">
        <path d="m 5.4,3.6 81,0" id="path28" style="fill:none;stroke:#000000;stroke-width:1;stroke-linecap:square;stroke-linejoin:round"></path>
      </g>
      <g id="patch4">
        <path d="m 86.4,84.6 0,-81" id="path31" style="fill:none;stroke:#000000;stroke-width:1;stroke-linecap:square;stroke-linejoin:round"></path>
      </g>
      <g id="patch5">
        <path d="m 5.4,84.6 81,0" id="path34" style="fill:none;stroke:#000000;stroke-width:1;stroke-linecap:square;stroke-linejoin:round"></path>
      </g>
      <g id="patch6">
        <path d="m 5.4,84.6 0,-81" id="path37" style="fill:none;stroke:#000000;stroke-width:1;stroke-linecap:square;stroke-linejoin:round"></path>
      </g>
      <g id="text1">
        <defs id="defs40">
          <path d="m 45.40625,-46.390625 0,-29.59375 8.984375,0 0,75.984375 -8.984375,0 0,-8.203125 q -2.828125,4.875 -7.15625,7.25 -4.3125,2.375 -10.375,2.375 -9.90625,0 -16.140625,-7.90625 -6.21875,-7.921875 -6.21875,-20.8125 0,-12.890625 6.21875,-20.796875 Q 17.96875,-56 27.875,-56 q 6.0625,0 10.375,2.375 4.328125,2.359375 7.15625,7.234375 m -30.609375,19.09375 q 0,9.90625 4.078125,15.546875 4.078125,5.640625 11.203125,5.640625 7.125,0 11.21875,-5.640625 4.109375,-5.640625 4.109375,-15.546875 0,-9.90625 -4.109375,-15.546875 -4.09375,-5.640625 -11.21875,-5.640625 -7.125,0 -11.203125,5.640625 -4.078125,5.640625 -4.078125,15.546875" id="c_d821beae607506e87470f334d9ff47af"></path>
          <path d="m 10.59375,-45.40625 62.59375,0 0,8.203125 -62.59375,0 z m 0,19.921875 62.59375,0 0,8.296875 -62.59375,0 z" id="c_8c0379a31aa3b07b28207e25658c6113"></path>
          <path d="m 31.78125,-66.40625 q -7.609375,0 -11.453125,7.5 Q 16.5,-51.421875 16.5,-36.375 q 0,14.984375 3.828125,22.484375 3.84375,7.5 11.453125,7.5 7.671875,0 11.5,-7.5 3.84375,-7.5 3.84375,-22.484375 0,-15.046875 -3.84375,-22.53125 -3.828125,-7.5 -11.5,-7.5 m 0,-7.8125 q 12.265625,0 18.734375,9.703125 6.46875,9.6875 6.46875,28.140625 0,18.40625 -6.46875,28.109375 -6.46875,9.6875 -18.734375,9.6875 -12.25,0 -18.71875,-9.6875 Q 6.59375,-17.96875 6.59375,-36.375 q 0,-18.453125 6.46875,-28.140625 6.46875,-9.703125 18.71875,-9.703125" id="c_7a2040fe3b94fcd41d0a72c84e93b115"></path>
          <path d="m 10.6875,-12.40625 10.3125,0 L 21,0 10.6875,0 z" id="c_ed3e21196fb739f392806f09ca0594ef"></path>
          <path d="m 10.796875,-72.90625 38.71875,0 0,8.3125 -29.6875,0 0,17.859375 q 2.140625,-0.734375 4.28125,-1.09375 2.15625,-0.359375 4.3125,-0.359375 12.203125,0 19.328125,6.6875 7.140625,6.6875 7.140625,18.109375 0,11.765625 -7.328125,18.296875 -7.328125,6.515625 -20.65625,6.515625 -4.59375,0 -9.359375,-0.78125 -4.75,-0.78125 -9.828125,-2.34375 l 0,-9.921875 q 4.390625,2.390625 9.078125,3.5625 4.6875,1.171875 9.90625,1.171875 8.453125,0 13.375,-4.4375 4.9375,-4.4375 4.9375,-12.0625 0,-7.609375 -4.9375,-12.046875 -4.921875,-4.453125 -13.375,-4.453125 -3.953125,0 -7.890625,0.875 -3.921875,0.875 -8.015625,2.734375 z" id="c_1260a2df50f305f3db244e29828f968e"></path>
        </defs>
        <g transform="matrix(0.1,0,0,0.1,7.83,14.13)" id="g47" style="fill:#000000">
          <use id="use49" x="0" y="0" width="1" height="1" xlink:href="#c_d821beae607506e87470f334d9ff47af"></use>
          <use id="use51" x="63.476562" y="0" width="1" height="1" xlink:href="#c_8c0379a31aa3b07b28207e25658c6113"></use>
          <use id="use53" x="147.26562" y="0" width="1" height="1" xlink:href="#c_7a2040fe3b94fcd41d0a72c84e93b115"></use>
          <use id="use55" x="210.88867" y="0" width="1" height="1" xlink:href="#c_ed3e21196fb739f392806f09ca0594ef"></use>
          <use id="use57" x="242.67578" y="0" width="1" height="1" xlink:href="#c_1260a2df50f305f3db244e29828f968e"></use>
        </g>
      </g>
    </g>
    <g id="axes2">
      <g id="patch7">
        <path d="m 95.4,84.6 81,0 0,-81 -81,0 0,81" id="path61" style="fill:#ffffff"></path>
      </g>
      <g id="line2d3">
        <defs id="defs64">
          <clipPath id="p07064bd501be27521504414ac9990098">
            <rect width="81" height="81" x="95.400002" y="3.5999999" id="rect67"></rect>
          </clipPath>
        </defs>
        <path d="m 95.4,84.599706 10.98995,-0.10308 2.84925,-0.246656 1.62814,-0.314724 1.62814,-0.547712 1.2211,-0.640686 1.22111,-0.915589 1.2211,-1.275003 1.22111,-1.729434 1.22111,-2.283873 1.2211,-2.934709 1.22111,-3.666696 1.2211,-4.450597 1.22111,-5.242127 1.62814,-8.123212 2.03517,-11.494153 3.25628,-18.646208 1.22111,-5.958853 1.22111,-4.838423 0.81407,-2.449922 0.81407,-1.743833 0.81407,-0.986058 0.40703,-0.19871 0.40704,0 0.40703,0.19871 0.40704,0.395918 0.81407,1.370072 0.81407,2.104631 0.81407,2.777346 1.2211,5.248832 1.62814,8.501731 5.6985,31.925719 1.62814,7.15854 1.2211,4.450597 1.22111,3.666696 1.2211,2.934709 1.22111,2.283873 1.22111,1.729434 1.2211,1.275003 1.22111,0.915589 1.2211,0.640686 1.62814,0.547712 2.03518,0.368459 2.44221,0.192921 4.47739,0.09153 6.51256,0.01155 0,0" clip-path="url(#p07064bd501be27521504414ac9990098)" id="path69" style="opacity:0.7;fill:none;stroke:#ffa500;stroke-width:3;stroke-linecap:square;stroke-linejoin:round"></path>
      </g>
      <g id="line2d4">
        <path d="m 95.4,84.599999 19.13065,-0.105282 2.84925,-0.25058 1.62814,-0.319286 1.62814,-0.555034 1.22111,-0.648625 1.2211,-0.92614 1.22111,-1.288574 1.2211,-1.746296 1.22111,-2.304065 1.2211,-2.957922 1.22111,-3.692195 1.2211,-4.477146 1.22111,-5.267997 1.62814,-8.152875 2.03518,-11.51533 3.25628,-18.62043 1.2211,-5.927021 1.22111,-4.795468 0.81407,-2.41616 0.81407,-1.706996 0.40704,-0.570894 0.40703,-0.376307 0.40704,-0.178882 0.40703,0.019896 0.40704,0.218523 0.40703,0.415499 0.81407,1.407955 0.81407,2.139899 0.81407,2.809021 1.22111,5.287909 1.62814,8.535549 5.69849,31.892939 1.62814,7.124471 1.22111,4.424058 1.2211,3.641257 1.22111,2.911586 1.2211,2.26379 1.22111,1.712682 1.2211,1.261539 1.22111,0.905133 1.22111,0.632827 1.62814,0.540471 2.03517,0.363145 2.84925,0.206968 2.44221,0.05795 0,0" clip-path="url(#p07064bd501be27521504414ac9990098)" id="path72" style="opacity:0.7;fill:none;stroke:#800080;stroke-width:3;stroke-linecap:square;stroke-linejoin:round"></path>
      </g>
      <g id="matplotlib.axis3"></g>
      <g id="matplotlib.axis4"></g>
      <g id="patch8">
        <path d="m 95.4,3.6 81,0" id="path77" style="fill:none;stroke:#000000;stroke-width:1;stroke-linecap:square;stroke-linejoin:round"></path>
      </g>
      <g id="patch9">
        <path d="m 176.4,84.6 0,-81" id="path80" style="fill:none;stroke:#000000;stroke-width:1;stroke-linecap:square;stroke-linejoin:round"></path>
      </g>
      <g id="patch10">
        <path d="m 95.4,84.6 81,0" id="path83" style="fill:none;stroke:#000000;stroke-width:1;stroke-linecap:square;stroke-linejoin:round"></path>
      </g>
      <g id="patch11">
        <path d="m 95.4,84.6 0,-81" id="path86" style="fill:none;stroke:#000000;stroke-width:1;stroke-linecap:square;stroke-linejoin:round"></path>
      </g>
      <g id="text2">
        <defs id="defs89">
          <path d="m 12.40625,-8.296875 16.109375,0 0,-55.625 -17.53125,3.515625 0,-8.984375 17.4375,-3.515625 9.859375,0 0,64.609375 16.109375,0 0,8.296875 -41.984375,0 z" id="c_42baa63129a918535c52adb20d687ea7"></path>
        </defs>
        <g transform="matrix(0.1,0,0,0.1,97.83,14.13)" id="g92" style="fill:#000000">
          <use id="use94" x="0" y="0" width="1" height="1" xlink:href="#c_d821beae607506e87470f334d9ff47af"></use>
          <use id="use96" x="63.476562" y="0" width="1" height="1" xlink:href="#c_8c0379a31aa3b07b28207e25658c6113"></use>
          <use id="use98" x="147.26562" y="0" width="1" height="1" xlink:href="#c_42baa63129a918535c52adb20d687ea7"></use>
        </g>
      </g>
    </g>
    <g id="axes3">
      <g id="patch12">
        <path d="m 5.4,174.6 81,0 0,-81 -81,0 0,81" id="path102" style="fill:#ffffff"></path>
      </g>
      <g id="line2d5">
        <defs id="defs105">
          <clipPath id="pccf9298cd9951afa09ddec4d5dd91d09">
            <rect width="81" height="81" x="5.4000001" y="93.599998" id="rect108"></rect>
          </clipPath>
        </defs>
        <path d="m 5.4,174.57356 4.070352,-0.14749 2.442211,-0.30317 1.628141,-0.41175 1.221105,-0.49147 1.221106,-0.71504 1.221105,-1.01399 1.221106,-1.40099 1.221105,-1.88524 1.221106,-2.46944 1.221105,-3.14683 1.221106,-3.89814 1.221105,-4.68966 1.221106,-5.47267 1.62814,-8.38271 2.442212,-14.06955 2.442211,-13.87629 1.221105,-5.99029 1.221106,-4.88104 0.81407,-2.483507 0.81407,-1.780539 0.814071,-1.024841 0.407035,-0.218523 0.407035,-0.0199 0.407035,0.178882 0.407035,0.376307 0.814071,1.332086 0.81407,2.069209 0.81407,2.745472 1.221106,5.20939 1.628141,8.46737 6.105527,33.88165 1.221106,5.26799 1.221105,4.47715 1.221106,3.69219 1.221105,2.95793 1.221106,2.30406 1.221106,1.7463 1.221105,1.28857 1.221106,0.92614 1.221105,0.64863 1.628141,0.55503 1.628141,0.31929 2.442211,0.22962 4.070351,0.1079 15.060302,0.0183 0.407035,0 0,0" clip-path="url(#pccf9298cd9951afa09ddec4d5dd91d09)" id="path110" style="opacity:0.7;fill:none;stroke:#ffa500;stroke-width:3;stroke-linecap:square;stroke-linejoin:round"></path>
      </g>
      <g id="line2d6">
        <path d="m 5.4,174.6 19.130653,-0.10528 2.849246,-0.25058 1.628141,-0.31929 1.628141,-0.55503 1.221105,-0.64863 1.221106,-0.92614 1.221105,-1.28857 1.221106,-1.7463 1.221106,-2.30406 1.221105,-2.95793 1.221106,-3.69219 1.221105,-4.47715 1.221106,-5.26799 1.62814,-8.15288 2.035176,-11.51533 3.256282,-18.62043 1.221105,-5.92702 1.221106,-4.79547 0.81407,-2.416157 0.81407,-1.706996 0.407036,-0.570894 0.407035,-0.376307 0.407035,-0.178882 0.407035,0.0199 0.407035,0.218523 0.407035,0.415499 0.814071,1.407955 0.81407,2.139903 0.814071,2.80902 1.221105,5.28791 1.628141,8.53554 5.698492,31.89294 1.628141,7.12447 1.221105,4.42406 1.221106,3.64126 1.221105,2.91159 1.221106,2.26379 1.221106,1.71268 1.221105,1.26154 1.221106,0.90513 1.221105,0.63283 1.628141,0.54047 2.035176,0.36314 2.849246,0.20697 2.442211,0.0579 0,0" clip-path="url(#pccf9298cd9951afa09ddec4d5dd91d09)" id="path113" style="opacity:0.7;fill:none;stroke:#800080;stroke-width:3;stroke-linecap:square;stroke-linejoin:round"></path>
      </g>
      <g id="matplotlib.axis5"></g>
      <g id="matplotlib.axis6"></g>
      <g id="patch13">
        <path d="m 5.4,93.6 81,0" id="path118" style="fill:none;stroke:#000000;stroke-width:1;stroke-linecap:square;stroke-linejoin:round"></path>
      </g>
      <g id="patch14">
        <path d="m 86.4,174.6 0,-81" id="path121" style="fill:none;stroke:#000000;stroke-width:1;stroke-linecap:square;stroke-linejoin:round"></path>
      </g>
      <g id="patch15">
        <path d="m 5.4,174.6 81,0" id="path124" style="fill:none;stroke:#000000;stroke-width:1;stroke-linecap:square;stroke-linejoin:round"></path>
      </g>
      <g id="patch16">
        <path d="m 5.4,174.6 0,-81" id="path127" style="fill:none;stroke:#000000;stroke-width:1;stroke-linecap:square;stroke-linejoin:round"></path>
      </g>
      <g id="text3">
        <defs id="defs130">
          <path d="m 19.1875,-8.296875 34.421875,0 0,8.296875 -46.28125,0 0,-8.296875 q 5.609375,-5.8125 15.296875,-15.59375 9.703125,-9.796875 12.1875,-12.640625 4.734375,-5.3125 6.609375,-9 1.890625,-3.6875 1.890625,-7.25 0,-5.8125 -4.078125,-9.46875 -4.078125,-3.671875 -10.625,-3.671875 -4.640625,0 -9.796875,1.609375 -5.140625,1.609375 -11,4.890625 l 0,-9.96875 Q 13.765625,-71.78125 18.9375,-73 q 5.1875,-1.21875 9.484375,-1.21875 11.328125,0 18.0625,5.671875 6.734375,5.65625 6.734375,15.125 0,4.5 -1.6875,8.53125 -1.671875,4.015625 -6.125,9.484375 -1.21875,1.421875 -7.765625,8.1875 -6.53125,6.765625 -18.453125,18.921875" id="c_ed3f3ed3ebfbd18bcb9c012009a68ad1"></path>
        </defs>
        <g transform="matrix(0.1,0,0,0.1,7.83,104.13)" id="g133" style="fill:#000000">
          <use id="use135" x="0" y="0" width="1" height="1" xlink:href="#c_d821beae607506e87470f334d9ff47af"></use>
          <use id="use137" x="63.476562" y="0" width="1" height="1" xlink:href="#c_8c0379a31aa3b07b28207e25658c6113"></use>
          <use id="use139" x="147.26562" y="0" width="1" height="1" xlink:href="#c_ed3f3ed3ebfbd18bcb9c012009a68ad1"></use>
        </g>
      </g>
    </g>
    <g id="axes4">
      <g id="patch17">
        <path d="m 95.4,174.6 81,0 0,-81 -81,0 0,81" id="path143" style="fill:#ffffff"></path>
      </g>
      <g id="line2d7">
        <defs id="defs146">
          <clipPath id="p21ea862b64a21109189188dd443a56cd">
            <rect width="81" height="81" x="95.400002" y="93.599998" id="rect149"></rect>
          </clipPath>
        </defs>
        <path d="m 102.15,174.57356 3.39196,-0.14749 2.03518,-0.30317 1.35678,-0.41175 1.01759,-0.49147 1.01758,-0.71504 1.01759,-1.01399 1.01759,-1.40099 1.01759,-1.88524 1.01759,-2.46944 1.01759,-3.14683 1.01758,-3.89814 1.01759,-4.68966 1.35678,-7.46069 1.69599,-10.95263 4.07035,-27.48783 1.01759,-5.28791 1.01758,-3.966997 0.67839,-1.780539 0.6784,-1.024841 0.33919,-0.218523 0.3392,-0.0199 0.33919,0.178882 0.3392,0.376307 0.67839,1.332086 0.67839,2.069209 0.6784,2.745472 1.01758,5.20939 1.35679,8.46737 5.08794,33.88165 1.35678,6.84904 1.01759,4.21232 1.01759,3.44003 1.01759,2.72999 1.01758,2.10706 1.01759,1.58269 1.01759,1.1576 1.01759,0.82482 1.01758,0.57274 1.35679,0.4854 1.69598,0.32297 2.37437,0.18181 4.74874,0.0686 10.51508,0.004 0,0" clip-path="url(#p21ea862b64a21109189188dd443a56cd)" id="path151" style="opacity:0.7;fill:none;stroke:#ffa500;stroke-width:3;stroke-linecap:square;stroke-linejoin:round"></path>
      </g>
      <g id="line2d8">
        <path d="m 102.15,174.6 22.72613,-0.10722 2.37437,-0.25456 1.35679,-0.32391 1.35678,-0.56244 1.01759,-0.65664 1.01759,-0.93679 1.01758,-1.30225 1.01759,-1.76327 1.01759,-2.32436 1.01759,-2.98123 1.01759,-3.71775 1.01758,-4.5037 1.35679,-7.22641 1.35678,-8.46523 2.71357,-18.88735 1.69598,-11.09772 1.01759,-5.5511 1.01758,-4.301198 0.6784,-2.033634 0.67839,-1.294 0.33919,-0.356668 0.3392,-0.159041 0.3392,0.03979 0.33919,0.238319 0.3392,0.435048 0.67839,1.445733 0.67839,2.17501 0.67839,2.84049 1.01759,5.32662 1.35679,8.56883 4.74874,31.85879 1.35678,7.09032 1.01759,4.39753 1.01759,3.61588 1.01759,2.88855 1.01759,2.24382 1.01758,1.69604 1.01759,1.24818 1.01759,0.89477 1.01759,0.62505 0.67839,0.30214 0,0" clip-path="url(#p21ea862b64a21109189188dd443a56cd)" id="path154" style="opacity:0.7;fill:none;stroke:#800080;stroke-width:3;stroke-linecap:square;stroke-linejoin:round"></path>
      </g>
      <g id="matplotlib.axis7"></g>
      <g id="matplotlib.axis8"></g>
      <g id="patch18">
        <path d="m 95.4,93.6 81,0" id="path159" style="fill:none;stroke:#000000;stroke-width:1;stroke-linecap:square;stroke-linejoin:round"></path>
      </g>
      <g id="patch19">
        <path d="m 176.4,174.6 0,-81" id="path162" style="fill:none;stroke:#000000;stroke-width:1;stroke-linecap:square;stroke-linejoin:round"></path>
      </g>
      <g id="patch20">
        <path d="m 95.4,174.6 81,0" id="path165" style="fill:none;stroke:#000000;stroke-width:1;stroke-linecap:square;stroke-linejoin:round"></path>
      </g>
      <g id="patch21">
        <path d="m 95.4,174.6 0,-81" id="path168" style="fill:none;stroke:#000000;stroke-width:1;stroke-linecap:square;stroke-linejoin:round"></path>
      </g>
      <g id="text4">
        <defs id="defs171">
          <path d="M 40.578125,-39.3125 Q 47.65625,-37.796875 51.625,-33 q 3.984375,4.78125 3.984375,11.8125 0,10.78125 -7.421875,16.703125 -7.421875,5.90625 -21.09375,5.90625 -4.578125,0 -9.4375,-0.90625 -4.859375,-0.90625 -10.03125,-2.71875 l 0,-9.515625 q 4.09375,2.390625 8.96875,3.609375 4.890625,1.21875 10.21875,1.21875 9.265625,0 14.125,-3.65625 4.859375,-3.65625 4.859375,-10.640625 0,-6.453125 -4.515625,-10.078125 -4.515625,-3.640625 -12.5625,-3.640625 l -8.5,0 0,-8.109375 8.890625,0 q 7.265625,0 11.125,-2.90625 3.859375,-2.90625 3.859375,-8.375 0,-5.609375 -3.984375,-8.609375 -3.96875,-3.015625 -11.390625,-3.015625 -4.0625,0 -8.703125,0.890625 -4.640625,0.875 -10.203125,2.71875 l 0,-8.78125 q 5.625,-1.5625 10.53125,-2.34375 4.90625,-0.78125 9.25,-0.78125 11.234375,0 17.765625,5.109375 6.546875,5.09375 6.546875,13.78125 0,6.0625 -3.46875,10.234375 -3.46875,4.171875 -9.859375,5.78125" id="c_3dcfa38a02242cb63ec6726c6e70be7a"></path>
        </defs>
        <g transform="matrix(0.1,0,0,0.1,97.83,104.13)" id="g174" style="fill:#000000">
          <use id="use176" x="0" y="0" width="1" height="1" xlink:href="#c_d821beae607506e87470f334d9ff47af"></use>
          <use id="use178" x="63.476562" y="0" width="1" height="1" xlink:href="#c_8c0379a31aa3b07b28207e25658c6113"></use>
          <use id="use180" x="147.26562" y="0" width="1" height="1" xlink:href="#c_3dcfa38a02242cb63ec6726c6e70be7a"></use>
        </g>
      </g>
    </g>
  </g>
</svg>
