<!-- Created with Inkscape (http://www.inkscape.org/) -->
<svg xmlns:dc="http://purl.org/dc/elements/1.1/" xmlns:cc="http://creativecommons.org/ns#" xmlns:rdf="http://www.w3.org/1999/02/22-rdf-syntax-ns#" xmlns:svg="http://www.w3.org/2000/svg" xmlns="http://www.w3.org/2000/svg" xmlns:xlink="http://www.w3.org/1999/xlink" xmlns:inkscape="http://www.inkscape.org/namespaces/inkscape" version="1.1" width="288pt" height="230pt" viewBox="0 0 288 230" id="svg1">
  <metadata id="metadata463"></metadata>
  <defs id="defs461"></defs>
  <filter color-interpolation-filters="sRGB" id="colorAdd">
    <feComposite in2="BackgroundImage" operator="arithmetic" k1="0" k2="1" k3="1" k4="0" in="SourceGraphic" id="feComposite4"></feComposite>
  </filter>
  <g id="figure1">
    <g id="patch1">
      <path d="m 0,230.4 288,0 L 288,0 0,0 z" id="path8" style="fill:#ffffff;stroke:#ffffff;stroke-width:1;stroke-linecap:square;stroke-linejoin:round"></path>
    </g>
    <g id="axes1">
      <g id="patch2">
        <path d="m 48.96,200.448 227.52,0 0,-184.32 -227.52,0 z" id="path12" style="fill:#ffffff"></path>
      </g>
      <g id="line2d1">
        <defs id="defs15">
          <clipPath id="p7d45bcb963c11562de4cbcc4e1a60e5c">
            <rect width="227.52" height="184.32001" x="48.959999" y="16.128" id="rect18"></rect>
          </clipPath>
        </defs>
        <path d="m 48.96,194.80657 9.169056,-0.98583 7.894944,-1.06728 6.871104,-1.14852 6.052032,-1.23291 5.369472,-1.31651 4.823424,-1.40797 4.368384,-1.50427 3.9816,-1.60441 3.640324,-1.70373 3.36729,-1.81849 3.13978,-1.9463 2.93501,-2.07845 2.77574,-2.23663 2.63923,-2.41219 2.52547,-2.61122 2.41172,-2.81338 2.34345,-3.07795 2.2752,-3.35955 2.2297,-3.69606 2.18419,-4.05855 2.16144,-4.49478 2.13869,-4.96766 2.13869,-5.5347 2.18419,-6.28238 2.22969,-7.10114 2.36621,-8.29773 2.61648,-10.01504 3.48106,-14.292611 4.41389,-17.999357 1.95667,-7.034549 1.52438,-4.693734 1.25136,-3.183132 1.06935,-2.159612 0.93283,-1.417996 0.81907,-0.864041 0.72806,-0.457546 0.65981,-0.157211 0.63706,0.08209 0.63705,0.311108 0.70532,0.608 0.77356,0.977204 0.88733,1.503982 1.00109,2.156699 1.16035,3.051703 1.38787,4.318415 1.68365,6.00881 2.29795,9.098099 8.21348,33.236848 2.52547,8.91482 2.34345,7.47476 2.25245,6.46121 2.2297,5.73122 2.20694,5.06998 2.20695,4.52514 2.22969,4.07536 2.2752,3.70144 2.32071,3.35596 2.38896,3.06685 2.45721,2.79664 2.57098,2.58922 2.68473,2.38647 2.82125,2.20801 2.98051,2.04769 3.16253,1.90093 3.39005,1.77546 3.64032,1.65335 3.95885,1.55058 4.32288,1.45048 4.75517,1.35678 5.25571,1.2648 5.87001,1.18033 6.62084,1.10015 7.53091,1.02107 8.66851,0.94505 0.77357,0.0745 0,0" clip-path="url(#p7d45bcb963c11562de4cbcc4e1a60e5c)" id="path20" style="fill:none;stroke:#ffa500;stroke-width:1.5;stroke-linecap:square;stroke-linejoin:round"></path>
      </g>
      <g id="line2d2">
        <path d="m 48.96,197.16352 8.782272,-0.81554 7.417152,-0.9059 6.393312,-0.99998 5.57424,-1.09228 4.937184,-1.18994 4.413888,-1.2885 4.004352,-1.39772 3.663072,-1.5126 3.367296,-1.62938 3.117022,-1.75237 2.93501,-1.90413 2.77574,-2.06697 2.63924,-2.24488 2.52547,-2.4432 2.41171,-2.64249 2.34346,-2.89799 2.29795,-3.20015 2.25245,-3.52501 2.20694,-3.87118 2.18419,-4.28325 2.18419,-4.77851 2.1842,-5.31835 2.20694,-5.96352 2.2752,-6.80366 2.34346,-7.72443 2.47996,-8.9577 2.753,-10.81102 3.4128,-14.372688 6.71184,-28.48037 2.11593,-7.876035 1.7064,-5.537857 1.43338,-3.939707 1.25136,-2.821869 1.09209,-1.943517 0.95559,-1.276903 0.86457,-0.799957 0.77357,-0.422222 0.70531,-0.140048 0.68256,0.08794 0.70532,0.321144 0.75081,0.596449 0.81907,0.944462 0.93284,1.437698 1.04659,2.050944 1.1831,2.838655 1.34237,3.82527 1.56989,5.17725 1.88841,7.031967 2.50272,10.248006 10.2384,42.915463 2.63924,9.58998 2.45721,8.11051 2.36621,7.05472 2.29795,6.16372 2.2752,5.47341 2.25245,4.84782 2.25245,4.32918 2.2752,3.8971 2.29795,3.50106 2.34346,3.1698 2.41171,2.88877 2.47997,2.62354 2.57097,2.39546 2.66199,2.17809 2.79849,2.00368 2.95776,1.84434 3.16253,1.70762 3.39005,1.57452 3.66307,1.4527 3.9816,1.33696 4.39114,1.23587 4.86892,1.13492 5.46048,1.03981 6.18855,0.94732 7.12137,0.85957 8.30448,0.77227 0.27303,0.022 0,0" clip-path="url(#p7d45bcb963c11562de4cbcc4e1a60e5c)" id="path23" style="fill:none;stroke:#800080;stroke-width:1.5;stroke-linecap:square;stroke-linejoin:round"></path>
      </g>
      <g id="line2d3">
        <path d="m 48.96,199.63817 10.147392,-0.47246 7.781184,-0.57693 6.279552,-0.68174 5.255712,-0.78832 4.527648,-0.89953 3.958848,-1.00839 3.549312,-1.13002 3.208032,-1.25115 2.95776,-1.39014 2.752992,-1.53921 2.570978,-1.69051 2.45721,-1.883 2.34346,-2.0775 2.25245,-2.29391 2.20694,-2.56849 2.16144,-2.86259 2.11594,-3.17437 2.11593,-3.58281 2.09319,-3.98641 2.11593,-4.51707 2.13869,-5.10288 2.16144,-5.74189 2.2297,-6.5692 2.29795,-7.47523 2.43446,-8.69737 2.61648,-10.19676 2.98052,-12.55087 3.93609,-17.628843 6.09754,-27.308889 2.50272,-10.128561 1.97942,-7.134138 1.68365,-5.283611 1.47888,-3.943227 1.29686,-2.859797 1.16036,-2.048551 1.02384,-1.386631 0.93283,-0.907988 0.84182,-0.522195 0.77357,-0.228139 0.75082,0.01039 0.75081,0.2387 0.77357,0.483403 0.84182,0.796772 0.93284,1.206263 1.02384,1.704115 1.1376,2.340918 1.27411,3.148757 1.43337,4.154507 1.63815,5.453173 1.93392,7.252656 2.36621,9.792158 3.34454,14.886738 7.28064,32.612902 3.02602,12.38641 2.66198,9.98571 2.47997,8.45813 2.36621,7.29114 2.2752,6.30409 2.22969,5.53321 2.18419,4.83759 2.16144,4.26025 2.16144,3.77923 2.1842,3.37503 2.20694,3.00202 2.2297,2.66081 2.2752,2.37324 2.34345,2.12674 2.43447,1.91127 2.54822,1.71907 2.70749,1.55628 2.86675,1.39081 3.09427,1.25316 3.39005,1.12959 3.73133,1.00556 4.18637,0.89379 4.77792,0.78711 5.55148,0.68271 6.62084,0.58233 8.14521,0.48385 5.75626,0.23793 0,0" clip-path="url(#p7d45bcb963c11562de4cbcc4e1a60e5c)" id="path26" style="fill:none;stroke:#00bfff;stroke-width:1.5;stroke-linecap:square;stroke-linejoin:round"></path>
      </g>
      <g id="line2d4">
        <path d="m 48.96,200.44731 26.39232,-0.11478 7.098624,-0.24898 4.732416,-0.37846 3.663072,-0.50864 3.048768,-0.64249 2.639232,-0.77812 2.38896,-0.93463 2.184188,-1.09242 2.04768,-1.27268 1.95668,-1.48034 1.88841,-1.71124 1.84291,-1.97398 1.82016,-2.27997 1.82016,-2.64357 1.82016,-3.04178 1.84292,-3.51919 1.88841,-4.09711 1.93392,-4.74056 2.00218,-5.51326 2.07043,-6.36493 2.18419,-7.44802 2.34346,-8.80638 2.54822,-10.46869 2.88951,-12.84477 3.66307,-17.37019 8.82777,-42.295266 2.57098,-10.978761 2.13869,-8.192928 1.84291,-6.215029 1.63814,-4.77066 1.45613,-3.585236 1.31962,-2.67896 1.1831,-1.918268 1.06935,-1.327031 0.95558,-0.851577 0.88733,-0.504098 0.81907,-0.218239 0.79632,0.01608 0.79632,0.241074 0.84182,0.498499 0.88733,0.794292 0.97834,1.191273 1.06934,1.673011 1.18311,2.28945 1.29686,3.017689 1.43338,3.920018 1.59264,5.022693 1.7974,6.427534 2.07044,8.262743 2.47996,10.862815 3.25354,15.33016 10.01088,47.846989 2.8895,12.35418 2.57098,10.04025 2.36621,8.36215 2.20694,7.00712 2.11594,5.99606 2.02493,5.08935 1.97942,4.38563 1.93392,3.75272 1.88842,3.19105 1.88841,2.76016 1.86567,2.34148 1.88841,2.01877 1.91117,1.72287 1.97942,1.48618 2.04768,1.26109 2.1842,1.08201 2.34345,0.90988 2.57098,0.75687 2.91225,0.62027 3.39005,0.48837 4.16362,0.3659 5.52873,0.24817 8.532,0.13627 20.40855,0.0401 0,0" clip-path="url(#p7d45bcb963c11562de4cbcc4e1a60e5c)" id="path29" style="fill:none;stroke:#000000;stroke-width:1.5;stroke-linecap:square;stroke-linejoin:round"></path>
      </g>
      <g id="matplotlib.axis1">
        <g id="xtick1">
          <g id="line2d5">
            <defs id="defs34">
              <path d="M 0,0 0,-4" id="m30e32995789d870ad79a2e54c91cf9c6"></path>
            </defs>
            <g id="g37">
              <use id="use39" style="fill:none;stroke:#000000;stroke-width:0.5;stroke-linecap:butt;stroke-linejoin:round" x="71.711998" y="200.448" width="1" height="1" xlink:href="#m30e32995789d870ad79a2e54c91cf9c6"></use>
            </g>
          </g>
          <g id="line2d6">
            <defs id="defs42">
              <path d="M 0,0 0,4" id="m9281cae24120827b11d5ea8a7ad3e96b"></path>
            </defs>
            <g id="g45">
              <use id="use47" style="fill:none;stroke:#000000;stroke-width:0.5;stroke-linecap:butt;stroke-linejoin:round" x="71.711998" y="16.128" width="1" height="1" xlink:href="#m9281cae24120827b11d5ea8a7ad3e96b"></use>
            </g>
          </g>
          <g id="text1">
            <defs id="defs50">
              <path d="m 10.59375,-35.5 62.59375,0 0,8.296875 -62.59375,0 z" id="c_6a8d56c819c37117ab4cf023bec22a5a"></path>
              <path d="m 37.796875,-64.3125 -24.90625,38.921875 24.90625,0 z m -2.59375,-8.59375 12.40625,0 0,47.515625 10.40625,0 0,8.203125 -10.40625,0 0,17.1875 -9.8125,0 0,-17.1875 -32.90625,0 0,-9.515625 z" id="c_a0416418d96557a09b8c1332d34883ba"></path>
            </defs>
            <g transform="matrix(0.12,0,0,0.12,63.829187,213.198)" id="g54" style="fill:#000000">
              <use id="use56" x="0" y="0" width="1" height="1" xlink:href="#c_6a8d56c819c37117ab4cf023bec22a5a"></use>
              <use id="use58" x="83.789062" y="0" width="1" height="1" xlink:href="#c_a0416418d96557a09b8c1332d34883ba"></use>
            </g>
          </g>
        </g>
        <g id="xtick2">
          <g id="line2d7">
            <g id="g62">
              <use id="use64" style="fill:none;stroke:#000000;stroke-width:0.5;stroke-linecap:butt;stroke-linejoin:round" x="117.216" y="200.448" width="1" height="1" xlink:href="#m30e32995789d870ad79a2e54c91cf9c6"></use>
            </g>
          </g>
          <g id="line2d8">
            <g id="g67">
              <use id="use69" style="fill:none;stroke:#000000;stroke-width:0.5;stroke-linecap:butt;stroke-linejoin:round" x="117.216" y="16.128" width="1" height="1" xlink:href="#m9281cae24120827b11d5ea8a7ad3e96b"></use>
            </g>
          </g>
          <g id="text2">
            <defs id="defs72">
              <path d="m 19.1875,-8.296875 34.421875,0 0,8.296875 -46.28125,0 0,-8.296875 q 5.609375,-5.8125 15.296875,-15.59375 9.703125,-9.796875 12.1875,-12.640625 4.734375,-5.3125 6.609375,-9 1.890625,-3.6875 1.890625,-7.25 0,-5.8125 -4.078125,-9.46875 -4.078125,-3.671875 -10.625,-3.671875 -4.640625,0 -9.796875,1.609375 -5.140625,1.609375 -11,4.890625 l 0,-9.96875 Q 13.765625,-71.78125 18.9375,-73 q 5.1875,-1.21875 9.484375,-1.21875 11.328125,0 18.0625,5.671875 6.734375,5.65625 6.734375,15.125 0,4.5 -1.6875,8.53125 -1.671875,4.015625 -6.125,9.484375 -1.21875,1.421875 -7.765625,8.1875 -6.53125,6.765625 -18.453125,18.921875" id="c_ed3f3ed3ebfbd18bcb9c012009a68ad1"></path>
            </defs>
            <g transform="matrix(0.12,0,0,0.12,109.59881,213.35425)" id="g75" style="fill:#000000">
              <use id="use77" x="0" y="0" width="1" height="1" xlink:href="#c_6a8d56c819c37117ab4cf023bec22a5a"></use>
              <use id="use79" x="83.789062" y="0" width="1" height="1" xlink:href="#c_ed3f3ed3ebfbd18bcb9c012009a68ad1"></use>
            </g>
          </g>
        </g>
        <g id="xtick3">
          <g id="line2d9">
            <g id="g83">
              <use id="use85" style="fill:none;stroke:#000000;stroke-width:0.5;stroke-linecap:butt;stroke-linejoin:round" x="162.72" y="200.448" width="1" height="1" xlink:href="#m30e32995789d870ad79a2e54c91cf9c6"></use>
            </g>
          </g>
          <g id="line2d10">
            <g id="g88">
              <use id="use90" style="fill:none;stroke:#000000;stroke-width:0.5;stroke-linecap:butt;stroke-linejoin:round" x="162.72" y="16.128" width="1" height="1" xlink:href="#m9281cae24120827b11d5ea8a7ad3e96b"></use>
            </g>
          </g>
          <g id="text3">
            <defs id="defs93">
              <path d="m 31.78125,-66.40625 q -7.609375,0 -11.453125,7.5 Q 16.5,-51.421875 16.5,-36.375 q 0,14.984375 3.828125,22.484375 3.84375,7.5 11.453125,7.5 7.671875,0 11.5,-7.5 3.84375,-7.5 3.84375,-22.484375 0,-15.046875 -3.84375,-22.53125 -3.828125,-7.5 -11.5,-7.5 m 0,-7.8125 q 12.265625,0 18.734375,9.703125 6.46875,9.6875 6.46875,28.140625 0,18.40625 -6.46875,28.109375 -6.46875,9.6875 -18.734375,9.6875 -12.25,0 -18.71875,-9.6875 Q 6.59375,-17.96875 6.59375,-36.375 q 0,-18.453125 6.46875,-28.140625 6.46875,-9.703125 18.71875,-9.703125" id="c_7a2040fe3b94fcd41d0a72c84e93b115"></path>
            </defs>
            <g transform="matrix(0.12,0,0,0.12,159.69656,213.35425)" id="g96" style="fill:#000000">
              <use id="use98" x="0" y="0" width="1" height="1" xlink:href="#c_7a2040fe3b94fcd41d0a72c84e93b115"></use>
            </g>
          </g>
        </g>
        <g id="xtick4">
          <g id="line2d11">
            <g id="g102">
              <use id="use104" style="fill:none;stroke:#000000;stroke-width:0.5;stroke-linecap:butt;stroke-linejoin:round" x="208.224" y="200.448" width="1" height="1" xlink:href="#m30e32995789d870ad79a2e54c91cf9c6"></use>
            </g>
          </g>
          <g id="line2d12">
            <g id="g107">
              <use id="use109" style="fill:none;stroke:#000000;stroke-width:0.5;stroke-linecap:butt;stroke-linejoin:round" x="208.224" y="16.128" width="1" height="1" xlink:href="#m9281cae24120827b11d5ea8a7ad3e96b"></use>
            </g>
          </g>
          <g id="text4">
            <g transform="matrix(0.12,0,0,0.12,205.44275,213.35425)" id="g112" style="fill:#000000">
              <use id="use114" x="0" y="0" width="1" height="1" xlink:href="#c_ed3f3ed3ebfbd18bcb9c012009a68ad1"></use>
            </g>
          </g>
        </g>
        <g id="xtick5">
          <g id="line2d13">
            <g id="g118">
              <use id="use120" style="fill:none;stroke:#000000;stroke-width:0.5;stroke-linecap:butt;stroke-linejoin:round" x="253.728" y="200.448" width="1" height="1" xlink:href="#m30e32995789d870ad79a2e54c91cf9c6"></use>
            </g>
          </g>
          <g id="line2d14">
            <g id="g123">
              <use id="use125" style="fill:none;stroke:#000000;stroke-width:0.5;stroke-linecap:butt;stroke-linejoin:round" x="253.728" y="16.128" width="1" height="1" xlink:href="#m9281cae24120827b11d5ea8a7ad3e96b"></use>
            </g>
          </g>
          <g id="text5">
            <g transform="matrix(0.12,0,0,0.12,250.5405,213.198)" id="g128" style="fill:#000000">
              <use id="use130" x="0" y="0" width="1" height="1" xlink:href="#c_a0416418d96557a09b8c1332d34883ba"></use>
            </g>
          </g>
        </g>
        <g id="text6">
          <defs id="defs133">
            <path d="M 54.890625,-54.6875 35.109375,-28.078125 55.90625,0 45.3125,0 29.390625,-21.484375 13.484375,0 2.875,0 24.125,-28.609375 4.6875,-54.6875 l 10.59375,0 14.5,19.484375 14.5,-19.484375 z" id="c_801fe2e877fad46da27c898b407b3b54"></path>
          </defs>
          <g transform="matrix(0.12,0,0,0.12,159.54031,225.08862)" id="g136" style="fill:#000000">
            <use id="use138" x="0" y="0" width="1" height="1" xlink:href="#c_801fe2e877fad46da27c898b407b3b54"></use>
          </g>
        </g>
      </g>
      <g id="matplotlib.axis2">
        <g id="ytick1">
          <g id="line2d15">
            <defs id="defs143">
              <path d="M 0,0 4,0" id="m3400efa6b1638b3fea9e19e898273957"></path>
            </defs>
            <g id="g146">
              <use id="use148" style="fill:none;stroke:#000000;stroke-width:0.5;stroke-linecap:butt;stroke-linejoin:round" x="48.959999" y="200.448" width="1" height="1" xlink:href="#m3400efa6b1638b3fea9e19e898273957"></use>
            </g>
          </g>
          <g id="line2d16">
            <defs id="defs151">
              <path d="M 0,0 -4,0" id="m20b58b2501143cb5e0a5e8f1ef6f1643"></path>
            </defs>
            <g id="g154">
              <use id="use156" style="fill:none;stroke:#000000;stroke-width:0.5;stroke-linecap:butt;stroke-linejoin:round" x="276.48001" y="200.448" width="1" height="1" xlink:href="#m20b58b2501143cb5e0a5e8f1ef6f1643"></use>
            </g>
          </g>
          <g id="text7">
            <defs id="defs159">
              <path d="m 10.6875,-12.40625 10.3125,0 L 21,0 10.6875,0 z" id="c_ed3e21196fb739f392806f09ca0594ef"></path>
            </defs>
            <g transform="matrix(0.12,0,0,0.12,19.819375,204.81519)" id="g162" style="fill:#000000">
              <use id="use164" x="0" y="0" width="1" height="1" xlink:href="#c_7a2040fe3b94fcd41d0a72c84e93b115"></use>
              <use id="use166" x="63.623047" y="0" width="1" height="1" xlink:href="#c_ed3e21196fb739f392806f09ca0594ef"></use>
              <use id="use168" x="95.410156" y="0" width="1" height="1" xlink:href="#c_7a2040fe3b94fcd41d0a72c84e93b115"></use>
              <use id="use170" x="159.0332" y="0" width="1" height="1" xlink:href="#c_7a2040fe3b94fcd41d0a72c84e93b115"></use>
            </g>
          </g>
        </g>
        <g id="ytick2">
          <g id="line2d17">
            <g id="g174">
              <use id="use176" style="fill:none;stroke:#000000;stroke-width:0.5;stroke-linecap:butt;stroke-linejoin:round" x="48.959999" y="177.408" width="1" height="1" xlink:href="#m3400efa6b1638b3fea9e19e898273957"></use>
            </g>
          </g>
          <g id="line2d18">
            <g id="g179">
              <use id="use181" style="fill:none;stroke:#000000;stroke-width:0.5;stroke-linecap:butt;stroke-linejoin:round" x="276.48001" y="177.408" width="1" height="1" xlink:href="#m20b58b2501143cb5e0a5e8f1ef6f1643"></use>
            </g>
          </g>
          <g id="text8">
            <defs id="defs184">
              <path d="m 10.796875,-72.90625 38.71875,0 0,8.3125 -29.6875,0 0,17.859375 q 2.140625,-0.734375 4.28125,-1.09375 2.15625,-0.359375 4.3125,-0.359375 12.203125,0 19.328125,6.6875 7.140625,6.6875 7.140625,18.109375 0,11.765625 -7.328125,18.296875 -7.328125,6.515625 -20.65625,6.515625 -4.59375,0 -9.359375,-0.78125 -4.75,-0.78125 -9.828125,-2.34375 l 0,-9.921875 q 4.390625,2.390625 9.078125,3.5625 4.6875,1.171875 9.90625,1.171875 8.453125,0 13.375,-4.4375 4.9375,-4.4375 4.9375,-12.0625 0,-7.609375 -4.9375,-12.046875 -4.921875,-4.453125 -13.375,-4.453125 -3.953125,0 -7.890625,0.875 -3.921875,0.875 -8.015625,2.734375 z" id="c_1260a2df50f305f3db244e29828f968e"></path>
            </defs>
            <g transform="matrix(0.12,0,0,0.12,20.069375,181.77519)" id="g187" style="fill:#000000">
              <use id="use189" x="0" y="0" width="1" height="1" xlink:href="#c_7a2040fe3b94fcd41d0a72c84e93b115"></use>
              <use id="use191" x="63.623047" y="0" width="1" height="1" xlink:href="#c_ed3e21196fb739f392806f09ca0594ef"></use>
              <use id="use193" x="95.410156" y="0" width="1" height="1" xlink:href="#c_7a2040fe3b94fcd41d0a72c84e93b115"></use>
              <use id="use195" x="159.0332" y="0" width="1" height="1" xlink:href="#c_1260a2df50f305f3db244e29828f968e"></use>
            </g>
          </g>
        </g>
        <g id="ytick3">
          <g id="line2d19">
            <g id="g199">
              <use id="use201" style="fill:none;stroke:#000000;stroke-width:0.5;stroke-linecap:butt;stroke-linejoin:round" x="48.959999" y="154.368" width="1" height="1" xlink:href="#m3400efa6b1638b3fea9e19e898273957"></use>
            </g>
          </g>
          <g id="line2d20">
            <g id="g204">
              <use id="use206" style="fill:none;stroke:#000000;stroke-width:0.5;stroke-linecap:butt;stroke-linejoin:round" x="276.48001" y="154.368" width="1" height="1" xlink:href="#m20b58b2501143cb5e0a5e8f1ef6f1643"></use>
            </g>
          </g>
          <g id="text9">
            <defs id="defs209">
              <path d="m 12.40625,-8.296875 16.109375,0 0,-55.625 -17.53125,3.515625 0,-8.984375 17.4375,-3.515625 9.859375,0 0,64.609375 16.109375,0 0,8.296875 -41.984375,0 z" id="c_42baa63129a918535c52adb20d687ea7"></path>
            </defs>
            <g transform="matrix(0.12,0,0,0.12,19.819375,158.73519)" id="g212" style="fill:#000000">
              <use id="use214" x="0" y="0" width="1" height="1" xlink:href="#c_7a2040fe3b94fcd41d0a72c84e93b115"></use>
              <use id="use216" x="63.623047" y="0" width="1" height="1" xlink:href="#c_ed3e21196fb739f392806f09ca0594ef"></use>
              <use id="use218" x="95.410156" y="0" width="1" height="1" xlink:href="#c_42baa63129a918535c52adb20d687ea7"></use>
              <use id="use220" x="159.0332" y="0" width="1" height="1" xlink:href="#c_7a2040fe3b94fcd41d0a72c84e93b115"></use>
            </g>
          </g>
        </g>
        <g id="ytick4">
          <g id="line2d21">
            <g id="g224">
              <use id="use226" style="fill:none;stroke:#000000;stroke-width:0.5;stroke-linecap:butt;stroke-linejoin:round" x="48.959999" y="131.328" width="1" height="1" xlink:href="#m3400efa6b1638b3fea9e19e898273957"></use>
            </g>
          </g>
          <g id="line2d22">
            <g id="g229">
              <use id="use231" style="fill:none;stroke:#000000;stroke-width:0.5;stroke-linecap:butt;stroke-linejoin:round" x="276.48001" y="131.328" width="1" height="1" xlink:href="#m20b58b2501143cb5e0a5e8f1ef6f1643"></use>
            </g>
          </g>
          <g id="text10">
            <g transform="matrix(0.12,0,0,0.12,20.069375,135.69519)" id="g234" style="fill:#000000">
              <use id="use236" x="0" y="0" width="1" height="1" xlink:href="#c_7a2040fe3b94fcd41d0a72c84e93b115"></use>
              <use id="use238" x="63.623047" y="0" width="1" height="1" xlink:href="#c_ed3e21196fb739f392806f09ca0594ef"></use>
              <use id="use240" x="95.410156" y="0" width="1" height="1" xlink:href="#c_42baa63129a918535c52adb20d687ea7"></use>
              <use id="use242" x="159.0332" y="0" width="1" height="1" xlink:href="#c_1260a2df50f305f3db244e29828f968e"></use>
            </g>
          </g>
        </g>
        <g id="ytick5">
          <g id="line2d23">
            <g id="g246">
              <use id="use248" style="fill:none;stroke:#000000;stroke-width:0.5;stroke-linecap:butt;stroke-linejoin:round" x="48.959999" y="108.288" width="1" height="1" xlink:href="#m3400efa6b1638b3fea9e19e898273957"></use>
            </g>
          </g>
          <g id="line2d24">
            <g id="g251">
              <use id="use253" style="fill:none;stroke:#000000;stroke-width:0.5;stroke-linecap:butt;stroke-linejoin:round" x="276.48001" y="108.288" width="1" height="1" xlink:href="#m20b58b2501143cb5e0a5e8f1ef6f1643"></use>
            </g>
          </g>
          <g id="text11">
            <g transform="matrix(0.12,0,0,0.12,19.819375,112.65519)" id="g256" style="fill:#000000">
              <use id="use258" x="0" y="0" width="1" height="1" xlink:href="#c_7a2040fe3b94fcd41d0a72c84e93b115"></use>
              <use id="use260" x="63.623047" y="0" width="1" height="1" xlink:href="#c_ed3e21196fb739f392806f09ca0594ef"></use>
              <use id="use262" x="95.410156" y="0" width="1" height="1" xlink:href="#c_ed3f3ed3ebfbd18bcb9c012009a68ad1"></use>
              <use id="use264" x="159.0332" y="0" width="1" height="1" xlink:href="#c_7a2040fe3b94fcd41d0a72c84e93b115"></use>
            </g>
          </g>
        </g>
        <g id="ytick6">
          <g id="line2d25">
            <g id="g268">
              <use id="use270" style="fill:none;stroke:#000000;stroke-width:0.5;stroke-linecap:butt;stroke-linejoin:round" x="48.959999" y="85.248001" width="1" height="1" xlink:href="#m3400efa6b1638b3fea9e19e898273957"></use>
            </g>
          </g>
          <g id="line2d26">
            <g id="g273">
              <use id="use275" style="fill:none;stroke:#000000;stroke-width:0.5;stroke-linecap:butt;stroke-linejoin:round" x="276.48001" y="85.248001" width="1" height="1" xlink:href="#m20b58b2501143cb5e0a5e8f1ef6f1643"></use>
            </g>
          </g>
          <g id="text12">
            <g transform="matrix(0.12,0,0,0.12,20.069375,89.615187)" id="g278" style="fill:#000000">
              <use id="use280" x="0" y="0" width="1" height="1" xlink:href="#c_7a2040fe3b94fcd41d0a72c84e93b115"></use>
              <use id="use282" x="63.623047" y="0" width="1" height="1" xlink:href="#c_ed3e21196fb739f392806f09ca0594ef"></use>
              <use id="use284" x="95.410156" y="0" width="1" height="1" xlink:href="#c_ed3f3ed3ebfbd18bcb9c012009a68ad1"></use>
              <use id="use286" x="159.0332" y="0" width="1" height="1" xlink:href="#c_1260a2df50f305f3db244e29828f968e"></use>
            </g>
          </g>
        </g>
        <g id="ytick7">
          <g id="line2d27">
            <g id="g290">
              <use id="use292" style="fill:none;stroke:#000000;stroke-width:0.5;stroke-linecap:butt;stroke-linejoin:round" x="48.959999" y="62.208" width="1" height="1" xlink:href="#m3400efa6b1638b3fea9e19e898273957"></use>
            </g>
          </g>
          <g id="line2d28">
            <g id="g295">
              <use id="use297" style="fill:none;stroke:#000000;stroke-width:0.5;stroke-linecap:butt;stroke-linejoin:round" x="276.48001" y="62.208" width="1" height="1" xlink:href="#m20b58b2501143cb5e0a5e8f1ef6f1643"></use>
            </g>
          </g>
          <g id="text13">
            <defs id="defs300">
              <path d="M 40.578125,-39.3125 Q 47.65625,-37.796875 51.625,-33 q 3.984375,4.78125 3.984375,11.8125 0,10.78125 -7.421875,16.703125 -7.421875,5.90625 -21.09375,5.90625 -4.578125,0 -9.4375,-0.90625 -4.859375,-0.90625 -10.03125,-2.71875 l 0,-9.515625 q 4.09375,2.390625 8.96875,3.609375 4.890625,1.21875 10.21875,1.21875 9.265625,0 14.125,-3.65625 4.859375,-3.65625 4.859375,-10.640625 0,-6.453125 -4.515625,-10.078125 -4.515625,-3.640625 -12.5625,-3.640625 l -8.5,0 0,-8.109375 8.890625,0 q 7.265625,0 11.125,-2.90625 3.859375,-2.90625 3.859375,-8.375 0,-5.609375 -3.984375,-8.609375 -3.96875,-3.015625 -11.390625,-3.015625 -4.0625,0 -8.703125,0.890625 -4.640625,0.875 -10.203125,2.71875 l 0,-8.78125 q 5.625,-1.5625 10.53125,-2.34375 4.90625,-0.78125 9.25,-0.78125 11.234375,0 17.765625,5.109375 6.546875,5.09375 6.546875,13.78125 0,6.0625 -3.46875,10.234375 -3.46875,4.171875 -9.859375,5.78125" id="c_3dcfa38a02242cb63ec6726c6e70be7a"></path>
            </defs>
            <g transform="matrix(0.12,0,0,0.12,19.819375,66.575187)" id="g303" style="fill:#000000">
              <use id="use305" x="0" y="0" width="1" height="1" xlink:href="#c_7a2040fe3b94fcd41d0a72c84e93b115"></use>
              <use id="use307" x="63.623047" y="0" width="1" height="1" xlink:href="#c_ed3e21196fb739f392806f09ca0594ef"></use>
              <use id="use309" x="95.410156" y="0" width="1" height="1" xlink:href="#c_3dcfa38a02242cb63ec6726c6e70be7a"></use>
              <use id="use311" x="159.0332" y="0" width="1" height="1" xlink:href="#c_7a2040fe3b94fcd41d0a72c84e93b115"></use>
            </g>
          </g>
        </g>
        <g id="ytick8">
          <g id="line2d29">
            <g id="g315">
              <use id="use317" style="fill:none;stroke:#000000;stroke-width:0.5;stroke-linecap:butt;stroke-linejoin:round" x="48.959999" y="39.167999" width="1" height="1" xlink:href="#m3400efa6b1638b3fea9e19e898273957"></use>
            </g>
          </g>
          <g id="line2d30">
            <g id="g320">
              <use id="use322" style="fill:none;stroke:#000000;stroke-width:0.5;stroke-linecap:butt;stroke-linejoin:round" x="276.48001" y="39.167999" width="1" height="1" xlink:href="#m20b58b2501143cb5e0a5e8f1ef6f1643"></use>
            </g>
          </g>
          <g id="text14">
            <g transform="matrix(0.12,0,0,0.12,20.069375,43.535187)" id="g325" style="fill:#000000">
              <use id="use327" x="0" y="0" width="1" height="1" xlink:href="#c_7a2040fe3b94fcd41d0a72c84e93b115"></use>
              <use id="use329" x="63.623047" y="0" width="1" height="1" xlink:href="#c_ed3e21196fb739f392806f09ca0594ef"></use>
              <use id="use331" x="95.410156" y="0" width="1" height="1" xlink:href="#c_3dcfa38a02242cb63ec6726c6e70be7a"></use>
              <use id="use333" x="159.0332" y="0" width="1" height="1" xlink:href="#c_1260a2df50f305f3db244e29828f968e"></use>
            </g>
          </g>
        </g>
        <g id="ytick9">
          <g id="line2d31">
            <g id="g337">
              <use id="use339" style="fill:none;stroke:#000000;stroke-width:0.5;stroke-linecap:butt;stroke-linejoin:round" x="48.959999" y="16.128" width="1" height="1" xlink:href="#m3400efa6b1638b3fea9e19e898273957"></use>
            </g>
          </g>
          <g id="line2d32">
            <g id="g342">
              <use id="use344" style="fill:none;stroke:#000000;stroke-width:0.5;stroke-linecap:butt;stroke-linejoin:round" x="276.48001" y="16.128" width="1" height="1" xlink:href="#m20b58b2501143cb5e0a5e8f1ef6f1643"></use>
            </g>
          </g>
          <g id="text15">
            <g transform="matrix(0.12,0,0,0.12,19.819375,20.495187)" id="g347" style="fill:#000000">
              <use id="use349" x="0" y="0" width="1" height="1" xlink:href="#c_7a2040fe3b94fcd41d0a72c84e93b115"></use>
              <use id="use351" x="63.623047" y="0" width="1" height="1" xlink:href="#c_ed3e21196fb739f392806f09ca0594ef"></use>
              <use id="use353" x="95.410156" y="0" width="1" height="1" xlink:href="#c_a0416418d96557a09b8c1332d34883ba"></use>
              <use id="use355" x="159.0332" y="0" width="1" height="1" xlink:href="#c_7a2040fe3b94fcd41d0a72c84e93b115"></use>
            </g>
          </g>
        </g>
        <g id="text16">
          <defs id="defs358">
            <path d="m 19.671875,-64.796875 0,27.390625 12.40625,0 q 6.890625,0 10.640625,-3.5625 3.765625,-3.5625 3.765625,-10.15625 0,-6.546875 -3.765625,-10.109375 -3.75,-3.5625 -10.640625,-3.5625 z M 9.8125,-72.90625 l 22.265625,0 q 12.265625,0 18.53125,5.546875 6.28125,5.546875 6.28125,16.234375 0,10.796875 -6.28125,16.3125 -6.265625,5.515625 -18.53125,5.515625 l -12.40625,0 L 19.671875,0 9.8125,0 z" id="c_518d586bee075aa0153eaebfcb5ab11f"></path>
            <path d="m 31,-75.875 q -6.53125,11.21875 -9.71875,22.21875 -3.171875,10.984375 -3.171875,22.265625 0,11.265625 3.203125,22.328125 Q 24.515625,2 31,13.1875 l -7.8125,0 Q 15.875,1.703125 12.234375,-9.375 8.59375,-20.453125 8.59375,-31.390625 q 0,-10.890625 3.609375,-21.921875 3.625,-11.046875 10.984375,-22.5625 z" id="c_7efa9804c2b4c09a4b614b91fdebee3d"></path>
            <path d="m 8.015625,-75.875 7.8125,0 q 7.3125,11.515625 10.953125,22.5625 3.640625,11.03125 3.640625,21.921875 0,10.9375 -3.640625,22.015625 -3.640625,11.078125 -10.953125,22.5625 l -7.8125,0 Q 14.5,2 17.703125,-9.0625 20.90625,-20.125 20.90625,-31.390625 q 0,-11.28125 -3.203125,-22.265625 -3.203125,-11 -9.6875,-22.21875" id="c_e96974be642f6eac0427d72f9cec6c19"></path>
          </defs>
          <g transform="matrix(0,-0.12,0.12,0,14.819375,117.46769)" id="g363" style="fill:#000000">
            <use id="use365" x="0" y="0" width="1" height="1" xlink:href="#c_518d586bee075aa0153eaebfcb5ab11f"></use>
            <use id="use367" x="60.302734" y="0" width="1" height="1" xlink:href="#c_7efa9804c2b4c09a4b614b91fdebee3d"></use>
            <use id="use369" x="99.316406" y="0" width="1" height="1" xlink:href="#c_801fe2e877fad46da27c898b407b3b54"></use>
            <use id="use371" x="158.49609" y="0" width="1" height="1" xlink:href="#c_e96974be642f6eac0427d72f9cec6c19"></use>
          </g>
        </g>
      </g>
      <g id="patch3">
        <path d="m 48.96,16.128 227.52,0" id="path374" style="fill:none;stroke:#000000;stroke-width:1;stroke-linecap:square;stroke-linejoin:round"></path>
      </g>
      <g id="patch4">
        <path d="m 276.48,200.448 0,-184.32" id="path377" style="fill:none;stroke:#000000;stroke-width:1;stroke-linecap:square;stroke-linejoin:round"></path>
      </g>
      <g id="patch5">
        <path d="m 48.96,200.448 227.52,0" id="path380" style="fill:none;stroke:#000000;stroke-width:1;stroke-linecap:square;stroke-linejoin:round"></path>
      </g>
      <g id="patch6">
        <path d="m 48.96,200.448 0,-184.32" id="path383" style="fill:none;stroke:#000000;stroke-width:1;stroke-linecap:square;stroke-linejoin:round"></path>
      </g>
      <g id="legend1">
        <g id="line2d33">
          <path d="m 196.52,34.688625 10.24,0" id="path387" style="fill:none;stroke:#ffa500;stroke-width:1.5;stroke-linecap:square;stroke-linejoin:round"></path>
        </g>
        <g id="line2d34"></g>
        <g id="text17">
          <defs id="defs391">
            <path d="M 6.296875,0 Q 5.078125,0 5.078125,-1.3125 L 13.625,-35.296875 q 0.390625,-1.71875 0.484375,-2.6875 0,-1.609375 -6.484375,-1.609375 -1.03125,0 -1.03125,-1.328125 0.046875,-0.234375 0.21875,-0.875 0.171875,-0.640625 0.4375,-0.96875 0.265625,-0.34375 0.765625,-0.34375 l 13.46875,-1.078125 q 1.21875,0 1.21875,1.265625 l -9.8125,39.203125 q 7.90625,-2.625 14.5625,-8.234375 6.671875,-5.625 11.28125,-13.234375 4.625,-7.625 6.671875,-15.828125 0.390625,-1.421875 1.5625,-2.296875 1.171875,-0.875 2.640625,-0.875 1.3125,0 2.140625,0.78125 0.84375,0.78125 0.84375,2.09375 0,1.609375 -1.328125,4.90625 -1.3125,3.296875 -2.578125,5.890625 -3.953125,7.859375 -10.5,14.40625 -4.109375,4.09375 -8.828125,7.265625 Q 24.65625,-5.671875 19.53125,-3.4375 14.40625,-1.21875 8.6875,0 z" id="c_32edf484d6455aaf5dbeeedbc2acd75b"></path>
            <path d="m 7.515625,-13.28125 q -0.828125,0 -1.375,-0.625 -0.53125,-0.640625 -0.53125,-1.375 0,-0.828125 0.53125,-1.40625 0.546875,-0.59375 1.375,-0.59375 l 62.796875,0 q 0.734375,0 1.265625,0.59375 0.546875,0.578125 0.546875,1.40625 0,0.734375 -0.546875,1.375 -0.53125,0.625 -1.265625,0.625 z m 0,-19.4375 q -0.828125,0 -1.375,-0.578125 -0.53125,-0.59375 -0.53125,-1.421875 0,-0.734375 0.53125,-1.359375 0.546875,-0.640625 1.375,-0.640625 l 62.796875,0 q 0.734375,0 1.265625,0.640625 0.546875,0.625 0.546875,1.359375 0,0.828125 -0.546875,1.421875 -0.53125,0.578125 -1.265625,0.578125 z" id="c_7bbc93c01755cdeb977d08bdfb9ce616"></path>
            <path d="m 9.28125,0 0,-3.515625 q 12.5,0 12.5,-3.171875 l 0,-52.5 q -5.171875,2.5 -13.09375,2.5 l 0,-3.515625 q 12.265625,0 18.515625,-6.40625 l 1.40625,0 q 0.34375,0 0.65625,0.28125 0.328125,0.265625 0.328125,0.609375 l 0,59.03125 q 0,3.171875 12.5,3.171875 l 0,3.515625 z" id="c_1a459ac34855d27ec37ccb0e66298d36"></path>
          </defs>
          <g id="mathtext1">
            <g transform="translate(212.52,39.728625)" id="g397" style="fill:#000000">
              <use transform="matrix(0.144,0,0,0.144,0,-0.421875)" id="use399" x="0" y="0" width="1" height="1" xlink:href="#c_32edf484d6455aaf5dbeeedbc2acd75b"></use>
              <use transform="matrix(0.144,0,0,0.144,9.637784,-0.421875)" id="use401" x="0" y="0" width="1" height="1" xlink:href="#c_7bbc93c01755cdeb977d08bdfb9ce616"></use>
              <use transform="matrix(0.144,0,0,0.144,21.727075,-0.421875)" id="use403" x="0" y="0" width="1" height="1" xlink:href="#c_1a459ac34855d27ec37ccb0e66298d36"></use>
            </g>
          </g>
        </g>
        <g id="line2d35">
          <path d="m 196.52,55.4355 10.24,0" id="path406" style="fill:none;stroke:#800080;stroke-width:1.5;stroke-linecap:square;stroke-linejoin:round"></path>
        </g>
        <g id="line2d36"></g>
        <g id="text18">
          <defs id="defs410">
            <path d="m 4.984375,0 0,-2.6875 q 0,-0.25 0.1875,-0.53125 l 15.53125,-17.1875 q 3.515625,-3.8125 5.703125,-6.390625 2.203125,-2.59375 4.34375,-5.96875 2.15625,-3.375 3.40625,-6.859375 1.25,-3.484375 1.25,-7.390625 0,-4.109375 -1.515625,-7.84375 Q 32.375,-58.59375 29.375,-60.84375 q -3,-2.25 -7.25,-2.25 -4.34375,0 -7.8125,2.625 -3.46875,2.609375 -4.890625,6.75 Q 9.8125,-53.8125 10.5,-53.8125 q 2.25,0 3.828125,1.515625 1.59375,1.515625 1.59375,3.90625 0,2.296875 -1.59375,3.890625 Q 12.75,-42.921875 10.5,-42.921875 q -2.34375,0 -3.9375,-1.625 -1.578125,-1.640625 -1.578125,-3.84375 0,-3.765625 1.40625,-7.046875 1.421875,-3.296875 4.078125,-5.859375 2.671875,-2.578125 6.015625,-3.9375 3.34375,-1.375 7.09375,-1.375 5.71875,0 10.640625,2.421875 4.9375,2.421875 7.8125,6.84375 2.890625,4.40625 2.890625,10.328125 0,4.34375 -1.90625,8.25 -1.90625,3.90625 -4.890625,7.109375 -2.96875,3.1875 -7.609375,7.25 Q 25.875,-20.359375 24.421875,-19 l -11.328125,10.890625 9.609375,0 q 7.078125,0 11.84375,-0.109375 4.765625,-0.125 5.046875,-0.375 Q 40.765625,-9.859375 42,-17.828125 l 2.921875,0 L 42.09375,0 z" id="c_1210e7f4d85518601ea3049211d562d0"></path>
          </defs>
          <g id="mathtext2">
            <g transform="translate(212.52,60.4755)" id="g414" style="fill:#000000">
              <use transform="matrix(0.144,0,0,0.144,0,-0.421875)" id="use416" x="0" y="0" width="1" height="1" xlink:href="#c_32edf484d6455aaf5dbeeedbc2acd75b"></use>
              <use transform="matrix(0.144,0,0,0.144,9.637784,-0.421875)" id="use418" x="0" y="0" width="1" height="1" xlink:href="#c_7bbc93c01755cdeb977d08bdfb9ce616"></use>
              <use transform="matrix(0.144,0,0,0.144,21.727075,-0.421875)" id="use420" x="0" y="0" width="1" height="1" xlink:href="#c_1210e7f4d85518601ea3049211d562d0"></use>
            </g>
          </g>
        </g>
        <g id="line2d37">
          <path d="m 196.52,76.182375 10.24,0" id="path423" style="fill:none;stroke:#00bfff;stroke-width:1.5;stroke-linecap:square;stroke-linejoin:round"></path>
        </g>
        <g id="line2d38"></g>
        <g id="text19">
          <defs id="defs427">
            <path d="m 8.6875,-11.375 q 1.03125,2.921875 3.15625,5.328125 2.125,2.390625 5.03125,3.734375 2.90625,1.328125 6.03125,1.328125 7.21875,0 9.953125,-5.609375 2.734375,-5.609375 2.734375,-13.625 0,-3.46875 -0.125,-5.828125 -0.109375,-2.375 -0.65625,-4.5625 -0.921875,-3.515625 -3.25,-6.15625 -2.3125,-2.640625 -5.6875,-2.640625 -3.359375,0 -5.78125,1.03125 -2.421875,1.015625 -3.9375,2.390625 -1.5,1.359375 -2.671875,2.875 Q 12.3125,-31.59375 12.015625,-31.5 l -1.125,0 q -0.25,0 -0.625,-0.3125 Q 9.90625,-32.125 9.90625,-32.421875 l 0,-33.40625 q 0,-0.234375 0.3125,-0.5 0.328125,-0.28125 0.671875,-0.28125 l 0.296875,0 q 6.734375,3.234375 14.296875,3.234375 7.421875,0 14.3125,-3.234375 l 0.296875,0 q 0.34375,0 0.625,0.25 0.296875,0.25 0.296875,0.53125 l 0,0.9375 q 0,0.484375 -0.1875,0.484375 -3.421875,4.546875 -8.578125,7.09375 -5.15625,2.53125 -10.671875,2.53125 -4,0 -8.203125,-1.125 l 0,18.890625 q 3.328125,-2.6875 5.9375,-3.828125 Q 21.921875,-42 25.984375,-42 q 5.515625,0 9.875,3.1875 4.375,3.171875 6.71875,8.28125 2.34375,5.09375 2.34375,10.40625 0,6.015625 -2.953125,11.140625 -2.953125,5.125 -8.03125,8.15625 -5.078125,3.03125 -11.03125,3.03125 -4.9375,0 -9.0625,-2.53125 -4.125,-2.546875 -6.5,-6.84375 -2.359375,-4.296875 -2.359375,-9.140625 0,-2.25 1.453125,-3.65625 1.46875,-1.421875 3.671875,-1.421875 2.203125,0 3.6875,1.453125 1.484375,1.4375 1.484375,3.625 0,2.15625 -1.484375,3.640625 -1.484375,1.484375 -3.6875,1.484375 -0.34375,0 -0.78125,-0.0625 -0.4375,-0.07813 -0.640625,-0.125" id="c_7d09e94cce4bdf71f2297f5bbc354b76"></path>
          </defs>
          <g id="mathtext3">
            <g transform="translate(212.52,82.222375)" id="g431" style="fill:#000000">
              <use transform="matrix(0.144,0,0,0.144,0,-1.421875)" id="use433" x="0" y="0" width="1" height="1" xlink:href="#c_32edf484d6455aaf5dbeeedbc2acd75b"></use>
              <use transform="matrix(0.144,0,0,0.144,9.637784,-1.421875)" id="use435" x="0" y="0" width="1" height="1" xlink:href="#c_7bbc93c01755cdeb977d08bdfb9ce616"></use>
              <use transform="matrix(0.144,0,0,0.144,21.727075,-1.421875)" id="use437" x="0" y="0" width="1" height="1" xlink:href="#c_7d09e94cce4bdf71f2297f5bbc354b76"></use>
            </g>
          </g>
        </g>
        <g id="line2d39">
          <path d="m 196.52,96.92925 10.24,0" id="path440" style="fill:none;stroke:#000000;stroke-width:1.5;stroke-linecap:square;stroke-linejoin:round"></path>
        </g>
        <g id="line2d40"></g>
        <g id="text20">
          <defs id="defs444">
            <path d="m 7.515625,-23 q -0.828125,0 -1.375,-0.625 -0.53125,-0.640625 -0.53125,-1.375 0,-0.734375 0.53125,-1.359375 Q 6.6875,-27 7.515625,-27 l 29.40625,0 0,-29.5 q 0,-0.78125 0.578125,-1.28125 0.59375,-0.515625 1.421875,-0.515625 0.734375,0 1.359375,0.515625 0.640625,0.5 0.640625,1.28125 l 0,29.5 29.390625,0 q 0.734375,0 1.265625,0.640625 0.546875,0.625 0.546875,1.359375 0,0.734375 -0.546875,1.375 Q 71.046875,-23 70.3125,-23 l -29.390625,0 0,29.5 q 0,0.78125 -0.640625,1.28125 -0.625,0.515625 -1.359375,0.515625 Q 38.09375,8.296875 37.5,7.78125 36.921875,7.28125 36.921875,6.5 l 0,-29.5 z" id="c_6a3a612567bb59e037cbf13158797929"></path>
            <path d="m 24.609375,1.125 q -5.65625,0 -10.03125,-3.3125 -4.375,-3.328125 -6.671875,-8.59375 -2.296875,-5.28125 -2.296875,-10.796875 0,-4.25 1.34375,-8.296875 1.34375,-4.0625 3.875,-7.28125 2.546875,-3.21875 6.140625,-5.125 3.59375,-1.90625 7.9375,-1.90625 4.484375,0 8.6875,1.71875 4.203125,1.703125 7.6875,4.53125 3.5,2.828125 6.515625,6.546875 l 2.984375,4 q 2.984375,-4.734375 6.59375,-8.46875 3.609375,-3.734375 8.171875,-6.03125 4.578125,-2.296875 9.75,-2.296875 4.34375,0 7.90625,1.9375 3.5625,1.921875 6.046875,5.25 2.5,3.3125 3.765625,7.34375 1.265625,4.015625 1.265625,8.078125 0,5.65625 -2.375,10.90625 -2.359375,5.25 -6.734375,8.53125 Q 80.8125,1.125 75,1.125 q -6.546875,0 -12.4375,-3.515625 -5.875,-3.515625 -10.46875,-9.328125 l -2.96875,-4 Q 44.53125,-8.25 38.296875,-3.5625 32.078125,1.125 24.609375,1.125 m -1.03125,-3.515625 q 12.703125,0 22.71875,-17 L 41.015625,-26.125 q -4.59375,-6.046875 -8.546875,-9.46875 -3.953125,-3.421875 -9.171875,-3.421875 -4.453125,0 -7.890625,2.515625 -3.4375,2.515625 -5.328125,6.578125 -1.875,4.046875 -1.875,8.4375 0,3.375 1.046875,6.765625 1.046875,3.390625 3.046875,6.171875 2.015625,2.78125 4.859375,4.46875 2.859375,1.6875 6.421875,1.6875 M 58.890625,-17 q 4.59375,6.0625 8.546875,9.484375 3.953125,3.40625 9.171875,3.40625 3.328125,0 6.109375,-1.453125 2.78125,-1.46875 4.796875,-3.953125 2.03125,-2.5 3.109375,-5.625 1.078125,-3.125 1.078125,-6.4375 0,-4.640625 -1.859375,-9.0625 -1.859375,-4.421875 -5.359375,-7.25 Q 81,-40.71875 76.3125,-40.71875 q -12.6875,0 -22.703125,17.03125 z" id="c_04111b2b7db28f5ad55cf0eace59d749"></path>
          </defs>
          <g id="mathtext4">
            <g transform="translate(212.52,103.96925)" id="g449" style="fill:#000000">
              <use transform="matrix(0.144,0,0,0.144,0,-2.609375)" id="use451" x="0" y="0" width="1" height="1" xlink:href="#c_32edf484d6455aaf5dbeeedbc2acd75b"></use>
              <use transform="matrix(0.144,0,0,0.144,9.637784,-2.609375)" id="use453" x="0" y="0" width="1" height="1" xlink:href="#c_7bbc93c01755cdeb977d08bdfb9ce616"></use>
              <use transform="matrix(0.144,0,0,0.144,24.253867,-2.609375)" id="use455" x="0" y="0" width="1" height="1" xlink:href="#c_6a3a612567bb59e037cbf13158797929"></use>
              <use transform="matrix(0.144,0,0,0.144,36.343158,-2.609375)" id="use457" x="0" y="0" width="1" height="1" xlink:href="#c_04111b2b7db28f5ad55cf0eace59d749"></use>
            </g>
          </g>
        </g>
      </g>
    </g>
  </g>
</svg>
