<!-- Created with Inkscape (http://www.inkscape.org/) -->
<svg xmlns:dc="http://purl.org/dc/elements/1.1/" xmlns:cc="http://creativecommons.org/ns#" xmlns:rdf="http://www.w3.org/1999/02/22-rdf-syntax-ns#" xmlns:svg="http://www.w3.org/2000/svg" xmlns="http://www.w3.org/2000/svg" xmlns:inkscape="http://www.inkscape.org/namespaces/inkscape" version="1.1" width="199.59pt" height="262.04999pt" id="svg2">
  <metadata id="metadata7"></metadata>
  <defs id="defs5"></defs>
  <path d="M 26.978438,14.82279 26.277481,324.59506" id="path3152" style="fill:none;stroke:#000000;stroke-width:2.2562499;stroke-linecap:butt;stroke-linejoin:miter;stroke-miterlimit:4;stroke-opacity:1;stroke-dasharray:none;marker-start:none;marker-end:none"></path>
  <path d="M 1.9105808,311.20323 235.90377,310.61555" id="path3154" style="fill:none;stroke:#000000;stroke-width:2.2562499;stroke-linecap:butt;stroke-linejoin:miter;stroke-miterlimit:4;stroke-opacity:1;stroke-dasharray:none;marker-end:none"></path>
  <path d="m 203.61456,24.481225 0,192.070525 -159.917739,0" id="path1535" style="fill:none;stroke:#0081cd;stroke-width:3.00762558;stroke-linecap:butt;stroke-linejoin:miter;stroke-miterlimit:4;stroke-opacity:1;stroke-dasharray:none"></path>
  <path d="M 6.3822542,262.82323 C 221.29816,3.0626487 221.29816,3.0626487 221.29816,3.0626487" id="path1533" style="fill:#bc1e47;fill-opacity:1;fill-rule:evenodd;stroke:#bc1e47;stroke-width:4.51143837;stroke-linecap:butt;stroke-linejoin:miter;stroke-miterlimit:4;stroke-opacity:1;stroke-dasharray:none"></path>
  <text x="120.0947" y="243.70676" id="text2800" xml:space="preserve" style="font-size:27.06863022px;font-style:oblique;font-variant:normal;font-weight:normal;font-stretch:normal;text-align:start;line-height:125%;writing-mode:lr-tb;text-anchor:start;fill:#000000;fill-opacity:1;stroke:none;font-family:Bitstream Vera Sans">
    <tspan x="120.0947" y="243.70676" id="tspan2802">x</tspan>
  </text>
  <text x="211.26093" y="109.98105" id="text2804" xml:space="preserve" style="font-size:27.06863022px;font-style:oblique;font-variant:normal;font-weight:normal;font-stretch:normal;text-align:start;line-height:125%;writing-mode:lr-tb;text-anchor:start;fill:#000000;fill-opacity:1;stroke:none;font-family:Bitstream Vera Sans">
    <tspan x="211.26093" y="109.98105" id="tspan2806">y</tspan>
  </text>
  <path d="m 27.198757,5.247713 -9.098146,24.690374 c 0,0 0.393825,-0.249155 0.707277,-0.450085 0.313452,-0.200932 0.168781,-0.136633 0.546531,-0.353638 0.37775,-0.217006 0.594756,-0.329528 0.964468,-0.514383 0.369713,-0.184857 0.241116,-0.112521 0.514383,-0.225042 0.273266,-0.112521 0.241117,-0.08841 0.578681,-0.225043 0.337564,-0.136633 0.393825,-0.176819 0.771574,-0.321489 0.37775,-0.144671 0.313452,-0.14467 0.739425,-0.257192 0.425972,-0.112522 0.546532,-0.104484 0.964468,-0.192893 0.417936,-0.08841 0.305415,-0.09645 0.707277,-0.160745 0.401861,-0.0643 0.458121,-0.04822 0.900169,-0.09645 0.442047,-0.04822 0.458122,-0.08037 0.868021,-0.09645 0.409898,-0.01608 0.345601,0.02411 0.771574,0.03215 0.425973,0.008 0.554569,-0.008 0.932319,0 0.37775,0.008 0.28934,0.008 0.57868,0.03215 0.289341,0.02411 0.249155,0.02411 0.578682,0.0643 0.329526,0.04019 0.297377,0.02411 0.739424,0.09645 0.442048,0.07234 0.675128,0.09645 1.028766,0.192894 0.353638,0.09645 0.81176,0.20093 1.414552,0.417936 0.602793,0.217005 0.570645,0.249154 0.996618,0.450085 0.425973,0.20093 0.337563,0.184856 0.707275,0.353638 0.369713,0.168782 0.393825,0.17682 0.771575,0.385788 0.37775,0.208968 0.393824,0.225041 0.739425,0.450084 0.345601,0.225042 0.642979,0.385787 0.642979,0.385787 L 27.198757,5.247713 z" id="path2808" style="fill:#000000;fill-opacity:1;fill-rule:evenodd;stroke:#000000;stroke-width:0.91420871px;stroke-linecap:butt;stroke-linejoin:miter;stroke-opacity:1"></path>
  <path d="m 239.78845,310.54053 -24.76318,-8.89808 c 0,0 0.25234,0.3918 0.4558,0.70361 0.20346,0.31182 0.13799,0.16767 0.35804,0.54365 0.22006,0.37599 0.33433,0.59207 0.52217,0.96028 0.18785,0.3682 0.11447,0.2402 0.2292,0.51254 0.11473,0.27235 0.0904,0.2404 0.22972,0.57685 0.13936,0.33644 0.18,0.39238 0.32772,0.76894 0.14772,0.37657 0.1472,0.31227 0.26317,0.73732 0.11596,0.42505 0.1089,0.54567 0.20069,0.96288 0.0918,0.41721 0.0989,0.30462 0.16646,0.70595 0.0675,0.40133 0.0519,0.45772 0.10372,0.89936 0.0518,0.44164 0.0841,0.45746 0.10347,0.86721 0.0194,0.40976 -0.0213,0.34579 -0.0259,0.77181 -0.005,0.42603 0.0125,0.55449 0.008,0.93229 -0.005,0.3778 -0.006,0.2894 -0.0275,0.57892 -0.0218,0.28953 -0.0221,0.24934 -0.0596,0.57918 -0.0375,0.32985 -0.0217,0.29757 -0.0905,0.74019 -0.0688,0.44261 -0.091,0.67588 -0.18457,1.03029 -0.0936,0.3544 -0.19435,0.81336 -0.40647,1.41789 -0.21212,0.60452 -0.24453,0.57264 -0.44201,1.00022 -0.19748,0.42759 -0.18212,0.33905 -0.3479,0.71012 -0.16579,0.37106 -0.17363,0.39524 -0.37954,0.77467 -0.2059,0.37942 -0.22184,0.39563 -0.44408,0.74304 -0.22224,0.34741 -0.38058,0.64608 -0.38058,0.64608 l 24.58407,-9.26521 z" id="path2810" style="fill:#000000;fill-opacity:1;fill-rule:evenodd;stroke:#000000;stroke-width:0.91420871px;stroke-linecap:butt;stroke-linejoin:miter;stroke-opacity:1"></path>
</svg>
