<!-- Created with Inkscape (http://www.inkscape.org/) -->
<svg xmlns:dc="http://purl.org/dc/elements/1.1/" xmlns:cc="http://creativecommons.org/ns#" xmlns:rdf="http://www.w3.org/1999/02/22-rdf-syntax-ns#" xmlns:svg="http://www.w3.org/2000/svg" xmlns="http://www.w3.org/2000/svg" xmlns:inkscape="http://www.inkscape.org/namespaces/inkscape" version="1.1" width="569.71997" height="197.07001" id="svg2">
  <defs id="defs4"></defs>
  <metadata id="metadata7"></metadata>
  <g transform="translate(709.14392,-437.64781)" id="layer1">
    <g transform="translate(10.001773,10.001726)" id="g2655">
      <g transform="translate(-524.286,433.68107)" id="g2999">
        <path d="M 164.07127,82.212594 C 170.78505,130.12831 140.37851,174.02521 96.156376,180.25907 51.934221,186.49294 10.642501,152.70312 3.9287292,104.78742 -2.7850408,56.871696 27.621491,12.974796 71.843631,6.740932 116.06577,0.50706203 157.3575,34.296886 164.07127,82.212594 z" id="path1367" style="fill:#000000;fill-opacity:0.19607801;fill-rule:evenodd"></path>
        <g transform="matrix(1.60143,-0.225748,0.243128,1.73518,3.77234,16.0284)" id="g2527">
          <path d="m 49.357798,24.6789 c 0,13.376438 -10.96697,24.220184 -24.495413,24.220184 -13.528443,0 -24.49541303,-10.843746 -24.49541303,-24.220184 0,-13.376438 10.96697003,-24.22018401 24.49541303,-24.22018401 13.528443,0 24.495413,10.84374601 24.495413,24.22018401 z" transform="matrix(2.0412,0,0,2.06439,-0.749062,-0.946976)" id="path1306" style="fill:#712119;fill-opacity:1;fill-rule:evenodd"></path>
          <path d="m -6.880734,14.449541 c 0,2.052067 -1.7251413,3.715596 -3.853211,3.715596 -2.12807,0 -3.853211,-1.663529 -3.853211,-3.715596 0,-2.052067 1.725141,-3.715596 3.853211,-3.715596 2.1280697,0 3.853211,1.663529 3.853211,3.715596 l 0,0 z" transform="matrix(10.3809,0,0,10.7654,161.429,-105.555)" id="path1308" style="fill:#e8c1bd;fill-opacity:1;fill-rule:evenodd"></path>
          <rect width="8" height="52" x="46" y="-76" transform="matrix(0,1,-1,0,0,0)" id="rect4990" style="fill:#712119;fill-opacity:1;fill-rule:evenodd"></rect>
        </g>
      </g>
      <g transform="translate(-336.42806,433.68107)" id="g2579">
        <path d="M 164.07127,82.212593 C 170.78505,130.12831 140.37851,174.02521 96.156375,180.25907 51.93422,186.49294 10.6425,152.70312 3.9287283,104.78742 -2.7850377,56.871695 27.62149,12.974795 71.84363,6.740931 116.06577,0.50706102 157.3575,34.296885 164.07127,82.212593 z" id="path2581" style="fill:#000000;fill-opacity:0.19607801;fill-rule:evenodd"></path>
        <g transform="matrix(1.60143,-0.225748,0.243128,1.73518,3.77234,16.0284)" id="g2583">
          <path d="m 49.357798,24.6789 c 0,13.376438 -10.96697,24.220184 -24.495413,24.220184 -13.528443,0 -24.49541303,-10.843746 -24.49541303,-24.220184 0,-13.376438 10.96697003,-24.22018401 24.49541303,-24.22018401 13.528443,0 24.495413,10.84374601 24.495413,24.22018401 z" transform="matrix(2.0412,0,0,2.06439,-0.749062,-0.946976)" id="path2585" style="fill:#969696;fill-opacity:1;fill-rule:evenodd"></path>
          <path d="m -6.880734,14.449541 c 0,2.052067 -1.7251413,3.715596 -3.853211,3.715596 -2.12807,0 -3.853211,-1.663529 -3.853211,-3.715596 0,-2.052067 1.725141,-3.715596 3.853211,-3.715596 2.1280697,0 3.853211,1.663529 3.853211,3.715596 l 0,0 z" transform="matrix(10.3809,0,0,10.7654,161.429,-105.555)" id="path2587" style="fill:#dcdcdc;fill-opacity:1;fill-rule:evenodd"></path>
          <rect width="8" height="52" x="54" y="-76" transform="matrix(0,1,-1,0,0,0)" id="rect4988" style="fill:#969696;fill-opacity:1;fill-rule:evenodd"></rect>
          <rect width="8" height="52" x="38" y="-76" transform="matrix(0,1,-1,0,0,0)" id="rect2590" style="fill:#969696;fill-opacity:1;fill-rule:evenodd"></rect>
        </g>
      </g>
      <g transform="translate(-712.14322,433.68109)" id="g2637">
        <path d="M 164.07,82.2 C 170.8,130.13 140.4,174 96.2,180.3 51.9,186.5 10.6,152.7 3.93,104.79 -2.79,56.87 27.6,12.98 71.843612,6.7 116.1,0.5 157.4,34.3 164,82.21 l 0.07,-0.01 z" id="1" style="fill-opacity:0.2"></path>
        <path d="M 176.07,80.2 C 182.8,128 152.4,172.03 108.16,178.26 63.9,184.5 22.6,150.7 15.9,102.79 9.22,54.9 39.6,10.9 83.8,4.7 128,-1.5 169,32.3 176,80.2 l 0.07,0 z" id="2" style="fill:#006622"></path>
        <path d="M 160.057,82.470048 C 165.43,120.8 141.1,155.9 105.7,160.9 70.35,165.89 37.3,138.9 31.9,100.5 26.6,62.2 50.9,27 86.3,22 c 35.4,-4.9 68.4,22 73.757,60.5 l 0,0 0,-0.02995 z" id="3" style="fill:#ddeedd"></path>
        <path d="m 83.3,47.3 5.3,38.16 -35.2,4.97 1.9,13.87 35.27,-5.3 5.35,38.5 12.78,-1.8 -5.3,-38.2 35.2,-4.9 L 136.7,78.69 101,83.7 96,45.5 83.3,47.3 z" id="4" style="fill:#006622"></path>
      </g>
    </g>
  </g>
</svg>
